M48
; DRILL file {KiCad (6.0.5-0)} date Tuesday, March 07, 2023 at 01:12:23 AM
; FORMAT={-:-/ absolute / metric / decimal}
; #@! TF.CreationDate,2023-03-07T01:12:23-05:00
; #@! TF.GenerationSoftware,Kicad,Pcbnew,(6.0.5-0)
; #@! TF.FileFunction,Plated,1,2,PTH
FMAT,2
METRIC
; #@! TA.AperFunction,Plated,PTH,ViaDrill
T1C0.381
; #@! TA.AperFunction,Plated,PTH,ComponentDrill
T2C0.500
; #@! TA.AperFunction,Plated,PTH,ComponentDrill
T3C0.700
; #@! TA.AperFunction,Plated,PTH,ComponentDrill
T4C1.000
; #@! TA.AperFunction,Plated,PTH,ComponentDrill
T5C1.200
; #@! TA.AperFunction,Plated,PTH,ComponentDrill
T6C3.200
%
G90
G05
T1
X54.864Y-117.856
X54.864Y-119.38
X54.864Y-120.904
X56.642Y-117.856
X56.642Y-119.38
X56.642Y-120.904
X58.42Y-117.856
X58.42Y-119.38
X58.42Y-120.904
X60.198Y-117.856
X60.198Y-119.38
X60.198Y-120.904
X80.1Y-73.0
X87.5Y-73.0
X117.665Y-95.822
X131.064Y-89.789
X131.064Y-90.678
X131.064Y-91.567
X131.826Y-89.789
X131.826Y-90.678
X131.826Y-91.567
X132.588Y-89.789
X132.588Y-90.678
X132.588Y-91.567
X140.843Y-93.345
X140.843Y-94.742
X141.447Y-104.397
X141.732Y-127.508
X141.732Y-129.794
X141.732Y-132.08
X143.002Y-93.345
X143.002Y-94.742
X143.256Y-127.508
X143.256Y-129.794
X143.256Y-132.08
X143.447Y-104.397
X145.034Y-127.508
X145.034Y-129.794
X145.034Y-132.08
X145.288Y-93.345
X145.288Y-94.742
X145.447Y-104.397
X146.558Y-127.508
X146.558Y-129.794
X146.558Y-132.08
X147.447Y-93.345
X147.447Y-94.742
X147.447Y-104.397
T2
X101.346Y-75.692
T3
X96.266Y-93.726
X101.346Y-93.726
T4
X58.166Y-78.105
X142.062Y-75.565
X144.145Y-121.285
X146.177Y-75.565
T5
X105.161Y-64.3
X105.232Y-72.174
X109.017Y-64.3
X109.088Y-72.174
X114.884Y-72.174
X114.94Y-64.3
X118.74Y-72.174
X118.796Y-64.3
T6
X58.28Y-58.89
X58.28Y-138.89
X144.005Y-62.69
X144.005Y-136.35
T0
M30
