G04 #@! TF.GenerationSoftware,KiCad,Pcbnew,(6.0.5-0)*
G04 #@! TF.CreationDate,2023-03-07T01:11:42-05:00*
G04 #@! TF.ProjectId,batteryboard,62617474-6572-4796-926f-6172642e6b69,rev?*
G04 #@! TF.SameCoordinates,Original*
G04 #@! TF.FileFunction,Copper,L1,Top*
G04 #@! TF.FilePolarity,Positive*
%FSLAX46Y46*%
G04 Gerber Fmt 4.6, Leading zero omitted, Abs format (unit mm)*
G04 Created by KiCad (PCBNEW (6.0.5-0)) date 2023-03-07 01:11:42*
%MOMM*%
%LPD*%
G01*
G04 APERTURE LIST*
G04 Aperture macros list*
%AMRoundRect*
0 Rectangle with rounded corners*
0 $1 Rounding radius*
0 $2 $3 $4 $5 $6 $7 $8 $9 X,Y pos of 4 corners*
0 Add a 4 corners polygon primitive as box body*
4,1,4,$2,$3,$4,$5,$6,$7,$8,$9,$2,$3,0*
0 Add four circle primitives for the rounded corners*
1,1,$1+$1,$2,$3*
1,1,$1+$1,$4,$5*
1,1,$1+$1,$6,$7*
1,1,$1+$1,$8,$9*
0 Add four rect primitives between the rounded corners*
20,1,$1+$1,$2,$3,$4,$5,0*
20,1,$1+$1,$4,$5,$6,$7,0*
20,1,$1+$1,$6,$7,$8,$9,0*
20,1,$1+$1,$8,$9,$2,$3,0*%
G04 Aperture macros list end*
G04 #@! TA.AperFunction,SMDPad,CuDef*
%ADD10R,1.000000X0.600000*%
G04 #@! TD*
G04 #@! TA.AperFunction,SMDPad,CuDef*
%ADD11RoundRect,0.218750X-0.256250X0.218750X-0.256250X-0.218750X0.256250X-0.218750X0.256250X0.218750X0*%
G04 #@! TD*
G04 #@! TA.AperFunction,SMDPad,CuDef*
%ADD12RoundRect,0.218750X0.218750X0.256250X-0.218750X0.256250X-0.218750X-0.256250X0.218750X-0.256250X0*%
G04 #@! TD*
G04 #@! TA.AperFunction,SMDPad,CuDef*
%ADD13RoundRect,0.218750X0.256250X-0.218750X0.256250X0.218750X-0.256250X0.218750X-0.256250X-0.218750X0*%
G04 #@! TD*
G04 #@! TA.AperFunction,SMDPad,CuDef*
%ADD14RoundRect,0.150000X-0.825000X-0.150000X0.825000X-0.150000X0.825000X0.150000X-0.825000X0.150000X0*%
G04 #@! TD*
G04 #@! TA.AperFunction,SMDPad,CuDef*
%ADD15RoundRect,0.150000X0.825000X0.150000X-0.825000X0.150000X-0.825000X-0.150000X0.825000X-0.150000X0*%
G04 #@! TD*
G04 #@! TA.AperFunction,SMDPad,CuDef*
%ADD16RoundRect,0.250000X1.425000X-0.425000X1.425000X0.425000X-1.425000X0.425000X-1.425000X-0.425000X0*%
G04 #@! TD*
G04 #@! TA.AperFunction,ComponentPad*
%ADD17C,2.000000*%
G04 #@! TD*
G04 #@! TA.AperFunction,SMDPad,CuDef*
%ADD18RoundRect,0.250000X-1.500000X0.250000X-1.500000X-0.250000X1.500000X-0.250000X1.500000X0.250000X0*%
G04 #@! TD*
G04 #@! TA.AperFunction,SMDPad,CuDef*
%ADD19RoundRect,0.250001X-1.449999X0.499999X-1.449999X-0.499999X1.449999X-0.499999X1.449999X0.499999X0*%
G04 #@! TD*
G04 #@! TA.AperFunction,ComponentPad*
%ADD20R,2.032000X2.032000*%
G04 #@! TD*
G04 #@! TA.AperFunction,ComponentPad*
%ADD21C,2.032000*%
G04 #@! TD*
G04 #@! TA.AperFunction,ComponentPad*
%ADD22R,0.850000X0.850000*%
G04 #@! TD*
G04 #@! TA.AperFunction,ComponentPad*
%ADD23C,1.400000*%
G04 #@! TD*
G04 #@! TA.AperFunction,ComponentPad*
%ADD24O,1.400000X1.400000*%
G04 #@! TD*
G04 #@! TA.AperFunction,ComponentPad*
%ADD25C,4.500000*%
G04 #@! TD*
G04 #@! TA.AperFunction,WasherPad*
%ADD26C,3.800000*%
G04 #@! TD*
G04 #@! TA.AperFunction,ViaPad*
%ADD27C,0.584200*%
G04 #@! TD*
G04 #@! TA.AperFunction,Conductor*
%ADD28C,0.279400*%
G04 #@! TD*
G04 #@! TA.AperFunction,Conductor*
%ADD29C,0.609600*%
G04 #@! TD*
G04 #@! TA.AperFunction,Conductor*
%ADD30C,0.500000*%
G04 #@! TD*
G04 APERTURE END LIST*
D10*
X113789000Y-90744000D03*
X113789000Y-91694000D03*
X113789000Y-92644000D03*
X116589000Y-92644000D03*
X116589000Y-91694000D03*
X116589000Y-90744000D03*
D11*
X120523000Y-90906500D03*
X120523000Y-92481500D03*
X118745000Y-90906500D03*
X118745000Y-92481500D03*
X115570000Y-94208500D03*
X115570000Y-95783500D03*
D12*
X128613000Y-82677000D03*
X127038000Y-82677000D03*
X123850500Y-93281500D03*
X122275500Y-93281500D03*
D13*
X118745000Y-95783500D03*
X118745000Y-94208500D03*
D14*
X109412000Y-83312000D03*
X109412000Y-84582000D03*
X109412000Y-85852000D03*
X109412000Y-87122000D03*
X114362000Y-87122000D03*
X114362000Y-85852000D03*
X114362000Y-84582000D03*
X114362000Y-83312000D03*
D15*
X123633000Y-87122000D03*
X123633000Y-85852000D03*
X123633000Y-84582000D03*
X123633000Y-83312000D03*
X118683000Y-83312000D03*
X118683000Y-84582000D03*
X118683000Y-85852000D03*
X118683000Y-87122000D03*
D11*
X113792000Y-94208500D03*
X113792000Y-95783500D03*
D16*
X128587500Y-90720500D03*
X128587500Y-84920500D03*
D17*
X144145000Y-121285000D03*
X58166000Y-78105000D03*
X142062200Y-75565000D03*
X146177000Y-75565000D03*
D18*
X84350000Y-73000000D03*
X84350000Y-75000000D03*
D19*
X78600000Y-77350000D03*
X78600000Y-70650000D03*
D20*
X109016800Y-64300000D03*
D21*
X105161200Y-64300000D03*
D20*
X105232200Y-72174000D03*
D21*
X109087800Y-72174000D03*
D20*
X118795800Y-64300000D03*
D21*
X114940200Y-64300000D03*
D20*
X114884200Y-72174000D03*
D21*
X118739800Y-72174000D03*
D22*
X101346000Y-75692000D03*
D23*
X101346000Y-93726000D03*
D24*
X96266000Y-93726000D03*
D25*
X144005300Y-136349900D03*
X58280300Y-58889900D03*
X58280300Y-138889900D03*
X144005300Y-62689900D03*
D26*
X128717400Y-96569800D03*
X73517400Y-80569800D03*
X73542800Y-121844800D03*
X128742800Y-137844800D03*
X128742800Y-117194600D03*
X73542800Y-101194600D03*
X73517400Y-59919600D03*
X128717400Y-75919600D03*
D27*
X143256000Y-129794000D03*
X146558000Y-129794000D03*
X145034000Y-129794000D03*
X141732000Y-129794000D03*
X146558000Y-132080000D03*
X141732000Y-132080000D03*
X143256000Y-132080000D03*
X145034000Y-132080000D03*
X131826000Y-90678000D03*
X132588000Y-90678000D03*
X131064000Y-90678000D03*
X131826000Y-91567000D03*
X131064000Y-91567000D03*
X132588000Y-91567000D03*
X141732000Y-127508000D03*
X131064000Y-89789000D03*
X132588000Y-89789000D03*
X146558000Y-127508000D03*
X143256000Y-127508000D03*
X131826000Y-89789000D03*
X145034000Y-127508000D03*
X54864000Y-119380000D03*
X58420000Y-119380000D03*
X56642000Y-119380000D03*
X60198000Y-119380000D03*
X60198000Y-120904000D03*
X58420000Y-120904000D03*
X54864000Y-120904000D03*
X56642000Y-120904000D03*
X58420000Y-117856000D03*
X117665498Y-95821500D03*
X54864000Y-117856000D03*
X56642000Y-117856000D03*
X60198000Y-117856000D03*
X140843000Y-94742000D03*
X143002000Y-94742000D03*
X145288000Y-94742000D03*
X147447000Y-94742000D03*
X145447000Y-104397000D03*
X141447000Y-104397000D03*
X143447000Y-104397000D03*
X147447000Y-104397000D03*
X143002000Y-93345000D03*
X147447000Y-93345000D03*
X80100000Y-73000000D03*
X140843000Y-93345000D03*
X145288000Y-93345000D03*
X87500000Y-73000000D03*
D28*
X121323000Y-93281500D02*
X120523000Y-92481500D01*
X120523000Y-92456000D02*
X120523000Y-92481500D01*
X122275500Y-93281500D02*
X121323000Y-93281500D01*
X119761000Y-91694000D02*
X120523000Y-92456000D01*
X116589000Y-91694000D02*
X119761000Y-91694000D01*
X120523000Y-90906500D02*
X128401500Y-90906500D01*
X116589000Y-90744000D02*
X116655000Y-90678000D01*
X118745000Y-90678000D02*
X120294500Y-90678000D01*
X116655000Y-90678000D02*
X118745000Y-90678000D01*
X115809600Y-90744000D02*
X116589000Y-90744000D01*
X118745000Y-90906500D02*
X118745000Y-90678000D01*
X115570000Y-94208500D02*
X115570000Y-90983600D01*
X128401500Y-90906500D02*
X128587500Y-90720500D01*
X120294500Y-90678000D02*
X120523000Y-90906500D01*
X115570000Y-90983600D02*
X115809600Y-90744000D01*
X118745000Y-92481500D02*
X118745000Y-94208500D01*
X116589000Y-92644000D02*
X118582500Y-92644000D01*
X118582500Y-92644000D02*
X118745000Y-92481500D01*
X117703498Y-95783500D02*
X117665498Y-95821500D01*
X118745000Y-95783500D02*
X117703498Y-95783500D01*
D29*
X140843000Y-93343000D02*
X140843000Y-93345000D01*
X123850500Y-93281500D02*
X139954000Y-93281500D01*
D30*
X87500000Y-73000000D02*
X80100000Y-73000000D01*
D29*
X139954000Y-92456000D02*
X139956000Y-92456000D01*
X139956000Y-92456000D02*
X140843000Y-93343000D01*
D28*
X121285000Y-83439000D02*
X120523000Y-84201000D01*
X123633000Y-83312000D02*
X123506000Y-83439000D01*
X123506000Y-83439000D02*
X121285000Y-83439000D01*
X120523000Y-84201000D02*
X120523000Y-88392000D01*
X115570000Y-89154000D02*
X113980000Y-90744000D01*
X119761000Y-89154000D02*
X115570000Y-89154000D01*
X120523000Y-88392000D02*
X119761000Y-89154000D01*
X113980000Y-90744000D02*
X113789000Y-90744000D01*
X111569500Y-87693500D02*
X110998000Y-87122000D01*
X113789000Y-91694000D02*
X113009600Y-91694000D01*
X113009600Y-91694000D02*
X111569500Y-90253900D01*
X111569500Y-90253900D02*
X111569500Y-87693500D01*
X110998000Y-87122000D02*
X109412000Y-87122000D01*
D29*
X128613000Y-82677000D02*
X128613000Y-84895000D01*
X128613000Y-84895000D02*
X128587500Y-84920500D01*
D28*
X113789000Y-94205500D02*
X113792000Y-94208500D01*
X113792000Y-94361000D02*
X115214500Y-95783500D01*
X115214500Y-95783500D02*
X115570000Y-95783500D01*
X113792000Y-94208500D02*
X113792000Y-94361000D01*
X113789000Y-92644000D02*
X113789000Y-94205500D01*
G04 #@! TA.AperFunction,Conductor*
G36*
X133069138Y-89425593D02*
G01*
X133094858Y-89470142D01*
X133096000Y-89483200D01*
X133096000Y-92126800D01*
X133078407Y-92175138D01*
X133033858Y-92200858D01*
X133020800Y-92202000D01*
X126567200Y-92202000D01*
X126518862Y-92184407D01*
X126493142Y-92139858D01*
X126492000Y-92126800D01*
X126492000Y-91191171D01*
X126658501Y-91191171D01*
X126658721Y-91195240D01*
X126664686Y-91250151D01*
X126666850Y-91259255D01*
X126713993Y-91385009D01*
X126719083Y-91394306D01*
X126799243Y-91501264D01*
X126806736Y-91508757D01*
X126913694Y-91588917D01*
X126922991Y-91594007D01*
X127048744Y-91641150D01*
X127057851Y-91643315D01*
X127112761Y-91649280D01*
X127116827Y-91649500D01*
X128320241Y-91649500D01*
X128330398Y-91645803D01*
X128333500Y-91640431D01*
X128333500Y-91636240D01*
X128841500Y-91636240D01*
X128845197Y-91646397D01*
X128850569Y-91649499D01*
X130058171Y-91649499D01*
X130062240Y-91649279D01*
X130117151Y-91643314D01*
X130126255Y-91641150D01*
X130252009Y-91594007D01*
X130261306Y-91588917D01*
X130368264Y-91508757D01*
X130375757Y-91501264D01*
X130455917Y-91394306D01*
X130461007Y-91385009D01*
X130508150Y-91259256D01*
X130510315Y-91250149D01*
X130516280Y-91195239D01*
X130516500Y-91191173D01*
X130516500Y-90987759D01*
X130512803Y-90977602D01*
X130507431Y-90974500D01*
X128854759Y-90974500D01*
X128844602Y-90978197D01*
X128841500Y-90983569D01*
X128841500Y-91636240D01*
X128333500Y-91636240D01*
X128333500Y-90987759D01*
X128329803Y-90977602D01*
X128324431Y-90974500D01*
X126671760Y-90974500D01*
X126661603Y-90978197D01*
X126658501Y-90983569D01*
X126658501Y-91191171D01*
X126492000Y-91191171D01*
X126492000Y-90453241D01*
X126658500Y-90453241D01*
X126662197Y-90463398D01*
X126667569Y-90466500D01*
X128320241Y-90466500D01*
X128330398Y-90462803D01*
X128333500Y-90457431D01*
X128333500Y-90453241D01*
X128841500Y-90453241D01*
X128845197Y-90463398D01*
X128850569Y-90466500D01*
X130503240Y-90466500D01*
X130513397Y-90462803D01*
X130516499Y-90457431D01*
X130516499Y-90249829D01*
X130516279Y-90245760D01*
X130510314Y-90190849D01*
X130508150Y-90181745D01*
X130461007Y-90055991D01*
X130455917Y-90046694D01*
X130375757Y-89939736D01*
X130368264Y-89932243D01*
X130261306Y-89852083D01*
X130252009Y-89846993D01*
X130126256Y-89799850D01*
X130117149Y-89797685D01*
X130062239Y-89791720D01*
X130058173Y-89791500D01*
X128854759Y-89791500D01*
X128844602Y-89795197D01*
X128841500Y-89800569D01*
X128841500Y-90453241D01*
X128333500Y-90453241D01*
X128333500Y-89804760D01*
X128329803Y-89794603D01*
X128324431Y-89791501D01*
X127116829Y-89791501D01*
X127112760Y-89791721D01*
X127057849Y-89797686D01*
X127048745Y-89799850D01*
X126922991Y-89846993D01*
X126913694Y-89852083D01*
X126806736Y-89932243D01*
X126799243Y-89939736D01*
X126719083Y-90046694D01*
X126713993Y-90055991D01*
X126666850Y-90181744D01*
X126664685Y-90190851D01*
X126658720Y-90245761D01*
X126658500Y-90249827D01*
X126658500Y-90453241D01*
X126492000Y-90453241D01*
X126492000Y-89483200D01*
X126509593Y-89434862D01*
X126554142Y-89409142D01*
X126567200Y-89408000D01*
X133020800Y-89408000D01*
X133069138Y-89425593D01*
G37*
G04 #@! TD.AperFunction*
G04 #@! TA.AperFunction,Conductor*
G36*
X137133138Y-57170493D02*
G01*
X137158858Y-57215042D01*
X137160000Y-57228100D01*
X137160000Y-58808900D01*
X137142407Y-58857238D01*
X137097858Y-58882958D01*
X137084800Y-58884100D01*
X136996303Y-58884100D01*
X136994480Y-58884279D01*
X136994475Y-58884279D01*
X136848964Y-58898546D01*
X136848959Y-58898547D01*
X136845297Y-58898906D01*
X136650892Y-58957601D01*
X136471591Y-59052937D01*
X136314221Y-59181285D01*
X136311879Y-59184116D01*
X136311875Y-59184120D01*
X136242474Y-59268012D01*
X136184778Y-59337754D01*
X136088192Y-59516386D01*
X136028142Y-59710376D01*
X136006915Y-59912336D01*
X136025320Y-60114572D01*
X136082656Y-60309382D01*
X136176738Y-60489345D01*
X136179041Y-60492209D01*
X136275354Y-60611998D01*
X136303984Y-60647607D01*
X136459546Y-60778139D01*
X136637500Y-60875970D01*
X136831066Y-60937372D01*
X136898687Y-60944957D01*
X136987010Y-60954865D01*
X136987018Y-60954865D01*
X136989109Y-60955100D01*
X137084800Y-60955100D01*
X137133138Y-60972693D01*
X137158858Y-61017242D01*
X137160000Y-61030300D01*
X137160000Y-64008000D01*
X137166850Y-64013563D01*
X138962313Y-65471663D01*
X142494000Y-68339756D01*
X148857200Y-68339756D01*
X148905538Y-68357349D01*
X148931258Y-68401898D01*
X148932400Y-68414956D01*
X148932400Y-84266121D01*
X148914807Y-84314459D01*
X148870258Y-84340179D01*
X148844142Y-84340179D01*
X148758830Y-84325136D01*
X148758824Y-84325135D01*
X148755600Y-84324567D01*
X139775200Y-84324567D01*
X139752591Y-84325554D01*
X139751766Y-84325626D01*
X139751753Y-84325627D01*
X139739931Y-84326661D01*
X139739915Y-84326663D01*
X139739533Y-84326696D01*
X139728272Y-84327929D01*
X139632393Y-84360475D01*
X139587844Y-84386195D01*
X139526268Y-84435615D01*
X139473742Y-84522177D01*
X139456149Y-84570515D01*
X139455579Y-84573746D01*
X139455579Y-84573747D01*
X139441069Y-84656037D01*
X139441068Y-84656043D01*
X139440500Y-84659267D01*
X139440500Y-92748600D01*
X139422907Y-92796938D01*
X139378358Y-92822658D01*
X139365300Y-92823800D01*
X124424647Y-92823800D01*
X124376309Y-92806207D01*
X124371519Y-92801821D01*
X124292453Y-92722893D01*
X124292452Y-92722892D01*
X124288052Y-92718500D01*
X124282468Y-92715771D01*
X124282466Y-92715769D01*
X124190893Y-92671008D01*
X124176894Y-92664165D01*
X124137986Y-92658489D01*
X124107179Y-92653994D01*
X124107174Y-92653994D01*
X124104476Y-92653600D01*
X123596524Y-92653600D01*
X123593808Y-92654000D01*
X123593805Y-92654000D01*
X123552138Y-92660134D01*
X123523476Y-92664353D01*
X123518232Y-92666928D01*
X123518231Y-92666928D01*
X123417988Y-92716145D01*
X123417987Y-92716146D01*
X123412412Y-92718883D01*
X123408025Y-92723277D01*
X123408023Y-92723279D01*
X123346452Y-92784958D01*
X123325000Y-92806448D01*
X123322271Y-92812032D01*
X123322269Y-92812034D01*
X123284496Y-92889311D01*
X123270665Y-92917606D01*
X123267894Y-92936600D01*
X123260497Y-92987305D01*
X123260100Y-92990024D01*
X123260100Y-93572976D01*
X123260500Y-93575692D01*
X123260500Y-93575695D01*
X123260723Y-93577210D01*
X123270853Y-93646024D01*
X123273428Y-93651268D01*
X123273428Y-93651269D01*
X123316744Y-93739492D01*
X123325383Y-93757088D01*
X123329777Y-93761475D01*
X123329779Y-93761477D01*
X123408547Y-93840107D01*
X123412948Y-93844500D01*
X123418532Y-93847229D01*
X123418534Y-93847231D01*
X123477863Y-93876231D01*
X123524106Y-93898835D01*
X123561600Y-93904305D01*
X123593821Y-93909006D01*
X123593826Y-93909006D01*
X123596524Y-93909400D01*
X124104476Y-93909400D01*
X124107192Y-93909000D01*
X124107195Y-93909000D01*
X124148862Y-93902866D01*
X124177524Y-93898647D01*
X124212497Y-93881476D01*
X124283012Y-93846855D01*
X124283013Y-93846854D01*
X124288588Y-93844117D01*
X124292975Y-93839723D01*
X124292977Y-93839721D01*
X124366022Y-93766547D01*
X124371288Y-93761272D01*
X124417889Y-93739492D01*
X124424509Y-93739200D01*
X139365300Y-93739200D01*
X139413638Y-93756793D01*
X139439358Y-93801342D01*
X139440500Y-93814400D01*
X139440500Y-113210867D01*
X139441487Y-113233476D01*
X139442629Y-113246534D01*
X139443862Y-113257795D01*
X139476408Y-113353674D01*
X139502128Y-113398223D01*
X139551548Y-113459799D01*
X139557171Y-113463211D01*
X139557172Y-113463212D01*
X139601373Y-113490033D01*
X139638110Y-113512325D01*
X139641583Y-113513589D01*
X139641585Y-113513590D01*
X139656108Y-113518876D01*
X139686448Y-113529918D01*
X139689679Y-113530488D01*
X139689680Y-113530488D01*
X139771970Y-113544998D01*
X139771976Y-113544999D01*
X139775200Y-113545567D01*
X148755600Y-113545567D01*
X148778209Y-113544580D01*
X148779034Y-113544508D01*
X148779047Y-113544507D01*
X148790869Y-113543473D01*
X148790885Y-113543471D01*
X148791267Y-113543438D01*
X148802528Y-113542205D01*
X148806417Y-113540885D01*
X148806421Y-113540884D01*
X148833028Y-113531852D01*
X148884456Y-113532974D01*
X148923130Y-113566891D01*
X148932400Y-113603061D01*
X148932400Y-133020800D01*
X148914807Y-133069138D01*
X148870258Y-133094858D01*
X148857200Y-133096000D01*
X140462000Y-133096000D01*
X140451818Y-133104616D01*
X140451817Y-133104616D01*
X137170122Y-135881435D01*
X137160000Y-135890000D01*
X137160000Y-140771900D01*
X137142407Y-140820238D01*
X137097858Y-140845958D01*
X137084800Y-140847100D01*
X65157755Y-140847100D01*
X65109417Y-140829507D01*
X65083697Y-140784958D01*
X65082555Y-140771900D01*
X65082555Y-138955500D01*
X65100148Y-138907162D01*
X65144697Y-138881442D01*
X65157755Y-138880300D01*
X65263897Y-138880300D01*
X65265720Y-138880121D01*
X65265725Y-138880121D01*
X65411236Y-138865854D01*
X65411241Y-138865853D01*
X65414903Y-138865494D01*
X65609308Y-138806799D01*
X65788609Y-138711463D01*
X65945979Y-138583115D01*
X65948321Y-138580284D01*
X65948325Y-138580280D01*
X66017726Y-138496388D01*
X66075422Y-138426646D01*
X66172008Y-138248014D01*
X66232058Y-138054024D01*
X66240154Y-137977000D01*
X126641547Y-137977000D01*
X126641881Y-137979535D01*
X126641881Y-137979539D01*
X126670341Y-138195719D01*
X126678929Y-138260949D01*
X126679601Y-138263407D01*
X126679602Y-138263410D01*
X126723373Y-138423408D01*
X126754502Y-138537198D01*
X126866868Y-138800635D01*
X127013946Y-139046385D01*
X127193015Y-139269900D01*
X127400762Y-139467045D01*
X127633343Y-139634171D01*
X127740361Y-139690834D01*
X127884182Y-139766984D01*
X127884187Y-139766986D01*
X127886453Y-139768186D01*
X128155410Y-139866610D01*
X128362862Y-139911842D01*
X128432731Y-139927076D01*
X128432734Y-139927076D01*
X128435236Y-139927622D01*
X128559944Y-139937437D01*
X128658375Y-139945184D01*
X128658383Y-139945184D01*
X128659853Y-139945300D01*
X128814792Y-139945300D01*
X129028537Y-139930728D01*
X129031042Y-139930209D01*
X129031044Y-139930209D01*
X129129865Y-139909744D01*
X129308986Y-139872650D01*
X129324503Y-139867155D01*
X129576547Y-139777902D01*
X129576550Y-139777901D01*
X129578958Y-139777048D01*
X129833458Y-139645691D01*
X129851977Y-139632676D01*
X130065674Y-139482486D01*
X130067776Y-139481009D01*
X130277576Y-139286051D01*
X130289354Y-139271662D01*
X130457358Y-139066401D01*
X130458977Y-139064423D01*
X130608620Y-138820227D01*
X130616259Y-138802825D01*
X130722709Y-138560327D01*
X130722711Y-138560322D01*
X130723738Y-138557982D01*
X130802200Y-138282539D01*
X130842554Y-137998996D01*
X130844053Y-137712600D01*
X130835325Y-137646299D01*
X130807004Y-137431181D01*
X130806671Y-137428651D01*
X130805998Y-137426190D01*
X130731774Y-137154872D01*
X130731773Y-137154868D01*
X130731098Y-137152402D01*
X130661240Y-136988623D01*
X130619733Y-136891311D01*
X130619731Y-136891307D01*
X130618732Y-136888965D01*
X130471654Y-136643215D01*
X130292585Y-136419700D01*
X130084838Y-136222555D01*
X129852257Y-136055429D01*
X129745239Y-135998766D01*
X129601418Y-135922616D01*
X129601413Y-135922614D01*
X129599147Y-135921414D01*
X129330190Y-135822990D01*
X129122738Y-135777758D01*
X129052869Y-135762524D01*
X129052866Y-135762524D01*
X129050364Y-135761978D01*
X128925656Y-135752163D01*
X128827225Y-135744416D01*
X128827217Y-135744416D01*
X128825747Y-135744300D01*
X128670808Y-135744300D01*
X128457063Y-135758872D01*
X128454558Y-135759391D01*
X128454556Y-135759391D01*
X128355735Y-135779856D01*
X128176614Y-135816950D01*
X128174208Y-135817802D01*
X127909053Y-135911698D01*
X127909050Y-135911699D01*
X127906642Y-135912552D01*
X127652142Y-136043909D01*
X127650045Y-136045383D01*
X127650043Y-136045384D01*
X127558881Y-136109454D01*
X127417824Y-136208591D01*
X127208024Y-136403549D01*
X127206402Y-136405531D01*
X127206398Y-136405535D01*
X127193168Y-136421699D01*
X127026623Y-136625177D01*
X126876980Y-136869373D01*
X126875955Y-136871709D01*
X126875953Y-136871712D01*
X126767113Y-137119657D01*
X126761862Y-137131618D01*
X126683400Y-137407061D01*
X126649946Y-137642121D01*
X126648329Y-137653487D01*
X126643046Y-137690604D01*
X126641547Y-137977000D01*
X66240154Y-137977000D01*
X66253285Y-137852064D01*
X66234880Y-137649828D01*
X66177544Y-137455018D01*
X66083462Y-137275055D01*
X65986832Y-137154872D01*
X65958519Y-137119657D01*
X65958517Y-137119655D01*
X65956216Y-137116793D01*
X65800654Y-136986261D01*
X65622700Y-136888430D01*
X65429134Y-136827028D01*
X65361513Y-136819443D01*
X65273190Y-136809535D01*
X65273182Y-136809535D01*
X65271091Y-136809300D01*
X65161703Y-136809300D01*
X65161241Y-136809345D01*
X65112288Y-136794191D01*
X65084423Y-136750952D01*
X65082555Y-136734293D01*
X65082555Y-135636000D01*
X65073002Y-135625595D01*
X65073002Y-135625594D01*
X62935020Y-133296844D01*
X62915290Y-133249339D01*
X62926125Y-133206976D01*
X62962341Y-133147293D01*
X62964258Y-133144134D01*
X62981851Y-133095796D01*
X62984241Y-133082244D01*
X62996931Y-133010274D01*
X62996932Y-133010268D01*
X62997500Y-133007044D01*
X62997500Y-132074310D01*
X141266294Y-132074310D01*
X141283416Y-132205247D01*
X141336599Y-132326115D01*
X141340044Y-132330213D01*
X141340045Y-132330215D01*
X141351978Y-132344411D01*
X141421569Y-132427199D01*
X141426028Y-132430167D01*
X141426029Y-132430168D01*
X141527032Y-132497402D01*
X141527035Y-132497403D01*
X141531493Y-132500371D01*
X141657537Y-132539750D01*
X141725463Y-132540995D01*
X141784204Y-132542072D01*
X141784206Y-132542072D01*
X141789566Y-132542170D01*
X141794737Y-132540760D01*
X141794739Y-132540760D01*
X141862543Y-132522274D01*
X141916968Y-132507436D01*
X141965680Y-132477527D01*
X142024931Y-132441147D01*
X142024934Y-132441145D01*
X142029500Y-132438341D01*
X142118117Y-132340439D01*
X142175694Y-132221601D01*
X142197602Y-132091379D01*
X142197741Y-132080000D01*
X142196926Y-132074310D01*
X142790294Y-132074310D01*
X142807416Y-132205247D01*
X142860599Y-132326115D01*
X142864044Y-132330213D01*
X142864045Y-132330215D01*
X142875978Y-132344411D01*
X142945569Y-132427199D01*
X142950028Y-132430167D01*
X142950029Y-132430168D01*
X143051032Y-132497402D01*
X143051035Y-132497403D01*
X143055493Y-132500371D01*
X143181537Y-132539750D01*
X143249463Y-132540995D01*
X143308204Y-132542072D01*
X143308206Y-132542072D01*
X143313566Y-132542170D01*
X143318737Y-132540760D01*
X143318739Y-132540760D01*
X143386543Y-132522274D01*
X143440968Y-132507436D01*
X143489680Y-132477527D01*
X143548931Y-132441147D01*
X143548934Y-132441145D01*
X143553500Y-132438341D01*
X143642117Y-132340439D01*
X143699694Y-132221601D01*
X143721602Y-132091379D01*
X143721741Y-132080000D01*
X143720926Y-132074310D01*
X144568294Y-132074310D01*
X144585416Y-132205247D01*
X144638599Y-132326115D01*
X144642044Y-132330213D01*
X144642045Y-132330215D01*
X144653978Y-132344411D01*
X144723569Y-132427199D01*
X144728028Y-132430167D01*
X144728029Y-132430168D01*
X144829032Y-132497402D01*
X144829035Y-132497403D01*
X144833493Y-132500371D01*
X144959537Y-132539750D01*
X145027463Y-132540995D01*
X145086204Y-132542072D01*
X145086206Y-132542072D01*
X145091566Y-132542170D01*
X145096737Y-132540760D01*
X145096739Y-132540760D01*
X145164543Y-132522274D01*
X145218968Y-132507436D01*
X145267680Y-132477527D01*
X145326931Y-132441147D01*
X145326934Y-132441145D01*
X145331500Y-132438341D01*
X145420117Y-132340439D01*
X145477694Y-132221601D01*
X145499602Y-132091379D01*
X145499741Y-132080000D01*
X145498926Y-132074310D01*
X146092294Y-132074310D01*
X146109416Y-132205247D01*
X146162599Y-132326115D01*
X146166044Y-132330213D01*
X146166045Y-132330215D01*
X146177978Y-132344411D01*
X146247569Y-132427199D01*
X146252028Y-132430167D01*
X146252029Y-132430168D01*
X146353032Y-132497402D01*
X146353035Y-132497403D01*
X146357493Y-132500371D01*
X146483537Y-132539750D01*
X146551463Y-132540995D01*
X146610204Y-132542072D01*
X146610206Y-132542072D01*
X146615566Y-132542170D01*
X146620737Y-132540760D01*
X146620739Y-132540760D01*
X146688543Y-132522274D01*
X146742968Y-132507436D01*
X146791680Y-132477527D01*
X146850931Y-132441147D01*
X146850934Y-132441145D01*
X146855500Y-132438341D01*
X146944117Y-132340439D01*
X147001694Y-132221601D01*
X147023602Y-132091379D01*
X147023741Y-132080000D01*
X147005021Y-131949282D01*
X146950365Y-131829072D01*
X146946252Y-131824298D01*
X146867661Y-131733090D01*
X146864167Y-131729035D01*
X146859676Y-131726124D01*
X146757849Y-131660123D01*
X146757848Y-131660122D01*
X146753356Y-131657211D01*
X146709559Y-131644113D01*
X146631975Y-131620910D01*
X146631972Y-131620910D01*
X146626841Y-131619375D01*
X146621486Y-131619342D01*
X146621484Y-131619342D01*
X146562201Y-131618980D01*
X146494792Y-131618568D01*
X146367824Y-131654856D01*
X146363294Y-131657714D01*
X146363292Y-131657715D01*
X146359476Y-131660123D01*
X146256144Y-131725320D01*
X146168730Y-131824298D01*
X146112610Y-131943831D01*
X146092294Y-132074310D01*
X145498926Y-132074310D01*
X145481021Y-131949282D01*
X145426365Y-131829072D01*
X145422252Y-131824298D01*
X145343661Y-131733090D01*
X145340167Y-131729035D01*
X145335676Y-131726124D01*
X145233849Y-131660123D01*
X145233848Y-131660122D01*
X145229356Y-131657211D01*
X145185559Y-131644113D01*
X145107975Y-131620910D01*
X145107972Y-131620910D01*
X145102841Y-131619375D01*
X145097486Y-131619342D01*
X145097484Y-131619342D01*
X145038201Y-131618980D01*
X144970792Y-131618568D01*
X144843824Y-131654856D01*
X144839294Y-131657714D01*
X144839292Y-131657715D01*
X144835476Y-131660123D01*
X144732144Y-131725320D01*
X144644730Y-131824298D01*
X144588610Y-131943831D01*
X144568294Y-132074310D01*
X143720926Y-132074310D01*
X143703021Y-131949282D01*
X143648365Y-131829072D01*
X143644252Y-131824298D01*
X143565661Y-131733090D01*
X143562167Y-131729035D01*
X143557676Y-131726124D01*
X143455849Y-131660123D01*
X143455848Y-131660122D01*
X143451356Y-131657211D01*
X143407559Y-131644113D01*
X143329975Y-131620910D01*
X143329972Y-131620910D01*
X143324841Y-131619375D01*
X143319486Y-131619342D01*
X143319484Y-131619342D01*
X143260201Y-131618980D01*
X143192792Y-131618568D01*
X143065824Y-131654856D01*
X143061294Y-131657714D01*
X143061292Y-131657715D01*
X143057476Y-131660123D01*
X142954144Y-131725320D01*
X142866730Y-131824298D01*
X142810610Y-131943831D01*
X142790294Y-132074310D01*
X142196926Y-132074310D01*
X142179021Y-131949282D01*
X142124365Y-131829072D01*
X142120252Y-131824298D01*
X142041661Y-131733090D01*
X142038167Y-131729035D01*
X142033676Y-131726124D01*
X141931849Y-131660123D01*
X141931848Y-131660122D01*
X141927356Y-131657211D01*
X141883559Y-131644113D01*
X141805975Y-131620910D01*
X141805972Y-131620910D01*
X141800841Y-131619375D01*
X141795486Y-131619342D01*
X141795484Y-131619342D01*
X141736201Y-131618980D01*
X141668792Y-131618568D01*
X141541824Y-131654856D01*
X141537294Y-131657714D01*
X141537292Y-131657715D01*
X141533476Y-131660123D01*
X141430144Y-131725320D01*
X141342730Y-131824298D01*
X141286610Y-131943831D01*
X141266294Y-132074310D01*
X62997500Y-132074310D01*
X62997500Y-129788310D01*
X141266294Y-129788310D01*
X141283416Y-129919247D01*
X141336599Y-130040115D01*
X141340044Y-130044213D01*
X141340045Y-130044215D01*
X141351978Y-130058411D01*
X141421569Y-130141199D01*
X141426028Y-130144167D01*
X141426029Y-130144168D01*
X141527032Y-130211402D01*
X141527035Y-130211403D01*
X141531493Y-130214371D01*
X141657537Y-130253750D01*
X141725463Y-130254995D01*
X141784204Y-130256072D01*
X141784206Y-130256072D01*
X141789566Y-130256170D01*
X141794737Y-130254760D01*
X141794739Y-130254760D01*
X141862543Y-130236274D01*
X141916968Y-130221436D01*
X141965680Y-130191527D01*
X142024931Y-130155147D01*
X142024934Y-130155145D01*
X142029500Y-130152341D01*
X142118117Y-130054439D01*
X142175694Y-129935601D01*
X142197602Y-129805379D01*
X142197741Y-129794000D01*
X142196926Y-129788310D01*
X142790294Y-129788310D01*
X142807416Y-129919247D01*
X142860599Y-130040115D01*
X142864044Y-130044213D01*
X142864045Y-130044215D01*
X142875978Y-130058411D01*
X142945569Y-130141199D01*
X142950028Y-130144167D01*
X142950029Y-130144168D01*
X143051032Y-130211402D01*
X143051035Y-130211403D01*
X143055493Y-130214371D01*
X143181537Y-130253750D01*
X143249463Y-130254995D01*
X143308204Y-130256072D01*
X143308206Y-130256072D01*
X143313566Y-130256170D01*
X143318737Y-130254760D01*
X143318739Y-130254760D01*
X143386543Y-130236274D01*
X143440968Y-130221436D01*
X143489680Y-130191527D01*
X143548931Y-130155147D01*
X143548934Y-130155145D01*
X143553500Y-130152341D01*
X143642117Y-130054439D01*
X143699694Y-129935601D01*
X143721602Y-129805379D01*
X143721741Y-129794000D01*
X143720926Y-129788310D01*
X144568294Y-129788310D01*
X144585416Y-129919247D01*
X144638599Y-130040115D01*
X144642044Y-130044213D01*
X144642045Y-130044215D01*
X144653978Y-130058411D01*
X144723569Y-130141199D01*
X144728028Y-130144167D01*
X144728029Y-130144168D01*
X144829032Y-130211402D01*
X144829035Y-130211403D01*
X144833493Y-130214371D01*
X144959537Y-130253750D01*
X145027463Y-130254995D01*
X145086204Y-130256072D01*
X145086206Y-130256072D01*
X145091566Y-130256170D01*
X145096737Y-130254760D01*
X145096739Y-130254760D01*
X145164543Y-130236274D01*
X145218968Y-130221436D01*
X145267680Y-130191527D01*
X145326931Y-130155147D01*
X145326934Y-130155145D01*
X145331500Y-130152341D01*
X145420117Y-130054439D01*
X145477694Y-129935601D01*
X145499602Y-129805379D01*
X145499741Y-129794000D01*
X145498926Y-129788310D01*
X146092294Y-129788310D01*
X146109416Y-129919247D01*
X146162599Y-130040115D01*
X146166044Y-130044213D01*
X146166045Y-130044215D01*
X146177978Y-130058411D01*
X146247569Y-130141199D01*
X146252028Y-130144167D01*
X146252029Y-130144168D01*
X146353032Y-130211402D01*
X146353035Y-130211403D01*
X146357493Y-130214371D01*
X146483537Y-130253750D01*
X146551463Y-130254995D01*
X146610204Y-130256072D01*
X146610206Y-130256072D01*
X146615566Y-130256170D01*
X146620737Y-130254760D01*
X146620739Y-130254760D01*
X146688543Y-130236274D01*
X146742968Y-130221436D01*
X146791680Y-130191527D01*
X146850931Y-130155147D01*
X146850934Y-130155145D01*
X146855500Y-130152341D01*
X146944117Y-130054439D01*
X147001694Y-129935601D01*
X147023602Y-129805379D01*
X147023741Y-129794000D01*
X147005021Y-129663282D01*
X146950365Y-129543072D01*
X146946252Y-129538298D01*
X146867661Y-129447090D01*
X146864167Y-129443035D01*
X146859676Y-129440124D01*
X146757849Y-129374123D01*
X146757848Y-129374122D01*
X146753356Y-129371211D01*
X146709559Y-129358113D01*
X146631975Y-129334910D01*
X146631972Y-129334910D01*
X146626841Y-129333375D01*
X146621486Y-129333342D01*
X146621484Y-129333342D01*
X146562201Y-129332980D01*
X146494792Y-129332568D01*
X146367824Y-129368856D01*
X146363294Y-129371714D01*
X146363292Y-129371715D01*
X146359476Y-129374123D01*
X146256144Y-129439320D01*
X146168730Y-129538298D01*
X146112610Y-129657831D01*
X146092294Y-129788310D01*
X145498926Y-129788310D01*
X145481021Y-129663282D01*
X145426365Y-129543072D01*
X145422252Y-129538298D01*
X145343661Y-129447090D01*
X145340167Y-129443035D01*
X145335676Y-129440124D01*
X145233849Y-129374123D01*
X145233848Y-129374122D01*
X145229356Y-129371211D01*
X145185559Y-129358113D01*
X145107975Y-129334910D01*
X145107972Y-129334910D01*
X145102841Y-129333375D01*
X145097486Y-129333342D01*
X145097484Y-129333342D01*
X145038201Y-129332980D01*
X144970792Y-129332568D01*
X144843824Y-129368856D01*
X144839294Y-129371714D01*
X144839292Y-129371715D01*
X144835476Y-129374123D01*
X144732144Y-129439320D01*
X144644730Y-129538298D01*
X144588610Y-129657831D01*
X144568294Y-129788310D01*
X143720926Y-129788310D01*
X143703021Y-129663282D01*
X143648365Y-129543072D01*
X143644252Y-129538298D01*
X143565661Y-129447090D01*
X143562167Y-129443035D01*
X143557676Y-129440124D01*
X143455849Y-129374123D01*
X143455848Y-129374122D01*
X143451356Y-129371211D01*
X143407559Y-129358113D01*
X143329975Y-129334910D01*
X143329972Y-129334910D01*
X143324841Y-129333375D01*
X143319486Y-129333342D01*
X143319484Y-129333342D01*
X143260201Y-129332980D01*
X143192792Y-129332568D01*
X143065824Y-129368856D01*
X143061294Y-129371714D01*
X143061292Y-129371715D01*
X143057476Y-129374123D01*
X142954144Y-129439320D01*
X142866730Y-129538298D01*
X142810610Y-129657831D01*
X142790294Y-129788310D01*
X142196926Y-129788310D01*
X142179021Y-129663282D01*
X142124365Y-129543072D01*
X142120252Y-129538298D01*
X142041661Y-129447090D01*
X142038167Y-129443035D01*
X142033676Y-129440124D01*
X141931849Y-129374123D01*
X141931848Y-129374122D01*
X141927356Y-129371211D01*
X141883559Y-129358113D01*
X141805975Y-129334910D01*
X141805972Y-129334910D01*
X141800841Y-129333375D01*
X141795486Y-129333342D01*
X141795484Y-129333342D01*
X141736201Y-129332980D01*
X141668792Y-129332568D01*
X141541824Y-129368856D01*
X141537294Y-129371714D01*
X141537292Y-129371715D01*
X141533476Y-129374123D01*
X141430144Y-129439320D01*
X141342730Y-129538298D01*
X141286610Y-129657831D01*
X141266294Y-129788310D01*
X62997500Y-129788310D01*
X62997500Y-127502310D01*
X141266294Y-127502310D01*
X141283416Y-127633247D01*
X141336599Y-127754115D01*
X141340044Y-127758213D01*
X141340045Y-127758215D01*
X141351978Y-127772411D01*
X141421569Y-127855199D01*
X141426028Y-127858167D01*
X141426029Y-127858168D01*
X141527032Y-127925402D01*
X141527035Y-127925403D01*
X141531493Y-127928371D01*
X141657537Y-127967750D01*
X141725463Y-127968995D01*
X141784204Y-127970072D01*
X141784206Y-127970072D01*
X141789566Y-127970170D01*
X141794737Y-127968760D01*
X141794739Y-127968760D01*
X141862543Y-127950274D01*
X141916968Y-127935436D01*
X141965680Y-127905527D01*
X142024931Y-127869147D01*
X142024934Y-127869145D01*
X142029500Y-127866341D01*
X142118117Y-127768439D01*
X142175694Y-127649601D01*
X142197602Y-127519379D01*
X142197741Y-127508000D01*
X142196926Y-127502310D01*
X142790294Y-127502310D01*
X142807416Y-127633247D01*
X142860599Y-127754115D01*
X142864044Y-127758213D01*
X142864045Y-127758215D01*
X142875978Y-127772411D01*
X142945569Y-127855199D01*
X142950028Y-127858167D01*
X142950029Y-127858168D01*
X143051032Y-127925402D01*
X143051035Y-127925403D01*
X143055493Y-127928371D01*
X143181537Y-127967750D01*
X143249463Y-127968995D01*
X143308204Y-127970072D01*
X143308206Y-127970072D01*
X143313566Y-127970170D01*
X143318737Y-127968760D01*
X143318739Y-127968760D01*
X143386543Y-127950274D01*
X143440968Y-127935436D01*
X143489680Y-127905527D01*
X143548931Y-127869147D01*
X143548934Y-127869145D01*
X143553500Y-127866341D01*
X143642117Y-127768439D01*
X143699694Y-127649601D01*
X143721602Y-127519379D01*
X143721741Y-127508000D01*
X143720926Y-127502310D01*
X144568294Y-127502310D01*
X144585416Y-127633247D01*
X144638599Y-127754115D01*
X144642044Y-127758213D01*
X144642045Y-127758215D01*
X144653978Y-127772411D01*
X144723569Y-127855199D01*
X144728028Y-127858167D01*
X144728029Y-127858168D01*
X144829032Y-127925402D01*
X144829035Y-127925403D01*
X144833493Y-127928371D01*
X144959537Y-127967750D01*
X145027463Y-127968995D01*
X145086204Y-127970072D01*
X145086206Y-127970072D01*
X145091566Y-127970170D01*
X145096737Y-127968760D01*
X145096739Y-127968760D01*
X145164543Y-127950274D01*
X145218968Y-127935436D01*
X145267680Y-127905527D01*
X145326931Y-127869147D01*
X145326934Y-127869145D01*
X145331500Y-127866341D01*
X145420117Y-127768439D01*
X145477694Y-127649601D01*
X145499602Y-127519379D01*
X145499741Y-127508000D01*
X145498926Y-127502310D01*
X146092294Y-127502310D01*
X146109416Y-127633247D01*
X146162599Y-127754115D01*
X146166044Y-127758213D01*
X146166045Y-127758215D01*
X146177978Y-127772411D01*
X146247569Y-127855199D01*
X146252028Y-127858167D01*
X146252029Y-127858168D01*
X146353032Y-127925402D01*
X146353035Y-127925403D01*
X146357493Y-127928371D01*
X146483537Y-127967750D01*
X146551463Y-127968995D01*
X146610204Y-127970072D01*
X146610206Y-127970072D01*
X146615566Y-127970170D01*
X146620737Y-127968760D01*
X146620739Y-127968760D01*
X146688543Y-127950274D01*
X146742968Y-127935436D01*
X146791680Y-127905527D01*
X146850931Y-127869147D01*
X146850934Y-127869145D01*
X146855500Y-127866341D01*
X146944117Y-127768439D01*
X147001694Y-127649601D01*
X147023602Y-127519379D01*
X147023741Y-127508000D01*
X147005021Y-127377282D01*
X146950365Y-127257072D01*
X146946252Y-127252298D01*
X146867661Y-127161090D01*
X146864167Y-127157035D01*
X146859676Y-127154124D01*
X146757849Y-127088123D01*
X146757848Y-127088122D01*
X146753356Y-127085211D01*
X146709559Y-127072113D01*
X146631975Y-127048910D01*
X146631972Y-127048910D01*
X146626841Y-127047375D01*
X146621486Y-127047342D01*
X146621484Y-127047342D01*
X146562201Y-127046980D01*
X146494792Y-127046568D01*
X146367824Y-127082856D01*
X146363294Y-127085714D01*
X146363292Y-127085715D01*
X146359476Y-127088123D01*
X146256144Y-127153320D01*
X146168730Y-127252298D01*
X146112610Y-127371831D01*
X146092294Y-127502310D01*
X145498926Y-127502310D01*
X145481021Y-127377282D01*
X145426365Y-127257072D01*
X145422252Y-127252298D01*
X145343661Y-127161090D01*
X145340167Y-127157035D01*
X145335676Y-127154124D01*
X145233849Y-127088123D01*
X145233848Y-127088122D01*
X145229356Y-127085211D01*
X145185559Y-127072113D01*
X145107975Y-127048910D01*
X145107972Y-127048910D01*
X145102841Y-127047375D01*
X145097486Y-127047342D01*
X145097484Y-127047342D01*
X145038201Y-127046980D01*
X144970792Y-127046568D01*
X144843824Y-127082856D01*
X144839294Y-127085714D01*
X144839292Y-127085715D01*
X144835476Y-127088123D01*
X144732144Y-127153320D01*
X144644730Y-127252298D01*
X144588610Y-127371831D01*
X144568294Y-127502310D01*
X143720926Y-127502310D01*
X143703021Y-127377282D01*
X143648365Y-127257072D01*
X143644252Y-127252298D01*
X143565661Y-127161090D01*
X143562167Y-127157035D01*
X143557676Y-127154124D01*
X143455849Y-127088123D01*
X143455848Y-127088122D01*
X143451356Y-127085211D01*
X143407559Y-127072113D01*
X143329975Y-127048910D01*
X143329972Y-127048910D01*
X143324841Y-127047375D01*
X143319486Y-127047342D01*
X143319484Y-127047342D01*
X143260201Y-127046980D01*
X143192792Y-127046568D01*
X143065824Y-127082856D01*
X143061294Y-127085714D01*
X143061292Y-127085715D01*
X143057476Y-127088123D01*
X142954144Y-127153320D01*
X142866730Y-127252298D01*
X142810610Y-127371831D01*
X142790294Y-127502310D01*
X142196926Y-127502310D01*
X142179021Y-127377282D01*
X142124365Y-127257072D01*
X142120252Y-127252298D01*
X142041661Y-127161090D01*
X142038167Y-127157035D01*
X142033676Y-127154124D01*
X141931849Y-127088123D01*
X141931848Y-127088122D01*
X141927356Y-127085211D01*
X141883559Y-127072113D01*
X141805975Y-127048910D01*
X141805972Y-127048910D01*
X141800841Y-127047375D01*
X141795486Y-127047342D01*
X141795484Y-127047342D01*
X141736201Y-127046980D01*
X141668792Y-127046568D01*
X141541824Y-127082856D01*
X141537294Y-127085714D01*
X141537292Y-127085715D01*
X141533476Y-127088123D01*
X141430144Y-127153320D01*
X141342730Y-127252298D01*
X141286610Y-127371831D01*
X141266294Y-127502310D01*
X62997500Y-127502310D01*
X62997500Y-121977000D01*
X71441547Y-121977000D01*
X71478929Y-122260949D01*
X71479601Y-122263407D01*
X71479602Y-122263410D01*
X71526016Y-122433069D01*
X71554502Y-122537198D01*
X71666868Y-122800635D01*
X71813946Y-123046385D01*
X71993015Y-123269900D01*
X72200762Y-123467045D01*
X72433343Y-123634171D01*
X72540361Y-123690834D01*
X72684182Y-123766984D01*
X72684187Y-123766986D01*
X72686453Y-123768186D01*
X72955410Y-123866610D01*
X73162862Y-123911842D01*
X73232731Y-123927076D01*
X73232734Y-123927076D01*
X73235236Y-123927622D01*
X73359944Y-123937437D01*
X73458375Y-123945184D01*
X73458383Y-123945184D01*
X73459853Y-123945300D01*
X73614792Y-123945300D01*
X73828537Y-123930728D01*
X73831042Y-123930209D01*
X73831044Y-123930209D01*
X73929865Y-123909744D01*
X74108986Y-123872650D01*
X74124503Y-123867155D01*
X74376547Y-123777902D01*
X74376550Y-123777901D01*
X74378958Y-123777048D01*
X74633458Y-123645691D01*
X74651977Y-123632676D01*
X74865674Y-123482486D01*
X74867776Y-123481009D01*
X75077576Y-123286051D01*
X75089354Y-123271662D01*
X75257358Y-123066401D01*
X75258977Y-123064423D01*
X75408620Y-122820227D01*
X75416259Y-122802825D01*
X75522709Y-122560327D01*
X75522711Y-122560322D01*
X75523738Y-122557982D01*
X75602200Y-122282539D01*
X75642554Y-121998996D01*
X75643277Y-121860789D01*
X75644040Y-121715163D01*
X75644040Y-121715157D01*
X75644053Y-121712600D01*
X75638202Y-121668152D01*
X75607004Y-121431181D01*
X75606671Y-121428651D01*
X75605998Y-121426190D01*
X75559081Y-121254691D01*
X142987558Y-121254691D01*
X142987783Y-121258125D01*
X142987783Y-121258128D01*
X142989690Y-121287217D01*
X143001416Y-121466126D01*
X143053573Y-121671495D01*
X143142282Y-121863919D01*
X143264572Y-122036956D01*
X143416348Y-122184810D01*
X143419208Y-122186721D01*
X143589666Y-122300618D01*
X143589671Y-122300621D01*
X143592527Y-122302529D01*
X143595689Y-122303888D01*
X143595690Y-122303888D01*
X143784039Y-122384809D01*
X143784044Y-122384811D01*
X143787208Y-122386170D01*
X143790564Y-122386929D01*
X143790569Y-122386931D01*
X143990512Y-122432174D01*
X143990515Y-122432174D01*
X143993872Y-122432934D01*
X144105956Y-122437337D01*
X144202153Y-122441117D01*
X144202156Y-122441117D01*
X144205597Y-122441252D01*
X144209002Y-122440758D01*
X144209007Y-122440758D01*
X144359627Y-122418919D01*
X144415292Y-122410848D01*
X144492001Y-122384809D01*
X144612673Y-122343847D01*
X144612676Y-122343845D01*
X144615936Y-122342739D01*
X144800807Y-122239205D01*
X144963716Y-122103716D01*
X145099205Y-121940807D01*
X145202739Y-121755936D01*
X145216580Y-121715163D01*
X145269738Y-121558562D01*
X145270848Y-121555292D01*
X145301252Y-121345597D01*
X145302839Y-121285000D01*
X145283451Y-121074001D01*
X145225936Y-120870068D01*
X145210550Y-120838867D01*
X145133745Y-120683124D01*
X145132220Y-120680031D01*
X145005442Y-120510254D01*
X144849848Y-120366425D01*
X144824709Y-120350563D01*
X144793802Y-120331063D01*
X144670648Y-120253358D01*
X144545405Y-120203391D01*
X144477053Y-120176121D01*
X144477050Y-120176120D01*
X144473844Y-120174841D01*
X144470463Y-120174168D01*
X144470458Y-120174167D01*
X144269410Y-120134177D01*
X144269411Y-120134177D01*
X144266027Y-120133504D01*
X144130939Y-120131735D01*
X144057599Y-120130775D01*
X144057598Y-120130775D01*
X144054157Y-120130730D01*
X144050765Y-120131313D01*
X144050763Y-120131313D01*
X143848721Y-120166030D01*
X143848719Y-120166030D01*
X143845329Y-120166613D01*
X143646537Y-120239952D01*
X143464439Y-120348289D01*
X143461846Y-120350563D01*
X143380731Y-120421699D01*
X143305133Y-120487996D01*
X143302999Y-120490702D01*
X143302997Y-120490705D01*
X143184344Y-120641218D01*
X143173955Y-120654396D01*
X143172352Y-120657444D01*
X143172350Y-120657446D01*
X143158840Y-120683124D01*
X143075296Y-120841914D01*
X143012463Y-121044272D01*
X142987558Y-121254691D01*
X75559081Y-121254691D01*
X75531774Y-121154872D01*
X75531773Y-121154868D01*
X75531098Y-121152402D01*
X75418732Y-120888965D01*
X75271654Y-120643215D01*
X75092585Y-120419700D01*
X74915952Y-120252081D01*
X74886696Y-120224318D01*
X74886695Y-120224317D01*
X74884838Y-120222555D01*
X74760910Y-120133504D01*
X74654338Y-120056924D01*
X74654334Y-120056922D01*
X74652257Y-120055429D01*
X74545239Y-119998766D01*
X74401418Y-119922616D01*
X74401413Y-119922614D01*
X74399147Y-119921414D01*
X74130190Y-119822990D01*
X73922738Y-119777758D01*
X73852869Y-119762524D01*
X73852866Y-119762524D01*
X73850364Y-119761978D01*
X73725656Y-119752163D01*
X73627225Y-119744416D01*
X73627217Y-119744416D01*
X73625747Y-119744300D01*
X73470808Y-119744300D01*
X73257063Y-119758872D01*
X73254558Y-119759391D01*
X73254556Y-119759391D01*
X73155735Y-119779856D01*
X72976614Y-119816950D01*
X72974208Y-119817802D01*
X72709053Y-119911698D01*
X72709050Y-119911699D01*
X72706642Y-119912552D01*
X72452142Y-120043909D01*
X72450045Y-120045383D01*
X72450043Y-120045384D01*
X72358881Y-120109454D01*
X72217824Y-120208591D01*
X72008024Y-120403549D01*
X72006402Y-120405531D01*
X72006398Y-120405535D01*
X71918424Y-120513018D01*
X71826623Y-120625177D01*
X71676980Y-120869373D01*
X71675955Y-120871709D01*
X71675953Y-120871712D01*
X71598703Y-121047693D01*
X71561862Y-121131618D01*
X71483400Y-121407061D01*
X71443046Y-121690604D01*
X71442331Y-121827300D01*
X71441723Y-121943457D01*
X71441547Y-121977000D01*
X62997500Y-121977000D01*
X62997500Y-117187336D01*
X64172315Y-117187336D01*
X64190720Y-117389572D01*
X64248056Y-117584382D01*
X64342138Y-117764345D01*
X64354151Y-117779286D01*
X64440754Y-117886998D01*
X64469384Y-117922607D01*
X64624946Y-118053139D01*
X64628168Y-118054910D01*
X64628169Y-118054911D01*
X64642859Y-118062987D01*
X64802900Y-118150970D01*
X64996466Y-118212372D01*
X65064087Y-118219957D01*
X65152410Y-118229865D01*
X65152418Y-118229865D01*
X65154509Y-118230100D01*
X65263897Y-118230100D01*
X65265720Y-118229921D01*
X65265725Y-118229921D01*
X65411236Y-118215654D01*
X65411241Y-118215653D01*
X65414903Y-118215294D01*
X65609308Y-118156599D01*
X65788609Y-118061263D01*
X65945979Y-117932915D01*
X65948321Y-117930084D01*
X65948325Y-117930080D01*
X66017726Y-117846188D01*
X66075422Y-117776446D01*
X66080417Y-117767209D01*
X66107068Y-117717918D01*
X66172008Y-117597814D01*
X66232058Y-117403824D01*
X66240154Y-117326800D01*
X126641547Y-117326800D01*
X126641881Y-117329335D01*
X126641881Y-117329339D01*
X126670341Y-117545519D01*
X126678929Y-117610749D01*
X126679601Y-117613207D01*
X126679602Y-117613210D01*
X126723373Y-117773208D01*
X126754502Y-117886998D01*
X126775078Y-117935238D01*
X126825368Y-118053139D01*
X126866868Y-118150435D01*
X127013946Y-118396185D01*
X127193015Y-118619700D01*
X127400762Y-118816845D01*
X127633343Y-118983971D01*
X127740361Y-119040634D01*
X127884182Y-119116784D01*
X127884187Y-119116786D01*
X127886453Y-119117986D01*
X128155410Y-119216410D01*
X128362862Y-119261642D01*
X128432731Y-119276876D01*
X128432734Y-119276876D01*
X128435236Y-119277422D01*
X128559944Y-119287237D01*
X128658375Y-119294984D01*
X128658383Y-119294984D01*
X128659853Y-119295100D01*
X128814792Y-119295100D01*
X129028537Y-119280528D01*
X129031042Y-119280009D01*
X129031044Y-119280009D01*
X129129865Y-119259544D01*
X129308986Y-119222450D01*
X129324503Y-119216955D01*
X129576547Y-119127702D01*
X129576550Y-119127701D01*
X129578958Y-119126848D01*
X129833458Y-118995491D01*
X129851977Y-118982476D01*
X130065674Y-118832286D01*
X130067776Y-118830809D01*
X130277576Y-118635851D01*
X130289354Y-118621462D01*
X130457358Y-118416201D01*
X130458977Y-118414223D01*
X130608620Y-118170027D01*
X130616497Y-118152083D01*
X130722709Y-117910127D01*
X130722711Y-117910122D01*
X130723738Y-117907782D01*
X130802200Y-117632339D01*
X130836751Y-117389572D01*
X130842194Y-117351326D01*
X130842194Y-117351325D01*
X130842554Y-117348796D01*
X130844053Y-117062400D01*
X130835325Y-116996099D01*
X130807004Y-116780981D01*
X130806671Y-116778451D01*
X130805998Y-116775990D01*
X130731774Y-116504672D01*
X130731773Y-116504668D01*
X130731098Y-116502202D01*
X130661240Y-116338423D01*
X130619733Y-116241111D01*
X130619731Y-116241107D01*
X130618732Y-116238765D01*
X130471654Y-115993015D01*
X130292585Y-115769500D01*
X130084838Y-115572355D01*
X129852257Y-115405229D01*
X129745239Y-115348566D01*
X129601418Y-115272416D01*
X129601413Y-115272414D01*
X129599147Y-115271214D01*
X129330190Y-115172790D01*
X129122738Y-115127558D01*
X129052869Y-115112324D01*
X129052866Y-115112324D01*
X129050364Y-115111778D01*
X128925656Y-115101963D01*
X128827225Y-115094216D01*
X128827217Y-115094216D01*
X128825747Y-115094100D01*
X128670808Y-115094100D01*
X128457063Y-115108672D01*
X128454558Y-115109191D01*
X128454556Y-115109191D01*
X128355735Y-115129656D01*
X128176614Y-115166750D01*
X128174208Y-115167602D01*
X127909053Y-115261498D01*
X127909050Y-115261499D01*
X127906642Y-115262352D01*
X127652142Y-115393709D01*
X127650045Y-115395183D01*
X127650043Y-115395184D01*
X127558881Y-115459254D01*
X127417824Y-115558391D01*
X127208024Y-115753349D01*
X127206402Y-115755331D01*
X127206398Y-115755335D01*
X127193168Y-115771499D01*
X127026623Y-115974977D01*
X126876980Y-116219173D01*
X126875955Y-116221509D01*
X126875953Y-116221512D01*
X126767113Y-116469457D01*
X126761862Y-116481418D01*
X126683400Y-116756861D01*
X126651377Y-116981864D01*
X126648329Y-117003287D01*
X126643046Y-117040404D01*
X126641547Y-117326800D01*
X66240154Y-117326800D01*
X66253285Y-117201864D01*
X66234880Y-116999628D01*
X66177544Y-116804818D01*
X66083462Y-116624855D01*
X65986832Y-116504672D01*
X65958519Y-116469457D01*
X65958517Y-116469455D01*
X65956216Y-116466593D01*
X65800654Y-116336061D01*
X65790099Y-116330258D01*
X65625927Y-116240004D01*
X65622700Y-116238230D01*
X65429134Y-116176828D01*
X65361513Y-116169243D01*
X65273190Y-116159335D01*
X65273182Y-116159335D01*
X65271091Y-116159100D01*
X65161703Y-116159100D01*
X65159880Y-116159279D01*
X65159875Y-116159279D01*
X65014364Y-116173546D01*
X65014359Y-116173547D01*
X65010697Y-116173906D01*
X64816292Y-116232601D01*
X64636991Y-116327937D01*
X64479621Y-116456285D01*
X64477279Y-116459116D01*
X64477275Y-116459120D01*
X64407874Y-116543012D01*
X64350178Y-116612754D01*
X64348428Y-116615990D01*
X64348427Y-116615992D01*
X64318532Y-116671282D01*
X64253592Y-116791386D01*
X64193542Y-116985376D01*
X64172315Y-117187336D01*
X62997500Y-117187336D01*
X62997500Y-104977200D01*
X62996513Y-104954591D01*
X62995371Y-104941533D01*
X62994138Y-104930272D01*
X62961592Y-104834393D01*
X62935872Y-104789844D01*
X62886452Y-104728268D01*
X62880829Y-104724856D01*
X62880828Y-104724855D01*
X62822139Y-104689243D01*
X62799890Y-104675742D01*
X62796417Y-104674478D01*
X62796415Y-104674477D01*
X62781892Y-104669191D01*
X62751552Y-104658149D01*
X62748321Y-104657579D01*
X62748320Y-104657579D01*
X62666030Y-104643069D01*
X62666024Y-104643068D01*
X62662800Y-104642500D01*
X61218114Y-104642500D01*
X61169776Y-104624907D01*
X61144056Y-104580358D01*
X61145476Y-104547837D01*
X61155732Y-104509561D01*
X61158294Y-104500000D01*
X61155462Y-104489430D01*
X61152900Y-104469968D01*
X61152900Y-101326800D01*
X71441547Y-101326800D01*
X71478929Y-101610749D01*
X71479601Y-101613207D01*
X71479602Y-101613210D01*
X71485507Y-101634793D01*
X71554502Y-101886998D01*
X71666868Y-102150435D01*
X71813946Y-102396185D01*
X71993015Y-102619700D01*
X72200762Y-102816845D01*
X72433343Y-102983971D01*
X72540361Y-103040634D01*
X72684182Y-103116784D01*
X72684187Y-103116786D01*
X72686453Y-103117986D01*
X72955410Y-103216410D01*
X73162862Y-103261642D01*
X73232731Y-103276876D01*
X73232734Y-103276876D01*
X73235236Y-103277422D01*
X73359944Y-103287237D01*
X73458375Y-103294984D01*
X73458383Y-103294984D01*
X73459853Y-103295100D01*
X73614792Y-103295100D01*
X73828537Y-103280528D01*
X73831042Y-103280009D01*
X73831044Y-103280009D01*
X73929865Y-103259544D01*
X74108986Y-103222450D01*
X74124503Y-103216955D01*
X74376547Y-103127702D01*
X74376550Y-103127701D01*
X74378958Y-103126848D01*
X74633458Y-102995491D01*
X74651977Y-102982476D01*
X74865674Y-102832286D01*
X74867776Y-102830809D01*
X75077576Y-102635851D01*
X75089354Y-102621462D01*
X75257358Y-102416201D01*
X75258977Y-102414223D01*
X75408620Y-102170027D01*
X75416259Y-102152625D01*
X75522709Y-101910127D01*
X75522711Y-101910122D01*
X75523738Y-101907782D01*
X75602200Y-101632339D01*
X75642554Y-101348796D01*
X75644053Y-101062400D01*
X75606671Y-100778451D01*
X75605998Y-100775990D01*
X75531774Y-100504672D01*
X75531773Y-100504668D01*
X75531098Y-100502202D01*
X75418732Y-100238765D01*
X75271654Y-99993015D01*
X75092585Y-99769500D01*
X74884838Y-99572355D01*
X74652257Y-99405229D01*
X74545239Y-99348566D01*
X74401418Y-99272416D01*
X74401413Y-99272414D01*
X74399147Y-99271214D01*
X74130190Y-99172790D01*
X73922738Y-99127558D01*
X73852869Y-99112324D01*
X73852866Y-99112324D01*
X73850364Y-99111778D01*
X73725656Y-99101963D01*
X73627225Y-99094216D01*
X73627217Y-99094216D01*
X73625747Y-99094100D01*
X73470808Y-99094100D01*
X73257063Y-99108672D01*
X73254558Y-99109191D01*
X73254556Y-99109191D01*
X73155735Y-99129656D01*
X72976614Y-99166750D01*
X72974208Y-99167602D01*
X72709053Y-99261498D01*
X72709050Y-99261499D01*
X72706642Y-99262352D01*
X72452142Y-99393709D01*
X72450045Y-99395183D01*
X72450043Y-99395184D01*
X72358881Y-99459254D01*
X72217824Y-99558391D01*
X72008024Y-99753349D01*
X72006402Y-99755331D01*
X72006398Y-99755335D01*
X71993168Y-99771499D01*
X71826623Y-99974977D01*
X71676980Y-100219173D01*
X71675955Y-100221509D01*
X71675953Y-100221512D01*
X71668380Y-100238765D01*
X71561862Y-100481418D01*
X71483400Y-100756861D01*
X71443046Y-101040404D01*
X71441547Y-101326800D01*
X61152900Y-101326800D01*
X61152900Y-96702000D01*
X126616147Y-96702000D01*
X126653529Y-96985949D01*
X126654201Y-96988407D01*
X126654202Y-96988410D01*
X126660107Y-97009993D01*
X126729102Y-97262198D01*
X126841468Y-97525635D01*
X126988546Y-97771385D01*
X127167615Y-97994900D01*
X127375362Y-98192045D01*
X127607943Y-98359171D01*
X127714961Y-98415834D01*
X127858782Y-98491984D01*
X127858787Y-98491986D01*
X127861053Y-98493186D01*
X128130010Y-98591610D01*
X128337462Y-98636842D01*
X128407331Y-98652076D01*
X128407334Y-98652076D01*
X128409836Y-98652622D01*
X128534544Y-98662437D01*
X128632975Y-98670184D01*
X128632983Y-98670184D01*
X128634453Y-98670300D01*
X128789392Y-98670300D01*
X129003137Y-98655728D01*
X129005642Y-98655209D01*
X129005644Y-98655209D01*
X129104465Y-98634744D01*
X129283586Y-98597650D01*
X129299103Y-98592155D01*
X129551147Y-98502902D01*
X129551150Y-98502901D01*
X129553558Y-98502048D01*
X129808058Y-98370691D01*
X129826577Y-98357676D01*
X130040274Y-98207486D01*
X130042376Y-98206009D01*
X130252176Y-98011051D01*
X130263954Y-97996662D01*
X130431958Y-97791401D01*
X130433577Y-97789423D01*
X130583220Y-97545227D01*
X130590859Y-97527825D01*
X130697309Y-97285327D01*
X130697311Y-97285322D01*
X130698338Y-97282982D01*
X130776800Y-97007539D01*
X130817154Y-96723996D01*
X130818653Y-96437600D01*
X130809715Y-96369703D01*
X130781604Y-96156181D01*
X130781271Y-96153651D01*
X130776688Y-96136899D01*
X130706374Y-95879872D01*
X130706373Y-95879868D01*
X130705698Y-95877402D01*
X130612240Y-95658294D01*
X130594333Y-95616311D01*
X130594331Y-95616307D01*
X130593332Y-95613965D01*
X130464807Y-95399215D01*
X130447566Y-95370407D01*
X130447565Y-95370406D01*
X130446254Y-95368215D01*
X130267185Y-95144700D01*
X130059438Y-94947555D01*
X129883215Y-94820926D01*
X129828938Y-94781924D01*
X129828934Y-94781922D01*
X129826857Y-94780429D01*
X129719839Y-94723766D01*
X129576018Y-94647616D01*
X129576013Y-94647614D01*
X129573747Y-94646414D01*
X129304790Y-94547990D01*
X129097338Y-94502758D01*
X129027469Y-94487524D01*
X129027466Y-94487524D01*
X129024964Y-94486978D01*
X128900256Y-94477163D01*
X128801825Y-94469416D01*
X128801817Y-94469416D01*
X128800347Y-94469300D01*
X128645408Y-94469300D01*
X128431663Y-94483872D01*
X128429158Y-94484391D01*
X128429156Y-94484391D01*
X128330335Y-94504856D01*
X128151214Y-94541950D01*
X128148808Y-94542802D01*
X127883653Y-94636698D01*
X127883650Y-94636699D01*
X127881242Y-94637552D01*
X127878970Y-94638725D01*
X127878967Y-94638726D01*
X127629022Y-94767732D01*
X127626742Y-94768909D01*
X127624645Y-94770383D01*
X127624643Y-94770384D01*
X127533481Y-94834454D01*
X127392424Y-94933591D01*
X127390541Y-94935341D01*
X127245959Y-95069695D01*
X127182624Y-95128549D01*
X127181002Y-95130531D01*
X127180998Y-95130535D01*
X127072420Y-95263191D01*
X127001223Y-95350177D01*
X126851580Y-95594373D01*
X126850555Y-95596709D01*
X126850553Y-95596712D01*
X126752045Y-95821120D01*
X126736462Y-95856618D01*
X126658000Y-96132061D01*
X126617646Y-96415604D01*
X126616147Y-96702000D01*
X61152900Y-96702000D01*
X61152900Y-96044727D01*
X113165676Y-96044727D01*
X113174488Y-96104598D01*
X113177914Y-96115623D01*
X113227057Y-96215715D01*
X113234191Y-96225681D01*
X113312844Y-96304197D01*
X113322826Y-96311317D01*
X113423005Y-96360286D01*
X113434029Y-96363693D01*
X113497866Y-96373005D01*
X113503302Y-96373400D01*
X113524741Y-96373400D01*
X113534898Y-96369703D01*
X113538000Y-96364331D01*
X113538000Y-96360140D01*
X114046000Y-96360140D01*
X114049697Y-96370297D01*
X114055069Y-96373399D01*
X114080680Y-96373399D01*
X114086150Y-96372998D01*
X114150598Y-96363512D01*
X114161623Y-96360086D01*
X114261715Y-96310943D01*
X114271681Y-96303809D01*
X114350197Y-96225156D01*
X114357317Y-96215174D01*
X114406288Y-96114990D01*
X114409692Y-96103976D01*
X114417476Y-96050623D01*
X114415283Y-96040036D01*
X114412072Y-96037500D01*
X114059259Y-96037500D01*
X114049102Y-96041197D01*
X114046000Y-96046569D01*
X114046000Y-96360140D01*
X113538000Y-96360140D01*
X113538000Y-96050759D01*
X113534303Y-96040602D01*
X113528931Y-96037500D01*
X113177871Y-96037500D01*
X113167714Y-96041197D01*
X113165676Y-96044727D01*
X61152900Y-96044727D01*
X61152900Y-95516377D01*
X113166524Y-95516377D01*
X113168717Y-95526964D01*
X113171928Y-95529500D01*
X113524741Y-95529500D01*
X113534898Y-95525803D01*
X113538000Y-95520431D01*
X113538000Y-95206860D01*
X113534303Y-95196703D01*
X113528931Y-95193601D01*
X113503320Y-95193601D01*
X113497850Y-95194002D01*
X113433402Y-95203488D01*
X113422377Y-95206914D01*
X113322285Y-95256057D01*
X113312319Y-95263191D01*
X113233803Y-95341844D01*
X113226683Y-95351826D01*
X113177712Y-95452010D01*
X113174308Y-95463024D01*
X113166524Y-95516377D01*
X61152900Y-95516377D01*
X61152900Y-93984631D01*
X95454827Y-93984631D01*
X95455117Y-93988780D01*
X95481787Y-94070863D01*
X95484977Y-94078028D01*
X95570624Y-94226372D01*
X95575236Y-94232720D01*
X95689856Y-94360019D01*
X95695677Y-94365260D01*
X95834269Y-94465954D01*
X95841044Y-94469865D01*
X95997547Y-94539545D01*
X96000469Y-94540494D01*
X96009735Y-94539192D01*
X96011886Y-94536803D01*
X96012000Y-94536215D01*
X96012000Y-94530195D01*
X96520000Y-94530195D01*
X96523697Y-94540352D01*
X96526480Y-94541959D01*
X96527053Y-94541949D01*
X96534453Y-94539545D01*
X96690956Y-94469865D01*
X96697731Y-94465954D01*
X96836323Y-94365260D01*
X96842144Y-94360019D01*
X96956764Y-94232720D01*
X96961376Y-94226372D01*
X97047023Y-94078028D01*
X97050213Y-94070863D01*
X97075639Y-93992610D01*
X97075262Y-93981808D01*
X97074540Y-93981006D01*
X97070504Y-93980000D01*
X96533259Y-93980000D01*
X96523102Y-93983697D01*
X96520000Y-93989069D01*
X96520000Y-94530195D01*
X96012000Y-94530195D01*
X96012000Y-93993259D01*
X96008303Y-93983102D01*
X96002931Y-93980000D01*
X95465523Y-93980000D01*
X95455366Y-93983697D01*
X95454827Y-93984631D01*
X61152900Y-93984631D01*
X61152900Y-93726000D01*
X100488402Y-93726000D01*
X100488814Y-93729920D01*
X100506657Y-93899677D01*
X100507143Y-93904305D01*
X100508358Y-93908045D01*
X100508359Y-93908049D01*
X100551632Y-94041231D01*
X100562545Y-94074817D01*
X100652189Y-94230083D01*
X100772155Y-94363320D01*
X100917201Y-94468702D01*
X101080988Y-94541624D01*
X101084835Y-94542442D01*
X101084839Y-94542443D01*
X101168673Y-94560262D01*
X101256357Y-94578900D01*
X101435643Y-94578900D01*
X101523328Y-94560262D01*
X101607161Y-94542443D01*
X101607165Y-94542442D01*
X101611012Y-94541624D01*
X101774799Y-94468702D01*
X101919845Y-94363320D01*
X102039811Y-94230083D01*
X102129455Y-94074817D01*
X102140368Y-94041231D01*
X102183641Y-93908049D01*
X102183642Y-93908045D01*
X102184857Y-93904305D01*
X102185344Y-93899677D01*
X102203186Y-93729920D01*
X102203598Y-93726000D01*
X102199119Y-93683383D01*
X102185269Y-93551612D01*
X102185268Y-93551609D01*
X102184857Y-93547695D01*
X102182759Y-93541236D01*
X102130673Y-93380932D01*
X102129455Y-93377183D01*
X102039811Y-93221917D01*
X101977669Y-93152900D01*
X101943087Y-93114493D01*
X101919845Y-93088680D01*
X101913283Y-93083912D01*
X101802822Y-93003658D01*
X101774799Y-92983298D01*
X101611012Y-92910376D01*
X101607165Y-92909558D01*
X101607161Y-92909557D01*
X101523328Y-92891738D01*
X101435643Y-92873100D01*
X101256357Y-92873100D01*
X101168672Y-92891738D01*
X101084839Y-92909557D01*
X101084835Y-92909558D01*
X101080988Y-92910376D01*
X100917201Y-92983298D01*
X100889178Y-93003658D01*
X100778718Y-93083912D01*
X100772155Y-93088680D01*
X100748913Y-93114493D01*
X100714332Y-93152900D01*
X100652189Y-93221917D01*
X100562545Y-93377183D01*
X100561327Y-93380932D01*
X100509242Y-93541236D01*
X100507143Y-93547695D01*
X100506732Y-93551609D01*
X100506731Y-93551612D01*
X100492881Y-93683383D01*
X100488402Y-93726000D01*
X61152900Y-93726000D01*
X61152900Y-93459390D01*
X95456361Y-93459390D01*
X95456738Y-93470192D01*
X95457460Y-93470994D01*
X95461496Y-93472000D01*
X95998741Y-93472000D01*
X96008898Y-93468303D01*
X96012000Y-93462931D01*
X96012000Y-93458741D01*
X96520000Y-93458741D01*
X96523697Y-93468898D01*
X96529069Y-93472000D01*
X97066477Y-93472000D01*
X97076634Y-93468303D01*
X97077173Y-93467369D01*
X97076883Y-93463220D01*
X97050213Y-93381137D01*
X97047023Y-93373972D01*
X96961376Y-93225628D01*
X96956764Y-93219280D01*
X96842144Y-93091981D01*
X96836323Y-93086740D01*
X96697731Y-92986046D01*
X96690956Y-92982135D01*
X96534453Y-92912455D01*
X96531531Y-92911506D01*
X96522265Y-92912808D01*
X96520114Y-92915197D01*
X96520000Y-92915785D01*
X96520000Y-93458741D01*
X96012000Y-93458741D01*
X96012000Y-92921805D01*
X96008303Y-92911648D01*
X96005520Y-92910041D01*
X96004947Y-92910051D01*
X95997547Y-92912455D01*
X95841048Y-92982134D01*
X95834266Y-92986049D01*
X95695682Y-93086736D01*
X95689854Y-93091983D01*
X95575236Y-93219280D01*
X95570624Y-93225628D01*
X95484977Y-93373972D01*
X95481787Y-93381137D01*
X95456361Y-93459390D01*
X61152900Y-93459390D01*
X61152900Y-93030032D01*
X61155462Y-93010569D01*
X61155663Y-93009818D01*
X61158294Y-93000000D01*
X61154897Y-92987321D01*
X61139649Y-92930414D01*
X61139649Y-92930413D01*
X61137087Y-92920853D01*
X61079147Y-92862913D01*
X61069587Y-92860351D01*
X61069586Y-92860351D01*
X61020131Y-92847100D01*
X61009562Y-92844268D01*
X61000000Y-92841706D01*
X60989431Y-92844538D01*
X60969968Y-92847100D01*
X53428400Y-92847100D01*
X53380062Y-92829507D01*
X53354342Y-92784958D01*
X53353200Y-92771900D01*
X53353200Y-87317004D01*
X108284100Y-87317004D01*
X108287242Y-87343412D01*
X108333048Y-87446536D01*
X108373179Y-87486598D01*
X108407683Y-87521041D01*
X108412907Y-87526256D01*
X108419257Y-87529063D01*
X108419258Y-87529064D01*
X108473763Y-87553160D01*
X108516111Y-87571882D01*
X108521729Y-87572537D01*
X108539834Y-87574648D01*
X108539835Y-87574648D01*
X108541996Y-87574900D01*
X110282004Y-87574900D01*
X110284211Y-87574637D01*
X110284218Y-87574637D01*
X110302809Y-87572425D01*
X110302811Y-87572424D01*
X110308412Y-87571758D01*
X110411536Y-87525952D01*
X110468596Y-87468793D01*
X110486351Y-87451007D01*
X110486352Y-87451006D01*
X110491256Y-87446093D01*
X110491567Y-87445389D01*
X110530707Y-87417370D01*
X110550928Y-87414600D01*
X110845653Y-87414600D01*
X110893991Y-87432193D01*
X110898816Y-87436615D01*
X111254875Y-87792673D01*
X111276614Y-87839292D01*
X111276900Y-87845846D01*
X111276900Y-90200897D01*
X111276521Y-90206058D01*
X111275025Y-90210416D01*
X111275286Y-90217356D01*
X111276847Y-90258940D01*
X111276900Y-90261762D01*
X111276900Y-90281111D01*
X111277534Y-90284514D01*
X111277805Y-90287453D01*
X111278071Y-90291545D01*
X111278388Y-90299972D01*
X111279115Y-90319341D01*
X111281977Y-90326002D01*
X111284469Y-90331802D01*
X111289306Y-90347721D01*
X111291790Y-90361060D01*
X111295433Y-90366969D01*
X111295434Y-90366973D01*
X111302049Y-90377703D01*
X111306142Y-90384342D01*
X111306215Y-90384461D01*
X111311290Y-90394231D01*
X111322143Y-90419492D01*
X111326052Y-90424251D01*
X111332051Y-90430250D01*
X111342892Y-90443964D01*
X111348986Y-90453850D01*
X111368136Y-90468412D01*
X111372752Y-90471922D01*
X111380408Y-90478607D01*
X112765222Y-91863421D01*
X112768604Y-91867339D01*
X112770627Y-91871477D01*
X112775716Y-91876198D01*
X112775717Y-91876199D01*
X112806237Y-91904510D01*
X112808269Y-91906468D01*
X112821942Y-91920141D01*
X112824798Y-91922100D01*
X112827083Y-91923999D01*
X112830159Y-91926701D01*
X112850540Y-91945607D01*
X112863148Y-91950637D01*
X112877816Y-91958470D01*
X112889003Y-91966144D01*
X112895756Y-91967746D01*
X112895757Y-91967747D01*
X112915749Y-91972491D01*
X112926251Y-91975813D01*
X112946850Y-91984031D01*
X112951783Y-91985999D01*
X112957912Y-91986600D01*
X112966398Y-91986600D01*
X112983762Y-91988632D01*
X112995059Y-91991313D01*
X113001937Y-91990377D01*
X113001938Y-91990377D01*
X113024641Y-91987287D01*
X113034782Y-91986600D01*
X113069919Y-91986600D01*
X113118257Y-92004193D01*
X113139483Y-92040051D01*
X113140693Y-92039550D01*
X113143527Y-92046392D01*
X113144972Y-92053658D01*
X113178766Y-92104234D01*
X113184923Y-92108348D01*
X113190161Y-92113586D01*
X113188530Y-92115217D01*
X113212536Y-92147961D01*
X113209169Y-92199290D01*
X113189033Y-92223286D01*
X113190161Y-92224414D01*
X113184923Y-92229652D01*
X113178766Y-92233766D01*
X113174652Y-92239923D01*
X113159953Y-92261922D01*
X113144972Y-92284342D01*
X113136100Y-92328943D01*
X113136101Y-92959056D01*
X113144972Y-93003658D01*
X113178766Y-93054234D01*
X113184923Y-93058348D01*
X113223183Y-93083913D01*
X113223184Y-93083914D01*
X113229342Y-93088028D01*
X113273943Y-93096900D01*
X113421200Y-93096900D01*
X113469538Y-93114493D01*
X113495258Y-93159042D01*
X113496400Y-93172100D01*
X113496400Y-93553767D01*
X113478807Y-93602105D01*
X113438351Y-93624701D01*
X113438838Y-93626268D01*
X113433257Y-93628002D01*
X113427476Y-93628853D01*
X113422232Y-93631428D01*
X113422231Y-93631428D01*
X113321988Y-93680645D01*
X113321987Y-93680646D01*
X113316412Y-93683383D01*
X113312025Y-93687777D01*
X113312023Y-93687779D01*
X113238659Y-93761272D01*
X113229000Y-93770948D01*
X113226271Y-93776532D01*
X113226269Y-93776534D01*
X113214143Y-93801342D01*
X113174665Y-93882106D01*
X113170741Y-93909006D01*
X113164497Y-93951805D01*
X113164100Y-93954524D01*
X113164100Y-94462476D01*
X113164500Y-94465192D01*
X113164500Y-94465195D01*
X113167326Y-94484391D01*
X113174853Y-94535524D01*
X113177428Y-94540768D01*
X113177428Y-94540769D01*
X113224947Y-94637552D01*
X113229383Y-94646588D01*
X113233777Y-94650975D01*
X113233779Y-94650977D01*
X113312547Y-94729607D01*
X113316948Y-94734000D01*
X113322532Y-94736729D01*
X113322534Y-94736731D01*
X113388364Y-94768909D01*
X113428106Y-94788335D01*
X113467014Y-94794011D01*
X113497821Y-94798506D01*
X113497826Y-94798506D01*
X113500524Y-94798900D01*
X113784953Y-94798900D01*
X113833291Y-94816493D01*
X113838127Y-94820926D01*
X114086896Y-95069695D01*
X114108636Y-95116315D01*
X114095322Y-95166002D01*
X114059441Y-95193534D01*
X114049102Y-95197297D01*
X114046000Y-95202669D01*
X114046000Y-95516241D01*
X114049697Y-95526398D01*
X114055069Y-95529500D01*
X114406129Y-95529500D01*
X114421208Y-95524012D01*
X114453070Y-95497275D01*
X114504510Y-95497273D01*
X114531966Y-95514765D01*
X114920074Y-95902873D01*
X114941814Y-95949493D01*
X114942100Y-95956047D01*
X114942100Y-96037476D01*
X114942500Y-96040192D01*
X114942500Y-96040195D01*
X114944035Y-96050623D01*
X114952853Y-96110524D01*
X114955428Y-96115768D01*
X114955428Y-96115769D01*
X114981416Y-96168699D01*
X115007383Y-96221588D01*
X115011777Y-96225975D01*
X115011779Y-96225977D01*
X115090547Y-96304607D01*
X115094948Y-96309000D01*
X115100532Y-96311729D01*
X115100534Y-96311731D01*
X115177811Y-96349504D01*
X115206106Y-96363335D01*
X115245014Y-96369011D01*
X115275821Y-96373506D01*
X115275826Y-96373506D01*
X115278524Y-96373900D01*
X115861476Y-96373900D01*
X115864192Y-96373500D01*
X115864195Y-96373500D01*
X115905862Y-96367366D01*
X115934524Y-96363147D01*
X115939769Y-96360572D01*
X116040012Y-96311355D01*
X116040013Y-96311354D01*
X116045588Y-96308617D01*
X116049975Y-96304223D01*
X116049977Y-96304221D01*
X116128607Y-96225453D01*
X116128608Y-96225452D01*
X116133000Y-96221052D01*
X116135729Y-96215468D01*
X116135731Y-96215466D01*
X116184463Y-96115769D01*
X116187335Y-96109894D01*
X116193503Y-96067615D01*
X116197506Y-96040179D01*
X116197506Y-96040174D01*
X116197900Y-96037476D01*
X116197900Y-95815810D01*
X117199792Y-95815810D01*
X117200486Y-95821117D01*
X117200486Y-95821120D01*
X117207538Y-95875049D01*
X117216914Y-95946747D01*
X117219072Y-95951651D01*
X117260837Y-96046569D01*
X117270097Y-96067615D01*
X117273542Y-96071713D01*
X117273543Y-96071715D01*
X117326392Y-96134586D01*
X117355067Y-96168699D01*
X117359526Y-96171667D01*
X117359527Y-96171668D01*
X117460530Y-96238902D01*
X117460533Y-96238903D01*
X117464991Y-96241871D01*
X117591035Y-96281250D01*
X117658961Y-96282495D01*
X117717702Y-96283572D01*
X117717704Y-96283572D01*
X117723064Y-96283670D01*
X117728235Y-96282260D01*
X117728237Y-96282260D01*
X117796041Y-96263774D01*
X117850466Y-96248936D01*
X117905453Y-96215174D01*
X117958429Y-96182647D01*
X117958432Y-96182645D01*
X117962998Y-96179841D01*
X117988932Y-96151190D01*
X118017548Y-96119576D01*
X118063030Y-96095546D01*
X118113317Y-96106373D01*
X118140802Y-96136898D01*
X118182383Y-96221588D01*
X118186777Y-96225975D01*
X118186779Y-96225977D01*
X118265547Y-96304607D01*
X118269948Y-96309000D01*
X118275532Y-96311729D01*
X118275534Y-96311731D01*
X118352811Y-96349504D01*
X118381106Y-96363335D01*
X118420014Y-96369011D01*
X118450821Y-96373506D01*
X118450826Y-96373506D01*
X118453524Y-96373900D01*
X119036476Y-96373900D01*
X119039192Y-96373500D01*
X119039195Y-96373500D01*
X119080862Y-96367366D01*
X119109524Y-96363147D01*
X119114769Y-96360572D01*
X119215012Y-96311355D01*
X119215013Y-96311354D01*
X119220588Y-96308617D01*
X119224975Y-96304223D01*
X119224977Y-96304221D01*
X119303607Y-96225453D01*
X119303608Y-96225452D01*
X119308000Y-96221052D01*
X119310729Y-96215468D01*
X119310731Y-96215466D01*
X119359463Y-96115769D01*
X119362335Y-96109894D01*
X119368503Y-96067615D01*
X119372506Y-96040179D01*
X119372506Y-96040174D01*
X119372900Y-96037476D01*
X119372900Y-95529524D01*
X119371562Y-95520431D01*
X119364261Y-95470835D01*
X119362147Y-95456476D01*
X119358341Y-95448724D01*
X119310355Y-95350988D01*
X119310354Y-95350987D01*
X119307617Y-95345412D01*
X119303223Y-95341025D01*
X119303221Y-95341023D01*
X119224453Y-95262393D01*
X119224452Y-95262392D01*
X119220052Y-95258000D01*
X119214468Y-95255271D01*
X119214466Y-95255269D01*
X119137118Y-95217461D01*
X119108894Y-95203665D01*
X119069986Y-95197989D01*
X119039179Y-95193494D01*
X119039174Y-95193494D01*
X119036476Y-95193100D01*
X118453524Y-95193100D01*
X118450808Y-95193500D01*
X118450805Y-95193500D01*
X118409138Y-95199634D01*
X118380476Y-95203853D01*
X118375232Y-95206428D01*
X118375231Y-95206428D01*
X118274988Y-95255645D01*
X118274987Y-95255646D01*
X118269412Y-95258383D01*
X118265025Y-95262777D01*
X118265023Y-95262779D01*
X118264612Y-95263191D01*
X118182000Y-95345948D01*
X118179271Y-95351532D01*
X118179269Y-95351534D01*
X118131762Y-95448724D01*
X118094728Y-95484425D01*
X118064201Y-95490900D01*
X118022045Y-95490900D01*
X117973546Y-95472718D01*
X117971665Y-95470535D01*
X117860854Y-95398711D01*
X117817057Y-95385613D01*
X117739473Y-95362410D01*
X117739470Y-95362410D01*
X117734339Y-95360875D01*
X117728984Y-95360842D01*
X117728982Y-95360842D01*
X117669699Y-95360480D01*
X117602290Y-95360068D01*
X117475322Y-95396356D01*
X117470792Y-95399214D01*
X117470790Y-95399215D01*
X117466974Y-95401623D01*
X117363642Y-95466820D01*
X117360096Y-95470835D01*
X117348094Y-95484425D01*
X117276228Y-95565798D01*
X117273952Y-95570645D01*
X117273951Y-95570647D01*
X117262812Y-95594373D01*
X117220108Y-95685331D01*
X117199792Y-95815810D01*
X116197900Y-95815810D01*
X116197900Y-95529524D01*
X116196562Y-95520431D01*
X116189261Y-95470835D01*
X116187147Y-95456476D01*
X116183341Y-95448724D01*
X116135355Y-95350988D01*
X116135354Y-95350987D01*
X116132617Y-95345412D01*
X116128223Y-95341025D01*
X116128221Y-95341023D01*
X116049453Y-95262393D01*
X116049452Y-95262392D01*
X116045052Y-95258000D01*
X116039468Y-95255271D01*
X116039466Y-95255269D01*
X115962118Y-95217461D01*
X115933894Y-95203665D01*
X115894986Y-95197989D01*
X115864179Y-95193494D01*
X115864174Y-95193494D01*
X115861476Y-95193100D01*
X115278524Y-95193100D01*
X115275808Y-95193500D01*
X115275805Y-95193500D01*
X115234138Y-95199634D01*
X115205476Y-95203853D01*
X115148575Y-95231790D01*
X115097433Y-95237301D01*
X115062260Y-95217461D01*
X114432247Y-94587448D01*
X114410507Y-94540828D01*
X114411009Y-94523418D01*
X114419506Y-94465179D01*
X114419506Y-94465174D01*
X114419900Y-94462476D01*
X114942100Y-94462476D01*
X114942500Y-94465192D01*
X114942500Y-94465195D01*
X114945326Y-94484391D01*
X114952853Y-94535524D01*
X114955428Y-94540768D01*
X114955428Y-94540769D01*
X115002947Y-94637552D01*
X115007383Y-94646588D01*
X115011777Y-94650975D01*
X115011779Y-94650977D01*
X115090547Y-94729607D01*
X115094948Y-94734000D01*
X115100532Y-94736729D01*
X115100534Y-94736731D01*
X115166364Y-94768909D01*
X115206106Y-94788335D01*
X115245014Y-94794011D01*
X115275821Y-94798506D01*
X115275826Y-94798506D01*
X115278524Y-94798900D01*
X115861476Y-94798900D01*
X115864192Y-94798500D01*
X115864195Y-94798500D01*
X115905862Y-94792366D01*
X115934524Y-94788147D01*
X115973707Y-94768909D01*
X116040012Y-94736355D01*
X116040013Y-94736354D01*
X116045588Y-94733617D01*
X116049975Y-94729223D01*
X116049977Y-94729221D01*
X116128607Y-94650453D01*
X116128608Y-94650452D01*
X116133000Y-94646052D01*
X116135729Y-94640468D01*
X116135731Y-94640466D01*
X116180503Y-94548870D01*
X116187335Y-94534894D01*
X116194246Y-94487524D01*
X116197506Y-94465179D01*
X116197506Y-94465174D01*
X116197900Y-94462476D01*
X116197900Y-93954524D01*
X116187147Y-93881476D01*
X116184572Y-93876231D01*
X116135355Y-93775988D01*
X116135354Y-93775987D01*
X116132617Y-93770412D01*
X116128223Y-93766025D01*
X116128221Y-93766023D01*
X116049453Y-93687393D01*
X116049452Y-93687392D01*
X116045052Y-93683000D01*
X116039468Y-93680271D01*
X116039466Y-93680269D01*
X115946490Y-93634822D01*
X115933894Y-93628665D01*
X115926943Y-93627651D01*
X115926106Y-93627200D01*
X115922546Y-93626100D01*
X115922762Y-93625400D01*
X115881652Y-93603263D01*
X115862600Y-93553239D01*
X115862600Y-93117303D01*
X115880193Y-93068965D01*
X115924742Y-93043245D01*
X115979578Y-93054777D01*
X115990803Y-93062277D01*
X116023183Y-93083913D01*
X116023184Y-93083914D01*
X116029342Y-93088028D01*
X116073943Y-93096900D01*
X116588930Y-93096900D01*
X117104056Y-93096899D01*
X117148658Y-93088028D01*
X117199234Y-93054234D01*
X117206577Y-93043245D01*
X117228913Y-93009817D01*
X117228914Y-93009816D01*
X117233028Y-93003658D01*
X117234474Y-92996391D01*
X117237308Y-92989550D01*
X117238601Y-92990085D01*
X117261015Y-92953151D01*
X117308082Y-92936600D01*
X118168314Y-92936600D01*
X118216652Y-92954193D01*
X118221442Y-92958579D01*
X118265547Y-93002607D01*
X118269948Y-93007000D01*
X118275532Y-93009729D01*
X118275534Y-93009731D01*
X118344098Y-93043245D01*
X118381106Y-93061335D01*
X118388057Y-93062349D01*
X118388894Y-93062800D01*
X118392454Y-93063900D01*
X118392238Y-93064600D01*
X118433348Y-93086737D01*
X118452400Y-93136761D01*
X118452400Y-93553325D01*
X118434807Y-93601663D01*
X118391678Y-93625753D01*
X118391838Y-93626268D01*
X118389401Y-93627025D01*
X118388152Y-93627723D01*
X118380476Y-93628853D01*
X118375232Y-93631428D01*
X118375231Y-93631428D01*
X118274988Y-93680645D01*
X118274987Y-93680646D01*
X118269412Y-93683383D01*
X118265025Y-93687777D01*
X118265023Y-93687779D01*
X118191659Y-93761272D01*
X118182000Y-93770948D01*
X118179271Y-93776532D01*
X118179269Y-93776534D01*
X118167143Y-93801342D01*
X118127665Y-93882106D01*
X118123741Y-93909006D01*
X118117497Y-93951805D01*
X118117100Y-93954524D01*
X118117100Y-94462476D01*
X118117500Y-94465192D01*
X118117500Y-94465195D01*
X118120326Y-94484391D01*
X118127853Y-94535524D01*
X118130428Y-94540768D01*
X118130428Y-94540769D01*
X118177947Y-94637552D01*
X118182383Y-94646588D01*
X118186777Y-94650975D01*
X118186779Y-94650977D01*
X118265547Y-94729607D01*
X118269948Y-94734000D01*
X118275532Y-94736729D01*
X118275534Y-94736731D01*
X118341364Y-94768909D01*
X118381106Y-94788335D01*
X118420014Y-94794011D01*
X118450821Y-94798506D01*
X118450826Y-94798506D01*
X118453524Y-94798900D01*
X119036476Y-94798900D01*
X119039192Y-94798500D01*
X119039195Y-94798500D01*
X119080862Y-94792366D01*
X119109524Y-94788147D01*
X119148707Y-94768909D01*
X119215012Y-94736355D01*
X119215013Y-94736354D01*
X119220588Y-94733617D01*
X119224975Y-94729223D01*
X119224977Y-94729221D01*
X119303607Y-94650453D01*
X119303608Y-94650452D01*
X119308000Y-94646052D01*
X119310729Y-94640468D01*
X119310731Y-94640466D01*
X119355503Y-94548870D01*
X119362335Y-94534894D01*
X119369246Y-94487524D01*
X119372506Y-94465179D01*
X119372506Y-94465174D01*
X119372900Y-94462476D01*
X119372900Y-93954524D01*
X119362147Y-93881476D01*
X119359572Y-93876231D01*
X119310355Y-93775988D01*
X119310354Y-93775987D01*
X119307617Y-93770412D01*
X119303223Y-93766025D01*
X119303221Y-93766023D01*
X119224453Y-93687393D01*
X119224452Y-93687392D01*
X119220052Y-93683000D01*
X119214468Y-93680271D01*
X119214466Y-93680269D01*
X119121490Y-93634822D01*
X119108894Y-93628665D01*
X119101943Y-93627651D01*
X119101106Y-93627200D01*
X119097546Y-93626100D01*
X119097762Y-93625400D01*
X119056652Y-93603263D01*
X119037600Y-93553239D01*
X119037600Y-93136675D01*
X119055193Y-93088337D01*
X119098322Y-93064247D01*
X119098162Y-93063732D01*
X119100599Y-93062975D01*
X119101848Y-93062277D01*
X119102527Y-93062177D01*
X119109524Y-93061147D01*
X119123604Y-93054234D01*
X119215012Y-93009355D01*
X119215013Y-93009354D01*
X119220588Y-93006617D01*
X119224975Y-93002223D01*
X119224977Y-93002221D01*
X119303607Y-92923453D01*
X119303608Y-92923452D01*
X119308000Y-92919052D01*
X119310729Y-92913468D01*
X119310731Y-92913466D01*
X119359773Y-92813135D01*
X119362335Y-92807894D01*
X119368011Y-92768986D01*
X119372506Y-92738179D01*
X119372506Y-92738174D01*
X119372900Y-92735476D01*
X119372900Y-92227524D01*
X119372457Y-92224510D01*
X119362998Y-92160258D01*
X119362147Y-92154476D01*
X119358428Y-92146900D01*
X119332917Y-92094942D01*
X119327406Y-92043799D01*
X119356059Y-92001078D01*
X119400420Y-91986600D01*
X119608653Y-91986600D01*
X119656991Y-92004193D01*
X119661827Y-92008626D01*
X119873074Y-92219873D01*
X119894814Y-92266493D01*
X119895100Y-92273047D01*
X119895100Y-92735476D01*
X119905853Y-92808524D01*
X119908428Y-92813768D01*
X119908428Y-92813769D01*
X119956837Y-92912365D01*
X119960383Y-92919588D01*
X119964777Y-92923975D01*
X119964779Y-92923977D01*
X120043547Y-93002607D01*
X120047948Y-93007000D01*
X120053532Y-93009729D01*
X120053534Y-93009731D01*
X120122098Y-93043245D01*
X120159106Y-93061335D01*
X120198014Y-93067011D01*
X120228821Y-93071506D01*
X120228826Y-93071506D01*
X120231524Y-93071900D01*
X120668453Y-93071900D01*
X120716791Y-93089493D01*
X120721627Y-93093926D01*
X121078622Y-93450921D01*
X121082004Y-93454839D01*
X121084027Y-93458977D01*
X121089116Y-93463698D01*
X121089117Y-93463699D01*
X121119637Y-93492010D01*
X121121669Y-93493968D01*
X121135342Y-93507641D01*
X121138198Y-93509600D01*
X121140483Y-93511499D01*
X121143559Y-93514201D01*
X121163940Y-93533107D01*
X121176548Y-93538137D01*
X121191216Y-93545970D01*
X121202403Y-93553644D01*
X121209156Y-93555246D01*
X121209157Y-93555247D01*
X121229149Y-93559991D01*
X121239651Y-93563313D01*
X121260250Y-93571531D01*
X121265183Y-93573499D01*
X121271312Y-93574100D01*
X121279798Y-93574100D01*
X121297162Y-93576132D01*
X121308459Y-93578813D01*
X121315337Y-93577877D01*
X121315338Y-93577877D01*
X121338041Y-93574787D01*
X121348182Y-93574100D01*
X121620325Y-93574100D01*
X121668663Y-93591693D01*
X121692753Y-93634822D01*
X121693268Y-93634662D01*
X121694025Y-93637099D01*
X121694723Y-93638348D01*
X121695853Y-93646024D01*
X121698428Y-93651268D01*
X121698428Y-93651269D01*
X121741744Y-93739492D01*
X121750383Y-93757088D01*
X121754777Y-93761475D01*
X121754779Y-93761477D01*
X121833547Y-93840107D01*
X121837948Y-93844500D01*
X121843532Y-93847229D01*
X121843534Y-93847231D01*
X121902863Y-93876231D01*
X121949106Y-93898835D01*
X121986600Y-93904305D01*
X122018821Y-93909006D01*
X122018826Y-93909006D01*
X122021524Y-93909400D01*
X122529476Y-93909400D01*
X122532192Y-93909000D01*
X122532195Y-93909000D01*
X122573862Y-93902866D01*
X122602524Y-93898647D01*
X122637497Y-93881476D01*
X122708012Y-93846855D01*
X122708013Y-93846854D01*
X122713588Y-93844117D01*
X122717975Y-93839723D01*
X122717977Y-93839721D01*
X122796607Y-93760953D01*
X122796608Y-93760952D01*
X122801000Y-93756552D01*
X122803729Y-93750968D01*
X122803731Y-93750966D01*
X122852773Y-93650635D01*
X122855335Y-93645394D01*
X122861715Y-93601663D01*
X122865506Y-93575679D01*
X122865506Y-93575674D01*
X122865900Y-93572976D01*
X122865900Y-92990024D01*
X122865315Y-92986046D01*
X122856263Y-92924557D01*
X122855147Y-92916976D01*
X122852531Y-92911648D01*
X122803355Y-92811488D01*
X122803354Y-92811487D01*
X122800617Y-92805912D01*
X122796223Y-92801525D01*
X122796221Y-92801523D01*
X122717453Y-92722893D01*
X122717452Y-92722892D01*
X122713052Y-92718500D01*
X122707468Y-92715771D01*
X122707466Y-92715769D01*
X122615893Y-92671008D01*
X122601894Y-92664165D01*
X122562986Y-92658489D01*
X122532179Y-92653994D01*
X122532174Y-92653994D01*
X122529476Y-92653600D01*
X122021524Y-92653600D01*
X122018808Y-92654000D01*
X122018805Y-92654000D01*
X121977138Y-92660134D01*
X121948476Y-92664353D01*
X121943232Y-92666928D01*
X121943231Y-92666928D01*
X121842988Y-92716145D01*
X121842987Y-92716146D01*
X121837412Y-92718883D01*
X121833025Y-92723277D01*
X121833023Y-92723279D01*
X121771452Y-92784958D01*
X121750000Y-92806448D01*
X121747271Y-92812032D01*
X121747269Y-92812034D01*
X121709496Y-92889311D01*
X121695665Y-92917606D01*
X121694823Y-92923379D01*
X121694651Y-92924557D01*
X121694200Y-92925394D01*
X121693100Y-92928954D01*
X121692400Y-92928738D01*
X121670263Y-92969848D01*
X121620239Y-92988900D01*
X121475346Y-92988900D01*
X121427008Y-92971307D01*
X121422172Y-92966874D01*
X121172926Y-92717628D01*
X121151186Y-92671008D01*
X121150900Y-92664454D01*
X121150900Y-92227524D01*
X121150457Y-92224510D01*
X121140998Y-92160258D01*
X121140147Y-92154476D01*
X121136948Y-92147961D01*
X121088355Y-92048988D01*
X121088354Y-92048987D01*
X121085617Y-92043412D01*
X121081223Y-92039025D01*
X121081221Y-92039023D01*
X121002453Y-91960393D01*
X121002452Y-91960392D01*
X120998052Y-91956000D01*
X120992468Y-91953271D01*
X120992466Y-91953269D01*
X120896720Y-91906468D01*
X120886894Y-91901665D01*
X120847986Y-91895989D01*
X120817179Y-91891494D01*
X120817174Y-91891494D01*
X120814476Y-91891100D01*
X120403047Y-91891100D01*
X120354709Y-91873507D01*
X120349873Y-91869074D01*
X120094561Y-91613762D01*
X120072821Y-91567142D01*
X120086135Y-91517455D01*
X120128272Y-91487950D01*
X120158786Y-91488525D01*
X120159106Y-91486335D01*
X120228821Y-91496506D01*
X120228826Y-91496506D01*
X120231524Y-91496900D01*
X120814476Y-91496900D01*
X120817192Y-91496500D01*
X120817195Y-91496500D01*
X120858862Y-91490366D01*
X120887524Y-91486147D01*
X120894869Y-91482541D01*
X120993012Y-91434355D01*
X120993013Y-91434354D01*
X120998588Y-91431617D01*
X121002975Y-91427223D01*
X121002977Y-91427221D01*
X121081607Y-91348453D01*
X121081608Y-91348452D01*
X121086000Y-91344052D01*
X121088729Y-91338468D01*
X121088731Y-91338466D01*
X121136238Y-91241276D01*
X121173272Y-91205575D01*
X121203799Y-91199100D01*
X126258900Y-91199100D01*
X126307238Y-91216693D01*
X126332958Y-91261242D01*
X126334100Y-91274300D01*
X126334100Y-92126800D01*
X126334700Y-92140557D01*
X126334768Y-92141340D01*
X126334769Y-92141348D01*
X126335459Y-92149231D01*
X126335842Y-92153615D01*
X126337077Y-92157531D01*
X126337077Y-92157533D01*
X126350458Y-92199972D01*
X126356396Y-92218807D01*
X126358447Y-92222359D01*
X126358448Y-92222362D01*
X126365032Y-92233766D01*
X126382116Y-92263356D01*
X126397905Y-92285904D01*
X126464859Y-92332785D01*
X126469487Y-92334469D01*
X126469490Y-92334471D01*
X126490821Y-92342234D01*
X126513197Y-92350378D01*
X126516428Y-92350948D01*
X126516429Y-92350948D01*
X126563970Y-92359331D01*
X126563976Y-92359332D01*
X126567200Y-92359900D01*
X133020800Y-92359900D01*
X133021571Y-92359866D01*
X133021588Y-92359866D01*
X133030247Y-92359488D01*
X133034557Y-92359300D01*
X133035340Y-92359232D01*
X133035348Y-92359231D01*
X133043522Y-92358516D01*
X133047615Y-92358158D01*
X133051531Y-92356923D01*
X133051533Y-92356923D01*
X133108894Y-92338838D01*
X133108896Y-92338837D01*
X133112807Y-92337604D01*
X133116359Y-92335553D01*
X133116362Y-92335552D01*
X133155922Y-92312712D01*
X133155924Y-92312711D01*
X133157356Y-92311884D01*
X133179904Y-92296095D01*
X133217852Y-92241899D01*
X133223960Y-92233176D01*
X133223961Y-92233174D01*
X133226785Y-92229141D01*
X133228469Y-92224513D01*
X133228471Y-92224510D01*
X133237401Y-92199972D01*
X133244378Y-92180803D01*
X133251335Y-92141348D01*
X133253331Y-92130030D01*
X133253332Y-92130024D01*
X133253900Y-92126800D01*
X133253900Y-89483200D01*
X133253300Y-89469443D01*
X133252158Y-89456385D01*
X133248788Y-89445695D01*
X133232838Y-89395106D01*
X133232837Y-89395104D01*
X133231604Y-89391193D01*
X133228312Y-89385490D01*
X133206712Y-89348078D01*
X133206711Y-89348076D01*
X133205884Y-89346644D01*
X133190095Y-89324096D01*
X133123141Y-89277215D01*
X133118513Y-89275531D01*
X133118510Y-89275529D01*
X133097179Y-89267766D01*
X133074803Y-89259622D01*
X133071572Y-89259052D01*
X133071571Y-89259052D01*
X133024030Y-89250669D01*
X133024024Y-89250668D01*
X133020800Y-89250100D01*
X126567200Y-89250100D01*
X126566429Y-89250134D01*
X126566412Y-89250134D01*
X126557753Y-89250512D01*
X126553443Y-89250700D01*
X126552660Y-89250768D01*
X126552652Y-89250769D01*
X126544478Y-89251484D01*
X126540385Y-89251842D01*
X126536469Y-89253077D01*
X126536467Y-89253077D01*
X126479106Y-89271162D01*
X126479104Y-89271163D01*
X126475193Y-89272396D01*
X126471641Y-89274447D01*
X126471638Y-89274448D01*
X126432078Y-89297288D01*
X126430644Y-89298116D01*
X126408096Y-89313905D01*
X126386124Y-89345285D01*
X126365658Y-89374514D01*
X126361215Y-89380859D01*
X126359531Y-89385487D01*
X126359529Y-89385490D01*
X126352992Y-89403451D01*
X126343622Y-89429197D01*
X126343052Y-89432428D01*
X126343052Y-89432429D01*
X126334669Y-89479970D01*
X126334668Y-89479976D01*
X126334100Y-89483200D01*
X126334100Y-90538700D01*
X126316507Y-90587038D01*
X126271958Y-90612758D01*
X126258900Y-90613900D01*
X121203902Y-90613900D01*
X121155564Y-90596307D01*
X121136399Y-90571842D01*
X121102042Y-90501866D01*
X121085617Y-90468412D01*
X121081223Y-90464025D01*
X121081221Y-90464023D01*
X121002453Y-90385393D01*
X121002452Y-90385392D01*
X120998052Y-90381000D01*
X120992468Y-90378271D01*
X120992466Y-90378269D01*
X120897403Y-90331802D01*
X120886894Y-90326665D01*
X120847986Y-90320989D01*
X120817179Y-90316494D01*
X120817174Y-90316494D01*
X120814476Y-90316100D01*
X120231524Y-90316100D01*
X120228808Y-90316500D01*
X120228805Y-90316500D01*
X120187138Y-90322634D01*
X120158476Y-90326853D01*
X120153232Y-90329428D01*
X120153231Y-90329428D01*
X120054907Y-90377703D01*
X120021765Y-90385400D01*
X119246450Y-90385400D01*
X119213426Y-90377761D01*
X119119403Y-90331802D01*
X119108894Y-90326665D01*
X119069986Y-90320989D01*
X119039179Y-90316494D01*
X119039174Y-90316494D01*
X119036476Y-90316100D01*
X118453524Y-90316100D01*
X118450808Y-90316500D01*
X118450805Y-90316500D01*
X118409138Y-90322634D01*
X118380476Y-90326853D01*
X118375232Y-90329428D01*
X118375231Y-90329428D01*
X118276907Y-90377703D01*
X118243765Y-90385400D01*
X117273930Y-90385400D01*
X117225592Y-90367807D01*
X117211404Y-90351980D01*
X117208558Y-90347721D01*
X117199234Y-90333766D01*
X117154818Y-90304088D01*
X117154816Y-90304086D01*
X117148658Y-90299972D01*
X117104057Y-90291100D01*
X116589070Y-90291100D01*
X116073944Y-90291101D01*
X116029342Y-90299972D01*
X115978766Y-90333766D01*
X115974652Y-90339923D01*
X115956578Y-90366973D01*
X115944972Y-90384342D01*
X115943527Y-90391605D01*
X115940692Y-90398450D01*
X115939399Y-90397915D01*
X115916985Y-90434849D01*
X115869918Y-90451400D01*
X115862604Y-90451400D01*
X115857441Y-90451021D01*
X115853085Y-90449525D01*
X115846152Y-90449785D01*
X115846150Y-90449785D01*
X115804550Y-90451347D01*
X115801729Y-90451400D01*
X115782389Y-90451400D01*
X115778991Y-90452033D01*
X115776047Y-90452305D01*
X115771953Y-90452571D01*
X115769042Y-90452680D01*
X115744160Y-90453614D01*
X115731687Y-90458973D01*
X115715777Y-90463806D01*
X115709263Y-90465019D01*
X115709262Y-90465019D01*
X115702440Y-90466290D01*
X115696534Y-90469930D01*
X115696530Y-90469932D01*
X115679035Y-90480716D01*
X115669260Y-90485794D01*
X115644009Y-90496642D01*
X115639250Y-90500551D01*
X115633250Y-90506551D01*
X115619536Y-90517392D01*
X115609650Y-90523486D01*
X115598081Y-90538700D01*
X115591578Y-90547252D01*
X115584893Y-90554908D01*
X115400579Y-90739222D01*
X115396661Y-90742604D01*
X115392523Y-90744627D01*
X115387802Y-90749716D01*
X115387801Y-90749717D01*
X115359490Y-90780237D01*
X115357532Y-90782269D01*
X115343859Y-90795942D01*
X115341900Y-90798798D01*
X115340001Y-90801083D01*
X115337299Y-90804159D01*
X115318393Y-90824540D01*
X115313363Y-90837148D01*
X115305530Y-90851816D01*
X115297856Y-90863003D01*
X115296254Y-90869756D01*
X115296253Y-90869757D01*
X115291509Y-90889749D01*
X115288187Y-90900251D01*
X115279969Y-90920850D01*
X115278001Y-90925783D01*
X115277400Y-90931912D01*
X115277400Y-90940398D01*
X115275368Y-90957762D01*
X115272687Y-90969059D01*
X115273623Y-90975937D01*
X115273623Y-90975938D01*
X115276713Y-90998641D01*
X115277400Y-91008782D01*
X115277400Y-93553325D01*
X115259807Y-93601663D01*
X115216678Y-93625753D01*
X115216838Y-93626268D01*
X115214401Y-93627025D01*
X115213152Y-93627723D01*
X115205476Y-93628853D01*
X115200232Y-93631428D01*
X115200231Y-93631428D01*
X115099988Y-93680645D01*
X115099987Y-93680646D01*
X115094412Y-93683383D01*
X115090025Y-93687777D01*
X115090023Y-93687779D01*
X115016659Y-93761272D01*
X115007000Y-93770948D01*
X115004271Y-93776532D01*
X115004269Y-93776534D01*
X114992143Y-93801342D01*
X114952665Y-93882106D01*
X114948741Y-93909006D01*
X114942497Y-93951805D01*
X114942100Y-93954524D01*
X114942100Y-94462476D01*
X114419900Y-94462476D01*
X114419900Y-93954524D01*
X114409147Y-93881476D01*
X114406572Y-93876231D01*
X114357355Y-93775988D01*
X114357354Y-93775987D01*
X114354617Y-93770412D01*
X114350223Y-93766025D01*
X114350221Y-93766023D01*
X114271453Y-93687393D01*
X114271452Y-93687392D01*
X114267052Y-93683000D01*
X114261468Y-93680271D01*
X114261466Y-93680269D01*
X114168490Y-93634822D01*
X114155894Y-93628665D01*
X114145941Y-93627213D01*
X114100651Y-93602824D01*
X114081600Y-93552801D01*
X114081600Y-93172099D01*
X114099193Y-93123761D01*
X114143742Y-93098041D01*
X114156800Y-93096899D01*
X114304056Y-93096899D01*
X114348658Y-93088028D01*
X114399234Y-93054234D01*
X114406577Y-93043245D01*
X114428913Y-93009817D01*
X114428914Y-93009816D01*
X114433028Y-93003658D01*
X114436531Y-92986046D01*
X114441179Y-92962682D01*
X114441179Y-92962681D01*
X114441900Y-92959057D01*
X114441899Y-92328944D01*
X114433028Y-92284342D01*
X114399234Y-92233766D01*
X114393077Y-92229652D01*
X114387839Y-92224414D01*
X114389470Y-92222783D01*
X114365464Y-92190039D01*
X114368831Y-92138710D01*
X114388967Y-92114714D01*
X114387839Y-92113586D01*
X114393077Y-92108348D01*
X114399234Y-92104234D01*
X114433028Y-92053658D01*
X114441900Y-92009057D01*
X114441899Y-91378944D01*
X114433028Y-91334342D01*
X114399234Y-91283766D01*
X114393077Y-91279652D01*
X114387839Y-91274414D01*
X114389470Y-91272783D01*
X114365464Y-91240039D01*
X114368831Y-91188710D01*
X114388967Y-91164714D01*
X114387839Y-91163586D01*
X114393077Y-91158348D01*
X114399234Y-91154234D01*
X114433028Y-91103658D01*
X114441900Y-91059057D01*
X114441899Y-90727048D01*
X114459492Y-90678711D01*
X114463925Y-90673874D01*
X115669173Y-89468626D01*
X115715793Y-89446886D01*
X115722347Y-89446600D01*
X119707997Y-89446600D01*
X119713158Y-89446979D01*
X119717516Y-89448475D01*
X119766039Y-89446653D01*
X119768862Y-89446600D01*
X119788211Y-89446600D01*
X119791614Y-89445966D01*
X119794553Y-89445695D01*
X119798645Y-89445429D01*
X119819500Y-89444646D01*
X119819502Y-89444646D01*
X119826441Y-89444385D01*
X119838902Y-89439031D01*
X119854821Y-89434194D01*
X119855281Y-89434108D01*
X119868160Y-89431710D01*
X119874069Y-89428067D01*
X119874073Y-89428066D01*
X119886260Y-89420553D01*
X119891565Y-89417283D01*
X119901331Y-89412210D01*
X119926592Y-89401357D01*
X119931351Y-89397448D01*
X119937350Y-89391449D01*
X119951065Y-89380607D01*
X119960950Y-89374514D01*
X119979022Y-89350748D01*
X119985707Y-89343092D01*
X120692421Y-88636378D01*
X120696339Y-88632996D01*
X120700477Y-88630973D01*
X120733511Y-88595362D01*
X120735468Y-88593331D01*
X120749141Y-88579658D01*
X120751100Y-88576802D01*
X120752999Y-88574517D01*
X120755701Y-88571441D01*
X120769885Y-88556150D01*
X120774607Y-88551060D01*
X120779637Y-88538452D01*
X120787470Y-88523784D01*
X120791217Y-88518322D01*
X120791217Y-88518321D01*
X120795144Y-88512597D01*
X120801491Y-88485851D01*
X120804813Y-88475349D01*
X120813031Y-88454750D01*
X120813031Y-88454749D01*
X120814999Y-88449817D01*
X120815600Y-88443688D01*
X120815600Y-88435202D01*
X120817632Y-88417838D01*
X120818710Y-88413295D01*
X120820313Y-88406541D01*
X120816287Y-88376958D01*
X120815600Y-88366817D01*
X120815600Y-88244100D01*
X120833193Y-88195762D01*
X120877742Y-88170042D01*
X120890800Y-88168900D01*
X130480800Y-88168900D01*
X130481571Y-88168866D01*
X130481588Y-88168866D01*
X130490247Y-88168488D01*
X130494557Y-88168300D01*
X130495340Y-88168232D01*
X130495348Y-88168231D01*
X130503522Y-88167516D01*
X130507615Y-88167158D01*
X130511531Y-88165923D01*
X130511533Y-88165923D01*
X130568894Y-88147838D01*
X130568896Y-88147837D01*
X130572807Y-88146604D01*
X130576359Y-88144553D01*
X130576362Y-88144552D01*
X130615922Y-88121712D01*
X130615924Y-88121711D01*
X130617356Y-88120884D01*
X130639904Y-88105095D01*
X130686785Y-88038141D01*
X130688469Y-88033513D01*
X130688471Y-88033510D01*
X130703254Y-87992890D01*
X130704378Y-87989803D01*
X130711335Y-87950348D01*
X130713331Y-87939030D01*
X130713332Y-87939024D01*
X130713900Y-87935800D01*
X130713900Y-83895200D01*
X130713300Y-83881443D01*
X130712158Y-83868385D01*
X130691604Y-83803193D01*
X130676290Y-83776667D01*
X130666712Y-83760078D01*
X130666711Y-83760076D01*
X130665884Y-83758644D01*
X130650095Y-83736096D01*
X130583141Y-83689215D01*
X130578513Y-83687531D01*
X130578510Y-83687529D01*
X130557179Y-83679766D01*
X130534803Y-83671622D01*
X130531572Y-83671052D01*
X130531571Y-83671052D01*
X130484030Y-83662669D01*
X130484024Y-83662668D01*
X130480800Y-83662100D01*
X129145900Y-83662100D01*
X129097562Y-83644507D01*
X129071842Y-83599958D01*
X129070700Y-83586900D01*
X129070700Y-83251081D01*
X129088293Y-83202743D01*
X129092679Y-83197953D01*
X129092778Y-83197854D01*
X129138500Y-83152052D01*
X129141229Y-83146468D01*
X129141231Y-83146466D01*
X129186170Y-83054530D01*
X129192835Y-83040894D01*
X129201345Y-82982562D01*
X129203006Y-82971179D01*
X129203006Y-82971174D01*
X129203400Y-82968476D01*
X129203400Y-82385524D01*
X129201000Y-82369216D01*
X129194510Y-82325131D01*
X129192647Y-82312476D01*
X129190072Y-82307231D01*
X129140855Y-82206988D01*
X129140854Y-82206987D01*
X129138117Y-82201412D01*
X129133723Y-82197025D01*
X129133721Y-82197023D01*
X129054953Y-82118393D01*
X129054952Y-82118392D01*
X129050552Y-82114000D01*
X129044968Y-82111271D01*
X129044966Y-82111269D01*
X128967689Y-82073496D01*
X128939394Y-82059665D01*
X128898623Y-82053717D01*
X128869679Y-82049494D01*
X128869674Y-82049494D01*
X128866976Y-82049100D01*
X128359024Y-82049100D01*
X128356308Y-82049500D01*
X128356305Y-82049500D01*
X128327659Y-82053717D01*
X128285976Y-82059853D01*
X128280732Y-82062428D01*
X128280731Y-82062428D01*
X128180488Y-82111645D01*
X128180487Y-82111646D01*
X128174912Y-82114383D01*
X128170525Y-82118777D01*
X128170523Y-82118779D01*
X128095895Y-82193538D01*
X128087500Y-82201948D01*
X128084771Y-82207532D01*
X128084769Y-82207534D01*
X128052255Y-82274052D01*
X128033165Y-82313106D01*
X128032323Y-82318880D01*
X128022997Y-82382805D01*
X128022600Y-82385524D01*
X128022600Y-82968476D01*
X128023000Y-82971192D01*
X128023000Y-82971195D01*
X128024716Y-82982850D01*
X128033353Y-83041524D01*
X128035928Y-83046768D01*
X128035928Y-83046769D01*
X128084449Y-83145593D01*
X128087883Y-83152588D01*
X128092277Y-83156975D01*
X128092279Y-83156977D01*
X128133228Y-83197854D01*
X128155008Y-83244456D01*
X128155300Y-83251075D01*
X128155300Y-83586900D01*
X128137707Y-83635238D01*
X128093158Y-83660958D01*
X128080100Y-83662100D01*
X124816225Y-83662100D01*
X124767887Y-83644507D01*
X124742167Y-83599958D01*
X124747446Y-83556494D01*
X124755595Y-83538061D01*
X124757882Y-83532889D01*
X124760900Y-83507004D01*
X124760900Y-83116996D01*
X124757758Y-83090588D01*
X124711952Y-82987464D01*
X124690130Y-82965680D01*
X126448101Y-82965680D01*
X126448502Y-82971150D01*
X126457988Y-83035598D01*
X126461414Y-83046623D01*
X126510557Y-83146715D01*
X126517691Y-83156681D01*
X126596344Y-83235197D01*
X126606326Y-83242317D01*
X126706510Y-83291288D01*
X126717524Y-83294692D01*
X126770877Y-83302476D01*
X126781464Y-83300283D01*
X126784000Y-83297072D01*
X126784000Y-83291129D01*
X127292000Y-83291129D01*
X127295697Y-83301286D01*
X127299227Y-83303324D01*
X127359098Y-83294512D01*
X127370123Y-83291086D01*
X127470215Y-83241943D01*
X127480181Y-83234809D01*
X127558697Y-83156156D01*
X127565817Y-83146174D01*
X127614786Y-83045995D01*
X127618193Y-83034971D01*
X127627505Y-82971134D01*
X127627900Y-82965698D01*
X127627900Y-82944259D01*
X127624203Y-82934102D01*
X127618831Y-82931000D01*
X127305259Y-82931000D01*
X127295102Y-82934697D01*
X127292000Y-82940069D01*
X127292000Y-83291129D01*
X126784000Y-83291129D01*
X126784000Y-82944259D01*
X126780303Y-82934102D01*
X126774931Y-82931000D01*
X126461360Y-82931000D01*
X126451203Y-82934697D01*
X126448101Y-82940069D01*
X126448101Y-82965680D01*
X124690130Y-82965680D01*
X124637738Y-82913379D01*
X124637007Y-82912649D01*
X124637006Y-82912648D01*
X124632093Y-82907744D01*
X124625743Y-82904937D01*
X124625742Y-82904936D01*
X124543707Y-82868669D01*
X124528889Y-82862118D01*
X124519804Y-82861059D01*
X124505166Y-82859352D01*
X124505165Y-82859352D01*
X124503004Y-82859100D01*
X122762996Y-82859100D01*
X122760789Y-82859363D01*
X122760782Y-82859363D01*
X122742191Y-82861575D01*
X122742189Y-82861576D01*
X122736588Y-82862242D01*
X122633464Y-82908048D01*
X122601499Y-82940069D01*
X122559080Y-82982562D01*
X122553744Y-82987907D01*
X122550937Y-82994257D01*
X122550936Y-82994258D01*
X122523632Y-83056019D01*
X122508118Y-83091111D01*
X122507956Y-83092501D01*
X122479339Y-83132990D01*
X122436478Y-83146400D01*
X121338003Y-83146400D01*
X121332840Y-83146021D01*
X121328484Y-83144525D01*
X121321551Y-83144785D01*
X121321549Y-83144785D01*
X121279949Y-83146347D01*
X121277128Y-83146400D01*
X121257789Y-83146400D01*
X121254391Y-83147033D01*
X121251447Y-83147305D01*
X121247353Y-83147571D01*
X121243786Y-83147705D01*
X121219560Y-83148614D01*
X121207092Y-83153971D01*
X121191174Y-83158807D01*
X121177840Y-83161290D01*
X121171930Y-83164933D01*
X121154438Y-83175715D01*
X121144665Y-83180792D01*
X121119409Y-83191643D01*
X121114650Y-83195551D01*
X121108650Y-83201551D01*
X121094936Y-83212392D01*
X121085050Y-83218486D01*
X121072638Y-83234809D01*
X121066978Y-83242252D01*
X121060293Y-83249908D01*
X120555274Y-83754927D01*
X120508654Y-83776667D01*
X120458967Y-83763353D01*
X120429462Y-83721216D01*
X120426900Y-83701753D01*
X120426900Y-82498200D01*
X120426682Y-82493186D01*
X120426334Y-82485226D01*
X120426300Y-82484443D01*
X120425158Y-82471385D01*
X120408925Y-82419898D01*
X120405838Y-82410106D01*
X120405837Y-82410104D01*
X120405723Y-82409741D01*
X126448100Y-82409741D01*
X126451797Y-82419898D01*
X126457169Y-82423000D01*
X126770741Y-82423000D01*
X126780898Y-82419303D01*
X126784000Y-82413931D01*
X126784000Y-82409741D01*
X127292000Y-82409741D01*
X127295697Y-82419898D01*
X127301069Y-82423000D01*
X127614640Y-82423000D01*
X127624797Y-82419303D01*
X127627899Y-82413931D01*
X127627899Y-82388320D01*
X127627498Y-82382850D01*
X127618012Y-82318402D01*
X127614586Y-82307377D01*
X127565443Y-82207285D01*
X127558309Y-82197319D01*
X127479656Y-82118803D01*
X127469674Y-82111683D01*
X127369490Y-82062712D01*
X127358476Y-82059308D01*
X127305123Y-82051524D01*
X127294536Y-82053717D01*
X127292000Y-82056928D01*
X127292000Y-82409741D01*
X126784000Y-82409741D01*
X126784000Y-82062871D01*
X126780303Y-82052714D01*
X126776773Y-82050676D01*
X126716902Y-82059488D01*
X126705877Y-82062914D01*
X126605785Y-82112057D01*
X126595819Y-82119191D01*
X126517303Y-82197844D01*
X126510183Y-82207826D01*
X126461214Y-82308005D01*
X126457807Y-82319029D01*
X126448495Y-82382866D01*
X126448100Y-82388302D01*
X126448100Y-82409741D01*
X120405723Y-82409741D01*
X120404604Y-82406193D01*
X120401312Y-82400490D01*
X120379712Y-82363078D01*
X120379711Y-82363076D01*
X120378884Y-82361644D01*
X120363095Y-82339096D01*
X120296141Y-82292215D01*
X120291513Y-82290531D01*
X120291510Y-82290529D01*
X120270179Y-82282766D01*
X120247803Y-82274622D01*
X120244572Y-82274052D01*
X120244571Y-82274052D01*
X120197030Y-82265669D01*
X120197024Y-82265668D01*
X120193800Y-82265100D01*
X112978200Y-82265100D01*
X112977429Y-82265134D01*
X112977412Y-82265134D01*
X112968753Y-82265512D01*
X112964443Y-82265700D01*
X112963660Y-82265768D01*
X112963652Y-82265769D01*
X112955478Y-82266484D01*
X112951385Y-82266842D01*
X112947469Y-82268077D01*
X112947467Y-82268077D01*
X112890106Y-82286162D01*
X112890104Y-82286163D01*
X112886193Y-82287396D01*
X112882641Y-82289447D01*
X112882638Y-82289448D01*
X112843078Y-82312288D01*
X112841644Y-82313116D01*
X112819096Y-82328905D01*
X112798951Y-82357676D01*
X112779452Y-82385524D01*
X112772215Y-82395859D01*
X112770531Y-82400487D01*
X112770529Y-82400490D01*
X112763682Y-82419303D01*
X112754622Y-82444197D01*
X112754052Y-82447428D01*
X112754052Y-82447429D01*
X112745669Y-82494970D01*
X112745668Y-82494976D01*
X112745100Y-82498200D01*
X112745100Y-87935800D01*
X112745700Y-87949557D01*
X112746842Y-87962615D01*
X112767396Y-88027807D01*
X112769447Y-88031359D01*
X112769448Y-88031362D01*
X112792288Y-88070922D01*
X112793116Y-88072356D01*
X112808905Y-88094904D01*
X112875859Y-88141785D01*
X112880487Y-88143469D01*
X112880490Y-88143471D01*
X112901821Y-88151234D01*
X112924197Y-88159378D01*
X112927428Y-88159948D01*
X112927429Y-88159948D01*
X112974970Y-88168331D01*
X112974976Y-88168332D01*
X112978200Y-88168900D01*
X120150753Y-88168900D01*
X120199091Y-88186493D01*
X120224811Y-88231042D01*
X120215878Y-88281700D01*
X120203927Y-88297274D01*
X119661827Y-88839374D01*
X119615207Y-88861114D01*
X119608653Y-88861400D01*
X115623004Y-88861400D01*
X115617841Y-88861021D01*
X115613485Y-88859525D01*
X115606552Y-88859785D01*
X115606550Y-88859785D01*
X115564950Y-88861347D01*
X115562129Y-88861400D01*
X115542789Y-88861400D01*
X115539391Y-88862033D01*
X115536447Y-88862305D01*
X115532353Y-88862571D01*
X115529442Y-88862680D01*
X115504560Y-88863614D01*
X115492087Y-88868973D01*
X115476177Y-88873806D01*
X115469663Y-88875019D01*
X115469662Y-88875019D01*
X115462840Y-88876290D01*
X115456934Y-88879930D01*
X115456930Y-88879932D01*
X115439435Y-88890716D01*
X115429660Y-88895794D01*
X115404409Y-88906642D01*
X115399650Y-88910551D01*
X115393650Y-88916551D01*
X115379936Y-88927392D01*
X115370050Y-88933486D01*
X115351978Y-88957252D01*
X115345293Y-88964908D01*
X114041127Y-90269074D01*
X113994507Y-90290814D01*
X113987953Y-90291100D01*
X113353004Y-90291101D01*
X113273944Y-90291101D01*
X113229342Y-90299972D01*
X113178766Y-90333766D01*
X113174652Y-90339923D01*
X113156578Y-90366973D01*
X113144972Y-90384342D01*
X113136100Y-90428943D01*
X113136101Y-91059056D01*
X113144972Y-91103658D01*
X113178766Y-91154234D01*
X113184923Y-91158348D01*
X113190161Y-91163586D01*
X113188530Y-91165217D01*
X113212536Y-91197961D01*
X113209169Y-91249290D01*
X113189033Y-91273286D01*
X113190161Y-91274414D01*
X113184923Y-91279652D01*
X113178766Y-91283766D01*
X113163342Y-91306850D01*
X113121858Y-91337266D01*
X113070529Y-91333901D01*
X113047642Y-91318244D01*
X112479116Y-90749717D01*
X111884126Y-90154727D01*
X111862386Y-90108107D01*
X111862100Y-90101553D01*
X111862100Y-87746503D01*
X111862479Y-87741342D01*
X111863975Y-87736984D01*
X111862153Y-87688460D01*
X111862100Y-87685638D01*
X111862100Y-87666289D01*
X111861466Y-87662886D01*
X111861195Y-87659947D01*
X111860929Y-87655855D01*
X111860146Y-87635000D01*
X111860146Y-87634998D01*
X111859885Y-87628059D01*
X111854531Y-87615598D01*
X111849694Y-87599679D01*
X111848481Y-87593167D01*
X111847210Y-87586340D01*
X111843567Y-87580431D01*
X111843566Y-87580427D01*
X111832785Y-87562939D01*
X111827710Y-87553169D01*
X111816857Y-87527908D01*
X111812948Y-87523149D01*
X111806949Y-87517150D01*
X111796107Y-87503435D01*
X111790014Y-87493550D01*
X111766248Y-87475478D01*
X111758592Y-87468793D01*
X111242378Y-86952579D01*
X111238996Y-86948661D01*
X111236973Y-86944523D01*
X111220425Y-86929172D01*
X111201363Y-86911490D01*
X111199331Y-86909532D01*
X111185658Y-86895859D01*
X111182802Y-86893900D01*
X111180517Y-86892001D01*
X111177441Y-86889299D01*
X111162150Y-86875115D01*
X111157060Y-86870393D01*
X111144452Y-86865363D01*
X111129784Y-86857530D01*
X111124322Y-86853783D01*
X111124321Y-86853783D01*
X111118597Y-86849856D01*
X111111844Y-86848254D01*
X111111843Y-86848253D01*
X111091851Y-86843509D01*
X111081349Y-86840187D01*
X111060750Y-86831969D01*
X111060749Y-86831969D01*
X111055817Y-86830001D01*
X111049688Y-86829400D01*
X111041202Y-86829400D01*
X111023838Y-86827368D01*
X111022713Y-86827101D01*
X111012541Y-86824687D01*
X111005663Y-86825623D01*
X111005662Y-86825623D01*
X110982959Y-86828713D01*
X110972818Y-86829400D01*
X110550923Y-86829400D01*
X110502585Y-86811807D01*
X110492287Y-86800469D01*
X110490952Y-86797464D01*
X110486039Y-86792560D01*
X110486038Y-86792558D01*
X110416007Y-86722649D01*
X110416006Y-86722648D01*
X110411093Y-86717744D01*
X110404743Y-86714937D01*
X110404742Y-86714936D01*
X110348172Y-86689927D01*
X110307889Y-86672118D01*
X110284260Y-86669363D01*
X110284166Y-86669352D01*
X110284165Y-86669352D01*
X110282004Y-86669100D01*
X108541996Y-86669100D01*
X108539789Y-86669363D01*
X108539782Y-86669363D01*
X108521191Y-86671575D01*
X108521189Y-86671576D01*
X108515588Y-86672242D01*
X108412464Y-86718048D01*
X108407562Y-86722959D01*
X108338084Y-86792558D01*
X108332744Y-86797907D01*
X108329937Y-86804257D01*
X108329936Y-86804258D01*
X108310486Y-86848253D01*
X108287118Y-86901111D01*
X108284100Y-86926996D01*
X108284100Y-87317004D01*
X53353200Y-87317004D01*
X53353200Y-86109470D01*
X108305989Y-86109470D01*
X108306819Y-86116255D01*
X108330650Y-86169906D01*
X108338378Y-86181150D01*
X108408281Y-86250931D01*
X108419546Y-86258644D01*
X108511055Y-86299100D01*
X108521846Y-86302042D01*
X108539909Y-86304148D01*
X108544248Y-86304400D01*
X109144741Y-86304400D01*
X109154898Y-86300703D01*
X109158000Y-86295331D01*
X109158000Y-86291141D01*
X109666000Y-86291141D01*
X109669697Y-86301298D01*
X109675069Y-86304400D01*
X110279700Y-86304400D01*
X110284142Y-86304137D01*
X110302689Y-86301930D01*
X110313454Y-86298971D01*
X110404903Y-86258351D01*
X110416152Y-86250621D01*
X110485931Y-86180719D01*
X110493644Y-86169454D01*
X110516335Y-86118128D01*
X110517018Y-86107981D01*
X110510507Y-86106000D01*
X109679259Y-86106000D01*
X109669102Y-86109697D01*
X109666000Y-86115069D01*
X109666000Y-86291141D01*
X109158000Y-86291141D01*
X109158000Y-86119259D01*
X109154303Y-86109102D01*
X109148931Y-86106000D01*
X108315523Y-86106000D01*
X108305989Y-86109470D01*
X53353200Y-86109470D01*
X53353200Y-85596019D01*
X108306982Y-85596019D01*
X108313493Y-85598000D01*
X109144741Y-85598000D01*
X109154898Y-85594303D01*
X109158000Y-85588931D01*
X109158000Y-85584741D01*
X109666000Y-85584741D01*
X109669697Y-85594898D01*
X109675069Y-85598000D01*
X110508477Y-85598000D01*
X110518011Y-85594530D01*
X110517181Y-85587745D01*
X110493350Y-85534094D01*
X110485622Y-85522850D01*
X110415719Y-85453069D01*
X110404454Y-85445356D01*
X110312945Y-85404900D01*
X110302154Y-85401958D01*
X110284091Y-85399852D01*
X110279752Y-85399600D01*
X109679259Y-85399600D01*
X109669102Y-85403297D01*
X109666000Y-85408669D01*
X109666000Y-85584741D01*
X109158000Y-85584741D01*
X109158000Y-85412859D01*
X109154303Y-85402702D01*
X109148931Y-85399600D01*
X108544300Y-85399600D01*
X108539858Y-85399863D01*
X108521311Y-85402070D01*
X108510546Y-85405029D01*
X108419097Y-85445649D01*
X108407848Y-85453379D01*
X108338069Y-85523281D01*
X108330356Y-85534546D01*
X108307665Y-85585872D01*
X108306982Y-85596019D01*
X53353200Y-85596019D01*
X53353200Y-84839470D01*
X108305989Y-84839470D01*
X108306819Y-84846255D01*
X108330650Y-84899906D01*
X108338378Y-84911150D01*
X108408281Y-84980931D01*
X108419546Y-84988644D01*
X108511055Y-85029100D01*
X108521846Y-85032042D01*
X108539909Y-85034148D01*
X108544248Y-85034400D01*
X109144741Y-85034400D01*
X109154898Y-85030703D01*
X109158000Y-85025331D01*
X109158000Y-85021141D01*
X109666000Y-85021141D01*
X109669697Y-85031298D01*
X109675069Y-85034400D01*
X110279700Y-85034400D01*
X110284142Y-85034137D01*
X110302689Y-85031930D01*
X110313454Y-85028971D01*
X110404903Y-84988351D01*
X110416152Y-84980621D01*
X110485931Y-84910719D01*
X110493644Y-84899454D01*
X110516335Y-84848128D01*
X110517018Y-84837981D01*
X110510507Y-84836000D01*
X109679259Y-84836000D01*
X109669102Y-84839697D01*
X109666000Y-84845069D01*
X109666000Y-85021141D01*
X109158000Y-85021141D01*
X109158000Y-84849259D01*
X109154303Y-84839102D01*
X109148931Y-84836000D01*
X108315523Y-84836000D01*
X108305989Y-84839470D01*
X53353200Y-84839470D01*
X53353200Y-84326019D01*
X108306982Y-84326019D01*
X108313493Y-84328000D01*
X109144741Y-84328000D01*
X109154898Y-84324303D01*
X109158000Y-84318931D01*
X109158000Y-84314741D01*
X109666000Y-84314741D01*
X109669697Y-84324898D01*
X109675069Y-84328000D01*
X110508477Y-84328000D01*
X110518011Y-84324530D01*
X110517181Y-84317745D01*
X110493350Y-84264094D01*
X110485622Y-84252850D01*
X110415719Y-84183069D01*
X110404454Y-84175356D01*
X110312945Y-84134900D01*
X110302154Y-84131958D01*
X110284091Y-84129852D01*
X110279752Y-84129600D01*
X109679259Y-84129600D01*
X109669102Y-84133297D01*
X109666000Y-84138669D01*
X109666000Y-84314741D01*
X109158000Y-84314741D01*
X109158000Y-84142859D01*
X109154303Y-84132702D01*
X109148931Y-84129600D01*
X108544300Y-84129600D01*
X108539858Y-84129863D01*
X108521311Y-84132070D01*
X108510546Y-84135029D01*
X108419097Y-84175649D01*
X108407848Y-84183379D01*
X108338069Y-84253281D01*
X108330356Y-84264546D01*
X108307665Y-84315872D01*
X108306982Y-84326019D01*
X53353200Y-84326019D01*
X53353200Y-83569470D01*
X108305989Y-83569470D01*
X108306819Y-83576255D01*
X108330650Y-83629906D01*
X108338378Y-83641150D01*
X108408281Y-83710931D01*
X108419546Y-83718644D01*
X108511055Y-83759100D01*
X108521846Y-83762042D01*
X108539909Y-83764148D01*
X108544248Y-83764400D01*
X109144741Y-83764400D01*
X109154898Y-83760703D01*
X109158000Y-83755331D01*
X109158000Y-83751141D01*
X109666000Y-83751141D01*
X109669697Y-83761298D01*
X109675069Y-83764400D01*
X110279700Y-83764400D01*
X110284142Y-83764137D01*
X110302689Y-83761930D01*
X110313454Y-83758971D01*
X110404903Y-83718351D01*
X110416152Y-83710621D01*
X110485931Y-83640719D01*
X110493644Y-83629454D01*
X110516335Y-83578128D01*
X110517018Y-83567981D01*
X110510507Y-83566000D01*
X109679259Y-83566000D01*
X109669102Y-83569697D01*
X109666000Y-83575069D01*
X109666000Y-83751141D01*
X109158000Y-83751141D01*
X109158000Y-83579259D01*
X109154303Y-83569102D01*
X109148931Y-83566000D01*
X108315523Y-83566000D01*
X108305989Y-83569470D01*
X53353200Y-83569470D01*
X53353200Y-83056019D01*
X108306982Y-83056019D01*
X108313493Y-83058000D01*
X109144741Y-83058000D01*
X109154898Y-83054303D01*
X109158000Y-83048931D01*
X109158000Y-83044741D01*
X109666000Y-83044741D01*
X109669697Y-83054898D01*
X109675069Y-83058000D01*
X110508477Y-83058000D01*
X110518011Y-83054530D01*
X110517181Y-83047745D01*
X110493350Y-82994094D01*
X110485622Y-82982850D01*
X110415719Y-82913069D01*
X110404454Y-82905356D01*
X110312945Y-82864900D01*
X110302154Y-82861958D01*
X110284091Y-82859852D01*
X110279752Y-82859600D01*
X109679259Y-82859600D01*
X109669102Y-82863297D01*
X109666000Y-82868669D01*
X109666000Y-83044741D01*
X109158000Y-83044741D01*
X109158000Y-82872859D01*
X109154303Y-82862702D01*
X109148931Y-82859600D01*
X108544300Y-82859600D01*
X108539858Y-82859863D01*
X108521311Y-82862070D01*
X108510546Y-82865029D01*
X108419097Y-82905649D01*
X108407848Y-82913379D01*
X108338069Y-82983281D01*
X108330356Y-82994546D01*
X108307665Y-83045872D01*
X108306982Y-83056019D01*
X53353200Y-83056019D01*
X53353200Y-80702000D01*
X71416147Y-80702000D01*
X71416481Y-80704535D01*
X71416481Y-80704539D01*
X71444941Y-80920719D01*
X71453529Y-80985949D01*
X71454201Y-80988407D01*
X71454202Y-80988410D01*
X71497973Y-81148408D01*
X71529102Y-81262198D01*
X71549678Y-81310438D01*
X71599968Y-81428339D01*
X71641468Y-81525635D01*
X71788546Y-81771385D01*
X71967615Y-81994900D01*
X72039074Y-82062712D01*
X72093524Y-82114383D01*
X72175362Y-82192045D01*
X72196917Y-82207534D01*
X72387507Y-82344486D01*
X72407943Y-82359171D01*
X72485981Y-82400490D01*
X72658782Y-82491984D01*
X72658787Y-82491986D01*
X72661053Y-82493186D01*
X72930010Y-82591610D01*
X73137462Y-82636842D01*
X73207331Y-82652076D01*
X73207334Y-82652076D01*
X73209836Y-82652622D01*
X73334544Y-82662437D01*
X73432975Y-82670184D01*
X73432983Y-82670184D01*
X73434453Y-82670300D01*
X73589392Y-82670300D01*
X73803137Y-82655728D01*
X73805642Y-82655209D01*
X73805644Y-82655209D01*
X73904465Y-82634744D01*
X74083586Y-82597650D01*
X74099103Y-82592155D01*
X74351147Y-82502902D01*
X74351150Y-82502901D01*
X74353558Y-82502048D01*
X74359468Y-82498998D01*
X74605778Y-82371868D01*
X74605780Y-82371867D01*
X74608058Y-82370691D01*
X74626577Y-82357676D01*
X74728330Y-82286162D01*
X74842376Y-82206009D01*
X75052176Y-82011051D01*
X75063954Y-81996662D01*
X75231958Y-81791401D01*
X75233577Y-81789423D01*
X75383220Y-81545227D01*
X75391097Y-81527283D01*
X75497309Y-81285327D01*
X75497311Y-81285322D01*
X75498338Y-81282982D01*
X75576800Y-81007539D01*
X75611351Y-80764772D01*
X75616794Y-80726526D01*
X75616794Y-80726525D01*
X75617154Y-80723996D01*
X75617999Y-80562536D01*
X136006915Y-80562536D01*
X136025320Y-80764772D01*
X136082656Y-80959582D01*
X136176738Y-81139545D01*
X136188751Y-81154486D01*
X136275354Y-81262198D01*
X136303984Y-81297807D01*
X136459546Y-81428339D01*
X136462768Y-81430110D01*
X136462769Y-81430111D01*
X136477459Y-81438187D01*
X136637500Y-81526170D01*
X136831066Y-81587572D01*
X136898687Y-81595157D01*
X136987010Y-81605065D01*
X136987018Y-81605065D01*
X136989109Y-81605300D01*
X137098497Y-81605300D01*
X137100320Y-81605121D01*
X137100325Y-81605121D01*
X137245836Y-81590854D01*
X137245841Y-81590853D01*
X137249503Y-81590494D01*
X137443908Y-81531799D01*
X137623209Y-81436463D01*
X137780579Y-81308115D01*
X137782921Y-81305284D01*
X137782925Y-81305280D01*
X137852326Y-81221388D01*
X137910022Y-81151646D01*
X137915017Y-81142409D01*
X137941668Y-81093118D01*
X138006608Y-80973014D01*
X138066658Y-80779024D01*
X138087885Y-80577064D01*
X138069480Y-80374828D01*
X138012144Y-80180018D01*
X137918062Y-80000055D01*
X137821432Y-79879872D01*
X137793119Y-79844657D01*
X137793117Y-79844655D01*
X137790816Y-79841793D01*
X137635254Y-79711261D01*
X137624699Y-79705458D01*
X137460527Y-79615204D01*
X137457300Y-79613430D01*
X137263734Y-79552028D01*
X137196113Y-79544443D01*
X137107790Y-79534535D01*
X137107782Y-79534535D01*
X137105691Y-79534300D01*
X136996303Y-79534300D01*
X136994480Y-79534479D01*
X136994475Y-79534479D01*
X136848964Y-79548746D01*
X136848959Y-79548747D01*
X136845297Y-79549106D01*
X136650892Y-79607801D01*
X136471591Y-79703137D01*
X136314221Y-79831485D01*
X136311879Y-79834316D01*
X136311875Y-79834320D01*
X136242474Y-79918212D01*
X136184778Y-79987954D01*
X136183028Y-79991190D01*
X136183027Y-79991192D01*
X136153132Y-80046482D01*
X136088192Y-80166586D01*
X136028142Y-80360576D01*
X136006915Y-80562536D01*
X75617999Y-80562536D01*
X75618653Y-80437600D01*
X75609925Y-80371299D01*
X75581604Y-80156181D01*
X75581271Y-80153651D01*
X75580598Y-80151190D01*
X75506374Y-79879872D01*
X75506373Y-79879868D01*
X75505698Y-79877402D01*
X75435840Y-79713623D01*
X75394333Y-79616311D01*
X75394331Y-79616307D01*
X75393332Y-79613965D01*
X75246254Y-79368215D01*
X75067185Y-79144700D01*
X74859438Y-78947555D01*
X74776238Y-78887770D01*
X74628938Y-78781924D01*
X74628934Y-78781922D01*
X74626857Y-78780429D01*
X74438670Y-78680789D01*
X74376018Y-78647616D01*
X74376013Y-78647614D01*
X74373747Y-78646414D01*
X74104790Y-78547990D01*
X73845681Y-78491495D01*
X73827469Y-78487524D01*
X73827466Y-78487524D01*
X73824964Y-78486978D01*
X73700256Y-78477163D01*
X73601825Y-78469416D01*
X73601817Y-78469416D01*
X73600347Y-78469300D01*
X73445408Y-78469300D01*
X73231663Y-78483872D01*
X73229158Y-78484391D01*
X73229156Y-78484391D01*
X73179719Y-78494629D01*
X72951214Y-78541950D01*
X72948808Y-78542802D01*
X72683653Y-78636698D01*
X72683650Y-78636699D01*
X72681242Y-78637552D01*
X72678970Y-78638725D01*
X72678967Y-78638726D01*
X72591407Y-78683919D01*
X72426742Y-78768909D01*
X72424645Y-78770383D01*
X72424643Y-78770384D01*
X72333481Y-78834454D01*
X72192424Y-78933591D01*
X71982624Y-79128549D01*
X71981002Y-79130531D01*
X71980998Y-79130535D01*
X71810265Y-79339130D01*
X71801223Y-79350177D01*
X71651580Y-79594373D01*
X71650555Y-79596709D01*
X71650553Y-79596712D01*
X71541713Y-79844657D01*
X71536462Y-79856618D01*
X71458000Y-80132061D01*
X71425977Y-80357064D01*
X71422929Y-80378487D01*
X71417646Y-80415604D01*
X71416147Y-80702000D01*
X53353200Y-80702000D01*
X53353200Y-78074691D01*
X57008558Y-78074691D01*
X57008783Y-78078125D01*
X57008783Y-78078128D01*
X57010690Y-78107217D01*
X57022416Y-78286126D01*
X57074573Y-78491495D01*
X57163282Y-78683919D01*
X57285572Y-78856956D01*
X57437348Y-79004810D01*
X57440208Y-79006721D01*
X57610666Y-79120618D01*
X57610671Y-79120621D01*
X57613527Y-79122529D01*
X57616689Y-79123888D01*
X57616690Y-79123888D01*
X57805039Y-79204809D01*
X57805044Y-79204811D01*
X57808208Y-79206170D01*
X57811564Y-79206929D01*
X57811569Y-79206931D01*
X58011512Y-79252174D01*
X58011515Y-79252174D01*
X58014872Y-79252934D01*
X58126956Y-79257337D01*
X58223153Y-79261117D01*
X58223156Y-79261117D01*
X58226597Y-79261252D01*
X58230002Y-79260758D01*
X58230007Y-79260758D01*
X58380627Y-79238919D01*
X58436292Y-79230848D01*
X58513001Y-79204809D01*
X58633673Y-79163847D01*
X58633676Y-79163845D01*
X58636936Y-79162739D01*
X58821807Y-79059205D01*
X58984716Y-78923716D01*
X59120205Y-78760807D01*
X59223739Y-78575936D01*
X59233226Y-78547990D01*
X59290738Y-78378562D01*
X59291848Y-78375292D01*
X59322252Y-78165597D01*
X59323839Y-78105000D01*
X59304451Y-77894001D01*
X59246936Y-77690068D01*
X59231550Y-77658867D01*
X59154745Y-77503124D01*
X59153220Y-77500031D01*
X59026442Y-77330254D01*
X58870848Y-77186425D01*
X58845709Y-77170563D01*
X58799172Y-77141201D01*
X58691648Y-77073358D01*
X58566405Y-77023391D01*
X58498053Y-76996121D01*
X58498050Y-76996120D01*
X58494844Y-76994841D01*
X58491463Y-76994168D01*
X58491458Y-76994167D01*
X58290410Y-76954177D01*
X58290411Y-76954177D01*
X58287027Y-76953504D01*
X58151939Y-76951735D01*
X58078599Y-76950775D01*
X58078598Y-76950775D01*
X58075157Y-76950730D01*
X58071765Y-76951313D01*
X58071763Y-76951313D01*
X57869721Y-76986030D01*
X57869719Y-76986030D01*
X57866329Y-76986613D01*
X57667537Y-77059952D01*
X57485439Y-77168289D01*
X57326133Y-77307996D01*
X57323999Y-77310702D01*
X57323997Y-77310705D01*
X57284466Y-77360851D01*
X57194955Y-77474396D01*
X57193352Y-77477444D01*
X57193350Y-77477446D01*
X57159468Y-77541845D01*
X57096296Y-77661914D01*
X57095276Y-77665199D01*
X57037056Y-77852702D01*
X57033463Y-77864272D01*
X57033058Y-77867692D01*
X57033058Y-77867693D01*
X57031399Y-77881707D01*
X57008558Y-78074691D01*
X53353200Y-78074691D01*
X53353200Y-76818293D01*
X76747100Y-76818293D01*
X76747101Y-77881706D01*
X76762043Y-77976054D01*
X76764729Y-77981325D01*
X76764729Y-77981326D01*
X76784441Y-78020012D01*
X76819984Y-78089770D01*
X76910230Y-78180016D01*
X77023946Y-78237957D01*
X77029793Y-78238883D01*
X77115375Y-78252438D01*
X77115377Y-78252438D01*
X77118293Y-78252900D01*
X78599749Y-78252900D01*
X80081706Y-78252899D01*
X80150875Y-78241945D01*
X80170208Y-78238883D01*
X80170209Y-78238883D01*
X80176054Y-78237957D01*
X80289770Y-78180016D01*
X80380016Y-78089770D01*
X80437957Y-77976054D01*
X80452900Y-77881707D01*
X80452899Y-76818294D01*
X80437957Y-76723946D01*
X80421345Y-76691343D01*
X80382705Y-76615507D01*
X80382704Y-76615506D01*
X80380016Y-76610230D01*
X80289770Y-76519984D01*
X80176054Y-76462043D01*
X80145039Y-76457131D01*
X80084625Y-76447562D01*
X80084623Y-76447562D01*
X80081707Y-76447100D01*
X78600251Y-76447100D01*
X77118294Y-76447101D01*
X77049125Y-76458055D01*
X77029792Y-76461117D01*
X77029791Y-76461117D01*
X77023946Y-76462043D01*
X77018675Y-76464729D01*
X77018674Y-76464729D01*
X77014765Y-76466721D01*
X76910230Y-76519984D01*
X76819984Y-76610230D01*
X76817296Y-76615506D01*
X76817295Y-76615507D01*
X76813046Y-76623847D01*
X76762043Y-76723946D01*
X76747100Y-76818293D01*
X53353200Y-76818293D01*
X53353200Y-75278716D01*
X82447600Y-75278716D01*
X82448062Y-75284588D01*
X82461598Y-75370051D01*
X82465211Y-75381171D01*
X82517705Y-75484196D01*
X82524584Y-75493663D01*
X82606337Y-75575416D01*
X82615804Y-75582295D01*
X82718829Y-75634789D01*
X82729949Y-75638402D01*
X82815412Y-75651938D01*
X82821284Y-75652400D01*
X84082741Y-75652400D01*
X84092898Y-75648703D01*
X84096000Y-75643331D01*
X84096000Y-75639141D01*
X84604000Y-75639141D01*
X84607697Y-75649298D01*
X84613069Y-75652400D01*
X85878716Y-75652400D01*
X85884588Y-75651938D01*
X85970051Y-75638402D01*
X85981171Y-75634789D01*
X86084196Y-75582295D01*
X86093663Y-75575416D01*
X86175416Y-75493663D01*
X86182295Y-75484196D01*
X86234789Y-75381171D01*
X86238402Y-75370051D01*
X86251938Y-75284588D01*
X86252400Y-75278716D01*
X86252400Y-75267259D01*
X86248703Y-75257102D01*
X86243331Y-75254000D01*
X84617259Y-75254000D01*
X84607102Y-75257697D01*
X84604000Y-75263069D01*
X84604000Y-75639141D01*
X84096000Y-75639141D01*
X84096000Y-75267259D01*
X84092303Y-75257102D01*
X84086931Y-75254000D01*
X82460859Y-75254000D01*
X82450702Y-75257697D01*
X82447600Y-75263069D01*
X82447600Y-75278716D01*
X53353200Y-75278716D01*
X53353200Y-75251943D01*
X100768100Y-75251943D01*
X100768101Y-76132056D01*
X100776972Y-76176658D01*
X100810766Y-76227234D01*
X100816923Y-76231348D01*
X100855183Y-76256913D01*
X100855184Y-76256914D01*
X100861342Y-76261028D01*
X100905943Y-76269900D01*
X101345940Y-76269900D01*
X101786056Y-76269899D01*
X101830658Y-76261028D01*
X101881234Y-76227234D01*
X101915028Y-76176658D01*
X101923900Y-76132057D01*
X101923900Y-76051800D01*
X126616147Y-76051800D01*
X126616481Y-76054335D01*
X126616481Y-76054339D01*
X126638001Y-76217802D01*
X126653529Y-76335749D01*
X126654201Y-76338207D01*
X126654202Y-76338210D01*
X126721292Y-76583448D01*
X126729102Y-76611998D01*
X126775703Y-76721252D01*
X126818356Y-76821249D01*
X126841468Y-76875435D01*
X126988546Y-77121185D01*
X127167615Y-77344700D01*
X127375362Y-77541845D01*
X127458562Y-77601630D01*
X127581637Y-77690068D01*
X127607943Y-77708971D01*
X127714961Y-77765634D01*
X127858782Y-77841784D01*
X127858787Y-77841786D01*
X127861053Y-77842986D01*
X128130010Y-77941410D01*
X128288902Y-77976054D01*
X128407331Y-78001876D01*
X128407334Y-78001876D01*
X128409836Y-78002422D01*
X128534544Y-78012237D01*
X128632975Y-78019984D01*
X128632983Y-78019984D01*
X128634453Y-78020100D01*
X128789392Y-78020100D01*
X129003137Y-78005528D01*
X129005642Y-78005009D01*
X129005644Y-78005009D01*
X129104465Y-77984544D01*
X129283586Y-77947450D01*
X129299103Y-77941955D01*
X129551147Y-77852702D01*
X129551150Y-77852701D01*
X129553558Y-77851848D01*
X129808058Y-77720491D01*
X129826577Y-77707476D01*
X130040274Y-77557286D01*
X130042376Y-77555809D01*
X130252176Y-77360851D01*
X130263954Y-77346462D01*
X130431958Y-77141201D01*
X130433577Y-77139223D01*
X130583220Y-76895027D01*
X130590859Y-76877625D01*
X130697309Y-76635127D01*
X130697311Y-76635122D01*
X130698338Y-76632782D01*
X130724712Y-76540195D01*
X141451445Y-76540195D01*
X141452345Y-76543553D01*
X141452454Y-76543659D01*
X141507102Y-76580174D01*
X141513132Y-76583448D01*
X141701397Y-76664333D01*
X141707923Y-76666453D01*
X141907774Y-76711675D01*
X141914584Y-76712571D01*
X142119326Y-76720616D01*
X142126180Y-76720257D01*
X142328960Y-76690855D01*
X142335645Y-76689250D01*
X142529668Y-76623388D01*
X142535936Y-76620597D01*
X142667089Y-76547148D01*
X142674146Y-76538959D01*
X142674170Y-76537076D01*
X142672658Y-76534668D01*
X142071577Y-75933587D01*
X142061778Y-75929018D01*
X142055787Y-75930623D01*
X141456014Y-76530396D01*
X141451445Y-76540195D01*
X130724712Y-76540195D01*
X130769286Y-76383716D01*
X130776101Y-76359793D01*
X130776101Y-76359792D01*
X130776800Y-76357339D01*
X130817154Y-76073796D01*
X130818386Y-75838445D01*
X130818640Y-75789963D01*
X130818640Y-75789957D01*
X130818653Y-75787400D01*
X130800394Y-75648703D01*
X130785838Y-75538141D01*
X140905485Y-75538141D01*
X140918887Y-75742608D01*
X140919961Y-75749388D01*
X140970397Y-75947984D01*
X140972691Y-75954461D01*
X141058474Y-76140538D01*
X141061904Y-76146479D01*
X141078933Y-76170575D01*
X141087815Y-76176736D01*
X141091602Y-76176388D01*
X141693613Y-75574377D01*
X141697788Y-75565422D01*
X142426218Y-75565422D01*
X142427823Y-75571413D01*
X143028492Y-76172082D01*
X143038291Y-76176651D01*
X143040108Y-76176164D01*
X143042015Y-76174056D01*
X143117797Y-76038736D01*
X143120588Y-76032468D01*
X143186450Y-75838445D01*
X143188055Y-75831760D01*
X143217634Y-75627755D01*
X143218009Y-75623359D01*
X143219479Y-75567217D01*
X143219335Y-75562798D01*
X143216752Y-75534691D01*
X145019558Y-75534691D01*
X145019783Y-75538125D01*
X145019783Y-75538128D01*
X145021572Y-75565422D01*
X145033416Y-75746126D01*
X145085573Y-75951495D01*
X145087018Y-75954629D01*
X145168814Y-76132057D01*
X145174282Y-76143919D01*
X145176266Y-76146726D01*
X145176267Y-76146728D01*
X145263316Y-76269900D01*
X145296572Y-76316956D01*
X145315864Y-76335749D01*
X145445508Y-76462043D01*
X145448348Y-76464810D01*
X145451208Y-76466721D01*
X145621666Y-76580618D01*
X145621671Y-76580621D01*
X145624527Y-76582529D01*
X145627689Y-76583888D01*
X145627690Y-76583888D01*
X145816039Y-76664809D01*
X145816044Y-76664811D01*
X145819208Y-76666170D01*
X145822564Y-76666929D01*
X145822569Y-76666931D01*
X146022512Y-76712174D01*
X146022515Y-76712174D01*
X146025872Y-76712934D01*
X146137956Y-76717337D01*
X146234153Y-76721117D01*
X146234156Y-76721117D01*
X146237597Y-76721252D01*
X146241002Y-76720758D01*
X146241007Y-76720758D01*
X146391627Y-76698919D01*
X146447292Y-76690848D01*
X146524001Y-76664809D01*
X146644673Y-76623847D01*
X146644676Y-76623845D01*
X146647936Y-76622739D01*
X146797534Y-76538959D01*
X146829802Y-76520888D01*
X146829803Y-76520887D01*
X146832807Y-76519205D01*
X146995716Y-76383716D01*
X147131205Y-76220807D01*
X147234739Y-76035936D01*
X147235917Y-76032468D01*
X147301738Y-75838562D01*
X147302848Y-75835292D01*
X147333252Y-75625597D01*
X147334839Y-75565000D01*
X147333978Y-75555623D01*
X147326560Y-75474900D01*
X147315451Y-75354001D01*
X147257936Y-75150068D01*
X147242550Y-75118867D01*
X147165745Y-74963124D01*
X147164220Y-74960031D01*
X147037442Y-74790254D01*
X146881848Y-74646425D01*
X146856709Y-74630563D01*
X146795276Y-74591802D01*
X146702648Y-74533358D01*
X146560383Y-74476600D01*
X146509053Y-74456121D01*
X146509050Y-74456120D01*
X146505844Y-74454841D01*
X146502463Y-74454168D01*
X146502458Y-74454167D01*
X146301410Y-74414177D01*
X146301411Y-74414177D01*
X146298027Y-74413504D01*
X146162939Y-74411735D01*
X146089599Y-74410775D01*
X146089598Y-74410775D01*
X146086157Y-74410730D01*
X146082765Y-74411313D01*
X146082763Y-74411313D01*
X145880721Y-74446030D01*
X145880719Y-74446030D01*
X145877329Y-74446613D01*
X145678537Y-74519952D01*
X145496439Y-74628289D01*
X145493846Y-74630563D01*
X145362215Y-74746000D01*
X145337133Y-74767996D01*
X145205955Y-74934396D01*
X145204352Y-74937444D01*
X145204350Y-74937446D01*
X145111407Y-75114100D01*
X145107296Y-75121914D01*
X145106276Y-75125199D01*
X145065320Y-75257102D01*
X145044463Y-75324272D01*
X145019558Y-75534691D01*
X143216752Y-75534691D01*
X143200472Y-75357525D01*
X143199221Y-75350773D01*
X143143602Y-75153564D01*
X143141143Y-75147157D01*
X143050519Y-74963389D01*
X143047081Y-74957779D01*
X143038107Y-74951895D01*
X143034033Y-74952377D01*
X142430787Y-75555623D01*
X142426218Y-75565422D01*
X141697788Y-75565422D01*
X141698182Y-75564578D01*
X141696577Y-75558587D01*
X141094431Y-74956441D01*
X141084632Y-74951872D01*
X141083333Y-74952220D01*
X141080871Y-74955015D01*
X140994563Y-75119059D01*
X140991940Y-75125391D01*
X140931175Y-75321087D01*
X140929749Y-75327797D01*
X140905665Y-75531285D01*
X140905485Y-75538141D01*
X130785838Y-75538141D01*
X130781604Y-75505981D01*
X130781271Y-75503451D01*
X130780598Y-75500990D01*
X130706374Y-75229672D01*
X130706373Y-75229668D01*
X130705698Y-75227202D01*
X130593332Y-74963765D01*
X130455067Y-74732741D01*
X130447566Y-74720207D01*
X130447565Y-74720206D01*
X130446254Y-74718015D01*
X130345138Y-74591802D01*
X141451178Y-74591802D01*
X141451209Y-74594220D01*
X141452268Y-74595858D01*
X142052823Y-75196413D01*
X142062622Y-75200982D01*
X142068613Y-75199377D01*
X142668108Y-74599882D01*
X142672677Y-74590083D01*
X142671914Y-74587235D01*
X142671153Y-74586510D01*
X142590532Y-74535643D01*
X142584418Y-74532528D01*
X142394110Y-74456602D01*
X142387515Y-74454648D01*
X142186558Y-74414676D01*
X142179729Y-74413958D01*
X141974839Y-74411276D01*
X141968001Y-74411814D01*
X141766051Y-74446515D01*
X141759429Y-74448290D01*
X141567188Y-74519212D01*
X141560990Y-74522169D01*
X141458017Y-74583431D01*
X141451178Y-74591802D01*
X130345138Y-74591802D01*
X130267185Y-74494500D01*
X130059438Y-74297355D01*
X129826857Y-74130229D01*
X129719839Y-74073566D01*
X129576018Y-73997416D01*
X129576013Y-73997414D01*
X129573747Y-73996214D01*
X129304790Y-73897790D01*
X129097338Y-73852558D01*
X129027469Y-73837324D01*
X129027466Y-73837324D01*
X129024964Y-73836778D01*
X128900256Y-73826963D01*
X128801825Y-73819216D01*
X128801817Y-73819216D01*
X128800347Y-73819100D01*
X128645408Y-73819100D01*
X128431663Y-73833672D01*
X128429158Y-73834191D01*
X128429156Y-73834191D01*
X128330335Y-73854656D01*
X128151214Y-73891750D01*
X128148808Y-73892602D01*
X127883653Y-73986498D01*
X127883650Y-73986499D01*
X127881242Y-73987352D01*
X127626742Y-74118709D01*
X127624645Y-74120183D01*
X127624643Y-74120184D01*
X127533481Y-74184254D01*
X127392424Y-74283391D01*
X127390541Y-74285141D01*
X127206027Y-74456602D01*
X127182624Y-74478349D01*
X127181002Y-74480331D01*
X127180998Y-74480335D01*
X127045055Y-74646425D01*
X127001223Y-74699977D01*
X126851580Y-74944173D01*
X126850555Y-74946509D01*
X126850553Y-74946512D01*
X126739553Y-75199377D01*
X126736462Y-75206418D01*
X126658000Y-75481861D01*
X126617646Y-75765404D01*
X126617299Y-75831760D01*
X126616656Y-75954629D01*
X126616147Y-76051800D01*
X101923900Y-76051800D01*
X101923899Y-75251944D01*
X101915028Y-75207342D01*
X101881234Y-75156766D01*
X101836818Y-75127088D01*
X101836816Y-75127086D01*
X101830658Y-75122972D01*
X101810987Y-75119059D01*
X101789682Y-75114821D01*
X101789681Y-75114821D01*
X101786057Y-75114100D01*
X101346060Y-75114100D01*
X100905944Y-75114101D01*
X100861342Y-75122972D01*
X100810766Y-75156766D01*
X100806652Y-75162923D01*
X100781222Y-75200982D01*
X100776972Y-75207342D01*
X100775527Y-75214606D01*
X100773490Y-75224849D01*
X100768100Y-75251943D01*
X53353200Y-75251943D01*
X53353200Y-74732741D01*
X82447600Y-74732741D01*
X82451297Y-74742898D01*
X82456669Y-74746000D01*
X84082741Y-74746000D01*
X84092898Y-74742303D01*
X84096000Y-74736931D01*
X84096000Y-74732741D01*
X84604000Y-74732741D01*
X84607697Y-74742898D01*
X84613069Y-74746000D01*
X86239141Y-74746000D01*
X86249298Y-74742303D01*
X86252400Y-74736931D01*
X86252400Y-74721284D01*
X86251938Y-74715412D01*
X86238402Y-74629949D01*
X86234789Y-74618829D01*
X86182295Y-74515804D01*
X86175416Y-74506337D01*
X86093663Y-74424584D01*
X86084196Y-74417705D01*
X85981171Y-74365211D01*
X85970051Y-74361598D01*
X85884588Y-74348062D01*
X85878716Y-74347600D01*
X84617259Y-74347600D01*
X84607102Y-74351297D01*
X84604000Y-74356669D01*
X84604000Y-74732741D01*
X84096000Y-74732741D01*
X84096000Y-74360859D01*
X84092303Y-74350702D01*
X84086931Y-74347600D01*
X82821284Y-74347600D01*
X82815412Y-74348062D01*
X82729949Y-74361598D01*
X82718829Y-74365211D01*
X82615804Y-74417705D01*
X82606337Y-74424584D01*
X82524584Y-74506337D01*
X82517705Y-74515804D01*
X82465211Y-74618829D01*
X82461598Y-74629949D01*
X82448062Y-74715412D01*
X82447600Y-74721284D01*
X82447600Y-74732741D01*
X53353200Y-74732741D01*
X53353200Y-72994310D01*
X79634294Y-72994310D01*
X79651416Y-73125247D01*
X79704599Y-73246115D01*
X79708044Y-73250213D01*
X79708045Y-73250215D01*
X79719978Y-73264411D01*
X79789569Y-73347199D01*
X79794028Y-73350167D01*
X79794029Y-73350168D01*
X79895032Y-73417402D01*
X79895035Y-73417403D01*
X79899493Y-73420371D01*
X80025537Y-73459750D01*
X80093463Y-73460995D01*
X80152204Y-73462072D01*
X80152206Y-73462072D01*
X80157566Y-73462170D01*
X80162737Y-73460760D01*
X80162739Y-73460760D01*
X80230543Y-73442274D01*
X80284968Y-73427436D01*
X80306827Y-73414015D01*
X80346173Y-73402900D01*
X82429638Y-73402900D01*
X82477976Y-73420493D01*
X82496642Y-73443960D01*
X82505921Y-73462170D01*
X82519984Y-73489771D01*
X82610229Y-73580016D01*
X82723945Y-73637957D01*
X82729792Y-73638883D01*
X82815374Y-73652438D01*
X82815376Y-73652438D01*
X82818292Y-73652900D01*
X85881708Y-73652900D01*
X85884624Y-73652438D01*
X85884626Y-73652438D01*
X85970208Y-73638883D01*
X85976055Y-73637957D01*
X86089771Y-73580016D01*
X86180016Y-73489771D01*
X86194080Y-73462170D01*
X86203358Y-73443960D01*
X86240979Y-73408878D01*
X86270362Y-73402900D01*
X87250507Y-73402900D01*
X87292177Y-73415501D01*
X87295032Y-73417402D01*
X87295035Y-73417403D01*
X87299493Y-73420371D01*
X87425537Y-73459750D01*
X87493463Y-73460995D01*
X87552204Y-73462072D01*
X87552206Y-73462072D01*
X87557566Y-73462170D01*
X87562737Y-73460760D01*
X87562739Y-73460760D01*
X87630543Y-73442274D01*
X87684968Y-73427436D01*
X87733680Y-73397527D01*
X87792931Y-73361147D01*
X87792934Y-73361145D01*
X87797500Y-73358341D01*
X87886117Y-73260439D01*
X87891341Y-73249658D01*
X87930950Y-73167905D01*
X87943694Y-73141601D01*
X87965602Y-73011379D01*
X87965741Y-73000000D01*
X87947021Y-72869282D01*
X87892365Y-72749072D01*
X87888252Y-72744298D01*
X87817177Y-72661812D01*
X87806167Y-72649035D01*
X87801676Y-72646124D01*
X87699849Y-72580123D01*
X87699848Y-72580122D01*
X87695356Y-72577211D01*
X87624565Y-72556040D01*
X87573975Y-72540910D01*
X87573972Y-72540910D01*
X87568841Y-72539375D01*
X87563486Y-72539342D01*
X87563484Y-72539342D01*
X87504201Y-72538980D01*
X87436792Y-72538568D01*
X87309824Y-72574856D01*
X87292955Y-72585500D01*
X87252829Y-72597100D01*
X86270362Y-72597100D01*
X86222024Y-72579507D01*
X86203358Y-72556040D01*
X86182705Y-72515506D01*
X86182704Y-72515505D01*
X86180016Y-72510229D01*
X86089771Y-72419984D01*
X85976055Y-72362043D01*
X85926037Y-72354121D01*
X85884626Y-72347562D01*
X85884624Y-72347562D01*
X85881708Y-72347100D01*
X82818292Y-72347100D01*
X82815376Y-72347562D01*
X82815374Y-72347562D01*
X82773963Y-72354121D01*
X82723945Y-72362043D01*
X82610229Y-72419984D01*
X82519984Y-72510229D01*
X82517296Y-72515505D01*
X82517295Y-72515506D01*
X82496642Y-72556040D01*
X82459021Y-72591122D01*
X82429638Y-72597100D01*
X80348281Y-72597100D01*
X80307379Y-72585004D01*
X80299849Y-72580123D01*
X80299848Y-72580122D01*
X80295356Y-72577211D01*
X80224565Y-72556040D01*
X80173975Y-72540910D01*
X80173972Y-72540910D01*
X80168841Y-72539375D01*
X80163486Y-72539342D01*
X80163484Y-72539342D01*
X80104201Y-72538980D01*
X80036792Y-72538568D01*
X79909824Y-72574856D01*
X79905294Y-72577714D01*
X79905292Y-72577715D01*
X79874569Y-72597100D01*
X79798144Y-72645320D01*
X79710730Y-72744298D01*
X79708454Y-72749145D01*
X79708453Y-72749147D01*
X79656887Y-72858981D01*
X79654610Y-72863831D01*
X79634294Y-72994310D01*
X53353200Y-72994310D01*
X53353200Y-70118293D01*
X76747100Y-70118293D01*
X76747101Y-71181706D01*
X76762043Y-71276054D01*
X76819984Y-71389770D01*
X76910230Y-71480016D01*
X77023946Y-71537957D01*
X77029793Y-71538883D01*
X77115375Y-71552438D01*
X77115377Y-71552438D01*
X77118293Y-71552900D01*
X78599749Y-71552900D01*
X80081706Y-71552899D01*
X80150875Y-71541945D01*
X80170208Y-71538883D01*
X80170209Y-71538883D01*
X80176054Y-71537957D01*
X80289770Y-71480016D01*
X80380016Y-71389770D01*
X80437957Y-71276054D01*
X80452900Y-71181707D01*
X80452900Y-71142943D01*
X104063300Y-71142943D01*
X104063301Y-73205056D01*
X104072172Y-73249658D01*
X104105966Y-73300234D01*
X104112123Y-73304348D01*
X104150383Y-73329913D01*
X104150384Y-73329914D01*
X104156542Y-73334028D01*
X104201143Y-73342900D01*
X105232060Y-73342900D01*
X106263256Y-73342899D01*
X106307858Y-73334028D01*
X106358434Y-73300234D01*
X106366198Y-73288615D01*
X106388113Y-73255817D01*
X106388114Y-73255816D01*
X106392228Y-73249658D01*
X106401100Y-73205057D01*
X106401100Y-73160731D01*
X108465509Y-73160731D01*
X108466409Y-73164091D01*
X108466512Y-73164192D01*
X108525038Y-73203297D01*
X108531062Y-73206568D01*
X108722032Y-73288615D01*
X108728558Y-73290735D01*
X108931276Y-73336606D01*
X108938087Y-73337502D01*
X109145767Y-73345663D01*
X109152621Y-73345304D01*
X109358311Y-73315480D01*
X109364996Y-73313875D01*
X109561804Y-73247068D01*
X109568072Y-73244277D01*
X109704445Y-73167905D01*
X109711501Y-73159715D01*
X109711526Y-73157833D01*
X109710012Y-73155422D01*
X109097177Y-72542587D01*
X109087378Y-72538018D01*
X109081387Y-72539623D01*
X108470078Y-73150932D01*
X108465509Y-73160731D01*
X106401100Y-73160731D01*
X106401099Y-72146721D01*
X107915021Y-72146721D01*
X107928616Y-72354121D01*
X107929690Y-72360903D01*
X107980850Y-72562348D01*
X107983144Y-72568825D01*
X108070158Y-72757573D01*
X108073588Y-72763514D01*
X108093054Y-72791059D01*
X108101932Y-72797218D01*
X108105721Y-72796869D01*
X108719213Y-72183377D01*
X108723388Y-72174422D01*
X109451818Y-72174422D01*
X109453423Y-72180413D01*
X110065848Y-72792838D01*
X110075647Y-72797407D01*
X110077464Y-72796920D01*
X110079371Y-72794812D01*
X110158077Y-72654272D01*
X110160868Y-72648004D01*
X110227675Y-72451196D01*
X110229280Y-72444511D01*
X110259281Y-72237596D01*
X110259656Y-72233200D01*
X110261148Y-72176217D01*
X110261004Y-72171798D01*
X110241872Y-71963597D01*
X110240621Y-71956845D01*
X110184204Y-71756805D01*
X110181745Y-71750398D01*
X110089818Y-71563990D01*
X110086228Y-71558132D01*
X110084181Y-71555390D01*
X110075140Y-71549462D01*
X110071066Y-71549944D01*
X109456387Y-72164623D01*
X109451818Y-72174422D01*
X108723388Y-72174422D01*
X108723782Y-72173578D01*
X108722177Y-72167587D01*
X108108183Y-71553593D01*
X108098384Y-71549024D01*
X108097085Y-71549372D01*
X108094623Y-71552167D01*
X108005317Y-71721910D01*
X108002694Y-71728242D01*
X107941057Y-71926746D01*
X107939631Y-71933456D01*
X107915201Y-72139865D01*
X107915021Y-72146721D01*
X106401099Y-72146721D01*
X106401099Y-71189128D01*
X108465104Y-71189128D01*
X108465135Y-71191546D01*
X108466194Y-71193184D01*
X109078423Y-71805413D01*
X109088222Y-71809982D01*
X109094213Y-71808377D01*
X109705308Y-71197282D01*
X109709877Y-71187483D01*
X109709114Y-71184635D01*
X109708353Y-71183910D01*
X109643424Y-71142943D01*
X113715300Y-71142943D01*
X113715301Y-73205056D01*
X113724172Y-73249658D01*
X113757966Y-73300234D01*
X113764123Y-73304348D01*
X113802383Y-73329913D01*
X113802384Y-73329914D01*
X113808542Y-73334028D01*
X113853143Y-73342900D01*
X114884060Y-73342900D01*
X115915256Y-73342899D01*
X115959858Y-73334028D01*
X116010434Y-73300234D01*
X116018198Y-73288615D01*
X116040113Y-73255817D01*
X116040114Y-73255816D01*
X116044228Y-73249658D01*
X116053100Y-73205057D01*
X116053100Y-73160731D01*
X118117509Y-73160731D01*
X118118409Y-73164091D01*
X118118512Y-73164192D01*
X118177038Y-73203297D01*
X118183062Y-73206568D01*
X118374032Y-73288615D01*
X118380558Y-73290735D01*
X118583276Y-73336606D01*
X118590087Y-73337502D01*
X118797767Y-73345663D01*
X118804621Y-73345304D01*
X119010311Y-73315480D01*
X119016996Y-73313875D01*
X119213804Y-73247068D01*
X119220072Y-73244277D01*
X119356445Y-73167905D01*
X119363501Y-73159715D01*
X119363526Y-73157833D01*
X119362012Y-73155422D01*
X118749177Y-72542587D01*
X118739378Y-72538018D01*
X118733387Y-72539623D01*
X118122078Y-73150932D01*
X118117509Y-73160731D01*
X116053100Y-73160731D01*
X116053099Y-72146721D01*
X117567021Y-72146721D01*
X117580616Y-72354121D01*
X117581690Y-72360903D01*
X117632850Y-72562348D01*
X117635144Y-72568825D01*
X117722158Y-72757573D01*
X117725588Y-72763514D01*
X117745054Y-72791059D01*
X117753932Y-72797218D01*
X117757721Y-72796869D01*
X118371213Y-72183377D01*
X118375388Y-72174422D01*
X119103818Y-72174422D01*
X119105423Y-72180413D01*
X119717848Y-72792838D01*
X119727647Y-72797407D01*
X119729464Y-72796920D01*
X119731371Y-72794812D01*
X119810077Y-72654272D01*
X119812868Y-72648004D01*
X119879675Y-72451196D01*
X119881280Y-72444511D01*
X119911281Y-72237596D01*
X119911656Y-72233200D01*
X119913148Y-72176217D01*
X119913004Y-72171798D01*
X119893872Y-71963597D01*
X119892621Y-71956845D01*
X119836204Y-71756805D01*
X119833745Y-71750398D01*
X119741818Y-71563990D01*
X119738228Y-71558132D01*
X119736181Y-71555390D01*
X119727140Y-71549462D01*
X119723066Y-71549944D01*
X119108387Y-72164623D01*
X119103818Y-72174422D01*
X118375388Y-72174422D01*
X118375782Y-72173578D01*
X118374177Y-72167587D01*
X117760183Y-71553593D01*
X117750384Y-71549024D01*
X117749085Y-71549372D01*
X117746623Y-71552167D01*
X117657317Y-71721910D01*
X117654694Y-71728242D01*
X117593057Y-71926746D01*
X117591631Y-71933456D01*
X117567201Y-72139865D01*
X117567021Y-72146721D01*
X116053099Y-72146721D01*
X116053099Y-71189128D01*
X118117104Y-71189128D01*
X118117135Y-71191546D01*
X118118194Y-71193184D01*
X118730423Y-71805413D01*
X118740222Y-71809982D01*
X118746213Y-71808377D01*
X119357308Y-71197282D01*
X119361877Y-71187483D01*
X119361114Y-71184635D01*
X119360353Y-71183910D01*
X119275427Y-71130326D01*
X119269313Y-71127210D01*
X119076274Y-71050195D01*
X119069679Y-71048241D01*
X118865837Y-71007695D01*
X118859007Y-71006977D01*
X118651179Y-71004256D01*
X118644341Y-71004794D01*
X118439492Y-71039994D01*
X118432870Y-71041769D01*
X118237865Y-71113710D01*
X118231678Y-71116661D01*
X118123943Y-71180757D01*
X118117104Y-71189128D01*
X116053099Y-71189128D01*
X116053099Y-71142944D01*
X116044228Y-71098342D01*
X116010434Y-71047766D01*
X116001459Y-71041769D01*
X115966017Y-71018087D01*
X115966016Y-71018086D01*
X115959858Y-71013972D01*
X115952594Y-71012527D01*
X115918882Y-71005821D01*
X115918881Y-71005821D01*
X115915257Y-71005100D01*
X114884340Y-71005100D01*
X113853144Y-71005101D01*
X113808542Y-71013972D01*
X113757966Y-71047766D01*
X113724172Y-71098342D01*
X113715300Y-71142943D01*
X109643424Y-71142943D01*
X109623427Y-71130326D01*
X109617313Y-71127210D01*
X109424274Y-71050195D01*
X109417679Y-71048241D01*
X109213837Y-71007695D01*
X109207007Y-71006977D01*
X108999179Y-71004256D01*
X108992341Y-71004794D01*
X108787492Y-71039994D01*
X108780870Y-71041769D01*
X108585865Y-71113710D01*
X108579678Y-71116661D01*
X108471943Y-71180757D01*
X108465104Y-71189128D01*
X106401099Y-71189128D01*
X106401099Y-71142944D01*
X106392228Y-71098342D01*
X106358434Y-71047766D01*
X106349459Y-71041769D01*
X106314017Y-71018087D01*
X106314016Y-71018086D01*
X106307858Y-71013972D01*
X106300594Y-71012527D01*
X106266882Y-71005821D01*
X106266881Y-71005821D01*
X106263257Y-71005100D01*
X105232340Y-71005100D01*
X104201144Y-71005101D01*
X104156542Y-71013972D01*
X104105966Y-71047766D01*
X104072172Y-71098342D01*
X104063300Y-71142943D01*
X80452900Y-71142943D01*
X80452899Y-70118294D01*
X80437957Y-70023946D01*
X80380016Y-69910230D01*
X80289770Y-69819984D01*
X80176054Y-69762043D01*
X80145039Y-69757131D01*
X80084625Y-69747562D01*
X80084623Y-69747562D01*
X80081707Y-69747100D01*
X78600251Y-69747100D01*
X77118294Y-69747101D01*
X77049125Y-69758055D01*
X77029792Y-69761117D01*
X77029791Y-69761117D01*
X77023946Y-69762043D01*
X76910230Y-69819984D01*
X76819984Y-69910230D01*
X76762043Y-70023946D01*
X76747100Y-70118293D01*
X53353200Y-70118293D01*
X53353200Y-65286731D01*
X104538909Y-65286731D01*
X104539809Y-65290091D01*
X104539912Y-65290192D01*
X104598438Y-65329297D01*
X104604462Y-65332568D01*
X104795432Y-65414615D01*
X104801958Y-65416735D01*
X105004676Y-65462606D01*
X105011487Y-65463502D01*
X105219167Y-65471663D01*
X105226021Y-65471304D01*
X105431711Y-65441480D01*
X105438396Y-65439875D01*
X105635204Y-65373068D01*
X105641472Y-65370277D01*
X105777845Y-65293905D01*
X105784901Y-65285715D01*
X105784926Y-65283833D01*
X105783412Y-65281422D01*
X105170577Y-64668587D01*
X105160778Y-64664018D01*
X105154787Y-64665623D01*
X104543478Y-65276932D01*
X104538909Y-65286731D01*
X53353200Y-65286731D01*
X53353200Y-64337200D01*
X53370793Y-64288862D01*
X53398750Y-64272721D01*
X103988421Y-64272721D01*
X104002016Y-64480121D01*
X104003090Y-64486903D01*
X104054250Y-64688348D01*
X104056544Y-64694825D01*
X104143558Y-64883573D01*
X104146988Y-64889514D01*
X104166454Y-64917059D01*
X104175332Y-64923218D01*
X104179121Y-64922869D01*
X104792613Y-64309377D01*
X104796788Y-64300422D01*
X105525218Y-64300422D01*
X105526823Y-64306413D01*
X106139248Y-64918838D01*
X106149047Y-64923407D01*
X106150864Y-64922920D01*
X106152771Y-64920812D01*
X106231477Y-64780272D01*
X106234268Y-64774004D01*
X106301075Y-64577196D01*
X106302680Y-64570511D01*
X106332681Y-64363596D01*
X106333056Y-64359200D01*
X106334548Y-64302217D01*
X106334404Y-64297798D01*
X106315272Y-64089597D01*
X106314021Y-64082845D01*
X106257604Y-63882805D01*
X106255145Y-63876398D01*
X106163218Y-63689990D01*
X106159628Y-63684132D01*
X106157581Y-63681390D01*
X106148540Y-63675462D01*
X106144466Y-63675944D01*
X105529787Y-64290623D01*
X105525218Y-64300422D01*
X104796788Y-64300422D01*
X104797182Y-64299578D01*
X104795577Y-64293587D01*
X104181583Y-63679593D01*
X104171784Y-63675024D01*
X104170485Y-63675372D01*
X104168023Y-63678167D01*
X104078717Y-63847910D01*
X104076094Y-63854242D01*
X104014457Y-64052746D01*
X104013031Y-64059456D01*
X103988601Y-64265865D01*
X103988421Y-64272721D01*
X53398750Y-64272721D01*
X53415342Y-64263142D01*
X53428400Y-64262000D01*
X60960000Y-64262000D01*
X60970454Y-64252199D01*
X60970455Y-64252199D01*
X61969997Y-63315128D01*
X104538504Y-63315128D01*
X104538535Y-63317546D01*
X104539594Y-63319184D01*
X105151823Y-63931413D01*
X105161622Y-63935982D01*
X105167613Y-63934377D01*
X105778708Y-63323282D01*
X105783277Y-63313483D01*
X105782514Y-63310635D01*
X105781753Y-63309910D01*
X105716824Y-63268943D01*
X107847900Y-63268943D01*
X107847901Y-65331056D01*
X107856772Y-65375658D01*
X107890566Y-65426234D01*
X107896723Y-65430348D01*
X107934983Y-65455913D01*
X107934984Y-65455914D01*
X107941142Y-65460028D01*
X107985743Y-65468900D01*
X109016660Y-65468900D01*
X110047856Y-65468899D01*
X110092458Y-65460028D01*
X110143034Y-65426234D01*
X110176828Y-65375658D01*
X110185700Y-65331057D01*
X110185700Y-65286731D01*
X114317909Y-65286731D01*
X114318809Y-65290091D01*
X114318912Y-65290192D01*
X114377438Y-65329297D01*
X114383462Y-65332568D01*
X114574432Y-65414615D01*
X114580958Y-65416735D01*
X114783676Y-65462606D01*
X114790487Y-65463502D01*
X114998167Y-65471663D01*
X115005021Y-65471304D01*
X115210711Y-65441480D01*
X115217396Y-65439875D01*
X115414204Y-65373068D01*
X115420472Y-65370277D01*
X115556845Y-65293905D01*
X115563901Y-65285715D01*
X115563926Y-65283833D01*
X115562412Y-65281422D01*
X114949577Y-64668587D01*
X114939778Y-64664018D01*
X114933787Y-64665623D01*
X114322478Y-65276932D01*
X114317909Y-65286731D01*
X110185700Y-65286731D01*
X110185699Y-64272721D01*
X113767421Y-64272721D01*
X113781016Y-64480121D01*
X113782090Y-64486903D01*
X113833250Y-64688348D01*
X113835544Y-64694825D01*
X113922558Y-64883573D01*
X113925988Y-64889514D01*
X113945454Y-64917059D01*
X113954332Y-64923218D01*
X113958121Y-64922869D01*
X114571613Y-64309377D01*
X114575788Y-64300422D01*
X115304218Y-64300422D01*
X115305823Y-64306413D01*
X115918248Y-64918838D01*
X115928047Y-64923407D01*
X115929864Y-64922920D01*
X115931771Y-64920812D01*
X116010477Y-64780272D01*
X116013268Y-64774004D01*
X116080075Y-64577196D01*
X116081680Y-64570511D01*
X116111681Y-64363596D01*
X116112056Y-64359200D01*
X116113548Y-64302217D01*
X116113404Y-64297798D01*
X116094272Y-64089597D01*
X116093021Y-64082845D01*
X116036604Y-63882805D01*
X116034145Y-63876398D01*
X115942218Y-63689990D01*
X115938628Y-63684132D01*
X115936581Y-63681390D01*
X115927540Y-63675462D01*
X115923466Y-63675944D01*
X115308787Y-64290623D01*
X115304218Y-64300422D01*
X114575788Y-64300422D01*
X114576182Y-64299578D01*
X114574577Y-64293587D01*
X113960583Y-63679593D01*
X113950784Y-63675024D01*
X113949485Y-63675372D01*
X113947023Y-63678167D01*
X113857717Y-63847910D01*
X113855094Y-63854242D01*
X113793457Y-64052746D01*
X113792031Y-64059456D01*
X113767601Y-64265865D01*
X113767421Y-64272721D01*
X110185699Y-64272721D01*
X110185699Y-63315128D01*
X114317504Y-63315128D01*
X114317535Y-63317546D01*
X114318594Y-63319184D01*
X114930823Y-63931413D01*
X114940622Y-63935982D01*
X114946613Y-63934377D01*
X115557708Y-63323282D01*
X115562277Y-63313483D01*
X115561514Y-63310635D01*
X115560753Y-63309910D01*
X115495824Y-63268943D01*
X117626900Y-63268943D01*
X117626901Y-65331056D01*
X117635772Y-65375658D01*
X117669566Y-65426234D01*
X117675723Y-65430348D01*
X117713983Y-65455913D01*
X117713984Y-65455914D01*
X117720142Y-65460028D01*
X117764743Y-65468900D01*
X118795660Y-65468900D01*
X119826856Y-65468899D01*
X119871458Y-65460028D01*
X119922034Y-65426234D01*
X119955828Y-65375658D01*
X119964700Y-65331057D01*
X119964699Y-63268944D01*
X119955828Y-63224342D01*
X119922034Y-63173766D01*
X119913059Y-63167769D01*
X119877617Y-63144087D01*
X119877616Y-63144086D01*
X119871458Y-63139972D01*
X119864194Y-63138527D01*
X119830482Y-63131821D01*
X119830481Y-63131821D01*
X119826857Y-63131100D01*
X118795940Y-63131100D01*
X117764744Y-63131101D01*
X117720142Y-63139972D01*
X117669566Y-63173766D01*
X117635772Y-63224342D01*
X117626900Y-63268943D01*
X115495824Y-63268943D01*
X115475827Y-63256326D01*
X115469713Y-63253210D01*
X115276674Y-63176195D01*
X115270079Y-63174241D01*
X115066237Y-63133695D01*
X115059407Y-63132977D01*
X114851579Y-63130256D01*
X114844741Y-63130794D01*
X114639892Y-63165994D01*
X114633270Y-63167769D01*
X114438265Y-63239710D01*
X114432078Y-63242661D01*
X114324343Y-63306757D01*
X114317504Y-63315128D01*
X110185699Y-63315128D01*
X110185699Y-63268944D01*
X110176828Y-63224342D01*
X110143034Y-63173766D01*
X110134059Y-63167769D01*
X110098617Y-63144087D01*
X110098616Y-63144086D01*
X110092458Y-63139972D01*
X110085194Y-63138527D01*
X110051482Y-63131821D01*
X110051481Y-63131821D01*
X110047857Y-63131100D01*
X109016940Y-63131100D01*
X107985744Y-63131101D01*
X107941142Y-63139972D01*
X107890566Y-63173766D01*
X107856772Y-63224342D01*
X107847900Y-63268943D01*
X105716824Y-63268943D01*
X105696827Y-63256326D01*
X105690713Y-63253210D01*
X105497674Y-63176195D01*
X105491079Y-63174241D01*
X105287237Y-63133695D01*
X105280407Y-63132977D01*
X105072579Y-63130256D01*
X105065741Y-63130794D01*
X104860892Y-63165994D01*
X104854270Y-63167769D01*
X104659265Y-63239710D01*
X104653078Y-63242661D01*
X104545343Y-63306757D01*
X104538504Y-63315128D01*
X61969997Y-63315128D01*
X64293284Y-61137046D01*
X65024000Y-60452000D01*
X65024000Y-60051800D01*
X71416147Y-60051800D01*
X71416481Y-60054335D01*
X71416481Y-60054339D01*
X71444941Y-60270519D01*
X71453529Y-60335749D01*
X71454201Y-60338207D01*
X71454202Y-60338210D01*
X71496332Y-60492209D01*
X71529102Y-60611998D01*
X71543069Y-60644743D01*
X71599968Y-60778139D01*
X71641468Y-60875435D01*
X71788546Y-61121185D01*
X71967615Y-61344700D01*
X72175362Y-61541845D01*
X72407943Y-61708971D01*
X72514961Y-61765634D01*
X72658782Y-61841784D01*
X72658787Y-61841786D01*
X72661053Y-61842986D01*
X72930010Y-61941410D01*
X73137462Y-61986642D01*
X73207331Y-62001876D01*
X73207334Y-62001876D01*
X73209836Y-62002422D01*
X73334544Y-62012237D01*
X73432975Y-62019984D01*
X73432983Y-62019984D01*
X73434453Y-62020100D01*
X73589392Y-62020100D01*
X73803137Y-62005528D01*
X73805642Y-62005009D01*
X73805644Y-62005009D01*
X73904465Y-61984544D01*
X74083586Y-61947450D01*
X74099103Y-61941955D01*
X74351147Y-61852702D01*
X74351150Y-61852701D01*
X74353558Y-61851848D01*
X74608058Y-61720491D01*
X74626577Y-61707476D01*
X74840274Y-61557286D01*
X74842376Y-61555809D01*
X75052176Y-61360851D01*
X75063954Y-61346462D01*
X75231958Y-61141201D01*
X75233577Y-61139223D01*
X75383220Y-60895027D01*
X75391097Y-60877083D01*
X75497309Y-60635127D01*
X75497311Y-60635122D01*
X75498338Y-60632782D01*
X75576800Y-60357339D01*
X75611351Y-60114572D01*
X75616794Y-60076326D01*
X75616794Y-60076325D01*
X75617154Y-60073796D01*
X75618653Y-59787400D01*
X75608051Y-59706864D01*
X75581604Y-59505981D01*
X75581271Y-59503451D01*
X75580598Y-59500990D01*
X75506374Y-59229672D01*
X75506373Y-59229668D01*
X75505698Y-59227202D01*
X75393332Y-58963765D01*
X75246254Y-58718015D01*
X75067185Y-58494500D01*
X74859438Y-58297355D01*
X74626857Y-58130229D01*
X74519839Y-58073566D01*
X74376018Y-57997416D01*
X74376013Y-57997414D01*
X74373747Y-57996214D01*
X74104790Y-57897790D01*
X73897338Y-57852558D01*
X73827469Y-57837324D01*
X73827466Y-57837324D01*
X73824964Y-57836778D01*
X73700256Y-57826963D01*
X73601825Y-57819216D01*
X73601817Y-57819216D01*
X73600347Y-57819100D01*
X73445408Y-57819100D01*
X73231663Y-57833672D01*
X73229158Y-57834191D01*
X73229156Y-57834191D01*
X73130335Y-57854656D01*
X72951214Y-57891750D01*
X72948808Y-57892602D01*
X72683653Y-57986498D01*
X72683650Y-57986499D01*
X72681242Y-57987352D01*
X72426742Y-58118709D01*
X72424645Y-58120183D01*
X72424643Y-58120184D01*
X72333481Y-58184254D01*
X72192424Y-58283391D01*
X71982624Y-58478349D01*
X71981002Y-58480331D01*
X71980998Y-58480335D01*
X71967768Y-58496499D01*
X71801223Y-58699977D01*
X71651580Y-58944173D01*
X71650555Y-58946509D01*
X71650553Y-58946512D01*
X71547495Y-59181285D01*
X71536462Y-59206418D01*
X71458000Y-59481861D01*
X71417646Y-59765404D01*
X71416147Y-60051800D01*
X65024000Y-60051800D01*
X65024000Y-57228100D01*
X65041593Y-57179762D01*
X65086142Y-57154042D01*
X65099200Y-57152900D01*
X137084800Y-57152900D01*
X137133138Y-57170493D01*
G37*
G04 #@! TD.AperFunction*
G04 #@! TA.AperFunction,Conductor*
G36*
X148803938Y-84601660D02*
G01*
X148829658Y-84646209D01*
X148830800Y-84659267D01*
X148830800Y-95170300D01*
X148813207Y-95218638D01*
X148768658Y-95244358D01*
X148755600Y-95245500D01*
X141032472Y-95245500D01*
X141017804Y-95244055D01*
X141000000Y-95240514D01*
X140992735Y-95241959D01*
X140974933Y-95245500D01*
X140907967Y-95258820D01*
X140907966Y-95258821D01*
X140900699Y-95260266D01*
X140816516Y-95316516D01*
X140760266Y-95400699D01*
X140740514Y-95500000D01*
X140741959Y-95507264D01*
X140744055Y-95517801D01*
X140745500Y-95532472D01*
X140745500Y-103467528D01*
X140744055Y-103482196D01*
X140740514Y-103500000D01*
X140745500Y-103525067D01*
X140760266Y-103599301D01*
X140816516Y-103683484D01*
X140822673Y-103687598D01*
X140894540Y-103735619D01*
X140894541Y-103735620D01*
X140900699Y-103739734D01*
X140907961Y-103741178D01*
X140907962Y-103741179D01*
X140992735Y-103758041D01*
X141000000Y-103759486D01*
X141017804Y-103755945D01*
X141032472Y-103754500D01*
X148755600Y-103754500D01*
X148803938Y-103772093D01*
X148829658Y-103816642D01*
X148830800Y-103829700D01*
X148830800Y-113210867D01*
X148813207Y-113259205D01*
X148768658Y-113284925D01*
X148755600Y-113286067D01*
X139775200Y-113286067D01*
X139726862Y-113268474D01*
X139701142Y-113223925D01*
X139700000Y-113210867D01*
X139700000Y-84659267D01*
X139717593Y-84610929D01*
X139762142Y-84585209D01*
X139775200Y-84584067D01*
X148755600Y-84584067D01*
X148803938Y-84601660D01*
G37*
G04 #@! TD.AperFunction*
G04 #@! TA.AperFunction,Conductor*
G36*
X130529138Y-83837593D02*
G01*
X130554858Y-83882142D01*
X130556000Y-83895200D01*
X130556000Y-87935800D01*
X130538407Y-87984138D01*
X130493858Y-88009858D01*
X130480800Y-88011000D01*
X120890800Y-88011000D01*
X120842462Y-87993407D01*
X120816742Y-87948858D01*
X120815600Y-87935800D01*
X120815600Y-87379470D01*
X122554786Y-87379470D01*
X122555616Y-87386255D01*
X122572946Y-87425270D01*
X122580674Y-87436514D01*
X122643879Y-87499610D01*
X122655144Y-87507323D01*
X122737999Y-87543953D01*
X122748790Y-87546895D01*
X122764683Y-87548748D01*
X122769022Y-87549000D01*
X123365741Y-87549000D01*
X123375898Y-87545303D01*
X123379000Y-87539931D01*
X123379000Y-87535741D01*
X123887000Y-87535741D01*
X123890697Y-87545898D01*
X123896069Y-87549000D01*
X124496928Y-87549000D01*
X124501366Y-87548737D01*
X124517702Y-87546793D01*
X124528464Y-87543835D01*
X124611270Y-87507054D01*
X124622514Y-87499326D01*
X124685610Y-87436121D01*
X124693323Y-87424856D01*
X124709560Y-87388128D01*
X124710243Y-87377981D01*
X124703732Y-87376000D01*
X123900259Y-87376000D01*
X123890102Y-87379697D01*
X123887000Y-87385069D01*
X123887000Y-87535741D01*
X123379000Y-87535741D01*
X123379000Y-87389259D01*
X123375303Y-87379102D01*
X123369931Y-87376000D01*
X122564320Y-87376000D01*
X122554786Y-87379470D01*
X120815600Y-87379470D01*
X120815600Y-86866019D01*
X122555757Y-86866019D01*
X122562268Y-86868000D01*
X123365741Y-86868000D01*
X123375898Y-86864303D01*
X123379000Y-86858931D01*
X123379000Y-86854741D01*
X123887000Y-86854741D01*
X123890697Y-86864898D01*
X123896069Y-86868000D01*
X124701680Y-86868000D01*
X124711214Y-86864530D01*
X124710384Y-86857745D01*
X124693054Y-86818730D01*
X124685326Y-86807486D01*
X124622121Y-86744390D01*
X124610856Y-86736677D01*
X124528001Y-86700047D01*
X124517210Y-86697105D01*
X124501317Y-86695252D01*
X124496978Y-86695000D01*
X123900259Y-86695000D01*
X123890102Y-86698697D01*
X123887000Y-86704069D01*
X123887000Y-86854741D01*
X123379000Y-86854741D01*
X123379000Y-86708259D01*
X123375303Y-86698102D01*
X123369931Y-86695000D01*
X122769072Y-86695000D01*
X122764634Y-86695263D01*
X122748298Y-86697207D01*
X122737536Y-86700165D01*
X122654730Y-86736946D01*
X122643486Y-86744674D01*
X122580390Y-86807879D01*
X122572677Y-86819144D01*
X122556440Y-86855872D01*
X122555757Y-86866019D01*
X120815600Y-86866019D01*
X120815600Y-86109470D01*
X122554786Y-86109470D01*
X122555616Y-86116255D01*
X122572946Y-86155270D01*
X122580674Y-86166514D01*
X122643879Y-86229610D01*
X122655144Y-86237323D01*
X122737999Y-86273953D01*
X122748790Y-86276895D01*
X122764683Y-86278748D01*
X122769022Y-86279000D01*
X123365741Y-86279000D01*
X123375898Y-86275303D01*
X123379000Y-86269931D01*
X123379000Y-86265741D01*
X123887000Y-86265741D01*
X123890697Y-86275898D01*
X123896069Y-86279000D01*
X124496928Y-86279000D01*
X124501366Y-86278737D01*
X124517702Y-86276793D01*
X124528464Y-86273835D01*
X124611270Y-86237054D01*
X124622514Y-86229326D01*
X124685610Y-86166121D01*
X124693323Y-86154856D01*
X124709560Y-86118128D01*
X124710243Y-86107981D01*
X124703732Y-86106000D01*
X123900259Y-86106000D01*
X123890102Y-86109697D01*
X123887000Y-86115069D01*
X123887000Y-86265741D01*
X123379000Y-86265741D01*
X123379000Y-86119259D01*
X123375303Y-86109102D01*
X123369931Y-86106000D01*
X122564320Y-86106000D01*
X122554786Y-86109470D01*
X120815600Y-86109470D01*
X120815600Y-85596019D01*
X122555757Y-85596019D01*
X122562268Y-85598000D01*
X123365741Y-85598000D01*
X123375898Y-85594303D01*
X123379000Y-85588931D01*
X123379000Y-85584741D01*
X123887000Y-85584741D01*
X123890697Y-85594898D01*
X123896069Y-85598000D01*
X124701680Y-85598000D01*
X124711214Y-85594530D01*
X124710384Y-85587745D01*
X124693054Y-85548730D01*
X124685326Y-85537486D01*
X124622121Y-85474390D01*
X124610856Y-85466677D01*
X124528001Y-85430047D01*
X124517210Y-85427105D01*
X124501317Y-85425252D01*
X124496978Y-85425000D01*
X123900259Y-85425000D01*
X123890102Y-85428697D01*
X123887000Y-85434069D01*
X123887000Y-85584741D01*
X123379000Y-85584741D01*
X123379000Y-85438259D01*
X123375303Y-85428102D01*
X123369931Y-85425000D01*
X122769072Y-85425000D01*
X122764634Y-85425263D01*
X122748298Y-85427207D01*
X122737536Y-85430165D01*
X122654730Y-85466946D01*
X122643486Y-85474674D01*
X122580390Y-85537879D01*
X122572677Y-85549144D01*
X122556440Y-85585872D01*
X122555757Y-85596019D01*
X120815600Y-85596019D01*
X120815600Y-85378484D01*
X126785501Y-85378484D01*
X126785902Y-85383954D01*
X126795557Y-85449552D01*
X126798983Y-85460577D01*
X126848984Y-85562419D01*
X126856118Y-85572384D01*
X126936148Y-85652273D01*
X126946134Y-85659397D01*
X127048065Y-85709221D01*
X127059080Y-85712625D01*
X127124064Y-85722106D01*
X127129497Y-85722500D01*
X128320241Y-85722500D01*
X128330398Y-85718803D01*
X128333500Y-85713431D01*
X128333500Y-85709240D01*
X128841500Y-85709240D01*
X128845197Y-85719397D01*
X128850569Y-85722499D01*
X130045484Y-85722499D01*
X130050954Y-85722098D01*
X130116552Y-85712443D01*
X130127577Y-85709017D01*
X130229419Y-85659016D01*
X130239384Y-85651882D01*
X130319273Y-85571852D01*
X130326397Y-85561866D01*
X130376221Y-85459935D01*
X130379625Y-85448920D01*
X130389106Y-85383936D01*
X130389500Y-85378503D01*
X130389500Y-85187759D01*
X130385803Y-85177602D01*
X130380431Y-85174500D01*
X128854759Y-85174500D01*
X128844602Y-85178197D01*
X128841500Y-85183569D01*
X128841500Y-85709240D01*
X128333500Y-85709240D01*
X128333500Y-85187759D01*
X128329803Y-85177602D01*
X128324431Y-85174500D01*
X126798760Y-85174500D01*
X126788603Y-85178197D01*
X126785501Y-85183569D01*
X126785501Y-85378484D01*
X120815600Y-85378484D01*
X120815600Y-84839470D01*
X122554786Y-84839470D01*
X122555616Y-84846255D01*
X122572946Y-84885270D01*
X122580674Y-84896514D01*
X122643879Y-84959610D01*
X122655144Y-84967323D01*
X122737999Y-85003953D01*
X122748790Y-85006895D01*
X122764683Y-85008748D01*
X122769022Y-85009000D01*
X123365741Y-85009000D01*
X123375898Y-85005303D01*
X123379000Y-84999931D01*
X123379000Y-84995741D01*
X123887000Y-84995741D01*
X123890697Y-85005898D01*
X123896069Y-85009000D01*
X124496928Y-85009000D01*
X124501366Y-85008737D01*
X124517702Y-85006793D01*
X124528464Y-85003835D01*
X124611270Y-84967054D01*
X124622514Y-84959326D01*
X124685610Y-84896121D01*
X124693323Y-84884856D01*
X124709560Y-84848128D01*
X124710243Y-84837981D01*
X124703732Y-84836000D01*
X123900259Y-84836000D01*
X123890102Y-84839697D01*
X123887000Y-84845069D01*
X123887000Y-84995741D01*
X123379000Y-84995741D01*
X123379000Y-84849259D01*
X123375303Y-84839102D01*
X123369931Y-84836000D01*
X122564320Y-84836000D01*
X122554786Y-84839470D01*
X120815600Y-84839470D01*
X120815600Y-84653241D01*
X126785500Y-84653241D01*
X126789197Y-84663398D01*
X126794569Y-84666500D01*
X128320241Y-84666500D01*
X128330398Y-84662803D01*
X128333500Y-84657431D01*
X128333500Y-84653241D01*
X128841500Y-84653241D01*
X128845197Y-84663398D01*
X128850569Y-84666500D01*
X130376240Y-84666500D01*
X130386397Y-84662803D01*
X130389499Y-84657431D01*
X130389499Y-84462516D01*
X130389098Y-84457046D01*
X130379443Y-84391448D01*
X130376017Y-84380423D01*
X130326016Y-84278581D01*
X130318882Y-84268616D01*
X130238852Y-84188727D01*
X130228866Y-84181603D01*
X130126935Y-84131779D01*
X130115920Y-84128375D01*
X130050936Y-84118894D01*
X130045503Y-84118500D01*
X128854759Y-84118500D01*
X128844602Y-84122197D01*
X128841500Y-84127569D01*
X128841500Y-84653241D01*
X128333500Y-84653241D01*
X128333500Y-84131760D01*
X128329803Y-84121603D01*
X128324431Y-84118501D01*
X127129516Y-84118501D01*
X127124046Y-84118902D01*
X127058448Y-84128557D01*
X127047423Y-84131983D01*
X126945581Y-84181984D01*
X126935616Y-84189118D01*
X126855727Y-84269148D01*
X126848603Y-84279134D01*
X126798779Y-84381065D01*
X126795375Y-84392080D01*
X126785894Y-84457064D01*
X126785500Y-84462497D01*
X126785500Y-84653241D01*
X120815600Y-84653241D01*
X120815600Y-84353347D01*
X120825546Y-84326019D01*
X122555757Y-84326019D01*
X122562268Y-84328000D01*
X123365741Y-84328000D01*
X123375898Y-84324303D01*
X123379000Y-84318931D01*
X123379000Y-84314741D01*
X123887000Y-84314741D01*
X123890697Y-84324898D01*
X123896069Y-84328000D01*
X124701680Y-84328000D01*
X124711214Y-84324530D01*
X124710384Y-84317745D01*
X124693054Y-84278730D01*
X124685326Y-84267486D01*
X124622121Y-84204390D01*
X124610856Y-84196677D01*
X124528001Y-84160047D01*
X124517210Y-84157105D01*
X124501317Y-84155252D01*
X124496978Y-84155000D01*
X123900259Y-84155000D01*
X123890102Y-84158697D01*
X123887000Y-84164069D01*
X123887000Y-84314741D01*
X123379000Y-84314741D01*
X123379000Y-84168259D01*
X123375303Y-84158102D01*
X123369931Y-84155000D01*
X122769072Y-84155000D01*
X122764634Y-84155263D01*
X122748298Y-84157207D01*
X122737536Y-84160165D01*
X122654730Y-84196946D01*
X122643486Y-84204674D01*
X122580390Y-84267879D01*
X122572677Y-84279144D01*
X122556440Y-84315872D01*
X122555757Y-84326019D01*
X120825546Y-84326019D01*
X120833193Y-84305009D01*
X120837626Y-84300173D01*
X121295773Y-83842026D01*
X121342393Y-83820286D01*
X121348947Y-83820000D01*
X130480800Y-83820000D01*
X130529138Y-83837593D01*
G37*
G04 #@! TD.AperFunction*
G04 #@! TA.AperFunction,Conductor*
G36*
X120242138Y-82440593D02*
G01*
X120267858Y-82485142D01*
X120269000Y-82498200D01*
X120269000Y-84030639D01*
X120257349Y-84068221D01*
X120257596Y-84068330D01*
X120256663Y-84070436D01*
X120255813Y-84073177D01*
X120254782Y-84074679D01*
X120254781Y-84074681D01*
X120250856Y-84080403D01*
X120249254Y-84087156D01*
X120249253Y-84087157D01*
X120244509Y-84107149D01*
X120241187Y-84117651D01*
X120232969Y-84138250D01*
X120231001Y-84143183D01*
X120230400Y-84149312D01*
X120230400Y-84157798D01*
X120228368Y-84175162D01*
X120225687Y-84186459D01*
X120226623Y-84193337D01*
X120226623Y-84193338D01*
X120229713Y-84216041D01*
X120230400Y-84226182D01*
X120230400Y-87935800D01*
X120212807Y-87984138D01*
X120168258Y-88009858D01*
X120155200Y-88011000D01*
X112978200Y-88011000D01*
X112929862Y-87993407D01*
X112904142Y-87948858D01*
X112903000Y-87935800D01*
X112903000Y-87379470D01*
X113283786Y-87379470D01*
X113284616Y-87386255D01*
X113301946Y-87425270D01*
X113309674Y-87436514D01*
X113372879Y-87499610D01*
X113384144Y-87507323D01*
X113466999Y-87543953D01*
X113477790Y-87546895D01*
X113493683Y-87548748D01*
X113498022Y-87549000D01*
X114094741Y-87549000D01*
X114104898Y-87545303D01*
X114108000Y-87539931D01*
X114108000Y-87535741D01*
X114616000Y-87535741D01*
X114619697Y-87545898D01*
X114625069Y-87549000D01*
X115225928Y-87549000D01*
X115230366Y-87548737D01*
X115246702Y-87546793D01*
X115257464Y-87543835D01*
X115340270Y-87507054D01*
X115351514Y-87499326D01*
X115414610Y-87436121D01*
X115422323Y-87424856D01*
X115438560Y-87388128D01*
X115439143Y-87379470D01*
X117604786Y-87379470D01*
X117605616Y-87386255D01*
X117622946Y-87425270D01*
X117630674Y-87436514D01*
X117693879Y-87499610D01*
X117705144Y-87507323D01*
X117787999Y-87543953D01*
X117798790Y-87546895D01*
X117814683Y-87548748D01*
X117819022Y-87549000D01*
X118415741Y-87549000D01*
X118425898Y-87545303D01*
X118429000Y-87539931D01*
X118429000Y-87535741D01*
X118937000Y-87535741D01*
X118940697Y-87545898D01*
X118946069Y-87549000D01*
X119546928Y-87549000D01*
X119551366Y-87548737D01*
X119567702Y-87546793D01*
X119578464Y-87543835D01*
X119661270Y-87507054D01*
X119672514Y-87499326D01*
X119735610Y-87436121D01*
X119743323Y-87424856D01*
X119759560Y-87388128D01*
X119760243Y-87377981D01*
X119753732Y-87376000D01*
X118950259Y-87376000D01*
X118940102Y-87379697D01*
X118937000Y-87385069D01*
X118937000Y-87535741D01*
X118429000Y-87535741D01*
X118429000Y-87389259D01*
X118425303Y-87379102D01*
X118419931Y-87376000D01*
X117614320Y-87376000D01*
X117604786Y-87379470D01*
X115439143Y-87379470D01*
X115439243Y-87377981D01*
X115432732Y-87376000D01*
X114629259Y-87376000D01*
X114619102Y-87379697D01*
X114616000Y-87385069D01*
X114616000Y-87535741D01*
X114108000Y-87535741D01*
X114108000Y-87389259D01*
X114104303Y-87379102D01*
X114098931Y-87376000D01*
X113293320Y-87376000D01*
X113283786Y-87379470D01*
X112903000Y-87379470D01*
X112903000Y-86866019D01*
X113284757Y-86866019D01*
X113291268Y-86868000D01*
X114094741Y-86868000D01*
X114104898Y-86864303D01*
X114108000Y-86858931D01*
X114108000Y-86854741D01*
X114616000Y-86854741D01*
X114619697Y-86864898D01*
X114625069Y-86868000D01*
X115430680Y-86868000D01*
X115436123Y-86866019D01*
X117605757Y-86866019D01*
X117612268Y-86868000D01*
X118415741Y-86868000D01*
X118425898Y-86864303D01*
X118429000Y-86858931D01*
X118429000Y-86854741D01*
X118937000Y-86854741D01*
X118940697Y-86864898D01*
X118946069Y-86868000D01*
X119751680Y-86868000D01*
X119761214Y-86864530D01*
X119760384Y-86857745D01*
X119743054Y-86818730D01*
X119735326Y-86807486D01*
X119672121Y-86744390D01*
X119660856Y-86736677D01*
X119578001Y-86700047D01*
X119567210Y-86697105D01*
X119551317Y-86695252D01*
X119546978Y-86695000D01*
X118950259Y-86695000D01*
X118940102Y-86698697D01*
X118937000Y-86704069D01*
X118937000Y-86854741D01*
X118429000Y-86854741D01*
X118429000Y-86708259D01*
X118425303Y-86698102D01*
X118419931Y-86695000D01*
X117819072Y-86695000D01*
X117814634Y-86695263D01*
X117798298Y-86697207D01*
X117787536Y-86700165D01*
X117704730Y-86736946D01*
X117693486Y-86744674D01*
X117630390Y-86807879D01*
X117622677Y-86819144D01*
X117606440Y-86855872D01*
X117605757Y-86866019D01*
X115436123Y-86866019D01*
X115440214Y-86864530D01*
X115439384Y-86857745D01*
X115422054Y-86818730D01*
X115414326Y-86807486D01*
X115351121Y-86744390D01*
X115339856Y-86736677D01*
X115257001Y-86700047D01*
X115246210Y-86697105D01*
X115230317Y-86695252D01*
X115225978Y-86695000D01*
X114629259Y-86695000D01*
X114619102Y-86698697D01*
X114616000Y-86704069D01*
X114616000Y-86854741D01*
X114108000Y-86854741D01*
X114108000Y-86708259D01*
X114104303Y-86698102D01*
X114098931Y-86695000D01*
X113498072Y-86695000D01*
X113493634Y-86695263D01*
X113477298Y-86697207D01*
X113466536Y-86700165D01*
X113383730Y-86736946D01*
X113372486Y-86744674D01*
X113309390Y-86807879D01*
X113301677Y-86819144D01*
X113285440Y-86855872D01*
X113284757Y-86866019D01*
X112903000Y-86866019D01*
X112903000Y-86109470D01*
X113283786Y-86109470D01*
X113284616Y-86116255D01*
X113301946Y-86155270D01*
X113309674Y-86166514D01*
X113372879Y-86229610D01*
X113384144Y-86237323D01*
X113466999Y-86273953D01*
X113477790Y-86276895D01*
X113493683Y-86278748D01*
X113498022Y-86279000D01*
X114094741Y-86279000D01*
X114104898Y-86275303D01*
X114108000Y-86269931D01*
X114108000Y-86265741D01*
X114616000Y-86265741D01*
X114619697Y-86275898D01*
X114625069Y-86279000D01*
X115225928Y-86279000D01*
X115230366Y-86278737D01*
X115246702Y-86276793D01*
X115257464Y-86273835D01*
X115340270Y-86237054D01*
X115351514Y-86229326D01*
X115414610Y-86166121D01*
X115422323Y-86154856D01*
X115438560Y-86118128D01*
X115439143Y-86109470D01*
X117604786Y-86109470D01*
X117605616Y-86116255D01*
X117622946Y-86155270D01*
X117630674Y-86166514D01*
X117693879Y-86229610D01*
X117705144Y-86237323D01*
X117787999Y-86273953D01*
X117798790Y-86276895D01*
X117814683Y-86278748D01*
X117819022Y-86279000D01*
X118415741Y-86279000D01*
X118425898Y-86275303D01*
X118429000Y-86269931D01*
X118429000Y-86265741D01*
X118937000Y-86265741D01*
X118940697Y-86275898D01*
X118946069Y-86279000D01*
X119546928Y-86279000D01*
X119551366Y-86278737D01*
X119567702Y-86276793D01*
X119578464Y-86273835D01*
X119661270Y-86237054D01*
X119672514Y-86229326D01*
X119735610Y-86166121D01*
X119743323Y-86154856D01*
X119759560Y-86118128D01*
X119760243Y-86107981D01*
X119753732Y-86106000D01*
X118950259Y-86106000D01*
X118940102Y-86109697D01*
X118937000Y-86115069D01*
X118937000Y-86265741D01*
X118429000Y-86265741D01*
X118429000Y-86119259D01*
X118425303Y-86109102D01*
X118419931Y-86106000D01*
X117614320Y-86106000D01*
X117604786Y-86109470D01*
X115439143Y-86109470D01*
X115439243Y-86107981D01*
X115432732Y-86106000D01*
X114629259Y-86106000D01*
X114619102Y-86109697D01*
X114616000Y-86115069D01*
X114616000Y-86265741D01*
X114108000Y-86265741D01*
X114108000Y-86119259D01*
X114104303Y-86109102D01*
X114098931Y-86106000D01*
X113293320Y-86106000D01*
X113283786Y-86109470D01*
X112903000Y-86109470D01*
X112903000Y-85596019D01*
X113284757Y-85596019D01*
X113291268Y-85598000D01*
X114094741Y-85598000D01*
X114104898Y-85594303D01*
X114108000Y-85588931D01*
X114108000Y-85584741D01*
X114616000Y-85584741D01*
X114619697Y-85594898D01*
X114625069Y-85598000D01*
X115430680Y-85598000D01*
X115436123Y-85596019D01*
X117605757Y-85596019D01*
X117612268Y-85598000D01*
X118415741Y-85598000D01*
X118425898Y-85594303D01*
X118429000Y-85588931D01*
X118429000Y-85584741D01*
X118937000Y-85584741D01*
X118940697Y-85594898D01*
X118946069Y-85598000D01*
X119751680Y-85598000D01*
X119761214Y-85594530D01*
X119760384Y-85587745D01*
X119743054Y-85548730D01*
X119735326Y-85537486D01*
X119672121Y-85474390D01*
X119660856Y-85466677D01*
X119578001Y-85430047D01*
X119567210Y-85427105D01*
X119551317Y-85425252D01*
X119546978Y-85425000D01*
X118950259Y-85425000D01*
X118940102Y-85428697D01*
X118937000Y-85434069D01*
X118937000Y-85584741D01*
X118429000Y-85584741D01*
X118429000Y-85438259D01*
X118425303Y-85428102D01*
X118419931Y-85425000D01*
X117819072Y-85425000D01*
X117814634Y-85425263D01*
X117798298Y-85427207D01*
X117787536Y-85430165D01*
X117704730Y-85466946D01*
X117693486Y-85474674D01*
X117630390Y-85537879D01*
X117622677Y-85549144D01*
X117606440Y-85585872D01*
X117605757Y-85596019D01*
X115436123Y-85596019D01*
X115440214Y-85594530D01*
X115439384Y-85587745D01*
X115422054Y-85548730D01*
X115414326Y-85537486D01*
X115351121Y-85474390D01*
X115339856Y-85466677D01*
X115257001Y-85430047D01*
X115246210Y-85427105D01*
X115230317Y-85425252D01*
X115225978Y-85425000D01*
X114629259Y-85425000D01*
X114619102Y-85428697D01*
X114616000Y-85434069D01*
X114616000Y-85584741D01*
X114108000Y-85584741D01*
X114108000Y-85438259D01*
X114104303Y-85428102D01*
X114098931Y-85425000D01*
X113498072Y-85425000D01*
X113493634Y-85425263D01*
X113477298Y-85427207D01*
X113466536Y-85430165D01*
X113383730Y-85466946D01*
X113372486Y-85474674D01*
X113309390Y-85537879D01*
X113301677Y-85549144D01*
X113285440Y-85585872D01*
X113284757Y-85596019D01*
X112903000Y-85596019D01*
X112903000Y-84839470D01*
X113283786Y-84839470D01*
X113284616Y-84846255D01*
X113301946Y-84885270D01*
X113309674Y-84896514D01*
X113372879Y-84959610D01*
X113384144Y-84967323D01*
X113466999Y-85003953D01*
X113477790Y-85006895D01*
X113493683Y-85008748D01*
X113498022Y-85009000D01*
X114094741Y-85009000D01*
X114104898Y-85005303D01*
X114108000Y-84999931D01*
X114108000Y-84995741D01*
X114616000Y-84995741D01*
X114619697Y-85005898D01*
X114625069Y-85009000D01*
X115225928Y-85009000D01*
X115230366Y-85008737D01*
X115246702Y-85006793D01*
X115257464Y-85003835D01*
X115340270Y-84967054D01*
X115351514Y-84959326D01*
X115414610Y-84896121D01*
X115422323Y-84884856D01*
X115438560Y-84848128D01*
X115439143Y-84839470D01*
X117604786Y-84839470D01*
X117605616Y-84846255D01*
X117622946Y-84885270D01*
X117630674Y-84896514D01*
X117693879Y-84959610D01*
X117705144Y-84967323D01*
X117787999Y-85003953D01*
X117798790Y-85006895D01*
X117814683Y-85008748D01*
X117819022Y-85009000D01*
X118415741Y-85009000D01*
X118425898Y-85005303D01*
X118429000Y-84999931D01*
X118429000Y-84995741D01*
X118937000Y-84995741D01*
X118940697Y-85005898D01*
X118946069Y-85009000D01*
X119546928Y-85009000D01*
X119551366Y-85008737D01*
X119567702Y-85006793D01*
X119578464Y-85003835D01*
X119661270Y-84967054D01*
X119672514Y-84959326D01*
X119735610Y-84896121D01*
X119743323Y-84884856D01*
X119759560Y-84848128D01*
X119760243Y-84837981D01*
X119753732Y-84836000D01*
X118950259Y-84836000D01*
X118940102Y-84839697D01*
X118937000Y-84845069D01*
X118937000Y-84995741D01*
X118429000Y-84995741D01*
X118429000Y-84849259D01*
X118425303Y-84839102D01*
X118419931Y-84836000D01*
X117614320Y-84836000D01*
X117604786Y-84839470D01*
X115439143Y-84839470D01*
X115439243Y-84837981D01*
X115432732Y-84836000D01*
X114629259Y-84836000D01*
X114619102Y-84839697D01*
X114616000Y-84845069D01*
X114616000Y-84995741D01*
X114108000Y-84995741D01*
X114108000Y-84849259D01*
X114104303Y-84839102D01*
X114098931Y-84836000D01*
X113293320Y-84836000D01*
X113283786Y-84839470D01*
X112903000Y-84839470D01*
X112903000Y-84326019D01*
X113284757Y-84326019D01*
X113291268Y-84328000D01*
X114094741Y-84328000D01*
X114104898Y-84324303D01*
X114108000Y-84318931D01*
X114108000Y-84314741D01*
X114616000Y-84314741D01*
X114619697Y-84324898D01*
X114625069Y-84328000D01*
X115430680Y-84328000D01*
X115436123Y-84326019D01*
X117605757Y-84326019D01*
X117612268Y-84328000D01*
X118415741Y-84328000D01*
X118425898Y-84324303D01*
X118429000Y-84318931D01*
X118429000Y-84314741D01*
X118937000Y-84314741D01*
X118940697Y-84324898D01*
X118946069Y-84328000D01*
X119751680Y-84328000D01*
X119761214Y-84324530D01*
X119760384Y-84317745D01*
X119743054Y-84278730D01*
X119735326Y-84267486D01*
X119672121Y-84204390D01*
X119660856Y-84196677D01*
X119578001Y-84160047D01*
X119567210Y-84157105D01*
X119551317Y-84155252D01*
X119546978Y-84155000D01*
X118950259Y-84155000D01*
X118940102Y-84158697D01*
X118937000Y-84164069D01*
X118937000Y-84314741D01*
X118429000Y-84314741D01*
X118429000Y-84168259D01*
X118425303Y-84158102D01*
X118419931Y-84155000D01*
X117819072Y-84155000D01*
X117814634Y-84155263D01*
X117798298Y-84157207D01*
X117787536Y-84160165D01*
X117704730Y-84196946D01*
X117693486Y-84204674D01*
X117630390Y-84267879D01*
X117622677Y-84279144D01*
X117606440Y-84315872D01*
X117605757Y-84326019D01*
X115436123Y-84326019D01*
X115440214Y-84324530D01*
X115439384Y-84317745D01*
X115422054Y-84278730D01*
X115414326Y-84267486D01*
X115351121Y-84204390D01*
X115339856Y-84196677D01*
X115257001Y-84160047D01*
X115246210Y-84157105D01*
X115230317Y-84155252D01*
X115225978Y-84155000D01*
X114629259Y-84155000D01*
X114619102Y-84158697D01*
X114616000Y-84164069D01*
X114616000Y-84314741D01*
X114108000Y-84314741D01*
X114108000Y-84168259D01*
X114104303Y-84158102D01*
X114098931Y-84155000D01*
X113498072Y-84155000D01*
X113493634Y-84155263D01*
X113477298Y-84157207D01*
X113466536Y-84160165D01*
X113383730Y-84196946D01*
X113372486Y-84204674D01*
X113309390Y-84267879D01*
X113301677Y-84279144D01*
X113285440Y-84315872D01*
X113284757Y-84326019D01*
X112903000Y-84326019D01*
X112903000Y-83569470D01*
X113283786Y-83569470D01*
X113284616Y-83576255D01*
X113301946Y-83615270D01*
X113309674Y-83626514D01*
X113372879Y-83689610D01*
X113384144Y-83697323D01*
X113466999Y-83733953D01*
X113477790Y-83736895D01*
X113493683Y-83738748D01*
X113498022Y-83739000D01*
X114094741Y-83739000D01*
X114104898Y-83735303D01*
X114108000Y-83729931D01*
X114108000Y-83725741D01*
X114616000Y-83725741D01*
X114619697Y-83735898D01*
X114625069Y-83739000D01*
X115225928Y-83739000D01*
X115230366Y-83738737D01*
X115246702Y-83736793D01*
X115257464Y-83733835D01*
X115340270Y-83697054D01*
X115351514Y-83689326D01*
X115414610Y-83626121D01*
X115422323Y-83614856D01*
X115438560Y-83578128D01*
X115439143Y-83569470D01*
X117604786Y-83569470D01*
X117605616Y-83576255D01*
X117622946Y-83615270D01*
X117630674Y-83626514D01*
X117693879Y-83689610D01*
X117705144Y-83697323D01*
X117787999Y-83733953D01*
X117798790Y-83736895D01*
X117814683Y-83738748D01*
X117819022Y-83739000D01*
X118415741Y-83739000D01*
X118425898Y-83735303D01*
X118429000Y-83729931D01*
X118429000Y-83725741D01*
X118937000Y-83725741D01*
X118940697Y-83735898D01*
X118946069Y-83739000D01*
X119546928Y-83739000D01*
X119551366Y-83738737D01*
X119567702Y-83736793D01*
X119578464Y-83733835D01*
X119661270Y-83697054D01*
X119672514Y-83689326D01*
X119735610Y-83626121D01*
X119743323Y-83614856D01*
X119759560Y-83578128D01*
X119760243Y-83567981D01*
X119753732Y-83566000D01*
X118950259Y-83566000D01*
X118940102Y-83569697D01*
X118937000Y-83575069D01*
X118937000Y-83725741D01*
X118429000Y-83725741D01*
X118429000Y-83579259D01*
X118425303Y-83569102D01*
X118419931Y-83566000D01*
X117614320Y-83566000D01*
X117604786Y-83569470D01*
X115439143Y-83569470D01*
X115439243Y-83567981D01*
X115432732Y-83566000D01*
X114629259Y-83566000D01*
X114619102Y-83569697D01*
X114616000Y-83575069D01*
X114616000Y-83725741D01*
X114108000Y-83725741D01*
X114108000Y-83579259D01*
X114104303Y-83569102D01*
X114098931Y-83566000D01*
X113293320Y-83566000D01*
X113283786Y-83569470D01*
X112903000Y-83569470D01*
X112903000Y-83056019D01*
X113284757Y-83056019D01*
X113291268Y-83058000D01*
X114094741Y-83058000D01*
X114104898Y-83054303D01*
X114108000Y-83048931D01*
X114108000Y-83044741D01*
X114616000Y-83044741D01*
X114619697Y-83054898D01*
X114625069Y-83058000D01*
X115430680Y-83058000D01*
X115436123Y-83056019D01*
X117605757Y-83056019D01*
X117612268Y-83058000D01*
X118415741Y-83058000D01*
X118425898Y-83054303D01*
X118429000Y-83048931D01*
X118429000Y-83044741D01*
X118937000Y-83044741D01*
X118940697Y-83054898D01*
X118946069Y-83058000D01*
X119751680Y-83058000D01*
X119761214Y-83054530D01*
X119760384Y-83047745D01*
X119743054Y-83008730D01*
X119735326Y-82997486D01*
X119672121Y-82934390D01*
X119660856Y-82926677D01*
X119578001Y-82890047D01*
X119567210Y-82887105D01*
X119551317Y-82885252D01*
X119546978Y-82885000D01*
X118950259Y-82885000D01*
X118940102Y-82888697D01*
X118937000Y-82894069D01*
X118937000Y-83044741D01*
X118429000Y-83044741D01*
X118429000Y-82898259D01*
X118425303Y-82888102D01*
X118419931Y-82885000D01*
X117819072Y-82885000D01*
X117814634Y-82885263D01*
X117798298Y-82887207D01*
X117787536Y-82890165D01*
X117704730Y-82926946D01*
X117693486Y-82934674D01*
X117630390Y-82997879D01*
X117622677Y-83009144D01*
X117606440Y-83045872D01*
X117605757Y-83056019D01*
X115436123Y-83056019D01*
X115440214Y-83054530D01*
X115439384Y-83047745D01*
X115422054Y-83008730D01*
X115414326Y-82997486D01*
X115351121Y-82934390D01*
X115339856Y-82926677D01*
X115257001Y-82890047D01*
X115246210Y-82887105D01*
X115230317Y-82885252D01*
X115225978Y-82885000D01*
X114629259Y-82885000D01*
X114619102Y-82888697D01*
X114616000Y-82894069D01*
X114616000Y-83044741D01*
X114108000Y-83044741D01*
X114108000Y-82898259D01*
X114104303Y-82888102D01*
X114098931Y-82885000D01*
X113498072Y-82885000D01*
X113493634Y-82885263D01*
X113477298Y-82887207D01*
X113466536Y-82890165D01*
X113383730Y-82926946D01*
X113372486Y-82934674D01*
X113309390Y-82997879D01*
X113301677Y-83009144D01*
X113285440Y-83045872D01*
X113284757Y-83056019D01*
X112903000Y-83056019D01*
X112903000Y-82498200D01*
X112920593Y-82449862D01*
X112965142Y-82424142D01*
X112978200Y-82423000D01*
X120193800Y-82423000D01*
X120242138Y-82440593D01*
G37*
G04 #@! TD.AperFunction*
G04 #@! TA.AperFunction,Conductor*
G36*
X62711138Y-104919593D02*
G01*
X62736858Y-104964142D01*
X62738000Y-104977200D01*
X62738000Y-133007044D01*
X62720407Y-133055382D01*
X62675858Y-133081102D01*
X62662800Y-133082244D01*
X53530000Y-133082244D01*
X53481662Y-133064651D01*
X53455942Y-133020102D01*
X53454800Y-133007044D01*
X53454800Y-104977200D01*
X53472393Y-104928862D01*
X53516942Y-104903142D01*
X53530000Y-104902000D01*
X62662800Y-104902000D01*
X62711138Y-104919593D01*
G37*
G04 #@! TD.AperFunction*
M02*
