%TF.GenerationSoftware,KiCad,Pcbnew,(6.0.5-0)*%
%TF.CreationDate,2022-12-24T17:15:18-05:00*%
%TF.ProjectId,batteryboard,62617474-6572-4796-926f-6172642e6b69,rev?*%
%TF.SameCoordinates,Original*%
%TF.FileFunction,Legend,Top*%
%TF.FilePolarity,Positive*%
%FSLAX46Y46*%
G04 Gerber Fmt 4.6, Leading zero omitted, Abs format (unit mm)*
G04 Created by KiCad (PCBNEW (6.0.5-0)) date 2022-12-24 17:15:18*
%MOMM*%
%LPD*%
G01*
G04 APERTURE LIST*
G04 Aperture macros list*
%AMRoundRect*
0 Rectangle with rounded corners*
0 $1 Rounding radius*
0 $2 $3 $4 $5 $6 $7 $8 $9 X,Y pos of 4 corners*
0 Add a 4 corners polygon primitive as box body*
4,1,4,$2,$3,$4,$5,$6,$7,$8,$9,$2,$3,0*
0 Add four circle primitives for the rounded corners*
1,1,$1+$1,$2,$3*
1,1,$1+$1,$4,$5*
1,1,$1+$1,$6,$7*
1,1,$1+$1,$8,$9*
0 Add four rect primitives between the rounded corners*
20,1,$1+$1,$2,$3,$4,$5,0*
20,1,$1+$1,$4,$5,$6,$7,0*
20,1,$1+$1,$6,$7,$8,$9,0*
20,1,$1+$1,$8,$9,$2,$3,0*%
G04 Aperture macros list end*
%ADD10C,0.400000*%
%TA.AperFunction,Profile*%
%ADD11C,0.150000*%
%TD*%
%ADD12C,0.381000*%
%ADD13C,0.127000*%
%ADD14C,0.355000*%
%ADD15C,0.254000*%
%ADD16C,0.150000*%
%ADD17C,0.200000*%
%ADD18C,0.120000*%
%ADD19C,0.203200*%
%ADD20RoundRect,0.050800X0.500000X-0.300000X0.500000X0.300000X-0.500000X0.300000X-0.500000X-0.300000X0*%
%ADD21RoundRect,0.269550X-0.256250X0.218750X-0.256250X-0.218750X0.256250X-0.218750X0.256250X0.218750X0*%
%ADD22RoundRect,0.269550X0.218750X0.256250X-0.218750X0.256250X-0.218750X-0.256250X0.218750X-0.256250X0*%
%ADD23RoundRect,0.269550X0.256250X-0.218750X0.256250X0.218750X-0.256250X0.218750X-0.256250X-0.218750X0*%
%ADD24RoundRect,0.200800X-0.825000X-0.150000X0.825000X-0.150000X0.825000X0.150000X-0.825000X0.150000X0*%
%ADD25RoundRect,0.200800X0.825000X0.150000X-0.825000X0.150000X-0.825000X-0.150000X0.825000X-0.150000X0*%
%ADD26RoundRect,0.300800X1.425000X-0.425000X1.425000X0.425000X-1.425000X0.425000X-1.425000X-0.425000X0*%
%ADD27C,2.101600*%
%ADD28RoundRect,0.300800X0.250000X1.500000X-0.250000X1.500000X-0.250000X-1.500000X0.250000X-1.500000X0*%
%ADD29RoundRect,0.300801X0.499999X1.449999X-0.499999X1.449999X-0.499999X-1.449999X0.499999X-1.449999X0*%
%ADD30RoundRect,0.063500X1.016000X1.016000X-1.016000X1.016000X-1.016000X-1.016000X1.016000X-1.016000X0*%
%ADD31C,2.159000*%
%ADD32RoundRect,0.063500X-1.016000X-1.016000X1.016000X-1.016000X1.016000X1.016000X-1.016000X1.016000X0*%
%ADD33RoundRect,0.050800X-0.425000X-0.425000X0.425000X-0.425000X0.425000X0.425000X-0.425000X0.425000X0*%
%ADD34C,1.501600*%
%ADD35O,1.501600X1.501600*%
%ADD36C,4.601600*%
%ADD37C,1.671600*%
%ADD38C,3.551600*%
G04 APERTURE END LIST*
D10*
X123752922Y-88290400D02*
G75*
G03*
X123752922Y-88290400I-80322J0D01*
G01*
X109478122Y-82169000D02*
G75*
G03*
X109478122Y-82169000I-80322J0D01*
G01*
D11*
X53200300Y-141979900D02*
G75*
G03*
X55200300Y-143979900I2000000J0D01*
G01*
X147085300Y-143979900D02*
G75*
G03*
X149085300Y-141979900I0J2000000D01*
G01*
X149085300Y-55809900D02*
G75*
G03*
X147085300Y-53809900I-2000000J0D01*
G01*
X55200300Y-53809900D02*
G75*
G03*
X53200300Y-55809900I0J-2000000D01*
G01*
X55200300Y-143979900D02*
X64039500Y-143979900D01*
X137210800Y-141000000D02*
X65074800Y-141000000D01*
X64039500Y-143979900D02*
X65074800Y-141000000D01*
X147085300Y-143979900D02*
X138246100Y-143979900D01*
X65074800Y-57000000D02*
X64096900Y-53809900D01*
X137210800Y-57000000D02*
X65074800Y-57000000D01*
X137210800Y-57000000D02*
X138188700Y-53809900D01*
X147085300Y-53809900D02*
X138188700Y-53809900D01*
X64096900Y-53809900D02*
X55200300Y-53809900D01*
X61000000Y-104500000D02*
X53200300Y-104500000D01*
X141000000Y-95500000D02*
X141000000Y-103500000D01*
X138246100Y-143979900D02*
X137210800Y-141000000D01*
X149085300Y-95500000D02*
X141000000Y-95500000D01*
X149085300Y-141979900D02*
X149085300Y-103500000D01*
X53200300Y-141979900D02*
X53200300Y-104500000D01*
X53200300Y-93000000D02*
X61000000Y-93000000D01*
X53200300Y-55809900D02*
X53200300Y-93000000D01*
X149085300Y-55809900D02*
X149085300Y-95500000D01*
X141000000Y-103500000D02*
X149085300Y-103500000D01*
X61000000Y-93000000D02*
X61000000Y-104500000D01*
D12*
X59118500Y-124850071D02*
X58846357Y-124759357D01*
X58755642Y-124668642D01*
X58664928Y-124487214D01*
X58664928Y-124215071D01*
X58755642Y-124033642D01*
X58846357Y-123942928D01*
X59027785Y-123852214D01*
X59753500Y-123852214D01*
X59753500Y-125757214D01*
X59118500Y-125757214D01*
X58937071Y-125666500D01*
X58846357Y-125575785D01*
X58755642Y-125394357D01*
X58755642Y-125212928D01*
X58846357Y-125031500D01*
X58937071Y-124940785D01*
X59118500Y-124850071D01*
X59753500Y-124850071D01*
X57848500Y-123852214D02*
X57848500Y-125757214D01*
X57213500Y-124396500D01*
X56578500Y-125757214D01*
X56578500Y-123852214D01*
X145188214Y-124850071D02*
X144916071Y-124759357D01*
X144825357Y-124668642D01*
X144734642Y-124487214D01*
X144734642Y-124215071D01*
X144825357Y-124033642D01*
X144916071Y-123942928D01*
X145097500Y-123852214D01*
X145823214Y-123852214D01*
X145823214Y-125757214D01*
X145188214Y-125757214D01*
X145006785Y-125666500D01*
X144916071Y-125575785D01*
X144825357Y-125394357D01*
X144825357Y-125212928D01*
X144916071Y-125031500D01*
X145006785Y-124940785D01*
X145188214Y-124850071D01*
X145823214Y-124850071D01*
X143918214Y-124577928D02*
X142466785Y-124577928D01*
X145178214Y-108138214D02*
X145178214Y-110043214D01*
X144452500Y-110043214D01*
X144271071Y-109952500D01*
X144180357Y-109861785D01*
X144089642Y-109680357D01*
X144089642Y-109408214D01*
X144180357Y-109226785D01*
X144271071Y-109136071D01*
X144452500Y-109045357D01*
X145178214Y-109045357D01*
X143273214Y-108863928D02*
X141821785Y-108863928D01*
X142547500Y-108138214D02*
X142547500Y-109589642D01*
X62928500Y-78368071D02*
X62656357Y-78277357D01*
X62565642Y-78186642D01*
X62474928Y-78005214D01*
X62474928Y-77733071D01*
X62565642Y-77551642D01*
X62656357Y-77460928D01*
X62837785Y-77370214D01*
X63563500Y-77370214D01*
X63563500Y-79275214D01*
X62928500Y-79275214D01*
X62747071Y-79184500D01*
X62656357Y-79093785D01*
X62565642Y-78912357D01*
X62565642Y-78730928D01*
X62656357Y-78549500D01*
X62747071Y-78458785D01*
X62928500Y-78368071D01*
X63563500Y-78368071D01*
X61658500Y-77370214D02*
X61658500Y-79275214D01*
X61023500Y-77914500D01*
X60388500Y-79275214D01*
X60388500Y-77370214D01*
X104557285Y-60080071D02*
X106008714Y-60080071D01*
X108367285Y-60080071D02*
X109818714Y-60080071D01*
X109093000Y-60805785D02*
X109093000Y-59354357D01*
X94451714Y-72507928D02*
X93000285Y-72507928D01*
X96991714Y-72507928D02*
X95540285Y-72507928D01*
X96266000Y-71782214D02*
X96266000Y-73233642D01*
X114209285Y-60080071D02*
X115660714Y-60080071D01*
X118019285Y-60080071D02*
X119470714Y-60080071D01*
X118745000Y-60805785D02*
X118745000Y-59354357D01*
X119470714Y-78095928D02*
X118019285Y-78095928D01*
X115660714Y-78095928D02*
X114209285Y-78095928D01*
X114935000Y-77370214D02*
X114935000Y-78821642D01*
X109818714Y-78095928D02*
X108367285Y-78095928D01*
X106008714Y-78095928D02*
X104557285Y-78095928D01*
X105283000Y-77370214D02*
X105283000Y-78821642D01*
D13*
X103232857Y-96788695D02*
X103232857Y-97550695D01*
X102797428Y-96788695D01*
X102797428Y-97550695D01*
X102543428Y-97550695D02*
X102108000Y-97550695D01*
X102325714Y-96788695D02*
X102325714Y-97550695D01*
X101418571Y-96861267D02*
X101454857Y-96824981D01*
X101563714Y-96788695D01*
X101636285Y-96788695D01*
X101745142Y-96824981D01*
X101817714Y-96897552D01*
X101854000Y-96970124D01*
X101890285Y-97115267D01*
X101890285Y-97224124D01*
X101854000Y-97369267D01*
X101817714Y-97441838D01*
X101745142Y-97514410D01*
X101636285Y-97550695D01*
X101563714Y-97550695D01*
X101454857Y-97514410D01*
X101418571Y-97478124D01*
X100620285Y-97550695D02*
X100184857Y-97550695D01*
X100402571Y-96788695D02*
X100402571Y-97550695D01*
X99930857Y-96788695D02*
X99930857Y-97550695D01*
X99604285Y-96788695D02*
X99604285Y-97187838D01*
X99640571Y-97260410D01*
X99713142Y-97296695D01*
X99822000Y-97296695D01*
X99894571Y-97260410D01*
X99930857Y-97224124D01*
X98951142Y-96824981D02*
X99023714Y-96788695D01*
X99168857Y-96788695D01*
X99241428Y-96824981D01*
X99277714Y-96897552D01*
X99277714Y-97187838D01*
X99241428Y-97260410D01*
X99168857Y-97296695D01*
X99023714Y-97296695D01*
X98951142Y-97260410D01*
X98914857Y-97187838D01*
X98914857Y-97115267D01*
X99277714Y-97042695D01*
X98588285Y-96788695D02*
X98588285Y-97296695D01*
X98588285Y-97151552D02*
X98552000Y-97224124D01*
X98515714Y-97260410D01*
X98443142Y-97296695D01*
X98370571Y-97296695D01*
X98116571Y-96788695D02*
X98116571Y-97296695D01*
X98116571Y-97224124D02*
X98080285Y-97260410D01*
X98007714Y-97296695D01*
X97898857Y-97296695D01*
X97826285Y-97260410D01*
X97790000Y-97187838D01*
X97790000Y-96788695D01*
X97790000Y-97187838D02*
X97753714Y-97260410D01*
X97681142Y-97296695D01*
X97572285Y-97296695D01*
X97499714Y-97260410D01*
X97463428Y-97187838D01*
X97463428Y-96788695D01*
X97100571Y-96788695D02*
X97100571Y-97296695D01*
X97100571Y-97550695D02*
X97136857Y-97514410D01*
X97100571Y-97478124D01*
X97064285Y-97514410D01*
X97100571Y-97550695D01*
X97100571Y-97478124D01*
X96774000Y-96824981D02*
X96701428Y-96788695D01*
X96556285Y-96788695D01*
X96483714Y-96824981D01*
X96447428Y-96897552D01*
X96447428Y-96933838D01*
X96483714Y-97006410D01*
X96556285Y-97042695D01*
X96665142Y-97042695D01*
X96737714Y-97078981D01*
X96774000Y-97151552D01*
X96774000Y-97187838D01*
X96737714Y-97260410D01*
X96665142Y-97296695D01*
X96556285Y-97296695D01*
X96483714Y-97260410D01*
X96229714Y-97296695D02*
X95939428Y-97296695D01*
X96120857Y-97550695D02*
X96120857Y-96897552D01*
X96084571Y-96824981D01*
X96012000Y-96788695D01*
X95939428Y-96788695D01*
X95576571Y-96788695D02*
X95649142Y-96824981D01*
X95685428Y-96861267D01*
X95721714Y-96933838D01*
X95721714Y-97151552D01*
X95685428Y-97224124D01*
X95649142Y-97260410D01*
X95576571Y-97296695D01*
X95467714Y-97296695D01*
X95395142Y-97260410D01*
X95358857Y-97224124D01*
X95322571Y-97151552D01*
X95322571Y-96933838D01*
X95358857Y-96861267D01*
X95395142Y-96824981D01*
X95467714Y-96788695D01*
X95576571Y-96788695D01*
X94996000Y-96788695D02*
X94996000Y-97296695D01*
X94996000Y-97151552D02*
X94959714Y-97224124D01*
X94923428Y-97260410D01*
X94850857Y-97296695D01*
X94778285Y-97296695D01*
X102851857Y-95561875D02*
X103287285Y-95561875D01*
X103069571Y-95561875D02*
X103069571Y-96323875D01*
X103142142Y-96215018D01*
X103214714Y-96142447D01*
X103287285Y-96106161D01*
X102380142Y-96323875D02*
X102307571Y-96323875D01*
X102235000Y-96287590D01*
X102198714Y-96251304D01*
X102162428Y-96178732D01*
X102126142Y-96033590D01*
X102126142Y-95852161D01*
X102162428Y-95707018D01*
X102198714Y-95634447D01*
X102235000Y-95598161D01*
X102307571Y-95561875D01*
X102380142Y-95561875D01*
X102452714Y-95598161D01*
X102489000Y-95634447D01*
X102525285Y-95707018D01*
X102561571Y-95852161D01*
X102561571Y-96033590D01*
X102525285Y-96178732D01*
X102489000Y-96251304D01*
X102452714Y-96287590D01*
X102380142Y-96323875D01*
X101799571Y-95561875D02*
X101799571Y-96323875D01*
X101364142Y-95561875D02*
X101690714Y-95997304D01*
X101364142Y-96323875D02*
X101799571Y-95888447D01*
X100457000Y-95852161D02*
X99876428Y-95852161D01*
X98715285Y-95271590D02*
X98751571Y-95307875D01*
X98824142Y-95416732D01*
X98860428Y-95489304D01*
X98896714Y-95598161D01*
X98933000Y-95779590D01*
X98933000Y-95924732D01*
X98896714Y-96106161D01*
X98860428Y-96215018D01*
X98824142Y-96287590D01*
X98751571Y-96396447D01*
X98715285Y-96432732D01*
X98025857Y-95561875D02*
X98461285Y-95561875D01*
X98243571Y-95561875D02*
X98243571Y-96323875D01*
X98316142Y-96215018D01*
X98388714Y-96142447D01*
X98461285Y-96106161D01*
X97554142Y-96323875D02*
X97481571Y-96323875D01*
X97409000Y-96287590D01*
X97372714Y-96251304D01*
X97336428Y-96178732D01*
X97300142Y-96033590D01*
X97300142Y-95852161D01*
X97336428Y-95707018D01*
X97372714Y-95634447D01*
X97409000Y-95598161D01*
X97481571Y-95561875D01*
X97554142Y-95561875D01*
X97626714Y-95598161D01*
X97663000Y-95634447D01*
X97699285Y-95707018D01*
X97735571Y-95852161D01*
X97735571Y-96033590D01*
X97699285Y-96178732D01*
X97663000Y-96251304D01*
X97626714Y-96287590D01*
X97554142Y-96323875D01*
X97046142Y-96323875D02*
X96574428Y-96323875D01*
X96828428Y-96033590D01*
X96719571Y-96033590D01*
X96647000Y-95997304D01*
X96610714Y-95961018D01*
X96574428Y-95888447D01*
X96574428Y-95707018D01*
X96610714Y-95634447D01*
X96647000Y-95598161D01*
X96719571Y-95561875D01*
X96937285Y-95561875D01*
X97009857Y-95598161D01*
X97046142Y-95634447D01*
X96284142Y-95779590D02*
X95921285Y-95779590D01*
X96356714Y-95561875D02*
X96102714Y-96323875D01*
X95848714Y-95561875D01*
X95703571Y-96323875D02*
X95268142Y-96323875D01*
X95485857Y-95561875D02*
X95485857Y-96323875D01*
X95086714Y-95271590D02*
X95050428Y-95307875D01*
X94977857Y-95416732D01*
X94941571Y-95489304D01*
X94905285Y-95598161D01*
X94869000Y-95779590D01*
X94869000Y-95924732D01*
X94905285Y-96106161D01*
X94941571Y-96215018D01*
X94977857Y-96287590D01*
X95050428Y-96396447D01*
X95086714Y-96432732D01*
D14*
X100607142Y-59678571D02*
X100535714Y-59750000D01*
X100392857Y-59821428D01*
X100035714Y-59821428D01*
X99892857Y-59750000D01*
X99821428Y-59678571D01*
X99750000Y-59535714D01*
X99750000Y-59392857D01*
X99821428Y-59178571D01*
X100678571Y-58321428D01*
X99750000Y-58321428D01*
X99178571Y-58392857D02*
X98964285Y-58321428D01*
X98607142Y-58321428D01*
X98464285Y-58392857D01*
X98392857Y-58464285D01*
X98321428Y-58607142D01*
X98321428Y-58750000D01*
X98392857Y-58892857D01*
X98464285Y-58964285D01*
X98607142Y-59035714D01*
X98892857Y-59107142D01*
X99035714Y-59178571D01*
X99107142Y-59250000D01*
X99178571Y-59392857D01*
X99178571Y-59535714D01*
X99107142Y-59678571D01*
X99035714Y-59750000D01*
X98892857Y-59821428D01*
X98535714Y-59821428D01*
X98321428Y-59750000D01*
X97750000Y-59678571D02*
X97678571Y-59750000D01*
X97535714Y-59821428D01*
X97178571Y-59821428D01*
X97035714Y-59750000D01*
X96964285Y-59678571D01*
X96892857Y-59535714D01*
X96892857Y-59392857D01*
X96964285Y-59178571D01*
X97821428Y-58321428D01*
X96892857Y-58321428D01*
X96250000Y-58321428D02*
X96250000Y-59821428D01*
X95678571Y-59821428D01*
X95535714Y-59750000D01*
X95464285Y-59678571D01*
X95392857Y-59535714D01*
X95392857Y-59321428D01*
X95464285Y-59178571D01*
X95535714Y-59107142D01*
X95678571Y-59035714D01*
X96250000Y-59035714D01*
X92964285Y-59821428D02*
X93250000Y-59821428D01*
X93392857Y-59750000D01*
X93464285Y-59678571D01*
X93607142Y-59464285D01*
X93678571Y-59178571D01*
X93678571Y-58607142D01*
X93607142Y-58464285D01*
X93535714Y-58392857D01*
X93392857Y-58321428D01*
X93107142Y-58321428D01*
X92964285Y-58392857D01*
X92892857Y-58464285D01*
X92821428Y-58607142D01*
X92821428Y-58964285D01*
X92892857Y-59107142D01*
X92964285Y-59178571D01*
X93107142Y-59250000D01*
X93392857Y-59250000D01*
X93535714Y-59178571D01*
X93607142Y-59107142D01*
X93678571Y-58964285D01*
X92178571Y-58464285D02*
X92107142Y-58392857D01*
X92178571Y-58321428D01*
X92250000Y-58392857D01*
X92178571Y-58464285D01*
X92178571Y-58321428D01*
X91392857Y-58321428D02*
X91107142Y-58321428D01*
X90964285Y-58392857D01*
X90892857Y-58464285D01*
X90750000Y-58678571D01*
X90678571Y-58964285D01*
X90678571Y-59535714D01*
X90750000Y-59678571D01*
X90821428Y-59750000D01*
X90964285Y-59821428D01*
X91250000Y-59821428D01*
X91392857Y-59750000D01*
X91464285Y-59678571D01*
X91535714Y-59535714D01*
X91535714Y-59178571D01*
X91464285Y-59035714D01*
X91392857Y-58964285D01*
X91250000Y-58892857D01*
X90964285Y-58892857D01*
X90821428Y-58964285D01*
X90750000Y-59035714D01*
X90678571Y-59178571D01*
X90250000Y-59821428D02*
X89750000Y-58321428D01*
X89250000Y-59821428D01*
D13*
X99731285Y-76359838D02*
X99622428Y-76323552D01*
X99586142Y-76287267D01*
X99549857Y-76214695D01*
X99549857Y-76105838D01*
X99586142Y-76033267D01*
X99622428Y-75996981D01*
X99695000Y-75960695D01*
X99985285Y-75960695D01*
X99985285Y-76722695D01*
X99731285Y-76722695D01*
X99658714Y-76686410D01*
X99622428Y-76650124D01*
X99586142Y-76577552D01*
X99586142Y-76504981D01*
X99622428Y-76432410D01*
X99658714Y-76396124D01*
X99731285Y-76359838D01*
X99985285Y-76359838D01*
X99259571Y-76178410D02*
X98896714Y-76178410D01*
X99332142Y-75960695D02*
X99078142Y-76722695D01*
X98824142Y-75960695D01*
X98679000Y-76722695D02*
X98243571Y-76722695D01*
X98461285Y-75960695D02*
X98461285Y-76722695D01*
X98171000Y-75888124D02*
X97590428Y-75888124D01*
X97517857Y-76722695D02*
X97082428Y-76722695D01*
X97300142Y-75960695D02*
X97300142Y-76722695D01*
X96828428Y-75960695D02*
X96828428Y-76722695D01*
X96828428Y-76359838D02*
X96393000Y-76359838D01*
X96393000Y-75960695D02*
X96393000Y-76722695D01*
X96030142Y-76359838D02*
X95776142Y-76359838D01*
X95667285Y-75960695D02*
X96030142Y-75960695D01*
X96030142Y-76722695D01*
X95667285Y-76722695D01*
X94905285Y-75960695D02*
X95159285Y-76323552D01*
X95340714Y-75960695D02*
X95340714Y-76722695D01*
X95050428Y-76722695D01*
X94977857Y-76686410D01*
X94941571Y-76650124D01*
X94905285Y-76577552D01*
X94905285Y-76468695D01*
X94941571Y-76396124D01*
X94977857Y-76359838D01*
X95050428Y-76323552D01*
X95340714Y-76323552D01*
X94578714Y-75960695D02*
X94578714Y-76722695D01*
X94324714Y-76178410D01*
X94070714Y-76722695D01*
X94070714Y-75960695D01*
X99822000Y-74443590D02*
X99858285Y-74479875D01*
X99930857Y-74588732D01*
X99967142Y-74661304D01*
X100003428Y-74770161D01*
X100039714Y-74951590D01*
X100039714Y-75096732D01*
X100003428Y-75278161D01*
X99967142Y-75387018D01*
X99930857Y-75459590D01*
X99858285Y-75568447D01*
X99822000Y-75604732D01*
X99386571Y-75495875D02*
X99241428Y-75495875D01*
X99168857Y-75459590D01*
X99096285Y-75387018D01*
X99060000Y-75241875D01*
X99060000Y-74987875D01*
X99096285Y-74842732D01*
X99168857Y-74770161D01*
X99241428Y-74733875D01*
X99386571Y-74733875D01*
X99459142Y-74770161D01*
X99531714Y-74842732D01*
X99568000Y-74987875D01*
X99568000Y-75241875D01*
X99531714Y-75387018D01*
X99459142Y-75459590D01*
X99386571Y-75495875D01*
X98733428Y-74733875D02*
X98733428Y-75495875D01*
X98443142Y-75495875D01*
X98370571Y-75459590D01*
X98334285Y-75423304D01*
X98298000Y-75350732D01*
X98298000Y-75241875D01*
X98334285Y-75169304D01*
X98370571Y-75133018D01*
X98443142Y-75096732D01*
X98733428Y-75096732D01*
X98080285Y-75495875D02*
X97644857Y-75495875D01*
X97862571Y-74733875D02*
X97862571Y-75495875D01*
X97390857Y-74733875D02*
X97390857Y-75495875D01*
X96882857Y-75495875D02*
X96737714Y-75495875D01*
X96665142Y-75459590D01*
X96592571Y-75387018D01*
X96556285Y-75241875D01*
X96556285Y-74987875D01*
X96592571Y-74842732D01*
X96665142Y-74770161D01*
X96737714Y-74733875D01*
X96882857Y-74733875D01*
X96955428Y-74770161D01*
X97028000Y-74842732D01*
X97064285Y-74987875D01*
X97064285Y-75241875D01*
X97028000Y-75387018D01*
X96955428Y-75459590D01*
X96882857Y-75495875D01*
X96229714Y-74733875D02*
X96229714Y-75495875D01*
X95794285Y-74733875D01*
X95794285Y-75495875D01*
X95467714Y-74951590D02*
X95104857Y-74951590D01*
X95540285Y-74733875D02*
X95286285Y-75495875D01*
X95032285Y-74733875D01*
X94415428Y-74733875D02*
X94778285Y-74733875D01*
X94778285Y-75495875D01*
X94234000Y-74443590D02*
X94197714Y-74479875D01*
X94125142Y-74588732D01*
X94088857Y-74661304D01*
X94052571Y-74770161D01*
X94016285Y-74951590D01*
X94016285Y-75096732D01*
X94052571Y-75278161D01*
X94088857Y-75387018D01*
X94125142Y-75459590D01*
X94197714Y-75568447D01*
X94234000Y-75604732D01*
D15*
X95968380Y-137459619D02*
X95629714Y-136975809D01*
X95387809Y-137459619D02*
X95387809Y-136443619D01*
X95774857Y-136443619D01*
X95871619Y-136492000D01*
X95920000Y-136540380D01*
X95968380Y-136637142D01*
X95968380Y-136782285D01*
X95920000Y-136879047D01*
X95871619Y-136927428D01*
X95774857Y-136975809D01*
X95387809Y-136975809D01*
X96742476Y-136927428D02*
X96887619Y-136975809D01*
X96936000Y-137024190D01*
X96984380Y-137120952D01*
X96984380Y-137266095D01*
X96936000Y-137362857D01*
X96887619Y-137411238D01*
X96790857Y-137459619D01*
X96403809Y-137459619D01*
X96403809Y-136443619D01*
X96742476Y-136443619D01*
X96839238Y-136492000D01*
X96887619Y-136540380D01*
X96936000Y-136637142D01*
X96936000Y-136733904D01*
X96887619Y-136830666D01*
X96839238Y-136879047D01*
X96742476Y-136927428D01*
X96403809Y-136927428D01*
X97758476Y-136927428D02*
X97419809Y-136927428D01*
X97419809Y-137459619D02*
X97419809Y-136443619D01*
X97903619Y-136443619D01*
X99064761Y-137459619D02*
X99064761Y-136443619D01*
X99451809Y-136443619D01*
X99548571Y-136492000D01*
X99596952Y-136540380D01*
X99645333Y-136637142D01*
X99645333Y-136782285D01*
X99596952Y-136879047D01*
X99548571Y-136927428D01*
X99451809Y-136975809D01*
X99064761Y-136975809D01*
X100274285Y-136443619D02*
X100467809Y-136443619D01*
X100564571Y-136492000D01*
X100661333Y-136588761D01*
X100709714Y-136782285D01*
X100709714Y-137120952D01*
X100661333Y-137314476D01*
X100564571Y-137411238D01*
X100467809Y-137459619D01*
X100274285Y-137459619D01*
X100177523Y-137411238D01*
X100080761Y-137314476D01*
X100032380Y-137120952D01*
X100032380Y-136782285D01*
X100080761Y-136588761D01*
X100177523Y-136492000D01*
X100274285Y-136443619D01*
X101725714Y-137459619D02*
X101387047Y-136975809D01*
X101145142Y-137459619D02*
X101145142Y-136443619D01*
X101532190Y-136443619D01*
X101628952Y-136492000D01*
X101677333Y-136540380D01*
X101725714Y-136637142D01*
X101725714Y-136782285D01*
X101677333Y-136879047D01*
X101628952Y-136927428D01*
X101532190Y-136975809D01*
X101145142Y-136975809D01*
X102016000Y-136443619D02*
X102596571Y-136443619D01*
X102306285Y-137459619D02*
X102306285Y-136443619D01*
X103660952Y-137411238D02*
X103806095Y-137459619D01*
X104048000Y-137459619D01*
X104144761Y-137411238D01*
X104193142Y-137362857D01*
X104241523Y-137266095D01*
X104241523Y-137169333D01*
X104193142Y-137072571D01*
X104144761Y-137024190D01*
X104048000Y-136975809D01*
X103854476Y-136927428D01*
X103757714Y-136879047D01*
X103709333Y-136830666D01*
X103660952Y-136733904D01*
X103660952Y-136637142D01*
X103709333Y-136540380D01*
X103757714Y-136492000D01*
X103854476Y-136443619D01*
X104096380Y-136443619D01*
X104241523Y-136492000D01*
X104676952Y-137459619D02*
X104676952Y-136443619D01*
X105160761Y-137459619D02*
X105160761Y-136443619D01*
X105402666Y-136443619D01*
X105547809Y-136492000D01*
X105644571Y-136588761D01*
X105692952Y-136685523D01*
X105741333Y-136879047D01*
X105741333Y-137024190D01*
X105692952Y-137217714D01*
X105644571Y-137314476D01*
X105547809Y-137411238D01*
X105402666Y-137459619D01*
X105160761Y-137459619D01*
X106176761Y-136927428D02*
X106515428Y-136927428D01*
X106660571Y-137459619D02*
X106176761Y-137459619D01*
X106176761Y-136443619D01*
X106660571Y-136443619D01*
X89090614Y-72647902D02*
X89776328Y-72647902D01*
X89433471Y-72647902D02*
X89433471Y-73847902D01*
X89547757Y-73676474D01*
X89662042Y-73562188D01*
X89776328Y-73505045D01*
X88576328Y-72762188D02*
X88519185Y-72705045D01*
X88576328Y-72647902D01*
X88633471Y-72705045D01*
X88576328Y-72762188D01*
X88576328Y-72647902D01*
X86404900Y-72762188D02*
X86462042Y-72705045D01*
X86633471Y-72647902D01*
X86747757Y-72647902D01*
X86919185Y-72705045D01*
X87033471Y-72819331D01*
X87090614Y-72933617D01*
X87147757Y-73162188D01*
X87147757Y-73333617D01*
X87090614Y-73562188D01*
X87033471Y-73676474D01*
X86919185Y-73790760D01*
X86747757Y-73847902D01*
X86633471Y-73847902D01*
X86462042Y-73790760D01*
X86404900Y-73733617D01*
X85890614Y-72647902D02*
X85890614Y-73847902D01*
X85890614Y-73276474D02*
X85204900Y-73276474D01*
X85204900Y-72647902D02*
X85204900Y-73847902D01*
X84633471Y-73276474D02*
X84233471Y-73276474D01*
X84062042Y-72647902D02*
X84633471Y-72647902D01*
X84633471Y-73847902D01*
X84062042Y-73847902D01*
X82862042Y-72762188D02*
X82919185Y-72705045D01*
X83090614Y-72647902D01*
X83204900Y-72647902D01*
X83376328Y-72705045D01*
X83490614Y-72819331D01*
X83547757Y-72933617D01*
X83604900Y-73162188D01*
X83604900Y-73333617D01*
X83547757Y-73562188D01*
X83490614Y-73676474D01*
X83376328Y-73790760D01*
X83204900Y-73847902D01*
X83090614Y-73847902D01*
X82919185Y-73790760D01*
X82862042Y-73733617D01*
X82347757Y-72647902D02*
X82347757Y-73847902D01*
X81662042Y-72647902D02*
X82176328Y-73333617D01*
X81662042Y-73847902D02*
X82347757Y-73162188D01*
X79547757Y-72762188D02*
X79604900Y-72705045D01*
X79776328Y-72647902D01*
X79890614Y-72647902D01*
X80062042Y-72705045D01*
X80176328Y-72819331D01*
X80233471Y-72933617D01*
X80290614Y-73162188D01*
X80290614Y-73333617D01*
X80233471Y-73562188D01*
X80176328Y-73676474D01*
X80062042Y-73790760D01*
X79890614Y-73847902D01*
X79776328Y-73847902D01*
X79604900Y-73790760D01*
X79547757Y-73733617D01*
X79033471Y-73276474D02*
X78633471Y-73276474D01*
X78462042Y-72647902D02*
X79033471Y-72647902D01*
X79033471Y-73847902D01*
X78462042Y-73847902D01*
X77376328Y-72647902D02*
X77947757Y-72647902D01*
X77947757Y-73847902D01*
X76404900Y-72647902D02*
X76976328Y-72647902D01*
X76976328Y-73847902D01*
X75090614Y-72647902D02*
X75090614Y-73847902D01*
X74633471Y-73847902D01*
X74519185Y-73790760D01*
X74462042Y-73733617D01*
X74404900Y-73619331D01*
X74404900Y-73447902D01*
X74462042Y-73333617D01*
X74519185Y-73276474D01*
X74633471Y-73219331D01*
X75090614Y-73219331D01*
X73662042Y-73847902D02*
X73433471Y-73847902D01*
X73319185Y-73790760D01*
X73204900Y-73676474D01*
X73147757Y-73447902D01*
X73147757Y-73047902D01*
X73204900Y-72819331D01*
X73319185Y-72705045D01*
X73433471Y-72647902D01*
X73662042Y-72647902D01*
X73776328Y-72705045D01*
X73890614Y-72819331D01*
X73947757Y-73047902D01*
X73947757Y-73447902D01*
X73890614Y-73676474D01*
X73776328Y-73790760D01*
X73662042Y-73847902D01*
X72062042Y-72647902D02*
X72633471Y-72647902D01*
X72633471Y-73847902D01*
X71719185Y-72990760D02*
X71147757Y-72990760D01*
X71833471Y-72647902D02*
X71433471Y-73847902D01*
X71033471Y-72647902D01*
X69947757Y-72647902D02*
X70347757Y-73219331D01*
X70633471Y-72647902D02*
X70633471Y-73847902D01*
X70176328Y-73847902D01*
X70062042Y-73790760D01*
X70004900Y-73733617D01*
X69947757Y-73619331D01*
X69947757Y-73447902D01*
X70004900Y-73333617D01*
X70062042Y-73276474D01*
X70176328Y-73219331D01*
X70633471Y-73219331D01*
X69433471Y-72647902D02*
X69433471Y-73847902D01*
X69033471Y-73847902D02*
X68347757Y-73847902D01*
X68690614Y-72647902D02*
X68690614Y-73847902D01*
X67719185Y-73219331D02*
X67719185Y-72647902D01*
X68119185Y-73847902D02*
X67719185Y-73219331D01*
X67319185Y-73847902D01*
X65604900Y-73276474D02*
X65433471Y-73219331D01*
X65376328Y-73162188D01*
X65319185Y-73047902D01*
X65319185Y-72876474D01*
X65376328Y-72762188D01*
X65433471Y-72705045D01*
X65547757Y-72647902D01*
X66004900Y-72647902D01*
X66004900Y-73847902D01*
X65604900Y-73847902D01*
X65490614Y-73790760D01*
X65433471Y-73733617D01*
X65376328Y-73619331D01*
X65376328Y-73505045D01*
X65433471Y-73390760D01*
X65490614Y-73333617D01*
X65604900Y-73276474D01*
X66004900Y-73276474D01*
X64804900Y-73276474D02*
X64404900Y-73276474D01*
X64233471Y-72647902D02*
X64804900Y-72647902D01*
X64804900Y-73847902D01*
X64233471Y-73847902D01*
X63319185Y-73276474D02*
X63719185Y-73276474D01*
X63719185Y-72647902D02*
X63719185Y-73847902D01*
X63147757Y-73847902D01*
X62462042Y-73847902D02*
X62233471Y-73847902D01*
X62119185Y-73790760D01*
X62004900Y-73676474D01*
X61947757Y-73447902D01*
X61947757Y-73047902D01*
X62004900Y-72819331D01*
X62119185Y-72705045D01*
X62233471Y-72647902D01*
X62462042Y-72647902D01*
X62576328Y-72705045D01*
X62690614Y-72819331D01*
X62747757Y-73047902D01*
X62747757Y-73447902D01*
X62690614Y-73676474D01*
X62576328Y-73790760D01*
X62462042Y-73847902D01*
X60747757Y-72647902D02*
X61147757Y-73219331D01*
X61433471Y-72647902D02*
X61433471Y-73847902D01*
X60976328Y-73847902D01*
X60862042Y-73790760D01*
X60804900Y-73733617D01*
X60747757Y-73619331D01*
X60747757Y-73447902D01*
X60804900Y-73333617D01*
X60862042Y-73276474D01*
X60976328Y-73219331D01*
X61433471Y-73219331D01*
X60233471Y-73276474D02*
X59833471Y-73276474D01*
X59662042Y-72647902D02*
X60233471Y-72647902D01*
X60233471Y-73847902D01*
X59662042Y-73847902D01*
X86062042Y-70715902D02*
X86062042Y-71915902D01*
X85490614Y-70715902D02*
X85490614Y-71915902D01*
X84804900Y-70715902D01*
X84804900Y-71915902D01*
X84290614Y-70773045D02*
X84119185Y-70715902D01*
X83833471Y-70715902D01*
X83719185Y-70773045D01*
X83662042Y-70830188D01*
X83604900Y-70944474D01*
X83604900Y-71058760D01*
X83662042Y-71173045D01*
X83719185Y-71230188D01*
X83833471Y-71287331D01*
X84062042Y-71344474D01*
X84176328Y-71401617D01*
X84233471Y-71458760D01*
X84290614Y-71573045D01*
X84290614Y-71687331D01*
X84233471Y-71801617D01*
X84176328Y-71858760D01*
X84062042Y-71915902D01*
X83776328Y-71915902D01*
X83604900Y-71858760D01*
X83262042Y-71915902D02*
X82576328Y-71915902D01*
X82919185Y-70715902D02*
X82919185Y-71915902D01*
X82233471Y-71058760D02*
X81662042Y-71058760D01*
X82347757Y-70715902D02*
X81947757Y-71915902D01*
X81547757Y-70715902D01*
X80576328Y-70715902D02*
X81147757Y-70715902D01*
X81147757Y-71915902D01*
X79604900Y-70715902D02*
X80176328Y-70715902D01*
X80176328Y-71915902D01*
X79204900Y-70715902D02*
X79204900Y-71915902D01*
X78633471Y-70715902D02*
X78633471Y-71915902D01*
X77947757Y-70715902D01*
X77947757Y-71915902D01*
X76747757Y-71858760D02*
X76862042Y-71915902D01*
X77033471Y-71915902D01*
X77204900Y-71858760D01*
X77319185Y-71744474D01*
X77376328Y-71630188D01*
X77433471Y-71401617D01*
X77433471Y-71230188D01*
X77376328Y-71001617D01*
X77319185Y-70887331D01*
X77204900Y-70773045D01*
X77033471Y-70715902D01*
X76919185Y-70715902D01*
X76747757Y-70773045D01*
X76690614Y-70830188D01*
X76690614Y-71230188D01*
X76919185Y-71230188D01*
X75262042Y-70715902D02*
X75262042Y-71915902D01*
X74690614Y-70715902D02*
X74690614Y-71915902D01*
X74004900Y-70715902D01*
X74004900Y-71915902D01*
X72690614Y-71915902D02*
X72004900Y-71915902D01*
X72347757Y-70715902D02*
X72347757Y-71915902D01*
X71376328Y-71915902D02*
X71147757Y-71915902D01*
X71033471Y-71858760D01*
X70919185Y-71744474D01*
X70862042Y-71515902D01*
X70862042Y-71115902D01*
X70919185Y-70887331D01*
X71033471Y-70773045D01*
X71147757Y-70715902D01*
X71376328Y-70715902D01*
X71490614Y-70773045D01*
X71604900Y-70887331D01*
X71662042Y-71115902D01*
X71662042Y-71515902D01*
X71604900Y-71744474D01*
X71490614Y-71858760D01*
X71376328Y-71915902D01*
X69433471Y-70715902D02*
X69433471Y-71915902D01*
X68976328Y-71915902D01*
X68862042Y-71858760D01*
X68804900Y-71801617D01*
X68747757Y-71687331D01*
X68747757Y-71515902D01*
X68804900Y-71401617D01*
X68862042Y-71344474D01*
X68976328Y-71287331D01*
X69433471Y-71287331D01*
X68290614Y-71058760D02*
X67719185Y-71058760D01*
X68404900Y-70715902D02*
X68004900Y-71915902D01*
X67604900Y-70715902D01*
X66519185Y-70830188D02*
X66576328Y-70773045D01*
X66747757Y-70715902D01*
X66862042Y-70715902D01*
X67033471Y-70773045D01*
X67147757Y-70887331D01*
X67204900Y-71001617D01*
X67262042Y-71230188D01*
X67262042Y-71401617D01*
X67204900Y-71630188D01*
X67147757Y-71744474D01*
X67033471Y-71858760D01*
X66862042Y-71915902D01*
X66747757Y-71915902D01*
X66576328Y-71858760D01*
X66519185Y-71801617D01*
X66004900Y-70715902D02*
X66004900Y-71915902D01*
X65319185Y-70715902D02*
X65833471Y-71401617D01*
X65319185Y-71915902D02*
X66004900Y-71230188D01*
X89776328Y-69869617D02*
X89719185Y-69926760D01*
X89604900Y-69983902D01*
X89319185Y-69983902D01*
X89204900Y-69926760D01*
X89147757Y-69869617D01*
X89090614Y-69755331D01*
X89090614Y-69641045D01*
X89147757Y-69469617D01*
X89833471Y-68783902D01*
X89090614Y-68783902D01*
X88576328Y-68898188D02*
X88519185Y-68841045D01*
X88576328Y-68783902D01*
X88633471Y-68841045D01*
X88576328Y-68898188D01*
X88576328Y-68783902D01*
X87090614Y-68783902D02*
X87090614Y-69983902D01*
X86519185Y-68783902D02*
X86519185Y-69983902D01*
X85833471Y-68783902D01*
X85833471Y-69983902D01*
X85319185Y-68841045D02*
X85147757Y-68783902D01*
X84862042Y-68783902D01*
X84747757Y-68841045D01*
X84690614Y-68898188D01*
X84633471Y-69012474D01*
X84633471Y-69126760D01*
X84690614Y-69241045D01*
X84747757Y-69298188D01*
X84862042Y-69355331D01*
X85090614Y-69412474D01*
X85204900Y-69469617D01*
X85262042Y-69526760D01*
X85319185Y-69641045D01*
X85319185Y-69755331D01*
X85262042Y-69869617D01*
X85204900Y-69926760D01*
X85090614Y-69983902D01*
X84804900Y-69983902D01*
X84633471Y-69926760D01*
X84290614Y-69983902D02*
X83604900Y-69983902D01*
X83947757Y-68783902D02*
X83947757Y-69983902D01*
X83262042Y-69126760D02*
X82690614Y-69126760D01*
X83376328Y-68783902D02*
X82976328Y-69983902D01*
X82576328Y-68783902D01*
X81604900Y-68783902D02*
X82176328Y-68783902D01*
X82176328Y-69983902D01*
X80633471Y-68783902D02*
X81204900Y-68783902D01*
X81204900Y-69983902D01*
X78633471Y-68898188D02*
X78690614Y-68841045D01*
X78862042Y-68783902D01*
X78976328Y-68783902D01*
X79147757Y-68841045D01*
X79262042Y-68955331D01*
X79319185Y-69069617D01*
X79376328Y-69298188D01*
X79376328Y-69469617D01*
X79319185Y-69698188D01*
X79262042Y-69812474D01*
X79147757Y-69926760D01*
X78976328Y-69983902D01*
X78862042Y-69983902D01*
X78690614Y-69926760D01*
X78633471Y-69869617D01*
X78119185Y-69412474D02*
X77719185Y-69412474D01*
X77547757Y-68783902D02*
X78119185Y-68783902D01*
X78119185Y-69983902D01*
X77547757Y-69983902D01*
X76462042Y-68783902D02*
X77033471Y-68783902D01*
X77033471Y-69983902D01*
X75490614Y-68783902D02*
X76062042Y-68783902D01*
X76062042Y-69983902D01*
X75147757Y-68841045D02*
X74976328Y-68783902D01*
X74690614Y-68783902D01*
X74576328Y-68841045D01*
X74519185Y-68898188D01*
X74462042Y-69012474D01*
X74462042Y-69126760D01*
X74519185Y-69241045D01*
X74576328Y-69298188D01*
X74690614Y-69355331D01*
X74919185Y-69412474D01*
X75033471Y-69469617D01*
X75090614Y-69526760D01*
X75147757Y-69641045D01*
X75147757Y-69755331D01*
X75090614Y-69869617D01*
X75033471Y-69926760D01*
X74919185Y-69983902D01*
X74633471Y-69983902D01*
X74462042Y-69926760D01*
X73033471Y-68783902D02*
X73033471Y-69983902D01*
X72462042Y-68783902D02*
X72462042Y-69983902D01*
X71776328Y-68783902D01*
X71776328Y-69983902D01*
X70290614Y-68783902D02*
X70290614Y-69983902D01*
X69604900Y-68783902D01*
X69604900Y-69983902D01*
X69033471Y-69983902D02*
X69033471Y-69012474D01*
X68976328Y-68898188D01*
X68919185Y-68841045D01*
X68804900Y-68783902D01*
X68576328Y-68783902D01*
X68462042Y-68841045D01*
X68404900Y-68898188D01*
X68347757Y-69012474D01*
X68347757Y-69983902D01*
X67776328Y-68783902D02*
X67776328Y-69983902D01*
X67376328Y-69126760D01*
X66976328Y-69983902D01*
X66976328Y-68783902D01*
X66404900Y-69412474D02*
X66004900Y-69412474D01*
X65833471Y-68783902D02*
X66404900Y-68783902D01*
X66404900Y-69983902D01*
X65833471Y-69983902D01*
X64633471Y-68783902D02*
X65033471Y-69355331D01*
X65319185Y-68783902D02*
X65319185Y-69983902D01*
X64862042Y-69983902D01*
X64747757Y-69926760D01*
X64690614Y-69869617D01*
X64633471Y-69755331D01*
X64633471Y-69583902D01*
X64690614Y-69469617D01*
X64747757Y-69412474D01*
X64862042Y-69355331D01*
X65319185Y-69355331D01*
X64119185Y-68783902D02*
X64119185Y-69983902D01*
X62862042Y-68898188D02*
X62919185Y-68841045D01*
X63090614Y-68783902D01*
X63204900Y-68783902D01*
X63376328Y-68841045D01*
X63490614Y-68955331D01*
X63547757Y-69069617D01*
X63604900Y-69298188D01*
X63604900Y-69469617D01*
X63547757Y-69698188D01*
X63490614Y-69812474D01*
X63376328Y-69926760D01*
X63204900Y-69983902D01*
X63090614Y-69983902D01*
X62919185Y-69926760D01*
X62862042Y-69869617D01*
X62404900Y-69126760D02*
X61833471Y-69126760D01*
X62519185Y-68783902D02*
X62119185Y-69983902D01*
X61719185Y-68783902D01*
X60747757Y-68783902D02*
X61319185Y-68783902D01*
X61319185Y-69983902D01*
X85833471Y-68051902D02*
X85604900Y-68051902D01*
X85490614Y-67994760D01*
X85376328Y-67880474D01*
X85319185Y-67651902D01*
X85319185Y-67251902D01*
X85376328Y-67023331D01*
X85490614Y-66909045D01*
X85604900Y-66851902D01*
X85833471Y-66851902D01*
X85947757Y-66909045D01*
X86062042Y-67023331D01*
X86119185Y-67251902D01*
X86119185Y-67651902D01*
X86062042Y-67880474D01*
X85947757Y-67994760D01*
X85833471Y-68051902D01*
X84119185Y-66851902D02*
X84519185Y-67423331D01*
X84804900Y-66851902D02*
X84804900Y-68051902D01*
X84347757Y-68051902D01*
X84233471Y-67994760D01*
X84176328Y-67937617D01*
X84119185Y-67823331D01*
X84119185Y-67651902D01*
X84176328Y-67537617D01*
X84233471Y-67480474D01*
X84347757Y-67423331D01*
X84804900Y-67423331D01*
X83604900Y-66851902D02*
X83604900Y-68051902D01*
X83319185Y-68051902D01*
X83147757Y-67994760D01*
X83033471Y-67880474D01*
X82976328Y-67766188D01*
X82919185Y-67537617D01*
X82919185Y-67366188D01*
X82976328Y-67137617D01*
X83033471Y-67023331D01*
X83147757Y-66909045D01*
X83319185Y-66851902D01*
X83604900Y-66851902D01*
X82404900Y-67480474D02*
X82004900Y-67480474D01*
X81833471Y-66851902D02*
X82404900Y-66851902D01*
X82404900Y-68051902D01*
X81833471Y-68051902D01*
X80633471Y-66851902D02*
X81033471Y-67423331D01*
X81319185Y-66851902D02*
X81319185Y-68051902D01*
X80862042Y-68051902D01*
X80747757Y-67994760D01*
X80690614Y-67937617D01*
X80633471Y-67823331D01*
X80633471Y-67651902D01*
X80690614Y-67537617D01*
X80747757Y-67480474D01*
X80862042Y-67423331D01*
X81319185Y-67423331D01*
X79262042Y-67194760D02*
X78690614Y-67194760D01*
X79376328Y-66851902D02*
X78976328Y-68051902D01*
X78576328Y-66851902D01*
X78233471Y-66909045D02*
X78062042Y-66851902D01*
X77776328Y-66851902D01*
X77662042Y-66909045D01*
X77604900Y-66966188D01*
X77547757Y-67080474D01*
X77547757Y-67194760D01*
X77604900Y-67309045D01*
X77662042Y-67366188D01*
X77776328Y-67423331D01*
X78004900Y-67480474D01*
X78119185Y-67537617D01*
X78176328Y-67594760D01*
X78233471Y-67709045D01*
X78233471Y-67823331D01*
X78176328Y-67937617D01*
X78119185Y-67994760D01*
X78004900Y-68051902D01*
X77719185Y-68051902D01*
X77547757Y-67994760D01*
X76119185Y-66851902D02*
X76119185Y-68051902D01*
X75547757Y-66851902D02*
X75547757Y-68051902D01*
X74862042Y-66851902D01*
X74862042Y-68051902D01*
X74290614Y-66851902D02*
X74290614Y-68051902D01*
X74004900Y-68051902D01*
X73833471Y-67994760D01*
X73719185Y-67880474D01*
X73662042Y-67766188D01*
X73604900Y-67537617D01*
X73604900Y-67366188D01*
X73662042Y-67137617D01*
X73719185Y-67023331D01*
X73833471Y-66909045D01*
X74004900Y-66851902D01*
X74290614Y-66851902D01*
X73090614Y-66851902D02*
X73090614Y-68051902D01*
X71833471Y-66966188D02*
X71890614Y-66909045D01*
X72062042Y-66851902D01*
X72176328Y-66851902D01*
X72347757Y-66909045D01*
X72462042Y-67023331D01*
X72519185Y-67137617D01*
X72576328Y-67366188D01*
X72576328Y-67537617D01*
X72519185Y-67766188D01*
X72462042Y-67880474D01*
X72347757Y-67994760D01*
X72176328Y-68051902D01*
X72062042Y-68051902D01*
X71890614Y-67994760D01*
X71833471Y-67937617D01*
X71376328Y-67194760D02*
X70804900Y-67194760D01*
X71490614Y-66851902D02*
X71090614Y-68051902D01*
X70690614Y-66851902D01*
X70462042Y-68051902D02*
X69776328Y-68051902D01*
X70119185Y-66851902D02*
X70119185Y-68051902D01*
X69376328Y-67480474D02*
X68976328Y-67480474D01*
X68804900Y-66851902D02*
X69376328Y-66851902D01*
X69376328Y-68051902D01*
X68804900Y-68051902D01*
X68290614Y-66851902D02*
X68290614Y-68051902D01*
X68004900Y-68051902D01*
X67833471Y-67994760D01*
X67719185Y-67880474D01*
X67662042Y-67766188D01*
X67604900Y-67537617D01*
X67604900Y-67366188D01*
X67662042Y-67137617D01*
X67719185Y-67023331D01*
X67833471Y-66909045D01*
X68004900Y-66851902D01*
X68290614Y-66851902D01*
X65833471Y-66394760D02*
X65890614Y-66451902D01*
X66004900Y-66623331D01*
X66062042Y-66737617D01*
X66119185Y-66909045D01*
X66176328Y-67194760D01*
X66176328Y-67423331D01*
X66119185Y-67709045D01*
X66062042Y-67880474D01*
X66004900Y-67994760D01*
X65890614Y-68166188D01*
X65833471Y-68223331D01*
X65033471Y-68051902D02*
X65033471Y-67194760D01*
X65090614Y-67023331D01*
X65204900Y-66909045D01*
X65376328Y-66851902D01*
X65490614Y-66851902D01*
X63833471Y-66851902D02*
X64519185Y-66851902D01*
X64176328Y-66851902D02*
X64176328Y-68051902D01*
X64290614Y-67880474D01*
X64404900Y-67766188D01*
X64519185Y-67709045D01*
X63262042Y-66909045D02*
X63262042Y-66851902D01*
X63319185Y-66737617D01*
X63376328Y-66680474D01*
X62804900Y-67937617D02*
X62747757Y-67994760D01*
X62633471Y-68051902D01*
X62347757Y-68051902D01*
X62233471Y-67994760D01*
X62176328Y-67937617D01*
X62119185Y-67823331D01*
X62119185Y-67709045D01*
X62176328Y-67537617D01*
X62862042Y-66851902D01*
X62119185Y-66851902D01*
X61547757Y-66909045D02*
X61547757Y-66851902D01*
X61604900Y-66737617D01*
X61662042Y-66680474D01*
X61147757Y-68051902D02*
X60404900Y-68051902D01*
X60804900Y-67594760D01*
X60633471Y-67594760D01*
X60519185Y-67537617D01*
X60462042Y-67480474D01*
X60404900Y-67366188D01*
X60404900Y-67080474D01*
X60462042Y-66966188D01*
X60519185Y-66909045D01*
X60633471Y-66851902D01*
X60976328Y-66851902D01*
X61090614Y-66909045D01*
X61147757Y-66966188D01*
X59833471Y-66909045D02*
X59833471Y-66851902D01*
X59890614Y-66737617D01*
X59947757Y-66680474D01*
X58862042Y-66909045D02*
X58976328Y-66851902D01*
X59204900Y-66851902D01*
X59319185Y-66909045D01*
X59376328Y-67023331D01*
X59376328Y-67480474D01*
X59319185Y-67594760D01*
X59204900Y-67651902D01*
X58976328Y-67651902D01*
X58862042Y-67594760D01*
X58804900Y-67480474D01*
X58804900Y-67366188D01*
X59376328Y-67251902D01*
X58462042Y-67651902D02*
X58004900Y-67651902D01*
X58290614Y-68051902D02*
X58290614Y-67023331D01*
X58233471Y-66909045D01*
X58119185Y-66851902D01*
X58004900Y-66851902D01*
X57090614Y-66909045D02*
X57204900Y-66851902D01*
X57433471Y-66851902D01*
X57547757Y-66909045D01*
X57604900Y-66966188D01*
X57662042Y-67080474D01*
X57662042Y-67423331D01*
X57604900Y-67537617D01*
X57547757Y-67594760D01*
X57433471Y-67651902D01*
X57204900Y-67651902D01*
X57090614Y-67594760D01*
X56576328Y-66966188D02*
X56519185Y-66909045D01*
X56576328Y-66851902D01*
X56633471Y-66909045D01*
X56576328Y-66966188D01*
X56576328Y-66851902D01*
X56004900Y-66966188D02*
X55947757Y-66909045D01*
X56004900Y-66851902D01*
X56062042Y-66909045D01*
X56004900Y-66966188D01*
X56004900Y-66851902D01*
X55433471Y-66966188D02*
X55376328Y-66909045D01*
X55433471Y-66851902D01*
X55490614Y-66909045D01*
X55433471Y-66966188D01*
X55433471Y-66851902D01*
X54976328Y-66394759D02*
X54919185Y-66451902D01*
X54804900Y-66623331D01*
X54747757Y-66737617D01*
X54690614Y-66909045D01*
X54633471Y-67194760D01*
X54633471Y-67423331D01*
X54690614Y-67709045D01*
X54747757Y-67880474D01*
X54804900Y-67994760D01*
X54919185Y-68166188D01*
X54976328Y-68223331D01*
X89833471Y-66119902D02*
X89090614Y-66119902D01*
X89490614Y-65662760D01*
X89319185Y-65662760D01*
X89204900Y-65605617D01*
X89147757Y-65548474D01*
X89090614Y-65434188D01*
X89090614Y-65148474D01*
X89147757Y-65034188D01*
X89204900Y-64977045D01*
X89319185Y-64919902D01*
X89662042Y-64919902D01*
X89776328Y-64977045D01*
X89833471Y-65034188D01*
X88576328Y-65034188D02*
X88519185Y-64977045D01*
X88576328Y-64919902D01*
X88633471Y-64977045D01*
X88576328Y-65034188D01*
X88576328Y-64919902D01*
X87090614Y-64919902D02*
X87090614Y-66119902D01*
X86119185Y-65548474D02*
X86519185Y-65548474D01*
X86519185Y-64919902D02*
X86519185Y-66119902D01*
X85947757Y-66119902D01*
X84347757Y-66119902D02*
X84233471Y-66119902D01*
X84119185Y-66062760D01*
X84062042Y-66005617D01*
X84004900Y-65891331D01*
X83947757Y-65662760D01*
X83947757Y-65377045D01*
X84004900Y-65148474D01*
X84062042Y-65034188D01*
X84119185Y-64977045D01*
X84233471Y-64919902D01*
X84347757Y-64919902D01*
X84462042Y-64977045D01*
X84519185Y-65034188D01*
X84576328Y-65148474D01*
X84633471Y-65377045D01*
X84633471Y-65662760D01*
X84576328Y-65891331D01*
X84519185Y-66005617D01*
X84462042Y-66062760D01*
X84347757Y-66119902D01*
X83604900Y-66119902D02*
X83204900Y-64919902D01*
X82804900Y-66119902D01*
X81262042Y-66119902D02*
X81033471Y-66119902D01*
X80919185Y-66062760D01*
X80804900Y-65948474D01*
X80747757Y-65719902D01*
X80747757Y-65319902D01*
X80804900Y-65091331D01*
X80919185Y-64977045D01*
X81033471Y-64919902D01*
X81262042Y-64919902D01*
X81376328Y-64977045D01*
X81490614Y-65091331D01*
X81547757Y-65319902D01*
X81547757Y-65719902D01*
X81490614Y-65948474D01*
X81376328Y-66062760D01*
X81262042Y-66119902D01*
X80233471Y-66119902D02*
X80233471Y-65148474D01*
X80176328Y-65034188D01*
X80119185Y-64977045D01*
X80004900Y-64919902D01*
X79776328Y-64919902D01*
X79662042Y-64977045D01*
X79604900Y-65034188D01*
X79547757Y-65148474D01*
X79547757Y-66119902D01*
X79147757Y-66119902D02*
X78462042Y-66119902D01*
X78804900Y-64919902D02*
X78804900Y-66119902D01*
X78062042Y-64919902D02*
X78062042Y-66119902D01*
X77604900Y-66119902D01*
X77490614Y-66062760D01*
X77433471Y-66005617D01*
X77376328Y-65891331D01*
X77376328Y-65719902D01*
X77433471Y-65605617D01*
X77490614Y-65548474D01*
X77604900Y-65491331D01*
X78062042Y-65491331D01*
X76862042Y-66119902D02*
X76862042Y-65148474D01*
X76804900Y-65034188D01*
X76747757Y-64977045D01*
X76633471Y-64919902D01*
X76404900Y-64919902D01*
X76290614Y-64977045D01*
X76233471Y-65034188D01*
X76176328Y-65148474D01*
X76176328Y-66119902D01*
X75776328Y-66119902D02*
X75090614Y-66119902D01*
X75433471Y-64919902D02*
X75433471Y-66119902D01*
X74633471Y-64977045D02*
X74633471Y-64919902D01*
X74690614Y-64805617D01*
X74747757Y-64748474D01*
X72519185Y-65034188D02*
X72576328Y-64977045D01*
X72747757Y-64919902D01*
X72862042Y-64919902D01*
X73033471Y-64977045D01*
X73147757Y-65091331D01*
X73204900Y-65205617D01*
X73262042Y-65434188D01*
X73262042Y-65605617D01*
X73204900Y-65834188D01*
X73147757Y-65948474D01*
X73033471Y-66062760D01*
X72862042Y-66119902D01*
X72747757Y-66119902D01*
X72576328Y-66062760D01*
X72519185Y-66005617D01*
X72004900Y-64919902D02*
X72004900Y-66119902D01*
X72004900Y-65548474D02*
X71319185Y-65548474D01*
X71319185Y-64919902D02*
X71319185Y-66119902D01*
X70747757Y-65548474D02*
X70347757Y-65548474D01*
X70176328Y-64919902D02*
X70747757Y-64919902D01*
X70747757Y-66119902D01*
X70176328Y-66119902D01*
X68976328Y-65034188D02*
X69033471Y-64977045D01*
X69204900Y-64919902D01*
X69319185Y-64919902D01*
X69490614Y-64977045D01*
X69604900Y-65091331D01*
X69662042Y-65205617D01*
X69719185Y-65434188D01*
X69719185Y-65605617D01*
X69662042Y-65834188D01*
X69604900Y-65948474D01*
X69490614Y-66062760D01*
X69319185Y-66119902D01*
X69204900Y-66119902D01*
X69033471Y-66062760D01*
X68976328Y-66005617D01*
X68462042Y-64919902D02*
X68462042Y-66119902D01*
X67776328Y-64919902D02*
X68290614Y-65605617D01*
X67776328Y-66119902D02*
X68462042Y-65434188D01*
X65662042Y-65034188D02*
X65719185Y-64977045D01*
X65890614Y-64919902D01*
X66004900Y-64919902D01*
X66176328Y-64977045D01*
X66290614Y-65091331D01*
X66347757Y-65205617D01*
X66404900Y-65434188D01*
X66404900Y-65605617D01*
X66347757Y-65834188D01*
X66290614Y-65948474D01*
X66176328Y-66062760D01*
X66004900Y-66119902D01*
X65890614Y-66119902D01*
X65719185Y-66062760D01*
X65662042Y-66005617D01*
X65147757Y-65548474D02*
X64747757Y-65548474D01*
X64576328Y-64919902D02*
X65147757Y-64919902D01*
X65147757Y-66119902D01*
X64576328Y-66119902D01*
X63490614Y-64919902D02*
X64062042Y-64919902D01*
X64062042Y-66119902D01*
X62519185Y-64919902D02*
X63090614Y-64919902D01*
X63090614Y-66119902D01*
X60804900Y-65548474D02*
X60633471Y-65491331D01*
X60576328Y-65434188D01*
X60519185Y-65319902D01*
X60519185Y-65148474D01*
X60576328Y-65034188D01*
X60633471Y-64977045D01*
X60747757Y-64919902D01*
X61204900Y-64919902D01*
X61204900Y-66119902D01*
X60804900Y-66119902D01*
X60690614Y-66062760D01*
X60633471Y-66005617D01*
X60576328Y-65891331D01*
X60576328Y-65777045D01*
X60633471Y-65662760D01*
X60690614Y-65605617D01*
X60804900Y-65548474D01*
X61204900Y-65548474D01*
X60062042Y-65262760D02*
X59490614Y-65262759D01*
X60176328Y-64919902D02*
X59776328Y-66119902D01*
X59376328Y-64919902D01*
X58404900Y-64919902D02*
X58976328Y-64919902D01*
X58976328Y-66119902D01*
X58062042Y-65262759D02*
X57490614Y-65262759D01*
X58176328Y-64919902D02*
X57776328Y-66119902D01*
X57376328Y-64919902D01*
X56976328Y-64919902D02*
X56976328Y-66119902D01*
X56290614Y-64919902D01*
X56290614Y-66119902D01*
X55033471Y-65034188D02*
X55090614Y-64977045D01*
X55262042Y-64919902D01*
X55376328Y-64919902D01*
X55547757Y-64977045D01*
X55662042Y-65091331D01*
X55719185Y-65205617D01*
X55776328Y-65434188D01*
X55776328Y-65605617D01*
X55719185Y-65834188D01*
X55662042Y-65948474D01*
X55547757Y-66062759D01*
X55376328Y-66119902D01*
X55262042Y-66119902D01*
X55090614Y-66062759D01*
X55033471Y-66005617D01*
X54519185Y-65548474D02*
X54119185Y-65548474D01*
X53947757Y-64919902D02*
X54519185Y-64919902D01*
X54519185Y-66119902D01*
X53947757Y-66119902D01*
D12*
X141534605Y-72056171D02*
X142986034Y-72056171D01*
X145344605Y-72056171D02*
X146796034Y-72056171D01*
X146070320Y-72781885D02*
X146070320Y-71330457D01*
X59118500Y-114136071D02*
X58846357Y-114045357D01*
X58755642Y-113954642D01*
X58664928Y-113773214D01*
X58664928Y-113501071D01*
X58755642Y-113319642D01*
X58846357Y-113228928D01*
X59027785Y-113138214D01*
X59753500Y-113138214D01*
X59753500Y-115043214D01*
X59118500Y-115043214D01*
X58937071Y-114952500D01*
X58846357Y-114861785D01*
X58755642Y-114680357D01*
X58755642Y-114498928D01*
X58846357Y-114317500D01*
X58937071Y-114226785D01*
X59118500Y-114136071D01*
X59753500Y-114136071D01*
X57848500Y-113138214D02*
X57848500Y-115043214D01*
X57213500Y-113682500D01*
X56578500Y-115043214D01*
X56578500Y-113138214D01*
D16*
X115950904Y-89765119D02*
X115950904Y-88955595D01*
X115903285Y-88860357D01*
X115855666Y-88812738D01*
X115760428Y-88765119D01*
X115569952Y-88765119D01*
X115474714Y-88812738D01*
X115427095Y-88860357D01*
X115379476Y-88955595D01*
X115379476Y-89765119D01*
X114379476Y-88765119D02*
X114950904Y-88765119D01*
X114665190Y-88765119D02*
X114665190Y-89765119D01*
X114760428Y-89622261D01*
X114855666Y-89527023D01*
X114950904Y-89479404D01*
X120880142Y-89447666D02*
X120927761Y-89495285D01*
X120975380Y-89638142D01*
X120975380Y-89733380D01*
X120927761Y-89876238D01*
X120832523Y-89971476D01*
X120737285Y-90019095D01*
X120546809Y-90066714D01*
X120403952Y-90066714D01*
X120213476Y-90019095D01*
X120118238Y-89971476D01*
X120023000Y-89876238D01*
X119975380Y-89733380D01*
X119975380Y-89638142D01*
X120023000Y-89495285D01*
X120070619Y-89447666D01*
X120975380Y-88495285D02*
X120975380Y-89066714D01*
X120975380Y-88781000D02*
X119975380Y-88781000D01*
X120118238Y-88876238D01*
X120213476Y-88971476D01*
X120261095Y-89066714D01*
X119102142Y-89447666D02*
X119149761Y-89495285D01*
X119197380Y-89638142D01*
X119197380Y-89733380D01*
X119149761Y-89876238D01*
X119054523Y-89971476D01*
X118959285Y-90019095D01*
X118768809Y-90066714D01*
X118625952Y-90066714D01*
X118435476Y-90019095D01*
X118340238Y-89971476D01*
X118245000Y-89876238D01*
X118197380Y-89733380D01*
X118197380Y-89638142D01*
X118245000Y-89495285D01*
X118292619Y-89447666D01*
X118292619Y-89066714D02*
X118245000Y-89019095D01*
X118197380Y-88923857D01*
X118197380Y-88685761D01*
X118245000Y-88590523D01*
X118292619Y-88542904D01*
X118387857Y-88495285D01*
X118483095Y-88495285D01*
X118625952Y-88542904D01*
X119197380Y-89114333D01*
X119197380Y-88495285D01*
X115927142Y-97702666D02*
X115974761Y-97750285D01*
X116022380Y-97893142D01*
X116022380Y-97988380D01*
X115974761Y-98131238D01*
X115879523Y-98226476D01*
X115784285Y-98274095D01*
X115593809Y-98321714D01*
X115450952Y-98321714D01*
X115260476Y-98274095D01*
X115165238Y-98226476D01*
X115070000Y-98131238D01*
X115022380Y-97988380D01*
X115022380Y-97893142D01*
X115070000Y-97750285D01*
X115117619Y-97702666D01*
X115355714Y-96845523D02*
X116022380Y-96845523D01*
X114974761Y-97083619D02*
X115689047Y-97321714D01*
X115689047Y-96702666D01*
X130659166Y-82319857D02*
X130706785Y-82272238D01*
X130849642Y-82224619D01*
X130944880Y-82224619D01*
X131087738Y-82272238D01*
X131182976Y-82367476D01*
X131230595Y-82462714D01*
X131278214Y-82653190D01*
X131278214Y-82796047D01*
X131230595Y-82986523D01*
X131182976Y-83081761D01*
X131087738Y-83177000D01*
X130944880Y-83224619D01*
X130849642Y-83224619D01*
X130706785Y-83177000D01*
X130659166Y-83129380D01*
X130325833Y-83224619D02*
X129706785Y-83224619D01*
X130040119Y-82843666D01*
X129897261Y-82843666D01*
X129802023Y-82796047D01*
X129754404Y-82748428D01*
X129706785Y-82653190D01*
X129706785Y-82415095D01*
X129754404Y-82319857D01*
X129802023Y-82272238D01*
X129897261Y-82224619D01*
X130182976Y-82224619D01*
X130278214Y-82272238D01*
X130325833Y-82319857D01*
X125642666Y-92829119D02*
X125976000Y-93305309D01*
X126214095Y-92829119D02*
X126214095Y-93829119D01*
X125833142Y-93829119D01*
X125737904Y-93781500D01*
X125690285Y-93733880D01*
X125642666Y-93638642D01*
X125642666Y-93495785D01*
X125690285Y-93400547D01*
X125737904Y-93352928D01*
X125833142Y-93305309D01*
X126214095Y-93305309D01*
X124690285Y-92829119D02*
X125261714Y-92829119D01*
X124976000Y-92829119D02*
X124976000Y-93829119D01*
X125071238Y-93686261D01*
X125166476Y-93591023D01*
X125261714Y-93543404D01*
X119197380Y-97702666D02*
X118721190Y-98036000D01*
X119197380Y-98274095D02*
X118197380Y-98274095D01*
X118197380Y-97893142D01*
X118245000Y-97797904D01*
X118292619Y-97750285D01*
X118387857Y-97702666D01*
X118530714Y-97702666D01*
X118625952Y-97750285D01*
X118673571Y-97797904D01*
X118721190Y-97893142D01*
X118721190Y-98274095D01*
X118292619Y-97321714D02*
X118245000Y-97274095D01*
X118197380Y-97178857D01*
X118197380Y-96940761D01*
X118245000Y-96845523D01*
X118292619Y-96797904D01*
X118387857Y-96750285D01*
X118483095Y-96750285D01*
X118625952Y-96797904D01*
X119197380Y-97369333D01*
X119197380Y-96750285D01*
X111982238Y-81176880D02*
X112077476Y-81224500D01*
X112172714Y-81319738D01*
X112315571Y-81462595D01*
X112410809Y-81510214D01*
X112506047Y-81510214D01*
X112458428Y-81272119D02*
X112553666Y-81319738D01*
X112648904Y-81414976D01*
X112696523Y-81605452D01*
X112696523Y-81938785D01*
X112648904Y-82129261D01*
X112553666Y-82224500D01*
X112458428Y-82272119D01*
X112267952Y-82272119D01*
X112172714Y-82224500D01*
X112077476Y-82129261D01*
X112029857Y-81938785D01*
X112029857Y-81605452D01*
X112077476Y-81414976D01*
X112172714Y-81319738D01*
X112267952Y-81272119D01*
X112458428Y-81272119D01*
X111648904Y-82176880D02*
X111601285Y-82224500D01*
X111506047Y-82272119D01*
X111267952Y-82272119D01*
X111172714Y-82224500D01*
X111125095Y-82176880D01*
X111077476Y-82081642D01*
X111077476Y-81986404D01*
X111125095Y-81843547D01*
X111696523Y-81272119D01*
X111077476Y-81272119D01*
X121253238Y-81113380D02*
X121348476Y-81161000D01*
X121443714Y-81256238D01*
X121586571Y-81399095D01*
X121681809Y-81446714D01*
X121777047Y-81446714D01*
X121729428Y-81208619D02*
X121824666Y-81256238D01*
X121919904Y-81351476D01*
X121967523Y-81541952D01*
X121967523Y-81875285D01*
X121919904Y-82065761D01*
X121824666Y-82161000D01*
X121729428Y-82208619D01*
X121538952Y-82208619D01*
X121443714Y-82161000D01*
X121348476Y-82065761D01*
X121300857Y-81875285D01*
X121300857Y-81541952D01*
X121348476Y-81351476D01*
X121443714Y-81256238D01*
X121538952Y-81208619D01*
X121729428Y-81208619D01*
X120348476Y-81208619D02*
X120919904Y-81208619D01*
X120634190Y-81208619D02*
X120634190Y-82208619D01*
X120729428Y-82065761D01*
X120824666Y-81970523D01*
X120919904Y-81922904D01*
X114244380Y-97702666D02*
X113768190Y-98036000D01*
X114244380Y-98274095D02*
X113244380Y-98274095D01*
X113244380Y-97893142D01*
X113292000Y-97797904D01*
X113339619Y-97750285D01*
X113434857Y-97702666D01*
X113577714Y-97702666D01*
X113672952Y-97750285D01*
X113720571Y-97797904D01*
X113768190Y-97893142D01*
X113768190Y-98274095D01*
X113577714Y-96845523D02*
X114244380Y-96845523D01*
X113196761Y-97083619D02*
X113911047Y-97321714D01*
X113911047Y-96702666D01*
X131897380Y-87923666D02*
X131421190Y-88257000D01*
X131897380Y-88495095D02*
X130897380Y-88495095D01*
X130897380Y-88114142D01*
X130945000Y-88018904D01*
X130992619Y-87971285D01*
X131087857Y-87923666D01*
X131230714Y-87923666D01*
X131325952Y-87971285D01*
X131373571Y-88018904D01*
X131421190Y-88114142D01*
X131421190Y-88495095D01*
X130897380Y-87590333D02*
X130897380Y-86971285D01*
X131278333Y-87304619D01*
X131278333Y-87161761D01*
X131325952Y-87066523D01*
X131373571Y-87018904D01*
X131468809Y-86971285D01*
X131706904Y-86971285D01*
X131802142Y-87018904D01*
X131849761Y-87066523D01*
X131897380Y-87161761D01*
X131897380Y-87447476D01*
X131849761Y-87542714D01*
X131802142Y-87590333D01*
D17*
X113289000Y-90094000D02*
X114289000Y-90094000D01*
X114639000Y-93144000D02*
X114639000Y-90244000D01*
X114639000Y-90244000D02*
X115739000Y-90244000D01*
X115739000Y-93144000D02*
X114639000Y-93144000D01*
X115739000Y-90244000D02*
X115739000Y-93144000D01*
D18*
X120013000Y-91531221D02*
X120013000Y-91856779D01*
X121033000Y-91531221D02*
X121033000Y-91856779D01*
X119255000Y-91531221D02*
X119255000Y-91856779D01*
X118235000Y-91531221D02*
X118235000Y-91856779D01*
X116080000Y-94833221D02*
X116080000Y-95158779D01*
X115060000Y-94833221D02*
X115060000Y-95158779D01*
X127988279Y-83187000D02*
X127662721Y-83187000D01*
X127988279Y-82167000D02*
X127662721Y-82167000D01*
X123225779Y-93791500D02*
X122900221Y-93791500D01*
X123225779Y-92771500D02*
X122900221Y-92771500D01*
X118235000Y-95158779D02*
X118235000Y-94833221D01*
X119255000Y-95158779D02*
X119255000Y-94833221D01*
X111887000Y-87777000D02*
X109937000Y-87777000D01*
X111887000Y-82657000D02*
X108437000Y-82657000D01*
X111887000Y-87777000D02*
X113837000Y-87777000D01*
X111887000Y-82657000D02*
X113837000Y-82657000D01*
X121158000Y-82657000D02*
X119208000Y-82657000D01*
X121158000Y-82657000D02*
X123108000Y-82657000D01*
X121158000Y-87777000D02*
X124608000Y-87777000D01*
X121158000Y-87777000D02*
X119208000Y-87777000D01*
X114302000Y-94833221D02*
X114302000Y-95158779D01*
X113282000Y-94833221D02*
X113282000Y-95158779D01*
X130297500Y-89872564D02*
X130297500Y-85768436D01*
X126877500Y-89872564D02*
X126877500Y-85768436D01*
X145645000Y-121285000D02*
G75*
G03*
X145645000Y-121285000I-1500000J0D01*
G01*
X59666000Y-78105000D02*
G75*
G03*
X59666000Y-78105000I-1500000J0D01*
G01*
X143562200Y-75565000D02*
G75*
G03*
X143562200Y-75565000I-1500000J0D01*
G01*
X147677000Y-75565000D02*
G75*
G03*
X147677000Y-75565000I-1500000J0D01*
G01*
X91190000Y-64973000D02*
X91190000Y-69223000D01*
X92210000Y-69223000D02*
X92210000Y-67623000D01*
X97590000Y-61403000D02*
X92910000Y-61403000D01*
X99310000Y-64973000D02*
X99310000Y-69223000D01*
X99310000Y-69223000D02*
X98290000Y-69223000D01*
X98290000Y-67623000D02*
X97010000Y-67623000D01*
X98290000Y-69223000D02*
X98290000Y-67623000D01*
X91190000Y-69223000D02*
X92210000Y-69223000D01*
X97010000Y-67623000D02*
X97010000Y-70513000D01*
X92210000Y-67623000D02*
X93490000Y-67623000D01*
D19*
X103589000Y-68424000D02*
X103589000Y-62224000D01*
X110589000Y-61424000D02*
X110589000Y-62224000D01*
X110589000Y-62224000D02*
X110589000Y-68424000D01*
X110589000Y-68424000D02*
X103589000Y-68424000D01*
X103589000Y-62224000D02*
X110589000Y-62224000D01*
X103589000Y-62224000D02*
X103589000Y-61424000D01*
X103589000Y-61424000D02*
X110589000Y-61424000D01*
X110660000Y-75698000D02*
X103660000Y-75698000D01*
X110660000Y-75698000D02*
X110660000Y-76498000D01*
X110660000Y-76498000D02*
X103660000Y-76498000D01*
X103660000Y-76498000D02*
X103660000Y-75698000D01*
X103660000Y-69498000D02*
X110660000Y-69498000D01*
X103660000Y-75698000D02*
X103660000Y-69498000D01*
X110660000Y-69498000D02*
X110660000Y-75698000D01*
X120368000Y-61424000D02*
X120368000Y-62224000D01*
X120368000Y-62224000D02*
X120368000Y-68424000D01*
X113368000Y-62224000D02*
X120368000Y-62224000D01*
X113368000Y-68424000D02*
X113368000Y-62224000D01*
X113368000Y-62224000D02*
X113368000Y-61424000D01*
X120368000Y-68424000D02*
X113368000Y-68424000D01*
X113368000Y-61424000D02*
X120368000Y-61424000D01*
X113312000Y-75698000D02*
X113312000Y-69498000D01*
X113312000Y-76498000D02*
X113312000Y-75698000D01*
X120312000Y-76498000D02*
X113312000Y-76498000D01*
X120312000Y-69498000D02*
X120312000Y-75698000D01*
X120312000Y-75698000D02*
X113312000Y-75698000D01*
X120312000Y-75698000D02*
X120312000Y-76498000D01*
X113312000Y-69498000D02*
X120312000Y-69498000D01*
D18*
X102041000Y-76377000D02*
X102041000Y-76252000D01*
X100651000Y-76377000D02*
X100737724Y-76377000D01*
X100651000Y-75692000D02*
X100651000Y-75007000D01*
X100651000Y-75007000D02*
X101346000Y-75007000D01*
X100651000Y-76377000D02*
X100651000Y-76252000D01*
X101954276Y-76377000D02*
X102041000Y-76377000D01*
X100651000Y-76377000D02*
X102041000Y-76377000D01*
X100426000Y-93726000D02*
X97266000Y-93726000D01*
X102266000Y-93726000D02*
G75*
G03*
X102266000Y-93726000I-920000J0D01*
G01*
%LPC*%
D20*
X113789000Y-90744000D03*
X113789000Y-91694000D03*
X113789000Y-92644000D03*
X116589000Y-92644000D03*
X116589000Y-91694000D03*
X116589000Y-90744000D03*
D21*
X120523000Y-90906500D03*
X120523000Y-92481500D03*
X118745000Y-90906500D03*
X118745000Y-92481500D03*
X115570000Y-94208500D03*
X115570000Y-95783500D03*
D22*
X128613000Y-82677000D03*
X127038000Y-82677000D03*
X123850500Y-93281500D03*
X122275500Y-93281500D03*
D23*
X118745000Y-95783500D03*
X118745000Y-94208500D03*
D24*
X109412000Y-83312000D03*
X109412000Y-84582000D03*
X109412000Y-85852000D03*
X109412000Y-87122000D03*
X114362000Y-87122000D03*
X114362000Y-85852000D03*
X114362000Y-84582000D03*
X114362000Y-83312000D03*
D25*
X123633000Y-87122000D03*
X123633000Y-85852000D03*
X123633000Y-84582000D03*
X123633000Y-83312000D03*
X118683000Y-83312000D03*
X118683000Y-84582000D03*
X118683000Y-85852000D03*
X118683000Y-87122000D03*
D21*
X113792000Y-94208500D03*
X113792000Y-95783500D03*
D26*
X128587500Y-90720500D03*
X128587500Y-84920500D03*
D27*
X144145000Y-121285000D03*
X58166000Y-78105000D03*
X142062200Y-75565000D03*
X146177000Y-75565000D03*
D28*
X96250000Y-68763000D03*
X94250000Y-68763000D03*
D29*
X91900000Y-63013000D03*
X98600000Y-63013000D03*
D30*
X109016800Y-65024000D03*
D31*
X105161200Y-65024000D03*
D32*
X105232200Y-72898000D03*
D31*
X109087800Y-72898000D03*
D30*
X118795800Y-65024000D03*
D31*
X114940200Y-65024000D03*
D32*
X114884200Y-72898000D03*
D31*
X118739800Y-72898000D03*
D33*
X101346000Y-75692000D03*
D34*
X101346000Y-93726000D03*
D35*
X96266000Y-93726000D03*
D36*
X144005300Y-136349900D03*
X58280300Y-58889900D03*
X58280300Y-138889900D03*
X144005300Y-62689900D03*
D37*
X137047400Y-80569800D03*
D38*
X128717400Y-96569800D03*
X73517400Y-80569800D03*
X73542800Y-121844800D03*
D37*
X65212800Y-137844800D03*
D38*
X128742800Y-137844800D03*
X128742800Y-117194600D03*
X73542800Y-101194600D03*
D37*
X65212800Y-117194600D03*
D38*
X73517400Y-59919600D03*
D37*
X137047400Y-59919600D03*
D38*
X128717400Y-75919600D03*
M02*
