G04 #@! TF.GenerationSoftware,KiCad,Pcbnew,7.0.1-0*
G04 #@! TF.CreationDate,2023-03-19T01:41:05-04:00*
G04 #@! TF.ProjectId,batteryboard,62617474-6572-4796-926f-6172642e6b69,rev?*
G04 #@! TF.SameCoordinates,Original*
G04 #@! TF.FileFunction,Copper,L1,Top*
G04 #@! TF.FilePolarity,Positive*
%FSLAX46Y46*%
G04 Gerber Fmt 4.6, Leading zero omitted, Abs format (unit mm)*
G04 Created by KiCad (PCBNEW 7.0.1-0) date 2023-03-19 01:41:05*
%MOMM*%
%LPD*%
G01*
G04 APERTURE LIST*
G04 Aperture macros list*
%AMRoundRect*
0 Rectangle with rounded corners*
0 $1 Rounding radius*
0 $2 $3 $4 $5 $6 $7 $8 $9 X,Y pos of 4 corners*
0 Add a 4 corners polygon primitive as box body*
4,1,4,$2,$3,$4,$5,$6,$7,$8,$9,$2,$3,0*
0 Add four circle primitives for the rounded corners*
1,1,$1+$1,$2,$3*
1,1,$1+$1,$4,$5*
1,1,$1+$1,$6,$7*
1,1,$1+$1,$8,$9*
0 Add four rect primitives between the rounded corners*
20,1,$1+$1,$2,$3,$4,$5,0*
20,1,$1+$1,$4,$5,$6,$7,0*
20,1,$1+$1,$6,$7,$8,$9,0*
20,1,$1+$1,$8,$9,$2,$3,0*%
G04 Aperture macros list end*
G04 #@! TA.AperFunction,SMDPad,CuDef*
%ADD10R,1.000000X0.600000*%
G04 #@! TD*
G04 #@! TA.AperFunction,SMDPad,CuDef*
%ADD11RoundRect,0.218750X-0.256250X0.218750X-0.256250X-0.218750X0.256250X-0.218750X0.256250X0.218750X0*%
G04 #@! TD*
G04 #@! TA.AperFunction,SMDPad,CuDef*
%ADD12RoundRect,0.218750X0.218750X0.256250X-0.218750X0.256250X-0.218750X-0.256250X0.218750X-0.256250X0*%
G04 #@! TD*
G04 #@! TA.AperFunction,SMDPad,CuDef*
%ADD13RoundRect,0.218750X0.256250X-0.218750X0.256250X0.218750X-0.256250X0.218750X-0.256250X-0.218750X0*%
G04 #@! TD*
G04 #@! TA.AperFunction,SMDPad,CuDef*
%ADD14RoundRect,0.150000X-0.825000X-0.150000X0.825000X-0.150000X0.825000X0.150000X-0.825000X0.150000X0*%
G04 #@! TD*
G04 #@! TA.AperFunction,SMDPad,CuDef*
%ADD15RoundRect,0.150000X0.825000X0.150000X-0.825000X0.150000X-0.825000X-0.150000X0.825000X-0.150000X0*%
G04 #@! TD*
G04 #@! TA.AperFunction,SMDPad,CuDef*
%ADD16RoundRect,0.250000X1.425000X-0.425000X1.425000X0.425000X-1.425000X0.425000X-1.425000X-0.425000X0*%
G04 #@! TD*
G04 #@! TA.AperFunction,ComponentPad*
%ADD17C,2.000000*%
G04 #@! TD*
G04 #@! TA.AperFunction,SMDPad,CuDef*
%ADD18RoundRect,0.250000X-1.500000X0.250000X-1.500000X-0.250000X1.500000X-0.250000X1.500000X0.250000X0*%
G04 #@! TD*
G04 #@! TA.AperFunction,SMDPad,CuDef*
%ADD19RoundRect,0.250001X-1.449999X0.499999X-1.449999X-0.499999X1.449999X-0.499999X1.449999X0.499999X0*%
G04 #@! TD*
G04 #@! TA.AperFunction,ComponentPad*
%ADD20R,2.032000X2.032000*%
G04 #@! TD*
G04 #@! TA.AperFunction,ComponentPad*
%ADD21C,2.032000*%
G04 #@! TD*
G04 #@! TA.AperFunction,ComponentPad*
%ADD22R,0.850000X0.850000*%
G04 #@! TD*
G04 #@! TA.AperFunction,ComponentPad*
%ADD23C,1.400000*%
G04 #@! TD*
G04 #@! TA.AperFunction,ComponentPad*
%ADD24O,1.400000X1.400000*%
G04 #@! TD*
G04 #@! TA.AperFunction,ComponentPad*
%ADD25C,4.500000*%
G04 #@! TD*
G04 #@! TA.AperFunction,WasherPad*
%ADD26C,3.800000*%
G04 #@! TD*
G04 #@! TA.AperFunction,ViaPad*
%ADD27C,0.584200*%
G04 #@! TD*
G04 #@! TA.AperFunction,Conductor*
%ADD28C,0.279400*%
G04 #@! TD*
G04 #@! TA.AperFunction,Conductor*
%ADD29C,0.609600*%
G04 #@! TD*
G04 #@! TA.AperFunction,Conductor*
%ADD30C,0.500000*%
G04 #@! TD*
G04 APERTURE END LIST*
D10*
X113789000Y-90744000D03*
X113789000Y-91694000D03*
X113789000Y-92644000D03*
X116589000Y-92644000D03*
X116589000Y-91694000D03*
X116589000Y-90744000D03*
D11*
X120523000Y-90906500D03*
X120523000Y-92481500D03*
X118745000Y-90906500D03*
X118745000Y-92481500D03*
X115570000Y-94208500D03*
X115570000Y-95783500D03*
D12*
X128613000Y-82677000D03*
X127038000Y-82677000D03*
X123850500Y-93281500D03*
X122275500Y-93281500D03*
D13*
X118745000Y-95783500D03*
X118745000Y-94208500D03*
D14*
X109412000Y-83312000D03*
X109412000Y-84582000D03*
X109412000Y-85852000D03*
X109412000Y-87122000D03*
X114362000Y-87122000D03*
X114362000Y-85852000D03*
X114362000Y-84582000D03*
X114362000Y-83312000D03*
D15*
X123633000Y-87122000D03*
X123633000Y-85852000D03*
X123633000Y-84582000D03*
X123633000Y-83312000D03*
X118683000Y-83312000D03*
X118683000Y-84582000D03*
X118683000Y-85852000D03*
X118683000Y-87122000D03*
D11*
X113792000Y-94208500D03*
X113792000Y-95783500D03*
D16*
X128587500Y-90720500D03*
X128587500Y-84920500D03*
D17*
X144145000Y-121285000D03*
X58166000Y-78105000D03*
X142062200Y-75565000D03*
X146177000Y-75565000D03*
D18*
X84350000Y-73000000D03*
X84350000Y-75000000D03*
D19*
X78600000Y-70650000D03*
X78600000Y-77350000D03*
D20*
X109016800Y-64300000D03*
D21*
X105161200Y-64300000D03*
D20*
X105232200Y-72174000D03*
D21*
X109087800Y-72174000D03*
D20*
X118795800Y-64300000D03*
D21*
X114940200Y-64300000D03*
D20*
X114884200Y-72174000D03*
D21*
X118739800Y-72174000D03*
D22*
X101346000Y-75692000D03*
D23*
X101346000Y-93726000D03*
D24*
X96266000Y-93726000D03*
D25*
X144005300Y-136349900D03*
X58280300Y-58889900D03*
X58280300Y-138889900D03*
X144005300Y-62689900D03*
D26*
X73517400Y-80569800D03*
X128717400Y-96569800D03*
X128742800Y-137844800D03*
X73542800Y-121844800D03*
X128742800Y-117194600D03*
X73542800Y-101194600D03*
X73517400Y-59919600D03*
X128717400Y-75919600D03*
D27*
X143256000Y-129794000D03*
X146558000Y-129794000D03*
X145034000Y-129794000D03*
X141732000Y-129794000D03*
X146558000Y-132080000D03*
X141732000Y-132080000D03*
X143256000Y-132080000D03*
X145034000Y-132080000D03*
X131826000Y-90678000D03*
X132588000Y-90678000D03*
X131064000Y-90678000D03*
X131826000Y-91567000D03*
X131064000Y-91567000D03*
X132588000Y-91567000D03*
X141732000Y-127508000D03*
X131064000Y-89789000D03*
X132588000Y-89789000D03*
X146558000Y-127508000D03*
X143256000Y-127508000D03*
X131826000Y-89789000D03*
X145034000Y-127508000D03*
X54864000Y-119380000D03*
X58420000Y-119380000D03*
X56642000Y-119380000D03*
X60198000Y-119380000D03*
X60198000Y-120904000D03*
X58420000Y-120904000D03*
X54864000Y-120904000D03*
X56642000Y-120904000D03*
X58420000Y-117856000D03*
X117665498Y-95821500D03*
X54864000Y-117856000D03*
X56642000Y-117856000D03*
X60198000Y-117856000D03*
X140843000Y-94742000D03*
X143002000Y-94742000D03*
X145288000Y-94742000D03*
X147447000Y-94742000D03*
X145447000Y-104397000D03*
X141447000Y-104397000D03*
X143447000Y-104397000D03*
X147447000Y-104397000D03*
X143002000Y-93345000D03*
X147447000Y-93345000D03*
X80100000Y-73000000D03*
X140843000Y-93345000D03*
X145288000Y-93345000D03*
X87500000Y-73000000D03*
D28*
X121323000Y-93281500D02*
X120523000Y-92481500D01*
X120523000Y-92456000D02*
X120523000Y-92481500D01*
X122275500Y-93281500D02*
X121323000Y-93281500D01*
X119761000Y-91694000D02*
X120523000Y-92456000D01*
X116589000Y-91694000D02*
X119761000Y-91694000D01*
X120523000Y-90906500D02*
X128401500Y-90906500D01*
X116589000Y-90744000D02*
X116655000Y-90678000D01*
X118745000Y-90678000D02*
X120294500Y-90678000D01*
X116655000Y-90678000D02*
X118745000Y-90678000D01*
X115809600Y-90744000D02*
X116589000Y-90744000D01*
X118745000Y-90906500D02*
X118745000Y-90678000D01*
X115570000Y-94208500D02*
X115570000Y-90983600D01*
X128401500Y-90906500D02*
X128587500Y-90720500D01*
X120294500Y-90678000D02*
X120523000Y-90906500D01*
X115570000Y-90983600D02*
X115809600Y-90744000D01*
X118745000Y-92481500D02*
X118745000Y-94208500D01*
X116589000Y-92644000D02*
X118582500Y-92644000D01*
X118582500Y-92644000D02*
X118745000Y-92481500D01*
X117703498Y-95783500D02*
X117665498Y-95821500D01*
X118745000Y-95783500D02*
X117703498Y-95783500D01*
D29*
X140843000Y-93343000D02*
X140843000Y-93345000D01*
X123850500Y-93281500D02*
X139954000Y-93281500D01*
D30*
X87500000Y-73000000D02*
X80100000Y-73000000D01*
D29*
X139954000Y-92456000D02*
X139956000Y-92456000D01*
X139956000Y-92456000D02*
X140843000Y-93343000D01*
D28*
X121285000Y-83439000D02*
X120523000Y-84201000D01*
X123633000Y-83312000D02*
X123506000Y-83439000D01*
X123506000Y-83439000D02*
X121285000Y-83439000D01*
X120523000Y-84201000D02*
X120523000Y-88392000D01*
X115570000Y-89154000D02*
X113980000Y-90744000D01*
X119761000Y-89154000D02*
X115570000Y-89154000D01*
X120523000Y-88392000D02*
X119761000Y-89154000D01*
X113980000Y-90744000D02*
X113789000Y-90744000D01*
X111569500Y-87693500D02*
X110998000Y-87122000D01*
X113789000Y-91694000D02*
X113009600Y-91694000D01*
X113009600Y-91694000D02*
X111569500Y-90253900D01*
X111569500Y-90253900D02*
X111569500Y-87693500D01*
X110998000Y-87122000D02*
X109412000Y-87122000D01*
D29*
X128613000Y-82677000D02*
X128613000Y-84895000D01*
X128613000Y-84895000D02*
X128587500Y-84920500D01*
D28*
X113789000Y-94205500D02*
X113792000Y-94208500D01*
X113792000Y-94361000D02*
X115214500Y-95783500D01*
X115214500Y-95783500D02*
X115570000Y-95783500D01*
X113792000Y-94208500D02*
X113792000Y-94361000D01*
X113789000Y-92644000D02*
X113789000Y-94205500D01*
G04 #@! TA.AperFunction,Conductor*
G36*
X133058400Y-89418075D02*
G01*
X133085925Y-89445600D01*
X133096000Y-89483200D01*
X133096000Y-92126800D01*
X133085925Y-92164400D01*
X133058400Y-92191925D01*
X133020800Y-92202000D01*
X126567200Y-92202000D01*
X126529600Y-92191925D01*
X126502075Y-92164400D01*
X126492000Y-92126800D01*
X126492000Y-90974500D01*
X126658501Y-90974500D01*
X126658501Y-91193713D01*
X126664952Y-91253735D01*
X126715600Y-91389523D01*
X126802453Y-91505546D01*
X126918473Y-91592397D01*
X127054267Y-91643046D01*
X127114288Y-91649500D01*
X128333500Y-91649500D01*
X128333500Y-90974500D01*
X128841500Y-90974500D01*
X128841500Y-91649499D01*
X130060713Y-91649499D01*
X130120735Y-91643047D01*
X130256523Y-91592399D01*
X130372546Y-91505546D01*
X130459397Y-91389526D01*
X130510046Y-91253732D01*
X130516500Y-91193712D01*
X130516500Y-90974500D01*
X128841500Y-90974500D01*
X128333500Y-90974500D01*
X126658501Y-90974500D01*
X126492000Y-90974500D01*
X126492000Y-90466500D01*
X126658500Y-90466500D01*
X128333500Y-90466500D01*
X128333500Y-89791501D01*
X127114287Y-89791501D01*
X127054264Y-89797952D01*
X126918476Y-89848600D01*
X126802453Y-89935453D01*
X126715602Y-90051473D01*
X126664953Y-90187267D01*
X126658500Y-90247288D01*
X126658500Y-90466500D01*
X126492000Y-90466500D01*
X126492000Y-89791500D01*
X128841500Y-89791500D01*
X128841500Y-90466500D01*
X130516499Y-90466500D01*
X130516499Y-90247287D01*
X130510047Y-90187264D01*
X130459399Y-90051476D01*
X130372546Y-89935453D01*
X130256526Y-89848602D01*
X130120732Y-89797953D01*
X130060712Y-89791500D01*
X128841500Y-89791500D01*
X126492000Y-89791500D01*
X126492000Y-89483200D01*
X126502075Y-89445600D01*
X126529600Y-89418075D01*
X126567200Y-89408000D01*
X133020800Y-89408000D01*
X133058400Y-89418075D01*
G37*
G04 #@! TD.AperFunction*
G04 #@! TA.AperFunction,Conductor*
G36*
X137122400Y-57085575D02*
G01*
X137149925Y-57113100D01*
X137160000Y-57150700D01*
X137160000Y-58808900D01*
X137149925Y-58846500D01*
X137122400Y-58874025D01*
X137084800Y-58884100D01*
X136996532Y-58884100D01*
X136934801Y-58890180D01*
X136844405Y-58899083D01*
X136649212Y-58958294D01*
X136469326Y-59054446D01*
X136311647Y-59183847D01*
X136182246Y-59341526D01*
X136086094Y-59521412D01*
X136026883Y-59716605D01*
X136006889Y-59919600D01*
X136026883Y-60122594D01*
X136086094Y-60317787D01*
X136182246Y-60497673D01*
X136311647Y-60655352D01*
X136400156Y-60727988D01*
X136469324Y-60784752D01*
X136649214Y-60880906D01*
X136844407Y-60940117D01*
X136996532Y-60955100D01*
X136996534Y-60955100D01*
X137084800Y-60955100D01*
X137122400Y-60965175D01*
X137149925Y-60992700D01*
X137160000Y-61030300D01*
X137160000Y-64008000D01*
X142494000Y-68339756D01*
X148934600Y-68339756D01*
X148972200Y-68349831D01*
X148999725Y-68377356D01*
X149009800Y-68414956D01*
X149009800Y-84249367D01*
X148999725Y-84286967D01*
X148972200Y-84314492D01*
X148934600Y-84324567D01*
X139775200Y-84324567D01*
X139708036Y-84333409D01*
X139700657Y-84335385D01*
X139670433Y-84343484D01*
X139607850Y-84369408D01*
X139554102Y-84410650D01*
X139526583Y-84438169D01*
X139485341Y-84491917D01*
X139459417Y-84554500D01*
X139451318Y-84584725D01*
X139449342Y-84592103D01*
X139440500Y-84659267D01*
X139440500Y-84659270D01*
X139440500Y-92748600D01*
X139430425Y-92786200D01*
X139402900Y-92813725D01*
X139365300Y-92823800D01*
X124424540Y-92823800D01*
X124395762Y-92818076D01*
X124371368Y-92801776D01*
X124288193Y-92718601D01*
X124288192Y-92718600D01*
X124176761Y-92664124D01*
X124104524Y-92653600D01*
X124104522Y-92653600D01*
X123596478Y-92653600D01*
X123596476Y-92653600D01*
X123524238Y-92664124D01*
X123412805Y-92718601D01*
X123325101Y-92806305D01*
X123270624Y-92917738D01*
X123260100Y-92989976D01*
X123260100Y-93573024D01*
X123270624Y-93645261D01*
X123325101Y-93756694D01*
X123412805Y-93844398D01*
X123524238Y-93898875D01*
X123596476Y-93909400D01*
X123596478Y-93909400D01*
X124104522Y-93909400D01*
X124104524Y-93909400D01*
X124152681Y-93902383D01*
X124176762Y-93898875D01*
X124288193Y-93844399D01*
X124371368Y-93761223D01*
X124395762Y-93744924D01*
X124424540Y-93739200D01*
X139365300Y-93739200D01*
X139402900Y-93749275D01*
X139430425Y-93776800D01*
X139440500Y-93814400D01*
X139440500Y-113210867D01*
X139449342Y-113278031D01*
X139449343Y-113278033D01*
X139459417Y-113315633D01*
X139485341Y-113378216D01*
X139526583Y-113431964D01*
X139554102Y-113459483D01*
X139607850Y-113500725D01*
X139670433Y-113526649D01*
X139670434Y-113526649D01*
X139670436Y-113526650D01*
X139708036Y-113536725D01*
X139775200Y-113545567D01*
X139775203Y-113545567D01*
X148934600Y-113545567D01*
X148972200Y-113555642D01*
X148999725Y-113583167D01*
X149009800Y-113620767D01*
X149009800Y-133020800D01*
X148999725Y-133058400D01*
X148972200Y-133085925D01*
X148934600Y-133096000D01*
X140462000Y-133096000D01*
X137460183Y-135635999D01*
X137160000Y-135890000D01*
X137160000Y-140849300D01*
X137149925Y-140886900D01*
X137122400Y-140914425D01*
X137084800Y-140924500D01*
X65157755Y-140924500D01*
X65120155Y-140914425D01*
X65092630Y-140886900D01*
X65082555Y-140849300D01*
X65082555Y-138955452D01*
X65093907Y-138915723D01*
X65124534Y-138887988D01*
X65158238Y-138881881D01*
X65158238Y-138880300D01*
X65263666Y-138880300D01*
X65263668Y-138880300D01*
X65415793Y-138865317D01*
X65610986Y-138806106D01*
X65790876Y-138709952D01*
X65948552Y-138580552D01*
X66077952Y-138422876D01*
X66174106Y-138242986D01*
X66233317Y-138047793D01*
X66239159Y-137988475D01*
X126642300Y-137988475D01*
X126681430Y-138273165D01*
X126758954Y-138549855D01*
X126873438Y-138813425D01*
X127022744Y-139058948D01*
X127204090Y-139281851D01*
X127414103Y-139477991D01*
X127648861Y-139643699D01*
X127648864Y-139643701D01*
X127904003Y-139775904D01*
X128174768Y-139872134D01*
X128456114Y-139930598D01*
X128671048Y-139945300D01*
X128814547Y-139945300D01*
X128814552Y-139945300D01*
X129029486Y-139930598D01*
X129310832Y-139872134D01*
X129581597Y-139775904D01*
X129836736Y-139643701D01*
X129954116Y-139560845D01*
X130071496Y-139477991D01*
X130094654Y-139456362D01*
X130281508Y-139281853D01*
X130360447Y-139184822D01*
X130462855Y-139058948D01*
X130612161Y-138813425D01*
X130657105Y-138709953D01*
X130726644Y-138549858D01*
X130804171Y-138273158D01*
X130843300Y-137988478D01*
X130843300Y-137701122D01*
X130804171Y-137416442D01*
X130762223Y-137266726D01*
X130726645Y-137139744D01*
X130612161Y-136876174D01*
X130462855Y-136630651D01*
X130281509Y-136407748D01*
X130071496Y-136211608D01*
X129836738Y-136045900D01*
X129820024Y-136037239D01*
X129581597Y-135913696D01*
X129485365Y-135879495D01*
X129310831Y-135817465D01*
X129029489Y-135759002D01*
X128948885Y-135753488D01*
X128814552Y-135744300D01*
X128671048Y-135744300D01*
X128551640Y-135752467D01*
X128456110Y-135759002D01*
X128174768Y-135817465D01*
X127904003Y-135913696D01*
X127648861Y-136045900D01*
X127414103Y-136211608D01*
X127204090Y-136407748D01*
X127022744Y-136630651D01*
X126873438Y-136876174D01*
X126758954Y-137139744D01*
X126681430Y-137416434D01*
X126642300Y-137701125D01*
X126642300Y-137988475D01*
X66239159Y-137988475D01*
X66253310Y-137844800D01*
X66233317Y-137641807D01*
X66174106Y-137446614D01*
X66077952Y-137266724D01*
X66021188Y-137197556D01*
X65948552Y-137109047D01*
X65840701Y-137020538D01*
X65790876Y-136979648D01*
X65790874Y-136979647D01*
X65790873Y-136979646D01*
X65610987Y-136883494D01*
X65415794Y-136824283D01*
X65365084Y-136819288D01*
X65263668Y-136809300D01*
X65161932Y-136809300D01*
X65158238Y-136809300D01*
X65158238Y-136807719D01*
X65124534Y-136801612D01*
X65093907Y-136773877D01*
X65082555Y-136734148D01*
X65082555Y-135636000D01*
X65082554Y-135635999D01*
X62936161Y-133298087D01*
X62919222Y-133267793D01*
X62917692Y-133233119D01*
X62931897Y-133201450D01*
X62952658Y-133174394D01*
X62978583Y-133111808D01*
X62988658Y-133074208D01*
X62997500Y-133007044D01*
X62997500Y-132079999D01*
X141282424Y-132079999D01*
X141300635Y-132206662D01*
X141353791Y-132323057D01*
X141437591Y-132419768D01*
X141491414Y-132454357D01*
X141545239Y-132488949D01*
X141668019Y-132525000D01*
X141795981Y-132525000D01*
X141918761Y-132488949D01*
X142026410Y-132419767D01*
X142110207Y-132323059D01*
X142163365Y-132206660D01*
X142181576Y-132080000D01*
X142181576Y-132079999D01*
X142806424Y-132079999D01*
X142824635Y-132206662D01*
X142877791Y-132323057D01*
X142961591Y-132419768D01*
X143015414Y-132454357D01*
X143069239Y-132488949D01*
X143192019Y-132525000D01*
X143319981Y-132525000D01*
X143442761Y-132488949D01*
X143550410Y-132419767D01*
X143634207Y-132323059D01*
X143687365Y-132206660D01*
X143705576Y-132080000D01*
X143705576Y-132079999D01*
X144584424Y-132079999D01*
X144602635Y-132206662D01*
X144655791Y-132323057D01*
X144739591Y-132419768D01*
X144793414Y-132454357D01*
X144847239Y-132488949D01*
X144970019Y-132525000D01*
X145097981Y-132525000D01*
X145220761Y-132488949D01*
X145328410Y-132419767D01*
X145412207Y-132323059D01*
X145465365Y-132206660D01*
X145483576Y-132080000D01*
X145483576Y-132079999D01*
X146108424Y-132079999D01*
X146126635Y-132206662D01*
X146179791Y-132323057D01*
X146263591Y-132419768D01*
X146317414Y-132454357D01*
X146371239Y-132488949D01*
X146494019Y-132525000D01*
X146621981Y-132525000D01*
X146744761Y-132488949D01*
X146852410Y-132419767D01*
X146936207Y-132323059D01*
X146989365Y-132206660D01*
X147007576Y-132080000D01*
X146989365Y-131953340D01*
X146989364Y-131953337D01*
X146936208Y-131836942D01*
X146852408Y-131740231D01*
X146744761Y-131671051D01*
X146621981Y-131635000D01*
X146494019Y-131635000D01*
X146371238Y-131671051D01*
X146263591Y-131740231D01*
X146179791Y-131836942D01*
X146126635Y-131953337D01*
X146108424Y-132079999D01*
X145483576Y-132079999D01*
X145465365Y-131953340D01*
X145465364Y-131953337D01*
X145412208Y-131836942D01*
X145328408Y-131740231D01*
X145220761Y-131671051D01*
X145097981Y-131635000D01*
X144970019Y-131635000D01*
X144847238Y-131671051D01*
X144739591Y-131740231D01*
X144655791Y-131836942D01*
X144602635Y-131953337D01*
X144584424Y-132079999D01*
X143705576Y-132079999D01*
X143687365Y-131953340D01*
X143687364Y-131953337D01*
X143634208Y-131836942D01*
X143550408Y-131740231D01*
X143442761Y-131671051D01*
X143319981Y-131635000D01*
X143192019Y-131635000D01*
X143069238Y-131671051D01*
X142961591Y-131740231D01*
X142877791Y-131836942D01*
X142824635Y-131953337D01*
X142806424Y-132079999D01*
X142181576Y-132079999D01*
X142163365Y-131953340D01*
X142163364Y-131953337D01*
X142110208Y-131836942D01*
X142026408Y-131740231D01*
X141918761Y-131671051D01*
X141795981Y-131635000D01*
X141668019Y-131635000D01*
X141545238Y-131671051D01*
X141437591Y-131740231D01*
X141353791Y-131836942D01*
X141300635Y-131953337D01*
X141282424Y-132079999D01*
X62997500Y-132079999D01*
X62997500Y-129793999D01*
X141282424Y-129793999D01*
X141300635Y-129920662D01*
X141353791Y-130037057D01*
X141437591Y-130133768D01*
X141491414Y-130168358D01*
X141545239Y-130202949D01*
X141668019Y-130239000D01*
X141795981Y-130239000D01*
X141918761Y-130202949D01*
X142026410Y-130133767D01*
X142110207Y-130037059D01*
X142163365Y-129920660D01*
X142181576Y-129794000D01*
X142181576Y-129793999D01*
X142806424Y-129793999D01*
X142824635Y-129920662D01*
X142877791Y-130037057D01*
X142961591Y-130133768D01*
X143015414Y-130168358D01*
X143069239Y-130202949D01*
X143192019Y-130239000D01*
X143319981Y-130239000D01*
X143442761Y-130202949D01*
X143550410Y-130133767D01*
X143634207Y-130037059D01*
X143687365Y-129920660D01*
X143705576Y-129794000D01*
X143705576Y-129793999D01*
X144584424Y-129793999D01*
X144602635Y-129920662D01*
X144655791Y-130037057D01*
X144739591Y-130133768D01*
X144793414Y-130168358D01*
X144847239Y-130202949D01*
X144970019Y-130239000D01*
X145097981Y-130239000D01*
X145220761Y-130202949D01*
X145328410Y-130133767D01*
X145412207Y-130037059D01*
X145465365Y-129920660D01*
X145483576Y-129794000D01*
X145483576Y-129793999D01*
X146108424Y-129793999D01*
X146126635Y-129920662D01*
X146179791Y-130037057D01*
X146263591Y-130133768D01*
X146317414Y-130168358D01*
X146371239Y-130202949D01*
X146494019Y-130239000D01*
X146621981Y-130239000D01*
X146744761Y-130202949D01*
X146852410Y-130133767D01*
X146936207Y-130037059D01*
X146989365Y-129920660D01*
X147007576Y-129794000D01*
X146989365Y-129667340D01*
X146989364Y-129667337D01*
X146936208Y-129550942D01*
X146852408Y-129454231D01*
X146744761Y-129385051D01*
X146621981Y-129349000D01*
X146494019Y-129349000D01*
X146371238Y-129385051D01*
X146263591Y-129454231D01*
X146179791Y-129550942D01*
X146126635Y-129667337D01*
X146108424Y-129793999D01*
X145483576Y-129793999D01*
X145465365Y-129667340D01*
X145465364Y-129667337D01*
X145412208Y-129550942D01*
X145328408Y-129454231D01*
X145220761Y-129385051D01*
X145097981Y-129349000D01*
X144970019Y-129349000D01*
X144847238Y-129385051D01*
X144739591Y-129454231D01*
X144655791Y-129550942D01*
X144602635Y-129667337D01*
X144584424Y-129793999D01*
X143705576Y-129793999D01*
X143687365Y-129667340D01*
X143687364Y-129667337D01*
X143634208Y-129550942D01*
X143550408Y-129454231D01*
X143442761Y-129385051D01*
X143319981Y-129349000D01*
X143192019Y-129349000D01*
X143069238Y-129385051D01*
X142961591Y-129454231D01*
X142877791Y-129550942D01*
X142824635Y-129667337D01*
X142806424Y-129793999D01*
X142181576Y-129793999D01*
X142163365Y-129667340D01*
X142163364Y-129667337D01*
X142110208Y-129550942D01*
X142026408Y-129454231D01*
X141918761Y-129385051D01*
X141795981Y-129349000D01*
X141668019Y-129349000D01*
X141545238Y-129385051D01*
X141437591Y-129454231D01*
X141353791Y-129550942D01*
X141300635Y-129667337D01*
X141282424Y-129793999D01*
X62997500Y-129793999D01*
X62997500Y-127508000D01*
X141282424Y-127508000D01*
X141300635Y-127634662D01*
X141353791Y-127751057D01*
X141437591Y-127847768D01*
X141491414Y-127882357D01*
X141545239Y-127916949D01*
X141668019Y-127953000D01*
X141795981Y-127953000D01*
X141918761Y-127916949D01*
X142026410Y-127847767D01*
X142110207Y-127751059D01*
X142163365Y-127634660D01*
X142181576Y-127508000D01*
X142806424Y-127508000D01*
X142824635Y-127634662D01*
X142877791Y-127751057D01*
X142961591Y-127847768D01*
X143015414Y-127882357D01*
X143069239Y-127916949D01*
X143192019Y-127953000D01*
X143319981Y-127953000D01*
X143442761Y-127916949D01*
X143550410Y-127847767D01*
X143634207Y-127751059D01*
X143687365Y-127634660D01*
X143705576Y-127508000D01*
X144584424Y-127508000D01*
X144602635Y-127634662D01*
X144655791Y-127751057D01*
X144739591Y-127847768D01*
X144793414Y-127882357D01*
X144847239Y-127916949D01*
X144970019Y-127953000D01*
X145097981Y-127953000D01*
X145220761Y-127916949D01*
X145328410Y-127847767D01*
X145412207Y-127751059D01*
X145465365Y-127634660D01*
X145483576Y-127508000D01*
X146108424Y-127508000D01*
X146126635Y-127634662D01*
X146179791Y-127751057D01*
X146263591Y-127847768D01*
X146317414Y-127882357D01*
X146371239Y-127916949D01*
X146494019Y-127953000D01*
X146621981Y-127953000D01*
X146744761Y-127916949D01*
X146852410Y-127847767D01*
X146936207Y-127751059D01*
X146989365Y-127634660D01*
X147007576Y-127508000D01*
X146989365Y-127381340D01*
X146989364Y-127381337D01*
X146936208Y-127264942D01*
X146852408Y-127168231D01*
X146744761Y-127099051D01*
X146621981Y-127063000D01*
X146494019Y-127063000D01*
X146371238Y-127099051D01*
X146263591Y-127168231D01*
X146179791Y-127264942D01*
X146126635Y-127381337D01*
X146108424Y-127508000D01*
X145483576Y-127508000D01*
X145465365Y-127381340D01*
X145465364Y-127381337D01*
X145412208Y-127264942D01*
X145328408Y-127168231D01*
X145220761Y-127099051D01*
X145097981Y-127063000D01*
X144970019Y-127063000D01*
X144847238Y-127099051D01*
X144739591Y-127168231D01*
X144655791Y-127264942D01*
X144602635Y-127381337D01*
X144584424Y-127508000D01*
X143705576Y-127508000D01*
X143687365Y-127381340D01*
X143687364Y-127381337D01*
X143634208Y-127264942D01*
X143550408Y-127168231D01*
X143442761Y-127099051D01*
X143319981Y-127063000D01*
X143192019Y-127063000D01*
X143069238Y-127099051D01*
X142961591Y-127168231D01*
X142877791Y-127264942D01*
X142824635Y-127381337D01*
X142806424Y-127508000D01*
X142181576Y-127508000D01*
X142163365Y-127381340D01*
X142163364Y-127381337D01*
X142110208Y-127264942D01*
X142026408Y-127168231D01*
X141918761Y-127099051D01*
X141795981Y-127063000D01*
X141668019Y-127063000D01*
X141545238Y-127099051D01*
X141437591Y-127168231D01*
X141353791Y-127264942D01*
X141300635Y-127381337D01*
X141282424Y-127508000D01*
X62997500Y-127508000D01*
X62997500Y-121988478D01*
X71442300Y-121988478D01*
X71472607Y-122208974D01*
X71481430Y-122273165D01*
X71558954Y-122549855D01*
X71673438Y-122813425D01*
X71822744Y-123058948D01*
X72004090Y-123281851D01*
X72214103Y-123477991D01*
X72448861Y-123643699D01*
X72448864Y-123643701D01*
X72704003Y-123775904D01*
X72974768Y-123872134D01*
X73256114Y-123930598D01*
X73471048Y-123945300D01*
X73614547Y-123945300D01*
X73614552Y-123945300D01*
X73829486Y-123930598D01*
X74110832Y-123872134D01*
X74381597Y-123775904D01*
X74636736Y-123643701D01*
X74754116Y-123560845D01*
X74871496Y-123477991D01*
X74894654Y-123456362D01*
X75081508Y-123281853D01*
X75160447Y-123184822D01*
X75262855Y-123058948D01*
X75412161Y-122813425D01*
X75526645Y-122549855D01*
X75604169Y-122273165D01*
X75604168Y-122273165D01*
X75604171Y-122273158D01*
X75643300Y-121988478D01*
X75643300Y-121701122D01*
X75604171Y-121416442D01*
X75567343Y-121285000D01*
X142987160Y-121285000D01*
X143006875Y-121497752D01*
X143064739Y-121701125D01*
X143065347Y-121703260D01*
X143160585Y-121894524D01*
X143289347Y-122065031D01*
X143447246Y-122208975D01*
X143516426Y-122251809D01*
X143628906Y-122321455D01*
X143691902Y-122345859D01*
X143828142Y-122398639D01*
X144038168Y-122437900D01*
X144251829Y-122437900D01*
X144251832Y-122437900D01*
X144461858Y-122398639D01*
X144661093Y-122321455D01*
X144842754Y-122208975D01*
X145000653Y-122065031D01*
X145129415Y-121894524D01*
X145224653Y-121703260D01*
X145283125Y-121497752D01*
X145302839Y-121285000D01*
X145283125Y-121072248D01*
X145224653Y-120866740D01*
X145129415Y-120675476D01*
X145000653Y-120504969D01*
X144842754Y-120361025D01*
X144842753Y-120361024D01*
X144661093Y-120248544D01*
X144498479Y-120185548D01*
X144461858Y-120171361D01*
X144251832Y-120132100D01*
X144038168Y-120132100D01*
X143828142Y-120171361D01*
X143828139Y-120171361D01*
X143828139Y-120171362D01*
X143628906Y-120248544D01*
X143447245Y-120361025D01*
X143289348Y-120504967D01*
X143160585Y-120675476D01*
X143065346Y-120866741D01*
X143006875Y-121072247D01*
X142987160Y-121285000D01*
X75567343Y-121285000D01*
X75526644Y-121139742D01*
X75412161Y-120876174D01*
X75262855Y-120630651D01*
X75081509Y-120407748D01*
X74871496Y-120211608D01*
X74636738Y-120045900D01*
X74620024Y-120037239D01*
X74381597Y-119913696D01*
X74285365Y-119879495D01*
X74110831Y-119817465D01*
X73829489Y-119759002D01*
X73748885Y-119753488D01*
X73614552Y-119744300D01*
X73471048Y-119744300D01*
X73351640Y-119752467D01*
X73256110Y-119759002D01*
X72974768Y-119817465D01*
X72704003Y-119913696D01*
X72448861Y-120045900D01*
X72214103Y-120211608D01*
X72004090Y-120407748D01*
X71822744Y-120630651D01*
X71673438Y-120876174D01*
X71558954Y-121139744D01*
X71481430Y-121416434D01*
X71481428Y-121416442D01*
X71481429Y-121416442D01*
X71442300Y-121701122D01*
X71442300Y-121988478D01*
X62997500Y-121988478D01*
X62997500Y-117194600D01*
X64172289Y-117194600D01*
X64192283Y-117397594D01*
X64251494Y-117592787D01*
X64347646Y-117772673D01*
X64477047Y-117930352D01*
X64565556Y-118002988D01*
X64634724Y-118059752D01*
X64814614Y-118155906D01*
X65009807Y-118215117D01*
X65161932Y-118230100D01*
X65263666Y-118230100D01*
X65263668Y-118230100D01*
X65415793Y-118215117D01*
X65610986Y-118155906D01*
X65790876Y-118059752D01*
X65948552Y-117930352D01*
X66077952Y-117772676D01*
X66174106Y-117592786D01*
X66233317Y-117397593D01*
X66239159Y-117338275D01*
X126642300Y-117338275D01*
X126681430Y-117622965D01*
X126758954Y-117899655D01*
X126873438Y-118163225D01*
X127022744Y-118408748D01*
X127204090Y-118631651D01*
X127414103Y-118827791D01*
X127648861Y-118993499D01*
X127648864Y-118993501D01*
X127904003Y-119125704D01*
X128174768Y-119221934D01*
X128456114Y-119280398D01*
X128671048Y-119295100D01*
X128814547Y-119295100D01*
X128814552Y-119295100D01*
X129029486Y-119280398D01*
X129310832Y-119221934D01*
X129581597Y-119125704D01*
X129836736Y-118993501D01*
X129954117Y-118910644D01*
X130071496Y-118827791D01*
X130094654Y-118806162D01*
X130281508Y-118631653D01*
X130360447Y-118534622D01*
X130462855Y-118408748D01*
X130612161Y-118163225D01*
X130657105Y-118059753D01*
X130726644Y-117899658D01*
X130804171Y-117622958D01*
X130843300Y-117338278D01*
X130843300Y-117050922D01*
X130804171Y-116766242D01*
X130762223Y-116616526D01*
X130726645Y-116489544D01*
X130612161Y-116225974D01*
X130462855Y-115980451D01*
X130281509Y-115757548D01*
X130071496Y-115561408D01*
X129836738Y-115395700D01*
X129820024Y-115387039D01*
X129581597Y-115263496D01*
X129485365Y-115229295D01*
X129310831Y-115167265D01*
X129029489Y-115108802D01*
X128948885Y-115103288D01*
X128814552Y-115094100D01*
X128671048Y-115094100D01*
X128551640Y-115102267D01*
X128456110Y-115108802D01*
X128174768Y-115167265D01*
X127904003Y-115263496D01*
X127648861Y-115395700D01*
X127414103Y-115561408D01*
X127204090Y-115757548D01*
X127022744Y-115980451D01*
X126873438Y-116225974D01*
X126758954Y-116489544D01*
X126681430Y-116766234D01*
X126642300Y-117050925D01*
X126642300Y-117338275D01*
X66239159Y-117338275D01*
X66253310Y-117194600D01*
X66233317Y-116991607D01*
X66174106Y-116796414D01*
X66077952Y-116616524D01*
X66021188Y-116547356D01*
X65948552Y-116458847D01*
X65840701Y-116370338D01*
X65790876Y-116329448D01*
X65790874Y-116329447D01*
X65790873Y-116329446D01*
X65610987Y-116233294D01*
X65415794Y-116174083D01*
X65365084Y-116169088D01*
X65263668Y-116159100D01*
X65161932Y-116159100D01*
X65085869Y-116166591D01*
X65009805Y-116174083D01*
X64814612Y-116233294D01*
X64634726Y-116329446D01*
X64477047Y-116458847D01*
X64347646Y-116616526D01*
X64251494Y-116796412D01*
X64192283Y-116991605D01*
X64172289Y-117194600D01*
X62997500Y-117194600D01*
X62997500Y-104977200D01*
X62988658Y-104910036D01*
X62978583Y-104872436D01*
X62952658Y-104809850D01*
X62911419Y-104756106D01*
X62911416Y-104756102D01*
X62883897Y-104728583D01*
X62830149Y-104687341D01*
X62767566Y-104661417D01*
X62747415Y-104656018D01*
X62729964Y-104651342D01*
X62662800Y-104642500D01*
X61140254Y-104642500D01*
X61099846Y-104630721D01*
X61072096Y-104599074D01*
X61065699Y-104557473D01*
X61073077Y-104540711D01*
X61070964Y-104539942D01*
X61077902Y-104520880D01*
X61079122Y-104513954D01*
X61079124Y-104513952D01*
X61076642Y-104499875D01*
X61075500Y-104486818D01*
X61075500Y-101338275D01*
X71442300Y-101338275D01*
X71481430Y-101622965D01*
X71558954Y-101899655D01*
X71673438Y-102163225D01*
X71822744Y-102408748D01*
X72004090Y-102631651D01*
X72214103Y-102827791D01*
X72448861Y-102993499D01*
X72448864Y-102993501D01*
X72704003Y-103125704D01*
X72974768Y-103221934D01*
X73256114Y-103280398D01*
X73471048Y-103295100D01*
X73614547Y-103295100D01*
X73614552Y-103295100D01*
X73829486Y-103280398D01*
X74110832Y-103221934D01*
X74381597Y-103125704D01*
X74636736Y-102993501D01*
X74754117Y-102910644D01*
X74871496Y-102827791D01*
X74894654Y-102806162D01*
X75081508Y-102631653D01*
X75160447Y-102534622D01*
X75262855Y-102408748D01*
X75412161Y-102163225D01*
X75526645Y-101899655D01*
X75604169Y-101622965D01*
X75604168Y-101622965D01*
X75604171Y-101622958D01*
X75643300Y-101338278D01*
X75643300Y-101050922D01*
X75604171Y-100766242D01*
X75526644Y-100489542D01*
X75412161Y-100225975D01*
X75412161Y-100225974D01*
X75262855Y-99980451D01*
X75081509Y-99757548D01*
X74871496Y-99561408D01*
X74636738Y-99395700D01*
X74620024Y-99387039D01*
X74381597Y-99263496D01*
X74285365Y-99229295D01*
X74110831Y-99167265D01*
X73829489Y-99108802D01*
X73748885Y-99103288D01*
X73614552Y-99094100D01*
X73471048Y-99094100D01*
X73351640Y-99102267D01*
X73256110Y-99108802D01*
X72974768Y-99167265D01*
X72704003Y-99263496D01*
X72448861Y-99395700D01*
X72214103Y-99561408D01*
X72004090Y-99757548D01*
X71822744Y-99980451D01*
X71673438Y-100225974D01*
X71558954Y-100489544D01*
X71481430Y-100766234D01*
X71442300Y-101050925D01*
X71442300Y-101338275D01*
X61075500Y-101338275D01*
X61075500Y-96713475D01*
X126616900Y-96713475D01*
X126656030Y-96998165D01*
X126733554Y-97274855D01*
X126848038Y-97538425D01*
X126997344Y-97783948D01*
X127178690Y-98006851D01*
X127388703Y-98202991D01*
X127623461Y-98368699D01*
X127623464Y-98368701D01*
X127878603Y-98500904D01*
X128149368Y-98597134D01*
X128430714Y-98655598D01*
X128645648Y-98670300D01*
X128789147Y-98670300D01*
X128789152Y-98670300D01*
X129004086Y-98655598D01*
X129285432Y-98597134D01*
X129556197Y-98500904D01*
X129811336Y-98368701D01*
X129928717Y-98285844D01*
X130046096Y-98202991D01*
X130069254Y-98181362D01*
X130256108Y-98006853D01*
X130335047Y-97909822D01*
X130437455Y-97783948D01*
X130586761Y-97538425D01*
X130701245Y-97274855D01*
X130778769Y-96998165D01*
X130778768Y-96998165D01*
X130778771Y-96998158D01*
X130817900Y-96713478D01*
X130817900Y-96426122D01*
X130778771Y-96141442D01*
X130769895Y-96109762D01*
X130701245Y-95864744D01*
X130586761Y-95601174D01*
X130437455Y-95355651D01*
X130256109Y-95132748D01*
X130046096Y-94936608D01*
X129811338Y-94770900D01*
X129794624Y-94762239D01*
X129556197Y-94638696D01*
X129459965Y-94604495D01*
X129285431Y-94542465D01*
X129004089Y-94484002D01*
X128923485Y-94478488D01*
X128789152Y-94469300D01*
X128645648Y-94469300D01*
X128526240Y-94477467D01*
X128430710Y-94484002D01*
X128149368Y-94542465D01*
X127878603Y-94638696D01*
X127623461Y-94770900D01*
X127388703Y-94936608D01*
X127178690Y-95132748D01*
X126997344Y-95355651D01*
X126848038Y-95601174D01*
X126733554Y-95864744D01*
X126656030Y-96141434D01*
X126656028Y-96141442D01*
X126656029Y-96141442D01*
X126625592Y-96362889D01*
X126616900Y-96426125D01*
X126616900Y-96713475D01*
X61075500Y-96713475D01*
X61075500Y-96037500D01*
X113164604Y-96037500D01*
X113175110Y-96109616D01*
X113229513Y-96220900D01*
X113317099Y-96308486D01*
X113428383Y-96362889D01*
X113500524Y-96373400D01*
X113538000Y-96373400D01*
X113538000Y-96037500D01*
X114046000Y-96037500D01*
X114046000Y-96373400D01*
X114083476Y-96373400D01*
X114155616Y-96362889D01*
X114266900Y-96308486D01*
X114354486Y-96220900D01*
X114408889Y-96109616D01*
X114419396Y-96037500D01*
X114046000Y-96037500D01*
X113538000Y-96037500D01*
X113164604Y-96037500D01*
X61075500Y-96037500D01*
X61075500Y-95529500D01*
X113164604Y-95529500D01*
X113538000Y-95529500D01*
X113538000Y-95193600D01*
X113500524Y-95193600D01*
X113428383Y-95204110D01*
X113317099Y-95258513D01*
X113229513Y-95346099D01*
X113175110Y-95457383D01*
X113164604Y-95529500D01*
X61075500Y-95529500D01*
X61075500Y-93980000D01*
X95452263Y-93980000D01*
X95483004Y-94074610D01*
X95572594Y-94229785D01*
X95692493Y-94362946D01*
X95837451Y-94468265D01*
X96001146Y-94541147D01*
X96011999Y-94543454D01*
X96012000Y-94543454D01*
X96012000Y-93980000D01*
X96520000Y-93980000D01*
X96520000Y-94543454D01*
X96530853Y-94541147D01*
X96694548Y-94468265D01*
X96839506Y-94362946D01*
X96959405Y-94229785D01*
X97048995Y-94074610D01*
X97079736Y-93980000D01*
X96520000Y-93980000D01*
X96012000Y-93980000D01*
X95452263Y-93980000D01*
X61075500Y-93980000D01*
X61075500Y-93725999D01*
X100488402Y-93725999D01*
X100507142Y-93904302D01*
X100507143Y-93904305D01*
X100531737Y-93980000D01*
X100562546Y-94074819D01*
X100652188Y-94230082D01*
X100772155Y-94363320D01*
X100917199Y-94468701D01*
X100917200Y-94468701D01*
X100917201Y-94468702D01*
X101080988Y-94541624D01*
X101256357Y-94578900D01*
X101435642Y-94578900D01*
X101435643Y-94578900D01*
X101611012Y-94541624D01*
X101774799Y-94468702D01*
X101919845Y-94363320D01*
X102039811Y-94230083D01*
X102129455Y-94074817D01*
X102184857Y-93904305D01*
X102203598Y-93726000D01*
X102184857Y-93547695D01*
X102129455Y-93377183D01*
X102039811Y-93221917D01*
X101919845Y-93088680D01*
X101918948Y-93088028D01*
X101774800Y-92983298D01*
X101611012Y-92910376D01*
X101602398Y-92908545D01*
X101435643Y-92873100D01*
X101256357Y-92873100D01*
X101168672Y-92891737D01*
X101080987Y-92910376D01*
X100917199Y-92983298D01*
X100772155Y-93088679D01*
X100652188Y-93221917D01*
X100562546Y-93377180D01*
X100507142Y-93547697D01*
X100488402Y-93725999D01*
X61075500Y-93725999D01*
X61075500Y-93471999D01*
X95452263Y-93471999D01*
X95452264Y-93472000D01*
X96012000Y-93472000D01*
X96012000Y-92908546D01*
X96011999Y-92908545D01*
X96520000Y-92908545D01*
X96520000Y-93472000D01*
X97079736Y-93472000D01*
X97079736Y-93471999D01*
X97048995Y-93377389D01*
X96959405Y-93222214D01*
X96839506Y-93089053D01*
X96694548Y-92983734D01*
X96530853Y-92910852D01*
X96520000Y-92908545D01*
X96011999Y-92908545D01*
X96001146Y-92910852D01*
X95837449Y-92983735D01*
X95692495Y-93089051D01*
X95572594Y-93222214D01*
X95483004Y-93377389D01*
X95452263Y-93471999D01*
X61075500Y-93471999D01*
X61075500Y-93040379D01*
X61078980Y-93027391D01*
X61076821Y-93027011D01*
X61079122Y-93013954D01*
X61079124Y-93013952D01*
X61076642Y-92999875D01*
X61075500Y-92986818D01*
X61075500Y-92986688D01*
X61075457Y-92986570D01*
X61072063Y-92973908D01*
X61069581Y-92959828D01*
X61069580Y-92959827D01*
X61066066Y-92953740D01*
X61061545Y-92948352D01*
X61049167Y-92941205D01*
X61038435Y-92933690D01*
X61027483Y-92924501D01*
X61020880Y-92922098D01*
X61013952Y-92920876D01*
X61013951Y-92920876D01*
X60999875Y-92923358D01*
X60986818Y-92924500D01*
X53415200Y-92924500D01*
X53377600Y-92914425D01*
X53350075Y-92886900D01*
X53340000Y-92849300D01*
X53340000Y-87317226D01*
X108284100Y-87317226D01*
X108287038Y-87342550D01*
X108332780Y-87446145D01*
X108412855Y-87526220D01*
X108516450Y-87571962D01*
X108541774Y-87574900D01*
X110282226Y-87574900D01*
X110307550Y-87571962D01*
X110411145Y-87526220D01*
X110491220Y-87446145D01*
X110491220Y-87446144D01*
X110500740Y-87436625D01*
X110525136Y-87420324D01*
X110553914Y-87414600D01*
X110845653Y-87414600D01*
X110874431Y-87420324D01*
X110898827Y-87436626D01*
X111254874Y-87792673D01*
X111271176Y-87817069D01*
X111276900Y-87845847D01*
X111276900Y-90193905D01*
X111274496Y-90208641D01*
X111276820Y-90258912D01*
X111276900Y-90262385D01*
X111276900Y-90281014D01*
X111277191Y-90282571D01*
X111278391Y-90292912D01*
X111279738Y-90322051D01*
X111284594Y-90333048D01*
X111289721Y-90349604D01*
X111291931Y-90361428D01*
X111307285Y-90386224D01*
X111312143Y-90395439D01*
X111323924Y-90422123D01*
X111323925Y-90422124D01*
X111332429Y-90430628D01*
X111343189Y-90444212D01*
X111349521Y-90454439D01*
X111372796Y-90472015D01*
X111380653Y-90478852D01*
X112760277Y-91858476D01*
X112769002Y-91870601D01*
X112806201Y-91904513D01*
X112808692Y-91906891D01*
X112821870Y-91920069D01*
X112821871Y-91920070D01*
X112823175Y-91920963D01*
X112831341Y-91927431D01*
X112848248Y-91942843D01*
X112852898Y-91947082D01*
X112864111Y-91951425D01*
X112879441Y-91959506D01*
X112889366Y-91966305D01*
X112917770Y-91972985D01*
X112927695Y-91976058D01*
X112954904Y-91986600D01*
X112966931Y-91986600D01*
X112984147Y-91988597D01*
X112986512Y-91989153D01*
X112995853Y-91991350D01*
X113024736Y-91987320D01*
X113035125Y-91986600D01*
X113069919Y-91986600D01*
X113117626Y-92003670D01*
X113143673Y-92047129D01*
X113144972Y-92053658D01*
X113144972Y-92053659D01*
X113144973Y-92053660D01*
X113178765Y-92104234D01*
X113182118Y-92106474D01*
X113211548Y-92144828D01*
X113211548Y-92193172D01*
X113182118Y-92231526D01*
X113178765Y-92233765D01*
X113144971Y-92284341D01*
X113136100Y-92328942D01*
X113136100Y-92959057D01*
X113144972Y-93003658D01*
X113178766Y-93054234D01*
X113229341Y-93088028D01*
X113273943Y-93096900D01*
X113421200Y-93096900D01*
X113458800Y-93106975D01*
X113486325Y-93134500D01*
X113496400Y-93172100D01*
X113496400Y-93553657D01*
X113488062Y-93588075D01*
X113464896Y-93614859D01*
X113432042Y-93628070D01*
X113429256Y-93628476D01*
X113428236Y-93628625D01*
X113316805Y-93683101D01*
X113229101Y-93770805D01*
X113174624Y-93882238D01*
X113164100Y-93954476D01*
X113164100Y-94462524D01*
X113174624Y-94534761D01*
X113229101Y-94646194D01*
X113316805Y-94733898D01*
X113428238Y-94788375D01*
X113500476Y-94798900D01*
X113500478Y-94798900D01*
X113784953Y-94798900D01*
X113813731Y-94804624D01*
X113838127Y-94820926D01*
X114082427Y-95065226D01*
X114103008Y-95103729D01*
X114098729Y-95147178D01*
X114071032Y-95180927D01*
X114053290Y-95186308D01*
X114046000Y-95193599D01*
X114046000Y-95529500D01*
X114419394Y-95529500D01*
X114425548Y-95522384D01*
X114459484Y-95499961D01*
X114500134Y-95498489D01*
X114535602Y-95518401D01*
X114920074Y-95902873D01*
X114936376Y-95927269D01*
X114942100Y-95956047D01*
X114942100Y-96037524D01*
X114952624Y-96109761D01*
X115007101Y-96221194D01*
X115094805Y-96308898D01*
X115206238Y-96363375D01*
X115278476Y-96373900D01*
X115278478Y-96373900D01*
X115861522Y-96373900D01*
X115861524Y-96373900D01*
X115909682Y-96366883D01*
X115933762Y-96363375D01*
X116045193Y-96308899D01*
X116132899Y-96221193D01*
X116187375Y-96109762D01*
X116197900Y-96037522D01*
X116197900Y-95821499D01*
X117215922Y-95821499D01*
X117234133Y-95948162D01*
X117287289Y-96064557D01*
X117371089Y-96161268D01*
X117424912Y-96195857D01*
X117478737Y-96230449D01*
X117601517Y-96266500D01*
X117729479Y-96266500D01*
X117852259Y-96230449D01*
X117959908Y-96161267D01*
X118008772Y-96104873D01*
X118050726Y-96080406D01*
X118098886Y-96086684D01*
X118133162Y-96121089D01*
X118143109Y-96141434D01*
X118182101Y-96221194D01*
X118269805Y-96308898D01*
X118381238Y-96363375D01*
X118453476Y-96373900D01*
X118453478Y-96373900D01*
X119036522Y-96373900D01*
X119036524Y-96373900D01*
X119084682Y-96366883D01*
X119108762Y-96363375D01*
X119220193Y-96308899D01*
X119307899Y-96221193D01*
X119362375Y-96109762D01*
X119372900Y-96037522D01*
X119372900Y-95529478D01*
X119371866Y-95522384D01*
X119362375Y-95457238D01*
X119312712Y-95355653D01*
X119307899Y-95345807D01*
X119307898Y-95345806D01*
X119307898Y-95345805D01*
X119220194Y-95258101D01*
X119108761Y-95203624D01*
X119036524Y-95193100D01*
X119036522Y-95193100D01*
X118453478Y-95193100D01*
X118453476Y-95193100D01*
X118381238Y-95203624D01*
X118269805Y-95258101D01*
X118182101Y-95345805D01*
X118152076Y-95407221D01*
X118131784Y-95448729D01*
X118104048Y-95479492D01*
X118064227Y-95490900D01*
X117996252Y-95490900D01*
X117955596Y-95478962D01*
X117852259Y-95412551D01*
X117729479Y-95376500D01*
X117601517Y-95376500D01*
X117478736Y-95412551D01*
X117371089Y-95481731D01*
X117287289Y-95578442D01*
X117234133Y-95694837D01*
X117215922Y-95821499D01*
X116197900Y-95821499D01*
X116197900Y-95529478D01*
X116196866Y-95522384D01*
X116187375Y-95457238D01*
X116137712Y-95355653D01*
X116132899Y-95345807D01*
X116132898Y-95345806D01*
X116132898Y-95345805D01*
X116045194Y-95258101D01*
X115933761Y-95203624D01*
X115861524Y-95193100D01*
X115861522Y-95193100D01*
X115278478Y-95193100D01*
X115278476Y-95193100D01*
X115206238Y-95203624D01*
X115148477Y-95231862D01*
X115103072Y-95238477D01*
X115062276Y-95217477D01*
X114432263Y-94587464D01*
X114414063Y-94557971D01*
X114411023Y-94523449D01*
X114419900Y-94462524D01*
X114942100Y-94462524D01*
X114952624Y-94534761D01*
X115007101Y-94646194D01*
X115094805Y-94733898D01*
X115206238Y-94788375D01*
X115278476Y-94798900D01*
X115278478Y-94798900D01*
X115861522Y-94798900D01*
X115861524Y-94798900D01*
X115909681Y-94791883D01*
X115933762Y-94788375D01*
X116045193Y-94733899D01*
X116132899Y-94646193D01*
X116187375Y-94534762D01*
X116190883Y-94510681D01*
X116197900Y-94462524D01*
X116197900Y-93954476D01*
X116187375Y-93882238D01*
X116132898Y-93770805D01*
X116045194Y-93683101D01*
X115933760Y-93628624D01*
X115926957Y-93627633D01*
X115894102Y-93614420D01*
X115870938Y-93587635D01*
X115862600Y-93553219D01*
X115862600Y-93117304D01*
X115873299Y-93078643D01*
X115902351Y-93050983D01*
X115941490Y-93042195D01*
X115979579Y-93054778D01*
X116029340Y-93088028D01*
X116044140Y-93090971D01*
X116073943Y-93096900D01*
X117104056Y-93096899D01*
X117104057Y-93096899D01*
X117111456Y-93095427D01*
X117148658Y-93088028D01*
X117199234Y-93054234D01*
X117233028Y-93003658D01*
X117234326Y-92997129D01*
X117260376Y-92953670D01*
X117308082Y-92936600D01*
X118168360Y-92936600D01*
X118197138Y-92942324D01*
X118221531Y-92958623D01*
X118269807Y-93006899D01*
X118381238Y-93061375D01*
X118382683Y-93061585D01*
X118388043Y-93062367D01*
X118420898Y-93075580D01*
X118444062Y-93102365D01*
X118452400Y-93136781D01*
X118452400Y-93553219D01*
X118444062Y-93587635D01*
X118420898Y-93614420D01*
X118388043Y-93627633D01*
X118381239Y-93628624D01*
X118269805Y-93683101D01*
X118182101Y-93770805D01*
X118127624Y-93882238D01*
X118117100Y-93954476D01*
X118117100Y-94462524D01*
X118127624Y-94534761D01*
X118182101Y-94646194D01*
X118269805Y-94733898D01*
X118381238Y-94788375D01*
X118453476Y-94798900D01*
X118453478Y-94798900D01*
X119036522Y-94798900D01*
X119036524Y-94798900D01*
X119084681Y-94791883D01*
X119108762Y-94788375D01*
X119220193Y-94733899D01*
X119307899Y-94646193D01*
X119362375Y-94534762D01*
X119365883Y-94510681D01*
X119372900Y-94462524D01*
X119372900Y-93954476D01*
X119362375Y-93882238D01*
X119307898Y-93770805D01*
X119220194Y-93683101D01*
X119108760Y-93628624D01*
X119101957Y-93627633D01*
X119069102Y-93614420D01*
X119045938Y-93587635D01*
X119037600Y-93553219D01*
X119037600Y-93136781D01*
X119045938Y-93102365D01*
X119069102Y-93075580D01*
X119101957Y-93062367D01*
X119106377Y-93061722D01*
X119108762Y-93061375D01*
X119220193Y-93006899D01*
X119307899Y-92919193D01*
X119362375Y-92807762D01*
X119372900Y-92735522D01*
X119372900Y-92227478D01*
X119367901Y-92193169D01*
X119362375Y-92155238D01*
X119332842Y-92094828D01*
X119327021Y-92045355D01*
X119353399Y-92003099D01*
X119400401Y-91986600D01*
X119608653Y-91986600D01*
X119637431Y-91992324D01*
X119661827Y-92008626D01*
X119873074Y-92219873D01*
X119889376Y-92244269D01*
X119895100Y-92273047D01*
X119895100Y-92735524D01*
X119905624Y-92807761D01*
X119960101Y-92919194D01*
X120047805Y-93006898D01*
X120159238Y-93061375D01*
X120231476Y-93071900D01*
X120231478Y-93071900D01*
X120668453Y-93071900D01*
X120697231Y-93077624D01*
X120721627Y-93093926D01*
X121073677Y-93445976D01*
X121082402Y-93458101D01*
X121119601Y-93492013D01*
X121122092Y-93494391D01*
X121135271Y-93507570D01*
X121136575Y-93508463D01*
X121144741Y-93514931D01*
X121166297Y-93534582D01*
X121177506Y-93538924D01*
X121192840Y-93547006D01*
X121202764Y-93553804D01*
X121202766Y-93553805D01*
X121231167Y-93560485D01*
X121241104Y-93563562D01*
X121268304Y-93574100D01*
X121280327Y-93574100D01*
X121297543Y-93576097D01*
X121299660Y-93576594D01*
X121309253Y-93578851D01*
X121338142Y-93574820D01*
X121348531Y-93574100D01*
X121620219Y-93574100D01*
X121654635Y-93582438D01*
X121681420Y-93605602D01*
X121694633Y-93638457D01*
X121695624Y-93645260D01*
X121750101Y-93756694D01*
X121837805Y-93844398D01*
X121949238Y-93898875D01*
X122021476Y-93909400D01*
X122021478Y-93909400D01*
X122529522Y-93909400D01*
X122529524Y-93909400D01*
X122577681Y-93902383D01*
X122601762Y-93898875D01*
X122713193Y-93844399D01*
X122800899Y-93756693D01*
X122855375Y-93645262D01*
X122859246Y-93618694D01*
X122865900Y-93573024D01*
X122865900Y-92989976D01*
X122855375Y-92917738D01*
X122800898Y-92806305D01*
X122713194Y-92718601D01*
X122601761Y-92664124D01*
X122529524Y-92653600D01*
X122529522Y-92653600D01*
X122021478Y-92653600D01*
X122021476Y-92653600D01*
X121949238Y-92664124D01*
X121837805Y-92718601D01*
X121750101Y-92806305D01*
X121695624Y-92917739D01*
X121694633Y-92924543D01*
X121681420Y-92957398D01*
X121654635Y-92980562D01*
X121620219Y-92988900D01*
X121475346Y-92988900D01*
X121446568Y-92983176D01*
X121422172Y-92966874D01*
X121172926Y-92717628D01*
X121156624Y-92693232D01*
X121150900Y-92664454D01*
X121150900Y-92227476D01*
X121140375Y-92155238D01*
X121090715Y-92053658D01*
X121085899Y-92043807D01*
X121085898Y-92043806D01*
X121085898Y-92043805D01*
X120998194Y-91956101D01*
X120886761Y-91901624D01*
X120814524Y-91891100D01*
X120814522Y-91891100D01*
X120403047Y-91891100D01*
X120374269Y-91885376D01*
X120349873Y-91869074D01*
X120094683Y-91613884D01*
X120073620Y-91572704D01*
X120080643Y-91526986D01*
X120113096Y-91494027D01*
X120158699Y-91486296D01*
X120159236Y-91486374D01*
X120159238Y-91486375D01*
X120211759Y-91494027D01*
X120231477Y-91496900D01*
X120231478Y-91496900D01*
X120814522Y-91496900D01*
X120814524Y-91496900D01*
X120862682Y-91489883D01*
X120886762Y-91486375D01*
X120998193Y-91431899D01*
X121085899Y-91344193D01*
X121136215Y-91241270D01*
X121163952Y-91210508D01*
X121203773Y-91199100D01*
X126258900Y-91199100D01*
X126296500Y-91209175D01*
X126324025Y-91236700D01*
X126334100Y-91274300D01*
X126334100Y-92126797D01*
X126339480Y-92167668D01*
X126349555Y-92205268D01*
X126390425Y-92276055D01*
X126417944Y-92303574D01*
X126417946Y-92303575D01*
X126417948Y-92303577D01*
X126488732Y-92344445D01*
X126526332Y-92354520D01*
X126567200Y-92359900D01*
X133020797Y-92359900D01*
X133020800Y-92359900D01*
X133061668Y-92354520D01*
X133099268Y-92344445D01*
X133170052Y-92303577D01*
X133197577Y-92276052D01*
X133238445Y-92205268D01*
X133248520Y-92167668D01*
X133253900Y-92126800D01*
X133253900Y-89483200D01*
X133248520Y-89442332D01*
X133238445Y-89404732D01*
X133197577Y-89333948D01*
X133197575Y-89333946D01*
X133197574Y-89333944D01*
X133170055Y-89306425D01*
X133099268Y-89265555D01*
X133061668Y-89255480D01*
X133020800Y-89250100D01*
X126567200Y-89250100D01*
X126536549Y-89254134D01*
X126526331Y-89255480D01*
X126488731Y-89265555D01*
X126417944Y-89306425D01*
X126390425Y-89333944D01*
X126349555Y-89404731D01*
X126339480Y-89442331D01*
X126334100Y-89483203D01*
X126334100Y-90538700D01*
X126324025Y-90576300D01*
X126296500Y-90603825D01*
X126258900Y-90613900D01*
X121203773Y-90613900D01*
X121163952Y-90602492D01*
X121136215Y-90571729D01*
X121085899Y-90468807D01*
X121085898Y-90468806D01*
X121085898Y-90468805D01*
X120998194Y-90381101D01*
X120886761Y-90326624D01*
X120814524Y-90316100D01*
X120814522Y-90316100D01*
X120231478Y-90316100D01*
X120231476Y-90316100D01*
X120159238Y-90326624D01*
X120054643Y-90377759D01*
X120021615Y-90385400D01*
X119246385Y-90385400D01*
X119213357Y-90377759D01*
X119108761Y-90326624D01*
X119036524Y-90316100D01*
X119036522Y-90316100D01*
X118453478Y-90316100D01*
X118453476Y-90316100D01*
X118381238Y-90326624D01*
X118276643Y-90377759D01*
X118243615Y-90385400D01*
X117273930Y-90385400D01*
X117238481Y-90376521D01*
X117211404Y-90351979D01*
X117199234Y-90333765D01*
X117148658Y-90299971D01*
X117104057Y-90291100D01*
X116073942Y-90291100D01*
X116029341Y-90299972D01*
X115978765Y-90333766D01*
X115944971Y-90384341D01*
X115943673Y-90390871D01*
X115917624Y-90434330D01*
X115869918Y-90451400D01*
X115869597Y-90451400D01*
X115854855Y-90448995D01*
X115804574Y-90451320D01*
X115801101Y-90451400D01*
X115782487Y-90451400D01*
X115780918Y-90451693D01*
X115770593Y-90452890D01*
X115741448Y-90454239D01*
X115730443Y-90459098D01*
X115713890Y-90464223D01*
X115709172Y-90465105D01*
X115702068Y-90466433D01*
X115677273Y-90481785D01*
X115668065Y-90486639D01*
X115641376Y-90498423D01*
X115632869Y-90506931D01*
X115619287Y-90517689D01*
X115609062Y-90524020D01*
X115591484Y-90547297D01*
X115584648Y-90555151D01*
X115405522Y-90734277D01*
X115393400Y-90743001D01*
X115359493Y-90780193D01*
X115357100Y-90782699D01*
X115343928Y-90795873D01*
X115343027Y-90797188D01*
X115336570Y-90805339D01*
X115316917Y-90826897D01*
X115312573Y-90838111D01*
X115304494Y-90853438D01*
X115297694Y-90863364D01*
X115291017Y-90891756D01*
X115287937Y-90901702D01*
X115277400Y-90928903D01*
X115277400Y-90940931D01*
X115275403Y-90958147D01*
X115272650Y-90969852D01*
X115276679Y-90998736D01*
X115277400Y-91009125D01*
X115277400Y-93553219D01*
X115269062Y-93587635D01*
X115245898Y-93614420D01*
X115213043Y-93627633D01*
X115206239Y-93628624D01*
X115094805Y-93683101D01*
X115007101Y-93770805D01*
X114952624Y-93882238D01*
X114942100Y-93954476D01*
X114942100Y-94462524D01*
X114419900Y-94462524D01*
X114419900Y-94462522D01*
X114419900Y-93954478D01*
X114409375Y-93882238D01*
X114354899Y-93770807D01*
X114354898Y-93770806D01*
X114354898Y-93770805D01*
X114267194Y-93683101D01*
X114155760Y-93628624D01*
X114145957Y-93627196D01*
X114113102Y-93613983D01*
X114089938Y-93587198D01*
X114081600Y-93552782D01*
X114081600Y-93172099D01*
X114091675Y-93134499D01*
X114119200Y-93106974D01*
X114156800Y-93096899D01*
X114304057Y-93096899D01*
X114311456Y-93095427D01*
X114348658Y-93088028D01*
X114399234Y-93054234D01*
X114433028Y-93003658D01*
X114441900Y-92959057D01*
X114441899Y-92328944D01*
X114433028Y-92284342D01*
X114399234Y-92233766D01*
X114395879Y-92231524D01*
X114366450Y-92193169D01*
X114366452Y-92144823D01*
X114395882Y-92106473D01*
X114399234Y-92104234D01*
X114433028Y-92053658D01*
X114441900Y-92009057D01*
X114441899Y-91378944D01*
X114433028Y-91334342D01*
X114399234Y-91283766D01*
X114395879Y-91281524D01*
X114366450Y-91243169D01*
X114366452Y-91194823D01*
X114395882Y-91156473D01*
X114399234Y-91154234D01*
X114433028Y-91103658D01*
X114441900Y-91059057D01*
X114441899Y-90727045D01*
X114447623Y-90698268D01*
X114463922Y-90673875D01*
X115669172Y-89468626D01*
X115693569Y-89452324D01*
X115722347Y-89446600D01*
X119701005Y-89446600D01*
X119715741Y-89449003D01*
X119719872Y-89448812D01*
X119719875Y-89448813D01*
X119766013Y-89446679D01*
X119769485Y-89446600D01*
X119788108Y-89446600D01*
X119788111Y-89446600D01*
X119789663Y-89446309D01*
X119800009Y-89445107D01*
X119829151Y-89443761D01*
X119840150Y-89438903D01*
X119856701Y-89433777D01*
X119868530Y-89431567D01*
X119893329Y-89416210D01*
X119902536Y-89411357D01*
X119929224Y-89399575D01*
X119937728Y-89391070D01*
X119951319Y-89380306D01*
X119953337Y-89379056D01*
X119961538Y-89373979D01*
X119979116Y-89350700D01*
X119985946Y-89342851D01*
X120687475Y-88641322D01*
X120699598Y-88632601D01*
X120702385Y-88629544D01*
X120733515Y-88595393D01*
X120735895Y-88592903D01*
X120749070Y-88579729D01*
X120749968Y-88578416D01*
X120756430Y-88570258D01*
X120776082Y-88548702D01*
X120780424Y-88537490D01*
X120788504Y-88522160D01*
X120795305Y-88512234D01*
X120801984Y-88483831D01*
X120805058Y-88473905D01*
X120815600Y-88446696D01*
X120815600Y-88434673D01*
X120817597Y-88417457D01*
X120817994Y-88415765D01*
X120820351Y-88405747D01*
X120816320Y-88376857D01*
X120815600Y-88366469D01*
X120815600Y-88244100D01*
X120825675Y-88206500D01*
X120853200Y-88178975D01*
X120890800Y-88168900D01*
X130480797Y-88168900D01*
X130480800Y-88168900D01*
X130521668Y-88163520D01*
X130559268Y-88153445D01*
X130630052Y-88112577D01*
X130657577Y-88085052D01*
X130698445Y-88014268D01*
X130708520Y-87976668D01*
X130713900Y-87935800D01*
X130713900Y-83895200D01*
X130708520Y-83854332D01*
X130698445Y-83816732D01*
X130657577Y-83745948D01*
X130657575Y-83745946D01*
X130657574Y-83745944D01*
X130630055Y-83718425D01*
X130625508Y-83715800D01*
X130559268Y-83677555D01*
X130521668Y-83667480D01*
X130480800Y-83662100D01*
X130480797Y-83662100D01*
X129145900Y-83662100D01*
X129108300Y-83652025D01*
X129080775Y-83624500D01*
X129070700Y-83586900D01*
X129070700Y-83251040D01*
X129076424Y-83222262D01*
X129092723Y-83197868D01*
X129138399Y-83152193D01*
X129192875Y-83040762D01*
X129196383Y-83016681D01*
X129203400Y-82968524D01*
X129203400Y-82385476D01*
X129192875Y-82313238D01*
X129138398Y-82201805D01*
X129050694Y-82114101D01*
X128939261Y-82059624D01*
X128867024Y-82049100D01*
X128867022Y-82049100D01*
X128358978Y-82049100D01*
X128358976Y-82049100D01*
X128286738Y-82059624D01*
X128175305Y-82114101D01*
X128087601Y-82201805D01*
X128033124Y-82313238D01*
X128022600Y-82385476D01*
X128022600Y-82968524D01*
X128033124Y-83040761D01*
X128087600Y-83152192D01*
X128087601Y-83152193D01*
X128133276Y-83197868D01*
X128149576Y-83222262D01*
X128155300Y-83251040D01*
X128155300Y-83586900D01*
X128145225Y-83624500D01*
X128117700Y-83652025D01*
X128080100Y-83662100D01*
X124816168Y-83662100D01*
X124769931Y-83646206D01*
X124743239Y-83605242D01*
X124747376Y-83556524D01*
X124757962Y-83532549D01*
X124760900Y-83507226D01*
X124760900Y-83116774D01*
X124760899Y-83116773D01*
X124757962Y-83091450D01*
X124712220Y-82987855D01*
X124655365Y-82931000D01*
X126448100Y-82931000D01*
X126448100Y-82968476D01*
X126458610Y-83040616D01*
X126513013Y-83151900D01*
X126600599Y-83239486D01*
X126711883Y-83293889D01*
X126784000Y-83304396D01*
X126784000Y-82931000D01*
X127292000Y-82931000D01*
X127292000Y-83304396D01*
X127364116Y-83293889D01*
X127475400Y-83239486D01*
X127562986Y-83151900D01*
X127617389Y-83040616D01*
X127627900Y-82968476D01*
X127627900Y-82931000D01*
X127292000Y-82931000D01*
X126784000Y-82931000D01*
X126448100Y-82931000D01*
X124655365Y-82931000D01*
X124632145Y-82907780D01*
X124528550Y-82862038D01*
X124503226Y-82859100D01*
X122762774Y-82859100D01*
X122737449Y-82862038D01*
X122633854Y-82907780D01*
X122553780Y-82987854D01*
X122503567Y-83101575D01*
X122475829Y-83134205D01*
X122434775Y-83146400D01*
X121344997Y-83146400D01*
X121330255Y-83143995D01*
X121279974Y-83146320D01*
X121276501Y-83146400D01*
X121257887Y-83146400D01*
X121256318Y-83146693D01*
X121245993Y-83147890D01*
X121216848Y-83149239D01*
X121205843Y-83154098D01*
X121189290Y-83159223D01*
X121184572Y-83160105D01*
X121177468Y-83161433D01*
X121152673Y-83176785D01*
X121143465Y-83181639D01*
X121116776Y-83193423D01*
X121108269Y-83201931D01*
X121094687Y-83212689D01*
X121084462Y-83219020D01*
X121066884Y-83242297D01*
X121060048Y-83250151D01*
X120555272Y-83754928D01*
X120516771Y-83775508D01*
X120473322Y-83771229D01*
X120439574Y-83743532D01*
X120426900Y-83701753D01*
X120426900Y-82498200D01*
X120421520Y-82457332D01*
X120412321Y-82423000D01*
X126448100Y-82423000D01*
X126784000Y-82423000D01*
X126784000Y-82049603D01*
X127291999Y-82049603D01*
X127292000Y-82049604D01*
X127292000Y-82423000D01*
X127627900Y-82423000D01*
X127627900Y-82385524D01*
X127617389Y-82313383D01*
X127562986Y-82202099D01*
X127475400Y-82114513D01*
X127364116Y-82060110D01*
X127291999Y-82049603D01*
X126784000Y-82049603D01*
X126711883Y-82060110D01*
X126600599Y-82114513D01*
X126513013Y-82202099D01*
X126458610Y-82313383D01*
X126448100Y-82385524D01*
X126448100Y-82423000D01*
X120412321Y-82423000D01*
X120411445Y-82419732D01*
X120370577Y-82348948D01*
X120370575Y-82348946D01*
X120370574Y-82348944D01*
X120343055Y-82321425D01*
X120329126Y-82313383D01*
X120272268Y-82280555D01*
X120234668Y-82270480D01*
X120193800Y-82265100D01*
X112978200Y-82265100D01*
X112947549Y-82269134D01*
X112937331Y-82270480D01*
X112899731Y-82280555D01*
X112828944Y-82321425D01*
X112801425Y-82348944D01*
X112760555Y-82419731D01*
X112750480Y-82457331D01*
X112745100Y-82498200D01*
X112745100Y-87935797D01*
X112750480Y-87976668D01*
X112760555Y-88014268D01*
X112801425Y-88085055D01*
X112828944Y-88112574D01*
X112828946Y-88112575D01*
X112828948Y-88112577D01*
X112899732Y-88153445D01*
X112937332Y-88163520D01*
X112978200Y-88168900D01*
X112978203Y-88168900D01*
X120150753Y-88168900D01*
X120192532Y-88181573D01*
X120220229Y-88215322D01*
X120224508Y-88258771D01*
X120203927Y-88297274D01*
X119661827Y-88839374D01*
X119637431Y-88855676D01*
X119608653Y-88861400D01*
X115629997Y-88861400D01*
X115615255Y-88858995D01*
X115564974Y-88861320D01*
X115561501Y-88861400D01*
X115542887Y-88861400D01*
X115541318Y-88861693D01*
X115530993Y-88862890D01*
X115501848Y-88864239D01*
X115490843Y-88869098D01*
X115474290Y-88874223D01*
X115469572Y-88875105D01*
X115462468Y-88876433D01*
X115437673Y-88891785D01*
X115428465Y-88896639D01*
X115401776Y-88908423D01*
X115393269Y-88916931D01*
X115379687Y-88927689D01*
X115369462Y-88934020D01*
X115351884Y-88957297D01*
X115345048Y-88965151D01*
X114041125Y-90269074D01*
X114016729Y-90285376D01*
X113987951Y-90291100D01*
X113273942Y-90291100D01*
X113229341Y-90299972D01*
X113178765Y-90333766D01*
X113144971Y-90384341D01*
X113136100Y-90428942D01*
X113136100Y-91059057D01*
X113144972Y-91103658D01*
X113178765Y-91154234D01*
X113182118Y-91156474D01*
X113211548Y-91194828D01*
X113211548Y-91243172D01*
X113182118Y-91281526D01*
X113178765Y-91283766D01*
X113163340Y-91306850D01*
X113129591Y-91334545D01*
X113086143Y-91338824D01*
X113047641Y-91318243D01*
X112475454Y-90746056D01*
X111884126Y-90154727D01*
X111867824Y-90130331D01*
X111862100Y-90101553D01*
X111862100Y-87753495D01*
X111864503Y-87738758D01*
X111864312Y-87734627D01*
X111864313Y-87734625D01*
X111862179Y-87688486D01*
X111862100Y-87685015D01*
X111862100Y-87666392D01*
X111862100Y-87666389D01*
X111861807Y-87664827D01*
X111860607Y-87654485D01*
X111859261Y-87625349D01*
X111854403Y-87614347D01*
X111849275Y-87597786D01*
X111847067Y-87585970D01*
X111831710Y-87561168D01*
X111826856Y-87551960D01*
X111815075Y-87525276D01*
X111806568Y-87516769D01*
X111795811Y-87503188D01*
X111789479Y-87492962D01*
X111766201Y-87475383D01*
X111758346Y-87468547D01*
X111247324Y-86957525D01*
X111238600Y-86945401D01*
X111201396Y-86911484D01*
X111198885Y-86909085D01*
X111185731Y-86895931D01*
X111184420Y-86895033D01*
X111176261Y-86888570D01*
X111154703Y-86868918D01*
X111143486Y-86864573D01*
X111128154Y-86856490D01*
X111118234Y-86849695D01*
X111089833Y-86843015D01*
X111079895Y-86839937D01*
X111052696Y-86829400D01*
X111040669Y-86829400D01*
X111023453Y-86827403D01*
X111011747Y-86824650D01*
X110982864Y-86828679D01*
X110972475Y-86829400D01*
X110553914Y-86829400D01*
X110525136Y-86823676D01*
X110500740Y-86807375D01*
X110491219Y-86797854D01*
X110411145Y-86717780D01*
X110307550Y-86672038D01*
X110282226Y-86669100D01*
X108541774Y-86669100D01*
X108516449Y-86672038D01*
X108412854Y-86717780D01*
X108332780Y-86797854D01*
X108289474Y-86895931D01*
X108287038Y-86901450D01*
X108284100Y-86926774D01*
X108284100Y-87317226D01*
X53340000Y-87317226D01*
X53340000Y-86106000D01*
X108302354Y-86106000D01*
X108333199Y-86175857D01*
X108413142Y-86255800D01*
X108516564Y-86301466D01*
X108541848Y-86304400D01*
X109158000Y-86304400D01*
X109158000Y-86106000D01*
X109666000Y-86106000D01*
X109666000Y-86304400D01*
X110282152Y-86304400D01*
X110307435Y-86301466D01*
X110410857Y-86255800D01*
X110490800Y-86175857D01*
X110521645Y-86106000D01*
X109666000Y-86106000D01*
X109158000Y-86106000D01*
X108302354Y-86106000D01*
X53340000Y-86106000D01*
X53340000Y-85598000D01*
X108302354Y-85598000D01*
X109158000Y-85598000D01*
X109158000Y-85399600D01*
X109666000Y-85399600D01*
X109666000Y-85598000D01*
X110521646Y-85598000D01*
X110521645Y-85597999D01*
X110490800Y-85528142D01*
X110410857Y-85448199D01*
X110307435Y-85402533D01*
X110282152Y-85399600D01*
X109666000Y-85399600D01*
X109158000Y-85399600D01*
X108541848Y-85399600D01*
X108516564Y-85402533D01*
X108413142Y-85448199D01*
X108333199Y-85528142D01*
X108302354Y-85597999D01*
X108302354Y-85598000D01*
X53340000Y-85598000D01*
X53340000Y-84836000D01*
X108302354Y-84836000D01*
X108333199Y-84905857D01*
X108413142Y-84985800D01*
X108516564Y-85031466D01*
X108541848Y-85034400D01*
X109158000Y-85034400D01*
X109158000Y-84836000D01*
X109666000Y-84836000D01*
X109666000Y-85034400D01*
X110282152Y-85034400D01*
X110307435Y-85031466D01*
X110410857Y-84985800D01*
X110490800Y-84905857D01*
X110521645Y-84836000D01*
X109666000Y-84836000D01*
X109158000Y-84836000D01*
X108302354Y-84836000D01*
X53340000Y-84836000D01*
X53340000Y-84328000D01*
X108302354Y-84328000D01*
X109158000Y-84328000D01*
X109158000Y-84129600D01*
X109666000Y-84129600D01*
X109666000Y-84328000D01*
X110521646Y-84328000D01*
X110521645Y-84327999D01*
X110490800Y-84258142D01*
X110410857Y-84178199D01*
X110307435Y-84132533D01*
X110282152Y-84129600D01*
X109666000Y-84129600D01*
X109158000Y-84129600D01*
X108541848Y-84129600D01*
X108516564Y-84132533D01*
X108413142Y-84178199D01*
X108333199Y-84258142D01*
X108302354Y-84327999D01*
X108302354Y-84328000D01*
X53340000Y-84328000D01*
X53340000Y-83566000D01*
X108302354Y-83566000D01*
X108333199Y-83635857D01*
X108413142Y-83715800D01*
X108516564Y-83761466D01*
X108541848Y-83764400D01*
X109158000Y-83764400D01*
X109158000Y-83566000D01*
X109666000Y-83566000D01*
X109666000Y-83764400D01*
X110282152Y-83764400D01*
X110307435Y-83761466D01*
X110410857Y-83715800D01*
X110490800Y-83635857D01*
X110521645Y-83566000D01*
X109666000Y-83566000D01*
X109158000Y-83566000D01*
X108302354Y-83566000D01*
X53340000Y-83566000D01*
X53340000Y-83058000D01*
X108302354Y-83058000D01*
X109158000Y-83058000D01*
X109158000Y-82859600D01*
X109666000Y-82859600D01*
X109666000Y-83058000D01*
X110521646Y-83058000D01*
X110521645Y-83057999D01*
X110490800Y-82988142D01*
X110410857Y-82908199D01*
X110307435Y-82862533D01*
X110282152Y-82859600D01*
X109666000Y-82859600D01*
X109158000Y-82859600D01*
X108541848Y-82859600D01*
X108516564Y-82862533D01*
X108413142Y-82908199D01*
X108333199Y-82988142D01*
X108302354Y-83057999D01*
X108302354Y-83058000D01*
X53340000Y-83058000D01*
X53340000Y-80713475D01*
X71416900Y-80713475D01*
X71456030Y-80998165D01*
X71533554Y-81274855D01*
X71648038Y-81538425D01*
X71797344Y-81783948D01*
X71978690Y-82006851D01*
X72188703Y-82202991D01*
X72395480Y-82348948D01*
X72423464Y-82368701D01*
X72678603Y-82500904D01*
X72949368Y-82597134D01*
X73230714Y-82655598D01*
X73445648Y-82670300D01*
X73589147Y-82670300D01*
X73589152Y-82670300D01*
X73804086Y-82655598D01*
X74085432Y-82597134D01*
X74356197Y-82500904D01*
X74611336Y-82368701D01*
X74736211Y-82280555D01*
X74846096Y-82202991D01*
X74940832Y-82114513D01*
X75056108Y-82006853D01*
X75135047Y-81909822D01*
X75237455Y-81783948D01*
X75386761Y-81538425D01*
X75431705Y-81434953D01*
X75501244Y-81274858D01*
X75578771Y-80998158D01*
X75617900Y-80713478D01*
X75617900Y-80569800D01*
X136006889Y-80569800D01*
X136026883Y-80772794D01*
X136086094Y-80967987D01*
X136182246Y-81147873D01*
X136311647Y-81305552D01*
X136400156Y-81378188D01*
X136469324Y-81434952D01*
X136649214Y-81531106D01*
X136844407Y-81590317D01*
X136996532Y-81605300D01*
X137098266Y-81605300D01*
X137098268Y-81605300D01*
X137250393Y-81590317D01*
X137445586Y-81531106D01*
X137625476Y-81434952D01*
X137783152Y-81305552D01*
X137912552Y-81147876D01*
X138008706Y-80967986D01*
X138067917Y-80772793D01*
X138087910Y-80569800D01*
X138067917Y-80366807D01*
X138008706Y-80171614D01*
X137912552Y-79991724D01*
X137855788Y-79922556D01*
X137783152Y-79834047D01*
X137675301Y-79745538D01*
X137625476Y-79704648D01*
X137625474Y-79704647D01*
X137625473Y-79704646D01*
X137445587Y-79608494D01*
X137250394Y-79549283D01*
X137199684Y-79544288D01*
X137098268Y-79534300D01*
X136996532Y-79534300D01*
X136920469Y-79541791D01*
X136844405Y-79549283D01*
X136649212Y-79608494D01*
X136469326Y-79704646D01*
X136311647Y-79834047D01*
X136182246Y-79991726D01*
X136086094Y-80171612D01*
X136026883Y-80366805D01*
X136006889Y-80569800D01*
X75617900Y-80569800D01*
X75617900Y-80426122D01*
X75578771Y-80141442D01*
X75536823Y-79991726D01*
X75501245Y-79864744D01*
X75386761Y-79601174D01*
X75237455Y-79355651D01*
X75056109Y-79132748D01*
X74846096Y-78936608D01*
X74611338Y-78770900D01*
X74594624Y-78762239D01*
X74356197Y-78638696D01*
X74259965Y-78604495D01*
X74085431Y-78542465D01*
X73804089Y-78484002D01*
X73723485Y-78478488D01*
X73589152Y-78469300D01*
X73445648Y-78469300D01*
X73326240Y-78477467D01*
X73230710Y-78484002D01*
X72949368Y-78542465D01*
X72678603Y-78638696D01*
X72423461Y-78770900D01*
X72188703Y-78936608D01*
X71978690Y-79132748D01*
X71797344Y-79355651D01*
X71648038Y-79601174D01*
X71533554Y-79864744D01*
X71456030Y-80141434D01*
X71416900Y-80426125D01*
X71416900Y-80713475D01*
X53340000Y-80713475D01*
X53340000Y-78104999D01*
X57008160Y-78104999D01*
X57027875Y-78317752D01*
X57086347Y-78523260D01*
X57181585Y-78714524D01*
X57310347Y-78885031D01*
X57468246Y-79028975D01*
X57537426Y-79071809D01*
X57649906Y-79141455D01*
X57712902Y-79165859D01*
X57849142Y-79218639D01*
X58059168Y-79257900D01*
X58272829Y-79257900D01*
X58272832Y-79257900D01*
X58482858Y-79218639D01*
X58682093Y-79141455D01*
X58863754Y-79028975D01*
X59021653Y-78885031D01*
X59150415Y-78714524D01*
X59245653Y-78523260D01*
X59304125Y-78317752D01*
X59323839Y-78105000D01*
X59304125Y-77892248D01*
X59301126Y-77881707D01*
X76747100Y-77881707D01*
X76762042Y-77976051D01*
X76762042Y-77976052D01*
X76762043Y-77976054D01*
X76819984Y-78089770D01*
X76910230Y-78180016D01*
X77023946Y-78237957D01*
X77118293Y-78252900D01*
X80081706Y-78252899D01*
X80081707Y-78252899D01*
X80105293Y-78249163D01*
X80176054Y-78237957D01*
X80289770Y-78180016D01*
X80380016Y-78089770D01*
X80437957Y-77976054D01*
X80452900Y-77881707D01*
X80452899Y-76818294D01*
X80437957Y-76723946D01*
X80380016Y-76610230D01*
X80289770Y-76519984D01*
X80228909Y-76488974D01*
X80176053Y-76462042D01*
X80081707Y-76447100D01*
X77118292Y-76447100D01*
X77023948Y-76462042D01*
X76910228Y-76519985D01*
X76819985Y-76610228D01*
X76762042Y-76723946D01*
X76747100Y-76818292D01*
X76747100Y-77881707D01*
X59301126Y-77881707D01*
X59245653Y-77686740D01*
X59150415Y-77495476D01*
X59021653Y-77324969D01*
X58863754Y-77181025D01*
X58682093Y-77068544D01*
X58519479Y-77005548D01*
X58482858Y-76991361D01*
X58272832Y-76952100D01*
X58059168Y-76952100D01*
X57849142Y-76991361D01*
X57849139Y-76991361D01*
X57849139Y-76991362D01*
X57649906Y-77068544D01*
X57468245Y-77181025D01*
X57310348Y-77324967D01*
X57181585Y-77495476D01*
X57086346Y-77686741D01*
X57027875Y-77892247D01*
X57008160Y-78104999D01*
X53340000Y-78104999D01*
X53340000Y-76132057D01*
X100768100Y-76132057D01*
X100776972Y-76176658D01*
X100810766Y-76227234D01*
X100861341Y-76261028D01*
X100870213Y-76262792D01*
X100905943Y-76269900D01*
X101786056Y-76269899D01*
X101786057Y-76269899D01*
X101793456Y-76268427D01*
X101830658Y-76261028D01*
X101881234Y-76227234D01*
X101915028Y-76176658D01*
X101923900Y-76132057D01*
X101923900Y-76063278D01*
X126616900Y-76063278D01*
X126644081Y-76261028D01*
X126656030Y-76347965D01*
X126733554Y-76624655D01*
X126848038Y-76888225D01*
X126997344Y-77133748D01*
X127178690Y-77356651D01*
X127388703Y-77552791D01*
X127578470Y-77686741D01*
X127623464Y-77718501D01*
X127878603Y-77850704D01*
X128149368Y-77946934D01*
X128430714Y-78005398D01*
X128645648Y-78020100D01*
X128789147Y-78020100D01*
X128789152Y-78020100D01*
X129004086Y-78005398D01*
X129285432Y-77946934D01*
X129556197Y-77850704D01*
X129811336Y-77718501D01*
X129928717Y-77635644D01*
X130046096Y-77552791D01*
X130107465Y-77495476D01*
X130256108Y-77356653D01*
X130398992Y-77181025D01*
X130437455Y-77133748D01*
X130586761Y-76888225D01*
X130660743Y-76717900D01*
X130701244Y-76624658D01*
X130705287Y-76610230D01*
X130725114Y-76539466D01*
X141446941Y-76539466D01*
X141546330Y-76601006D01*
X141745477Y-76678154D01*
X141955417Y-76717400D01*
X142168983Y-76717400D01*
X142378922Y-76678154D01*
X142578069Y-76601006D01*
X142677456Y-76539467D01*
X142677457Y-76539466D01*
X142062201Y-75924210D01*
X142062199Y-75924210D01*
X141446941Y-76539466D01*
X130725114Y-76539466D01*
X130778769Y-76347965D01*
X130778768Y-76347965D01*
X130778771Y-76347958D01*
X130817900Y-76063278D01*
X130817900Y-75775922D01*
X130788909Y-75565000D01*
X140904863Y-75565000D01*
X140924569Y-75777661D01*
X140983015Y-75983078D01*
X141078209Y-76174255D01*
X141084888Y-76183099D01*
X141084890Y-76183099D01*
X141702990Y-75565001D01*
X142421410Y-75565001D01*
X143039508Y-76183099D01*
X143039509Y-76183099D01*
X143046188Y-76174257D01*
X143141385Y-75983076D01*
X143199830Y-75777661D01*
X143219536Y-75565000D01*
X145019160Y-75565000D01*
X145038875Y-75777752D01*
X145097294Y-75983076D01*
X145097347Y-75983260D01*
X145192585Y-76174524D01*
X145321347Y-76345031D01*
X145479246Y-76488975D01*
X145529327Y-76519984D01*
X145660906Y-76601455D01*
X145720793Y-76624655D01*
X145860142Y-76678639D01*
X146070168Y-76717900D01*
X146283829Y-76717900D01*
X146283832Y-76717900D01*
X146493858Y-76678639D01*
X146693093Y-76601455D01*
X146874754Y-76488975D01*
X147032653Y-76345031D01*
X147161415Y-76174524D01*
X147256653Y-75983260D01*
X147315125Y-75777752D01*
X147334839Y-75565000D01*
X147315125Y-75352248D01*
X147256653Y-75146740D01*
X147161415Y-74955476D01*
X147032653Y-74784969D01*
X146959552Y-74718329D01*
X146874754Y-74641025D01*
X146693093Y-74528544D01*
X146495107Y-74451845D01*
X146493858Y-74451361D01*
X146283832Y-74412100D01*
X146070168Y-74412100D01*
X145860142Y-74451361D01*
X145860139Y-74451361D01*
X145860139Y-74451362D01*
X145660906Y-74528544D01*
X145479245Y-74641025D01*
X145321348Y-74784967D01*
X145192585Y-74955476D01*
X145097346Y-75146741D01*
X145038875Y-75352247D01*
X145019160Y-75565000D01*
X143219536Y-75565000D01*
X143199830Y-75352338D01*
X143141385Y-75146923D01*
X143046188Y-74955742D01*
X143039509Y-74946899D01*
X143039508Y-74946899D01*
X142421410Y-75564999D01*
X142421410Y-75565001D01*
X141702990Y-75565001D01*
X141702990Y-75564999D01*
X141084889Y-74946898D01*
X141078211Y-74955741D01*
X140983014Y-75146923D01*
X140924569Y-75352338D01*
X140904863Y-75565000D01*
X130788909Y-75565000D01*
X130778771Y-75491242D01*
X130778769Y-75491234D01*
X130701245Y-75214544D01*
X130586761Y-74950974D01*
X130437455Y-74705451D01*
X130343961Y-74590532D01*
X141446941Y-74590532D01*
X142062199Y-75205790D01*
X142062201Y-75205790D01*
X142677457Y-74590532D01*
X142677457Y-74590531D01*
X142578067Y-74528993D01*
X142378922Y-74451845D01*
X142168983Y-74412600D01*
X141955417Y-74412600D01*
X141745477Y-74451845D01*
X141546331Y-74528993D01*
X141446941Y-74590531D01*
X141446941Y-74590532D01*
X130343961Y-74590532D01*
X130256109Y-74482548D01*
X130046096Y-74286408D01*
X129811338Y-74120700D01*
X129794624Y-74112039D01*
X129556197Y-73988496D01*
X129459966Y-73954295D01*
X129285431Y-73892265D01*
X129004089Y-73833802D01*
X128923485Y-73828288D01*
X128789152Y-73819100D01*
X128645648Y-73819100D01*
X128526240Y-73827267D01*
X128430710Y-73833802D01*
X128149368Y-73892265D01*
X127878603Y-73988496D01*
X127623461Y-74120700D01*
X127388703Y-74286408D01*
X127178690Y-74482548D01*
X126997344Y-74705451D01*
X126848038Y-74950974D01*
X126733554Y-75214544D01*
X126656030Y-75491234D01*
X126656028Y-75491242D01*
X126656029Y-75491242D01*
X126616900Y-75775922D01*
X126616900Y-76063278D01*
X101923900Y-76063278D01*
X101923899Y-75251944D01*
X101915028Y-75207342D01*
X101881234Y-75156766D01*
X101881233Y-75156765D01*
X101830658Y-75122971D01*
X101786057Y-75114100D01*
X100905942Y-75114100D01*
X100861341Y-75122972D01*
X100810765Y-75156766D01*
X100776971Y-75207341D01*
X100768100Y-75251942D01*
X100768100Y-76132057D01*
X53340000Y-76132057D01*
X53340000Y-75254000D01*
X82447600Y-75254000D01*
X82447600Y-75281671D01*
X82462524Y-75375899D01*
X82520393Y-75489473D01*
X82610526Y-75579606D01*
X82724100Y-75637475D01*
X82818329Y-75652400D01*
X84096000Y-75652400D01*
X84096000Y-75254000D01*
X84604000Y-75254000D01*
X84604000Y-75652400D01*
X85881671Y-75652400D01*
X85975899Y-75637475D01*
X86089473Y-75579606D01*
X86179606Y-75489473D01*
X86237475Y-75375899D01*
X86252400Y-75281671D01*
X86252400Y-75254000D01*
X84604000Y-75254000D01*
X84096000Y-75254000D01*
X82447600Y-75254000D01*
X53340000Y-75254000D01*
X53340000Y-74746000D01*
X82447600Y-74746000D01*
X84096000Y-74746000D01*
X84096000Y-74347600D01*
X84604000Y-74347600D01*
X84604000Y-74746000D01*
X86252400Y-74746000D01*
X86252400Y-74718329D01*
X86237475Y-74624100D01*
X86179606Y-74510526D01*
X86089473Y-74420393D01*
X85975899Y-74362524D01*
X85881671Y-74347600D01*
X84604000Y-74347600D01*
X84096000Y-74347600D01*
X82818329Y-74347600D01*
X82724100Y-74362524D01*
X82610526Y-74420393D01*
X82520393Y-74510526D01*
X82462524Y-74624100D01*
X82447600Y-74718329D01*
X82447600Y-74746000D01*
X53340000Y-74746000D01*
X53340000Y-73000000D01*
X79650424Y-73000000D01*
X79668635Y-73126662D01*
X79721791Y-73243057D01*
X79805591Y-73339768D01*
X79809687Y-73342400D01*
X79913239Y-73408949D01*
X80036019Y-73445000D01*
X80163981Y-73445000D01*
X80296990Y-73405946D01*
X80318176Y-73402900D01*
X82429639Y-73402900D01*
X82468931Y-73413981D01*
X82496641Y-73443957D01*
X82519984Y-73489771D01*
X82610229Y-73580016D01*
X82723945Y-73637957D01*
X82818291Y-73652900D01*
X82818292Y-73652900D01*
X85881708Y-73652900D01*
X85881709Y-73652900D01*
X85928881Y-73645428D01*
X85976055Y-73637957D01*
X86089771Y-73580016D01*
X86180016Y-73489771D01*
X86203358Y-73443957D01*
X86231069Y-73413981D01*
X86270361Y-73402900D01*
X87281824Y-73402900D01*
X87303010Y-73405946D01*
X87436019Y-73445000D01*
X87563981Y-73445000D01*
X87686761Y-73408949D01*
X87794410Y-73339767D01*
X87878207Y-73243059D01*
X87886733Y-73224391D01*
X87895562Y-73205057D01*
X104063300Y-73205057D01*
X104072172Y-73249658D01*
X104105966Y-73300234D01*
X104156541Y-73334028D01*
X104165413Y-73335792D01*
X104201143Y-73342900D01*
X106263256Y-73342899D01*
X106263257Y-73342899D01*
X106270656Y-73341427D01*
X106307858Y-73334028D01*
X106358434Y-73300234D01*
X106392228Y-73249658D01*
X106401100Y-73205057D01*
X106401100Y-73160088D01*
X108460919Y-73160088D01*
X108460920Y-73160089D01*
X108564768Y-73224390D01*
X108766679Y-73302610D01*
X108979535Y-73342400D01*
X109196065Y-73342400D01*
X109408920Y-73302610D01*
X109610830Y-73224391D01*
X109642054Y-73205057D01*
X113715300Y-73205057D01*
X113724172Y-73249658D01*
X113757966Y-73300234D01*
X113808541Y-73334028D01*
X113817413Y-73335792D01*
X113853143Y-73342900D01*
X115915256Y-73342899D01*
X115915257Y-73342899D01*
X115922656Y-73341427D01*
X115959858Y-73334028D01*
X116010434Y-73300234D01*
X116044228Y-73249658D01*
X116053100Y-73205057D01*
X116053100Y-73160088D01*
X118112919Y-73160088D01*
X118112920Y-73160089D01*
X118216768Y-73224390D01*
X118418679Y-73302610D01*
X118631535Y-73342400D01*
X118848065Y-73342400D01*
X119060920Y-73302610D01*
X119262830Y-73224391D01*
X119366679Y-73160088D01*
X118739801Y-72533210D01*
X118739799Y-72533210D01*
X118112919Y-73160088D01*
X116053100Y-73160088D01*
X116053099Y-72173999D01*
X117566393Y-72173999D01*
X117586373Y-72389613D01*
X117645631Y-72597883D01*
X117742147Y-72791714D01*
X117751066Y-72803523D01*
X118380590Y-72174001D01*
X119099010Y-72174001D01*
X119728533Y-72803524D01*
X119728534Y-72803524D01*
X119737451Y-72791717D01*
X119833968Y-72597883D01*
X119893226Y-72389613D01*
X119913206Y-72173999D01*
X119893226Y-71958386D01*
X119833968Y-71750116D01*
X119737451Y-71556282D01*
X119728534Y-71544475D01*
X119728533Y-71544475D01*
X119099010Y-72173999D01*
X119099010Y-72174001D01*
X118380590Y-72174001D01*
X118380590Y-72173999D01*
X117751065Y-71544474D01*
X117751064Y-71544474D01*
X117742149Y-71556281D01*
X117645631Y-71750116D01*
X117586373Y-71958386D01*
X117566393Y-72173999D01*
X116053099Y-72173999D01*
X116053099Y-71187910D01*
X118112919Y-71187910D01*
X118739799Y-71814790D01*
X118739801Y-71814790D01*
X119366679Y-71187910D01*
X119366678Y-71187909D01*
X119262832Y-71123609D01*
X119060920Y-71045389D01*
X118848065Y-71005600D01*
X118631535Y-71005600D01*
X118418679Y-71045389D01*
X118216767Y-71123609D01*
X118112919Y-71187910D01*
X116053099Y-71187910D01*
X116053099Y-71142944D01*
X116044228Y-71098342D01*
X116010434Y-71047766D01*
X116006877Y-71045389D01*
X115959858Y-71013971D01*
X115915257Y-71005100D01*
X113853142Y-71005100D01*
X113808541Y-71013972D01*
X113757965Y-71047766D01*
X113724171Y-71098341D01*
X113715300Y-71142942D01*
X113715300Y-73205057D01*
X109642054Y-73205057D01*
X109714679Y-73160088D01*
X109087801Y-72533210D01*
X109087799Y-72533210D01*
X108460919Y-73160088D01*
X106401100Y-73160088D01*
X106401099Y-72173999D01*
X107914393Y-72173999D01*
X107934373Y-72389613D01*
X107993631Y-72597883D01*
X108090147Y-72791714D01*
X108099066Y-72803523D01*
X108728590Y-72174001D01*
X109447010Y-72174001D01*
X110076533Y-72803524D01*
X110076534Y-72803524D01*
X110085451Y-72791717D01*
X110181968Y-72597883D01*
X110241226Y-72389613D01*
X110261206Y-72173999D01*
X110241226Y-71958386D01*
X110181968Y-71750116D01*
X110085451Y-71556282D01*
X110076534Y-71544475D01*
X110076533Y-71544475D01*
X109447010Y-72173999D01*
X109447010Y-72174001D01*
X108728590Y-72174001D01*
X108728590Y-72173999D01*
X108099065Y-71544474D01*
X108099064Y-71544474D01*
X108090149Y-71556281D01*
X107993631Y-71750116D01*
X107934373Y-71958386D01*
X107914393Y-72173999D01*
X106401099Y-72173999D01*
X106401099Y-71187910D01*
X108460919Y-71187910D01*
X109087799Y-71814790D01*
X109087801Y-71814790D01*
X109714679Y-71187910D01*
X109714678Y-71187909D01*
X109610832Y-71123609D01*
X109408920Y-71045389D01*
X109196065Y-71005600D01*
X108979535Y-71005600D01*
X108766679Y-71045389D01*
X108564767Y-71123609D01*
X108460919Y-71187910D01*
X106401099Y-71187910D01*
X106401099Y-71142944D01*
X106392228Y-71098342D01*
X106358434Y-71047766D01*
X106354877Y-71045389D01*
X106307858Y-71013971D01*
X106263257Y-71005100D01*
X104201142Y-71005100D01*
X104156541Y-71013972D01*
X104105965Y-71047766D01*
X104072171Y-71098341D01*
X104063300Y-71142942D01*
X104063300Y-73205057D01*
X87895562Y-73205057D01*
X87931364Y-73126662D01*
X87931363Y-73126662D01*
X87931365Y-73126660D01*
X87949576Y-73000000D01*
X87931365Y-72873340D01*
X87899481Y-72803524D01*
X87878208Y-72756942D01*
X87794408Y-72660231D01*
X87686761Y-72591051D01*
X87563981Y-72555000D01*
X87436019Y-72555000D01*
X87303010Y-72594054D01*
X87281824Y-72597100D01*
X86270361Y-72597100D01*
X86231069Y-72586019D01*
X86203358Y-72556042D01*
X86180016Y-72510229D01*
X86089771Y-72419984D01*
X86030164Y-72389613D01*
X85976054Y-72362042D01*
X85881709Y-72347100D01*
X85881708Y-72347100D01*
X82818292Y-72347100D01*
X82818291Y-72347100D01*
X82723945Y-72362042D01*
X82610227Y-72419985D01*
X82519985Y-72510227D01*
X82519983Y-72510229D01*
X82519984Y-72510229D01*
X82496641Y-72556042D01*
X82468931Y-72586019D01*
X82429639Y-72597100D01*
X80318176Y-72597100D01*
X80296990Y-72594054D01*
X80163981Y-72555000D01*
X80036019Y-72555000D01*
X79913238Y-72591051D01*
X79805591Y-72660231D01*
X79721791Y-72756942D01*
X79668635Y-72873337D01*
X79650424Y-73000000D01*
X53340000Y-73000000D01*
X53340000Y-71181707D01*
X76747100Y-71181707D01*
X76762042Y-71276051D01*
X76762042Y-71276052D01*
X76762043Y-71276054D01*
X76819984Y-71389770D01*
X76910230Y-71480016D01*
X77023946Y-71537957D01*
X77118293Y-71552900D01*
X80081706Y-71552899D01*
X80081707Y-71552899D01*
X80105293Y-71549163D01*
X80176054Y-71537957D01*
X80289770Y-71480016D01*
X80380016Y-71389770D01*
X80437957Y-71276054D01*
X80452900Y-71181707D01*
X80452899Y-70118294D01*
X80437957Y-70023946D01*
X80380016Y-69910230D01*
X80289770Y-69819984D01*
X80232911Y-69791013D01*
X80176053Y-69762042D01*
X80081707Y-69747100D01*
X77118292Y-69747100D01*
X77023948Y-69762042D01*
X76910228Y-69819985D01*
X76819985Y-69910228D01*
X76762042Y-70023946D01*
X76747100Y-70118292D01*
X76747100Y-71181707D01*
X53340000Y-71181707D01*
X53340000Y-65286088D01*
X104534319Y-65286088D01*
X104534320Y-65286089D01*
X104638168Y-65350390D01*
X104840079Y-65428610D01*
X105052935Y-65468400D01*
X105269465Y-65468400D01*
X105482320Y-65428610D01*
X105684230Y-65350391D01*
X105715454Y-65331057D01*
X107847900Y-65331057D01*
X107856772Y-65375658D01*
X107890566Y-65426234D01*
X107941141Y-65460028D01*
X107950013Y-65461792D01*
X107985743Y-65468900D01*
X110047856Y-65468899D01*
X110047857Y-65468899D01*
X110055256Y-65467427D01*
X110092458Y-65460028D01*
X110143034Y-65426234D01*
X110176828Y-65375658D01*
X110185700Y-65331057D01*
X110185700Y-65286088D01*
X114313319Y-65286088D01*
X114313320Y-65286089D01*
X114417168Y-65350390D01*
X114619079Y-65428610D01*
X114831935Y-65468400D01*
X115048465Y-65468400D01*
X115261320Y-65428610D01*
X115463230Y-65350391D01*
X115494454Y-65331057D01*
X117626900Y-65331057D01*
X117635772Y-65375658D01*
X117669566Y-65426234D01*
X117720141Y-65460028D01*
X117729013Y-65461792D01*
X117764743Y-65468900D01*
X119826856Y-65468899D01*
X119826857Y-65468899D01*
X119834256Y-65467427D01*
X119871458Y-65460028D01*
X119922034Y-65426234D01*
X119955828Y-65375658D01*
X119964700Y-65331057D01*
X119964699Y-63268944D01*
X119955828Y-63224342D01*
X119922034Y-63173766D01*
X119918477Y-63171389D01*
X119871458Y-63139971D01*
X119826857Y-63131100D01*
X117764742Y-63131100D01*
X117720141Y-63139972D01*
X117669565Y-63173766D01*
X117635771Y-63224341D01*
X117626900Y-63268942D01*
X117626900Y-65331057D01*
X115494454Y-65331057D01*
X115567079Y-65286088D01*
X114940201Y-64659210D01*
X114940199Y-64659210D01*
X114313319Y-65286088D01*
X110185700Y-65286088D01*
X110185699Y-64299999D01*
X113766793Y-64299999D01*
X113786773Y-64515613D01*
X113846031Y-64723883D01*
X113942547Y-64917714D01*
X113951466Y-64929523D01*
X114580990Y-64300001D01*
X115299410Y-64300001D01*
X115928933Y-64929524D01*
X115928934Y-64929524D01*
X115937851Y-64917717D01*
X116034368Y-64723883D01*
X116093626Y-64515613D01*
X116113606Y-64299999D01*
X116093626Y-64084386D01*
X116034368Y-63876116D01*
X115937851Y-63682282D01*
X115928934Y-63670475D01*
X115928933Y-63670475D01*
X115299410Y-64299999D01*
X115299410Y-64300001D01*
X114580990Y-64300001D01*
X114580990Y-64299999D01*
X113951465Y-63670474D01*
X113951464Y-63670474D01*
X113942549Y-63682281D01*
X113846031Y-63876116D01*
X113786773Y-64084386D01*
X113766793Y-64299999D01*
X110185699Y-64299999D01*
X110185699Y-63313910D01*
X114313319Y-63313910D01*
X114940199Y-63940790D01*
X114940201Y-63940790D01*
X115567079Y-63313910D01*
X115567078Y-63313909D01*
X115463232Y-63249609D01*
X115261320Y-63171389D01*
X115048465Y-63131600D01*
X114831935Y-63131600D01*
X114619079Y-63171389D01*
X114417167Y-63249609D01*
X114313319Y-63313910D01*
X110185699Y-63313910D01*
X110185699Y-63268944D01*
X110176828Y-63224342D01*
X110143034Y-63173766D01*
X110139477Y-63171389D01*
X110092458Y-63139971D01*
X110047857Y-63131100D01*
X107985742Y-63131100D01*
X107941141Y-63139972D01*
X107890565Y-63173766D01*
X107856771Y-63224341D01*
X107847900Y-63268942D01*
X107847900Y-65331057D01*
X105715454Y-65331057D01*
X105788079Y-65286088D01*
X105161201Y-64659210D01*
X105161199Y-64659210D01*
X104534319Y-65286088D01*
X53340000Y-65286088D01*
X53340000Y-64337200D01*
X53349968Y-64299999D01*
X103987793Y-64299999D01*
X104007773Y-64515613D01*
X104067031Y-64723883D01*
X104163547Y-64917714D01*
X104172466Y-64929523D01*
X104801990Y-64300001D01*
X105520410Y-64300001D01*
X106149933Y-64929524D01*
X106149934Y-64929524D01*
X106158851Y-64917717D01*
X106255368Y-64723883D01*
X106314626Y-64515613D01*
X106334606Y-64299999D01*
X106314626Y-64084386D01*
X106255368Y-63876116D01*
X106158851Y-63682282D01*
X106149934Y-63670475D01*
X106149933Y-63670475D01*
X105520410Y-64299999D01*
X105520410Y-64300001D01*
X104801990Y-64300001D01*
X104801990Y-64299999D01*
X104172465Y-63670474D01*
X104172464Y-63670474D01*
X104163549Y-63682281D01*
X104067031Y-63876116D01*
X104007773Y-64084386D01*
X103987793Y-64299999D01*
X53349968Y-64299999D01*
X53350075Y-64299600D01*
X53377600Y-64272075D01*
X53415200Y-64262000D01*
X60960000Y-64262000D01*
X61971296Y-63313910D01*
X104534319Y-63313910D01*
X105161199Y-63940790D01*
X105161201Y-63940790D01*
X105788079Y-63313910D01*
X105788078Y-63313909D01*
X105684232Y-63249609D01*
X105482320Y-63171389D01*
X105269465Y-63131600D01*
X105052935Y-63131600D01*
X104840079Y-63171389D01*
X104638167Y-63249609D01*
X104534319Y-63313910D01*
X61971296Y-63313910D01*
X65024000Y-60452000D01*
X65024000Y-60063275D01*
X71416900Y-60063275D01*
X71456030Y-60347965D01*
X71533554Y-60624655D01*
X71648038Y-60888225D01*
X71797344Y-61133748D01*
X71978690Y-61356651D01*
X72188703Y-61552791D01*
X72423461Y-61718499D01*
X72423464Y-61718501D01*
X72678603Y-61850704D01*
X72949368Y-61946934D01*
X73230714Y-62005398D01*
X73445648Y-62020100D01*
X73589147Y-62020100D01*
X73589152Y-62020100D01*
X73804086Y-62005398D01*
X74085432Y-61946934D01*
X74356197Y-61850704D01*
X74611336Y-61718501D01*
X74728717Y-61635644D01*
X74846096Y-61552791D01*
X74869254Y-61531162D01*
X75056108Y-61356653D01*
X75135047Y-61259622D01*
X75237455Y-61133748D01*
X75386761Y-60888225D01*
X75431705Y-60784753D01*
X75501244Y-60624658D01*
X75578771Y-60347958D01*
X75617900Y-60063278D01*
X75617900Y-59775922D01*
X75578771Y-59491242D01*
X75536823Y-59341526D01*
X75501245Y-59214544D01*
X75386761Y-58950974D01*
X75237455Y-58705451D01*
X75056109Y-58482548D01*
X74846096Y-58286408D01*
X74611338Y-58120700D01*
X74594624Y-58112039D01*
X74356197Y-57988496D01*
X74259965Y-57954295D01*
X74085431Y-57892265D01*
X73804089Y-57833802D01*
X73723485Y-57828288D01*
X73589152Y-57819100D01*
X73445648Y-57819100D01*
X73326240Y-57827267D01*
X73230710Y-57833802D01*
X72949368Y-57892265D01*
X72678603Y-57988496D01*
X72423461Y-58120700D01*
X72188703Y-58286408D01*
X71978690Y-58482548D01*
X71797344Y-58705451D01*
X71648038Y-58950974D01*
X71533554Y-59214544D01*
X71456030Y-59491234D01*
X71416900Y-59775925D01*
X71416900Y-60063275D01*
X65024000Y-60063275D01*
X65024000Y-57153713D01*
X65032590Y-57118811D01*
X65056398Y-57091883D01*
X65074021Y-57085165D01*
X65076848Y-57083722D01*
X65079444Y-57083097D01*
X65089984Y-57079080D01*
X65097815Y-57078113D01*
X65097882Y-57078663D01*
X65111039Y-57075500D01*
X137084800Y-57075500D01*
X137122400Y-57085575D01*
G37*
G04 #@! TD.AperFunction*
G04 #@! TA.AperFunction,Conductor*
G36*
X148972200Y-84594142D02*
G01*
X148999725Y-84621667D01*
X149009800Y-84659267D01*
X149009800Y-95349300D01*
X148999725Y-95386900D01*
X148972200Y-95414425D01*
X148934600Y-95424500D01*
X141040379Y-95424500D01*
X141027391Y-95421019D01*
X141027011Y-95423179D01*
X141013952Y-95420876D01*
X141013951Y-95420876D01*
X140999875Y-95423358D01*
X140986818Y-95424500D01*
X140986684Y-95424500D01*
X140986552Y-95424548D01*
X140973908Y-95427935D01*
X140959827Y-95430418D01*
X140953741Y-95433931D01*
X140948354Y-95438452D01*
X140941204Y-95450835D01*
X140933692Y-95461562D01*
X140924501Y-95472516D01*
X140922097Y-95479122D01*
X140920876Y-95486047D01*
X140923358Y-95500125D01*
X140924500Y-95513182D01*
X140924500Y-103459621D01*
X140921019Y-103472608D01*
X140923179Y-103472989D01*
X140920876Y-103486047D01*
X140923358Y-103500125D01*
X140924500Y-103513182D01*
X140924500Y-103513313D01*
X140924547Y-103513442D01*
X140927936Y-103526093D01*
X140930418Y-103540171D01*
X140933935Y-103546261D01*
X140938451Y-103551644D01*
X140938452Y-103551645D01*
X140950832Y-103558792D01*
X140961562Y-103566305D01*
X140972520Y-103575500D01*
X140972521Y-103575500D01*
X140979119Y-103577901D01*
X140986045Y-103579122D01*
X140986048Y-103579124D01*
X141000124Y-103576642D01*
X141013182Y-103575500D01*
X148934600Y-103575500D01*
X148972200Y-103585575D01*
X148999725Y-103613100D01*
X149009800Y-103650700D01*
X149009800Y-113210867D01*
X148999725Y-113248467D01*
X148972200Y-113275992D01*
X148934600Y-113286067D01*
X139775200Y-113286067D01*
X139737600Y-113275992D01*
X139710075Y-113248467D01*
X139700000Y-113210867D01*
X139700000Y-84659267D01*
X139710075Y-84621667D01*
X139737600Y-84594142D01*
X139775200Y-84584067D01*
X148934600Y-84584067D01*
X148972200Y-84594142D01*
G37*
G04 #@! TD.AperFunction*
G04 #@! TA.AperFunction,Conductor*
G36*
X130518400Y-83830075D02*
G01*
X130545925Y-83857600D01*
X130556000Y-83895200D01*
X130556000Y-87935800D01*
X130545925Y-87973400D01*
X130518400Y-88000925D01*
X130480800Y-88011000D01*
X120890800Y-88011000D01*
X120853200Y-88000925D01*
X120825675Y-87973400D01*
X120815600Y-87935800D01*
X120815600Y-87376000D01*
X122551120Y-87376000D01*
X122575517Y-87431254D01*
X122648745Y-87504482D01*
X122743481Y-87546312D01*
X122766643Y-87549000D01*
X123379000Y-87549000D01*
X123379000Y-87376000D01*
X123887000Y-87376000D01*
X123887000Y-87548999D01*
X124499361Y-87548999D01*
X124522518Y-87546313D01*
X124617254Y-87504482D01*
X124690482Y-87431254D01*
X124714879Y-87376000D01*
X123887000Y-87376000D01*
X123379000Y-87376000D01*
X122551120Y-87376000D01*
X120815600Y-87376000D01*
X120815600Y-86868000D01*
X122551120Y-86868000D01*
X123379000Y-86868000D01*
X123379000Y-86695001D01*
X122766639Y-86695001D01*
X122743481Y-86697686D01*
X122648745Y-86739517D01*
X122575517Y-86812745D01*
X122551120Y-86867999D01*
X122551120Y-86868000D01*
X120815600Y-86868000D01*
X120815600Y-86695000D01*
X123887000Y-86695000D01*
X123887000Y-86868000D01*
X124714880Y-86868000D01*
X124714879Y-86867999D01*
X124690482Y-86812745D01*
X124617254Y-86739517D01*
X124522518Y-86697687D01*
X124499357Y-86695000D01*
X123887000Y-86695000D01*
X120815600Y-86695000D01*
X120815600Y-86106000D01*
X122551120Y-86106000D01*
X122575517Y-86161254D01*
X122648745Y-86234482D01*
X122743481Y-86276312D01*
X122766643Y-86279000D01*
X123379000Y-86279000D01*
X123379000Y-86106000D01*
X123887000Y-86106000D01*
X123887000Y-86278999D01*
X124499361Y-86278999D01*
X124522518Y-86276313D01*
X124617254Y-86234482D01*
X124690482Y-86161254D01*
X124714879Y-86106000D01*
X123887000Y-86106000D01*
X123379000Y-86106000D01*
X122551120Y-86106000D01*
X120815600Y-86106000D01*
X120815600Y-85598000D01*
X122551120Y-85598000D01*
X123379000Y-85598000D01*
X123379000Y-85425001D01*
X122766639Y-85425001D01*
X122743481Y-85427686D01*
X122648745Y-85469517D01*
X122575517Y-85542745D01*
X122551120Y-85597999D01*
X122551120Y-85598000D01*
X120815600Y-85598000D01*
X120815600Y-85425000D01*
X123887000Y-85425000D01*
X123887000Y-85598000D01*
X124714880Y-85598000D01*
X124714879Y-85597999D01*
X124690482Y-85542745D01*
X124617254Y-85469517D01*
X124522518Y-85427687D01*
X124499357Y-85425000D01*
X123887000Y-85425000D01*
X120815600Y-85425000D01*
X120815600Y-85174500D01*
X126785501Y-85174500D01*
X126785501Y-85381281D01*
X126796176Y-85454558D01*
X126851436Y-85567596D01*
X126940403Y-85656563D01*
X127053441Y-85711823D01*
X127126718Y-85722500D01*
X128333500Y-85722500D01*
X128333500Y-85174500D01*
X128841500Y-85174500D01*
X128841500Y-85722499D01*
X130048281Y-85722499D01*
X130121558Y-85711823D01*
X130234596Y-85656563D01*
X130323563Y-85567596D01*
X130378823Y-85454558D01*
X130389500Y-85381282D01*
X130389500Y-85174500D01*
X128841500Y-85174500D01*
X128333500Y-85174500D01*
X126785501Y-85174500D01*
X120815600Y-85174500D01*
X120815600Y-84836000D01*
X122551120Y-84836000D01*
X122575517Y-84891254D01*
X122648745Y-84964482D01*
X122743481Y-85006312D01*
X122766643Y-85009000D01*
X123379000Y-85009000D01*
X123379000Y-84836000D01*
X123887000Y-84836000D01*
X123887000Y-85008999D01*
X124499361Y-85008999D01*
X124522518Y-85006313D01*
X124617254Y-84964482D01*
X124690482Y-84891254D01*
X124714879Y-84836000D01*
X123887000Y-84836000D01*
X123379000Y-84836000D01*
X122551120Y-84836000D01*
X120815600Y-84836000D01*
X120815600Y-84666500D01*
X126785500Y-84666500D01*
X128333500Y-84666500D01*
X128333500Y-84118501D01*
X127126719Y-84118501D01*
X127053441Y-84129176D01*
X126940403Y-84184436D01*
X126851436Y-84273403D01*
X126796176Y-84386441D01*
X126785500Y-84459718D01*
X126785500Y-84666500D01*
X120815600Y-84666500D01*
X120815600Y-84353347D01*
X120820642Y-84328000D01*
X122551120Y-84328000D01*
X123379000Y-84328000D01*
X123379000Y-84155001D01*
X122766639Y-84155001D01*
X122743481Y-84157686D01*
X122648745Y-84199517D01*
X122575517Y-84272745D01*
X122551120Y-84327999D01*
X122551120Y-84328000D01*
X120820642Y-84328000D01*
X120821324Y-84324569D01*
X120837626Y-84300173D01*
X120982799Y-84155000D01*
X123887000Y-84155000D01*
X123887000Y-84328000D01*
X124714880Y-84328000D01*
X124714879Y-84327999D01*
X124690482Y-84272745D01*
X124617254Y-84199517D01*
X124522518Y-84157687D01*
X124499357Y-84155000D01*
X123887000Y-84155000D01*
X120982799Y-84155000D01*
X121019299Y-84118500D01*
X128841500Y-84118500D01*
X128841500Y-84666500D01*
X130389499Y-84666500D01*
X130389499Y-84459719D01*
X130378823Y-84386441D01*
X130323563Y-84273403D01*
X130234596Y-84184436D01*
X130121558Y-84129176D01*
X130048282Y-84118500D01*
X128841500Y-84118500D01*
X121019299Y-84118500D01*
X121295773Y-83842026D01*
X121320169Y-83825724D01*
X121348947Y-83820000D01*
X130480800Y-83820000D01*
X130518400Y-83830075D01*
G37*
G04 #@! TD.AperFunction*
G04 #@! TA.AperFunction,Conductor*
G36*
X120231400Y-82433075D02*
G01*
X120258925Y-82460600D01*
X120269000Y-82498200D01*
X120269000Y-84030757D01*
X120255840Y-84073255D01*
X120250694Y-84080766D01*
X120244017Y-84109156D01*
X120240937Y-84119102D01*
X120230400Y-84146303D01*
X120230400Y-84158331D01*
X120228403Y-84175547D01*
X120225650Y-84187252D01*
X120229679Y-84216136D01*
X120230400Y-84226525D01*
X120230400Y-87935800D01*
X120220325Y-87973400D01*
X120192800Y-88000925D01*
X120155200Y-88011000D01*
X112978200Y-88011000D01*
X112940600Y-88000925D01*
X112913075Y-87973400D01*
X112903000Y-87935800D01*
X112903000Y-87376000D01*
X113280120Y-87376000D01*
X113304517Y-87431254D01*
X113377745Y-87504482D01*
X113472481Y-87546312D01*
X113495643Y-87549000D01*
X114108000Y-87549000D01*
X114108000Y-87376000D01*
X114616000Y-87376000D01*
X114616000Y-87548999D01*
X115228361Y-87548999D01*
X115251518Y-87546313D01*
X115346254Y-87504482D01*
X115419482Y-87431254D01*
X115443879Y-87376000D01*
X117601120Y-87376000D01*
X117625517Y-87431254D01*
X117698745Y-87504482D01*
X117793481Y-87546312D01*
X117816643Y-87549000D01*
X118429000Y-87549000D01*
X118429000Y-87376000D01*
X118937000Y-87376000D01*
X118937000Y-87548999D01*
X119549361Y-87548999D01*
X119572518Y-87546313D01*
X119667254Y-87504482D01*
X119740482Y-87431254D01*
X119764879Y-87376000D01*
X118937000Y-87376000D01*
X118429000Y-87376000D01*
X117601120Y-87376000D01*
X115443879Y-87376000D01*
X114616000Y-87376000D01*
X114108000Y-87376000D01*
X113280120Y-87376000D01*
X112903000Y-87376000D01*
X112903000Y-86868000D01*
X113280120Y-86868000D01*
X114108000Y-86868000D01*
X114108000Y-86695001D01*
X113495639Y-86695001D01*
X113472481Y-86697686D01*
X113377745Y-86739517D01*
X113304517Y-86812745D01*
X113280120Y-86867999D01*
X113280120Y-86868000D01*
X112903000Y-86868000D01*
X112903000Y-86695000D01*
X114616000Y-86695000D01*
X114616000Y-86868000D01*
X115443880Y-86868000D01*
X117601120Y-86868000D01*
X118429000Y-86868000D01*
X118429000Y-86695001D01*
X117816639Y-86695001D01*
X117793481Y-86697686D01*
X117698745Y-86739517D01*
X117625517Y-86812745D01*
X117601120Y-86867999D01*
X117601120Y-86868000D01*
X115443880Y-86868000D01*
X115443879Y-86867999D01*
X115419482Y-86812745D01*
X115346254Y-86739517D01*
X115251518Y-86697687D01*
X115228357Y-86695000D01*
X118937000Y-86695000D01*
X118937000Y-86868000D01*
X119764880Y-86868000D01*
X119764879Y-86867999D01*
X119740482Y-86812745D01*
X119667254Y-86739517D01*
X119572518Y-86697687D01*
X119549357Y-86695000D01*
X118937000Y-86695000D01*
X115228357Y-86695000D01*
X114616000Y-86695000D01*
X112903000Y-86695000D01*
X112903000Y-86106000D01*
X113280120Y-86106000D01*
X113304517Y-86161254D01*
X113377745Y-86234482D01*
X113472481Y-86276312D01*
X113495643Y-86279000D01*
X114108000Y-86279000D01*
X114108000Y-86106000D01*
X114616000Y-86106000D01*
X114616000Y-86278999D01*
X115228361Y-86278999D01*
X115251518Y-86276313D01*
X115346254Y-86234482D01*
X115419482Y-86161254D01*
X115443879Y-86106000D01*
X117601120Y-86106000D01*
X117625517Y-86161254D01*
X117698745Y-86234482D01*
X117793481Y-86276312D01*
X117816643Y-86279000D01*
X118429000Y-86279000D01*
X118429000Y-86106000D01*
X118937000Y-86106000D01*
X118937000Y-86278999D01*
X119549361Y-86278999D01*
X119572518Y-86276313D01*
X119667254Y-86234482D01*
X119740482Y-86161254D01*
X119764879Y-86106000D01*
X118937000Y-86106000D01*
X118429000Y-86106000D01*
X117601120Y-86106000D01*
X115443879Y-86106000D01*
X114616000Y-86106000D01*
X114108000Y-86106000D01*
X113280120Y-86106000D01*
X112903000Y-86106000D01*
X112903000Y-85598000D01*
X113280120Y-85598000D01*
X114108000Y-85598000D01*
X114108000Y-85425001D01*
X113495639Y-85425001D01*
X113472481Y-85427686D01*
X113377745Y-85469517D01*
X113304517Y-85542745D01*
X113280120Y-85597999D01*
X113280120Y-85598000D01*
X112903000Y-85598000D01*
X112903000Y-85425000D01*
X114616000Y-85425000D01*
X114616000Y-85598000D01*
X115443880Y-85598000D01*
X117601120Y-85598000D01*
X118429000Y-85598000D01*
X118429000Y-85425001D01*
X117816639Y-85425001D01*
X117793481Y-85427686D01*
X117698745Y-85469517D01*
X117625517Y-85542745D01*
X117601120Y-85597999D01*
X117601120Y-85598000D01*
X115443880Y-85598000D01*
X115443879Y-85597999D01*
X115419482Y-85542745D01*
X115346254Y-85469517D01*
X115251518Y-85427687D01*
X115228357Y-85425000D01*
X118937000Y-85425000D01*
X118937000Y-85598000D01*
X119764880Y-85598000D01*
X119764879Y-85597999D01*
X119740482Y-85542745D01*
X119667254Y-85469517D01*
X119572518Y-85427687D01*
X119549357Y-85425000D01*
X118937000Y-85425000D01*
X115228357Y-85425000D01*
X114616000Y-85425000D01*
X112903000Y-85425000D01*
X112903000Y-84836000D01*
X113280120Y-84836000D01*
X113304517Y-84891254D01*
X113377745Y-84964482D01*
X113472481Y-85006312D01*
X113495643Y-85009000D01*
X114108000Y-85009000D01*
X114108000Y-84836000D01*
X114616000Y-84836000D01*
X114616000Y-85008999D01*
X115228361Y-85008999D01*
X115251518Y-85006313D01*
X115346254Y-84964482D01*
X115419482Y-84891254D01*
X115443879Y-84836000D01*
X117601120Y-84836000D01*
X117625517Y-84891254D01*
X117698745Y-84964482D01*
X117793481Y-85006312D01*
X117816643Y-85009000D01*
X118429000Y-85009000D01*
X118429000Y-84836000D01*
X118937000Y-84836000D01*
X118937000Y-85008999D01*
X119549361Y-85008999D01*
X119572518Y-85006313D01*
X119667254Y-84964482D01*
X119740482Y-84891254D01*
X119764879Y-84836000D01*
X118937000Y-84836000D01*
X118429000Y-84836000D01*
X117601120Y-84836000D01*
X115443879Y-84836000D01*
X114616000Y-84836000D01*
X114108000Y-84836000D01*
X113280120Y-84836000D01*
X112903000Y-84836000D01*
X112903000Y-84328000D01*
X113280120Y-84328000D01*
X114108000Y-84328000D01*
X114108000Y-84155001D01*
X113495639Y-84155001D01*
X113472481Y-84157686D01*
X113377745Y-84199517D01*
X113304517Y-84272745D01*
X113280120Y-84327999D01*
X113280120Y-84328000D01*
X112903000Y-84328000D01*
X112903000Y-84155000D01*
X114616000Y-84155000D01*
X114616000Y-84328000D01*
X115443880Y-84328000D01*
X117601120Y-84328000D01*
X118429000Y-84328000D01*
X118429000Y-84155001D01*
X117816639Y-84155001D01*
X117793481Y-84157686D01*
X117698745Y-84199517D01*
X117625517Y-84272745D01*
X117601120Y-84327999D01*
X117601120Y-84328000D01*
X115443880Y-84328000D01*
X115443879Y-84327999D01*
X115419482Y-84272745D01*
X115346254Y-84199517D01*
X115251518Y-84157687D01*
X115228357Y-84155000D01*
X118937000Y-84155000D01*
X118937000Y-84328000D01*
X119764880Y-84328000D01*
X119764879Y-84327999D01*
X119740482Y-84272745D01*
X119667254Y-84199517D01*
X119572518Y-84157687D01*
X119549357Y-84155000D01*
X118937000Y-84155000D01*
X115228357Y-84155000D01*
X114616000Y-84155000D01*
X112903000Y-84155000D01*
X112903000Y-83566000D01*
X113280120Y-83566000D01*
X113304517Y-83621254D01*
X113377745Y-83694482D01*
X113472481Y-83736312D01*
X113495643Y-83739000D01*
X114108000Y-83739000D01*
X114108000Y-83566000D01*
X114616000Y-83566000D01*
X114616000Y-83738999D01*
X115228361Y-83738999D01*
X115251518Y-83736313D01*
X115346254Y-83694482D01*
X115419482Y-83621254D01*
X115443879Y-83566000D01*
X117601120Y-83566000D01*
X117625517Y-83621254D01*
X117698745Y-83694482D01*
X117793481Y-83736312D01*
X117816643Y-83739000D01*
X118429000Y-83739000D01*
X118429000Y-83566000D01*
X118937000Y-83566000D01*
X118937000Y-83738999D01*
X119549361Y-83738999D01*
X119572518Y-83736313D01*
X119667254Y-83694482D01*
X119740482Y-83621254D01*
X119764879Y-83566000D01*
X118937000Y-83566000D01*
X118429000Y-83566000D01*
X117601120Y-83566000D01*
X115443879Y-83566000D01*
X114616000Y-83566000D01*
X114108000Y-83566000D01*
X113280120Y-83566000D01*
X112903000Y-83566000D01*
X112903000Y-83058000D01*
X113280120Y-83058000D01*
X114108000Y-83058000D01*
X114108000Y-82885001D01*
X113495639Y-82885001D01*
X113472481Y-82887686D01*
X113377745Y-82929517D01*
X113304517Y-83002745D01*
X113280120Y-83057999D01*
X113280120Y-83058000D01*
X112903000Y-83058000D01*
X112903000Y-82885000D01*
X114616000Y-82885000D01*
X114616000Y-83058000D01*
X115443880Y-83058000D01*
X117601120Y-83058000D01*
X118429000Y-83058000D01*
X118429000Y-82885001D01*
X117816639Y-82885001D01*
X117793481Y-82887686D01*
X117698745Y-82929517D01*
X117625517Y-83002745D01*
X117601120Y-83057999D01*
X117601120Y-83058000D01*
X115443880Y-83058000D01*
X115443879Y-83057999D01*
X115419482Y-83002745D01*
X115346254Y-82929517D01*
X115251518Y-82887687D01*
X115228357Y-82885000D01*
X118937000Y-82885000D01*
X118937000Y-83058000D01*
X119764880Y-83058000D01*
X119764879Y-83057999D01*
X119740482Y-83002745D01*
X119667254Y-82929517D01*
X119572518Y-82887687D01*
X119549357Y-82885000D01*
X118937000Y-82885000D01*
X115228357Y-82885000D01*
X114616000Y-82885000D01*
X112903000Y-82885000D01*
X112903000Y-82498200D01*
X112913075Y-82460600D01*
X112940600Y-82433075D01*
X112978200Y-82423000D01*
X120193800Y-82423000D01*
X120231400Y-82433075D01*
G37*
G04 #@! TD.AperFunction*
G04 #@! TA.AperFunction,Conductor*
G36*
X62700400Y-104912075D02*
G01*
X62727925Y-104939600D01*
X62738000Y-104977200D01*
X62738000Y-133007044D01*
X62727925Y-133044644D01*
X62700400Y-133072169D01*
X62662800Y-133082244D01*
X53351000Y-133082244D01*
X53313400Y-133072169D01*
X53285875Y-133044644D01*
X53275800Y-133007044D01*
X53275800Y-104977200D01*
X53285875Y-104939600D01*
X53313400Y-104912075D01*
X53351000Y-104902000D01*
X62662800Y-104902000D01*
X62700400Y-104912075D01*
G37*
G04 #@! TD.AperFunction*
M02*
