G04 #@! TF.GenerationSoftware,KiCad,Pcbnew,7.0.1-0*
G04 #@! TF.CreationDate,2023-03-19T01:41:05-04:00*
G04 #@! TF.ProjectId,batteryboard,62617474-6572-4796-926f-6172642e6b69,rev?*
G04 #@! TF.SameCoordinates,Original*
G04 #@! TF.FileFunction,Paste,Top*
G04 #@! TF.FilePolarity,Positive*
%FSLAX46Y46*%
G04 Gerber Fmt 4.6, Leading zero omitted, Abs format (unit mm)*
G04 Created by KiCad (PCBNEW 7.0.1-0) date 2023-03-19 01:41:05*
%MOMM*%
%LPD*%
G01*
G04 APERTURE LIST*
G04 Aperture macros list*
%AMRoundRect*
0 Rectangle with rounded corners*
0 $1 Rounding radius*
0 $2 $3 $4 $5 $6 $7 $8 $9 X,Y pos of 4 corners*
0 Add a 4 corners polygon primitive as box body*
4,1,4,$2,$3,$4,$5,$6,$7,$8,$9,$2,$3,0*
0 Add four circle primitives for the rounded corners*
1,1,$1+$1,$2,$3*
1,1,$1+$1,$4,$5*
1,1,$1+$1,$6,$7*
1,1,$1+$1,$8,$9*
0 Add four rect primitives between the rounded corners*
20,1,$1+$1,$2,$3,$4,$5,0*
20,1,$1+$1,$4,$5,$6,$7,0*
20,1,$1+$1,$6,$7,$8,$9,0*
20,1,$1+$1,$8,$9,$2,$3,0*%
G04 Aperture macros list end*
%ADD10R,1.000000X0.600000*%
%ADD11RoundRect,0.218750X-0.256250X0.218750X-0.256250X-0.218750X0.256250X-0.218750X0.256250X0.218750X0*%
%ADD12RoundRect,0.218750X0.218750X0.256250X-0.218750X0.256250X-0.218750X-0.256250X0.218750X-0.256250X0*%
%ADD13RoundRect,0.218750X0.256250X-0.218750X0.256250X0.218750X-0.256250X0.218750X-0.256250X-0.218750X0*%
%ADD14RoundRect,0.150000X-0.825000X-0.150000X0.825000X-0.150000X0.825000X0.150000X-0.825000X0.150000X0*%
%ADD15RoundRect,0.150000X0.825000X0.150000X-0.825000X0.150000X-0.825000X-0.150000X0.825000X-0.150000X0*%
%ADD16RoundRect,0.250000X1.425000X-0.425000X1.425000X0.425000X-1.425000X0.425000X-1.425000X-0.425000X0*%
%ADD17RoundRect,0.250000X-1.500000X0.250000X-1.500000X-0.250000X1.500000X-0.250000X1.500000X0.250000X0*%
%ADD18RoundRect,0.250001X-1.449999X0.499999X-1.449999X-0.499999X1.449999X-0.499999X1.449999X0.499999X0*%
G04 APERTURE END LIST*
D10*
X113789000Y-90744000D03*
X113789000Y-91694000D03*
X113789000Y-92644000D03*
X116589000Y-92644000D03*
X116589000Y-91694000D03*
X116589000Y-90744000D03*
D11*
X120523000Y-90906500D03*
X120523000Y-92481500D03*
X118745000Y-90906500D03*
X118745000Y-92481500D03*
X115570000Y-94208500D03*
X115570000Y-95783500D03*
D12*
X128613000Y-82677000D03*
X127038000Y-82677000D03*
X123850500Y-93281500D03*
X122275500Y-93281500D03*
D13*
X118745000Y-95783500D03*
X118745000Y-94208500D03*
D14*
X109412000Y-83312000D03*
X109412000Y-84582000D03*
X109412000Y-85852000D03*
X109412000Y-87122000D03*
X114362000Y-87122000D03*
X114362000Y-85852000D03*
X114362000Y-84582000D03*
X114362000Y-83312000D03*
D15*
X123633000Y-87122000D03*
X123633000Y-85852000D03*
X123633000Y-84582000D03*
X123633000Y-83312000D03*
X118683000Y-83312000D03*
X118683000Y-84582000D03*
X118683000Y-85852000D03*
X118683000Y-87122000D03*
D11*
X113792000Y-94208500D03*
X113792000Y-95783500D03*
D16*
X128587500Y-90720500D03*
X128587500Y-84920500D03*
D17*
X84350000Y-73000000D03*
X84350000Y-75000000D03*
D18*
X78600000Y-70650000D03*
X78600000Y-77350000D03*
M02*
