G04 #@! TF.GenerationSoftware,KiCad,Pcbnew,7.0.1-0*
G04 #@! TF.CreationDate,2023-03-19T01:41:05-04:00*
G04 #@! TF.ProjectId,batteryboard,62617474-6572-4796-926f-6172642e6b69,rev?*
G04 #@! TF.SameCoordinates,Original*
G04 #@! TF.FileFunction,Copper,L2,Bot*
G04 #@! TF.FilePolarity,Positive*
%FSLAX46Y46*%
G04 Gerber Fmt 4.6, Leading zero omitted, Abs format (unit mm)*
G04 Created by KiCad (PCBNEW 7.0.1-0) date 2023-03-19 01:41:05*
%MOMM*%
%LPD*%
G01*
G04 APERTURE LIST*
G04 #@! TA.AperFunction,ComponentPad*
%ADD10C,2.000000*%
G04 #@! TD*
G04 #@! TA.AperFunction,ComponentPad*
%ADD11R,2.032000X2.032000*%
G04 #@! TD*
G04 #@! TA.AperFunction,ComponentPad*
%ADD12C,2.032000*%
G04 #@! TD*
G04 #@! TA.AperFunction,ComponentPad*
%ADD13R,0.850000X0.850000*%
G04 #@! TD*
G04 #@! TA.AperFunction,ComponentPad*
%ADD14C,1.400000*%
G04 #@! TD*
G04 #@! TA.AperFunction,ComponentPad*
%ADD15O,1.400000X1.400000*%
G04 #@! TD*
G04 #@! TA.AperFunction,ComponentPad*
%ADD16C,4.500000*%
G04 #@! TD*
G04 #@! TA.AperFunction,WasherPad*
%ADD17C,3.800000*%
G04 #@! TD*
G04 #@! TA.AperFunction,SMDPad,CuDef*
%ADD18R,7.340000X6.350000*%
G04 #@! TD*
G04 #@! TA.AperFunction,SMDPad,CuDef*
%ADD19R,7.340000X4.500000*%
G04 #@! TD*
G04 #@! TA.AperFunction,ViaPad*
%ADD20C,0.584200*%
G04 #@! TD*
G04 #@! TA.AperFunction,Conductor*
%ADD21C,0.508000*%
G04 #@! TD*
G04 APERTURE END LIST*
D10*
X144145000Y-121285000D03*
X58166000Y-78105000D03*
X142062200Y-75565000D03*
X146177000Y-75565000D03*
D11*
X109016800Y-64300000D03*
D12*
X105161200Y-64300000D03*
D11*
X105232200Y-72174000D03*
D12*
X109087800Y-72174000D03*
D11*
X118795800Y-64300000D03*
D12*
X114940200Y-64300000D03*
D11*
X114884200Y-72174000D03*
D12*
X118739800Y-72174000D03*
D13*
X101346000Y-75692000D03*
D14*
X101346000Y-93726000D03*
D15*
X96266000Y-93726000D03*
D16*
X144005300Y-136349900D03*
X58280300Y-58889900D03*
X58280300Y-138889900D03*
X144005300Y-62689900D03*
D17*
X73517400Y-80569800D03*
X128717400Y-96569800D03*
D18*
X58117400Y-88569800D03*
X144117400Y-88569800D03*
D17*
X128742800Y-137844800D03*
X73542800Y-121844800D03*
D18*
X144142800Y-129844800D03*
X58142800Y-129844800D03*
D17*
X128742800Y-117194600D03*
X73542800Y-101194600D03*
D18*
X144142800Y-109194600D03*
X58142800Y-109194600D03*
D17*
X73517400Y-59919600D03*
X128717400Y-75919600D03*
D18*
X58117400Y-67919600D03*
D19*
X144117400Y-68844600D03*
D20*
X143256000Y-129794000D03*
X146558000Y-129794000D03*
X145034000Y-129794000D03*
X141732000Y-129794000D03*
X146558000Y-132080000D03*
X141732000Y-132080000D03*
X143256000Y-132080000D03*
X145034000Y-132080000D03*
X131826000Y-90678000D03*
X132588000Y-90678000D03*
X131064000Y-90678000D03*
X131826000Y-91567000D03*
X131064000Y-91567000D03*
X132588000Y-91567000D03*
X141732000Y-127508000D03*
X131064000Y-89789000D03*
X132588000Y-89789000D03*
X146558000Y-127508000D03*
X143256000Y-127508000D03*
X131826000Y-89789000D03*
X145034000Y-127508000D03*
X54864000Y-119380000D03*
X58420000Y-119380000D03*
X56642000Y-119380000D03*
X60198000Y-119380000D03*
X60198000Y-120904000D03*
X58420000Y-120904000D03*
X54864000Y-120904000D03*
X56642000Y-120904000D03*
X58420000Y-117856000D03*
X117665498Y-95821500D03*
X54864000Y-117856000D03*
X56642000Y-117856000D03*
X60198000Y-117856000D03*
X140843000Y-94742000D03*
X143002000Y-94742000D03*
X145288000Y-94742000D03*
X147447000Y-94742000D03*
X145447000Y-104397000D03*
X141447000Y-104397000D03*
X143447000Y-104397000D03*
X147447000Y-104397000D03*
X143002000Y-93345000D03*
X147447000Y-93345000D03*
X80100000Y-73000000D03*
X140843000Y-93345000D03*
X145288000Y-93345000D03*
X87500000Y-73000000D03*
D21*
X78321500Y-95821500D02*
X65500000Y-83000000D01*
X65500000Y-83000000D02*
X58000000Y-83000000D01*
X117665498Y-95821500D02*
X78321500Y-95821500D01*
X101346000Y-76625000D02*
X101346000Y-93726000D01*
X101346000Y-75692000D02*
X101346000Y-76625000D01*
G04 #@! TA.AperFunction,Conductor*
G36*
X134893784Y-62495399D02*
G01*
X140291397Y-66423833D01*
X140315454Y-66453187D01*
X140322111Y-66490553D01*
X140309671Y-66526411D01*
X140303842Y-66535134D01*
X140295000Y-66579587D01*
X140295000Y-68590600D01*
X147939800Y-68590600D01*
X147939800Y-66623200D01*
X147949875Y-66585600D01*
X147977400Y-66558075D01*
X148015000Y-66548000D01*
X148934600Y-66548000D01*
X148972200Y-66558075D01*
X148999725Y-66585600D01*
X149009800Y-66623200D01*
X149009800Y-95349300D01*
X148999725Y-95386900D01*
X148972200Y-95414425D01*
X148934600Y-95424500D01*
X141040379Y-95424500D01*
X141027391Y-95421019D01*
X141027011Y-95423179D01*
X141013952Y-95420876D01*
X141013951Y-95420876D01*
X140999875Y-95423358D01*
X140986818Y-95424500D01*
X140986684Y-95424500D01*
X140986552Y-95424548D01*
X140973908Y-95427935D01*
X140959827Y-95430418D01*
X140953741Y-95433931D01*
X140948354Y-95438452D01*
X140941204Y-95450835D01*
X140933692Y-95461562D01*
X140924501Y-95472516D01*
X140922097Y-95479122D01*
X140920876Y-95486047D01*
X140923358Y-95500125D01*
X140924500Y-95513182D01*
X140924500Y-97206800D01*
X140914425Y-97244400D01*
X140886900Y-97271925D01*
X140849300Y-97282000D01*
X139769530Y-97282000D01*
X139731930Y-97271925D01*
X139704405Y-97244400D01*
X139694330Y-97206801D01*
X139694311Y-95438452D01*
X139694241Y-88823800D01*
X140295000Y-88823800D01*
X140295000Y-91759813D01*
X140303841Y-91804263D01*
X140337526Y-91854673D01*
X140387936Y-91888358D01*
X140432387Y-91897200D01*
X143863400Y-91897200D01*
X143863400Y-88823800D01*
X144371400Y-88823800D01*
X144371400Y-91897200D01*
X147802413Y-91897200D01*
X147846863Y-91888358D01*
X147897273Y-91854673D01*
X147930958Y-91804263D01*
X147939800Y-91759813D01*
X147939800Y-88823800D01*
X144371400Y-88823800D01*
X143863400Y-88823800D01*
X140295000Y-88823800D01*
X139694241Y-88823800D01*
X139694236Y-88315800D01*
X140295000Y-88315800D01*
X143863400Y-88315800D01*
X143863400Y-85242400D01*
X144371400Y-85242400D01*
X144371400Y-88315800D01*
X147939800Y-88315800D01*
X147939800Y-85379787D01*
X147930958Y-85335336D01*
X147897273Y-85284926D01*
X147846863Y-85251241D01*
X147802413Y-85242400D01*
X144371400Y-85242400D01*
X143863400Y-85242400D01*
X140432387Y-85242400D01*
X140387936Y-85251241D01*
X140337526Y-85284926D01*
X140303841Y-85335336D01*
X140295000Y-85379787D01*
X140295000Y-88315800D01*
X139694236Y-88315800D01*
X139694102Y-75565000D01*
X140904360Y-75565000D01*
X140924075Y-75777752D01*
X140982494Y-75983076D01*
X140982547Y-75983260D01*
X141077785Y-76174524D01*
X141206547Y-76345031D01*
X141364446Y-76488975D01*
X141433626Y-76531809D01*
X141546106Y-76601455D01*
X141606001Y-76624658D01*
X141745342Y-76678639D01*
X141955368Y-76717900D01*
X142169029Y-76717900D01*
X142169032Y-76717900D01*
X142379058Y-76678639D01*
X142578293Y-76601455D01*
X142678408Y-76539466D01*
X145561741Y-76539466D01*
X145661130Y-76601006D01*
X145860277Y-76678154D01*
X146070217Y-76717400D01*
X146283783Y-76717400D01*
X146493722Y-76678154D01*
X146692869Y-76601006D01*
X146792256Y-76539467D01*
X146792257Y-76539466D01*
X146177001Y-75924210D01*
X146176999Y-75924210D01*
X145561741Y-76539466D01*
X142678408Y-76539466D01*
X142759954Y-76488975D01*
X142917853Y-76345031D01*
X143046615Y-76174524D01*
X143141853Y-75983260D01*
X143200325Y-75777752D01*
X143220039Y-75565000D01*
X145019663Y-75565000D01*
X145039369Y-75777661D01*
X145097815Y-75983078D01*
X145193009Y-76174255D01*
X145199688Y-76183099D01*
X145199690Y-76183099D01*
X145817790Y-75565001D01*
X146536210Y-75565001D01*
X147154308Y-76183099D01*
X147154309Y-76183099D01*
X147160988Y-76174257D01*
X147256185Y-75983076D01*
X147314630Y-75777661D01*
X147334336Y-75565000D01*
X147314630Y-75352338D01*
X147256185Y-75146923D01*
X147160988Y-74955742D01*
X147154309Y-74946899D01*
X147154308Y-74946899D01*
X146536210Y-75564999D01*
X146536210Y-75565001D01*
X145817790Y-75565001D01*
X145817790Y-75564999D01*
X145199689Y-74946898D01*
X145193011Y-74955741D01*
X145097814Y-75146923D01*
X145039369Y-75352338D01*
X145019663Y-75565000D01*
X143220039Y-75565000D01*
X143200325Y-75352248D01*
X143141853Y-75146740D01*
X143046615Y-74955476D01*
X142917853Y-74784969D01*
X142759954Y-74641025D01*
X142678406Y-74590532D01*
X145561741Y-74590532D01*
X146176999Y-75205790D01*
X146177001Y-75205790D01*
X146792257Y-74590532D01*
X146792257Y-74590531D01*
X146692867Y-74528993D01*
X146493722Y-74451845D01*
X146283783Y-74412600D01*
X146070217Y-74412600D01*
X145860277Y-74451845D01*
X145661131Y-74528993D01*
X145561741Y-74590531D01*
X145561741Y-74590532D01*
X142678406Y-74590532D01*
X142578293Y-74528544D01*
X142380307Y-74451845D01*
X142379058Y-74451361D01*
X142169032Y-74412100D01*
X141955368Y-74412100D01*
X141745342Y-74451361D01*
X141745339Y-74451361D01*
X141745339Y-74451362D01*
X141546106Y-74528544D01*
X141364445Y-74641025D01*
X141206548Y-74784967D01*
X141077785Y-74955476D01*
X140982546Y-75146741D01*
X140924075Y-75352247D01*
X140904360Y-75565000D01*
X139694102Y-75565000D01*
X139694081Y-73564205D01*
X79079014Y-73614942D01*
X79041387Y-73604888D01*
X79013836Y-73577359D01*
X79003751Y-73539742D01*
X79003776Y-72428000D01*
X104063800Y-72428000D01*
X104063800Y-73205013D01*
X104072641Y-73249463D01*
X104106326Y-73299873D01*
X104156736Y-73333558D01*
X104201187Y-73342400D01*
X104978200Y-73342400D01*
X104978200Y-72428000D01*
X105486200Y-72428000D01*
X105486200Y-73342400D01*
X106263213Y-73342400D01*
X106307663Y-73333558D01*
X106358073Y-73299873D01*
X106391758Y-73249463D01*
X106400600Y-73205013D01*
X106400600Y-72428000D01*
X105486200Y-72428000D01*
X104978200Y-72428000D01*
X104063800Y-72428000D01*
X79003776Y-72428000D01*
X79003782Y-72174000D01*
X107913891Y-72174000D01*
X107933880Y-72389705D01*
X107993163Y-72598064D01*
X108089723Y-72791983D01*
X108154997Y-72878420D01*
X108220272Y-72964858D01*
X108367361Y-73098947D01*
X108380362Y-73110799D01*
X108450503Y-73154228D01*
X108564543Y-73224839D01*
X108628106Y-73249463D01*
X108766545Y-73303095D01*
X108979485Y-73342900D01*
X109196112Y-73342900D01*
X109196115Y-73342900D01*
X109409055Y-73303095D01*
X109611056Y-73224839D01*
X109795238Y-73110799D01*
X109955328Y-72964857D01*
X110085877Y-72791983D01*
X110182437Y-72598064D01*
X110230824Y-72428000D01*
X113715800Y-72428000D01*
X113715800Y-73205013D01*
X113724641Y-73249463D01*
X113758326Y-73299873D01*
X113808736Y-73333558D01*
X113853187Y-73342400D01*
X114630200Y-73342400D01*
X114630200Y-72428000D01*
X115138200Y-72428000D01*
X115138200Y-73342400D01*
X115915213Y-73342400D01*
X115959663Y-73333558D01*
X116010073Y-73299873D01*
X116043758Y-73249463D01*
X116052600Y-73205013D01*
X116052600Y-72428000D01*
X115138200Y-72428000D01*
X114630200Y-72428000D01*
X113715800Y-72428000D01*
X110230824Y-72428000D01*
X110241720Y-72389705D01*
X110261708Y-72174000D01*
X117565891Y-72174000D01*
X117585880Y-72389705D01*
X117645163Y-72598064D01*
X117741723Y-72791983D01*
X117806997Y-72878420D01*
X117872272Y-72964858D01*
X118019361Y-73098947D01*
X118032362Y-73110799D01*
X118102503Y-73154228D01*
X118216543Y-73224839D01*
X118280106Y-73249463D01*
X118418545Y-73303095D01*
X118631485Y-73342900D01*
X118848112Y-73342900D01*
X118848115Y-73342900D01*
X119061055Y-73303095D01*
X119263056Y-73224839D01*
X119447238Y-73110799D01*
X119607328Y-72964857D01*
X119737877Y-72791983D01*
X119834437Y-72598064D01*
X119893720Y-72389705D01*
X119913708Y-72174000D01*
X119893720Y-71958295D01*
X119834437Y-71749936D01*
X119737877Y-71556017D01*
X119651439Y-71441555D01*
X119607327Y-71383141D01*
X119447238Y-71237201D01*
X119263056Y-71123160D01*
X119069369Y-71048126D01*
X119061055Y-71044905D01*
X118848115Y-71005100D01*
X118631485Y-71005100D01*
X118418545Y-71044905D01*
X118418542Y-71044905D01*
X118418542Y-71044906D01*
X118216543Y-71123160D01*
X118032361Y-71237201D01*
X117872272Y-71383141D01*
X117741723Y-71556017D01*
X117645162Y-71749937D01*
X117585880Y-71958293D01*
X117565891Y-72174000D01*
X110261708Y-72174000D01*
X110241720Y-71958295D01*
X110230824Y-71920000D01*
X113715800Y-71920000D01*
X114630200Y-71920000D01*
X114630200Y-71005600D01*
X115138200Y-71005600D01*
X115138200Y-71920000D01*
X116052600Y-71920000D01*
X116052600Y-71142987D01*
X116043758Y-71098536D01*
X116010073Y-71048126D01*
X115959663Y-71014441D01*
X115915213Y-71005600D01*
X115138200Y-71005600D01*
X114630200Y-71005600D01*
X113853187Y-71005600D01*
X113808736Y-71014441D01*
X113758326Y-71048126D01*
X113724641Y-71098536D01*
X113715800Y-71142987D01*
X113715800Y-71920000D01*
X110230824Y-71920000D01*
X110182437Y-71749936D01*
X110085877Y-71556017D01*
X109999439Y-71441555D01*
X109955327Y-71383141D01*
X109795238Y-71237201D01*
X109611056Y-71123160D01*
X109417369Y-71048126D01*
X109409055Y-71044905D01*
X109196115Y-71005100D01*
X108979485Y-71005100D01*
X108766545Y-71044905D01*
X108766542Y-71044905D01*
X108766542Y-71044906D01*
X108564543Y-71123160D01*
X108380361Y-71237201D01*
X108220272Y-71383141D01*
X108089723Y-71556017D01*
X107993162Y-71749937D01*
X107933880Y-71958293D01*
X107913891Y-72174000D01*
X79003782Y-72174000D01*
X79003787Y-71920000D01*
X104063800Y-71920000D01*
X104978200Y-71920000D01*
X104978200Y-71005600D01*
X105486200Y-71005600D01*
X105486200Y-71920000D01*
X106400600Y-71920000D01*
X106400600Y-71142987D01*
X106391758Y-71098536D01*
X106358073Y-71048126D01*
X106307663Y-71014441D01*
X106263213Y-71005600D01*
X105486200Y-71005600D01*
X104978200Y-71005600D01*
X104201187Y-71005600D01*
X104156736Y-71014441D01*
X104106326Y-71048126D01*
X104072641Y-71098536D01*
X104063800Y-71142987D01*
X104063800Y-71920000D01*
X79003787Y-71920000D01*
X79003851Y-69098600D01*
X140295000Y-69098600D01*
X140295000Y-71109613D01*
X140303841Y-71154063D01*
X140337526Y-71204473D01*
X140387936Y-71238158D01*
X140432387Y-71247000D01*
X143863400Y-71247000D01*
X143863400Y-69098600D01*
X144371400Y-69098600D01*
X144371400Y-71247000D01*
X147802413Y-71247000D01*
X147846863Y-71238158D01*
X147897273Y-71204473D01*
X147930958Y-71154063D01*
X147939800Y-71109613D01*
X147939800Y-69098600D01*
X144371400Y-69098600D01*
X143863400Y-69098600D01*
X140295000Y-69098600D01*
X79003851Y-69098600D01*
X79003959Y-64300000D01*
X103987291Y-64300000D01*
X104007280Y-64515706D01*
X104015622Y-64545027D01*
X104066563Y-64724064D01*
X104163123Y-64917983D01*
X104209739Y-64979712D01*
X104293672Y-65090858D01*
X104440761Y-65224947D01*
X104453762Y-65236799D01*
X104523903Y-65280228D01*
X104637943Y-65350839D01*
X104701506Y-65375463D01*
X104839945Y-65429095D01*
X105052885Y-65468900D01*
X105269512Y-65468900D01*
X105269515Y-65468900D01*
X105482455Y-65429095D01*
X105684456Y-65350839D01*
X105868638Y-65236799D01*
X106028728Y-65090857D01*
X106159277Y-64917983D01*
X106255837Y-64724064D01*
X106304224Y-64554000D01*
X107848400Y-64554000D01*
X107848400Y-65331013D01*
X107857241Y-65375463D01*
X107890926Y-65425873D01*
X107941336Y-65459558D01*
X107985787Y-65468400D01*
X108762800Y-65468400D01*
X108762800Y-64554000D01*
X109270800Y-64554000D01*
X109270800Y-65468400D01*
X110047813Y-65468400D01*
X110092263Y-65459558D01*
X110142673Y-65425873D01*
X110176358Y-65375463D01*
X110185200Y-65331013D01*
X110185200Y-64554000D01*
X109270800Y-64554000D01*
X108762800Y-64554000D01*
X107848400Y-64554000D01*
X106304224Y-64554000D01*
X106315120Y-64515705D01*
X106335108Y-64300000D01*
X113766291Y-64300000D01*
X113786280Y-64515706D01*
X113794622Y-64545027D01*
X113845563Y-64724064D01*
X113942123Y-64917983D01*
X113988739Y-64979712D01*
X114072672Y-65090858D01*
X114219761Y-65224947D01*
X114232762Y-65236799D01*
X114302903Y-65280228D01*
X114416943Y-65350839D01*
X114480506Y-65375463D01*
X114618945Y-65429095D01*
X114831885Y-65468900D01*
X115048512Y-65468900D01*
X115048515Y-65468900D01*
X115261455Y-65429095D01*
X115463456Y-65350839D01*
X115647638Y-65236799D01*
X115807728Y-65090857D01*
X115938277Y-64917983D01*
X116034837Y-64724064D01*
X116083224Y-64554000D01*
X117627400Y-64554000D01*
X117627400Y-65331013D01*
X117636241Y-65375463D01*
X117669926Y-65425873D01*
X117720336Y-65459558D01*
X117764787Y-65468400D01*
X118541800Y-65468400D01*
X118541800Y-64554000D01*
X119049800Y-64554000D01*
X119049800Y-65468400D01*
X119826813Y-65468400D01*
X119871263Y-65459558D01*
X119921673Y-65425873D01*
X119955358Y-65375463D01*
X119964200Y-65331013D01*
X119964200Y-64554000D01*
X119049800Y-64554000D01*
X118541800Y-64554000D01*
X117627400Y-64554000D01*
X116083224Y-64554000D01*
X116094120Y-64515705D01*
X116114108Y-64300000D01*
X116094120Y-64084295D01*
X116083224Y-64046000D01*
X117627400Y-64046000D01*
X118541800Y-64046000D01*
X118541800Y-63131600D01*
X119049800Y-63131600D01*
X119049800Y-64046000D01*
X119964200Y-64046000D01*
X119964200Y-63268987D01*
X119955358Y-63224536D01*
X119921673Y-63174126D01*
X119871263Y-63140441D01*
X119826813Y-63131600D01*
X119049800Y-63131600D01*
X118541800Y-63131600D01*
X117764787Y-63131600D01*
X117720336Y-63140441D01*
X117669926Y-63174126D01*
X117636241Y-63224536D01*
X117627400Y-63268987D01*
X117627400Y-64046000D01*
X116083224Y-64046000D01*
X116034837Y-63875936D01*
X115938277Y-63682017D01*
X115851839Y-63567555D01*
X115807727Y-63509141D01*
X115647638Y-63363201D01*
X115463456Y-63249160D01*
X115269769Y-63174126D01*
X115261455Y-63170905D01*
X115048515Y-63131100D01*
X114831885Y-63131100D01*
X114618945Y-63170905D01*
X114618942Y-63170905D01*
X114618942Y-63170906D01*
X114416943Y-63249160D01*
X114232761Y-63363201D01*
X114072672Y-63509141D01*
X113942123Y-63682017D01*
X113845562Y-63875937D01*
X113786280Y-64084293D01*
X113766291Y-64300000D01*
X106335108Y-64300000D01*
X106315120Y-64084295D01*
X106304224Y-64046000D01*
X107848400Y-64046000D01*
X108762800Y-64046000D01*
X108762800Y-63131600D01*
X109270800Y-63131600D01*
X109270800Y-64046000D01*
X110185200Y-64046000D01*
X110185200Y-63268987D01*
X110176358Y-63224536D01*
X110142673Y-63174126D01*
X110092263Y-63140441D01*
X110047813Y-63131600D01*
X109270800Y-63131600D01*
X108762800Y-63131600D01*
X107985787Y-63131600D01*
X107941336Y-63140441D01*
X107890926Y-63174126D01*
X107857241Y-63224536D01*
X107848400Y-63268987D01*
X107848400Y-64046000D01*
X106304224Y-64046000D01*
X106255837Y-63875936D01*
X106159277Y-63682017D01*
X106072839Y-63567555D01*
X106028727Y-63509141D01*
X105868638Y-63363201D01*
X105684456Y-63249160D01*
X105490769Y-63174126D01*
X105482455Y-63170905D01*
X105269515Y-63131100D01*
X105052885Y-63131100D01*
X104839945Y-63170905D01*
X104839942Y-63170905D01*
X104839942Y-63170906D01*
X104637943Y-63249160D01*
X104453761Y-63363201D01*
X104293672Y-63509141D01*
X104163123Y-63682017D01*
X104066562Y-63875937D01*
X104007280Y-64084293D01*
X103987291Y-64300000D01*
X79003959Y-64300000D01*
X79003998Y-62556196D01*
X79014073Y-62518599D01*
X79041598Y-62491075D01*
X79079198Y-62481000D01*
X134849532Y-62481000D01*
X134893784Y-62495399D01*
G37*
G04 #@! TD.AperFunction*
G04 #@! TA.AperFunction,Conductor*
G36*
X139498504Y-88071663D02*
G01*
X139526192Y-88099205D01*
X139536333Y-88136919D01*
X139536336Y-88315802D01*
X139536341Y-88823802D01*
X139536343Y-88981700D01*
X139536429Y-97206806D01*
X139541809Y-97247661D01*
X139541810Y-97247666D01*
X139541811Y-97247670D01*
X139549096Y-97274858D01*
X139551887Y-97285271D01*
X139592753Y-97356053D01*
X139620274Y-97383574D01*
X139620276Y-97383575D01*
X139620278Y-97383577D01*
X139691062Y-97424445D01*
X139728662Y-97434520D01*
X139769530Y-97439900D01*
X139769533Y-97439900D01*
X140849300Y-97439900D01*
X140886900Y-97449975D01*
X140914425Y-97477500D01*
X140924500Y-97515100D01*
X140924500Y-103459621D01*
X140921019Y-103472608D01*
X140923179Y-103472989D01*
X140920876Y-103486047D01*
X140923358Y-103500125D01*
X140924500Y-103513182D01*
X140924500Y-103513313D01*
X140924547Y-103513442D01*
X140927936Y-103526093D01*
X140930418Y-103540171D01*
X140933935Y-103546261D01*
X140938451Y-103551644D01*
X140938452Y-103551645D01*
X140950832Y-103558792D01*
X140961562Y-103566305D01*
X140972520Y-103575500D01*
X140972521Y-103575500D01*
X140979119Y-103577901D01*
X140986045Y-103579122D01*
X140986048Y-103579124D01*
X141000124Y-103576642D01*
X141013182Y-103575500D01*
X148934600Y-103575500D01*
X148972200Y-103585575D01*
X148999725Y-103613100D01*
X149009800Y-103650700D01*
X149009800Y-133020800D01*
X148999725Y-133058400D01*
X148972200Y-133085925D01*
X148934600Y-133096000D01*
X148142000Y-133096000D01*
X148104400Y-133085925D01*
X148076875Y-133058400D01*
X148066800Y-133020800D01*
X148066800Y-130098800D01*
X140218801Y-130098800D01*
X140218801Y-133020800D01*
X140208726Y-133058400D01*
X140181201Y-133085925D01*
X140143601Y-133096000D01*
X124853019Y-133096000D01*
X124815327Y-133085872D01*
X124787788Y-133058216D01*
X124777820Y-133020481D01*
X124792352Y-129590800D01*
X140218800Y-129590800D01*
X143888800Y-129590800D01*
X143888800Y-126415801D01*
X140447783Y-126415801D01*
X140373695Y-126430536D01*
X140289676Y-126486676D01*
X140233536Y-126570695D01*
X140218800Y-126644783D01*
X140218800Y-129590800D01*
X124792352Y-129590800D01*
X124805805Y-126415800D01*
X144396800Y-126415800D01*
X144396800Y-129590800D01*
X148066799Y-129590800D01*
X148066799Y-126644783D01*
X148052063Y-126570695D01*
X147995923Y-126486676D01*
X147911904Y-126430536D01*
X147837817Y-126415800D01*
X144396800Y-126415800D01*
X124805805Y-126415800D01*
X124822927Y-122375144D01*
X124823104Y-122333325D01*
X143455882Y-122333325D01*
X143455883Y-122333326D01*
X143515605Y-122375144D01*
X143714464Y-122467874D01*
X143926414Y-122524665D01*
X144145000Y-122543789D01*
X144363585Y-122524665D01*
X144575535Y-122467874D01*
X144774391Y-122375146D01*
X144834116Y-122333325D01*
X144145001Y-121644210D01*
X144144999Y-121644210D01*
X143455882Y-122333325D01*
X124823104Y-122333325D01*
X124827546Y-121285000D01*
X142886210Y-121285000D01*
X142905334Y-121503585D01*
X142962125Y-121715535D01*
X143054855Y-121914394D01*
X143096672Y-121974115D01*
X143096673Y-121974116D01*
X143785790Y-121285001D01*
X144504210Y-121285001D01*
X145193325Y-121974116D01*
X145235146Y-121914391D01*
X145327874Y-121715535D01*
X145384665Y-121503585D01*
X145403789Y-121285000D01*
X145384665Y-121066414D01*
X145327874Y-120854464D01*
X145235144Y-120655605D01*
X145193326Y-120595883D01*
X145193325Y-120595882D01*
X144504210Y-121284999D01*
X144504210Y-121285001D01*
X143785790Y-121285001D01*
X143785790Y-121284999D01*
X143096674Y-120595883D01*
X143096672Y-120595883D01*
X143054854Y-120655607D01*
X142962125Y-120854464D01*
X142905334Y-121066414D01*
X142886210Y-121285000D01*
X124827546Y-121285000D01*
X124831988Y-120236674D01*
X143455883Y-120236674D01*
X144144999Y-120925790D01*
X144145001Y-120925790D01*
X144834116Y-120236673D01*
X144834115Y-120236672D01*
X144774394Y-120194855D01*
X144575535Y-120102125D01*
X144363585Y-120045334D01*
X144145000Y-120026210D01*
X143926414Y-120045334D01*
X143714464Y-120102125D01*
X143515607Y-120194854D01*
X143455883Y-120236672D01*
X143455883Y-120236674D01*
X124831988Y-120236674D01*
X124844270Y-117338275D01*
X126642300Y-117338275D01*
X126681430Y-117622965D01*
X126758954Y-117899655D01*
X126873438Y-118163225D01*
X127022744Y-118408748D01*
X127204090Y-118631651D01*
X127414103Y-118827791D01*
X127648861Y-118993499D01*
X127648864Y-118993501D01*
X127904003Y-119125704D01*
X128174768Y-119221934D01*
X128456114Y-119280398D01*
X128671048Y-119295100D01*
X128814547Y-119295100D01*
X128814552Y-119295100D01*
X129029486Y-119280398D01*
X129310832Y-119221934D01*
X129581597Y-119125704D01*
X129836736Y-118993501D01*
X129954117Y-118910644D01*
X130071496Y-118827791D01*
X130094654Y-118806162D01*
X130281508Y-118631653D01*
X130360447Y-118534622D01*
X130462855Y-118408748D01*
X130612161Y-118163225D01*
X130726645Y-117899655D01*
X130804169Y-117622965D01*
X130804168Y-117622965D01*
X130804171Y-117622958D01*
X130843300Y-117338278D01*
X130843300Y-117050922D01*
X130804171Y-116766242D01*
X130726644Y-116489542D01*
X130612161Y-116225975D01*
X130612161Y-116225974D01*
X130462855Y-115980451D01*
X130281509Y-115757548D01*
X130071496Y-115561408D01*
X129836738Y-115395700D01*
X129820024Y-115387039D01*
X129581597Y-115263496D01*
X129485365Y-115229295D01*
X129310831Y-115167265D01*
X129029489Y-115108802D01*
X128948885Y-115103288D01*
X128814552Y-115094100D01*
X128671048Y-115094100D01*
X128551640Y-115102267D01*
X128456110Y-115108802D01*
X128174768Y-115167265D01*
X127904003Y-115263496D01*
X127648861Y-115395700D01*
X127414103Y-115561408D01*
X127204090Y-115757548D01*
X127022744Y-115980451D01*
X126873438Y-116225974D01*
X126758954Y-116489544D01*
X126681430Y-116766234D01*
X126642300Y-117050925D01*
X126642300Y-117338275D01*
X124844270Y-117338275D01*
X124877700Y-109448600D01*
X140218801Y-109448600D01*
X140218801Y-112394617D01*
X140233536Y-112468704D01*
X140289676Y-112552723D01*
X140373695Y-112608863D01*
X140447783Y-112623600D01*
X143888800Y-112623600D01*
X143888800Y-109448600D01*
X144396800Y-109448600D01*
X144396800Y-112623599D01*
X147837817Y-112623599D01*
X147911904Y-112608863D01*
X147995923Y-112552723D01*
X148052063Y-112468704D01*
X148066800Y-112394617D01*
X148066800Y-109448600D01*
X144396800Y-109448600D01*
X143888800Y-109448600D01*
X140218801Y-109448600D01*
X124877700Y-109448600D01*
X124879853Y-108940600D01*
X140218800Y-108940600D01*
X143888800Y-108940600D01*
X143888800Y-105765601D01*
X140447783Y-105765601D01*
X140373695Y-105780336D01*
X140289676Y-105836476D01*
X140233536Y-105920495D01*
X140218800Y-105994583D01*
X140218800Y-108940600D01*
X124879853Y-108940600D01*
X124893307Y-105765600D01*
X144396800Y-105765600D01*
X144396800Y-108940600D01*
X148066799Y-108940600D01*
X148066799Y-105994583D01*
X148052063Y-105920495D01*
X147995923Y-105836476D01*
X147911904Y-105780336D01*
X147837817Y-105765600D01*
X144396800Y-105765600D01*
X124893307Y-105765600D01*
X124899106Y-104397000D01*
X140997424Y-104397000D01*
X141015635Y-104523662D01*
X141068791Y-104640057D01*
X141152591Y-104736768D01*
X141206414Y-104771357D01*
X141260239Y-104805949D01*
X141383019Y-104842000D01*
X141510981Y-104842000D01*
X141633761Y-104805949D01*
X141741410Y-104736767D01*
X141825207Y-104640059D01*
X141878365Y-104523660D01*
X141896576Y-104397000D01*
X142997424Y-104397000D01*
X143015635Y-104523662D01*
X143068791Y-104640057D01*
X143152591Y-104736768D01*
X143206414Y-104771357D01*
X143260239Y-104805949D01*
X143383019Y-104842000D01*
X143510981Y-104842000D01*
X143633761Y-104805949D01*
X143741410Y-104736767D01*
X143825207Y-104640059D01*
X143878365Y-104523660D01*
X143896576Y-104397000D01*
X144997424Y-104397000D01*
X145015635Y-104523662D01*
X145068791Y-104640057D01*
X145152591Y-104736768D01*
X145206414Y-104771357D01*
X145260239Y-104805949D01*
X145383019Y-104842000D01*
X145510981Y-104842000D01*
X145633761Y-104805949D01*
X145741410Y-104736767D01*
X145825207Y-104640059D01*
X145878365Y-104523660D01*
X145896576Y-104397000D01*
X146997424Y-104397000D01*
X147015635Y-104523662D01*
X147068791Y-104640057D01*
X147152591Y-104736768D01*
X147206414Y-104771357D01*
X147260239Y-104805949D01*
X147383019Y-104842000D01*
X147510981Y-104842000D01*
X147633761Y-104805949D01*
X147741410Y-104736767D01*
X147825207Y-104640059D01*
X147878365Y-104523660D01*
X147896576Y-104397000D01*
X147878365Y-104270340D01*
X147878364Y-104270337D01*
X147825208Y-104153942D01*
X147741408Y-104057231D01*
X147633761Y-103988051D01*
X147510981Y-103952000D01*
X147383019Y-103952000D01*
X147260238Y-103988051D01*
X147152591Y-104057231D01*
X147068791Y-104153942D01*
X147015635Y-104270337D01*
X146997424Y-104397000D01*
X145896576Y-104397000D01*
X145878365Y-104270340D01*
X145878364Y-104270337D01*
X145825208Y-104153942D01*
X145741408Y-104057231D01*
X145633761Y-103988051D01*
X145510981Y-103952000D01*
X145383019Y-103952000D01*
X145260238Y-103988051D01*
X145152591Y-104057231D01*
X145068791Y-104153942D01*
X145015635Y-104270337D01*
X144997424Y-104397000D01*
X143896576Y-104397000D01*
X143878365Y-104270340D01*
X143878364Y-104270337D01*
X143825208Y-104153942D01*
X143741408Y-104057231D01*
X143633761Y-103988051D01*
X143510981Y-103952000D01*
X143383019Y-103952000D01*
X143260238Y-103988051D01*
X143152591Y-104057231D01*
X143068791Y-104153942D01*
X143015635Y-104270337D01*
X142997424Y-104397000D01*
X141896576Y-104397000D01*
X141878365Y-104270340D01*
X141878364Y-104270337D01*
X141825208Y-104153942D01*
X141741408Y-104057231D01*
X141633761Y-103988051D01*
X141510981Y-103952000D01*
X141383019Y-103952000D01*
X141260238Y-103988051D01*
X141152591Y-104057231D01*
X141068791Y-104153942D01*
X141015635Y-104270337D01*
X140997424Y-104397000D01*
X124899106Y-104397000D01*
X124931663Y-96713475D01*
X126616900Y-96713475D01*
X126656030Y-96998165D01*
X126733554Y-97274855D01*
X126848038Y-97538425D01*
X126997344Y-97783948D01*
X127178690Y-98006851D01*
X127388703Y-98202991D01*
X127623461Y-98368699D01*
X127623464Y-98368701D01*
X127878603Y-98500904D01*
X128149368Y-98597134D01*
X128430714Y-98655598D01*
X128645648Y-98670300D01*
X128789147Y-98670300D01*
X128789152Y-98670300D01*
X129004086Y-98655598D01*
X129285432Y-98597134D01*
X129556197Y-98500904D01*
X129811336Y-98368701D01*
X129928717Y-98285844D01*
X130046096Y-98202991D01*
X130069254Y-98181362D01*
X130256108Y-98006853D01*
X130335047Y-97909822D01*
X130437455Y-97783948D01*
X130586761Y-97538425D01*
X130665976Y-97356053D01*
X130701244Y-97274858D01*
X130778771Y-96998158D01*
X130817900Y-96713478D01*
X130817900Y-96426122D01*
X130778771Y-96141442D01*
X130701244Y-95864742D01*
X130586761Y-95601175D01*
X130586761Y-95601174D01*
X130437455Y-95355651D01*
X130256109Y-95132748D01*
X130046096Y-94936608D01*
X129811338Y-94770900D01*
X129794624Y-94762239D01*
X129556197Y-94638696D01*
X129459965Y-94604495D01*
X129285431Y-94542465D01*
X129004089Y-94484002D01*
X128923485Y-94478488D01*
X128789152Y-94469300D01*
X128645648Y-94469300D01*
X128526240Y-94477467D01*
X128430710Y-94484002D01*
X128149368Y-94542465D01*
X127878603Y-94638696D01*
X127623461Y-94770900D01*
X127388703Y-94936608D01*
X127178690Y-95132748D01*
X126997344Y-95355651D01*
X126848038Y-95601174D01*
X126733554Y-95864744D01*
X126656030Y-96141434D01*
X126616900Y-96426125D01*
X126616900Y-96713475D01*
X124931663Y-96713475D01*
X124967684Y-88212485D01*
X124977798Y-88175136D01*
X125005147Y-88147760D01*
X125042483Y-88137607D01*
X139460742Y-88061722D01*
X139498504Y-88071663D01*
G37*
G04 #@! TD.AperFunction*
G04 #@! TA.AperFunction,Conductor*
G36*
X54155800Y-64780075D02*
G01*
X54183325Y-64807600D01*
X54193400Y-64845200D01*
X54193400Y-67665600D01*
X62041399Y-67665600D01*
X62041399Y-64845200D01*
X62051474Y-64807600D01*
X62078999Y-64780075D01*
X62116599Y-64770000D01*
X62662800Y-64770000D01*
X62700400Y-64780075D01*
X62727925Y-64807600D01*
X62738000Y-64845200D01*
X62738000Y-133007044D01*
X62727925Y-133044644D01*
X62700400Y-133072169D01*
X62662800Y-133082244D01*
X62142000Y-133082244D01*
X62104400Y-133072169D01*
X62076875Y-133044644D01*
X62066800Y-133007044D01*
X62066800Y-130098800D01*
X54218801Y-130098800D01*
X54218801Y-133007044D01*
X54208726Y-133044644D01*
X54181201Y-133072169D01*
X54143601Y-133082244D01*
X53351000Y-133082244D01*
X53313400Y-133072169D01*
X53285875Y-133044644D01*
X53275800Y-133007044D01*
X53275800Y-129590800D01*
X54218800Y-129590800D01*
X57888800Y-129590800D01*
X57888800Y-126415801D01*
X54447783Y-126415801D01*
X54373695Y-126430536D01*
X54289676Y-126486676D01*
X54233536Y-126570695D01*
X54218800Y-126644783D01*
X54218800Y-129590800D01*
X53275800Y-129590800D01*
X53275800Y-126415800D01*
X58396800Y-126415800D01*
X58396800Y-129590800D01*
X62066799Y-129590800D01*
X62066799Y-126644783D01*
X62052063Y-126570695D01*
X61995923Y-126486676D01*
X61911904Y-126430536D01*
X61837817Y-126415800D01*
X58396800Y-126415800D01*
X53275800Y-126415800D01*
X53275800Y-109448600D01*
X54218801Y-109448600D01*
X54218801Y-112394617D01*
X54233536Y-112468704D01*
X54289676Y-112552723D01*
X54373695Y-112608863D01*
X54447783Y-112623600D01*
X57888800Y-112623600D01*
X57888800Y-109448600D01*
X58396800Y-109448600D01*
X58396800Y-112623599D01*
X61837817Y-112623599D01*
X61911904Y-112608863D01*
X61995923Y-112552723D01*
X62052063Y-112468704D01*
X62066800Y-112394617D01*
X62066800Y-109448600D01*
X58396800Y-109448600D01*
X57888800Y-109448600D01*
X54218801Y-109448600D01*
X53275800Y-109448600D01*
X53275800Y-108940600D01*
X54218800Y-108940600D01*
X57888800Y-108940600D01*
X57888800Y-105765601D01*
X54447783Y-105765601D01*
X54373695Y-105780336D01*
X54289676Y-105836476D01*
X54233536Y-105920495D01*
X54218800Y-105994583D01*
X54218800Y-108940600D01*
X53275800Y-108940600D01*
X53275800Y-105765600D01*
X58396800Y-105765600D01*
X58396800Y-108940600D01*
X62066799Y-108940600D01*
X62066799Y-105994583D01*
X62052063Y-105920495D01*
X61995923Y-105836476D01*
X61911904Y-105780336D01*
X61837817Y-105765600D01*
X58396800Y-105765600D01*
X53275800Y-105765600D01*
X53275800Y-104650700D01*
X53285875Y-104613100D01*
X53313400Y-104585575D01*
X53351000Y-104575500D01*
X60959621Y-104575500D01*
X60972608Y-104578980D01*
X60972989Y-104576821D01*
X60986045Y-104579122D01*
X60986048Y-104579124D01*
X61000124Y-104576642D01*
X61013182Y-104575500D01*
X61013309Y-104575500D01*
X61013312Y-104575500D01*
X61013436Y-104575454D01*
X61026093Y-104572063D01*
X61040172Y-104569581D01*
X61040172Y-104569580D01*
X61046263Y-104566064D01*
X61051641Y-104561551D01*
X61051642Y-104561549D01*
X61051645Y-104561548D01*
X61058797Y-104549158D01*
X61066305Y-104538436D01*
X61075500Y-104527480D01*
X61075500Y-104527479D01*
X61077902Y-104520880D01*
X61079122Y-104513954D01*
X61079124Y-104513952D01*
X61076642Y-104499875D01*
X61075500Y-104486818D01*
X61075500Y-93040379D01*
X61078980Y-93027391D01*
X61076821Y-93027011D01*
X61079122Y-93013954D01*
X61079124Y-93013952D01*
X61076642Y-92999875D01*
X61075500Y-92986818D01*
X61075500Y-92986688D01*
X61075457Y-92986570D01*
X61072063Y-92973908D01*
X61069581Y-92959828D01*
X61069580Y-92959827D01*
X61066066Y-92953740D01*
X61061545Y-92948352D01*
X61049167Y-92941205D01*
X61038435Y-92933690D01*
X61027483Y-92924501D01*
X61020880Y-92922098D01*
X61013952Y-92920876D01*
X61013951Y-92920876D01*
X60999875Y-92923358D01*
X60986818Y-92924500D01*
X53351000Y-92924500D01*
X53313400Y-92914425D01*
X53285875Y-92886900D01*
X53275800Y-92849300D01*
X53275800Y-88823800D01*
X54193401Y-88823800D01*
X54193401Y-91769817D01*
X54208136Y-91843904D01*
X54264276Y-91927923D01*
X54348295Y-91984063D01*
X54422383Y-91998800D01*
X57863400Y-91998800D01*
X57863400Y-88823800D01*
X58371400Y-88823800D01*
X58371400Y-91998799D01*
X61812417Y-91998799D01*
X61886504Y-91984063D01*
X61970523Y-91927923D01*
X62026663Y-91843904D01*
X62041400Y-91769817D01*
X62041400Y-88823800D01*
X58371400Y-88823800D01*
X57863400Y-88823800D01*
X54193401Y-88823800D01*
X53275800Y-88823800D01*
X53275800Y-88315800D01*
X54193400Y-88315800D01*
X57863400Y-88315800D01*
X57863400Y-85140801D01*
X54422383Y-85140801D01*
X54348295Y-85155536D01*
X54264276Y-85211676D01*
X54208136Y-85295695D01*
X54193400Y-85369783D01*
X54193400Y-88315800D01*
X53275800Y-88315800D01*
X53275800Y-85140800D01*
X58371400Y-85140800D01*
X58371400Y-88315800D01*
X62041399Y-88315800D01*
X62041399Y-85369783D01*
X62026663Y-85295695D01*
X61970523Y-85211676D01*
X61886504Y-85155536D01*
X61812417Y-85140800D01*
X58371400Y-85140800D01*
X53275800Y-85140800D01*
X53275800Y-79153325D01*
X57476882Y-79153325D01*
X57476883Y-79153326D01*
X57536605Y-79195144D01*
X57735464Y-79287874D01*
X57947414Y-79344665D01*
X58166000Y-79363789D01*
X58384585Y-79344665D01*
X58596535Y-79287874D01*
X58795391Y-79195146D01*
X58855116Y-79153325D01*
X58166001Y-78464210D01*
X58165999Y-78464210D01*
X57476882Y-79153325D01*
X53275800Y-79153325D01*
X53275800Y-78105000D01*
X56907210Y-78105000D01*
X56926334Y-78323585D01*
X56983125Y-78535535D01*
X57075855Y-78734394D01*
X57117672Y-78794115D01*
X57117673Y-78794116D01*
X57806790Y-78105001D01*
X58525210Y-78105001D01*
X59214325Y-78794116D01*
X59256146Y-78734391D01*
X59348874Y-78535535D01*
X59405665Y-78323585D01*
X59424789Y-78105000D01*
X59405665Y-77886414D01*
X59348874Y-77674464D01*
X59256144Y-77475605D01*
X59214326Y-77415883D01*
X59214325Y-77415882D01*
X58525210Y-78104999D01*
X58525210Y-78105001D01*
X57806790Y-78105001D01*
X57806790Y-78104999D01*
X57117674Y-77415883D01*
X57117672Y-77415883D01*
X57075854Y-77475607D01*
X56983125Y-77674464D01*
X56926334Y-77886414D01*
X56907210Y-78105000D01*
X53275800Y-78105000D01*
X53275800Y-77056674D01*
X57476883Y-77056674D01*
X58165999Y-77745790D01*
X58166001Y-77745790D01*
X58855116Y-77056673D01*
X58855115Y-77056672D01*
X58795394Y-77014855D01*
X58596535Y-76922125D01*
X58384585Y-76865334D01*
X58166000Y-76846210D01*
X57947414Y-76865334D01*
X57735464Y-76922125D01*
X57536607Y-77014854D01*
X57476883Y-77056672D01*
X57476883Y-77056674D01*
X53275800Y-77056674D01*
X53275800Y-68173600D01*
X54193401Y-68173600D01*
X54193401Y-71119617D01*
X54208136Y-71193704D01*
X54264276Y-71277723D01*
X54348295Y-71333863D01*
X54422383Y-71348600D01*
X57863400Y-71348600D01*
X57863400Y-68173600D01*
X58371400Y-68173600D01*
X58371400Y-71348599D01*
X61812417Y-71348599D01*
X61886504Y-71333863D01*
X61970523Y-71277723D01*
X62026663Y-71193704D01*
X62041400Y-71119617D01*
X62041400Y-68173600D01*
X58371400Y-68173600D01*
X57863400Y-68173600D01*
X54193401Y-68173600D01*
X53275800Y-68173600D01*
X53275800Y-64845200D01*
X53285875Y-64807600D01*
X53313400Y-64780075D01*
X53351000Y-64770000D01*
X54118200Y-64770000D01*
X54155800Y-64780075D01*
G37*
G04 #@! TD.AperFunction*
M02*
