%TF.GenerationSoftware,KiCad,Pcbnew,(6.0.5-0)*%
%TF.CreationDate,2022-12-24T17:15:18-05:00*%
%TF.ProjectId,batteryboard,62617474-6572-4796-926f-6172642e6b69,rev?*%
%TF.SameCoordinates,Original*%
%TF.FileFunction,Paste,Bot*%
%TF.FilePolarity,Positive*%
%FSLAX46Y46*%
G04 Gerber Fmt 4.6, Leading zero omitted, Abs format (unit mm)*
G04 Created by KiCad (PCBNEW (6.0.5-0)) date 2022-12-24 17:15:18*
%MOMM*%
%LPD*%
G01*
G04 APERTURE LIST*
%TA.AperFunction,Profile*%
%ADD10C,0.150000*%
%TD*%
%ADD11R,7.340000X6.350000*%
%ADD12R,7.340000X4.500000*%
G04 APERTURE END LIST*
D10*
X53200300Y-141979900D02*
G75*
G03*
X55200300Y-143979900I2000000J0D01*
G01*
X147085300Y-143979900D02*
G75*
G03*
X149085300Y-141979900I0J2000000D01*
G01*
X149085300Y-55809900D02*
G75*
G03*
X147085300Y-53809900I-2000000J0D01*
G01*
X55200300Y-53809900D02*
G75*
G03*
X53200300Y-55809900I0J-2000000D01*
G01*
X55200300Y-143979900D02*
X64039500Y-143979900D01*
X137210800Y-141000000D02*
X65074800Y-141000000D01*
X64039500Y-143979900D02*
X65074800Y-141000000D01*
X147085300Y-143979900D02*
X138246100Y-143979900D01*
X65074800Y-57000000D02*
X64096900Y-53809900D01*
X137210800Y-57000000D02*
X65074800Y-57000000D01*
X137210800Y-57000000D02*
X138188700Y-53809900D01*
X147085300Y-53809900D02*
X138188700Y-53809900D01*
X64096900Y-53809900D02*
X55200300Y-53809900D01*
X61000000Y-104500000D02*
X53200300Y-104500000D01*
X141000000Y-95500000D02*
X141000000Y-103500000D01*
X138246100Y-143979900D02*
X137210800Y-141000000D01*
X149085300Y-95500000D02*
X141000000Y-95500000D01*
X149085300Y-141979900D02*
X149085300Y-103500000D01*
X53200300Y-141979900D02*
X53200300Y-104500000D01*
X53200300Y-93000000D02*
X61000000Y-93000000D01*
X53200300Y-55809900D02*
X53200300Y-93000000D01*
X149085300Y-55809900D02*
X149085300Y-95500000D01*
X141000000Y-103500000D02*
X149085300Y-103500000D01*
X61000000Y-93000000D02*
X61000000Y-104500000D01*
D11*
X58117400Y-88569800D03*
X144117400Y-88569800D03*
X144142800Y-129844800D03*
X58142800Y-129844800D03*
X144142800Y-109194600D03*
X58142800Y-109194600D03*
X58117400Y-67919600D03*
D12*
X144117400Y-68844600D03*
M02*
