G04 #@! TF.GenerationSoftware,KiCad,Pcbnew,7.0.1-0*
G04 #@! TF.CreationDate,2023-03-19T01:41:05-04:00*
G04 #@! TF.ProjectId,batteryboard,62617474-6572-4796-926f-6172642e6b69,rev?*
G04 #@! TF.SameCoordinates,Original*
G04 #@! TF.FileFunction,Legend,Bot*
G04 #@! TF.FilePolarity,Positive*
%FSLAX46Y46*%
G04 Gerber Fmt 4.6, Leading zero omitted, Abs format (unit mm)*
G04 Created by KiCad (PCBNEW 7.0.1-0) date 2023-03-19 01:41:05*
%MOMM*%
%LPD*%
G01*
G04 APERTURE LIST*
G04 Aperture macros list*
%AMRoundRect*
0 Rectangle with rounded corners*
0 $1 Rounding radius*
0 $2 $3 $4 $5 $6 $7 $8 $9 X,Y pos of 4 corners*
0 Add a 4 corners polygon primitive as box body*
4,1,4,$2,$3,$4,$5,$6,$7,$8,$9,$2,$3,0*
0 Add four circle primitives for the rounded corners*
1,1,$1+$1,$2,$3*
1,1,$1+$1,$4,$5*
1,1,$1+$1,$6,$7*
1,1,$1+$1,$8,$9*
0 Add four rect primitives between the rounded corners*
20,1,$1+$1,$2,$3,$4,$5,0*
20,1,$1+$1,$4,$5,$6,$7,0*
20,1,$1+$1,$6,$7,$8,$9,0*
20,1,$1+$1,$8,$9,$2,$3,0*%
G04 Aperture macros list end*
%ADD10C,0.500000*%
%ADD11C,0.381000*%
%ADD12C,0.254000*%
%ADD13C,0.100000*%
%ADD14C,2.101600*%
%ADD15RoundRect,0.063500X1.016000X1.016000X-1.016000X1.016000X-1.016000X-1.016000X1.016000X-1.016000X0*%
%ADD16C,2.159000*%
%ADD17RoundRect,0.063500X-1.016000X-1.016000X1.016000X-1.016000X1.016000X1.016000X-1.016000X1.016000X0*%
%ADD18RoundRect,0.050800X-0.425000X-0.425000X0.425000X-0.425000X0.425000X0.425000X-0.425000X0.425000X0*%
%ADD19C,1.501600*%
%ADD20O,1.501600X1.501600*%
%ADD21C,4.601600*%
%ADD22C,3.901600*%
%ADD23C,1.671600*%
%ADD24RoundRect,0.050800X-3.670000X3.175000X-3.670000X-3.175000X3.670000X-3.175000X3.670000X3.175000X0*%
%ADD25RoundRect,0.050800X3.670000X-3.175000X3.670000X3.175000X-3.670000X3.175000X-3.670000X-3.175000X0*%
%ADD26RoundRect,0.050800X-3.670000X2.250000X-3.670000X-2.250000X3.670000X-2.250000X3.670000X2.250000X0*%
G04 APERTURE END LIST*
D10*
X148336000Y-64770000D02*
X147574000Y-65532000D01*
X146812000Y-64770000D02*
X147574000Y-65532000D01*
X147574000Y-136906000D02*
X147574000Y-134112000D01*
X146812000Y-134874000D02*
X147574000Y-134112000D01*
X148336000Y-134874000D02*
X147574000Y-134112000D01*
X147574000Y-62738000D02*
X147574000Y-65532000D01*
D11*
X59118499Y-113883432D02*
X58846356Y-113974146D01*
X58846356Y-113974146D02*
X58755642Y-114064860D01*
X58755642Y-114064860D02*
X58664928Y-114246289D01*
X58664928Y-114246289D02*
X58664928Y-114518432D01*
X58664928Y-114518432D02*
X58755642Y-114699860D01*
X58755642Y-114699860D02*
X58846356Y-114790575D01*
X58846356Y-114790575D02*
X59027785Y-114881289D01*
X59027785Y-114881289D02*
X59753499Y-114881289D01*
X59753499Y-114881289D02*
X59753499Y-112976289D01*
X59753499Y-112976289D02*
X59118499Y-112976289D01*
X59118499Y-112976289D02*
X58937071Y-113067003D01*
X58937071Y-113067003D02*
X58846356Y-113157717D01*
X58846356Y-113157717D02*
X58755642Y-113339146D01*
X58755642Y-113339146D02*
X58755642Y-113520575D01*
X58755642Y-113520575D02*
X58846356Y-113702003D01*
X58846356Y-113702003D02*
X58937071Y-113792717D01*
X58937071Y-113792717D02*
X59118499Y-113883432D01*
X59118499Y-113883432D02*
X59753499Y-113883432D01*
X57848499Y-114881289D02*
X57848499Y-112976289D01*
X57848499Y-112976289D02*
X57213499Y-114337003D01*
X57213499Y-114337003D02*
X56578499Y-112976289D01*
X56578499Y-112976289D02*
X56578499Y-114881289D01*
X59118499Y-83068432D02*
X58846356Y-83159146D01*
X58846356Y-83159146D02*
X58755642Y-83249860D01*
X58755642Y-83249860D02*
X58664928Y-83431289D01*
X58664928Y-83431289D02*
X58664928Y-83703432D01*
X58664928Y-83703432D02*
X58755642Y-83884860D01*
X58755642Y-83884860D02*
X58846356Y-83975575D01*
X58846356Y-83975575D02*
X59027785Y-84066289D01*
X59027785Y-84066289D02*
X59753499Y-84066289D01*
X59753499Y-84066289D02*
X59753499Y-82161289D01*
X59753499Y-82161289D02*
X59118499Y-82161289D01*
X59118499Y-82161289D02*
X58937071Y-82252003D01*
X58937071Y-82252003D02*
X58846356Y-82342717D01*
X58846356Y-82342717D02*
X58755642Y-82524146D01*
X58755642Y-82524146D02*
X58755642Y-82705575D01*
X58755642Y-82705575D02*
X58846356Y-82887003D01*
X58846356Y-82887003D02*
X58937071Y-82977717D01*
X58937071Y-82977717D02*
X59118499Y-83068432D01*
X59118499Y-83068432D02*
X59753499Y-83068432D01*
X57848499Y-84066289D02*
X57848499Y-82161289D01*
X57848499Y-82161289D02*
X57213499Y-83522003D01*
X57213499Y-83522003D02*
X56578499Y-82161289D01*
X56578499Y-82161289D02*
X56578499Y-84066289D01*
X59118499Y-73162432D02*
X58846356Y-73253146D01*
X58846356Y-73253146D02*
X58755642Y-73343860D01*
X58755642Y-73343860D02*
X58664928Y-73525289D01*
X58664928Y-73525289D02*
X58664928Y-73797432D01*
X58664928Y-73797432D02*
X58755642Y-73978860D01*
X58755642Y-73978860D02*
X58846356Y-74069575D01*
X58846356Y-74069575D02*
X59027785Y-74160289D01*
X59027785Y-74160289D02*
X59753499Y-74160289D01*
X59753499Y-74160289D02*
X59753499Y-72255289D01*
X59753499Y-72255289D02*
X59118499Y-72255289D01*
X59118499Y-72255289D02*
X58937071Y-72346003D01*
X58937071Y-72346003D02*
X58846356Y-72436717D01*
X58846356Y-72436717D02*
X58755642Y-72618146D01*
X58755642Y-72618146D02*
X58755642Y-72799575D01*
X58755642Y-72799575D02*
X58846356Y-72981003D01*
X58846356Y-72981003D02*
X58937071Y-73071717D01*
X58937071Y-73071717D02*
X59118499Y-73162432D01*
X59118499Y-73162432D02*
X59753499Y-73162432D01*
X57848499Y-74160289D02*
X57848499Y-72255289D01*
X57848499Y-72255289D02*
X57213499Y-73616003D01*
X57213499Y-73616003D02*
X56578499Y-72255289D01*
X56578499Y-72255289D02*
X56578499Y-74160289D01*
X59118499Y-124724432D02*
X58846356Y-124815146D01*
X58846356Y-124815146D02*
X58755642Y-124905860D01*
X58755642Y-124905860D02*
X58664928Y-125087289D01*
X58664928Y-125087289D02*
X58664928Y-125359432D01*
X58664928Y-125359432D02*
X58755642Y-125540860D01*
X58755642Y-125540860D02*
X58846356Y-125631575D01*
X58846356Y-125631575D02*
X59027785Y-125722289D01*
X59027785Y-125722289D02*
X59753499Y-125722289D01*
X59753499Y-125722289D02*
X59753499Y-123817289D01*
X59753499Y-123817289D02*
X59118499Y-123817289D01*
X59118499Y-123817289D02*
X58937071Y-123908003D01*
X58937071Y-123908003D02*
X58846356Y-123998717D01*
X58846356Y-123998717D02*
X58755642Y-124180146D01*
X58755642Y-124180146D02*
X58755642Y-124361575D01*
X58755642Y-124361575D02*
X58846356Y-124543003D01*
X58846356Y-124543003D02*
X58937071Y-124633717D01*
X58937071Y-124633717D02*
X59118499Y-124724432D01*
X59118499Y-124724432D02*
X59753499Y-124724432D01*
X57848499Y-125722289D02*
X57848499Y-123817289D01*
X57848499Y-123817289D02*
X57213499Y-125178003D01*
X57213499Y-125178003D02*
X56578499Y-123817289D01*
X56578499Y-123817289D02*
X56578499Y-125722289D01*
X145315213Y-124343432D02*
X145043070Y-124434146D01*
X145043070Y-124434146D02*
X144952356Y-124524860D01*
X144952356Y-124524860D02*
X144861642Y-124706289D01*
X144861642Y-124706289D02*
X144861642Y-124978432D01*
X144861642Y-124978432D02*
X144952356Y-125159860D01*
X144952356Y-125159860D02*
X145043070Y-125250575D01*
X145043070Y-125250575D02*
X145224499Y-125341289D01*
X145224499Y-125341289D02*
X145950213Y-125341289D01*
X145950213Y-125341289D02*
X145950213Y-123436289D01*
X145950213Y-123436289D02*
X145315213Y-123436289D01*
X145315213Y-123436289D02*
X145133785Y-123527003D01*
X145133785Y-123527003D02*
X145043070Y-123617717D01*
X145043070Y-123617717D02*
X144952356Y-123799146D01*
X144952356Y-123799146D02*
X144952356Y-123980575D01*
X144952356Y-123980575D02*
X145043070Y-124162003D01*
X145043070Y-124162003D02*
X145133785Y-124252717D01*
X145133785Y-124252717D02*
X145315213Y-124343432D01*
X145315213Y-124343432D02*
X145950213Y-124343432D01*
X144045213Y-124615575D02*
X142593785Y-124615575D01*
X145043213Y-114883432D02*
X144771070Y-114974146D01*
X144771070Y-114974146D02*
X144680356Y-115064860D01*
X144680356Y-115064860D02*
X144589642Y-115246289D01*
X144589642Y-115246289D02*
X144589642Y-115518432D01*
X144589642Y-115518432D02*
X144680356Y-115699860D01*
X144680356Y-115699860D02*
X144771070Y-115790575D01*
X144771070Y-115790575D02*
X144952499Y-115881289D01*
X144952499Y-115881289D02*
X145678213Y-115881289D01*
X145678213Y-115881289D02*
X145678213Y-113976289D01*
X145678213Y-113976289D02*
X145043213Y-113976289D01*
X145043213Y-113976289D02*
X144861785Y-114067003D01*
X144861785Y-114067003D02*
X144771070Y-114157717D01*
X144771070Y-114157717D02*
X144680356Y-114339146D01*
X144680356Y-114339146D02*
X144680356Y-114520575D01*
X144680356Y-114520575D02*
X144771070Y-114702003D01*
X144771070Y-114702003D02*
X144861785Y-114792717D01*
X144861785Y-114792717D02*
X145043213Y-114883432D01*
X145043213Y-114883432D02*
X145678213Y-114883432D01*
X143773213Y-115155575D02*
X142321785Y-115155575D01*
X145950213Y-84574289D02*
X145950213Y-82669289D01*
X145950213Y-82669289D02*
X145224499Y-82669289D01*
X145224499Y-82669289D02*
X145043070Y-82760003D01*
X145043070Y-82760003D02*
X144952356Y-82850717D01*
X144952356Y-82850717D02*
X144861642Y-83032146D01*
X144861642Y-83032146D02*
X144861642Y-83304289D01*
X144861642Y-83304289D02*
X144952356Y-83485717D01*
X144952356Y-83485717D02*
X145043070Y-83576432D01*
X145043070Y-83576432D02*
X145224499Y-83667146D01*
X145224499Y-83667146D02*
X145950213Y-83667146D01*
X144045213Y-83848575D02*
X142593785Y-83848575D01*
X143319499Y-84574289D02*
X143319499Y-83122860D01*
X147728213Y-79748289D02*
X147728213Y-77843289D01*
X147728213Y-77843289D02*
X147002499Y-77843289D01*
X147002499Y-77843289D02*
X146821070Y-77934003D01*
X146821070Y-77934003D02*
X146730356Y-78024717D01*
X146730356Y-78024717D02*
X146639642Y-78206146D01*
X146639642Y-78206146D02*
X146639642Y-78478289D01*
X146639642Y-78478289D02*
X146730356Y-78659717D01*
X146730356Y-78659717D02*
X146821070Y-78750432D01*
X146821070Y-78750432D02*
X147002499Y-78841146D01*
X147002499Y-78841146D02*
X147728213Y-78841146D01*
X145823213Y-79022575D02*
X144371785Y-79022575D01*
X145097499Y-79748289D02*
X145097499Y-78296860D01*
X143283213Y-79748289D02*
X143283213Y-77843289D01*
X143283213Y-77843289D02*
X142557499Y-77843289D01*
X142557499Y-77843289D02*
X142376070Y-77934003D01*
X142376070Y-77934003D02*
X142285356Y-78024717D01*
X142285356Y-78024717D02*
X142194642Y-78206146D01*
X142194642Y-78206146D02*
X142194642Y-78478289D01*
X142194642Y-78478289D02*
X142285356Y-78659717D01*
X142285356Y-78659717D02*
X142376070Y-78750432D01*
X142376070Y-78750432D02*
X142557499Y-78841146D01*
X142557499Y-78841146D02*
X143283213Y-78841146D01*
X141378213Y-79022575D02*
X139926785Y-79022575D01*
X145442213Y-73779289D02*
X145442213Y-71874289D01*
X145442213Y-71874289D02*
X144716499Y-71874289D01*
X144716499Y-71874289D02*
X144535070Y-71965003D01*
X144535070Y-71965003D02*
X144444356Y-72055717D01*
X144444356Y-72055717D02*
X144353642Y-72237146D01*
X144353642Y-72237146D02*
X144353642Y-72509289D01*
X144353642Y-72509289D02*
X144444356Y-72690717D01*
X144444356Y-72690717D02*
X144535070Y-72781432D01*
X144535070Y-72781432D02*
X144716499Y-72872146D01*
X144716499Y-72872146D02*
X145442213Y-72872146D01*
X143537213Y-73053575D02*
X142085785Y-73053575D01*
X142811499Y-73779289D02*
X142811499Y-72327860D01*
D12*
X101540732Y-87887326D02*
X101540732Y-88794469D01*
X101540732Y-88794469D02*
X101601209Y-88975897D01*
X101601209Y-88975897D02*
X101722161Y-89096850D01*
X101722161Y-89096850D02*
X101903590Y-89157326D01*
X101903590Y-89157326D02*
X102024542Y-89157326D01*
X100996447Y-88008278D02*
X100935971Y-87947802D01*
X100935971Y-87947802D02*
X100815018Y-87887326D01*
X100815018Y-87887326D02*
X100512637Y-87887326D01*
X100512637Y-87887326D02*
X100391685Y-87947802D01*
X100391685Y-87947802D02*
X100331209Y-88008278D01*
X100331209Y-88008278D02*
X100270732Y-88129230D01*
X100270732Y-88129230D02*
X100270732Y-88250183D01*
X100270732Y-88250183D02*
X100331209Y-88431611D01*
X100331209Y-88431611D02*
X101056923Y-89157326D01*
X101056923Y-89157326D02*
X100270732Y-89157326D01*
D10*
X127547161Y-88978133D02*
X123737638Y-88978133D01*
X125642399Y-90882895D02*
X125642399Y-87073371D01*
X78497161Y-88978133D02*
X74687638Y-88978133D01*
D12*
X101566132Y-129162326D02*
X101566132Y-130069469D01*
X101566132Y-130069469D02*
X101626609Y-130250897D01*
X101626609Y-130250897D02*
X101747561Y-130371850D01*
X101747561Y-130371850D02*
X101928990Y-130432326D01*
X101928990Y-130432326D02*
X102049942Y-130432326D01*
X100296132Y-130432326D02*
X101021847Y-130432326D01*
X100658990Y-130432326D02*
X100658990Y-129162326D01*
X100658990Y-129162326D02*
X100779942Y-129343754D01*
X100779942Y-129343754D02*
X100900894Y-129464707D01*
X100900894Y-129464707D02*
X101021847Y-129525183D01*
D10*
X78522561Y-130253133D02*
X74713038Y-130253133D01*
X76617799Y-132157895D02*
X76617799Y-128348371D01*
X127572561Y-130253133D02*
X123763038Y-130253133D01*
D12*
X101566132Y-108512126D02*
X101566132Y-109419269D01*
X101566132Y-109419269D02*
X101626609Y-109600697D01*
X101626609Y-109600697D02*
X101747561Y-109721650D01*
X101747561Y-109721650D02*
X101928990Y-109782126D01*
X101928990Y-109782126D02*
X102049942Y-109782126D01*
X101082323Y-108512126D02*
X100296132Y-108512126D01*
X100296132Y-108512126D02*
X100719466Y-108995935D01*
X100719466Y-108995935D02*
X100538037Y-108995935D01*
X100538037Y-108995935D02*
X100417085Y-109056411D01*
X100417085Y-109056411D02*
X100356609Y-109116888D01*
X100356609Y-109116888D02*
X100296132Y-109237840D01*
X100296132Y-109237840D02*
X100296132Y-109540221D01*
X100296132Y-109540221D02*
X100356609Y-109661173D01*
X100356609Y-109661173D02*
X100417085Y-109721650D01*
X100417085Y-109721650D02*
X100538037Y-109782126D01*
X100538037Y-109782126D02*
X100900894Y-109782126D01*
X100900894Y-109782126D02*
X101021847Y-109721650D01*
X101021847Y-109721650D02*
X101082323Y-109661173D01*
D10*
X78522561Y-109602933D02*
X74713038Y-109602933D01*
X76617799Y-111507695D02*
X76617799Y-107698171D01*
X127572561Y-109602933D02*
X123763038Y-109602933D01*
X78497161Y-68327933D02*
X74687638Y-68327933D01*
D12*
X101540732Y-67237126D02*
X101540732Y-68144269D01*
X101540732Y-68144269D02*
X101601209Y-68325697D01*
X101601209Y-68325697D02*
X101722161Y-68446650D01*
X101722161Y-68446650D02*
X101903590Y-68507126D01*
X101903590Y-68507126D02*
X102024542Y-68507126D01*
X100391685Y-67660459D02*
X100391685Y-68507126D01*
X100694066Y-67176650D02*
X100996447Y-68083792D01*
X100996447Y-68083792D02*
X100210256Y-68083792D01*
D10*
X127547161Y-68327933D02*
X123737638Y-68327933D01*
X125642399Y-70232695D02*
X125642399Y-66423171D01*
D13*
X62592400Y-78244800D02*
X62592400Y-98894800D01*
X62592400Y-98894800D02*
X140233400Y-98894800D01*
X139642400Y-98894800D02*
X139642400Y-78244800D01*
X139852400Y-78244800D02*
X62592400Y-78244800D01*
D10*
X139852400Y-78409800D02*
X140233400Y-78409800D01*
X139852400Y-98729800D02*
X139852400Y-78409800D01*
X139852400Y-98729800D02*
X140233400Y-98729800D01*
X139979400Y-98729800D02*
X139979400Y-78409800D01*
X140106400Y-98729800D02*
X140106400Y-78409800D01*
X140233400Y-98729800D02*
X140233400Y-78409800D01*
D13*
X139667800Y-140169800D02*
X139667800Y-119519800D01*
X139667800Y-119519800D02*
X62026800Y-119519800D01*
X62617800Y-119519800D02*
X62617800Y-140169800D01*
X62407800Y-140169800D02*
X139667800Y-140169800D01*
D10*
X62407800Y-140004800D02*
X62026800Y-140004800D01*
X62407800Y-119684800D02*
X62407800Y-140004800D01*
X62407800Y-119684800D02*
X62026800Y-119684800D01*
X62280800Y-119684800D02*
X62280800Y-140004800D01*
X62153800Y-119684800D02*
X62153800Y-140004800D01*
X62026800Y-119684800D02*
X62026800Y-140004800D01*
D13*
X139667800Y-119519600D02*
X139667800Y-98869600D01*
X139667800Y-98869600D02*
X62026800Y-98869600D01*
X62617800Y-98869600D02*
X62617800Y-119519600D01*
X62407800Y-119519600D02*
X139667800Y-119519600D01*
D10*
X62407800Y-119354600D02*
X62026800Y-119354600D01*
X62407800Y-99034600D02*
X62407800Y-119354600D01*
X62407800Y-99034600D02*
X62026800Y-99034600D01*
X62280800Y-99034600D02*
X62280800Y-119354600D01*
X62153800Y-99034600D02*
X62153800Y-119354600D01*
X62026800Y-99034600D02*
X62026800Y-119354600D01*
D13*
X62592400Y-57594600D02*
X62592400Y-78244600D01*
X62592400Y-78244600D02*
X140233400Y-78244600D01*
X139642400Y-78244600D02*
X139642400Y-57594600D01*
X139852400Y-57594600D02*
X62592400Y-57594600D01*
D10*
X139852400Y-57759600D02*
X140233400Y-57759600D01*
X139852400Y-78079600D02*
X139852400Y-57759600D01*
X139852400Y-78079600D02*
X140233400Y-78079600D01*
X139979400Y-78079600D02*
X139979400Y-57759600D01*
X140106400Y-78079600D02*
X140106400Y-57759600D01*
X140233400Y-78079600D02*
X140233400Y-57759600D01*
%LPC*%
D14*
X144145000Y-121285000D03*
X58166000Y-78105000D03*
X142062200Y-75565000D03*
X146177000Y-75565000D03*
D15*
X109016800Y-64300000D03*
D16*
X105161200Y-64300000D03*
D17*
X105232200Y-72174000D03*
D16*
X109087800Y-72174000D03*
D15*
X118795800Y-64300000D03*
D16*
X114940200Y-64300000D03*
D17*
X114884200Y-72174000D03*
D16*
X118739800Y-72174000D03*
D18*
X101346000Y-75692000D03*
D19*
X101346000Y-93726000D03*
D20*
X96266000Y-93726000D03*
D21*
X144005300Y-136349900D03*
X58280300Y-58889900D03*
X58280300Y-138889900D03*
X144005300Y-62689900D03*
D22*
X73517400Y-80569800D03*
X128717400Y-96569800D03*
D23*
X137047400Y-80569800D03*
D24*
X58117400Y-88569800D03*
X144117400Y-88569800D03*
D22*
X128742800Y-137844800D03*
X73542800Y-121844800D03*
D23*
X65212800Y-137844800D03*
D25*
X144142800Y-129844800D03*
X58142800Y-129844800D03*
D22*
X128742800Y-117194600D03*
X73542800Y-101194600D03*
D23*
X65212800Y-117194600D03*
D25*
X144142800Y-109194600D03*
X58142800Y-109194600D03*
D22*
X73517400Y-59919600D03*
X128717400Y-75919600D03*
D23*
X137047400Y-59919600D03*
D24*
X58117400Y-67919600D03*
D26*
X144117400Y-68844600D03*
M02*
