%TF.GenerationSoftware,KiCad,Pcbnew,(6.0.5-0)*%
%TF.CreationDate,2022-12-24T17:15:18-05:00*%
%TF.ProjectId,batteryboard,62617474-6572-4796-926f-6172642e6b69,rev?*%
%TF.SameCoordinates,Original*%
%TF.FileFunction,Legend,Bot*%
%TF.FilePolarity,Positive*%
%FSLAX46Y46*%
G04 Gerber Fmt 4.6, Leading zero omitted, Abs format (unit mm)*
G04 Created by KiCad (PCBNEW (6.0.5-0)) date 2022-12-24 17:15:18*
%MOMM*%
%LPD*%
G01*
G04 APERTURE LIST*
G04 Aperture macros list*
%AMRoundRect*
0 Rectangle with rounded corners*
0 $1 Rounding radius*
0 $2 $3 $4 $5 $6 $7 $8 $9 X,Y pos of 4 corners*
0 Add a 4 corners polygon primitive as box body*
4,1,4,$2,$3,$4,$5,$6,$7,$8,$9,$2,$3,0*
0 Add four circle primitives for the rounded corners*
1,1,$1+$1,$2,$3*
1,1,$1+$1,$4,$5*
1,1,$1+$1,$6,$7*
1,1,$1+$1,$8,$9*
0 Add four rect primitives between the rounded corners*
20,1,$1+$1,$2,$3,$4,$5,0*
20,1,$1+$1,$4,$5,$6,$7,0*
20,1,$1+$1,$6,$7,$8,$9,0*
20,1,$1+$1,$8,$9,$2,$3,0*%
G04 Aperture macros list end*
%ADD10C,0.500000*%
%TA.AperFunction,Profile*%
%ADD11C,0.150000*%
%TD*%
%ADD12C,0.381000*%
%ADD13C,0.254000*%
%ADD14C,0.100000*%
%ADD15C,2.101600*%
%ADD16RoundRect,0.063500X1.016000X1.016000X-1.016000X1.016000X-1.016000X-1.016000X1.016000X-1.016000X0*%
%ADD17C,2.159000*%
%ADD18RoundRect,0.063500X-1.016000X-1.016000X1.016000X-1.016000X1.016000X1.016000X-1.016000X1.016000X0*%
%ADD19RoundRect,0.050800X-0.425000X-0.425000X0.425000X-0.425000X0.425000X0.425000X-0.425000X0.425000X0*%
%ADD20C,1.501600*%
%ADD21O,1.501600X1.501600*%
%ADD22C,4.601600*%
%ADD23C,1.671600*%
%ADD24C,3.551600*%
%ADD25RoundRect,0.050800X-3.670000X3.175000X-3.670000X-3.175000X3.670000X-3.175000X3.670000X3.175000X0*%
%ADD26RoundRect,0.050800X3.670000X-3.175000X3.670000X3.175000X-3.670000X3.175000X-3.670000X-3.175000X0*%
%ADD27RoundRect,0.050800X-3.670000X2.250000X-3.670000X-2.250000X3.670000X-2.250000X3.670000X2.250000X0*%
G04 APERTURE END LIST*
D10*
X148336000Y-64770000D02*
X147574000Y-65532000D01*
X146812000Y-64770000D02*
X147574000Y-65532000D01*
X147574000Y-136906000D02*
X147574000Y-134112000D01*
X146812000Y-134874000D02*
X147574000Y-134112000D01*
X148336000Y-134874000D02*
X147574000Y-134112000D01*
X147574000Y-62738000D02*
X147574000Y-65532000D01*
D11*
X53200300Y-141979900D02*
G75*
G03*
X55200300Y-143979900I2000000J0D01*
G01*
X147085300Y-143979900D02*
G75*
G03*
X149085300Y-141979900I0J2000000D01*
G01*
X149085300Y-55809900D02*
G75*
G03*
X147085300Y-53809900I-2000000J0D01*
G01*
X55200300Y-53809900D02*
G75*
G03*
X53200300Y-55809900I0J-2000000D01*
G01*
X55200300Y-143979900D02*
X64039500Y-143979900D01*
X137210800Y-141000000D02*
X65074800Y-141000000D01*
X64039500Y-143979900D02*
X65074800Y-141000000D01*
X147085300Y-143979900D02*
X138246100Y-143979900D01*
X65074800Y-57000000D02*
X64096900Y-53809900D01*
X137210800Y-57000000D02*
X65074800Y-57000000D01*
X137210800Y-57000000D02*
X138188700Y-53809900D01*
X147085300Y-53809900D02*
X138188700Y-53809900D01*
X64096900Y-53809900D02*
X55200300Y-53809900D01*
X61000000Y-104500000D02*
X53200300Y-104500000D01*
X141000000Y-95500000D02*
X141000000Y-103500000D01*
X138246100Y-143979900D02*
X137210800Y-141000000D01*
X149085300Y-95500000D02*
X141000000Y-95500000D01*
X149085300Y-141979900D02*
X149085300Y-103500000D01*
X53200300Y-141979900D02*
X53200300Y-104500000D01*
X53200300Y-93000000D02*
X61000000Y-93000000D01*
X53200300Y-55809900D02*
X53200300Y-93000000D01*
X149085300Y-55809900D02*
X149085300Y-95500000D01*
X141000000Y-103500000D02*
X149085300Y-103500000D01*
X61000000Y-93000000D02*
X61000000Y-104500000D01*
D12*
X59118500Y-113863928D02*
X58846357Y-113954642D01*
X58755642Y-114045357D01*
X58664928Y-114226785D01*
X58664928Y-114498928D01*
X58755642Y-114680357D01*
X58846357Y-114771071D01*
X59027785Y-114861785D01*
X59753500Y-114861785D01*
X59753500Y-112956785D01*
X59118500Y-112956785D01*
X58937071Y-113047500D01*
X58846357Y-113138214D01*
X58755642Y-113319642D01*
X58755642Y-113501071D01*
X58846357Y-113682500D01*
X58937071Y-113773214D01*
X59118500Y-113863928D01*
X59753500Y-113863928D01*
X57848500Y-114861785D02*
X57848500Y-112956785D01*
X57213500Y-114317500D01*
X56578500Y-112956785D01*
X56578500Y-114861785D01*
X59118500Y-83048928D02*
X58846357Y-83139642D01*
X58755642Y-83230357D01*
X58664928Y-83411785D01*
X58664928Y-83683928D01*
X58755642Y-83865357D01*
X58846357Y-83956071D01*
X59027785Y-84046785D01*
X59753500Y-84046785D01*
X59753500Y-82141785D01*
X59118500Y-82141785D01*
X58937071Y-82232500D01*
X58846357Y-82323214D01*
X58755642Y-82504642D01*
X58755642Y-82686071D01*
X58846357Y-82867500D01*
X58937071Y-82958214D01*
X59118500Y-83048928D01*
X59753500Y-83048928D01*
X57848500Y-84046785D02*
X57848500Y-82141785D01*
X57213500Y-83502500D01*
X56578500Y-82141785D01*
X56578500Y-84046785D01*
X59118500Y-73142928D02*
X58846357Y-73233642D01*
X58755642Y-73324357D01*
X58664928Y-73505785D01*
X58664928Y-73777928D01*
X58755642Y-73959357D01*
X58846357Y-74050071D01*
X59027785Y-74140785D01*
X59753500Y-74140785D01*
X59753500Y-72235785D01*
X59118500Y-72235785D01*
X58937071Y-72326500D01*
X58846357Y-72417214D01*
X58755642Y-72598642D01*
X58755642Y-72780071D01*
X58846357Y-72961500D01*
X58937071Y-73052214D01*
X59118500Y-73142928D01*
X59753500Y-73142928D01*
X57848500Y-74140785D02*
X57848500Y-72235785D01*
X57213500Y-73596500D01*
X56578500Y-72235785D01*
X56578500Y-74140785D01*
X59118500Y-124704928D02*
X58846357Y-124795642D01*
X58755642Y-124886357D01*
X58664928Y-125067785D01*
X58664928Y-125339928D01*
X58755642Y-125521357D01*
X58846357Y-125612071D01*
X59027785Y-125702785D01*
X59753500Y-125702785D01*
X59753500Y-123797785D01*
X59118500Y-123797785D01*
X58937071Y-123888500D01*
X58846357Y-123979214D01*
X58755642Y-124160642D01*
X58755642Y-124342071D01*
X58846357Y-124523500D01*
X58937071Y-124614214D01*
X59118500Y-124704928D01*
X59753500Y-124704928D01*
X57848500Y-125702785D02*
X57848500Y-123797785D01*
X57213500Y-125158500D01*
X56578500Y-123797785D01*
X56578500Y-125702785D01*
X145315214Y-124323928D02*
X145043071Y-124414642D01*
X144952357Y-124505357D01*
X144861642Y-124686785D01*
X144861642Y-124958928D01*
X144952357Y-125140357D01*
X145043071Y-125231071D01*
X145224500Y-125321785D01*
X145950214Y-125321785D01*
X145950214Y-123416785D01*
X145315214Y-123416785D01*
X145133785Y-123507500D01*
X145043071Y-123598214D01*
X144952357Y-123779642D01*
X144952357Y-123961071D01*
X145043071Y-124142500D01*
X145133785Y-124233214D01*
X145315214Y-124323928D01*
X145950214Y-124323928D01*
X144045214Y-124596071D02*
X142593785Y-124596071D01*
X145043214Y-114863928D02*
X144771071Y-114954642D01*
X144680357Y-115045357D01*
X144589642Y-115226785D01*
X144589642Y-115498928D01*
X144680357Y-115680357D01*
X144771071Y-115771071D01*
X144952500Y-115861785D01*
X145678214Y-115861785D01*
X145678214Y-113956785D01*
X145043214Y-113956785D01*
X144861785Y-114047500D01*
X144771071Y-114138214D01*
X144680357Y-114319642D01*
X144680357Y-114501071D01*
X144771071Y-114682500D01*
X144861785Y-114773214D01*
X145043214Y-114863928D01*
X145678214Y-114863928D01*
X143773214Y-115136071D02*
X142321785Y-115136071D01*
X145950214Y-84554785D02*
X145950214Y-82649785D01*
X145224500Y-82649785D01*
X145043071Y-82740500D01*
X144952357Y-82831214D01*
X144861642Y-83012642D01*
X144861642Y-83284785D01*
X144952357Y-83466214D01*
X145043071Y-83556928D01*
X145224500Y-83647642D01*
X145950214Y-83647642D01*
X144045214Y-83829071D02*
X142593785Y-83829071D01*
X143319500Y-84554785D02*
X143319500Y-83103357D01*
X147728214Y-79728785D02*
X147728214Y-77823785D01*
X147002500Y-77823785D01*
X146821071Y-77914500D01*
X146730357Y-78005214D01*
X146639642Y-78186642D01*
X146639642Y-78458785D01*
X146730357Y-78640214D01*
X146821071Y-78730928D01*
X147002500Y-78821642D01*
X147728214Y-78821642D01*
X145823214Y-79003071D02*
X144371785Y-79003071D01*
X145097500Y-79728785D02*
X145097500Y-78277357D01*
X143283214Y-79728785D02*
X143283214Y-77823785D01*
X142557500Y-77823785D01*
X142376071Y-77914500D01*
X142285357Y-78005214D01*
X142194642Y-78186642D01*
X142194642Y-78458785D01*
X142285357Y-78640214D01*
X142376071Y-78730928D01*
X142557500Y-78821642D01*
X143283214Y-78821642D01*
X141378214Y-79003071D02*
X139926785Y-79003071D01*
X145442214Y-73759785D02*
X145442214Y-71854785D01*
X144716500Y-71854785D01*
X144535071Y-71945500D01*
X144444357Y-72036214D01*
X144353642Y-72217642D01*
X144353642Y-72489785D01*
X144444357Y-72671214D01*
X144535071Y-72761928D01*
X144716500Y-72852642D01*
X145442214Y-72852642D01*
X143537214Y-73034071D02*
X142085785Y-73034071D01*
X142811500Y-73759785D02*
X142811500Y-72308357D01*
D13*
X101540733Y-87874323D02*
X101540733Y-88781466D01*
X101601209Y-88962895D01*
X101722161Y-89083847D01*
X101903590Y-89144323D01*
X102024542Y-89144323D01*
X100996447Y-87995276D02*
X100935971Y-87934800D01*
X100815019Y-87874323D01*
X100512638Y-87874323D01*
X100391685Y-87934800D01*
X100331209Y-87995276D01*
X100270733Y-88116228D01*
X100270733Y-88237180D01*
X100331209Y-88418609D01*
X101056923Y-89144323D01*
X100270733Y-89144323D01*
D10*
X127547161Y-88926942D02*
X123737638Y-88926942D01*
X125642400Y-90831704D02*
X125642400Y-87022180D01*
X78497161Y-88926942D02*
X74687638Y-88926942D01*
D13*
X101566133Y-129149323D02*
X101566133Y-130056466D01*
X101626609Y-130237895D01*
X101747561Y-130358847D01*
X101928990Y-130419323D01*
X102049942Y-130419323D01*
X100296133Y-130419323D02*
X101021847Y-130419323D01*
X100658990Y-130419323D02*
X100658990Y-129149323D01*
X100779942Y-129330752D01*
X100900895Y-129451704D01*
X101021847Y-129512180D01*
D10*
X78522561Y-130201942D02*
X74713038Y-130201942D01*
X76617800Y-132106704D02*
X76617800Y-128297180D01*
X127572561Y-130201942D02*
X123763038Y-130201942D01*
D13*
X101566133Y-108499123D02*
X101566133Y-109406266D01*
X101626609Y-109587695D01*
X101747561Y-109708647D01*
X101928990Y-109769123D01*
X102049942Y-109769123D01*
X101082323Y-108499123D02*
X100296133Y-108499123D01*
X100719466Y-108982933D01*
X100538038Y-108982933D01*
X100417085Y-109043409D01*
X100356609Y-109103885D01*
X100296133Y-109224838D01*
X100296133Y-109527219D01*
X100356609Y-109648171D01*
X100417085Y-109708647D01*
X100538038Y-109769123D01*
X100900895Y-109769123D01*
X101021847Y-109708647D01*
X101082323Y-109648171D01*
D10*
X78522561Y-109551742D02*
X74713038Y-109551742D01*
X76617800Y-111456504D02*
X76617800Y-107646980D01*
X127572561Y-109551742D02*
X123763038Y-109551742D01*
X78497161Y-68276742D02*
X74687638Y-68276742D01*
D13*
X101540733Y-67224123D02*
X101540733Y-68131266D01*
X101601209Y-68312695D01*
X101722161Y-68433647D01*
X101903590Y-68494123D01*
X102024542Y-68494123D01*
X100391685Y-67647457D02*
X100391685Y-68494123D01*
X100694066Y-67163647D02*
X100996447Y-68070790D01*
X100210257Y-68070790D01*
D10*
X127547161Y-68276742D02*
X123737638Y-68276742D01*
X125642400Y-70181504D02*
X125642400Y-66371980D01*
X139852400Y-98729800D02*
X139852400Y-78409800D01*
X139979400Y-98729800D02*
X139979400Y-78409800D01*
D14*
X139642400Y-98894800D02*
X139642400Y-78244800D01*
X62592400Y-98894800D02*
X140233400Y-98894800D01*
D10*
X139852400Y-78409800D02*
X140233400Y-78409800D01*
D14*
X62592400Y-78244800D02*
X62592400Y-98894800D01*
D10*
X139852400Y-98729800D02*
X140233400Y-98729800D01*
X140106400Y-98729800D02*
X140106400Y-78409800D01*
D14*
X139852400Y-78244800D02*
X62592400Y-78244800D01*
D10*
X140233400Y-98729800D02*
X140233400Y-78409800D01*
X62153800Y-119684800D02*
X62153800Y-140004800D01*
X62407800Y-119684800D02*
X62407800Y-140004800D01*
D14*
X139667800Y-119519800D02*
X62026800Y-119519800D01*
D10*
X62280800Y-119684800D02*
X62280800Y-140004800D01*
X62407800Y-140004800D02*
X62026800Y-140004800D01*
X62407800Y-119684800D02*
X62026800Y-119684800D01*
D14*
X62617800Y-119519800D02*
X62617800Y-140169800D01*
D10*
X62026800Y-119684800D02*
X62026800Y-140004800D01*
D14*
X139667800Y-140169800D02*
X139667800Y-119519800D01*
X62407800Y-140169800D02*
X139667800Y-140169800D01*
D10*
X62280800Y-99034600D02*
X62280800Y-119354600D01*
X62153800Y-99034600D02*
X62153800Y-119354600D01*
D14*
X62617800Y-98869600D02*
X62617800Y-119519600D01*
X139667800Y-98869600D02*
X62026800Y-98869600D01*
X139667800Y-119519600D02*
X139667800Y-98869600D01*
X62407800Y-119519600D02*
X139667800Y-119519600D01*
D10*
X62407800Y-99034600D02*
X62026800Y-99034600D01*
X62407800Y-99034600D02*
X62407800Y-119354600D01*
X62026800Y-99034600D02*
X62026800Y-119354600D01*
X62407800Y-119354600D02*
X62026800Y-119354600D01*
X139852400Y-57759600D02*
X140233400Y-57759600D01*
D14*
X139642400Y-78244600D02*
X139642400Y-57594600D01*
D10*
X140233400Y-78079600D02*
X140233400Y-57759600D01*
X139852400Y-78079600D02*
X140233400Y-78079600D01*
D14*
X62592400Y-78244600D02*
X140233400Y-78244600D01*
D10*
X139979400Y-78079600D02*
X139979400Y-57759600D01*
D14*
X62592400Y-57594600D02*
X62592400Y-78244600D01*
D10*
X139852400Y-78079600D02*
X139852400Y-57759600D01*
X140106400Y-78079600D02*
X140106400Y-57759600D01*
D14*
X139852400Y-57594600D02*
X62592400Y-57594600D01*
%LPC*%
D15*
X144145000Y-121285000D03*
X58166000Y-78105000D03*
X142062200Y-75565000D03*
X146177000Y-75565000D03*
D16*
X109016800Y-65024000D03*
D17*
X105161200Y-65024000D03*
D18*
X105232200Y-72898000D03*
D17*
X109087800Y-72898000D03*
D16*
X118795800Y-65024000D03*
D17*
X114940200Y-65024000D03*
D18*
X114884200Y-72898000D03*
D17*
X118739800Y-72898000D03*
D19*
X101346000Y-75692000D03*
D20*
X101346000Y-93726000D03*
D21*
X96266000Y-93726000D03*
D22*
X144005300Y-136349900D03*
X58280300Y-58889900D03*
X58280300Y-138889900D03*
X144005300Y-62689900D03*
D23*
X137047400Y-80569800D03*
D24*
X128717400Y-96569800D03*
X73517400Y-80569800D03*
D25*
X58117400Y-88569800D03*
X144117400Y-88569800D03*
D24*
X73542800Y-121844800D03*
D23*
X65212800Y-137844800D03*
D24*
X128742800Y-137844800D03*
D26*
X144142800Y-129844800D03*
X58142800Y-129844800D03*
D24*
X128742800Y-117194600D03*
X73542800Y-101194600D03*
D23*
X65212800Y-117194600D03*
D26*
X144142800Y-109194600D03*
X58142800Y-109194600D03*
D24*
X73517400Y-59919600D03*
D23*
X137047400Y-59919600D03*
D24*
X128717400Y-75919600D03*
D25*
X58117400Y-67919600D03*
D27*
X144117400Y-68844600D03*
M02*
