G04 #@! TF.GenerationSoftware,KiCad,Pcbnew,7.0.1-0*
G04 #@! TF.CreationDate,2023-03-19T01:41:05-04:00*
G04 #@! TF.ProjectId,batteryboard,62617474-6572-4796-926f-6172642e6b69,rev?*
G04 #@! TF.SameCoordinates,Original*
G04 #@! TF.FileFunction,Profile,NP*
%FSLAX46Y46*%
G04 Gerber Fmt 4.6, Leading zero omitted, Abs format (unit mm)*
G04 Created by KiCad (PCBNEW 7.0.1-0) date 2023-03-19 01:41:05*
%MOMM*%
%LPD*%
G01*
G04 APERTURE LIST*
G04 #@! TA.AperFunction,Profile*
%ADD10C,0.150000*%
G04 #@! TD*
G04 APERTURE END LIST*
D10*
X53200300Y-141979900D02*
G75*
G03*
X55200300Y-143979900I2000000J0D01*
G01*
X147085300Y-143979900D02*
G75*
G03*
X149085300Y-141979900I0J2000000D01*
G01*
X149085300Y-55809900D02*
G75*
G03*
X147085300Y-53809900I-2000000J0D01*
G01*
X55200300Y-53809900D02*
G75*
G03*
X53200300Y-55809900I0J-2000000D01*
G01*
X55200300Y-143979900D02*
X64039500Y-143979900D01*
X137210800Y-141000000D02*
X65074800Y-141000000D01*
X64039500Y-143979900D02*
X65074800Y-141000000D01*
X147085300Y-143979900D02*
X138246100Y-143979900D01*
X65074800Y-57000000D02*
X64096900Y-53809900D01*
X137210800Y-57000000D02*
X65074800Y-57000000D01*
X137210800Y-57000000D02*
X138188700Y-53809900D01*
X147085300Y-53809900D02*
X138188700Y-53809900D01*
X64096900Y-53809900D02*
X55200300Y-53809900D01*
X61000000Y-104500000D02*
X53200300Y-104500000D01*
X141000000Y-95500000D02*
X141000000Y-103500000D01*
X138246100Y-143979900D02*
X137210800Y-141000000D01*
X149085300Y-95500000D02*
X141000000Y-95500000D01*
X149085300Y-141979900D02*
X149085300Y-103500000D01*
X53200300Y-141979900D02*
X53200300Y-104500000D01*
X53200300Y-93000000D02*
X61000000Y-93000000D01*
X53200300Y-55809900D02*
X53200300Y-93000000D01*
X149085300Y-55809900D02*
X149085300Y-95500000D01*
X141000000Y-103500000D02*
X149085300Y-103500000D01*
X61000000Y-93000000D02*
X61000000Y-104500000D01*
M02*
