M48
; DRILL file {KiCad (6.0.5-0)} date Saturday, December 31, 2022 at 05:30:22 AM
; FORMAT={-:-/ absolute / metric / decimal}
; #@! TF.CreationDate,2022-12-31T05:30:22-05:00
; #@! TF.GenerationSoftware,Kicad,Pcbnew,(6.0.5-0)
; #@! TF.FileFunction,Plated,1,2,PTH
FMAT,2
METRIC
; #@! TA.AperFunction,Plated,PTH,ViaDrill
T1C0.400
; #@! TA.AperFunction,Plated,PTH,ComponentDrill
T2C1.500
; #@! TA.AperFunction,Plated,PTH,ComponentDrill
T3C1.700
; #@! TA.AperFunction,Plated,PTH,ComponentDrill
T4C2.700
; #@! TA.AperFunction,Plated,PTH,ComponentDrill
T5C3.700
%
G90
G05
T1
X97.5Y-89.55
X97.5Y-92.2
X97.5Y-94.65
X97.6Y-96.2
X97.75Y-97.75
X97.8Y-99.8
X97.8Y-102.15
X97.95Y-104.45
X98.0Y-107.05
X99.35Y-86.15
X99.35Y-88.2
X99.5Y-90.65
X99.8Y-95.3
X99.8Y-97.1
X99.8Y-98.8
X99.8Y-100.9
X99.8Y-103.25
X99.85Y-93.05
X99.9Y-105.6
X99.95Y-108.4
X100.05Y-110.95
X101.3Y-82.85
X101.4Y-84.85
X101.5Y-87.15
X101.5Y-89.25
X101.5Y-91.65
X101.7Y-96.35
X101.7Y-98.15
X101.7Y-99.85
X101.7Y-101.95
X101.7Y-104.3
X101.75Y-94.1
X101.8Y-107.0
X101.9Y-109.75
X102.05Y-112.25
X102.05Y-113.95
X103.15Y-92.85
X103.25Y-95.4
X103.3Y-103.35
X103.4Y-97.7
X103.4Y-99.6
X103.4Y-101.4
X103.6Y-81.6
X103.7Y-84.15
X103.85Y-86.45
X103.85Y-88.35
X103.85Y-90.15
X103.95Y-106.4
X104.05Y-108.95
X104.2Y-111.25
X104.2Y-113.15
X104.2Y-114.95
X104.7Y-91.8
X104.8Y-94.35
X104.95Y-96.65
X104.95Y-98.55
X104.95Y-100.35
X104.95Y-102.05
X105.05Y-104.3
X106.15Y-81.45
X106.2Y-115.55
X106.4Y-93.15
X106.55Y-95.45
X106.55Y-97.35
X106.55Y-99.15
X106.55Y-100.85
X106.65Y-103.1
X108.05Y-91.9
X108.15Y-94.1
X108.25Y-81.45
X108.3Y-96.4
X108.3Y-98.3
X108.3Y-100.1
X108.3Y-101.8
X108.3Y-115.55
X108.4Y-104.05
X109.75Y-92.7
X109.9Y-95.0
X109.9Y-96.9
X109.9Y-98.7
X109.9Y-100.4
X109.95Y-81.45
X110.0Y-102.65
X110.0Y-115.55
X110.2Y-104.9
X111.5Y-93.6
X111.65Y-95.9
X111.65Y-97.8
X111.65Y-99.6
X111.65Y-101.3
X111.75Y-81.45
X111.75Y-103.55
X111.8Y-115.55
X113.05Y-91.9
X113.4Y-104.8
X113.45Y-94.8
X113.45Y-96.7
X113.45Y-98.5
X113.45Y-100.2
X113.45Y-102.3
X113.65Y-81.45
X113.7Y-115.55
X114.7Y-93.55
X114.7Y-103.45
X115.5Y-81.45
X115.55Y-115.55
X115.65Y-91.95
X115.7Y-98.5
X115.75Y-104.8
X116.8Y-93.55
X116.8Y-103.45
X117.6Y-81.45
X117.65Y-115.55
X117.75Y-91.95
X117.85Y-104.8
X118.5Y-93.55
X118.5Y-95.75
X118.5Y-100.85
X118.5Y-103.45
X119.3Y-81.45
X119.35Y-115.55
X119.45Y-91.95
X119.55Y-104.8
X120.3Y-93.55
X120.3Y-103.45
X121.1Y-81.45
X121.15Y-115.55
X121.25Y-91.95
X121.35Y-104.8
X122.2Y-93.55
X122.2Y-103.45
X123.0Y-81.45
X123.05Y-115.55
X123.6Y-104.85
X123.65Y-91.9
X123.65Y-94.45
X123.65Y-100.5
X123.7Y-96.55
X123.7Y-102.4
X125.25Y-103.45
X125.3Y-81.45
X125.35Y-93.35
X125.35Y-115.55
X125.45Y-95.8
X125.5Y-100.85
X127.15Y-91.95
X127.15Y-94.65
X127.15Y-102.25
X127.15Y-104.75
X127.2Y-100.45
X127.4Y-81.45
X127.45Y-115.55
X127.95Y-96.3
X129.1Y-81.45
X129.15Y-115.55
X130.9Y-81.45
X130.95Y-115.55
X133.0Y-82.45
X133.0Y-85.1
X133.0Y-87.55
X133.1Y-89.1
X133.15Y-99.5
X133.15Y-102.15
X133.15Y-104.15
X133.25Y-90.65
X133.25Y-106.15
X133.25Y-111.8
X133.3Y-92.7
X133.3Y-95.05
X133.3Y-109.75
X133.35Y-113.35
X133.4Y-107.7
X133.45Y-97.35
X133.5Y-114.9
X134.7Y-83.9
X134.85Y-86.4
X134.95Y-89.15
X135.0Y-102.05
X135.05Y-91.85
X135.05Y-94.2
X135.05Y-96.3
X135.05Y-98.0
X135.05Y-99.8
X135.25Y-104.5
X135.25Y-106.9
X135.25Y-109.0
X135.35Y-111.3
X135.45Y-113.3
X136.7Y-85.2
X136.8Y-87.75
X136.85Y-90.55
X136.9Y-103.1
X136.95Y-92.9
X136.95Y-95.25
X136.95Y-97.35
X136.95Y-99.05
X136.95Y-100.85
X137.25Y-105.5
X137.4Y-107.95
X137.4Y-110.0
X138.75Y-89.1
X138.8Y-91.7
X138.95Y-94.0
X138.95Y-96.35
X139.0Y-98.4
X139.15Y-99.95
X139.25Y-101.5
X139.25Y-103.95
X139.25Y-106.6
T2
X118.5Y-98.5
T3
X115.95Y-95.95
X115.95Y-101.05
X121.05Y-95.95
X121.05Y-101.05
T4
X75.639Y-61.035
X75.639Y-134.695
X161.364Y-58.495
X161.364Y-138.505
T5
X73.55Y-53.55
X73.55Y-143.45
X163.45Y-53.55
X163.45Y-143.45
T0
M30
