%FSLAX45Y45*%
G04 Gerber Fmt 4.5, Leading zero omitted, Abs format (unit mm)*
G04 Created by KiCad (PCBNEW (6.0.5-0)) date 2022-12-31 05:30:32*
%MOMM*%
%LPD*%
G01*
G04 APERTURE LIST*
%TA.AperFunction,Profile*%
%ADD10C,0.100000*%
%TD*%
%ADD11C,0.200000*%
%ADD12C,0.040000*%
%ADD13C,0.150000*%
%ADD14C,0.170000*%
%ADD15C,0.270000*%
%ADD16C,0.370000*%
G04 APERTURE END LIST*
D10*
X7520000Y-13010000D02*
G75*
G03*
X7620000Y-12910000I0J100000D01*
G01*
X7250000Y-13010000D02*
G75*
G03*
X7150000Y-13110000I0J-100000D01*
G01*
X16180000Y-6690000D02*
G75*
G03*
X16080000Y-6790000I0J-100000D01*
G01*
X16700000Y-5800000D02*
X16700000Y-5100000D01*
X16700000Y-5800000D02*
X16650000Y-5800000D01*
X8690000Y-5520000D02*
G75*
G03*
X8790000Y-5620000I100000J0D01*
G01*
X15900000Y-5000000D02*
X16600000Y-5000000D01*
X16550000Y-13800000D02*
G75*
G03*
X16650000Y-13900000I100000J0D01*
G01*
X7000000Y-14600000D02*
G75*
G03*
X7100000Y-14700000I100000J0D01*
G01*
X14910000Y-14080000D02*
X8790000Y-14080000D01*
X16600000Y-14700000D02*
G75*
G03*
X16700000Y-14600000I0J100000D01*
G01*
X7900000Y-14550000D02*
G75*
G03*
X7800000Y-14650000I0J-100000D01*
G01*
X10549679Y-13208946D02*
X13149684Y-13208946D01*
X13149684Y-13208946D02*
X13149684Y-13462897D01*
X13149684Y-13462897D02*
X10549679Y-13462897D01*
X10549679Y-13462897D02*
X10549679Y-13208946D01*
X15900000Y-14650000D02*
G75*
G03*
X15800000Y-14550000I-100000J0D01*
G01*
X7000000Y-13900000D02*
X7000000Y-14600000D01*
X16550000Y-13110000D02*
G75*
G03*
X16450000Y-13010000I-100000J0D01*
G01*
X7050000Y-5800000D02*
X7000000Y-5800000D01*
X15010000Y-14180000D02*
X15010000Y-14450000D01*
X8790000Y-5620000D02*
X14910000Y-5620000D01*
X7150000Y-6590000D02*
G75*
G03*
X7250000Y-6690000I100000J0D01*
G01*
X7800000Y-14700000D02*
X7100000Y-14700000D01*
X16600000Y-14700000D02*
X15900000Y-14700000D01*
X16650000Y-13900000D02*
X16700000Y-13900000D01*
X15800000Y-5150000D02*
G75*
G03*
X15900000Y-5050000I0J100000D01*
G01*
X16080000Y-6790000D02*
X16080000Y-12910000D01*
X8590000Y-14550000D02*
X7900000Y-14550000D01*
X10549998Y-12447119D02*
X13150002Y-12447119D01*
X13150002Y-12447119D02*
X13150002Y-12701070D01*
X13150002Y-12701070D02*
X10549998Y-12701070D01*
X10549998Y-12701070D02*
X10549998Y-12447119D01*
X7520000Y-13010000D02*
X7250000Y-13010000D01*
X16550000Y-5900000D02*
X16550000Y-6590000D01*
X15010000Y-5520000D02*
X15010000Y-5250000D01*
X14910000Y-5620000D02*
G75*
G03*
X15010000Y-5520000I0J100000D01*
G01*
X8690000Y-14180000D02*
X8690000Y-14450000D01*
X10550000Y-6998978D02*
X13150000Y-6998978D01*
X13150000Y-6998978D02*
X13150000Y-7252738D01*
X13150000Y-7252738D02*
X10550000Y-7252738D01*
X10550000Y-7252738D02*
X10550000Y-6998978D01*
X15800000Y-14550000D02*
X15110000Y-14550000D01*
X8790000Y-14080000D02*
G75*
G03*
X8690000Y-14180000I0J-100000D01*
G01*
X10549958Y-11685036D02*
X13149963Y-11685036D01*
X13149963Y-11685036D02*
X13149963Y-11938987D01*
X13149963Y-11938987D02*
X10549958Y-11938987D01*
X10549958Y-11938987D02*
X10549958Y-11685036D01*
X7520000Y-6690000D02*
X7250000Y-6690000D01*
X10550000Y-8015000D02*
X13150113Y-8015000D01*
X13150113Y-8015000D02*
X13150113Y-7761130D01*
X13150113Y-7761130D02*
X10550000Y-7761130D01*
X10550000Y-7761130D02*
X10550000Y-8015000D01*
X7800000Y-5050000D02*
G75*
G03*
X7900000Y-5150000I100000J0D01*
G01*
X16180000Y-13010000D02*
X16450000Y-13010000D01*
X16700000Y-5100000D02*
G75*
G03*
X16600000Y-5000000I-100000J0D01*
G01*
X7900000Y-5150000D02*
X8590000Y-5150000D01*
X7150000Y-13110000D02*
X7150000Y-13800000D01*
X16180000Y-6690000D02*
X16450000Y-6690000D01*
X15900000Y-5000000D02*
X15900000Y-5050000D01*
X8590000Y-14550000D02*
G75*
G03*
X8690000Y-14450000I0J100000D01*
G01*
X7800000Y-5050000D02*
X7800000Y-5000000D01*
X7000000Y-13900000D02*
X7050000Y-13900000D01*
X7150000Y-5900000D02*
G75*
G03*
X7050000Y-5800000I-100000J0D01*
G01*
X16080000Y-12910000D02*
G75*
G03*
X16180000Y-13010000I100000J0D01*
G01*
X16650000Y-5800000D02*
G75*
G03*
X16550000Y-5900000I0J-100000D01*
G01*
X7620000Y-12910000D02*
X7620000Y-6790000D01*
X8690000Y-5520000D02*
X8690000Y-5250000D01*
X7000000Y-5100000D02*
X7000000Y-5800000D01*
X15800000Y-5150000D02*
X15110000Y-5150000D01*
X7150000Y-5900000D02*
X7150000Y-6590000D01*
X8690000Y-5250000D02*
G75*
G03*
X8590000Y-5150000I-100000J0D01*
G01*
X16450000Y-6690000D02*
G75*
G03*
X16550000Y-6590000I0J100000D01*
G01*
X15010000Y-14180000D02*
G75*
G03*
X14910000Y-14080000I-100000J0D01*
G01*
X15900000Y-14650000D02*
X15900000Y-14700000D01*
X7050000Y-13900000D02*
G75*
G03*
X7150000Y-13800000I0J100000D01*
G01*
X15010000Y-14450000D02*
G75*
G03*
X15110000Y-14550000I100000J0D01*
G01*
X15110000Y-5150000D02*
G75*
G03*
X15010000Y-5250000I0J-100000D01*
G01*
X16550000Y-13110000D02*
X16550000Y-13800000D01*
X7100000Y-5000000D02*
G75*
G03*
X7000000Y-5100000I0J-100000D01*
G01*
X10550000Y-6236996D02*
X13150004Y-6236996D01*
X13150004Y-6236996D02*
X13150004Y-6490947D01*
X13150004Y-6490947D02*
X10550000Y-6490947D01*
X10550000Y-6490947D02*
X10550000Y-6236996D01*
X7800000Y-5000000D02*
X7100000Y-5000000D01*
X16700000Y-13900000D02*
X16700000Y-14600000D01*
X7620000Y-6790000D02*
G75*
G03*
X7520000Y-6690000I-100000J0D01*
G01*
X7800000Y-14700000D02*
X7800000Y-14650000D01*
D11*
D12*
X9730000Y-8935000D02*
X9770000Y-8975000D01*
X9770000Y-8935000D02*
X9730000Y-8975000D01*
X9730000Y-9200000D02*
X9770000Y-9240000D01*
X9770000Y-9200000D02*
X9730000Y-9240000D01*
X9730000Y-9445000D02*
X9770000Y-9485000D01*
X9770000Y-9445000D02*
X9730000Y-9485000D01*
X9740000Y-9600000D02*
X9780000Y-9640000D01*
X9780000Y-9600000D02*
X9740000Y-9640000D01*
X9755000Y-9755000D02*
X9795000Y-9795000D01*
X9795000Y-9755000D02*
X9755000Y-9795000D01*
X9760000Y-9960000D02*
X9800000Y-10000000D01*
X9800000Y-9960000D02*
X9760000Y-10000000D01*
X9760000Y-10195000D02*
X9800000Y-10235000D01*
X9800000Y-10195000D02*
X9760000Y-10235000D01*
X9775000Y-10425000D02*
X9815000Y-10465000D01*
X9815000Y-10425000D02*
X9775000Y-10465000D01*
X9780000Y-10685000D02*
X9820000Y-10725000D01*
X9820000Y-10685000D02*
X9780000Y-10725000D01*
X9915000Y-8595000D02*
X9955000Y-8635000D01*
X9955000Y-8595000D02*
X9915000Y-8635000D01*
X9915000Y-8800000D02*
X9955000Y-8840000D01*
X9955000Y-8800000D02*
X9915000Y-8840000D01*
X9930000Y-9045000D02*
X9970000Y-9085000D01*
X9970000Y-9045000D02*
X9930000Y-9085000D01*
X9960000Y-9510000D02*
X10000000Y-9550000D01*
X10000000Y-9510000D02*
X9960000Y-9550000D01*
X9960000Y-9690000D02*
X10000000Y-9730000D01*
X10000000Y-9690000D02*
X9960000Y-9730000D01*
X9960000Y-9860000D02*
X10000000Y-9900000D01*
X10000000Y-9860000D02*
X9960000Y-9900000D01*
X9960000Y-10070000D02*
X10000000Y-10110000D01*
X10000000Y-10070000D02*
X9960000Y-10110000D01*
X9960000Y-10305000D02*
X10000000Y-10345000D01*
X10000000Y-10305000D02*
X9960000Y-10345000D01*
X9965000Y-9285000D02*
X10005000Y-9325000D01*
X10005000Y-9285000D02*
X9965000Y-9325000D01*
X9970000Y-10540000D02*
X10010000Y-10580000D01*
X10010000Y-10540000D02*
X9970000Y-10580000D01*
X9975000Y-10820000D02*
X10015000Y-10860000D01*
X10015000Y-10820000D02*
X9975000Y-10860000D01*
X9985000Y-11075000D02*
X10025000Y-11115000D01*
X10025000Y-11075000D02*
X9985000Y-11115000D01*
X10110000Y-8265000D02*
X10150000Y-8305000D01*
X10150000Y-8265000D02*
X10110000Y-8305000D01*
X10120000Y-8465000D02*
X10160000Y-8505000D01*
X10160000Y-8465000D02*
X10120000Y-8505000D01*
X10130000Y-8695000D02*
X10170000Y-8735000D01*
X10170000Y-8695000D02*
X10130000Y-8735000D01*
X10130000Y-8905000D02*
X10170000Y-8945000D01*
X10170000Y-8905000D02*
X10130000Y-8945000D01*
X10130000Y-9145000D02*
X10170000Y-9185000D01*
X10170000Y-9145000D02*
X10130000Y-9185000D01*
X10150000Y-9615000D02*
X10190000Y-9655000D01*
X10190000Y-9615000D02*
X10150000Y-9655000D01*
X10150000Y-9795000D02*
X10190000Y-9835000D01*
X10190000Y-9795000D02*
X10150000Y-9835000D01*
X10150000Y-9965000D02*
X10190000Y-10005000D01*
X10190000Y-9965000D02*
X10150000Y-10005000D01*
X10150000Y-10175000D02*
X10190000Y-10215000D01*
X10190000Y-10175000D02*
X10150000Y-10215000D01*
X10150000Y-10410000D02*
X10190000Y-10450000D01*
X10190000Y-10410000D02*
X10150000Y-10450000D01*
X10155000Y-9390000D02*
X10195000Y-9430000D01*
X10195000Y-9390000D02*
X10155000Y-9430000D01*
X10160000Y-10680000D02*
X10200000Y-10720000D01*
X10200000Y-10680000D02*
X10160000Y-10720000D01*
X10170000Y-10955000D02*
X10210000Y-10995000D01*
X10210000Y-10955000D02*
X10170000Y-10995000D01*
X10185000Y-11205000D02*
X10225000Y-11245000D01*
X10225000Y-11205000D02*
X10185000Y-11245000D01*
X10185000Y-11375000D02*
X10225000Y-11415000D01*
X10225000Y-11375000D02*
X10185000Y-11415000D01*
X10295000Y-9265000D02*
X10335000Y-9305000D01*
X10335000Y-9265000D02*
X10295000Y-9305000D01*
X10305000Y-9520000D02*
X10345000Y-9560000D01*
X10345000Y-9520000D02*
X10305000Y-9560000D01*
X10310000Y-10315000D02*
X10350000Y-10355000D01*
X10350000Y-10315000D02*
X10310000Y-10355000D01*
X10320000Y-9750000D02*
X10360000Y-9790000D01*
X10360000Y-9750000D02*
X10320000Y-9790000D01*
X10320000Y-9940000D02*
X10360000Y-9980000D01*
X10360000Y-9940000D02*
X10320000Y-9980000D01*
X10320000Y-10120000D02*
X10360000Y-10160000D01*
X10360000Y-10120000D02*
X10320000Y-10160000D01*
X10340000Y-8140000D02*
X10380000Y-8180000D01*
X10380000Y-8140000D02*
X10340000Y-8180000D01*
X10350000Y-8395000D02*
X10390000Y-8435000D01*
X10390000Y-8395000D02*
X10350000Y-8435000D01*
X10365000Y-8625000D02*
X10405000Y-8665000D01*
X10405000Y-8625000D02*
X10365000Y-8665000D01*
X10365000Y-8815000D02*
X10405000Y-8855000D01*
X10405000Y-8815000D02*
X10365000Y-8855000D01*
X10365000Y-8995000D02*
X10405000Y-9035000D01*
X10405000Y-8995000D02*
X10365000Y-9035000D01*
X10375000Y-10620000D02*
X10415000Y-10660000D01*
X10415000Y-10620000D02*
X10375000Y-10660000D01*
X10385000Y-10875000D02*
X10425000Y-10915000D01*
X10425000Y-10875000D02*
X10385000Y-10915000D01*
X10400000Y-11105000D02*
X10440000Y-11145000D01*
X10440000Y-11105000D02*
X10400000Y-11145000D01*
X10400000Y-11295000D02*
X10440000Y-11335000D01*
X10440000Y-11295000D02*
X10400000Y-11335000D01*
X10400000Y-11475000D02*
X10440000Y-11515000D01*
X10440000Y-11475000D02*
X10400000Y-11515000D01*
X10450000Y-9160000D02*
X10490000Y-9200000D01*
X10490000Y-9160000D02*
X10450000Y-9200000D01*
X10460000Y-9415000D02*
X10500000Y-9455000D01*
X10500000Y-9415000D02*
X10460000Y-9455000D01*
X10475000Y-9645000D02*
X10515000Y-9685000D01*
X10515000Y-9645000D02*
X10475000Y-9685000D01*
X10475000Y-9835000D02*
X10515000Y-9875000D01*
X10515000Y-9835000D02*
X10475000Y-9875000D01*
X10475000Y-10015000D02*
X10515000Y-10055000D01*
X10515000Y-10015000D02*
X10475000Y-10055000D01*
X10475000Y-10185000D02*
X10515000Y-10225000D01*
X10515000Y-10185000D02*
X10475000Y-10225000D01*
X10485000Y-10410000D02*
X10525000Y-10450000D01*
X10525000Y-10410000D02*
X10485000Y-10450000D01*
X10595000Y-8125000D02*
X10635000Y-8165000D01*
X10635000Y-8125000D02*
X10595000Y-8165000D01*
X10600000Y-11535000D02*
X10640000Y-11575000D01*
X10640000Y-11535000D02*
X10600000Y-11575000D01*
X10620000Y-9295000D02*
X10660000Y-9335000D01*
X10660000Y-9295000D02*
X10620000Y-9335000D01*
X10635000Y-9525000D02*
X10675000Y-9565000D01*
X10675000Y-9525000D02*
X10635000Y-9565000D01*
X10635000Y-9715000D02*
X10675000Y-9755000D01*
X10675000Y-9715000D02*
X10635000Y-9755000D01*
X10635000Y-9895000D02*
X10675000Y-9935000D01*
X10675000Y-9895000D02*
X10635000Y-9935000D01*
X10635000Y-10065000D02*
X10675000Y-10105000D01*
X10675000Y-10065000D02*
X10635000Y-10105000D01*
X10645000Y-10290000D02*
X10685000Y-10330000D01*
X10685000Y-10290000D02*
X10645000Y-10330000D01*
X10785000Y-9170000D02*
X10825000Y-9210000D01*
X10825000Y-9170000D02*
X10785000Y-9210000D01*
X10795000Y-9390000D02*
X10835000Y-9430000D01*
X10835000Y-9390000D02*
X10795000Y-9430000D01*
X10805000Y-8125000D02*
X10845000Y-8165000D01*
X10845000Y-8125000D02*
X10805000Y-8165000D01*
X10810000Y-9620000D02*
X10850000Y-9660000D01*
X10850000Y-9620000D02*
X10810000Y-9660000D01*
X10810000Y-9810000D02*
X10850000Y-9850000D01*
X10850000Y-9810000D02*
X10810000Y-9850000D01*
X10810000Y-9990000D02*
X10850000Y-10030000D01*
X10850000Y-9990000D02*
X10810000Y-10030000D01*
X10810000Y-10160000D02*
X10850000Y-10200000D01*
X10850000Y-10160000D02*
X10810000Y-10200000D01*
X10810000Y-11535000D02*
X10850000Y-11575000D01*
X10850000Y-11535000D02*
X10810000Y-11575000D01*
X10820000Y-10385000D02*
X10860000Y-10425000D01*
X10860000Y-10385000D02*
X10820000Y-10425000D01*
X10955000Y-9250000D02*
X10995000Y-9290000D01*
X10995000Y-9250000D02*
X10955000Y-9290000D01*
X10970000Y-9480000D02*
X11010000Y-9520000D01*
X11010000Y-9480000D02*
X10970000Y-9520000D01*
X10970000Y-9670000D02*
X11010000Y-9710000D01*
X11010000Y-9670000D02*
X10970000Y-9710000D01*
X10970000Y-9850000D02*
X11010000Y-9890000D01*
X11010000Y-9850000D02*
X10970000Y-9890000D01*
X10970000Y-10020000D02*
X11010000Y-10060000D01*
X11010000Y-10020000D02*
X10970000Y-10060000D01*
X10975000Y-8125000D02*
X11015000Y-8165000D01*
X11015000Y-8125000D02*
X10975000Y-8165000D01*
X10980000Y-10245000D02*
X11020000Y-10285000D01*
X11020000Y-10245000D02*
X10980000Y-10285000D01*
X10980000Y-11535000D02*
X11020000Y-11575000D01*
X11020000Y-11535000D02*
X10980000Y-11575000D01*
X11000000Y-10470000D02*
X11040000Y-10510000D01*
X11040000Y-10470000D02*
X11000000Y-10510000D01*
X11130000Y-9340000D02*
X11170000Y-9380000D01*
X11170000Y-9340000D02*
X11130000Y-9380000D01*
X11145000Y-9570000D02*
X11185000Y-9610000D01*
X11185000Y-9570000D02*
X11145000Y-9610000D01*
X11145000Y-9760000D02*
X11185000Y-9800000D01*
X11185000Y-9760000D02*
X11145000Y-9800000D01*
X11145000Y-9940000D02*
X11185000Y-9980000D01*
X11185000Y-9940000D02*
X11145000Y-9980000D01*
X11145000Y-10110000D02*
X11185000Y-10150000D01*
X11185000Y-10110000D02*
X11145000Y-10150000D01*
X11155000Y-8125000D02*
X11195000Y-8165000D01*
X11195000Y-8125000D02*
X11155000Y-8165000D01*
X11155000Y-10335000D02*
X11195000Y-10375000D01*
X11195000Y-10335000D02*
X11155000Y-10375000D01*
X11160000Y-11535000D02*
X11200000Y-11575000D01*
X11200000Y-11535000D02*
X11160000Y-11575000D01*
X11285000Y-9170000D02*
X11325000Y-9210000D01*
X11325000Y-9170000D02*
X11285000Y-9210000D01*
X11320000Y-10460000D02*
X11360000Y-10500000D01*
X11360000Y-10460000D02*
X11320000Y-10500000D01*
X11325000Y-9460000D02*
X11365000Y-9500000D01*
X11365000Y-9460000D02*
X11325000Y-9500000D01*
X11325000Y-9650000D02*
X11365000Y-9690000D01*
X11365000Y-9650000D02*
X11325000Y-9690000D01*
X11325000Y-9830000D02*
X11365000Y-9870000D01*
X11365000Y-9830000D02*
X11325000Y-9870000D01*
X11325000Y-10000000D02*
X11365000Y-10040000D01*
X11365000Y-10000000D02*
X11325000Y-10040000D01*
X11325000Y-10210000D02*
X11365000Y-10250000D01*
X11365000Y-10210000D02*
X11325000Y-10250000D01*
X11345000Y-8125000D02*
X11385000Y-8165000D01*
X11385000Y-8125000D02*
X11345000Y-8165000D01*
X11350000Y-11535000D02*
X11390000Y-11575000D01*
X11390000Y-11535000D02*
X11350000Y-11575000D01*
X11450000Y-9335000D02*
X11490000Y-9375000D01*
X11490000Y-9335000D02*
X11450000Y-9375000D01*
X11450000Y-10325000D02*
X11490000Y-10365000D01*
X11490000Y-10325000D02*
X11450000Y-10365000D01*
X11530000Y-8125000D02*
X11570000Y-8165000D01*
X11570000Y-8125000D02*
X11530000Y-8165000D01*
X11535000Y-11535000D02*
X11575000Y-11575000D01*
X11575000Y-11535000D02*
X11535000Y-11575000D01*
X11545000Y-9175000D02*
X11585000Y-9215000D01*
X11585000Y-9175000D02*
X11545000Y-9215000D01*
X11550000Y-9830000D02*
X11590000Y-9870000D01*
X11590000Y-9830000D02*
X11550000Y-9870000D01*
X11555000Y-10460000D02*
X11595000Y-10500000D01*
X11595000Y-10460000D02*
X11555000Y-10500000D01*
X11660000Y-9335000D02*
X11700000Y-9375000D01*
X11700000Y-9335000D02*
X11660000Y-9375000D01*
X11660000Y-10325000D02*
X11700000Y-10365000D01*
X11700000Y-10325000D02*
X11660000Y-10365000D01*
X11740000Y-8125000D02*
X11780000Y-8165000D01*
X11780000Y-8125000D02*
X11740000Y-8165000D01*
X11745000Y-11535000D02*
X11785000Y-11575000D01*
X11785000Y-11535000D02*
X11745000Y-11575000D01*
X11755000Y-9175000D02*
X11795000Y-9215000D01*
X11795000Y-9175000D02*
X11755000Y-9215000D01*
X11765000Y-10460000D02*
X11805000Y-10500000D01*
X11805000Y-10460000D02*
X11765000Y-10500000D01*
X11830000Y-9335000D02*
X11870000Y-9375000D01*
X11870000Y-9335000D02*
X11830000Y-9375000D01*
X11830000Y-9555000D02*
X11870000Y-9595000D01*
X11870000Y-9555000D02*
X11830000Y-9595000D01*
X11830000Y-10065000D02*
X11870000Y-10105000D01*
X11870000Y-10065000D02*
X11830000Y-10105000D01*
X11830000Y-10325000D02*
X11870000Y-10365000D01*
X11870000Y-10325000D02*
X11830000Y-10365000D01*
X11910000Y-8125000D02*
X11950000Y-8165000D01*
X11950000Y-8125000D02*
X11910000Y-8165000D01*
X11915000Y-11535000D02*
X11955000Y-11575000D01*
X11955000Y-11535000D02*
X11915000Y-11575000D01*
X11925000Y-9175000D02*
X11965000Y-9215000D01*
X11965000Y-9175000D02*
X11925000Y-9215000D01*
X11935000Y-10460000D02*
X11975000Y-10500000D01*
X11975000Y-10460000D02*
X11935000Y-10500000D01*
X12010000Y-9335000D02*
X12050000Y-9375000D01*
X12050000Y-9335000D02*
X12010000Y-9375000D01*
X12010000Y-10325000D02*
X12050000Y-10365000D01*
X12050000Y-10325000D02*
X12010000Y-10365000D01*
X12090000Y-8125000D02*
X12130000Y-8165000D01*
X12130000Y-8125000D02*
X12090000Y-8165000D01*
X12095000Y-11535000D02*
X12135000Y-11575000D01*
X12135000Y-11535000D02*
X12095000Y-11575000D01*
X12105000Y-9175000D02*
X12145000Y-9215000D01*
X12145000Y-9175000D02*
X12105000Y-9215000D01*
X12115000Y-10460000D02*
X12155000Y-10500000D01*
X12155000Y-10460000D02*
X12115000Y-10500000D01*
X12200000Y-9335000D02*
X12240000Y-9375000D01*
X12240000Y-9335000D02*
X12200000Y-9375000D01*
X12200000Y-10325000D02*
X12240000Y-10365000D01*
X12240000Y-10325000D02*
X12200000Y-10365000D01*
X12280000Y-8125000D02*
X12320000Y-8165000D01*
X12320000Y-8125000D02*
X12280000Y-8165000D01*
X12285000Y-11535000D02*
X12325000Y-11575000D01*
X12325000Y-11535000D02*
X12285000Y-11575000D01*
X12340000Y-10465000D02*
X12380000Y-10505000D01*
X12380000Y-10465000D02*
X12340000Y-10505000D01*
X12345000Y-9170000D02*
X12385000Y-9210000D01*
X12385000Y-9170000D02*
X12345000Y-9210000D01*
X12345000Y-9425000D02*
X12385000Y-9465000D01*
X12385000Y-9425000D02*
X12345000Y-9465000D01*
X12345000Y-10030000D02*
X12385000Y-10070000D01*
X12385000Y-10030000D02*
X12345000Y-10070000D01*
X12350000Y-9635000D02*
X12390000Y-9675000D01*
X12390000Y-9635000D02*
X12350000Y-9675000D01*
X12350000Y-10220000D02*
X12390000Y-10260000D01*
X12390000Y-10220000D02*
X12350000Y-10260000D01*
X12505000Y-10325000D02*
X12545000Y-10365000D01*
X12545000Y-10325000D02*
X12505000Y-10365000D01*
X12510000Y-8125000D02*
X12550000Y-8165000D01*
X12550000Y-8125000D02*
X12510000Y-8165000D01*
X12515000Y-9315000D02*
X12555000Y-9355000D01*
X12555000Y-9315000D02*
X12515000Y-9355000D01*
X12515000Y-11535000D02*
X12555000Y-11575000D01*
X12555000Y-11535000D02*
X12515000Y-11575000D01*
X12525000Y-9560000D02*
X12565000Y-9600000D01*
X12565000Y-9560000D02*
X12525000Y-9600000D01*
X12530000Y-10065000D02*
X12570000Y-10105000D01*
X12570000Y-10065000D02*
X12530000Y-10105000D01*
X12695000Y-9175000D02*
X12735000Y-9215000D01*
X12735000Y-9175000D02*
X12695000Y-9215000D01*
X12695000Y-9445000D02*
X12735000Y-9485000D01*
X12735000Y-9445000D02*
X12695000Y-9485000D01*
X12695000Y-10205000D02*
X12735000Y-10245000D01*
X12735000Y-10205000D02*
X12695000Y-10245000D01*
X12695000Y-10455000D02*
X12735000Y-10495000D01*
X12735000Y-10455000D02*
X12695000Y-10495000D01*
X12700000Y-10025000D02*
X12740000Y-10065000D01*
X12740000Y-10025000D02*
X12700000Y-10065000D01*
X12720000Y-8125000D02*
X12760000Y-8165000D01*
X12760000Y-8125000D02*
X12720000Y-8165000D01*
X12725000Y-11535000D02*
X12765000Y-11575000D01*
X12765000Y-11535000D02*
X12725000Y-11575000D01*
X12775000Y-9610000D02*
X12815000Y-9650000D01*
X12815000Y-9610000D02*
X12775000Y-9650000D01*
X12890000Y-8125000D02*
X12930000Y-8165000D01*
X12930000Y-8125000D02*
X12890000Y-8165000D01*
X12895000Y-11535000D02*
X12935000Y-11575000D01*
X12935000Y-11535000D02*
X12895000Y-11575000D01*
X13070000Y-8125000D02*
X13110000Y-8165000D01*
X13110000Y-8125000D02*
X13070000Y-8165000D01*
X13075000Y-11535000D02*
X13115000Y-11575000D01*
X13115000Y-11535000D02*
X13075000Y-11575000D01*
X13280000Y-8225000D02*
X13320000Y-8265000D01*
X13320000Y-8225000D02*
X13280000Y-8265000D01*
X13280000Y-8490000D02*
X13320000Y-8530000D01*
X13320000Y-8490000D02*
X13280000Y-8530000D01*
X13280000Y-8735000D02*
X13320000Y-8775000D01*
X13320000Y-8735000D02*
X13280000Y-8775000D01*
X13290000Y-8890000D02*
X13330000Y-8930000D01*
X13330000Y-8890000D02*
X13290000Y-8930000D01*
X13295000Y-9930000D02*
X13335000Y-9970000D01*
X13335000Y-9930000D02*
X13295000Y-9970000D01*
X13295000Y-10195000D02*
X13335000Y-10235000D01*
X13335000Y-10195000D02*
X13295000Y-10235000D01*
X13295000Y-10395000D02*
X13335000Y-10435000D01*
X13335000Y-10395000D02*
X13295000Y-10435000D01*
X13305000Y-9045000D02*
X13345000Y-9085000D01*
X13345000Y-9045000D02*
X13305000Y-9085000D01*
X13305000Y-10595000D02*
X13345000Y-10635000D01*
X13345000Y-10595000D02*
X13305000Y-10635000D01*
X13305000Y-11160000D02*
X13345000Y-11200000D01*
X13345000Y-11160000D02*
X13305000Y-11200000D01*
X13310000Y-9250000D02*
X13350000Y-9290000D01*
X13350000Y-9250000D02*
X13310000Y-9290000D01*
X13310000Y-9485000D02*
X13350000Y-9525000D01*
X13350000Y-9485000D02*
X13310000Y-9525000D01*
X13310000Y-10955000D02*
X13350000Y-10995000D01*
X13350000Y-10955000D02*
X13310000Y-10995000D01*
X13315000Y-11315000D02*
X13355000Y-11355000D01*
X13355000Y-11315000D02*
X13315000Y-11355000D01*
X13320000Y-10750000D02*
X13360000Y-10790000D01*
X13360000Y-10750000D02*
X13320000Y-10790000D01*
X13325000Y-9715000D02*
X13365000Y-9755000D01*
X13365000Y-9715000D02*
X13325000Y-9755000D01*
X13330000Y-11470000D02*
X13370000Y-11510000D01*
X13370000Y-11470000D02*
X13330000Y-11510000D01*
X13450000Y-8370000D02*
X13490000Y-8410000D01*
X13490000Y-8370000D02*
X13450000Y-8410000D01*
X13465000Y-8620000D02*
X13505000Y-8660000D01*
X13505000Y-8620000D02*
X13465000Y-8660000D01*
X13475000Y-8895000D02*
X13515000Y-8935000D01*
X13515000Y-8895000D02*
X13475000Y-8935000D01*
X13480000Y-10185000D02*
X13520000Y-10225000D01*
X13520000Y-10185000D02*
X13480000Y-10225000D01*
X13485000Y-9165000D02*
X13525000Y-9205000D01*
X13525000Y-9165000D02*
X13485000Y-9205000D01*
X13485000Y-9400000D02*
X13525000Y-9440000D01*
X13525000Y-9400000D02*
X13485000Y-9440000D01*
X13485000Y-9610000D02*
X13525000Y-9650000D01*
X13525000Y-9610000D02*
X13485000Y-9650000D01*
X13485000Y-9780000D02*
X13525000Y-9820000D01*
X13525000Y-9780000D02*
X13485000Y-9820000D01*
X13485000Y-9960000D02*
X13525000Y-10000000D01*
X13525000Y-9960000D02*
X13485000Y-10000000D01*
X13505000Y-10430000D02*
X13545000Y-10470000D01*
X13545000Y-10430000D02*
X13505000Y-10470000D01*
X13505000Y-10670000D02*
X13545000Y-10710000D01*
X13545000Y-10670000D02*
X13505000Y-10710000D01*
X13505000Y-10880000D02*
X13545000Y-10920000D01*
X13545000Y-10880000D02*
X13505000Y-10920000D01*
X13515000Y-11110000D02*
X13555000Y-11150000D01*
X13555000Y-11110000D02*
X13515000Y-11150000D01*
X13525000Y-11310000D02*
X13565000Y-11350000D01*
X13565000Y-11310000D02*
X13525000Y-11350000D01*
X13650000Y-8500000D02*
X13690000Y-8540000D01*
X13690000Y-8500000D02*
X13650000Y-8540000D01*
X13660000Y-8755000D02*
X13700000Y-8795000D01*
X13700000Y-8755000D02*
X13660000Y-8795000D01*
X13665000Y-9035000D02*
X13705000Y-9075000D01*
X13705000Y-9035000D02*
X13665000Y-9075000D01*
X13670000Y-10290000D02*
X13710000Y-10330000D01*
X13710000Y-10290000D02*
X13670000Y-10330000D01*
X13675000Y-9270000D02*
X13715000Y-9310000D01*
X13715000Y-9270000D02*
X13675000Y-9310000D01*
X13675000Y-9505000D02*
X13715000Y-9545000D01*
X13715000Y-9505000D02*
X13675000Y-9545000D01*
X13675000Y-9715000D02*
X13715000Y-9755000D01*
X13715000Y-9715000D02*
X13675000Y-9755000D01*
X13675000Y-9885000D02*
X13715000Y-9925000D01*
X13715000Y-9885000D02*
X13675000Y-9925000D01*
X13675000Y-10065000D02*
X13715000Y-10105000D01*
X13715000Y-10065000D02*
X13675000Y-10105000D01*
X13705000Y-10530000D02*
X13745000Y-10570000D01*
X13745000Y-10530000D02*
X13705000Y-10570000D01*
X13720000Y-10775000D02*
X13760000Y-10815000D01*
X13760000Y-10775000D02*
X13720000Y-10815000D01*
X13720000Y-10980000D02*
X13760000Y-11020000D01*
X13760000Y-10980000D02*
X13720000Y-11020000D01*
X13855000Y-8890000D02*
X13895000Y-8930000D01*
X13895000Y-8890000D02*
X13855000Y-8930000D01*
X13860000Y-9150000D02*
X13900000Y-9190000D01*
X13900000Y-9150000D02*
X13860000Y-9190000D01*
X13875000Y-9380000D02*
X13915000Y-9420000D01*
X13915000Y-9380000D02*
X13875000Y-9420000D01*
X13875000Y-9615000D02*
X13915000Y-9655000D01*
X13915000Y-9615000D02*
X13875000Y-9655000D01*
X13880000Y-9820000D02*
X13920000Y-9860000D01*
X13920000Y-9820000D02*
X13880000Y-9860000D01*
X13895000Y-9975000D02*
X13935000Y-10015000D01*
X13935000Y-9975000D02*
X13895000Y-10015000D01*
X13905000Y-10130000D02*
X13945000Y-10170000D01*
X13945000Y-10130000D02*
X13905000Y-10170000D01*
X13905000Y-10375000D02*
X13945000Y-10415000D01*
X13945000Y-10375000D02*
X13905000Y-10415000D01*
X13905000Y-10640000D02*
X13945000Y-10680000D01*
X13945000Y-10640000D02*
X13905000Y-10680000D01*
D13*
X11925000Y-9850000D02*
G75*
G03*
X11925000Y-9850000I-75000J0D01*
G01*
D14*
X11595000Y-9510000D02*
X11595000Y-9680000D01*
X11510000Y-9595000D02*
X11680000Y-9595000D01*
X11595000Y-10020000D02*
X11595000Y-10190000D01*
X11510000Y-10105000D02*
X11680000Y-10105000D01*
X12105000Y-9510000D02*
X12105000Y-9680000D01*
X12020000Y-9595000D02*
X12190000Y-9595000D01*
X12105000Y-10020000D02*
X12105000Y-10190000D01*
X12020000Y-10105000D02*
X12190000Y-10105000D01*
D15*
X7659360Y-6198960D02*
X7659360Y-6008040D01*
X7468440Y-6008040D01*
X7468440Y-6198960D01*
X7659360Y-6198960D01*
X7659360Y-13564960D02*
X7659360Y-13374040D01*
X7468440Y-13374040D01*
X7468440Y-13564960D01*
X7659360Y-13564960D01*
X16231860Y-5944960D02*
X16231860Y-5754040D01*
X16040940Y-5754040D01*
X16040940Y-5944960D01*
X16231860Y-5944960D01*
X16231860Y-13945960D02*
X16231860Y-13755040D01*
X16040940Y-13755040D01*
X16040940Y-13945960D01*
X16231860Y-13945960D01*
D16*
X7355000Y-5540000D02*
X7540000Y-5355000D01*
X7355000Y-5170000D01*
X7170000Y-5355000D01*
X7355000Y-5540000D01*
X7355000Y-14530000D02*
X7540000Y-14345000D01*
X7355000Y-14160000D01*
X7170000Y-14345000D01*
X7355000Y-14530000D01*
X16345000Y-5540000D02*
X16530000Y-5355000D01*
X16345000Y-5170000D01*
X16160000Y-5355000D01*
X16345000Y-5540000D01*
X16345000Y-14530000D02*
X16530000Y-14345000D01*
X16345000Y-14160000D01*
X16160000Y-14345000D01*
X16345000Y-14530000D01*
D11*
X7252619Y-15015476D02*
X7252619Y-14815476D01*
X7300238Y-14815476D01*
X7328809Y-14825000D01*
X7347857Y-14844048D01*
X7357381Y-14863095D01*
X7366905Y-14901190D01*
X7366905Y-14929762D01*
X7357381Y-14967857D01*
X7347857Y-14986905D01*
X7328809Y-15005952D01*
X7300238Y-15015476D01*
X7252619Y-15015476D01*
X7452619Y-15015476D02*
X7452619Y-14882143D01*
X7452619Y-14920238D02*
X7462143Y-14901190D01*
X7471667Y-14891667D01*
X7490714Y-14882143D01*
X7509762Y-14882143D01*
X7576428Y-15015476D02*
X7576428Y-14882143D01*
X7576428Y-14815476D02*
X7566905Y-14825000D01*
X7576428Y-14834524D01*
X7585952Y-14825000D01*
X7576428Y-14815476D01*
X7576428Y-14834524D01*
X7700238Y-15015476D02*
X7681190Y-15005952D01*
X7671667Y-14986905D01*
X7671667Y-14815476D01*
X7805000Y-15015476D02*
X7785952Y-15005952D01*
X7776428Y-14986905D01*
X7776428Y-14815476D01*
X8033571Y-15015476D02*
X8033571Y-14815476D01*
X8100238Y-14958333D01*
X8166905Y-14815476D01*
X8166905Y-15015476D01*
X8347857Y-15015476D02*
X8347857Y-14910714D01*
X8338333Y-14891667D01*
X8319286Y-14882143D01*
X8281190Y-14882143D01*
X8262143Y-14891667D01*
X8347857Y-15005952D02*
X8328809Y-15015476D01*
X8281190Y-15015476D01*
X8262143Y-15005952D01*
X8252619Y-14986905D01*
X8252619Y-14967857D01*
X8262143Y-14948809D01*
X8281190Y-14939286D01*
X8328809Y-14939286D01*
X8347857Y-14929762D01*
X8443095Y-14882143D02*
X8443095Y-15082143D01*
X8443095Y-14891667D02*
X8462143Y-14882143D01*
X8500238Y-14882143D01*
X8519286Y-14891667D01*
X8528810Y-14901190D01*
X8538333Y-14920238D01*
X8538333Y-14977381D01*
X8528810Y-14996428D01*
X8519286Y-15005952D01*
X8500238Y-15015476D01*
X8462143Y-15015476D01*
X8443095Y-15005952D01*
X8624048Y-14996428D02*
X8633571Y-15005952D01*
X8624048Y-15015476D01*
X8614524Y-15005952D01*
X8624048Y-14996428D01*
X8624048Y-15015476D01*
X8624048Y-14891667D02*
X8633571Y-14901190D01*
X8624048Y-14910714D01*
X8614524Y-14901190D01*
X8624048Y-14891667D01*
X8624048Y-14910714D01*
D12*
X6955000Y-15325000D02*
X6995000Y-15365000D01*
X6995000Y-15325000D02*
X6955000Y-15365000D01*
D11*
X7290714Y-15235476D02*
X7309762Y-15235476D01*
X7328809Y-15245000D01*
X7338333Y-15254524D01*
X7347857Y-15273571D01*
X7357381Y-15311667D01*
X7357381Y-15359286D01*
X7347857Y-15397381D01*
X7338333Y-15416428D01*
X7328809Y-15425952D01*
X7309762Y-15435476D01*
X7290714Y-15435476D01*
X7271667Y-15425952D01*
X7262143Y-15416428D01*
X7252619Y-15397381D01*
X7243095Y-15359286D01*
X7243095Y-15311667D01*
X7252619Y-15273571D01*
X7262143Y-15254524D01*
X7271667Y-15245000D01*
X7290714Y-15235476D01*
X7443095Y-15416428D02*
X7452619Y-15425952D01*
X7443095Y-15435476D01*
X7433571Y-15425952D01*
X7443095Y-15416428D01*
X7443095Y-15435476D01*
X7624048Y-15302143D02*
X7624048Y-15435476D01*
X7576428Y-15225952D02*
X7528809Y-15368809D01*
X7652619Y-15368809D01*
X7766905Y-15235476D02*
X7785952Y-15235476D01*
X7805000Y-15245000D01*
X7814524Y-15254524D01*
X7824048Y-15273571D01*
X7833571Y-15311667D01*
X7833571Y-15359286D01*
X7824048Y-15397381D01*
X7814524Y-15416428D01*
X7805000Y-15425952D01*
X7785952Y-15435476D01*
X7766905Y-15435476D01*
X7747857Y-15425952D01*
X7738333Y-15416428D01*
X7728809Y-15397381D01*
X7719286Y-15359286D01*
X7719286Y-15311667D01*
X7728809Y-15273571D01*
X7738333Y-15254524D01*
X7747857Y-15245000D01*
X7766905Y-15235476D01*
X7957381Y-15235476D02*
X7976428Y-15235476D01*
X7995476Y-15245000D01*
X8005000Y-15254524D01*
X8014524Y-15273571D01*
X8024048Y-15311667D01*
X8024048Y-15359286D01*
X8014524Y-15397381D01*
X8005000Y-15416428D01*
X7995476Y-15425952D01*
X7976428Y-15435476D01*
X7957381Y-15435476D01*
X7938333Y-15425952D01*
X7928809Y-15416428D01*
X7919286Y-15397381D01*
X7909762Y-15359286D01*
X7909762Y-15311667D01*
X7919286Y-15273571D01*
X7928809Y-15254524D01*
X7938333Y-15245000D01*
X7957381Y-15235476D01*
X8109762Y-15435476D02*
X8109762Y-15302143D01*
X8109762Y-15321190D02*
X8119286Y-15311667D01*
X8138333Y-15302143D01*
X8166905Y-15302143D01*
X8185952Y-15311667D01*
X8195476Y-15330714D01*
X8195476Y-15435476D01*
X8195476Y-15330714D02*
X8205000Y-15311667D01*
X8224048Y-15302143D01*
X8252619Y-15302143D01*
X8271667Y-15311667D01*
X8281190Y-15330714D01*
X8281190Y-15435476D01*
X8376428Y-15435476D02*
X8376428Y-15302143D01*
X8376428Y-15321190D02*
X8385952Y-15311667D01*
X8405000Y-15302143D01*
X8433571Y-15302143D01*
X8452619Y-15311667D01*
X8462143Y-15330714D01*
X8462143Y-15435476D01*
X8462143Y-15330714D02*
X8471667Y-15311667D01*
X8490714Y-15302143D01*
X8519286Y-15302143D01*
X8538333Y-15311667D01*
X8547857Y-15330714D01*
X8547857Y-15435476D01*
X8938333Y-15225952D02*
X8766905Y-15483095D01*
X9195476Y-15235476D02*
X9214524Y-15235476D01*
X9233571Y-15245000D01*
X9243095Y-15254524D01*
X9252619Y-15273571D01*
X9262143Y-15311667D01*
X9262143Y-15359286D01*
X9252619Y-15397381D01*
X9243095Y-15416428D01*
X9233571Y-15425952D01*
X9214524Y-15435476D01*
X9195476Y-15435476D01*
X9176429Y-15425952D01*
X9166905Y-15416428D01*
X9157381Y-15397381D01*
X9147857Y-15359286D01*
X9147857Y-15311667D01*
X9157381Y-15273571D01*
X9166905Y-15254524D01*
X9176429Y-15245000D01*
X9195476Y-15235476D01*
X9347857Y-15416428D02*
X9357381Y-15425952D01*
X9347857Y-15435476D01*
X9338333Y-15425952D01*
X9347857Y-15416428D01*
X9347857Y-15435476D01*
X9481190Y-15235476D02*
X9500238Y-15235476D01*
X9519286Y-15245000D01*
X9528810Y-15254524D01*
X9538333Y-15273571D01*
X9547857Y-15311667D01*
X9547857Y-15359286D01*
X9538333Y-15397381D01*
X9528810Y-15416428D01*
X9519286Y-15425952D01*
X9500238Y-15435476D01*
X9481190Y-15435476D01*
X9462143Y-15425952D01*
X9452619Y-15416428D01*
X9443095Y-15397381D01*
X9433571Y-15359286D01*
X9433571Y-15311667D01*
X9443095Y-15273571D01*
X9452619Y-15254524D01*
X9462143Y-15245000D01*
X9481190Y-15235476D01*
X9738333Y-15435476D02*
X9624048Y-15435476D01*
X9681190Y-15435476D02*
X9681190Y-15235476D01*
X9662143Y-15264048D01*
X9643095Y-15283095D01*
X9624048Y-15292619D01*
X9919286Y-15235476D02*
X9824048Y-15235476D01*
X9814524Y-15330714D01*
X9824048Y-15321190D01*
X9843095Y-15311667D01*
X9890714Y-15311667D01*
X9909762Y-15321190D01*
X9919286Y-15330714D01*
X9928810Y-15349762D01*
X9928810Y-15397381D01*
X9919286Y-15416428D01*
X9909762Y-15425952D01*
X9890714Y-15435476D01*
X9843095Y-15435476D01*
X9824048Y-15425952D01*
X9814524Y-15416428D01*
X9995476Y-15235476D02*
X10128810Y-15235476D01*
X10043095Y-15435476D01*
X10195476Y-15235476D02*
X10195476Y-15273571D01*
X10271667Y-15235476D02*
X10271667Y-15273571D01*
X10566905Y-15511667D02*
X10557381Y-15502143D01*
X10538333Y-15473571D01*
X10528810Y-15454524D01*
X10519286Y-15425952D01*
X10509762Y-15378333D01*
X10509762Y-15340238D01*
X10519286Y-15292619D01*
X10528810Y-15264048D01*
X10538333Y-15245000D01*
X10557381Y-15216428D01*
X10566905Y-15206905D01*
X10633571Y-15254524D02*
X10643095Y-15245000D01*
X10662143Y-15235476D01*
X10709762Y-15235476D01*
X10728810Y-15245000D01*
X10738333Y-15254524D01*
X10747857Y-15273571D01*
X10747857Y-15292619D01*
X10738333Y-15321190D01*
X10624048Y-15435476D01*
X10747857Y-15435476D01*
X10871667Y-15235476D02*
X10890714Y-15235476D01*
X10909762Y-15245000D01*
X10919286Y-15254524D01*
X10928810Y-15273571D01*
X10938333Y-15311667D01*
X10938333Y-15359286D01*
X10928810Y-15397381D01*
X10919286Y-15416428D01*
X10909762Y-15425952D01*
X10890714Y-15435476D01*
X10871667Y-15435476D01*
X10852619Y-15425952D01*
X10843095Y-15416428D01*
X10833571Y-15397381D01*
X10824048Y-15359286D01*
X10824048Y-15311667D01*
X10833571Y-15273571D01*
X10843095Y-15254524D01*
X10852619Y-15245000D01*
X10871667Y-15235476D01*
X11033571Y-15435476D02*
X11071667Y-15435476D01*
X11090714Y-15425952D01*
X11100238Y-15416428D01*
X11119286Y-15387857D01*
X11128810Y-15349762D01*
X11128810Y-15273571D01*
X11119286Y-15254524D01*
X11109762Y-15245000D01*
X11090714Y-15235476D01*
X11052619Y-15235476D01*
X11033571Y-15245000D01*
X11024048Y-15254524D01*
X11014524Y-15273571D01*
X11014524Y-15321190D01*
X11024048Y-15340238D01*
X11033571Y-15349762D01*
X11052619Y-15359286D01*
X11090714Y-15359286D01*
X11109762Y-15349762D01*
X11119286Y-15340238D01*
X11128810Y-15321190D01*
X11366905Y-15435476D02*
X11366905Y-15235476D01*
X11452619Y-15435476D02*
X11452619Y-15330714D01*
X11443095Y-15311667D01*
X11424048Y-15302143D01*
X11395476Y-15302143D01*
X11376428Y-15311667D01*
X11366905Y-15321190D01*
X11576428Y-15435476D02*
X11557381Y-15425952D01*
X11547857Y-15416428D01*
X11538333Y-15397381D01*
X11538333Y-15340238D01*
X11547857Y-15321190D01*
X11557381Y-15311667D01*
X11576428Y-15302143D01*
X11605000Y-15302143D01*
X11624048Y-15311667D01*
X11633571Y-15321190D01*
X11643095Y-15340238D01*
X11643095Y-15397381D01*
X11633571Y-15416428D01*
X11624048Y-15425952D01*
X11605000Y-15435476D01*
X11576428Y-15435476D01*
X11757381Y-15435476D02*
X11738333Y-15425952D01*
X11728809Y-15406905D01*
X11728809Y-15235476D01*
X11909762Y-15425952D02*
X11890714Y-15435476D01*
X11852619Y-15435476D01*
X11833571Y-15425952D01*
X11824048Y-15406905D01*
X11824048Y-15330714D01*
X11833571Y-15311667D01*
X11852619Y-15302143D01*
X11890714Y-15302143D01*
X11909762Y-15311667D01*
X11919286Y-15330714D01*
X11919286Y-15349762D01*
X11824048Y-15368809D01*
X11995476Y-15425952D02*
X12014524Y-15435476D01*
X12052619Y-15435476D01*
X12071667Y-15425952D01*
X12081190Y-15406905D01*
X12081190Y-15397381D01*
X12071667Y-15378333D01*
X12052619Y-15368809D01*
X12024048Y-15368809D01*
X12005000Y-15359286D01*
X11995476Y-15340238D01*
X11995476Y-15330714D01*
X12005000Y-15311667D01*
X12024048Y-15302143D01*
X12052619Y-15302143D01*
X12071667Y-15311667D01*
X12147857Y-15511667D02*
X12157381Y-15502143D01*
X12176428Y-15473571D01*
X12185952Y-15454524D01*
X12195476Y-15425952D01*
X12205000Y-15378333D01*
X12205000Y-15340238D01*
X12195476Y-15292619D01*
X12185952Y-15264048D01*
X12176428Y-15245000D01*
X12157381Y-15216428D01*
X12147857Y-15206905D01*
D13*
X6995000Y-15609000D02*
G75*
G03*
X6995000Y-15609000I-75000J0D01*
G01*
D11*
X7357381Y-15699476D02*
X7243095Y-15699476D01*
X7300238Y-15699476D02*
X7300238Y-15499476D01*
X7281190Y-15528048D01*
X7262143Y-15547095D01*
X7243095Y-15556619D01*
X7443095Y-15680428D02*
X7452619Y-15689952D01*
X7443095Y-15699476D01*
X7433571Y-15689952D01*
X7443095Y-15680428D01*
X7443095Y-15699476D01*
X7633571Y-15499476D02*
X7538333Y-15499476D01*
X7528809Y-15594714D01*
X7538333Y-15585190D01*
X7557381Y-15575667D01*
X7605000Y-15575667D01*
X7624048Y-15585190D01*
X7633571Y-15594714D01*
X7643095Y-15613762D01*
X7643095Y-15661381D01*
X7633571Y-15680428D01*
X7624048Y-15689952D01*
X7605000Y-15699476D01*
X7557381Y-15699476D01*
X7538333Y-15689952D01*
X7528809Y-15680428D01*
X7766905Y-15499476D02*
X7785952Y-15499476D01*
X7805000Y-15509000D01*
X7814524Y-15518524D01*
X7824048Y-15537571D01*
X7833571Y-15575667D01*
X7833571Y-15623286D01*
X7824048Y-15661381D01*
X7814524Y-15680428D01*
X7805000Y-15689952D01*
X7785952Y-15699476D01*
X7766905Y-15699476D01*
X7747857Y-15689952D01*
X7738333Y-15680428D01*
X7728809Y-15661381D01*
X7719286Y-15623286D01*
X7719286Y-15575667D01*
X7728809Y-15537571D01*
X7738333Y-15518524D01*
X7747857Y-15509000D01*
X7766905Y-15499476D01*
X7957381Y-15499476D02*
X7976428Y-15499476D01*
X7995476Y-15509000D01*
X8005000Y-15518524D01*
X8014524Y-15537571D01*
X8024048Y-15575667D01*
X8024048Y-15623286D01*
X8014524Y-15661381D01*
X8005000Y-15680428D01*
X7995476Y-15689952D01*
X7976428Y-15699476D01*
X7957381Y-15699476D01*
X7938333Y-15689952D01*
X7928809Y-15680428D01*
X7919286Y-15661381D01*
X7909762Y-15623286D01*
X7909762Y-15575667D01*
X7919286Y-15537571D01*
X7928809Y-15518524D01*
X7938333Y-15509000D01*
X7957381Y-15499476D01*
X8109762Y-15699476D02*
X8109762Y-15566143D01*
X8109762Y-15585190D02*
X8119286Y-15575667D01*
X8138333Y-15566143D01*
X8166905Y-15566143D01*
X8185952Y-15575667D01*
X8195476Y-15594714D01*
X8195476Y-15699476D01*
X8195476Y-15594714D02*
X8205000Y-15575667D01*
X8224048Y-15566143D01*
X8252619Y-15566143D01*
X8271667Y-15575667D01*
X8281190Y-15594714D01*
X8281190Y-15699476D01*
X8376428Y-15699476D02*
X8376428Y-15566143D01*
X8376428Y-15585190D02*
X8385952Y-15575667D01*
X8405000Y-15566143D01*
X8433571Y-15566143D01*
X8452619Y-15575667D01*
X8462143Y-15594714D01*
X8462143Y-15699476D01*
X8462143Y-15594714D02*
X8471667Y-15575667D01*
X8490714Y-15566143D01*
X8519286Y-15566143D01*
X8538333Y-15575667D01*
X8547857Y-15594714D01*
X8547857Y-15699476D01*
X8938333Y-15489952D02*
X8766905Y-15747095D01*
X9195476Y-15499476D02*
X9214524Y-15499476D01*
X9233571Y-15509000D01*
X9243095Y-15518524D01*
X9252619Y-15537571D01*
X9262143Y-15575667D01*
X9262143Y-15623286D01*
X9252619Y-15661381D01*
X9243095Y-15680428D01*
X9233571Y-15689952D01*
X9214524Y-15699476D01*
X9195476Y-15699476D01*
X9176429Y-15689952D01*
X9166905Y-15680428D01*
X9157381Y-15661381D01*
X9147857Y-15623286D01*
X9147857Y-15575667D01*
X9157381Y-15537571D01*
X9166905Y-15518524D01*
X9176429Y-15509000D01*
X9195476Y-15499476D01*
X9347857Y-15680428D02*
X9357381Y-15689952D01*
X9347857Y-15699476D01*
X9338333Y-15689952D01*
X9347857Y-15680428D01*
X9347857Y-15699476D01*
X9481190Y-15499476D02*
X9500238Y-15499476D01*
X9519286Y-15509000D01*
X9528810Y-15518524D01*
X9538333Y-15537571D01*
X9547857Y-15575667D01*
X9547857Y-15623286D01*
X9538333Y-15661381D01*
X9528810Y-15680428D01*
X9519286Y-15689952D01*
X9500238Y-15699476D01*
X9481190Y-15699476D01*
X9462143Y-15689952D01*
X9452619Y-15680428D01*
X9443095Y-15661381D01*
X9433571Y-15623286D01*
X9433571Y-15575667D01*
X9443095Y-15537571D01*
X9452619Y-15518524D01*
X9462143Y-15509000D01*
X9481190Y-15499476D01*
X9728810Y-15499476D02*
X9633571Y-15499476D01*
X9624048Y-15594714D01*
X9633571Y-15585190D01*
X9652619Y-15575667D01*
X9700238Y-15575667D01*
X9719286Y-15585190D01*
X9728810Y-15594714D01*
X9738333Y-15613762D01*
X9738333Y-15661381D01*
X9728810Y-15680428D01*
X9719286Y-15689952D01*
X9700238Y-15699476D01*
X9652619Y-15699476D01*
X9633571Y-15689952D01*
X9624048Y-15680428D01*
X9833571Y-15699476D02*
X9871667Y-15699476D01*
X9890714Y-15689952D01*
X9900238Y-15680428D01*
X9919286Y-15651857D01*
X9928810Y-15613762D01*
X9928810Y-15537571D01*
X9919286Y-15518524D01*
X9909762Y-15509000D01*
X9890714Y-15499476D01*
X9852619Y-15499476D01*
X9833571Y-15509000D01*
X9824048Y-15518524D01*
X9814524Y-15537571D01*
X9814524Y-15585190D01*
X9824048Y-15604238D01*
X9833571Y-15613762D01*
X9852619Y-15623286D01*
X9890714Y-15623286D01*
X9909762Y-15613762D01*
X9919286Y-15604238D01*
X9928810Y-15585190D01*
X10119286Y-15699476D02*
X10005000Y-15699476D01*
X10062143Y-15699476D02*
X10062143Y-15499476D01*
X10043095Y-15528048D01*
X10024048Y-15547095D01*
X10005000Y-15556619D01*
X10195476Y-15499476D02*
X10195476Y-15537571D01*
X10271667Y-15499476D02*
X10271667Y-15537571D01*
X10566905Y-15775667D02*
X10557381Y-15766143D01*
X10538333Y-15737571D01*
X10528810Y-15718524D01*
X10519286Y-15689952D01*
X10509762Y-15642333D01*
X10509762Y-15604238D01*
X10519286Y-15556619D01*
X10528810Y-15528048D01*
X10538333Y-15509000D01*
X10557381Y-15480428D01*
X10566905Y-15470905D01*
X10747857Y-15699476D02*
X10633571Y-15699476D01*
X10690714Y-15699476D02*
X10690714Y-15499476D01*
X10671667Y-15528048D01*
X10652619Y-15547095D01*
X10633571Y-15556619D01*
X10985952Y-15699476D02*
X10985952Y-15499476D01*
X11071667Y-15699476D02*
X11071667Y-15594714D01*
X11062143Y-15575667D01*
X11043095Y-15566143D01*
X11014524Y-15566143D01*
X10995476Y-15575667D01*
X10985952Y-15585190D01*
X11195476Y-15699476D02*
X11176429Y-15689952D01*
X11166905Y-15680428D01*
X11157381Y-15661381D01*
X11157381Y-15604238D01*
X11166905Y-15585190D01*
X11176429Y-15575667D01*
X11195476Y-15566143D01*
X11224048Y-15566143D01*
X11243095Y-15575667D01*
X11252619Y-15585190D01*
X11262143Y-15604238D01*
X11262143Y-15661381D01*
X11252619Y-15680428D01*
X11243095Y-15689952D01*
X11224048Y-15699476D01*
X11195476Y-15699476D01*
X11376428Y-15699476D02*
X11357381Y-15689952D01*
X11347857Y-15670905D01*
X11347857Y-15499476D01*
X11528809Y-15689952D02*
X11509762Y-15699476D01*
X11471667Y-15699476D01*
X11452619Y-15689952D01*
X11443095Y-15670905D01*
X11443095Y-15594714D01*
X11452619Y-15575667D01*
X11471667Y-15566143D01*
X11509762Y-15566143D01*
X11528809Y-15575667D01*
X11538333Y-15594714D01*
X11538333Y-15613762D01*
X11443095Y-15632809D01*
X11605000Y-15775667D02*
X11614524Y-15766143D01*
X11633571Y-15737571D01*
X11643095Y-15718524D01*
X11652619Y-15689952D01*
X11662143Y-15642333D01*
X11662143Y-15604238D01*
X11652619Y-15556619D01*
X11643095Y-15528048D01*
X11633571Y-15509000D01*
X11614524Y-15480428D01*
X11605000Y-15470905D01*
D14*
X6910000Y-15794000D02*
X6910000Y-15964000D01*
X6825000Y-15879000D02*
X6995000Y-15879000D01*
D11*
X7357381Y-15969476D02*
X7243095Y-15969476D01*
X7300238Y-15969476D02*
X7300238Y-15769476D01*
X7281190Y-15798048D01*
X7262143Y-15817095D01*
X7243095Y-15826619D01*
X7443095Y-15950428D02*
X7452619Y-15959952D01*
X7443095Y-15969476D01*
X7433571Y-15959952D01*
X7443095Y-15950428D01*
X7443095Y-15969476D01*
X7519286Y-15769476D02*
X7652619Y-15769476D01*
X7566905Y-15969476D01*
X7766905Y-15769476D02*
X7785952Y-15769476D01*
X7805000Y-15779000D01*
X7814524Y-15788524D01*
X7824048Y-15807571D01*
X7833571Y-15845667D01*
X7833571Y-15893286D01*
X7824048Y-15931381D01*
X7814524Y-15950428D01*
X7805000Y-15959952D01*
X7785952Y-15969476D01*
X7766905Y-15969476D01*
X7747857Y-15959952D01*
X7738333Y-15950428D01*
X7728809Y-15931381D01*
X7719286Y-15893286D01*
X7719286Y-15845667D01*
X7728809Y-15807571D01*
X7738333Y-15788524D01*
X7747857Y-15779000D01*
X7766905Y-15769476D01*
X7957381Y-15769476D02*
X7976428Y-15769476D01*
X7995476Y-15779000D01*
X8005000Y-15788524D01*
X8014524Y-15807571D01*
X8024048Y-15845667D01*
X8024048Y-15893286D01*
X8014524Y-15931381D01*
X8005000Y-15950428D01*
X7995476Y-15959952D01*
X7976428Y-15969476D01*
X7957381Y-15969476D01*
X7938333Y-15959952D01*
X7928809Y-15950428D01*
X7919286Y-15931381D01*
X7909762Y-15893286D01*
X7909762Y-15845667D01*
X7919286Y-15807571D01*
X7928809Y-15788524D01*
X7938333Y-15779000D01*
X7957381Y-15769476D01*
X8109762Y-15969476D02*
X8109762Y-15836143D01*
X8109762Y-15855190D02*
X8119286Y-15845667D01*
X8138333Y-15836143D01*
X8166905Y-15836143D01*
X8185952Y-15845667D01*
X8195476Y-15864714D01*
X8195476Y-15969476D01*
X8195476Y-15864714D02*
X8205000Y-15845667D01*
X8224048Y-15836143D01*
X8252619Y-15836143D01*
X8271667Y-15845667D01*
X8281190Y-15864714D01*
X8281190Y-15969476D01*
X8376428Y-15969476D02*
X8376428Y-15836143D01*
X8376428Y-15855190D02*
X8385952Y-15845667D01*
X8405000Y-15836143D01*
X8433571Y-15836143D01*
X8452619Y-15845667D01*
X8462143Y-15864714D01*
X8462143Y-15969476D01*
X8462143Y-15864714D02*
X8471667Y-15845667D01*
X8490714Y-15836143D01*
X8519286Y-15836143D01*
X8538333Y-15845667D01*
X8547857Y-15864714D01*
X8547857Y-15969476D01*
X8938333Y-15759952D02*
X8766905Y-16017095D01*
X9195476Y-15769476D02*
X9214524Y-15769476D01*
X9233571Y-15779000D01*
X9243095Y-15788524D01*
X9252619Y-15807571D01*
X9262143Y-15845667D01*
X9262143Y-15893286D01*
X9252619Y-15931381D01*
X9243095Y-15950428D01*
X9233571Y-15959952D01*
X9214524Y-15969476D01*
X9195476Y-15969476D01*
X9176429Y-15959952D01*
X9166905Y-15950428D01*
X9157381Y-15931381D01*
X9147857Y-15893286D01*
X9147857Y-15845667D01*
X9157381Y-15807571D01*
X9166905Y-15788524D01*
X9176429Y-15779000D01*
X9195476Y-15769476D01*
X9347857Y-15950428D02*
X9357381Y-15959952D01*
X9347857Y-15969476D01*
X9338333Y-15959952D01*
X9347857Y-15950428D01*
X9347857Y-15969476D01*
X9481190Y-15769476D02*
X9500238Y-15769476D01*
X9519286Y-15779000D01*
X9528810Y-15788524D01*
X9538333Y-15807571D01*
X9547857Y-15845667D01*
X9547857Y-15893286D01*
X9538333Y-15931381D01*
X9528810Y-15950428D01*
X9519286Y-15959952D01*
X9500238Y-15969476D01*
X9481190Y-15969476D01*
X9462143Y-15959952D01*
X9452619Y-15950428D01*
X9443095Y-15931381D01*
X9433571Y-15893286D01*
X9433571Y-15845667D01*
X9443095Y-15807571D01*
X9452619Y-15788524D01*
X9462143Y-15779000D01*
X9481190Y-15769476D01*
X9719286Y-15769476D02*
X9681190Y-15769476D01*
X9662143Y-15779000D01*
X9652619Y-15788524D01*
X9633571Y-15817095D01*
X9624048Y-15855190D01*
X9624048Y-15931381D01*
X9633571Y-15950428D01*
X9643095Y-15959952D01*
X9662143Y-15969476D01*
X9700238Y-15969476D01*
X9719286Y-15959952D01*
X9728810Y-15950428D01*
X9738333Y-15931381D01*
X9738333Y-15883762D01*
X9728810Y-15864714D01*
X9719286Y-15855190D01*
X9700238Y-15845667D01*
X9662143Y-15845667D01*
X9643095Y-15855190D01*
X9633571Y-15864714D01*
X9624048Y-15883762D01*
X9909762Y-15769476D02*
X9871667Y-15769476D01*
X9852619Y-15779000D01*
X9843095Y-15788524D01*
X9824048Y-15817095D01*
X9814524Y-15855190D01*
X9814524Y-15931381D01*
X9824048Y-15950428D01*
X9833571Y-15959952D01*
X9852619Y-15969476D01*
X9890714Y-15969476D01*
X9909762Y-15959952D01*
X9919286Y-15950428D01*
X9928810Y-15931381D01*
X9928810Y-15883762D01*
X9919286Y-15864714D01*
X9909762Y-15855190D01*
X9890714Y-15845667D01*
X9852619Y-15845667D01*
X9833571Y-15855190D01*
X9824048Y-15864714D01*
X9814524Y-15883762D01*
X10024048Y-15969476D02*
X10062143Y-15969476D01*
X10081190Y-15959952D01*
X10090714Y-15950428D01*
X10109762Y-15921857D01*
X10119286Y-15883762D01*
X10119286Y-15807571D01*
X10109762Y-15788524D01*
X10100238Y-15779000D01*
X10081190Y-15769476D01*
X10043095Y-15769476D01*
X10024048Y-15779000D01*
X10014524Y-15788524D01*
X10005000Y-15807571D01*
X10005000Y-15855190D01*
X10014524Y-15874238D01*
X10024048Y-15883762D01*
X10043095Y-15893286D01*
X10081190Y-15893286D01*
X10100238Y-15883762D01*
X10109762Y-15874238D01*
X10119286Y-15855190D01*
X10195476Y-15769476D02*
X10195476Y-15807571D01*
X10271667Y-15769476D02*
X10271667Y-15807571D01*
X10566905Y-16045667D02*
X10557381Y-16036143D01*
X10538333Y-16007571D01*
X10528810Y-15988524D01*
X10519286Y-15959952D01*
X10509762Y-15912333D01*
X10509762Y-15874238D01*
X10519286Y-15826619D01*
X10528810Y-15798048D01*
X10538333Y-15779000D01*
X10557381Y-15750428D01*
X10566905Y-15740905D01*
X10728810Y-15836143D02*
X10728810Y-15969476D01*
X10681190Y-15759952D02*
X10633571Y-15902809D01*
X10757381Y-15902809D01*
X10985952Y-15969476D02*
X10985952Y-15769476D01*
X11071667Y-15969476D02*
X11071667Y-15864714D01*
X11062143Y-15845667D01*
X11043095Y-15836143D01*
X11014524Y-15836143D01*
X10995476Y-15845667D01*
X10985952Y-15855190D01*
X11195476Y-15969476D02*
X11176429Y-15959952D01*
X11166905Y-15950428D01*
X11157381Y-15931381D01*
X11157381Y-15874238D01*
X11166905Y-15855190D01*
X11176429Y-15845667D01*
X11195476Y-15836143D01*
X11224048Y-15836143D01*
X11243095Y-15845667D01*
X11252619Y-15855190D01*
X11262143Y-15874238D01*
X11262143Y-15931381D01*
X11252619Y-15950428D01*
X11243095Y-15959952D01*
X11224048Y-15969476D01*
X11195476Y-15969476D01*
X11376428Y-15969476D02*
X11357381Y-15959952D01*
X11347857Y-15940905D01*
X11347857Y-15769476D01*
X11528809Y-15959952D02*
X11509762Y-15969476D01*
X11471667Y-15969476D01*
X11452619Y-15959952D01*
X11443095Y-15940905D01*
X11443095Y-15864714D01*
X11452619Y-15845667D01*
X11471667Y-15836143D01*
X11509762Y-15836143D01*
X11528809Y-15845667D01*
X11538333Y-15864714D01*
X11538333Y-15883762D01*
X11443095Y-15902809D01*
X11614524Y-15959952D02*
X11633571Y-15969476D01*
X11671667Y-15969476D01*
X11690714Y-15959952D01*
X11700238Y-15940905D01*
X11700238Y-15931381D01*
X11690714Y-15912333D01*
X11671667Y-15902809D01*
X11643095Y-15902809D01*
X11624048Y-15893286D01*
X11614524Y-15874238D01*
X11614524Y-15864714D01*
X11624048Y-15845667D01*
X11643095Y-15836143D01*
X11671667Y-15836143D01*
X11690714Y-15845667D01*
X11766905Y-16045667D02*
X11776428Y-16036143D01*
X11795476Y-16007571D01*
X11805000Y-15988524D01*
X11814524Y-15959952D01*
X11824048Y-15912333D01*
X11824048Y-15874238D01*
X11814524Y-15826619D01*
X11805000Y-15798048D01*
X11795476Y-15779000D01*
X11776428Y-15750428D01*
X11766905Y-15740905D01*
X6965711Y-16239711D02*
X6965711Y-16098289D01*
X6824289Y-16098289D01*
X6824289Y-16239711D01*
X6965711Y-16239711D01*
X7243095Y-16078524D02*
X7252619Y-16069000D01*
X7271667Y-16059476D01*
X7319286Y-16059476D01*
X7338333Y-16069000D01*
X7347857Y-16078524D01*
X7357381Y-16097571D01*
X7357381Y-16116619D01*
X7347857Y-16145190D01*
X7233571Y-16259476D01*
X7357381Y-16259476D01*
X7443095Y-16240428D02*
X7452619Y-16249952D01*
X7443095Y-16259476D01*
X7433571Y-16249952D01*
X7443095Y-16240428D01*
X7443095Y-16259476D01*
X7519286Y-16059476D02*
X7652619Y-16059476D01*
X7566905Y-16259476D01*
X7766905Y-16059476D02*
X7785952Y-16059476D01*
X7805000Y-16069000D01*
X7814524Y-16078524D01*
X7824048Y-16097571D01*
X7833571Y-16135667D01*
X7833571Y-16183286D01*
X7824048Y-16221381D01*
X7814524Y-16240428D01*
X7805000Y-16249952D01*
X7785952Y-16259476D01*
X7766905Y-16259476D01*
X7747857Y-16249952D01*
X7738333Y-16240428D01*
X7728809Y-16221381D01*
X7719286Y-16183286D01*
X7719286Y-16135667D01*
X7728809Y-16097571D01*
X7738333Y-16078524D01*
X7747857Y-16069000D01*
X7766905Y-16059476D01*
X7957381Y-16059476D02*
X7976428Y-16059476D01*
X7995476Y-16069000D01*
X8005000Y-16078524D01*
X8014524Y-16097571D01*
X8024048Y-16135667D01*
X8024048Y-16183286D01*
X8014524Y-16221381D01*
X8005000Y-16240428D01*
X7995476Y-16249952D01*
X7976428Y-16259476D01*
X7957381Y-16259476D01*
X7938333Y-16249952D01*
X7928809Y-16240428D01*
X7919286Y-16221381D01*
X7909762Y-16183286D01*
X7909762Y-16135667D01*
X7919286Y-16097571D01*
X7928809Y-16078524D01*
X7938333Y-16069000D01*
X7957381Y-16059476D01*
X8109762Y-16259476D02*
X8109762Y-16126143D01*
X8109762Y-16145190D02*
X8119286Y-16135667D01*
X8138333Y-16126143D01*
X8166905Y-16126143D01*
X8185952Y-16135667D01*
X8195476Y-16154714D01*
X8195476Y-16259476D01*
X8195476Y-16154714D02*
X8205000Y-16135667D01*
X8224048Y-16126143D01*
X8252619Y-16126143D01*
X8271667Y-16135667D01*
X8281190Y-16154714D01*
X8281190Y-16259476D01*
X8376428Y-16259476D02*
X8376428Y-16126143D01*
X8376428Y-16145190D02*
X8385952Y-16135667D01*
X8405000Y-16126143D01*
X8433571Y-16126143D01*
X8452619Y-16135667D01*
X8462143Y-16154714D01*
X8462143Y-16259476D01*
X8462143Y-16154714D02*
X8471667Y-16135667D01*
X8490714Y-16126143D01*
X8519286Y-16126143D01*
X8538333Y-16135667D01*
X8547857Y-16154714D01*
X8547857Y-16259476D01*
X8938333Y-16049952D02*
X8766905Y-16307095D01*
X9195476Y-16059476D02*
X9214524Y-16059476D01*
X9233571Y-16069000D01*
X9243095Y-16078524D01*
X9252619Y-16097571D01*
X9262143Y-16135667D01*
X9262143Y-16183286D01*
X9252619Y-16221381D01*
X9243095Y-16240428D01*
X9233571Y-16249952D01*
X9214524Y-16259476D01*
X9195476Y-16259476D01*
X9176429Y-16249952D01*
X9166905Y-16240428D01*
X9157381Y-16221381D01*
X9147857Y-16183286D01*
X9147857Y-16135667D01*
X9157381Y-16097571D01*
X9166905Y-16078524D01*
X9176429Y-16069000D01*
X9195476Y-16059476D01*
X9347857Y-16240428D02*
X9357381Y-16249952D01*
X9347857Y-16259476D01*
X9338333Y-16249952D01*
X9347857Y-16240428D01*
X9347857Y-16259476D01*
X9547857Y-16259476D02*
X9433571Y-16259476D01*
X9490714Y-16259476D02*
X9490714Y-16059476D01*
X9471667Y-16088048D01*
X9452619Y-16107095D01*
X9433571Y-16116619D01*
X9671667Y-16059476D02*
X9690714Y-16059476D01*
X9709762Y-16069000D01*
X9719286Y-16078524D01*
X9728810Y-16097571D01*
X9738333Y-16135667D01*
X9738333Y-16183286D01*
X9728810Y-16221381D01*
X9719286Y-16240428D01*
X9709762Y-16249952D01*
X9690714Y-16259476D01*
X9671667Y-16259476D01*
X9652619Y-16249952D01*
X9643095Y-16240428D01*
X9633571Y-16221381D01*
X9624048Y-16183286D01*
X9624048Y-16135667D01*
X9633571Y-16097571D01*
X9643095Y-16078524D01*
X9652619Y-16069000D01*
X9671667Y-16059476D01*
X9909762Y-16059476D02*
X9871667Y-16059476D01*
X9852619Y-16069000D01*
X9843095Y-16078524D01*
X9824048Y-16107095D01*
X9814524Y-16145190D01*
X9814524Y-16221381D01*
X9824048Y-16240428D01*
X9833571Y-16249952D01*
X9852619Y-16259476D01*
X9890714Y-16259476D01*
X9909762Y-16249952D01*
X9919286Y-16240428D01*
X9928810Y-16221381D01*
X9928810Y-16173762D01*
X9919286Y-16154714D01*
X9909762Y-16145190D01*
X9890714Y-16135667D01*
X9852619Y-16135667D01*
X9833571Y-16145190D01*
X9824048Y-16154714D01*
X9814524Y-16173762D01*
X9995476Y-16059476D02*
X10119286Y-16059476D01*
X10052619Y-16135667D01*
X10081190Y-16135667D01*
X10100238Y-16145190D01*
X10109762Y-16154714D01*
X10119286Y-16173762D01*
X10119286Y-16221381D01*
X10109762Y-16240428D01*
X10100238Y-16249952D01*
X10081190Y-16259476D01*
X10024048Y-16259476D01*
X10005000Y-16249952D01*
X9995476Y-16240428D01*
X10195476Y-16059476D02*
X10195476Y-16097571D01*
X10271667Y-16059476D02*
X10271667Y-16097571D01*
X10566905Y-16335667D02*
X10557381Y-16326143D01*
X10538333Y-16297571D01*
X10528810Y-16278524D01*
X10519286Y-16249952D01*
X10509762Y-16202333D01*
X10509762Y-16164238D01*
X10519286Y-16116619D01*
X10528810Y-16088048D01*
X10538333Y-16069000D01*
X10557381Y-16040428D01*
X10566905Y-16030905D01*
X10728810Y-16126143D02*
X10728810Y-16259476D01*
X10681190Y-16049952D02*
X10633571Y-16192809D01*
X10757381Y-16192809D01*
X10985952Y-16259476D02*
X10985952Y-16059476D01*
X11071667Y-16259476D02*
X11071667Y-16154714D01*
X11062143Y-16135667D01*
X11043095Y-16126143D01*
X11014524Y-16126143D01*
X10995476Y-16135667D01*
X10985952Y-16145190D01*
X11195476Y-16259476D02*
X11176429Y-16249952D01*
X11166905Y-16240428D01*
X11157381Y-16221381D01*
X11157381Y-16164238D01*
X11166905Y-16145190D01*
X11176429Y-16135667D01*
X11195476Y-16126143D01*
X11224048Y-16126143D01*
X11243095Y-16135667D01*
X11252619Y-16145190D01*
X11262143Y-16164238D01*
X11262143Y-16221381D01*
X11252619Y-16240428D01*
X11243095Y-16249952D01*
X11224048Y-16259476D01*
X11195476Y-16259476D01*
X11376428Y-16259476D02*
X11357381Y-16249952D01*
X11347857Y-16230905D01*
X11347857Y-16059476D01*
X11528809Y-16249952D02*
X11509762Y-16259476D01*
X11471667Y-16259476D01*
X11452619Y-16249952D01*
X11443095Y-16230905D01*
X11443095Y-16154714D01*
X11452619Y-16135667D01*
X11471667Y-16126143D01*
X11509762Y-16126143D01*
X11528809Y-16135667D01*
X11538333Y-16154714D01*
X11538333Y-16173762D01*
X11443095Y-16192809D01*
X11614524Y-16249952D02*
X11633571Y-16259476D01*
X11671667Y-16259476D01*
X11690714Y-16249952D01*
X11700238Y-16230905D01*
X11700238Y-16221381D01*
X11690714Y-16202333D01*
X11671667Y-16192809D01*
X11643095Y-16192809D01*
X11624048Y-16183286D01*
X11614524Y-16164238D01*
X11614524Y-16154714D01*
X11624048Y-16135667D01*
X11643095Y-16126143D01*
X11671667Y-16126143D01*
X11690714Y-16135667D01*
X11766905Y-16335667D02*
X11776428Y-16326143D01*
X11795476Y-16297571D01*
X11805000Y-16278524D01*
X11814524Y-16249952D01*
X11824048Y-16202333D01*
X11824048Y-16164238D01*
X11814524Y-16116619D01*
X11805000Y-16088048D01*
X11795476Y-16069000D01*
X11776428Y-16040428D01*
X11766905Y-16030905D01*
X6895000Y-16589000D02*
X6995000Y-16489000D01*
X6895000Y-16389000D01*
X6795000Y-16489000D01*
X6895000Y-16589000D01*
X7233571Y-16379476D02*
X7357381Y-16379476D01*
X7290714Y-16455667D01*
X7319286Y-16455667D01*
X7338333Y-16465190D01*
X7347857Y-16474714D01*
X7357381Y-16493762D01*
X7357381Y-16541381D01*
X7347857Y-16560428D01*
X7338333Y-16569952D01*
X7319286Y-16579476D01*
X7262143Y-16579476D01*
X7243095Y-16569952D01*
X7233571Y-16560428D01*
X7443095Y-16560428D02*
X7452619Y-16569952D01*
X7443095Y-16579476D01*
X7433571Y-16569952D01*
X7443095Y-16560428D01*
X7443095Y-16579476D01*
X7519286Y-16379476D02*
X7652619Y-16379476D01*
X7566905Y-16579476D01*
X7766905Y-16379476D02*
X7785952Y-16379476D01*
X7805000Y-16389000D01*
X7814524Y-16398524D01*
X7824048Y-16417571D01*
X7833571Y-16455667D01*
X7833571Y-16503286D01*
X7824048Y-16541381D01*
X7814524Y-16560428D01*
X7805000Y-16569952D01*
X7785952Y-16579476D01*
X7766905Y-16579476D01*
X7747857Y-16569952D01*
X7738333Y-16560428D01*
X7728809Y-16541381D01*
X7719286Y-16503286D01*
X7719286Y-16455667D01*
X7728809Y-16417571D01*
X7738333Y-16398524D01*
X7747857Y-16389000D01*
X7766905Y-16379476D01*
X7957381Y-16379476D02*
X7976428Y-16379476D01*
X7995476Y-16389000D01*
X8005000Y-16398524D01*
X8014524Y-16417571D01*
X8024048Y-16455667D01*
X8024048Y-16503286D01*
X8014524Y-16541381D01*
X8005000Y-16560428D01*
X7995476Y-16569952D01*
X7976428Y-16579476D01*
X7957381Y-16579476D01*
X7938333Y-16569952D01*
X7928809Y-16560428D01*
X7919286Y-16541381D01*
X7909762Y-16503286D01*
X7909762Y-16455667D01*
X7919286Y-16417571D01*
X7928809Y-16398524D01*
X7938333Y-16389000D01*
X7957381Y-16379476D01*
X8109762Y-16579476D02*
X8109762Y-16446143D01*
X8109762Y-16465190D02*
X8119286Y-16455667D01*
X8138333Y-16446143D01*
X8166905Y-16446143D01*
X8185952Y-16455667D01*
X8195476Y-16474714D01*
X8195476Y-16579476D01*
X8195476Y-16474714D02*
X8205000Y-16455667D01*
X8224048Y-16446143D01*
X8252619Y-16446143D01*
X8271667Y-16455667D01*
X8281190Y-16474714D01*
X8281190Y-16579476D01*
X8376428Y-16579476D02*
X8376428Y-16446143D01*
X8376428Y-16465190D02*
X8385952Y-16455667D01*
X8405000Y-16446143D01*
X8433571Y-16446143D01*
X8452619Y-16455667D01*
X8462143Y-16474714D01*
X8462143Y-16579476D01*
X8462143Y-16474714D02*
X8471667Y-16455667D01*
X8490714Y-16446143D01*
X8519286Y-16446143D01*
X8538333Y-16455667D01*
X8547857Y-16474714D01*
X8547857Y-16579476D01*
X8938333Y-16369952D02*
X8766905Y-16627095D01*
X9195476Y-16379476D02*
X9214524Y-16379476D01*
X9233571Y-16389000D01*
X9243095Y-16398524D01*
X9252619Y-16417571D01*
X9262143Y-16455667D01*
X9262143Y-16503286D01*
X9252619Y-16541381D01*
X9243095Y-16560428D01*
X9233571Y-16569952D01*
X9214524Y-16579476D01*
X9195476Y-16579476D01*
X9176429Y-16569952D01*
X9166905Y-16560428D01*
X9157381Y-16541381D01*
X9147857Y-16503286D01*
X9147857Y-16455667D01*
X9157381Y-16417571D01*
X9166905Y-16398524D01*
X9176429Y-16389000D01*
X9195476Y-16379476D01*
X9347857Y-16560428D02*
X9357381Y-16569952D01*
X9347857Y-16579476D01*
X9338333Y-16569952D01*
X9347857Y-16560428D01*
X9347857Y-16579476D01*
X9547857Y-16579476D02*
X9433571Y-16579476D01*
X9490714Y-16579476D02*
X9490714Y-16379476D01*
X9471667Y-16408048D01*
X9452619Y-16427095D01*
X9433571Y-16436619D01*
X9719286Y-16446143D02*
X9719286Y-16579476D01*
X9671667Y-16369952D02*
X9624048Y-16512809D01*
X9747857Y-16512809D01*
X9919286Y-16379476D02*
X9824048Y-16379476D01*
X9814524Y-16474714D01*
X9824048Y-16465190D01*
X9843095Y-16455667D01*
X9890714Y-16455667D01*
X9909762Y-16465190D01*
X9919286Y-16474714D01*
X9928810Y-16493762D01*
X9928810Y-16541381D01*
X9919286Y-16560428D01*
X9909762Y-16569952D01*
X9890714Y-16579476D01*
X9843095Y-16579476D01*
X9824048Y-16569952D01*
X9814524Y-16560428D01*
X9995476Y-16379476D02*
X10128810Y-16379476D01*
X10043095Y-16579476D01*
X10195476Y-16379476D02*
X10195476Y-16417571D01*
X10271667Y-16379476D02*
X10271667Y-16417571D01*
X10566905Y-16655667D02*
X10557381Y-16646143D01*
X10538333Y-16617571D01*
X10528810Y-16598524D01*
X10519286Y-16569952D01*
X10509762Y-16522333D01*
X10509762Y-16484238D01*
X10519286Y-16436619D01*
X10528810Y-16408048D01*
X10538333Y-16389000D01*
X10557381Y-16360428D01*
X10566905Y-16350905D01*
X10728810Y-16446143D02*
X10728810Y-16579476D01*
X10681190Y-16369952D02*
X10633571Y-16512809D01*
X10757381Y-16512809D01*
X10985952Y-16579476D02*
X10985952Y-16379476D01*
X11071667Y-16579476D02*
X11071667Y-16474714D01*
X11062143Y-16455667D01*
X11043095Y-16446143D01*
X11014524Y-16446143D01*
X10995476Y-16455667D01*
X10985952Y-16465190D01*
X11195476Y-16579476D02*
X11176429Y-16569952D01*
X11166905Y-16560428D01*
X11157381Y-16541381D01*
X11157381Y-16484238D01*
X11166905Y-16465190D01*
X11176429Y-16455667D01*
X11195476Y-16446143D01*
X11224048Y-16446143D01*
X11243095Y-16455667D01*
X11252619Y-16465190D01*
X11262143Y-16484238D01*
X11262143Y-16541381D01*
X11252619Y-16560428D01*
X11243095Y-16569952D01*
X11224048Y-16579476D01*
X11195476Y-16579476D01*
X11376428Y-16579476D02*
X11357381Y-16569952D01*
X11347857Y-16550905D01*
X11347857Y-16379476D01*
X11528809Y-16569952D02*
X11509762Y-16579476D01*
X11471667Y-16579476D01*
X11452619Y-16569952D01*
X11443095Y-16550905D01*
X11443095Y-16474714D01*
X11452619Y-16455667D01*
X11471667Y-16446143D01*
X11509762Y-16446143D01*
X11528809Y-16455667D01*
X11538333Y-16474714D01*
X11538333Y-16493762D01*
X11443095Y-16512809D01*
X11614524Y-16569952D02*
X11633571Y-16579476D01*
X11671667Y-16579476D01*
X11690714Y-16569952D01*
X11700238Y-16550905D01*
X11700238Y-16541381D01*
X11690714Y-16522333D01*
X11671667Y-16512809D01*
X11643095Y-16512809D01*
X11624048Y-16503286D01*
X11614524Y-16484238D01*
X11614524Y-16474714D01*
X11624048Y-16455667D01*
X11643095Y-16446143D01*
X11671667Y-16446143D01*
X11690714Y-16455667D01*
X11766905Y-16655667D02*
X11776428Y-16646143D01*
X11795476Y-16617571D01*
X11805000Y-16598524D01*
X11814524Y-16569952D01*
X11824048Y-16522333D01*
X11824048Y-16484238D01*
X11814524Y-16436619D01*
X11805000Y-16408048D01*
X11795476Y-16389000D01*
X11776428Y-16360428D01*
X11766905Y-16350905D01*
M02*
