G04 #@! TF.GenerationSoftware,KiCad,Pcbnew,(6.0.5-0)*
G04 #@! TF.CreationDate,2022-12-31T05:29:50-05:00*
G04 #@! TF.ProjectId,antenna-pcb,616e7465-6e6e-4612-9d70-63622e6b6963,rev?*
G04 #@! TF.SameCoordinates,Original*
G04 #@! TF.FileFunction,Copper,L2,Bot*
G04 #@! TF.FilePolarity,Positive*
%FSLAX46Y46*%
G04 Gerber Fmt 4.6, Leading zero omitted, Abs format (unit mm)*
G04 Created by KiCad (PCBNEW (6.0.5-0)) date 2022-12-31 05:29:50*
%MOMM*%
%LPD*%
G01*
G04 APERTURE LIST*
G04 #@! TA.AperFunction,ComponentPad*
%ADD10C,5.500000*%
G04 #@! TD*
G04 #@! TA.AperFunction,ComponentPad*
%ADD11C,4.300000*%
G04 #@! TD*
G04 #@! TA.AperFunction,ComponentPad*
%ADD12C,2.050000*%
G04 #@! TD*
G04 #@! TA.AperFunction,ComponentPad*
%ADD13C,2.250000*%
G04 #@! TD*
G04 #@! TA.AperFunction,SMDPad,CuDef*
%ADD14R,26.000000X8.000000*%
G04 #@! TD*
G04 #@! TA.AperFunction,SMDPad,CuDef*
%ADD15R,2.000000X8.000000*%
G04 #@! TD*
G04 #@! TA.AperFunction,SMDPad,CuDef*
%ADD16R,0.350000X1.000000*%
G04 #@! TD*
G04 #@! TA.AperFunction,ViaPad*
%ADD17C,0.800000*%
G04 #@! TD*
G04 #@! TA.AperFunction,Conductor*
%ADD18C,0.350000*%
G04 #@! TD*
G04 APERTURE END LIST*
D10*
G04 #@! TO.P,H4,1*
G04 #@! TO.N,N/C*
X163450000Y-143450000D03*
G04 #@! TD*
D11*
G04 #@! TO.P,H6,1*
G04 #@! TO.N,N/C*
X161364000Y-58495000D03*
G04 #@! TD*
D10*
G04 #@! TO.P,H1,1*
G04 #@! TO.N,N/C*
X73550000Y-53550000D03*
G04 #@! TD*
D11*
G04 #@! TO.P,H8,1*
G04 #@! TO.N,N/C*
X161364000Y-138505000D03*
G04 #@! TD*
G04 #@! TO.P,H7,1*
G04 #@! TO.N,N/C*
X75639000Y-134695000D03*
G04 #@! TD*
G04 #@! TO.P,H5,1*
G04 #@! TO.N,N/C*
X75639000Y-61035000D03*
G04 #@! TD*
D10*
G04 #@! TO.P,H3,1*
G04 #@! TO.N,N/C*
X73550000Y-143450000D03*
G04 #@! TD*
G04 #@! TO.P,H2,1*
G04 #@! TO.N,N/C*
X163450000Y-53550000D03*
G04 #@! TD*
D12*
G04 #@! TO.P,J1,1,In*
G04 #@! TO.N,Net-(U1-Pad1)*
X118500000Y-98500000D03*
D13*
G04 #@! TO.P,J1,2,Ext*
G04 #@! TO.N,GND*
X115950000Y-95950000D03*
X121050000Y-101050000D03*
X115950000Y-101050000D03*
X121050000Y-95950000D03*
G04 #@! TD*
D14*
G04 #@! TO.P,AE1,1*
G04 #@! TO.N,Net-(U1-Pad3)*
X118500000Y-86700000D03*
D15*
X130500000Y-86700000D03*
D14*
G04 #@! TO.P,AE1,2*
G04 #@! TO.N,Net-(U1-Pad4)*
X118500000Y-110300000D03*
D15*
X130500000Y-110300000D03*
G04 #@! TD*
D16*
G04 #@! TO.P,U1,1,Balanced_Port*
G04 #@! TO.N,Net-(U1-Pad1)*
X129200000Y-98500000D03*
G04 #@! TO.P,U1,2,GND*
G04 #@! TO.N,GND*
X129850000Y-98500000D03*
G04 #@! TO.P,U1,3,Balanced_Port*
G04 #@! TO.N,Net-(U1-Pad3)*
X130500000Y-98500000D03*
G04 #@! TO.P,U1,4,Balanced_Port*
G04 #@! TO.N,Net-(U1-Pad4)*
X130500000Y-100300000D03*
G04 #@! TO.P,U1,5,GND*
G04 #@! TO.N,GND*
X129850000Y-100300000D03*
G04 #@! TO.P,U1,6,NC*
G04 #@! TO.N,unconnected-(U1-Pad6)*
X129200000Y-100300000D03*
G04 #@! TD*
D17*
G04 #@! TO.N,GND*
X136950000Y-95250000D03*
X127950000Y-96300000D03*
X127150000Y-91950000D03*
X119300000Y-81450000D03*
X137400000Y-107950000D03*
X104050000Y-108950000D03*
X133150000Y-102150000D03*
X129100000Y-81450000D03*
X125350000Y-93350000D03*
X133300000Y-95050000D03*
X97750000Y-97750000D03*
X102050000Y-113950000D03*
X101700000Y-104300000D03*
X127200000Y-100450000D03*
X111650000Y-99600000D03*
X123650000Y-100500000D03*
X133450000Y-97350000D03*
X110000000Y-115550000D03*
X135250000Y-106900000D03*
X115650000Y-91950000D03*
X113700000Y-115550000D03*
X104950000Y-100350000D03*
X104950000Y-96650000D03*
X104200000Y-114950000D03*
X108050000Y-91900000D03*
X108300000Y-98300000D03*
X103850000Y-86450000D03*
X120300000Y-93550000D03*
X113450000Y-102300000D03*
X113450000Y-98500000D03*
X137400000Y-110000000D03*
X108300000Y-101800000D03*
X103950000Y-106400000D03*
X97600000Y-96200000D03*
X133300000Y-109750000D03*
X133350000Y-113350000D03*
X119450000Y-91950000D03*
X127450000Y-115550000D03*
X121150000Y-115550000D03*
X117750000Y-91950000D03*
X108150000Y-94100000D03*
X133000000Y-87550000D03*
X136900000Y-103100000D03*
X108400000Y-104050000D03*
X97800000Y-99800000D03*
X106650000Y-103100000D03*
X136850000Y-90550000D03*
X114700000Y-103450000D03*
X139000000Y-98400000D03*
X104800000Y-94350000D03*
X99500000Y-90650000D03*
X117650000Y-115550000D03*
X123700000Y-96550000D03*
X98000000Y-107050000D03*
X104950000Y-102050000D03*
X99800000Y-103250000D03*
X103400000Y-101400000D03*
X111500000Y-93600000D03*
X125350000Y-115550000D03*
X101500000Y-87150000D03*
X133250000Y-111800000D03*
X101700000Y-96350000D03*
X135450000Y-113300000D03*
X109900000Y-95000000D03*
X104200000Y-113150000D03*
X108300000Y-115550000D03*
X103600000Y-81600000D03*
X99850000Y-93050000D03*
X125250000Y-103450000D03*
X123650000Y-94450000D03*
X130950000Y-115550000D03*
X106200000Y-115550000D03*
X139250000Y-106600000D03*
X118500000Y-93550000D03*
X102050000Y-112250000D03*
X108300000Y-96400000D03*
X136950000Y-92900000D03*
X104950000Y-98550000D03*
X114700000Y-93550000D03*
X135050000Y-94200000D03*
X97500000Y-89550000D03*
X118500000Y-95750000D03*
X121100000Y-81450000D03*
X135250000Y-109000000D03*
X101400000Y-84850000D03*
X104700000Y-91800000D03*
X99350000Y-88200000D03*
X109950000Y-81450000D03*
X110000000Y-102650000D03*
X109900000Y-96900000D03*
X97500000Y-94650000D03*
X123700000Y-102400000D03*
X123600000Y-104850000D03*
X136800000Y-87750000D03*
X109750000Y-92700000D03*
X133300000Y-92700000D03*
X111750000Y-81450000D03*
X111750000Y-103550000D03*
X113050000Y-91900000D03*
X104200000Y-111250000D03*
X115750000Y-104800000D03*
X138950000Y-94000000D03*
X120300000Y-103450000D03*
X113400000Y-104800000D03*
X136700000Y-85200000D03*
X101500000Y-91650000D03*
X133150000Y-104150000D03*
X106150000Y-81450000D03*
X99900000Y-105600000D03*
X106550000Y-95450000D03*
X106550000Y-97350000D03*
X113450000Y-100200000D03*
X134850000Y-86400000D03*
X127150000Y-102250000D03*
X103250000Y-95400000D03*
X133400000Y-107700000D03*
X135050000Y-99800000D03*
X101750000Y-94100000D03*
X138950000Y-96350000D03*
X136950000Y-99050000D03*
X133250000Y-90650000D03*
X135000000Y-102050000D03*
X127150000Y-94650000D03*
X109900000Y-98700000D03*
X113450000Y-96700000D03*
X108250000Y-81450000D03*
X136950000Y-100850000D03*
X139250000Y-103950000D03*
X103300000Y-103350000D03*
X113450000Y-94800000D03*
X121350000Y-104800000D03*
X111650000Y-101300000D03*
X135050000Y-96300000D03*
X106550000Y-100850000D03*
X111800000Y-115550000D03*
X125450000Y-95800000D03*
X123000000Y-81450000D03*
X99950000Y-108400000D03*
X100050000Y-110950000D03*
X113650000Y-81450000D03*
X122200000Y-103450000D03*
X105050000Y-104300000D03*
X116800000Y-103450000D03*
X119350000Y-115550000D03*
X106550000Y-99150000D03*
X135350000Y-111300000D03*
X119550000Y-104800000D03*
X118500000Y-100850000D03*
X101800000Y-107000000D03*
X138800000Y-91700000D03*
X130900000Y-81450000D03*
X99800000Y-98800000D03*
X101900000Y-109750000D03*
X97950000Y-104450000D03*
X99800000Y-95300000D03*
X134700000Y-83900000D03*
X136950000Y-97350000D03*
X139250000Y-101500000D03*
X133500000Y-114900000D03*
X111650000Y-95900000D03*
X123650000Y-91900000D03*
X133100000Y-89100000D03*
X97800000Y-102150000D03*
X103850000Y-90150000D03*
X103400000Y-99600000D03*
X133000000Y-82450000D03*
X97500000Y-92200000D03*
X108300000Y-100100000D03*
X109900000Y-100400000D03*
X103850000Y-88350000D03*
X127150000Y-104750000D03*
X135050000Y-98000000D03*
X127400000Y-81450000D03*
X103700000Y-84150000D03*
X99800000Y-97100000D03*
X101700000Y-99850000D03*
X101700000Y-98150000D03*
X115500000Y-81450000D03*
X99800000Y-100900000D03*
X137250000Y-105500000D03*
X101700000Y-101950000D03*
X115700000Y-98500000D03*
X139150000Y-99950000D03*
X101500000Y-89250000D03*
X134950000Y-89150000D03*
X125500000Y-100850000D03*
X106400000Y-93150000D03*
X133150000Y-99500000D03*
X103150000Y-92850000D03*
X133000000Y-85100000D03*
X129150000Y-115550000D03*
X117600000Y-81450000D03*
X118500000Y-103450000D03*
X116800000Y-93550000D03*
X103400000Y-97700000D03*
X117850000Y-104800000D03*
X138750000Y-89100000D03*
X133250000Y-106150000D03*
X125300000Y-81450000D03*
X122200000Y-93550000D03*
X99350000Y-86150000D03*
X110200000Y-104900000D03*
X123050000Y-115550000D03*
X101300000Y-82850000D03*
X115550000Y-115550000D03*
X111650000Y-97800000D03*
X135250000Y-104500000D03*
X135050000Y-91850000D03*
X121250000Y-91950000D03*
G04 #@! TD*
D18*
G04 #@! TO.N,Net-(U1-Pad1)*
X129200000Y-98500000D02*
X118500000Y-98500000D01*
G04 #@! TO.N,Net-(U1-Pad3)*
X130500000Y-86700000D02*
X130500000Y-98500000D01*
G04 #@! TO.N,Net-(U1-Pad4)*
X130500000Y-100300000D02*
X130500000Y-110300000D01*
G04 #@! TD*
G04 #@! TA.AperFunction,Conductor*
G04 #@! TO.N,GND*
G36*
X77704031Y-50273713D02*
G01*
X77740576Y-50324013D01*
X77745500Y-50355100D01*
X77745500Y-50465025D01*
X77743567Y-50484650D01*
X77740514Y-50500000D01*
X77742346Y-50509209D01*
X77742447Y-50510492D01*
X77742447Y-50512490D01*
X77742811Y-50515123D01*
X77757114Y-50696854D01*
X77758037Y-50700700D01*
X77758038Y-50700704D01*
X77772890Y-50762565D01*
X77803210Y-50888860D01*
X77804723Y-50892512D01*
X77804724Y-50892516D01*
X77855604Y-51015350D01*
X77878776Y-51071292D01*
X77981950Y-51239657D01*
X78110192Y-51389808D01*
X78260343Y-51518050D01*
X78428708Y-51621224D01*
X78432357Y-51622735D01*
X78432356Y-51622735D01*
X78607484Y-51695276D01*
X78607488Y-51695277D01*
X78611140Y-51696790D01*
X78707143Y-51719838D01*
X78799296Y-51741962D01*
X78799300Y-51741963D01*
X78803146Y-51742886D01*
X78984877Y-51757189D01*
X78987510Y-51757553D01*
X78989508Y-51757553D01*
X78990791Y-51757654D01*
X79000000Y-51759486D01*
X79009718Y-51757553D01*
X79009719Y-51757553D01*
X79015350Y-51756433D01*
X79034975Y-51754500D01*
X85865025Y-51754500D01*
X85884650Y-51756433D01*
X85890281Y-51757553D01*
X85890282Y-51757553D01*
X85900000Y-51759486D01*
X85909717Y-51757553D01*
X85919627Y-51757553D01*
X85919627Y-51758202D01*
X85931616Y-51757614D01*
X86035582Y-51767854D01*
X86054923Y-51771702D01*
X86175806Y-51808371D01*
X86194026Y-51815918D01*
X86305440Y-51875470D01*
X86321838Y-51886426D01*
X86419489Y-51966566D01*
X86433434Y-51980511D01*
X86513574Y-52078162D01*
X86524530Y-52094560D01*
X86584082Y-52205974D01*
X86591629Y-52224194D01*
X86628298Y-52345077D01*
X86632146Y-52364418D01*
X86642386Y-52468384D01*
X86641798Y-52480373D01*
X86642447Y-52480373D01*
X86642447Y-52490283D01*
X86640514Y-52500000D01*
X86642447Y-52509718D01*
X86642447Y-52509719D01*
X86643567Y-52515350D01*
X86645500Y-52534975D01*
X86645500Y-55165025D01*
X86643567Y-55184650D01*
X86640514Y-55200000D01*
X86642346Y-55209209D01*
X86642447Y-55210492D01*
X86642447Y-55212490D01*
X86642811Y-55215123D01*
X86657114Y-55396854D01*
X86703210Y-55588860D01*
X86704723Y-55592512D01*
X86704724Y-55592516D01*
X86760491Y-55727148D01*
X86778776Y-55771292D01*
X86881950Y-55939657D01*
X87010192Y-56089808D01*
X87160343Y-56218050D01*
X87328708Y-56321224D01*
X87332357Y-56322735D01*
X87332356Y-56322735D01*
X87507484Y-56395276D01*
X87507488Y-56395277D01*
X87511140Y-56396790D01*
X87607143Y-56419838D01*
X87699296Y-56441962D01*
X87699300Y-56441963D01*
X87703146Y-56442886D01*
X87884877Y-56457189D01*
X87887510Y-56457553D01*
X87889508Y-56457553D01*
X87890791Y-56457654D01*
X87900000Y-56459486D01*
X87909718Y-56457553D01*
X87909719Y-56457553D01*
X87915350Y-56456433D01*
X87934975Y-56454500D01*
X149065025Y-56454500D01*
X149084650Y-56456433D01*
X149090281Y-56457553D01*
X149090282Y-56457553D01*
X149100000Y-56459486D01*
X149109209Y-56457654D01*
X149110492Y-56457553D01*
X149112490Y-56457553D01*
X149115123Y-56457189D01*
X149296854Y-56442886D01*
X149300700Y-56441963D01*
X149300704Y-56441962D01*
X149392857Y-56419838D01*
X149488860Y-56396790D01*
X149492512Y-56395277D01*
X149492516Y-56395276D01*
X149667644Y-56322735D01*
X149667643Y-56322735D01*
X149671292Y-56321224D01*
X149839657Y-56218050D01*
X149989808Y-56089808D01*
X150118050Y-55939657D01*
X150221224Y-55771292D01*
X150239509Y-55727148D01*
X150295276Y-55592516D01*
X150295277Y-55592512D01*
X150296790Y-55588860D01*
X150342886Y-55396854D01*
X150357189Y-55215123D01*
X150357553Y-55212490D01*
X150357553Y-55210492D01*
X150357654Y-55209209D01*
X150359486Y-55200000D01*
X150356433Y-55184650D01*
X150354500Y-55165025D01*
X150354500Y-52534975D01*
X150356433Y-52515350D01*
X150357553Y-52509719D01*
X150357553Y-52509718D01*
X150359486Y-52500000D01*
X150357553Y-52490283D01*
X150357553Y-52480373D01*
X150358202Y-52480373D01*
X150357614Y-52468384D01*
X150367854Y-52364418D01*
X150371702Y-52345077D01*
X150408371Y-52224194D01*
X150415918Y-52205974D01*
X150475470Y-52094560D01*
X150486426Y-52078162D01*
X150566566Y-51980511D01*
X150580511Y-51966566D01*
X150678162Y-51886426D01*
X150694560Y-51875470D01*
X150805974Y-51815918D01*
X150824194Y-51808371D01*
X150945077Y-51771702D01*
X150964418Y-51767854D01*
X151068384Y-51757614D01*
X151080373Y-51758202D01*
X151080373Y-51757553D01*
X151090283Y-51757553D01*
X151100000Y-51759486D01*
X151109718Y-51757553D01*
X151109719Y-51757553D01*
X151115350Y-51756433D01*
X151134975Y-51754500D01*
X157965025Y-51754500D01*
X157984650Y-51756433D01*
X157990281Y-51757553D01*
X157990282Y-51757553D01*
X158000000Y-51759486D01*
X158009209Y-51757654D01*
X158010492Y-51757553D01*
X158012490Y-51757553D01*
X158015123Y-51757189D01*
X158196854Y-51742886D01*
X158200700Y-51741963D01*
X158200704Y-51741962D01*
X158292857Y-51719838D01*
X158388860Y-51696790D01*
X158392512Y-51695277D01*
X158392516Y-51695276D01*
X158567644Y-51622735D01*
X158567643Y-51622735D01*
X158571292Y-51621224D01*
X158739657Y-51518050D01*
X158889808Y-51389808D01*
X159018050Y-51239657D01*
X159121224Y-51071292D01*
X159144396Y-51015350D01*
X159195276Y-50892516D01*
X159195277Y-50892512D01*
X159196790Y-50888860D01*
X159227110Y-50762565D01*
X159241962Y-50700704D01*
X159241963Y-50700700D01*
X159242886Y-50696854D01*
X159257189Y-50515123D01*
X159257553Y-50512490D01*
X159257553Y-50510492D01*
X159257654Y-50509209D01*
X159259486Y-50500000D01*
X159256433Y-50484650D01*
X159254500Y-50465025D01*
X159254500Y-50355100D01*
X159273713Y-50295969D01*
X159324013Y-50259424D01*
X159355100Y-50254500D01*
X165965025Y-50254500D01*
X165984650Y-50256433D01*
X165990281Y-50257553D01*
X165990282Y-50257553D01*
X166000000Y-50259486D01*
X166009717Y-50257553D01*
X166019627Y-50257553D01*
X166019627Y-50258202D01*
X166031616Y-50257614D01*
X166135582Y-50267854D01*
X166154923Y-50271702D01*
X166275806Y-50308371D01*
X166294026Y-50315918D01*
X166405440Y-50375470D01*
X166421838Y-50386426D01*
X166519489Y-50466566D01*
X166533432Y-50480509D01*
X166541452Y-50490281D01*
X166613574Y-50578162D01*
X166624530Y-50594560D01*
X166684082Y-50705974D01*
X166691629Y-50724194D01*
X166728298Y-50845077D01*
X166732146Y-50864418D01*
X166742386Y-50968384D01*
X166741798Y-50980373D01*
X166742447Y-50980373D01*
X166742447Y-50990283D01*
X166740514Y-51000000D01*
X166742447Y-51009718D01*
X166742447Y-51009719D01*
X166743567Y-51015350D01*
X166745500Y-51034975D01*
X166745500Y-57644900D01*
X166726287Y-57704031D01*
X166675987Y-57740576D01*
X166644900Y-57745500D01*
X166534975Y-57745500D01*
X166515350Y-57743567D01*
X166509719Y-57742447D01*
X166509718Y-57742447D01*
X166500000Y-57740514D01*
X166490791Y-57742346D01*
X166489508Y-57742447D01*
X166487510Y-57742447D01*
X166484877Y-57742811D01*
X166303146Y-57757114D01*
X166299300Y-57758037D01*
X166299296Y-57758038D01*
X166207143Y-57780162D01*
X166111140Y-57803210D01*
X166107488Y-57804723D01*
X166107484Y-57804724D01*
X165955058Y-57867861D01*
X165928708Y-57878776D01*
X165760343Y-57981950D01*
X165610192Y-58110192D01*
X165481950Y-58260343D01*
X165378776Y-58428708D01*
X165303210Y-58611140D01*
X165302286Y-58614990D01*
X165259358Y-58793800D01*
X165257114Y-58803146D01*
X165242941Y-58983235D01*
X165242812Y-58984873D01*
X165242447Y-58987510D01*
X165242447Y-58989508D01*
X165242346Y-58990791D01*
X165240514Y-59000000D01*
X165242447Y-59009718D01*
X165242447Y-59009719D01*
X165243567Y-59015350D01*
X165245500Y-59034975D01*
X165245500Y-65865025D01*
X165243567Y-65884650D01*
X165240514Y-65900000D01*
X165242447Y-65909717D01*
X165242447Y-65919627D01*
X165241798Y-65919627D01*
X165242386Y-65931616D01*
X165232146Y-66035582D01*
X165228298Y-66054923D01*
X165191629Y-66175806D01*
X165184082Y-66194026D01*
X165124530Y-66305440D01*
X165113574Y-66321838D01*
X165033434Y-66419489D01*
X165019489Y-66433434D01*
X164921838Y-66513574D01*
X164905440Y-66524530D01*
X164794026Y-66584082D01*
X164775806Y-66591629D01*
X164654923Y-66628298D01*
X164635582Y-66632146D01*
X164531616Y-66642386D01*
X164519627Y-66641798D01*
X164519627Y-66642447D01*
X164509717Y-66642447D01*
X164500000Y-66640514D01*
X164490282Y-66642447D01*
X164490281Y-66642447D01*
X164484650Y-66643567D01*
X164465025Y-66645500D01*
X161834975Y-66645500D01*
X161815350Y-66643567D01*
X161809719Y-66642447D01*
X161809718Y-66642447D01*
X161800000Y-66640514D01*
X161790791Y-66642346D01*
X161789508Y-66642447D01*
X161787510Y-66642447D01*
X161784877Y-66642811D01*
X161603146Y-66657114D01*
X161599300Y-66658037D01*
X161599296Y-66658038D01*
X161507143Y-66680162D01*
X161411140Y-66703210D01*
X161407488Y-66704723D01*
X161407484Y-66704724D01*
X161255058Y-66767861D01*
X161228708Y-66778776D01*
X161060343Y-66881950D01*
X160910192Y-67010192D01*
X160781950Y-67160343D01*
X160678776Y-67328708D01*
X160603210Y-67511140D01*
X160557114Y-67703146D01*
X160556804Y-67707089D01*
X160542812Y-67884873D01*
X160542447Y-67887510D01*
X160542447Y-67889508D01*
X160542346Y-67890791D01*
X160540514Y-67900000D01*
X160542447Y-67909718D01*
X160542447Y-67909719D01*
X160543567Y-67915350D01*
X160545500Y-67934975D01*
X160545500Y-129065025D01*
X160543567Y-129084650D01*
X160540514Y-129100000D01*
X160542346Y-129109209D01*
X160542447Y-129110492D01*
X160542447Y-129112490D01*
X160542811Y-129115123D01*
X160557114Y-129296854D01*
X160603210Y-129488860D01*
X160678776Y-129671292D01*
X160781950Y-129839657D01*
X160910192Y-129989808D01*
X161060343Y-130118050D01*
X161228708Y-130221224D01*
X161232357Y-130222735D01*
X161232356Y-130222735D01*
X161407484Y-130295276D01*
X161407488Y-130295277D01*
X161411140Y-130296790D01*
X161507143Y-130319838D01*
X161599296Y-130341962D01*
X161599300Y-130341963D01*
X161603146Y-130342886D01*
X161784877Y-130357189D01*
X161787510Y-130357553D01*
X161789508Y-130357553D01*
X161790791Y-130357654D01*
X161800000Y-130359486D01*
X161809718Y-130357553D01*
X161809719Y-130357553D01*
X161815350Y-130356433D01*
X161834975Y-130354500D01*
X164465025Y-130354500D01*
X164484650Y-130356433D01*
X164490281Y-130357553D01*
X164490282Y-130357553D01*
X164500000Y-130359486D01*
X164509717Y-130357553D01*
X164519627Y-130357553D01*
X164519627Y-130358202D01*
X164531616Y-130357614D01*
X164635582Y-130367854D01*
X164654923Y-130371702D01*
X164775806Y-130408371D01*
X164794026Y-130415918D01*
X164905440Y-130475470D01*
X164921838Y-130486426D01*
X165019489Y-130566566D01*
X165033434Y-130580511D01*
X165113574Y-130678162D01*
X165124530Y-130694560D01*
X165184082Y-130805974D01*
X165191629Y-130824194D01*
X165228298Y-130945077D01*
X165232146Y-130964418D01*
X165242386Y-131068384D01*
X165241798Y-131080373D01*
X165242447Y-131080373D01*
X165242447Y-131090283D01*
X165240514Y-131100000D01*
X165242447Y-131109718D01*
X165242447Y-131109719D01*
X165243567Y-131115350D01*
X165245500Y-131134975D01*
X165245500Y-137965025D01*
X165243567Y-137984650D01*
X165240514Y-138000000D01*
X165242346Y-138009209D01*
X165242447Y-138010492D01*
X165242447Y-138012490D01*
X165242811Y-138015123D01*
X165257114Y-138196854D01*
X165258037Y-138200700D01*
X165258038Y-138200704D01*
X165278345Y-138285290D01*
X165303210Y-138388860D01*
X165378776Y-138571292D01*
X165481950Y-138739657D01*
X165610192Y-138889808D01*
X165760343Y-139018050D01*
X165928708Y-139121224D01*
X165932357Y-139122735D01*
X165932356Y-139122735D01*
X166107484Y-139195276D01*
X166107488Y-139195277D01*
X166111140Y-139196790D01*
X166207143Y-139219838D01*
X166299296Y-139241962D01*
X166299300Y-139241963D01*
X166303146Y-139242886D01*
X166484877Y-139257189D01*
X166487510Y-139257553D01*
X166489508Y-139257553D01*
X166490791Y-139257654D01*
X166500000Y-139259486D01*
X166509718Y-139257553D01*
X166509719Y-139257553D01*
X166515350Y-139256433D01*
X166534975Y-139254500D01*
X166644900Y-139254500D01*
X166704031Y-139273713D01*
X166740576Y-139324013D01*
X166745500Y-139355100D01*
X166745500Y-145965025D01*
X166743567Y-145984650D01*
X166740514Y-146000000D01*
X166742447Y-146009717D01*
X166742447Y-146019627D01*
X166741798Y-146019627D01*
X166742386Y-146031616D01*
X166732146Y-146135582D01*
X166728298Y-146154923D01*
X166691629Y-146275806D01*
X166684082Y-146294026D01*
X166624530Y-146405440D01*
X166613574Y-146421838D01*
X166601905Y-146436057D01*
X166536831Y-146515350D01*
X166533434Y-146519489D01*
X166519489Y-146533434D01*
X166421838Y-146613574D01*
X166405440Y-146624530D01*
X166294026Y-146684082D01*
X166275806Y-146691629D01*
X166154923Y-146728298D01*
X166135582Y-146732146D01*
X166031616Y-146742386D01*
X166019627Y-146741798D01*
X166019627Y-146742447D01*
X166009717Y-146742447D01*
X166000000Y-146740514D01*
X165990282Y-146742447D01*
X165990281Y-146742447D01*
X165984650Y-146743567D01*
X165965025Y-146745500D01*
X159355100Y-146745500D01*
X159295969Y-146726287D01*
X159259424Y-146675987D01*
X159254500Y-146644900D01*
X159254500Y-146534975D01*
X159256433Y-146515350D01*
X159257553Y-146509719D01*
X159257553Y-146509718D01*
X159259486Y-146500000D01*
X159257654Y-146490791D01*
X159257553Y-146489508D01*
X159257553Y-146487510D01*
X159257188Y-146484873D01*
X159257059Y-146483235D01*
X159242886Y-146303146D01*
X159240256Y-146292188D01*
X159207301Y-146154923D01*
X159196790Y-146111140D01*
X159157699Y-146016765D01*
X159122735Y-145932356D01*
X159121224Y-145928708D01*
X159018050Y-145760343D01*
X158889808Y-145610192D01*
X158739657Y-145481950D01*
X158571292Y-145378776D01*
X158544942Y-145367861D01*
X158392516Y-145304724D01*
X158392512Y-145304723D01*
X158388860Y-145303210D01*
X158292857Y-145280162D01*
X158200704Y-145258038D01*
X158200700Y-145258037D01*
X158196854Y-145257114D01*
X158015123Y-145242811D01*
X158012490Y-145242447D01*
X158010492Y-145242447D01*
X158009209Y-145242346D01*
X158000000Y-145240514D01*
X157990282Y-145242447D01*
X157990281Y-145242447D01*
X157984650Y-145243567D01*
X157965025Y-145245500D01*
X151134975Y-145245500D01*
X151115350Y-145243567D01*
X151109719Y-145242447D01*
X151109718Y-145242447D01*
X151100000Y-145240514D01*
X151090283Y-145242447D01*
X151080373Y-145242447D01*
X151080373Y-145241798D01*
X151068384Y-145242386D01*
X150964418Y-145232146D01*
X150945077Y-145228298D01*
X150824194Y-145191629D01*
X150805974Y-145184082D01*
X150694560Y-145124530D01*
X150678162Y-145113574D01*
X150580511Y-145033434D01*
X150566566Y-145019489D01*
X150486426Y-144921838D01*
X150475470Y-144905440D01*
X150415918Y-144794026D01*
X150408371Y-144775806D01*
X150371702Y-144654923D01*
X150367854Y-144635582D01*
X150357614Y-144531616D01*
X150358202Y-144519627D01*
X150357553Y-144519627D01*
X150357553Y-144509717D01*
X150359486Y-144500000D01*
X150356433Y-144484650D01*
X150354500Y-144465025D01*
X150354500Y-141834975D01*
X150356433Y-141815350D01*
X150357553Y-141809719D01*
X150357553Y-141809718D01*
X150359486Y-141800000D01*
X150357654Y-141790791D01*
X150357553Y-141789508D01*
X150357553Y-141787510D01*
X150357188Y-141784873D01*
X150357059Y-141783235D01*
X150342886Y-141603146D01*
X150296790Y-141411140D01*
X150221224Y-141228708D01*
X150134353Y-141086947D01*
X150120114Y-141063711D01*
X150120113Y-141063710D01*
X150118050Y-141060343D01*
X149989808Y-140910192D01*
X149839657Y-140781950D01*
X149671292Y-140678776D01*
X149644942Y-140667861D01*
X149492516Y-140604724D01*
X149492512Y-140604723D01*
X149488860Y-140603210D01*
X149384376Y-140578126D01*
X149300704Y-140558038D01*
X149300700Y-140558037D01*
X149296854Y-140557114D01*
X149115123Y-140542811D01*
X149112490Y-140542447D01*
X149110492Y-140542447D01*
X149109209Y-140542346D01*
X149100000Y-140540514D01*
X149090282Y-140542447D01*
X149090281Y-140542447D01*
X149084650Y-140543567D01*
X149065025Y-140545500D01*
X87934975Y-140545500D01*
X87915350Y-140543567D01*
X87909719Y-140542447D01*
X87909718Y-140542447D01*
X87900000Y-140540514D01*
X87890791Y-140542346D01*
X87889508Y-140542447D01*
X87887510Y-140542447D01*
X87884877Y-140542811D01*
X87703146Y-140557114D01*
X87699300Y-140558037D01*
X87699296Y-140558038D01*
X87615624Y-140578126D01*
X87511140Y-140603210D01*
X87507488Y-140604723D01*
X87507484Y-140604724D01*
X87355058Y-140667861D01*
X87328708Y-140678776D01*
X87160343Y-140781950D01*
X87010192Y-140910192D01*
X86881950Y-141060343D01*
X86879887Y-141063710D01*
X86879886Y-141063711D01*
X86865647Y-141086947D01*
X86778776Y-141228708D01*
X86703210Y-141411140D01*
X86657114Y-141603146D01*
X86642941Y-141783235D01*
X86642812Y-141784873D01*
X86642447Y-141787510D01*
X86642447Y-141789508D01*
X86642346Y-141790791D01*
X86640514Y-141800000D01*
X86642447Y-141809718D01*
X86642447Y-141809719D01*
X86643567Y-141815350D01*
X86645500Y-141834975D01*
X86645500Y-144465025D01*
X86643567Y-144484650D01*
X86640514Y-144500000D01*
X86642447Y-144509717D01*
X86642447Y-144519627D01*
X86641798Y-144519627D01*
X86642386Y-144531616D01*
X86632146Y-144635582D01*
X86628298Y-144654923D01*
X86591629Y-144775806D01*
X86584082Y-144794026D01*
X86524530Y-144905440D01*
X86513574Y-144921838D01*
X86433434Y-145019489D01*
X86419489Y-145033434D01*
X86321838Y-145113574D01*
X86305440Y-145124530D01*
X86194026Y-145184082D01*
X86175806Y-145191629D01*
X86054923Y-145228298D01*
X86035582Y-145232146D01*
X85931616Y-145242386D01*
X85919627Y-145241798D01*
X85919627Y-145242447D01*
X85909717Y-145242447D01*
X85900000Y-145240514D01*
X85890282Y-145242447D01*
X85890281Y-145242447D01*
X85884650Y-145243567D01*
X85865025Y-145245500D01*
X79034975Y-145245500D01*
X79015350Y-145243567D01*
X79009719Y-145242447D01*
X79009718Y-145242447D01*
X79000000Y-145240514D01*
X78990791Y-145242346D01*
X78989508Y-145242447D01*
X78987510Y-145242447D01*
X78984877Y-145242811D01*
X78803146Y-145257114D01*
X78799300Y-145258037D01*
X78799296Y-145258038D01*
X78707143Y-145280162D01*
X78611140Y-145303210D01*
X78607488Y-145304723D01*
X78607484Y-145304724D01*
X78455058Y-145367861D01*
X78428708Y-145378776D01*
X78260343Y-145481950D01*
X78110192Y-145610192D01*
X77981950Y-145760343D01*
X77878776Y-145928708D01*
X77877265Y-145932356D01*
X77842302Y-146016765D01*
X77803210Y-146111140D01*
X77792699Y-146154923D01*
X77759745Y-146292188D01*
X77757114Y-146303146D01*
X77742941Y-146483235D01*
X77742812Y-146484873D01*
X77742447Y-146487510D01*
X77742447Y-146489508D01*
X77742346Y-146490791D01*
X77740514Y-146500000D01*
X77742447Y-146509718D01*
X77742447Y-146509719D01*
X77743567Y-146515350D01*
X77745500Y-146534975D01*
X77745500Y-146644900D01*
X77726287Y-146704031D01*
X77675987Y-146740576D01*
X77644900Y-146745500D01*
X71034975Y-146745500D01*
X71015350Y-146743567D01*
X71009719Y-146742447D01*
X71009718Y-146742447D01*
X71000000Y-146740514D01*
X70990283Y-146742447D01*
X70980373Y-146742447D01*
X70980373Y-146741798D01*
X70968384Y-146742386D01*
X70864418Y-146732146D01*
X70845077Y-146728298D01*
X70724194Y-146691629D01*
X70705974Y-146684082D01*
X70594560Y-146624530D01*
X70578162Y-146613574D01*
X70480511Y-146533434D01*
X70466566Y-146519489D01*
X70463170Y-146515350D01*
X70398095Y-146436057D01*
X70386426Y-146421838D01*
X70375470Y-146405440D01*
X70315918Y-146294026D01*
X70308371Y-146275806D01*
X70271702Y-146154923D01*
X70267854Y-146135582D01*
X70257614Y-146031616D01*
X70258202Y-146019627D01*
X70257553Y-146019627D01*
X70257553Y-146009717D01*
X70259486Y-146000000D01*
X70256433Y-145984650D01*
X70254500Y-145965025D01*
X70254500Y-143355466D01*
X70541893Y-143355466D01*
X70550963Y-143701836D01*
X70599784Y-144044868D01*
X70600521Y-144047678D01*
X70600522Y-144047682D01*
X70671929Y-144319868D01*
X70687708Y-144380015D01*
X70813570Y-144702835D01*
X70975703Y-145009050D01*
X71171956Y-145294600D01*
X71173860Y-145296783D01*
X71173865Y-145296789D01*
X71358103Y-145507984D01*
X71399729Y-145555701D01*
X71656002Y-145788892D01*
X71658347Y-145790577D01*
X71928428Y-145984650D01*
X71937380Y-145991083D01*
X72240132Y-146159592D01*
X72560246Y-146292188D01*
X72563031Y-146292981D01*
X72563033Y-146292982D01*
X72612557Y-146307089D01*
X72893478Y-146387111D01*
X73235412Y-146443105D01*
X73454757Y-146453449D01*
X73578608Y-146459290D01*
X73578610Y-146459290D01*
X73581516Y-146459427D01*
X73850539Y-146441086D01*
X73924313Y-146436057D01*
X73924314Y-146436057D01*
X73927202Y-146435860D01*
X73930048Y-146435332D01*
X73930052Y-146435332D01*
X74265030Y-146373248D01*
X74265035Y-146373247D01*
X74267888Y-146372718D01*
X74366544Y-146342367D01*
X74596302Y-146271685D01*
X74596310Y-146271682D01*
X74599060Y-146270836D01*
X74916326Y-146131566D01*
X75215483Y-145956753D01*
X75492564Y-145748714D01*
X75743898Y-145510207D01*
X75966153Y-145244394D01*
X76120745Y-145009050D01*
X76154797Y-144957211D01*
X76154800Y-144957207D01*
X76156383Y-144954796D01*
X76181207Y-144905440D01*
X76246406Y-144775806D01*
X76312067Y-144645253D01*
X76315606Y-144635582D01*
X76430146Y-144322588D01*
X76430148Y-144322582D01*
X76431141Y-144319868D01*
X76512027Y-143982953D01*
X76553653Y-143638974D01*
X76559592Y-143450000D01*
X76539647Y-143104086D01*
X76480075Y-142762757D01*
X76381667Y-142430537D01*
X76245727Y-142111830D01*
X76199304Y-142030441D01*
X76121329Y-141893738D01*
X76074056Y-141810859D01*
X75868930Y-141531614D01*
X75800205Y-141457656D01*
X75635047Y-141279925D01*
X75633069Y-141277796D01*
X75627281Y-141272852D01*
X75371809Y-141054659D01*
X75371807Y-141054657D01*
X75369597Y-141052770D01*
X75082007Y-140859518D01*
X75028936Y-140832126D01*
X74776681Y-140701927D01*
X74776674Y-140701924D01*
X74774111Y-140700601D01*
X74516374Y-140603210D01*
X74452701Y-140579150D01*
X74449991Y-140578126D01*
X74447180Y-140577420D01*
X74447177Y-140577419D01*
X74116761Y-140494424D01*
X74116755Y-140494423D01*
X74113941Y-140493716D01*
X74111059Y-140493337D01*
X74111056Y-140493336D01*
X73939201Y-140470711D01*
X73770417Y-140448490D01*
X73623172Y-140446177D01*
X73426866Y-140443093D01*
X73426858Y-140443093D01*
X73423971Y-140443048D01*
X73201087Y-140465295D01*
X73082069Y-140477174D01*
X73082065Y-140477175D01*
X73079196Y-140477461D01*
X72740661Y-140551274D01*
X72412853Y-140663507D01*
X72100118Y-140812674D01*
X72097668Y-140814211D01*
X71809056Y-140995257D01*
X71809052Y-140995260D01*
X71806600Y-140996798D01*
X71804342Y-140998607D01*
X71804335Y-140998612D01*
X71716695Y-141068825D01*
X71536190Y-141213437D01*
X71477394Y-141272852D01*
X71344165Y-141407484D01*
X71292472Y-141459721D01*
X71290685Y-141462000D01*
X71139699Y-141654560D01*
X71078676Y-141732385D01*
X71077165Y-141734850D01*
X71077162Y-141734855D01*
X70899149Y-142025346D01*
X70897636Y-142027815D01*
X70751752Y-142342095D01*
X70750840Y-142344852D01*
X70750839Y-142344855D01*
X70721582Y-142433319D01*
X70642957Y-142671060D01*
X70642369Y-142673899D01*
X70642368Y-142673903D01*
X70623375Y-142765620D01*
X70572694Y-143010350D01*
X70572437Y-143013234D01*
X70572436Y-143013238D01*
X70559169Y-143161898D01*
X70541893Y-143355466D01*
X70254500Y-143355466D01*
X70254500Y-139355100D01*
X70273713Y-139295969D01*
X70324013Y-139259424D01*
X70355100Y-139254500D01*
X70465025Y-139254500D01*
X70484650Y-139256433D01*
X70490281Y-139257553D01*
X70490282Y-139257553D01*
X70500000Y-139259486D01*
X70509209Y-139257654D01*
X70510492Y-139257553D01*
X70512490Y-139257553D01*
X70515123Y-139257189D01*
X70696854Y-139242886D01*
X70700700Y-139241963D01*
X70700704Y-139241962D01*
X70792857Y-139219838D01*
X70888860Y-139196790D01*
X70892512Y-139195277D01*
X70892516Y-139195276D01*
X71067644Y-139122735D01*
X71067643Y-139122735D01*
X71071292Y-139121224D01*
X71239657Y-139018050D01*
X71389808Y-138889808D01*
X71518050Y-138739657D01*
X71621224Y-138571292D01*
X71648683Y-138505000D01*
X158954746Y-138505000D01*
X158954945Y-138508163D01*
X158969564Y-138740514D01*
X158973744Y-138806960D01*
X159030437Y-139104157D01*
X159123932Y-139391906D01*
X159252755Y-139665667D01*
X159414873Y-139921124D01*
X159607729Y-140154248D01*
X159828284Y-140361362D01*
X159830834Y-140363215D01*
X159830838Y-140363218D01*
X159948143Y-140448445D01*
X160073057Y-140539200D01*
X160338190Y-140684958D01*
X160341133Y-140686123D01*
X160341141Y-140686127D01*
X160616552Y-140795170D01*
X160616555Y-140795171D01*
X160619500Y-140796337D01*
X160622555Y-140797121D01*
X160622563Y-140797124D01*
X160846834Y-140854706D01*
X160912551Y-140871579D01*
X160915670Y-140871973D01*
X160915675Y-140871974D01*
X161209584Y-140909104D01*
X161209591Y-140909104D01*
X161212722Y-140909500D01*
X161515278Y-140909500D01*
X161518416Y-140909104D01*
X161521573Y-140908905D01*
X161521634Y-140909881D01*
X161578978Y-140920827D01*
X161621533Y-140966156D01*
X161629318Y-141027841D01*
X161599358Y-141082320D01*
X161593410Y-141087480D01*
X161436190Y-141213437D01*
X161377394Y-141272852D01*
X161244165Y-141407484D01*
X161192472Y-141459721D01*
X161190685Y-141462000D01*
X161039699Y-141654560D01*
X160978676Y-141732385D01*
X160977165Y-141734850D01*
X160977162Y-141734855D01*
X160799149Y-142025346D01*
X160797636Y-142027815D01*
X160651752Y-142342095D01*
X160650840Y-142344852D01*
X160650839Y-142344855D01*
X160621582Y-142433319D01*
X160542957Y-142671060D01*
X160542369Y-142673899D01*
X160542368Y-142673903D01*
X160523375Y-142765620D01*
X160472694Y-143010350D01*
X160472437Y-143013234D01*
X160472436Y-143013238D01*
X160459169Y-143161898D01*
X160441893Y-143355466D01*
X160450963Y-143701836D01*
X160499784Y-144044868D01*
X160500521Y-144047678D01*
X160500522Y-144047682D01*
X160571929Y-144319868D01*
X160587708Y-144380015D01*
X160713570Y-144702835D01*
X160875703Y-145009050D01*
X161071956Y-145294600D01*
X161073860Y-145296783D01*
X161073865Y-145296789D01*
X161258103Y-145507984D01*
X161299729Y-145555701D01*
X161556002Y-145788892D01*
X161558347Y-145790577D01*
X161828428Y-145984650D01*
X161837380Y-145991083D01*
X162140132Y-146159592D01*
X162460246Y-146292188D01*
X162463031Y-146292981D01*
X162463033Y-146292982D01*
X162512557Y-146307089D01*
X162793478Y-146387111D01*
X163135412Y-146443105D01*
X163354757Y-146453449D01*
X163478608Y-146459290D01*
X163478610Y-146459290D01*
X163481516Y-146459427D01*
X163750539Y-146441086D01*
X163824313Y-146436057D01*
X163824314Y-146436057D01*
X163827202Y-146435860D01*
X163830048Y-146435332D01*
X163830052Y-146435332D01*
X164165030Y-146373248D01*
X164165035Y-146373247D01*
X164167888Y-146372718D01*
X164266544Y-146342367D01*
X164496302Y-146271685D01*
X164496310Y-146271682D01*
X164499060Y-146270836D01*
X164816326Y-146131566D01*
X165115483Y-145956753D01*
X165392564Y-145748714D01*
X165643898Y-145510207D01*
X165866153Y-145244394D01*
X166020745Y-145009050D01*
X166054797Y-144957211D01*
X166054800Y-144957207D01*
X166056383Y-144954796D01*
X166081207Y-144905440D01*
X166146406Y-144775806D01*
X166212067Y-144645253D01*
X166215606Y-144635582D01*
X166330146Y-144322588D01*
X166330148Y-144322582D01*
X166331141Y-144319868D01*
X166412027Y-143982953D01*
X166453653Y-143638974D01*
X166459592Y-143450000D01*
X166439647Y-143104086D01*
X166380075Y-142762757D01*
X166281667Y-142430537D01*
X166145727Y-142111830D01*
X166099304Y-142030441D01*
X166021329Y-141893738D01*
X165974056Y-141810859D01*
X165768930Y-141531614D01*
X165700205Y-141457656D01*
X165535047Y-141279925D01*
X165533069Y-141277796D01*
X165527281Y-141272852D01*
X165271809Y-141054659D01*
X165271807Y-141054657D01*
X165269597Y-141052770D01*
X164982007Y-140859518D01*
X164928936Y-140832126D01*
X164676681Y-140701927D01*
X164676674Y-140701924D01*
X164674111Y-140700601D01*
X164416374Y-140603210D01*
X164352701Y-140579150D01*
X164349991Y-140578126D01*
X164347180Y-140577420D01*
X164347177Y-140577419D01*
X164016761Y-140494424D01*
X164016755Y-140494423D01*
X164013941Y-140493716D01*
X164011059Y-140493337D01*
X164011056Y-140493336D01*
X163839201Y-140470711D01*
X163670417Y-140448490D01*
X163523172Y-140446177D01*
X163326866Y-140443093D01*
X163326858Y-140443093D01*
X163323971Y-140443048D01*
X163186270Y-140456792D01*
X163046819Y-140470711D01*
X162986072Y-140457466D01*
X162944712Y-140411044D01*
X162938537Y-140349177D01*
X162967963Y-140297274D01*
X163117963Y-140156415D01*
X163120271Y-140154248D01*
X163313127Y-139921124D01*
X163475245Y-139665667D01*
X163604068Y-139391906D01*
X163697563Y-139104157D01*
X163754256Y-138806960D01*
X163758437Y-138740514D01*
X163773055Y-138508163D01*
X163773254Y-138505000D01*
X163754256Y-138203040D01*
X163697563Y-137905843D01*
X163604068Y-137618094D01*
X163475245Y-137344333D01*
X163313127Y-137088876D01*
X163290545Y-137061579D01*
X163122285Y-136858186D01*
X163122281Y-136858182D01*
X163120271Y-136855752D01*
X162899716Y-136648638D01*
X162897166Y-136646785D01*
X162897162Y-136646782D01*
X162657500Y-136472658D01*
X162654943Y-136470800D01*
X162389810Y-136325042D01*
X162386867Y-136323877D01*
X162386859Y-136323873D01*
X162111448Y-136214830D01*
X162111445Y-136214829D01*
X162108500Y-136213663D01*
X162105445Y-136212879D01*
X162105437Y-136212876D01*
X161881166Y-136155294D01*
X161815449Y-136138421D01*
X161812330Y-136138027D01*
X161812325Y-136138026D01*
X161518416Y-136100896D01*
X161518409Y-136100896D01*
X161515278Y-136100500D01*
X161212722Y-136100500D01*
X161209591Y-136100896D01*
X161209584Y-136100896D01*
X160915675Y-136138026D01*
X160915670Y-136138027D01*
X160912551Y-136138421D01*
X160846835Y-136155294D01*
X160622563Y-136212876D01*
X160622555Y-136212879D01*
X160619500Y-136213663D01*
X160616555Y-136214829D01*
X160616552Y-136214830D01*
X160341141Y-136323873D01*
X160341133Y-136323877D01*
X160338190Y-136325042D01*
X160073057Y-136470800D01*
X160070500Y-136472658D01*
X159830838Y-136646782D01*
X159830834Y-136646785D01*
X159828284Y-136648638D01*
X159607729Y-136855752D01*
X159605719Y-136858182D01*
X159605715Y-136858186D01*
X159437455Y-137061579D01*
X159414873Y-137088876D01*
X159252755Y-137344333D01*
X159123932Y-137618094D01*
X159030437Y-137905843D01*
X158973744Y-138203040D01*
X158954746Y-138505000D01*
X71648683Y-138505000D01*
X71696790Y-138388860D01*
X71721655Y-138285290D01*
X71741962Y-138200704D01*
X71741963Y-138200700D01*
X71742886Y-138196854D01*
X71757189Y-138015123D01*
X71757553Y-138012490D01*
X71757553Y-138010492D01*
X71757654Y-138009209D01*
X71759486Y-138000000D01*
X71756433Y-137984650D01*
X71754500Y-137965025D01*
X71754500Y-134695000D01*
X73229746Y-134695000D01*
X73248744Y-134996960D01*
X73305437Y-135294157D01*
X73398932Y-135581906D01*
X73527755Y-135855667D01*
X73689873Y-136111124D01*
X73691884Y-136113555D01*
X73691887Y-136113559D01*
X73775666Y-136214830D01*
X73882729Y-136344248D01*
X74103284Y-136551362D01*
X74105834Y-136553215D01*
X74105838Y-136553218D01*
X74234618Y-136646782D01*
X74348057Y-136729200D01*
X74613190Y-136874958D01*
X74616133Y-136876123D01*
X74616141Y-136876127D01*
X74891552Y-136985170D01*
X74891555Y-136985171D01*
X74894500Y-136986337D01*
X74897555Y-136987121D01*
X74897563Y-136987124D01*
X75121834Y-137044706D01*
X75187551Y-137061579D01*
X75190670Y-137061973D01*
X75190675Y-137061974D01*
X75484584Y-137099104D01*
X75484591Y-137099104D01*
X75487722Y-137099500D01*
X75790278Y-137099500D01*
X75793409Y-137099104D01*
X75793416Y-137099104D01*
X76087325Y-137061974D01*
X76087330Y-137061973D01*
X76090449Y-137061579D01*
X76156166Y-137044706D01*
X76380437Y-136987124D01*
X76380445Y-136987121D01*
X76383500Y-136986337D01*
X76386445Y-136985171D01*
X76386448Y-136985170D01*
X76661859Y-136876127D01*
X76661867Y-136876123D01*
X76664810Y-136874958D01*
X76929943Y-136729200D01*
X77043382Y-136646782D01*
X77172162Y-136553218D01*
X77172166Y-136553215D01*
X77174716Y-136551362D01*
X77395271Y-136344248D01*
X77502335Y-136214830D01*
X77586113Y-136113559D01*
X77586116Y-136113555D01*
X77588127Y-136111124D01*
X77750245Y-135855667D01*
X77879068Y-135581906D01*
X77972563Y-135294157D01*
X78029256Y-134996960D01*
X78048254Y-134695000D01*
X78044100Y-134628970D01*
X105237307Y-134628970D01*
X105242293Y-134654037D01*
X105257059Y-134728271D01*
X105313309Y-134812454D01*
X105397492Y-134868704D01*
X105496793Y-134888456D01*
X105506511Y-134886523D01*
X105506512Y-134886523D01*
X105512143Y-134885403D01*
X105531768Y-134883470D01*
X131461862Y-134883470D01*
X131481487Y-134885403D01*
X131487118Y-134886523D01*
X131487119Y-134886523D01*
X131496837Y-134888456D01*
X131596138Y-134868704D01*
X131680321Y-134812454D01*
X131736571Y-134728271D01*
X131751337Y-134654037D01*
X131756323Y-134628970D01*
X131753270Y-134613620D01*
X131751337Y-134593995D01*
X131751337Y-132124437D01*
X131753270Y-132104812D01*
X131754390Y-132099181D01*
X131754390Y-132099180D01*
X131756323Y-132089462D01*
X131736571Y-131990161D01*
X131680321Y-131905978D01*
X131596138Y-131849728D01*
X131521904Y-131834962D01*
X131496837Y-131829976D01*
X131487119Y-131831909D01*
X131487118Y-131831909D01*
X131481487Y-131833029D01*
X131461862Y-131834962D01*
X105531768Y-131834962D01*
X105512143Y-131833029D01*
X105506512Y-131831909D01*
X105506511Y-131831909D01*
X105496793Y-131829976D01*
X105471726Y-131834962D01*
X105397492Y-131849728D01*
X105313309Y-131905978D01*
X105257059Y-131990161D01*
X105237307Y-132089462D01*
X105239240Y-132099180D01*
X105239240Y-132099181D01*
X105240360Y-132104812D01*
X105242293Y-132124437D01*
X105242293Y-134593995D01*
X105240360Y-134613620D01*
X105237307Y-134628970D01*
X78044100Y-134628970D01*
X78029256Y-134393040D01*
X77972563Y-134095843D01*
X77879068Y-133808094D01*
X77750245Y-133534333D01*
X77588127Y-133278876D01*
X77395271Y-133045752D01*
X77174716Y-132838638D01*
X77172166Y-132836785D01*
X77172162Y-132836782D01*
X76932500Y-132662658D01*
X76929943Y-132660800D01*
X76664810Y-132515042D01*
X76661867Y-132513877D01*
X76661859Y-132513873D01*
X76386448Y-132404830D01*
X76386445Y-132404829D01*
X76383500Y-132403663D01*
X76380445Y-132402879D01*
X76380437Y-132402876D01*
X76150978Y-132343962D01*
X76090449Y-132328421D01*
X76087330Y-132328027D01*
X76087325Y-132328026D01*
X75793416Y-132290896D01*
X75793409Y-132290896D01*
X75790278Y-132290500D01*
X75487722Y-132290500D01*
X75484591Y-132290896D01*
X75484584Y-132290896D01*
X75190675Y-132328026D01*
X75190670Y-132328027D01*
X75187551Y-132328421D01*
X75127022Y-132343962D01*
X74897563Y-132402876D01*
X74897555Y-132402879D01*
X74894500Y-132403663D01*
X74891555Y-132404829D01*
X74891552Y-132404830D01*
X74616141Y-132513873D01*
X74616133Y-132513877D01*
X74613190Y-132515042D01*
X74348057Y-132660800D01*
X74345500Y-132662658D01*
X74105838Y-132836782D01*
X74105834Y-132836785D01*
X74103284Y-132838638D01*
X73882729Y-133045752D01*
X73689873Y-133278876D01*
X73527755Y-133534333D01*
X73398932Y-133808094D01*
X73305437Y-134095843D01*
X73248744Y-134393040D01*
X73229746Y-134695000D01*
X71754500Y-134695000D01*
X71754500Y-131134975D01*
X71756433Y-131115350D01*
X71757553Y-131109719D01*
X71757553Y-131109718D01*
X71759486Y-131100000D01*
X71757553Y-131090283D01*
X71757553Y-131080373D01*
X71758202Y-131080373D01*
X71757614Y-131068384D01*
X71767854Y-130964418D01*
X71771702Y-130945077D01*
X71808371Y-130824194D01*
X71815918Y-130805974D01*
X71875470Y-130694560D01*
X71886426Y-130678162D01*
X71966566Y-130580511D01*
X71980511Y-130566566D01*
X72078162Y-130486426D01*
X72094560Y-130475470D01*
X72205974Y-130415918D01*
X72224194Y-130408371D01*
X72345077Y-130371702D01*
X72364418Y-130367854D01*
X72468384Y-130357614D01*
X72480373Y-130358202D01*
X72480373Y-130357553D01*
X72490283Y-130357553D01*
X72500000Y-130359486D01*
X72509718Y-130357553D01*
X72509719Y-130357553D01*
X72515350Y-130356433D01*
X72534975Y-130354500D01*
X75165025Y-130354500D01*
X75184650Y-130356433D01*
X75190281Y-130357553D01*
X75190282Y-130357553D01*
X75200000Y-130359486D01*
X75209209Y-130357654D01*
X75210492Y-130357553D01*
X75212490Y-130357553D01*
X75215123Y-130357189D01*
X75396854Y-130342886D01*
X75400700Y-130341963D01*
X75400704Y-130341962D01*
X75492857Y-130319838D01*
X75588860Y-130296790D01*
X75592512Y-130295277D01*
X75592516Y-130295276D01*
X75767644Y-130222735D01*
X75767643Y-130222735D01*
X75771292Y-130221224D01*
X75939657Y-130118050D01*
X76089808Y-129989808D01*
X76218050Y-129839657D01*
X76321224Y-129671292D01*
X76396790Y-129488860D01*
X76442886Y-129296854D01*
X76457189Y-129115123D01*
X76457553Y-129112490D01*
X76457553Y-129110492D01*
X76457654Y-129109209D01*
X76459486Y-129100000D01*
X76456433Y-129084650D01*
X76454500Y-129065025D01*
X76454500Y-127010701D01*
X105240492Y-127010701D01*
X105245478Y-127035768D01*
X105260244Y-127110002D01*
X105316494Y-127194185D01*
X105400677Y-127250435D01*
X105499978Y-127270187D01*
X105509696Y-127268254D01*
X105509697Y-127268254D01*
X105515328Y-127267134D01*
X105534953Y-127265201D01*
X131465047Y-127265201D01*
X131484672Y-127267134D01*
X131490303Y-127268254D01*
X131490304Y-127268254D01*
X131500022Y-127270187D01*
X131599323Y-127250435D01*
X131683506Y-127194185D01*
X131739756Y-127110002D01*
X131754522Y-127035768D01*
X131759508Y-127010701D01*
X131756455Y-126995351D01*
X131754522Y-126975726D01*
X131754522Y-124506168D01*
X131756455Y-124486543D01*
X131757575Y-124480912D01*
X131757575Y-124480911D01*
X131759508Y-124471193D01*
X131739756Y-124371892D01*
X131683506Y-124287709D01*
X131599323Y-124231459D01*
X131525089Y-124216693D01*
X131500022Y-124211707D01*
X131490304Y-124213640D01*
X131490303Y-124213640D01*
X131484672Y-124214760D01*
X131465047Y-124216693D01*
X105534953Y-124216693D01*
X105515328Y-124214760D01*
X105509697Y-124213640D01*
X105509696Y-124213640D01*
X105499978Y-124211707D01*
X105474911Y-124216693D01*
X105400677Y-124231459D01*
X105316494Y-124287709D01*
X105260244Y-124371892D01*
X105240492Y-124471193D01*
X105242425Y-124480911D01*
X105242425Y-124480912D01*
X105243545Y-124486543D01*
X105245478Y-124506168D01*
X105245478Y-126975726D01*
X105243545Y-126995351D01*
X105240492Y-127010701D01*
X76454500Y-127010701D01*
X76454500Y-119389873D01*
X105240096Y-119389873D01*
X105245082Y-119414940D01*
X105259848Y-119489174D01*
X105316098Y-119573357D01*
X105400281Y-119629607D01*
X105499582Y-119649359D01*
X105509300Y-119647426D01*
X105509301Y-119647426D01*
X105514932Y-119646306D01*
X105534557Y-119644373D01*
X131464651Y-119644373D01*
X131484276Y-119646306D01*
X131489907Y-119647426D01*
X131489908Y-119647426D01*
X131499626Y-119649359D01*
X131598927Y-119629607D01*
X131683110Y-119573357D01*
X131739360Y-119489174D01*
X131754126Y-119414940D01*
X131759112Y-119389873D01*
X131756059Y-119374523D01*
X131754126Y-119354898D01*
X131754126Y-116885340D01*
X131756059Y-116865715D01*
X131757179Y-116860084D01*
X131757179Y-116860083D01*
X131759112Y-116850365D01*
X131739360Y-116751064D01*
X131683110Y-116666881D01*
X131598927Y-116610631D01*
X131524693Y-116595865D01*
X131499626Y-116590879D01*
X131489908Y-116592812D01*
X131489907Y-116592812D01*
X131484276Y-116593932D01*
X131464651Y-116595865D01*
X105534557Y-116595865D01*
X105514932Y-116593932D01*
X105509301Y-116592812D01*
X105509300Y-116592812D01*
X105499582Y-116590879D01*
X105474515Y-116595865D01*
X105400281Y-116610631D01*
X105316098Y-116666881D01*
X105259848Y-116751064D01*
X105240096Y-116850365D01*
X105242029Y-116860083D01*
X105242029Y-116860084D01*
X105243149Y-116865715D01*
X105245082Y-116885340D01*
X105245082Y-119354898D01*
X105243149Y-119374523D01*
X105240096Y-119389873D01*
X76454500Y-119389873D01*
X76454500Y-106274933D01*
X105245500Y-106274933D01*
X105245501Y-114325066D01*
X105260266Y-114399301D01*
X105265769Y-114407536D01*
X105265769Y-114407537D01*
X105311012Y-114475247D01*
X105316516Y-114483484D01*
X105400699Y-114539734D01*
X105449239Y-114549389D01*
X105470081Y-114553535D01*
X105470082Y-114553535D01*
X105474933Y-114554500D01*
X105479880Y-114554500D01*
X129450696Y-114554499D01*
X129474930Y-114554499D01*
X129474933Y-114554500D01*
X129479076Y-114554500D01*
X131525066Y-114554499D01*
X131560548Y-114547442D01*
X131589584Y-114541667D01*
X131589586Y-114541666D01*
X131599301Y-114539734D01*
X131683484Y-114483484D01*
X131739734Y-114399301D01*
X131754500Y-114325067D01*
X131754499Y-106274934D01*
X131739734Y-106200699D01*
X131734230Y-106192461D01*
X131688988Y-106124753D01*
X131683484Y-106116516D01*
X131599301Y-106060266D01*
X131550761Y-106050611D01*
X131529919Y-106046465D01*
X131529918Y-106046465D01*
X131525067Y-106045500D01*
X131030100Y-106045500D01*
X130970969Y-106026287D01*
X130934424Y-105975987D01*
X130929500Y-105944900D01*
X130929500Y-100267733D01*
X130915150Y-100172283D01*
X130885414Y-100110359D01*
X130875500Y-100066811D01*
X130875500Y-99780252D01*
X130863867Y-99721769D01*
X130819552Y-99655448D01*
X130753231Y-99611133D01*
X130712027Y-99602937D01*
X130699600Y-99600465D01*
X130699599Y-99600465D01*
X130694748Y-99599500D01*
X130305252Y-99599500D01*
X130251234Y-99610245D01*
X130189492Y-99602937D01*
X130175718Y-99595224D01*
X130132341Y-99566240D01*
X130114389Y-99558804D01*
X130054869Y-99546965D01*
X130045070Y-99546000D01*
X130040933Y-99546000D01*
X130028043Y-99550188D01*
X130025000Y-99554377D01*
X130025000Y-101038066D01*
X130029247Y-101051139D01*
X130065577Y-101101143D01*
X130070500Y-101132229D01*
X130070500Y-105944900D01*
X130051287Y-106004031D01*
X130000987Y-106040576D01*
X129969900Y-106045500D01*
X106625732Y-106045501D01*
X105474934Y-106045501D01*
X105439452Y-106052558D01*
X105410416Y-106058333D01*
X105410414Y-106058334D01*
X105400699Y-106060266D01*
X105316516Y-106116516D01*
X105260266Y-106200699D01*
X105245500Y-106274933D01*
X76454500Y-106274933D01*
X76454500Y-102190591D01*
X115174124Y-102190591D01*
X115181051Y-102197929D01*
X115348547Y-102295806D01*
X115355970Y-102299362D01*
X115560096Y-102377310D01*
X115568001Y-102379607D01*
X115782116Y-102423169D01*
X115790287Y-102424143D01*
X116008638Y-102432150D01*
X116016866Y-102431777D01*
X116233602Y-102404012D01*
X116241646Y-102402302D01*
X116450942Y-102339510D01*
X116458587Y-102336514D01*
X116654828Y-102240377D01*
X116661882Y-102236172D01*
X116716078Y-102197514D01*
X116721200Y-102190591D01*
X120274124Y-102190591D01*
X120281051Y-102197929D01*
X120448547Y-102295806D01*
X120455970Y-102299362D01*
X120660096Y-102377310D01*
X120668001Y-102379607D01*
X120882116Y-102423169D01*
X120890287Y-102424143D01*
X121108638Y-102432150D01*
X121116866Y-102431777D01*
X121333602Y-102404012D01*
X121341646Y-102402302D01*
X121550942Y-102339510D01*
X121558587Y-102336514D01*
X121754828Y-102240377D01*
X121761882Y-102236172D01*
X121816078Y-102197514D01*
X121824140Y-102186618D01*
X121824148Y-102185740D01*
X121820473Y-102179684D01*
X121061268Y-101420478D01*
X121049189Y-101414323D01*
X121044077Y-101415133D01*
X120279841Y-102179370D01*
X120274124Y-102190591D01*
X116721200Y-102190591D01*
X116724140Y-102186618D01*
X116724148Y-102185740D01*
X116720473Y-102179684D01*
X115961268Y-101420478D01*
X115949189Y-101414323D01*
X115944077Y-101415133D01*
X115179841Y-102179370D01*
X115174124Y-102190591D01*
X76454500Y-102190591D01*
X76454500Y-101020318D01*
X114566925Y-101020318D01*
X114579503Y-101238459D01*
X114580646Y-101246598D01*
X114628686Y-101459768D01*
X114631145Y-101467613D01*
X114713355Y-101670070D01*
X114717060Y-101677407D01*
X114802328Y-101816551D01*
X114812171Y-101824957D01*
X114820492Y-101820297D01*
X115579522Y-101061268D01*
X115584850Y-101050811D01*
X116314323Y-101050811D01*
X116315133Y-101055923D01*
X117077066Y-101817855D01*
X117089144Y-101824009D01*
X117090106Y-101823856D01*
X117095360Y-101819345D01*
X117133677Y-101766023D01*
X117137912Y-101758975D01*
X117234729Y-101563080D01*
X117237756Y-101555435D01*
X117301275Y-101346369D01*
X117303015Y-101338320D01*
X117331725Y-101120247D01*
X117332139Y-101114925D01*
X117333661Y-101052669D01*
X117333507Y-101047342D01*
X117331285Y-101020318D01*
X119666925Y-101020318D01*
X119679503Y-101238459D01*
X119680646Y-101246598D01*
X119728686Y-101459768D01*
X119731145Y-101467613D01*
X119813355Y-101670070D01*
X119817060Y-101677407D01*
X119902328Y-101816551D01*
X119912171Y-101824957D01*
X119920492Y-101820297D01*
X120679522Y-101061268D01*
X120684850Y-101050811D01*
X121414323Y-101050811D01*
X121415133Y-101055923D01*
X122177066Y-101817855D01*
X122189144Y-101824009D01*
X122190106Y-101823856D01*
X122195360Y-101819345D01*
X122233677Y-101766023D01*
X122237912Y-101758975D01*
X122334729Y-101563080D01*
X122337756Y-101555435D01*
X122401275Y-101346369D01*
X122403015Y-101338320D01*
X122431725Y-101120247D01*
X122432139Y-101114925D01*
X122433661Y-101052669D01*
X122433507Y-101047342D01*
X122415484Y-100828117D01*
X122414140Y-100819995D01*
X122414078Y-100819748D01*
X128824500Y-100819748D01*
X128836133Y-100878231D01*
X128880448Y-100944552D01*
X128946769Y-100988867D01*
X128985088Y-100996489D01*
X129000400Y-100999535D01*
X129000401Y-100999535D01*
X129005252Y-101000500D01*
X129394748Y-101000500D01*
X129448766Y-100989755D01*
X129510508Y-100997063D01*
X129524282Y-101004776D01*
X129567659Y-101033760D01*
X129585611Y-101041196D01*
X129645131Y-101053035D01*
X129654930Y-101054000D01*
X129659067Y-101054000D01*
X129671957Y-101049812D01*
X129675000Y-101045623D01*
X129675000Y-99561934D01*
X129670812Y-99549044D01*
X129666623Y-99546001D01*
X129654922Y-99546001D01*
X129645139Y-99546965D01*
X129585614Y-99558804D01*
X129567658Y-99566241D01*
X129524282Y-99595224D01*
X129464442Y-99612100D01*
X129448771Y-99610246D01*
X129394748Y-99599500D01*
X129005252Y-99599500D01*
X129000401Y-99600465D01*
X129000400Y-99600465D01*
X128987973Y-99602937D01*
X128946769Y-99611133D01*
X128880448Y-99655448D01*
X128836133Y-99721769D01*
X128824500Y-99780252D01*
X128824500Y-100819748D01*
X122414078Y-100819748D01*
X122360907Y-100608072D01*
X122358258Y-100600290D01*
X122271130Y-100399907D01*
X122267240Y-100392652D01*
X122197065Y-100284178D01*
X122186710Y-100275762D01*
X122179015Y-100280196D01*
X121420478Y-101038732D01*
X121414323Y-101050811D01*
X120684850Y-101050811D01*
X120685677Y-101049189D01*
X120684867Y-101044077D01*
X119923192Y-100282403D01*
X119911114Y-100276249D01*
X119910809Y-100276297D01*
X119904787Y-100281597D01*
X119849180Y-100363115D01*
X119845121Y-100370260D01*
X119753123Y-100568454D01*
X119750278Y-100576187D01*
X119691888Y-100786737D01*
X119690345Y-100794823D01*
X119667126Y-101012083D01*
X119666925Y-101020318D01*
X117331285Y-101020318D01*
X117315484Y-100828117D01*
X117314140Y-100819995D01*
X117260907Y-100608072D01*
X117258258Y-100600290D01*
X117171130Y-100399907D01*
X117167240Y-100392652D01*
X117097065Y-100284178D01*
X117086710Y-100275762D01*
X117079015Y-100280196D01*
X116320478Y-101038732D01*
X116314323Y-101050811D01*
X115584850Y-101050811D01*
X115585677Y-101049189D01*
X115584867Y-101044077D01*
X114823192Y-100282403D01*
X114811114Y-100276249D01*
X114810809Y-100276297D01*
X114804787Y-100281597D01*
X114749180Y-100363115D01*
X114745121Y-100370260D01*
X114653123Y-100568454D01*
X114650278Y-100576187D01*
X114591888Y-100786737D01*
X114590345Y-100794823D01*
X114567126Y-101012083D01*
X114566925Y-101020318D01*
X76454500Y-101020318D01*
X76454500Y-99912501D01*
X115175138Y-99912501D01*
X115175162Y-99914043D01*
X115178324Y-99919113D01*
X115938732Y-100679522D01*
X115950811Y-100685677D01*
X115955923Y-100684867D01*
X116719885Y-99920904D01*
X116724167Y-99912501D01*
X120275138Y-99912501D01*
X120275162Y-99914043D01*
X120278324Y-99919113D01*
X121038732Y-100679522D01*
X121050811Y-100685677D01*
X121055923Y-100684867D01*
X121819885Y-99920904D01*
X121826039Y-99908826D01*
X121825694Y-99906650D01*
X121822611Y-99902890D01*
X121818986Y-99900027D01*
X121812125Y-99895468D01*
X121620834Y-99789870D01*
X121613331Y-99786499D01*
X121407357Y-99713559D01*
X121399403Y-99711457D01*
X121184288Y-99673140D01*
X121176086Y-99672364D01*
X120957610Y-99669696D01*
X120949389Y-99670270D01*
X120733409Y-99703320D01*
X120725399Y-99705228D01*
X120517713Y-99773110D01*
X120510118Y-99776303D01*
X120316304Y-99877196D01*
X120309346Y-99881578D01*
X120282933Y-99901410D01*
X120275138Y-99912501D01*
X116724167Y-99912501D01*
X116726039Y-99908826D01*
X116725694Y-99906650D01*
X116722611Y-99902890D01*
X116718986Y-99900027D01*
X116712125Y-99895468D01*
X116520834Y-99789870D01*
X116513331Y-99786499D01*
X116307357Y-99713559D01*
X116299403Y-99711457D01*
X116084288Y-99673140D01*
X116076086Y-99672364D01*
X115857610Y-99669696D01*
X115849389Y-99670270D01*
X115633409Y-99703320D01*
X115625399Y-99705228D01*
X115417713Y-99773110D01*
X115410118Y-99776303D01*
X115216304Y-99877196D01*
X115209346Y-99881578D01*
X115182933Y-99901410D01*
X115175138Y-99912501D01*
X76454500Y-99912501D01*
X76454500Y-98500000D01*
X117215613Y-98500000D01*
X117235126Y-98723031D01*
X117293071Y-98939286D01*
X117387688Y-99142193D01*
X117516102Y-99325588D01*
X117674412Y-99483898D01*
X117678006Y-99486415D01*
X117678009Y-99486417D01*
X117763103Y-99546000D01*
X117857806Y-99612312D01*
X118060714Y-99706929D01*
X118198866Y-99743947D01*
X118272721Y-99763736D01*
X118272724Y-99763736D01*
X118276969Y-99764874D01*
X118500000Y-99784387D01*
X118723031Y-99764874D01*
X118727276Y-99763736D01*
X118727279Y-99763736D01*
X118801134Y-99743947D01*
X118939286Y-99706929D01*
X119142194Y-99612312D01*
X119236897Y-99546000D01*
X119321991Y-99486417D01*
X119321994Y-99486415D01*
X119325588Y-99483898D01*
X119483898Y-99325588D01*
X119612312Y-99142193D01*
X119662022Y-99035589D01*
X119684407Y-98987585D01*
X119726810Y-98942113D01*
X119775582Y-98929500D01*
X128724920Y-98929500D01*
X128784051Y-98948713D01*
X128820596Y-98999013D01*
X128824500Y-99017681D01*
X128824500Y-99019748D01*
X128836133Y-99078231D01*
X128880448Y-99144552D01*
X128946769Y-99188867D01*
X128985088Y-99196489D01*
X129000400Y-99199535D01*
X129000401Y-99199535D01*
X129005252Y-99200500D01*
X129394748Y-99200500D01*
X129448766Y-99189755D01*
X129510508Y-99197063D01*
X129524282Y-99204776D01*
X129567659Y-99233760D01*
X129585611Y-99241196D01*
X129645131Y-99253035D01*
X129654930Y-99254000D01*
X129659067Y-99254000D01*
X129671957Y-99249812D01*
X129675000Y-99245623D01*
X129675000Y-97761934D01*
X129670812Y-97749044D01*
X129666623Y-97746001D01*
X129654922Y-97746001D01*
X129645139Y-97746965D01*
X129585614Y-97758804D01*
X129567658Y-97766241D01*
X129524282Y-97795224D01*
X129464442Y-97812100D01*
X129448771Y-97810246D01*
X129394748Y-97799500D01*
X129005252Y-97799500D01*
X129000401Y-97800465D01*
X129000400Y-97800465D01*
X128985088Y-97803511D01*
X128946769Y-97811133D01*
X128880448Y-97855448D01*
X128836133Y-97921769D01*
X128824500Y-97980252D01*
X128824500Y-97980982D01*
X128800122Y-98036721D01*
X128746484Y-98068162D01*
X128724920Y-98070500D01*
X119775582Y-98070500D01*
X119716451Y-98051287D01*
X119684407Y-98012415D01*
X119642138Y-97921769D01*
X119612312Y-97857807D01*
X119534025Y-97746001D01*
X119486417Y-97678009D01*
X119486415Y-97678006D01*
X119483898Y-97674412D01*
X119325588Y-97516102D01*
X119321994Y-97513585D01*
X119321991Y-97513583D01*
X119233891Y-97451895D01*
X119142194Y-97387688D01*
X118939286Y-97293071D01*
X118801134Y-97256053D01*
X118727279Y-97236264D01*
X118727276Y-97236264D01*
X118723031Y-97235126D01*
X118500000Y-97215613D01*
X118276969Y-97235126D01*
X118272724Y-97236264D01*
X118272721Y-97236264D01*
X118198866Y-97256053D01*
X118060714Y-97293071D01*
X117857807Y-97387688D01*
X117766109Y-97451895D01*
X117678009Y-97513583D01*
X117678006Y-97513585D01*
X117674412Y-97516102D01*
X117516102Y-97674412D01*
X117513585Y-97678006D01*
X117513583Y-97678009D01*
X117465975Y-97746001D01*
X117387688Y-97857807D01*
X117293071Y-98060714D01*
X117235126Y-98276969D01*
X117215613Y-98500000D01*
X76454500Y-98500000D01*
X76454500Y-97090591D01*
X115174124Y-97090591D01*
X115181051Y-97097929D01*
X115348547Y-97195806D01*
X115355970Y-97199362D01*
X115560096Y-97277310D01*
X115568001Y-97279607D01*
X115782116Y-97323169D01*
X115790287Y-97324143D01*
X116008638Y-97332150D01*
X116016866Y-97331777D01*
X116233602Y-97304012D01*
X116241646Y-97302302D01*
X116450942Y-97239510D01*
X116458587Y-97236514D01*
X116654828Y-97140377D01*
X116661882Y-97136172D01*
X116716078Y-97097514D01*
X116721200Y-97090591D01*
X120274124Y-97090591D01*
X120281051Y-97097929D01*
X120448547Y-97195806D01*
X120455970Y-97199362D01*
X120660096Y-97277310D01*
X120668001Y-97279607D01*
X120882116Y-97323169D01*
X120890287Y-97324143D01*
X121108638Y-97332150D01*
X121116866Y-97331777D01*
X121333602Y-97304012D01*
X121341646Y-97302302D01*
X121550942Y-97239510D01*
X121558587Y-97236514D01*
X121754828Y-97140377D01*
X121761882Y-97136172D01*
X121816078Y-97097514D01*
X121824140Y-97086618D01*
X121824148Y-97085740D01*
X121820473Y-97079684D01*
X121061268Y-96320478D01*
X121049189Y-96314323D01*
X121044077Y-96315133D01*
X120279841Y-97079370D01*
X120274124Y-97090591D01*
X116721200Y-97090591D01*
X116724140Y-97086618D01*
X116724148Y-97085740D01*
X116720473Y-97079684D01*
X115961268Y-96320478D01*
X115949189Y-96314323D01*
X115944077Y-96315133D01*
X115179841Y-97079370D01*
X115174124Y-97090591D01*
X76454500Y-97090591D01*
X76454500Y-95920318D01*
X114566925Y-95920318D01*
X114579503Y-96138459D01*
X114580646Y-96146598D01*
X114628686Y-96359768D01*
X114631145Y-96367613D01*
X114713355Y-96570070D01*
X114717060Y-96577407D01*
X114802328Y-96716551D01*
X114812171Y-96724957D01*
X114820492Y-96720297D01*
X115579522Y-95961268D01*
X115584850Y-95950811D01*
X116314323Y-95950811D01*
X116315133Y-95955923D01*
X117077066Y-96717855D01*
X117089144Y-96724009D01*
X117090106Y-96723856D01*
X117095360Y-96719345D01*
X117133677Y-96666023D01*
X117137912Y-96658975D01*
X117234729Y-96463080D01*
X117237756Y-96455435D01*
X117301275Y-96246369D01*
X117303015Y-96238320D01*
X117331725Y-96020247D01*
X117332139Y-96014925D01*
X117333661Y-95952669D01*
X117333507Y-95947342D01*
X117331285Y-95920318D01*
X119666925Y-95920318D01*
X119679503Y-96138459D01*
X119680646Y-96146598D01*
X119728686Y-96359768D01*
X119731145Y-96367613D01*
X119813355Y-96570070D01*
X119817060Y-96577407D01*
X119902328Y-96716551D01*
X119912171Y-96724957D01*
X119920492Y-96720297D01*
X120679522Y-95961268D01*
X120684850Y-95950811D01*
X121414323Y-95950811D01*
X121415133Y-95955923D01*
X122177066Y-96717855D01*
X122189144Y-96724009D01*
X122190106Y-96723856D01*
X122195360Y-96719345D01*
X122233677Y-96666023D01*
X122237912Y-96658975D01*
X122334729Y-96463080D01*
X122337756Y-96455435D01*
X122401275Y-96246369D01*
X122403015Y-96238320D01*
X122431725Y-96020247D01*
X122432139Y-96014925D01*
X122433661Y-95952669D01*
X122433507Y-95947342D01*
X122415484Y-95728117D01*
X122414140Y-95719995D01*
X122360907Y-95508072D01*
X122358258Y-95500290D01*
X122271130Y-95299907D01*
X122267240Y-95292652D01*
X122197065Y-95184178D01*
X122186710Y-95175762D01*
X122179015Y-95180196D01*
X121420478Y-95938732D01*
X121414323Y-95950811D01*
X120684850Y-95950811D01*
X120685677Y-95949189D01*
X120684867Y-95944077D01*
X119923192Y-95182403D01*
X119911114Y-95176249D01*
X119910809Y-95176297D01*
X119904787Y-95181597D01*
X119849180Y-95263115D01*
X119845121Y-95270260D01*
X119753123Y-95468454D01*
X119750278Y-95476187D01*
X119691888Y-95686737D01*
X119690345Y-95694823D01*
X119667126Y-95912083D01*
X119666925Y-95920318D01*
X117331285Y-95920318D01*
X117315484Y-95728117D01*
X117314140Y-95719995D01*
X117260907Y-95508072D01*
X117258258Y-95500290D01*
X117171130Y-95299907D01*
X117167240Y-95292652D01*
X117097065Y-95184178D01*
X117086710Y-95175762D01*
X117079015Y-95180196D01*
X116320478Y-95938732D01*
X116314323Y-95950811D01*
X115584850Y-95950811D01*
X115585677Y-95949189D01*
X115584867Y-95944077D01*
X114823192Y-95182403D01*
X114811114Y-95176249D01*
X114810809Y-95176297D01*
X114804787Y-95181597D01*
X114749180Y-95263115D01*
X114745121Y-95270260D01*
X114653123Y-95468454D01*
X114650278Y-95476187D01*
X114591888Y-95686737D01*
X114590345Y-95694823D01*
X114567126Y-95912083D01*
X114566925Y-95920318D01*
X76454500Y-95920318D01*
X76454500Y-94812501D01*
X115175138Y-94812501D01*
X115175162Y-94814043D01*
X115178324Y-94819113D01*
X115938732Y-95579522D01*
X115950811Y-95585677D01*
X115955923Y-95584867D01*
X116719885Y-94820904D01*
X116724167Y-94812501D01*
X120275138Y-94812501D01*
X120275162Y-94814043D01*
X120278324Y-94819113D01*
X121038732Y-95579522D01*
X121050811Y-95585677D01*
X121055923Y-95584867D01*
X121819885Y-94820904D01*
X121826039Y-94808826D01*
X121825694Y-94806650D01*
X121822611Y-94802890D01*
X121818986Y-94800027D01*
X121812125Y-94795468D01*
X121620834Y-94689870D01*
X121613331Y-94686499D01*
X121407357Y-94613559D01*
X121399403Y-94611457D01*
X121184288Y-94573140D01*
X121176086Y-94572364D01*
X120957610Y-94569696D01*
X120949389Y-94570270D01*
X120733409Y-94603320D01*
X120725399Y-94605228D01*
X120517713Y-94673110D01*
X120510118Y-94676303D01*
X120316304Y-94777196D01*
X120309346Y-94781578D01*
X120282933Y-94801410D01*
X120275138Y-94812501D01*
X116724167Y-94812501D01*
X116726039Y-94808826D01*
X116725694Y-94806650D01*
X116722611Y-94802890D01*
X116718986Y-94800027D01*
X116712125Y-94795468D01*
X116520834Y-94689870D01*
X116513331Y-94686499D01*
X116307357Y-94613559D01*
X116299403Y-94611457D01*
X116084288Y-94573140D01*
X116076086Y-94572364D01*
X115857610Y-94569696D01*
X115849389Y-94570270D01*
X115633409Y-94603320D01*
X115625399Y-94605228D01*
X115417713Y-94673110D01*
X115410118Y-94676303D01*
X115216304Y-94777196D01*
X115209346Y-94781578D01*
X115182933Y-94801410D01*
X115175138Y-94812501D01*
X76454500Y-94812501D01*
X76454500Y-82674933D01*
X105245500Y-82674933D01*
X105245501Y-90725066D01*
X105260266Y-90799301D01*
X105265769Y-90807536D01*
X105265769Y-90807537D01*
X105311012Y-90875247D01*
X105316516Y-90883484D01*
X105400699Y-90939734D01*
X105449239Y-90949389D01*
X105470081Y-90953535D01*
X105470082Y-90953535D01*
X105474933Y-90954500D01*
X105479880Y-90954500D01*
X129450696Y-90954499D01*
X129474930Y-90954499D01*
X129474933Y-90954500D01*
X129969900Y-90954500D01*
X130029031Y-90973713D01*
X130065576Y-91024013D01*
X130070500Y-91055100D01*
X130070500Y-97663303D01*
X130051287Y-97722434D01*
X130044765Y-97727173D01*
X130025000Y-97754377D01*
X130025000Y-99238066D01*
X130029188Y-99250956D01*
X130033377Y-99253999D01*
X130045078Y-99253999D01*
X130054861Y-99253035D01*
X130114386Y-99241196D01*
X130132342Y-99233759D01*
X130175718Y-99204776D01*
X130235558Y-99187900D01*
X130251229Y-99189754D01*
X130305252Y-99200500D01*
X130694748Y-99200500D01*
X130699599Y-99199535D01*
X130699600Y-99199535D01*
X130714912Y-99196489D01*
X130753231Y-99188867D01*
X130819552Y-99144552D01*
X130863867Y-99078231D01*
X130875500Y-99019748D01*
X130875500Y-98741583D01*
X130885759Y-98697324D01*
X130885783Y-98697274D01*
X130890059Y-98691088D01*
X130929003Y-98567947D01*
X130929500Y-98561633D01*
X130929500Y-91055099D01*
X130948713Y-90995968D01*
X130999013Y-90959423D01*
X131030100Y-90954499D01*
X131525066Y-90954499D01*
X131560548Y-90947442D01*
X131589584Y-90941667D01*
X131589586Y-90941666D01*
X131599301Y-90939734D01*
X131683484Y-90883484D01*
X131739734Y-90799301D01*
X131754500Y-90725067D01*
X131754499Y-82674934D01*
X131739734Y-82600699D01*
X131734230Y-82592461D01*
X131688988Y-82524753D01*
X131683484Y-82516516D01*
X131599301Y-82460266D01*
X131550761Y-82450611D01*
X131529919Y-82446465D01*
X131529918Y-82446465D01*
X131525067Y-82445500D01*
X131520120Y-82445500D01*
X118488142Y-82445501D01*
X105474934Y-82445501D01*
X105439452Y-82452558D01*
X105410416Y-82458333D01*
X105410414Y-82458334D01*
X105400699Y-82460266D01*
X105316516Y-82516516D01*
X105260266Y-82600699D01*
X105245500Y-82674933D01*
X76454500Y-82674933D01*
X76454500Y-80150000D01*
X105240514Y-80150000D01*
X105245500Y-80175067D01*
X105260266Y-80249301D01*
X105316516Y-80333484D01*
X105400699Y-80389734D01*
X105500000Y-80409486D01*
X105509718Y-80407553D01*
X105509719Y-80407553D01*
X105515350Y-80406433D01*
X105534975Y-80404500D01*
X131466155Y-80404500D01*
X131485780Y-80406433D01*
X131491411Y-80407553D01*
X131491412Y-80407553D01*
X131501130Y-80409486D01*
X131600431Y-80389734D01*
X131684614Y-80333484D01*
X131740864Y-80249301D01*
X131755630Y-80175067D01*
X131760616Y-80150000D01*
X131757563Y-80134650D01*
X131755630Y-80115025D01*
X131755630Y-77646278D01*
X131757563Y-77626653D01*
X131758683Y-77621022D01*
X131758683Y-77621021D01*
X131760616Y-77611303D01*
X131740864Y-77512002D01*
X131684614Y-77427819D01*
X131600431Y-77371569D01*
X131526197Y-77356803D01*
X131501130Y-77351817D01*
X131491412Y-77353750D01*
X131491411Y-77353750D01*
X131485780Y-77354870D01*
X131466155Y-77356803D01*
X105534975Y-77356803D01*
X105515350Y-77354870D01*
X105509719Y-77353750D01*
X105509718Y-77353750D01*
X105500000Y-77351817D01*
X105474933Y-77356803D01*
X105400699Y-77371569D01*
X105316516Y-77427819D01*
X105260266Y-77512002D01*
X105240514Y-77611303D01*
X105242447Y-77621021D01*
X105242447Y-77621022D01*
X105243567Y-77626653D01*
X105245500Y-77646278D01*
X105245500Y-80115025D01*
X105243567Y-80134650D01*
X105240514Y-80150000D01*
X76454500Y-80150000D01*
X76454500Y-72527384D01*
X105240514Y-72527384D01*
X105245500Y-72552451D01*
X105260266Y-72626685D01*
X105316516Y-72710868D01*
X105400699Y-72767118D01*
X105500000Y-72786870D01*
X105509718Y-72784937D01*
X105509719Y-72784937D01*
X105515350Y-72783817D01*
X105534975Y-72781884D01*
X131465024Y-72781884D01*
X131484649Y-72783817D01*
X131490280Y-72784937D01*
X131490281Y-72784937D01*
X131499999Y-72786870D01*
X131599300Y-72767118D01*
X131683483Y-72710868D01*
X131739733Y-72626685D01*
X131754499Y-72552451D01*
X131759485Y-72527384D01*
X131756432Y-72512034D01*
X131754499Y-72492409D01*
X131754499Y-70024753D01*
X131756432Y-70005128D01*
X131757552Y-69999497D01*
X131757552Y-69999496D01*
X131759485Y-69989778D01*
X131739733Y-69890477D01*
X131683483Y-69806294D01*
X131599300Y-69750044D01*
X131525066Y-69735278D01*
X131499999Y-69730292D01*
X131490281Y-69732225D01*
X131490280Y-69732225D01*
X131484649Y-69733345D01*
X131465024Y-69735278D01*
X105534975Y-69735278D01*
X105515350Y-69733345D01*
X105509719Y-69732225D01*
X105509718Y-69732225D01*
X105500000Y-69730292D01*
X105474933Y-69735278D01*
X105400699Y-69750044D01*
X105316516Y-69806294D01*
X105260266Y-69890477D01*
X105240514Y-69989778D01*
X105242447Y-69999496D01*
X105242447Y-69999497D01*
X105243567Y-70005128D01*
X105245500Y-70024753D01*
X105245500Y-72492409D01*
X105243567Y-72512034D01*
X105240514Y-72527384D01*
X76454500Y-72527384D01*
X76454500Y-67934975D01*
X76456433Y-67915350D01*
X76457553Y-67909719D01*
X76457553Y-67909718D01*
X76459486Y-67900000D01*
X76457654Y-67890791D01*
X76457553Y-67889508D01*
X76457553Y-67887510D01*
X76457188Y-67884873D01*
X76443196Y-67707089D01*
X76442886Y-67703146D01*
X76396790Y-67511140D01*
X76321224Y-67328708D01*
X76218050Y-67160343D01*
X76089808Y-67010192D01*
X75939657Y-66881950D01*
X75771292Y-66778776D01*
X75744942Y-66767861D01*
X75592516Y-66704724D01*
X75592512Y-66704723D01*
X75588860Y-66703210D01*
X75492857Y-66680162D01*
X75400704Y-66658038D01*
X75400700Y-66658037D01*
X75396854Y-66657114D01*
X75215123Y-66642811D01*
X75212490Y-66642447D01*
X75210492Y-66642447D01*
X75209209Y-66642346D01*
X75200000Y-66640514D01*
X75190282Y-66642447D01*
X75190281Y-66642447D01*
X75184650Y-66643567D01*
X75165025Y-66645500D01*
X72534975Y-66645500D01*
X72515350Y-66643567D01*
X72509719Y-66642447D01*
X72509718Y-66642447D01*
X72500000Y-66640514D01*
X72490283Y-66642447D01*
X72480373Y-66642447D01*
X72480373Y-66641798D01*
X72468384Y-66642386D01*
X72364418Y-66632146D01*
X72345077Y-66628298D01*
X72224194Y-66591629D01*
X72205974Y-66584082D01*
X72094560Y-66524530D01*
X72078162Y-66513574D01*
X71980511Y-66433434D01*
X71966566Y-66419489D01*
X71886426Y-66321838D01*
X71875470Y-66305440D01*
X71815918Y-66194026D01*
X71808371Y-66175806D01*
X71771702Y-66054923D01*
X71767854Y-66035582D01*
X71757614Y-65931616D01*
X71758202Y-65919627D01*
X71757553Y-65919627D01*
X71757553Y-65909717D01*
X71759486Y-65900000D01*
X71756433Y-65884650D01*
X71754500Y-65865025D01*
X71754500Y-64909467D01*
X105240514Y-64909467D01*
X105245500Y-64934534D01*
X105260266Y-65008768D01*
X105316516Y-65092951D01*
X105400699Y-65149201D01*
X105500000Y-65168953D01*
X105509718Y-65167020D01*
X105509719Y-65167020D01*
X105515350Y-65165900D01*
X105534975Y-65163967D01*
X131465069Y-65163967D01*
X131484694Y-65165900D01*
X131490325Y-65167020D01*
X131490326Y-65167020D01*
X131500044Y-65168953D01*
X131599345Y-65149201D01*
X131683528Y-65092951D01*
X131739778Y-65008768D01*
X131754544Y-64934534D01*
X131759530Y-64909467D01*
X131756477Y-64894117D01*
X131754544Y-64874492D01*
X131754544Y-62404934D01*
X131756477Y-62385309D01*
X131757597Y-62379678D01*
X131757597Y-62379677D01*
X131759530Y-62369959D01*
X131739778Y-62270658D01*
X131683528Y-62186475D01*
X131599345Y-62130225D01*
X131525111Y-62115459D01*
X131500044Y-62110473D01*
X131490326Y-62112406D01*
X131490325Y-62112406D01*
X131484694Y-62113526D01*
X131465069Y-62115459D01*
X105534975Y-62115459D01*
X105515350Y-62113526D01*
X105509719Y-62112406D01*
X105509718Y-62112406D01*
X105500000Y-62110473D01*
X105474933Y-62115459D01*
X105400699Y-62130225D01*
X105316516Y-62186475D01*
X105260266Y-62270658D01*
X105240514Y-62369959D01*
X105242447Y-62379677D01*
X105242447Y-62379678D01*
X105243567Y-62385309D01*
X105245500Y-62404934D01*
X105245500Y-64874492D01*
X105243567Y-64894117D01*
X105240514Y-64909467D01*
X71754500Y-64909467D01*
X71754500Y-61035000D01*
X73229746Y-61035000D01*
X73248744Y-61336960D01*
X73305437Y-61634157D01*
X73398932Y-61921906D01*
X73400279Y-61924768D01*
X73523430Y-62186475D01*
X73527755Y-62195667D01*
X73529454Y-62198344D01*
X73529455Y-62198346D01*
X73654272Y-62395026D01*
X73689873Y-62451124D01*
X73882729Y-62684248D01*
X74103284Y-62891362D01*
X74105834Y-62893215D01*
X74105838Y-62893218D01*
X74259248Y-63004677D01*
X74348057Y-63069200D01*
X74613190Y-63214958D01*
X74616133Y-63216123D01*
X74616141Y-63216127D01*
X74891552Y-63325170D01*
X74891555Y-63325171D01*
X74894500Y-63326337D01*
X74897555Y-63327121D01*
X74897563Y-63327124D01*
X75121834Y-63384706D01*
X75187551Y-63401579D01*
X75190670Y-63401973D01*
X75190675Y-63401974D01*
X75484584Y-63439104D01*
X75484591Y-63439104D01*
X75487722Y-63439500D01*
X75790278Y-63439500D01*
X75793409Y-63439104D01*
X75793416Y-63439104D01*
X76087325Y-63401974D01*
X76087330Y-63401973D01*
X76090449Y-63401579D01*
X76156166Y-63384706D01*
X76380437Y-63327124D01*
X76380445Y-63327121D01*
X76383500Y-63326337D01*
X76386445Y-63325171D01*
X76386448Y-63325170D01*
X76661859Y-63216127D01*
X76661867Y-63216123D01*
X76664810Y-63214958D01*
X76929943Y-63069200D01*
X77018752Y-63004677D01*
X77172162Y-62893218D01*
X77172166Y-62893215D01*
X77174716Y-62891362D01*
X77395271Y-62684248D01*
X77588127Y-62451124D01*
X77623728Y-62395026D01*
X77748545Y-62198346D01*
X77748546Y-62198344D01*
X77750245Y-62195667D01*
X77754571Y-62186475D01*
X77877721Y-61924768D01*
X77879068Y-61921906D01*
X77972563Y-61634157D01*
X78029256Y-61336960D01*
X78048254Y-61035000D01*
X78029256Y-60733040D01*
X77972563Y-60435843D01*
X77879068Y-60148094D01*
X77835640Y-60055806D01*
X77751596Y-59877203D01*
X77751593Y-59877197D01*
X77750245Y-59874333D01*
X77588127Y-59618876D01*
X77395271Y-59385752D01*
X77174716Y-59178638D01*
X77172166Y-59176785D01*
X77172162Y-59176782D01*
X76976981Y-59034975D01*
X76929943Y-59000800D01*
X76664810Y-58855042D01*
X76661867Y-58853877D01*
X76661859Y-58853873D01*
X76386448Y-58744830D01*
X76386445Y-58744829D01*
X76383500Y-58743663D01*
X76380445Y-58742879D01*
X76380437Y-58742876D01*
X76156166Y-58685294D01*
X76090449Y-58668421D01*
X76087330Y-58668027D01*
X76087325Y-58668026D01*
X75793416Y-58630896D01*
X75793409Y-58630896D01*
X75790278Y-58630500D01*
X75487722Y-58630500D01*
X75484591Y-58630896D01*
X75484584Y-58630896D01*
X75190675Y-58668026D01*
X75190670Y-58668027D01*
X75187551Y-58668421D01*
X75121834Y-58685294D01*
X74897563Y-58742876D01*
X74897555Y-58742879D01*
X74894500Y-58743663D01*
X74891555Y-58744829D01*
X74891552Y-58744830D01*
X74616141Y-58853873D01*
X74616133Y-58853877D01*
X74613190Y-58855042D01*
X74348057Y-59000800D01*
X74301019Y-59034975D01*
X74105838Y-59176782D01*
X74105834Y-59176785D01*
X74103284Y-59178638D01*
X73882729Y-59385752D01*
X73689873Y-59618876D01*
X73527755Y-59874333D01*
X73526407Y-59877197D01*
X73526404Y-59877203D01*
X73442360Y-60055806D01*
X73398932Y-60148094D01*
X73305437Y-60435843D01*
X73248744Y-60733040D01*
X73229746Y-61035000D01*
X71754500Y-61035000D01*
X71754500Y-59034975D01*
X71756433Y-59015350D01*
X71757553Y-59009719D01*
X71757553Y-59009718D01*
X71759486Y-59000000D01*
X71757654Y-58990791D01*
X71757553Y-58989508D01*
X71757553Y-58987510D01*
X71757188Y-58984873D01*
X71757059Y-58983235D01*
X71742886Y-58803146D01*
X71740643Y-58793800D01*
X71697714Y-58614990D01*
X71696790Y-58611140D01*
X71648683Y-58495000D01*
X158954746Y-58495000D01*
X158973744Y-58796960D01*
X159030437Y-59094157D01*
X159123932Y-59381906D01*
X159125279Y-59384768D01*
X159236701Y-59621550D01*
X159252755Y-59655667D01*
X159414873Y-59911124D01*
X159607729Y-60144248D01*
X159828284Y-60351362D01*
X159830834Y-60353215D01*
X159830838Y-60353218D01*
X159940423Y-60432836D01*
X160073057Y-60529200D01*
X160338190Y-60674958D01*
X160341133Y-60676123D01*
X160341141Y-60676127D01*
X160616552Y-60785170D01*
X160616555Y-60785171D01*
X160619500Y-60786337D01*
X160622555Y-60787121D01*
X160622563Y-60787124D01*
X160846834Y-60844706D01*
X160912551Y-60861579D01*
X160915670Y-60861973D01*
X160915675Y-60861974D01*
X161209584Y-60899104D01*
X161209591Y-60899104D01*
X161212722Y-60899500D01*
X161515278Y-60899500D01*
X161518409Y-60899104D01*
X161518416Y-60899104D01*
X161812325Y-60861974D01*
X161812330Y-60861973D01*
X161815449Y-60861579D01*
X161881166Y-60844706D01*
X162105437Y-60787124D01*
X162105445Y-60787121D01*
X162108500Y-60786337D01*
X162111445Y-60785171D01*
X162111448Y-60785170D01*
X162386859Y-60676127D01*
X162386867Y-60676123D01*
X162389810Y-60674958D01*
X162654943Y-60529200D01*
X162787577Y-60432836D01*
X162897162Y-60353218D01*
X162897166Y-60353215D01*
X162899716Y-60351362D01*
X163120271Y-60144248D01*
X163313127Y-59911124D01*
X163475245Y-59655667D01*
X163491300Y-59621550D01*
X163602721Y-59384768D01*
X163604068Y-59381906D01*
X163697563Y-59094157D01*
X163754256Y-58796960D01*
X163773254Y-58495000D01*
X163768872Y-58425344D01*
X163754455Y-58196200D01*
X163754455Y-58196197D01*
X163754256Y-58193040D01*
X163697563Y-57895843D01*
X163604068Y-57608094D01*
X163475245Y-57334333D01*
X163313127Y-57078876D01*
X163120271Y-56845752D01*
X162967328Y-56702130D01*
X162937377Y-56647649D01*
X162945169Y-56585965D01*
X162987730Y-56540642D01*
X163052452Y-56529520D01*
X163081490Y-56534275D01*
X163135412Y-56543105D01*
X163354757Y-56553449D01*
X163478608Y-56559290D01*
X163478610Y-56559290D01*
X163481516Y-56559427D01*
X163757059Y-56540642D01*
X163824313Y-56536057D01*
X163824314Y-56536057D01*
X163827202Y-56535860D01*
X163830048Y-56535332D01*
X163830052Y-56535332D01*
X164165030Y-56473248D01*
X164165035Y-56473247D01*
X164167888Y-56472718D01*
X164267862Y-56441962D01*
X164496302Y-56371685D01*
X164496310Y-56371682D01*
X164499060Y-56370836D01*
X164816326Y-56231566D01*
X165115483Y-56056753D01*
X165392564Y-55848714D01*
X165643898Y-55610207D01*
X165866153Y-55344394D01*
X166020745Y-55109050D01*
X166054797Y-55057211D01*
X166054800Y-55057207D01*
X166056383Y-55054796D01*
X166212067Y-54745253D01*
X166213062Y-54742535D01*
X166330146Y-54422588D01*
X166330148Y-54422582D01*
X166331141Y-54419868D01*
X166412027Y-54082953D01*
X166453653Y-53738974D01*
X166459592Y-53550000D01*
X166439647Y-53204086D01*
X166380075Y-52862757D01*
X166281667Y-52530537D01*
X166145727Y-52211830D01*
X166099304Y-52130441D01*
X165975499Y-51913389D01*
X165974056Y-51910859D01*
X165768930Y-51631614D01*
X165760680Y-51622735D01*
X165629854Y-51481950D01*
X165533069Y-51377796D01*
X165460135Y-51315504D01*
X165271809Y-51154659D01*
X165271807Y-51154657D01*
X165269597Y-51152770D01*
X164982007Y-50959518D01*
X164964600Y-50950533D01*
X164676681Y-50801927D01*
X164676674Y-50801924D01*
X164674111Y-50800601D01*
X164349991Y-50678126D01*
X164347180Y-50677420D01*
X164347177Y-50677419D01*
X164016761Y-50594424D01*
X164016755Y-50594423D01*
X164013941Y-50593716D01*
X164011059Y-50593337D01*
X164011056Y-50593336D01*
X163880580Y-50576159D01*
X163670417Y-50548490D01*
X163523172Y-50546177D01*
X163326866Y-50543093D01*
X163326858Y-50543093D01*
X163323971Y-50543048D01*
X163101087Y-50565295D01*
X162982069Y-50577174D01*
X162982065Y-50577175D01*
X162979196Y-50577461D01*
X162640661Y-50651274D01*
X162312853Y-50763507D01*
X162000118Y-50912674D01*
X161997668Y-50914211D01*
X161709056Y-51095257D01*
X161709052Y-51095260D01*
X161706600Y-51096798D01*
X161704342Y-51098607D01*
X161704335Y-51098612D01*
X161448955Y-51303210D01*
X161436190Y-51313437D01*
X161192472Y-51559721D01*
X161190685Y-51562000D01*
X160995250Y-51811248D01*
X160978676Y-51832385D01*
X160977165Y-51834850D01*
X160977162Y-51834855D01*
X160887904Y-51980511D01*
X160797636Y-52127815D01*
X160651752Y-52442095D01*
X160650840Y-52444852D01*
X160650839Y-52444855D01*
X160621582Y-52533319D01*
X160542957Y-52771060D01*
X160542369Y-52773899D01*
X160542368Y-52773903D01*
X160523375Y-52865620D01*
X160472694Y-53110350D01*
X160472437Y-53113234D01*
X160472436Y-53113238D01*
X160459169Y-53261898D01*
X160441893Y-53455466D01*
X160450963Y-53801836D01*
X160499784Y-54144868D01*
X160500521Y-54147678D01*
X160500522Y-54147682D01*
X160571929Y-54419868D01*
X160587708Y-54480015D01*
X160713570Y-54802835D01*
X160875703Y-55109050D01*
X161071956Y-55394600D01*
X161073860Y-55396783D01*
X161073865Y-55396789D01*
X161151070Y-55485290D01*
X161299729Y-55655701D01*
X161556002Y-55888892D01*
X161558347Y-55890577D01*
X161583731Y-55908817D01*
X161620539Y-55958925D01*
X161620865Y-56021098D01*
X161584584Y-56071589D01*
X161525554Y-56091112D01*
X161518714Y-56090915D01*
X161518413Y-56090896D01*
X161515278Y-56090500D01*
X161212722Y-56090500D01*
X161209591Y-56090896D01*
X161209584Y-56090896D01*
X160915675Y-56128026D01*
X160915670Y-56128027D01*
X160912551Y-56128421D01*
X160846834Y-56145294D01*
X160622563Y-56202876D01*
X160622555Y-56202879D01*
X160619500Y-56203663D01*
X160616555Y-56204829D01*
X160616552Y-56204830D01*
X160341141Y-56313873D01*
X160341133Y-56313877D01*
X160338190Y-56315042D01*
X160073057Y-56460800D01*
X160036843Y-56487111D01*
X159830838Y-56636782D01*
X159830834Y-56636785D01*
X159828284Y-56638638D01*
X159607729Y-56845752D01*
X159414873Y-57078876D01*
X159252755Y-57334333D01*
X159123932Y-57608094D01*
X159030437Y-57895843D01*
X158973744Y-58193040D01*
X158973545Y-58196197D01*
X158973545Y-58196200D01*
X158959128Y-58425344D01*
X158954746Y-58495000D01*
X71648683Y-58495000D01*
X71621224Y-58428708D01*
X71518050Y-58260343D01*
X71389808Y-58110192D01*
X71239657Y-57981950D01*
X71071292Y-57878776D01*
X71044942Y-57867861D01*
X70892516Y-57804724D01*
X70892512Y-57804723D01*
X70888860Y-57803210D01*
X70792857Y-57780162D01*
X70700704Y-57758038D01*
X70700700Y-57758037D01*
X70696854Y-57757114D01*
X70515123Y-57742811D01*
X70512490Y-57742447D01*
X70510492Y-57742447D01*
X70509209Y-57742346D01*
X70500000Y-57740514D01*
X70490282Y-57742447D01*
X70490281Y-57742447D01*
X70484650Y-57743567D01*
X70465025Y-57745500D01*
X70355100Y-57745500D01*
X70295969Y-57726287D01*
X70259424Y-57675987D01*
X70254500Y-57644900D01*
X70254500Y-53455466D01*
X70541893Y-53455466D01*
X70550963Y-53801836D01*
X70599784Y-54144868D01*
X70600521Y-54147678D01*
X70600522Y-54147682D01*
X70671929Y-54419868D01*
X70687708Y-54480015D01*
X70813570Y-54802835D01*
X70975703Y-55109050D01*
X71171956Y-55394600D01*
X71173860Y-55396783D01*
X71173865Y-55396789D01*
X71251070Y-55485290D01*
X71399729Y-55655701D01*
X71656002Y-55888892D01*
X71937380Y-56091083D01*
X72240132Y-56259592D01*
X72560246Y-56392188D01*
X72563031Y-56392981D01*
X72563033Y-56392982D01*
X72579645Y-56397714D01*
X72893478Y-56487111D01*
X73235412Y-56543105D01*
X73454757Y-56553449D01*
X73578608Y-56559290D01*
X73578610Y-56559290D01*
X73581516Y-56559427D01*
X73857059Y-56540642D01*
X73924313Y-56536057D01*
X73924314Y-56536057D01*
X73927202Y-56535860D01*
X73930048Y-56535332D01*
X73930052Y-56535332D01*
X74265030Y-56473248D01*
X74265035Y-56473247D01*
X74267888Y-56472718D01*
X74367862Y-56441962D01*
X74596302Y-56371685D01*
X74596310Y-56371682D01*
X74599060Y-56370836D01*
X74916326Y-56231566D01*
X75215483Y-56056753D01*
X75492564Y-55848714D01*
X75743898Y-55610207D01*
X75966153Y-55344394D01*
X76120745Y-55109050D01*
X76154797Y-55057211D01*
X76154800Y-55057207D01*
X76156383Y-55054796D01*
X76312067Y-54745253D01*
X76313062Y-54742535D01*
X76430146Y-54422588D01*
X76430148Y-54422582D01*
X76431141Y-54419868D01*
X76512027Y-54082953D01*
X76553653Y-53738974D01*
X76559592Y-53550000D01*
X76539647Y-53204086D01*
X76480075Y-52862757D01*
X76381667Y-52530537D01*
X76245727Y-52211830D01*
X76199304Y-52130441D01*
X76075499Y-51913389D01*
X76074056Y-51910859D01*
X75868930Y-51631614D01*
X75860680Y-51622735D01*
X75729854Y-51481950D01*
X75633069Y-51377796D01*
X75560135Y-51315504D01*
X75371809Y-51154659D01*
X75371807Y-51154657D01*
X75369597Y-51152770D01*
X75082007Y-50959518D01*
X75064600Y-50950533D01*
X74776681Y-50801927D01*
X74776674Y-50801924D01*
X74774111Y-50800601D01*
X74449991Y-50678126D01*
X74447180Y-50677420D01*
X74447177Y-50677419D01*
X74116761Y-50594424D01*
X74116755Y-50594423D01*
X74113941Y-50593716D01*
X74111059Y-50593337D01*
X74111056Y-50593336D01*
X73980580Y-50576159D01*
X73770417Y-50548490D01*
X73623172Y-50546177D01*
X73426866Y-50543093D01*
X73426858Y-50543093D01*
X73423971Y-50543048D01*
X73201087Y-50565295D01*
X73082069Y-50577174D01*
X73082065Y-50577175D01*
X73079196Y-50577461D01*
X72740661Y-50651274D01*
X72412853Y-50763507D01*
X72100118Y-50912674D01*
X72097668Y-50914211D01*
X71809056Y-51095257D01*
X71809052Y-51095260D01*
X71806600Y-51096798D01*
X71804342Y-51098607D01*
X71804335Y-51098612D01*
X71548955Y-51303210D01*
X71536190Y-51313437D01*
X71292472Y-51559721D01*
X71290685Y-51562000D01*
X71095250Y-51811248D01*
X71078676Y-51832385D01*
X71077165Y-51834850D01*
X71077162Y-51834855D01*
X70987904Y-51980511D01*
X70897636Y-52127815D01*
X70751752Y-52442095D01*
X70750840Y-52444852D01*
X70750839Y-52444855D01*
X70721582Y-52533319D01*
X70642957Y-52771060D01*
X70642369Y-52773899D01*
X70642368Y-52773903D01*
X70623375Y-52865620D01*
X70572694Y-53110350D01*
X70572437Y-53113234D01*
X70572436Y-53113238D01*
X70559169Y-53261898D01*
X70541893Y-53455466D01*
X70254500Y-53455466D01*
X70254500Y-51034975D01*
X70256433Y-51015350D01*
X70257553Y-51009719D01*
X70257553Y-51009718D01*
X70259486Y-51000000D01*
X70257553Y-50990283D01*
X70257553Y-50980373D01*
X70258202Y-50980373D01*
X70257614Y-50968384D01*
X70267854Y-50864418D01*
X70271702Y-50845077D01*
X70308371Y-50724194D01*
X70315918Y-50705974D01*
X70375470Y-50594560D01*
X70386426Y-50578162D01*
X70458548Y-50490281D01*
X70466568Y-50480509D01*
X70480511Y-50466566D01*
X70578162Y-50386426D01*
X70594560Y-50375470D01*
X70705974Y-50315918D01*
X70724194Y-50308371D01*
X70845077Y-50271702D01*
X70864418Y-50267854D01*
X70968384Y-50257614D01*
X70980373Y-50258202D01*
X70980373Y-50257553D01*
X70990283Y-50257553D01*
X71000000Y-50259486D01*
X71009718Y-50257553D01*
X71009719Y-50257553D01*
X71015350Y-50256433D01*
X71034975Y-50254500D01*
X77644900Y-50254500D01*
X77704031Y-50273713D01*
G37*
G04 #@! TD.AperFunction*
G04 #@! TD*
M02*
