G04 #@! TF.GenerationSoftware,KiCad,Pcbnew,(6.0.5-0)*
G04 #@! TF.CreationDate,2022-12-31T05:29:51-05:00*
G04 #@! TF.ProjectId,antenna-pcb,616e7465-6e6e-4612-9d70-63622e6b6963,rev?*
G04 #@! TF.SameCoordinates,Original*
G04 #@! TF.FileFunction,Legend,Top*
G04 #@! TF.FilePolarity,Positive*
%FSLAX46Y46*%
G04 Gerber Fmt 4.6, Leading zero omitted, Abs format (unit mm)*
G04 Created by KiCad (PCBNEW (6.0.5-0)) date 2022-12-31 05:29:51*
%MOMM*%
%LPD*%
G01*
G04 APERTURE LIST*
%ADD10C,0.300000*%
%ADD11C,5.500000*%
%ADD12C,4.300000*%
%ADD13C,2.050000*%
%ADD14C,2.250000*%
G04 APERTURE END LIST*
D10*
X79221428Y-93464285D02*
X80721428Y-93464285D01*
X79650000Y-93964285D01*
X80721428Y-94464285D01*
X79221428Y-94464285D01*
X80721428Y-95464285D02*
X80721428Y-95750000D01*
X80650000Y-95892857D01*
X80507142Y-96035714D01*
X80221428Y-96107142D01*
X79721428Y-96107142D01*
X79435714Y-96035714D01*
X79292857Y-95892857D01*
X79221428Y-95750000D01*
X79221428Y-95464285D01*
X79292857Y-95321428D01*
X79435714Y-95178571D01*
X79721428Y-95107142D01*
X80221428Y-95107142D01*
X80507142Y-95178571D01*
X80650000Y-95321428D01*
X80721428Y-95464285D01*
X79221428Y-96750000D02*
X80721428Y-96750000D01*
X79650000Y-97250000D01*
X80721428Y-97750000D01*
X79221428Y-97750000D01*
X80721428Y-98750000D02*
X80721428Y-99035714D01*
X80650000Y-99178571D01*
X80507142Y-99321428D01*
X80221428Y-99392857D01*
X79721428Y-99392857D01*
X79435714Y-99321428D01*
X79292857Y-99178571D01*
X79221428Y-99035714D01*
X79221428Y-98750000D01*
X79292857Y-98607142D01*
X79435714Y-98464285D01*
X79721428Y-98392857D01*
X80221428Y-98392857D01*
X80507142Y-98464285D01*
X80650000Y-98607142D01*
X80721428Y-98750000D01*
X80007142Y-100535714D02*
X79935714Y-100750000D01*
X79864285Y-100821428D01*
X79721428Y-100892857D01*
X79507142Y-100892857D01*
X79364285Y-100821428D01*
X79292857Y-100750000D01*
X79221428Y-100607142D01*
X79221428Y-100035714D01*
X80721428Y-100035714D01*
X80721428Y-100535714D01*
X80650000Y-100678571D01*
X80578571Y-100750000D01*
X80435714Y-100821428D01*
X80292857Y-100821428D01*
X80150000Y-100750000D01*
X80078571Y-100678571D01*
X80007142Y-100535714D01*
X80007142Y-100035714D01*
X80721428Y-101821428D02*
X80721428Y-102107142D01*
X80650000Y-102250000D01*
X80507142Y-102392857D01*
X80221428Y-102464285D01*
X79721428Y-102464285D01*
X79435714Y-102392857D01*
X79292857Y-102250000D01*
X79221428Y-102107142D01*
X79221428Y-101821428D01*
X79292857Y-101678571D01*
X79435714Y-101535714D01*
X79721428Y-101464285D01*
X80221428Y-101464285D01*
X80507142Y-101535714D01*
X80650000Y-101678571D01*
X80721428Y-101821428D01*
X80721428Y-102892857D02*
X80721428Y-103750000D01*
X79221428Y-103321428D02*
X80721428Y-103321428D01*
X157278571Y-103464285D02*
X155778571Y-103464285D01*
X155778571Y-102892857D01*
X155850000Y-102750000D01*
X155921428Y-102678571D01*
X156064285Y-102607142D01*
X156278571Y-102607142D01*
X156421428Y-102678571D01*
X156492857Y-102750000D01*
X156564285Y-102892857D01*
X156564285Y-103464285D01*
X157278571Y-101964285D02*
X156278571Y-101964285D01*
X156564285Y-101964285D02*
X156421428Y-101892857D01*
X156350000Y-101821428D01*
X156278571Y-101678571D01*
X156278571Y-101535714D01*
X157278571Y-100821428D02*
X157207142Y-100964285D01*
X157135714Y-101035714D01*
X156992857Y-101107142D01*
X156564285Y-101107142D01*
X156421428Y-101035714D01*
X156350000Y-100964285D01*
X156278571Y-100821428D01*
X156278571Y-100607142D01*
X156350000Y-100464285D01*
X156421428Y-100392857D01*
X156564285Y-100321428D01*
X156992857Y-100321428D01*
X157135714Y-100392857D01*
X157207142Y-100464285D01*
X157278571Y-100607142D01*
X157278571Y-100821428D01*
X156278571Y-99892857D02*
X156278571Y-99321428D01*
X155778571Y-99678571D02*
X157064285Y-99678571D01*
X157207142Y-99607142D01*
X157278571Y-99464285D01*
X157278571Y-99321428D01*
X157278571Y-98607142D02*
X157207142Y-98750000D01*
X157135714Y-98821428D01*
X156992857Y-98892857D01*
X156564285Y-98892857D01*
X156421428Y-98821428D01*
X156350000Y-98750000D01*
X156278571Y-98607142D01*
X156278571Y-98392857D01*
X156350000Y-98250000D01*
X156421428Y-98178571D01*
X156564285Y-98107142D01*
X156992857Y-98107142D01*
X157135714Y-98178571D01*
X157207142Y-98250000D01*
X157278571Y-98392857D01*
X157278571Y-98607142D01*
X156278571Y-97678571D02*
X156278571Y-97107142D01*
X155778571Y-97464285D02*
X157064285Y-97464285D01*
X157207142Y-97392857D01*
X157278571Y-97250000D01*
X157278571Y-97107142D01*
X156278571Y-96750000D02*
X157278571Y-96392857D01*
X156278571Y-96035714D02*
X157278571Y-96392857D01*
X157635714Y-96535714D01*
X157707142Y-96607142D01*
X157778571Y-96750000D01*
X156278571Y-95464285D02*
X157778571Y-95464285D01*
X156350000Y-95464285D02*
X156278571Y-95321428D01*
X156278571Y-95035714D01*
X156350000Y-94892857D01*
X156421428Y-94821428D01*
X156564285Y-94750000D01*
X156992857Y-94750000D01*
X157135714Y-94821428D01*
X157207142Y-94892857D01*
X157278571Y-95035714D01*
X157278571Y-95321428D01*
X157207142Y-95464285D01*
X157207142Y-93535714D02*
X157278571Y-93678571D01*
X157278571Y-93964285D01*
X157207142Y-94107142D01*
X157064285Y-94178571D01*
X156492857Y-94178571D01*
X156350000Y-94107142D01*
X156278571Y-93964285D01*
X156278571Y-93678571D01*
X156350000Y-93535714D01*
X156492857Y-93464285D01*
X156635714Y-93464285D01*
X156778571Y-94178571D01*
%LPC*%
D11*
G04 #@! TO.C,H4*
X163450000Y-143450000D03*
G04 #@! TD*
D12*
G04 #@! TO.C,H6*
X161364000Y-58495000D03*
G04 #@! TD*
D11*
G04 #@! TO.C,H1*
X73550000Y-53550000D03*
G04 #@! TD*
D12*
G04 #@! TO.C,H8*
X161364000Y-138505000D03*
G04 #@! TD*
G04 #@! TO.C,H7*
X75639000Y-134695000D03*
G04 #@! TD*
G04 #@! TO.C,H5*
X75639000Y-61035000D03*
G04 #@! TD*
D11*
G04 #@! TO.C,H3*
X73550000Y-143450000D03*
G04 #@! TD*
G04 #@! TO.C,H2*
X163450000Y-53550000D03*
G04 #@! TD*
D13*
G04 #@! TO.C,J1*
X118500000Y-98500000D03*
D14*
X115950000Y-95950000D03*
X121050000Y-101050000D03*
X115950000Y-101050000D03*
X121050000Y-95950000D03*
G04 #@! TD*
M02*
