M48
; DRILL file {KiCad (6.0.5-0)} date Tuesday, January 03, 2023 at 07:11:18 AM
; FORMAT={-:-/ absolute / metric / decimal}
; #@! TF.CreationDate,2023-01-03T07:11:18-05:00
; #@! TF.GenerationSoftware,Kicad,Pcbnew,(6.0.5-0)
; #@! TF.FileFunction,Plated,1,2,PTH
FMAT,2
METRIC
; #@! TA.AperFunction,Plated,PTH,ViaDrill
T1C0.400
; #@! TA.AperFunction,Plated,PTH,ComponentDrill
T2C1.000
; #@! TA.AperFunction,Plated,PTH,ComponentDrill
T3C2.000
; #@! TA.AperFunction,Plated,PTH,ComponentDrill
T4C2.700
; #@! TA.AperFunction,Plated,PTH,ComponentDrill
T5C3.700
%
G90
G05
T1
X82.3Y-87.2
X82.5Y-88.5
X83.0Y-85.7
X83.4Y-90.2
X83.5Y-87.4
X83.8Y-84.7
X83.8Y-88.9
X84.2Y-86.0
X84.3Y-91.3
X84.9Y-90.2
X85.2Y-85.3
X85.9Y-91.4
X86.8Y-85.4
X87.1Y-90.2
X88.0Y-85.1
X88.3Y-86.6
X88.4Y-88.7
X110.1Y-103.4
X112.1Y-103.8
X114.4Y-102.7
X114.4Y-103.9
X117.0Y-103.9
X119.4Y-102.7
X119.4Y-103.9
X122.0Y-103.8
X124.5Y-102.7
X124.6Y-103.9
X127.0Y-103.8
X129.0Y-103.2
X145.7Y-108.2
X145.9Y-109.9
X146.5Y-107.0
X146.7Y-111.0
X147.1Y-105.8
X148.1Y-106.5
X148.2Y-111.3
X149.0Y-105.8
X149.4Y-107.0
X149.6Y-110.8
X149.6Y-112.1
X150.3Y-108.1
X150.4Y-105.5
X150.4Y-109.7
X150.6Y-106.7
X151.1Y-110.8
X151.4Y-108.9
X151.6Y-107.6
X152.1Y-109.9
T2
X112.0Y-95.5
X112.0Y-101.5
X117.0Y-95.5
X117.0Y-101.5
X122.0Y-95.5
X122.0Y-101.5
X127.0Y-95.5
X127.0Y-101.5
T3
X86.0Y-88.0
X86.0Y-109.0
X95.0Y-88.0
X95.0Y-109.0
X113.8Y-109.1
X114.3Y-87.8
X122.8Y-109.1
X123.3Y-87.8
X139.0Y-88.0
X139.0Y-109.0
X148.0Y-88.0
X148.0Y-109.0
T4
X75.639Y-61.035
X75.639Y-134.695
X161.364Y-58.495
X161.364Y-138.505
T5
X73.55Y-53.55
X73.55Y-143.45
X163.45Y-53.55
X163.45Y-143.45
T0
M30
