G04 #@! TF.GenerationSoftware,KiCad,Pcbnew,(6.0.5-0)*
G04 #@! TF.CreationDate,2023-03-07T01:41:47-05:00*
G04 #@! TF.ProjectId,bottom-adapter,626f7474-6f6d-42d6-9164-61707465722e,3*
G04 #@! TF.SameCoordinates,Original*
G04 #@! TF.FileFunction,Legend,Bot*
G04 #@! TF.FilePolarity,Positive*
%FSLAX46Y46*%
G04 Gerber Fmt 4.6, Leading zero omitted, Abs format (unit mm)*
G04 Created by KiCad (PCBNEW (6.0.5-0)) date 2023-03-07 01:41:47*
%MOMM*%
%LPD*%
G01*
G04 APERTURE LIST*
%ADD10C,0.150000*%
%ADD11C,0.120000*%
%ADD12C,5.500000*%
%ADD13R,2.000000X2.000000*%
%ADD14C,4.300000*%
%ADD15R,1.100000X1.450000*%
%ADD16R,1.350000X2.899999*%
G04 APERTURE END LIST*
D10*
X113576190Y-95628571D02*
X113433333Y-95676190D01*
X113385714Y-95723809D01*
X113338095Y-95819047D01*
X113338095Y-95961904D01*
X113385714Y-96057142D01*
X113433333Y-96104761D01*
X113528571Y-96152380D01*
X113909523Y-96152380D01*
X113909523Y-95152380D01*
X113576190Y-95152380D01*
X113480952Y-95200000D01*
X113433333Y-95247619D01*
X113385714Y-95342857D01*
X113385714Y-95438095D01*
X113433333Y-95533333D01*
X113480952Y-95580952D01*
X113576190Y-95628571D01*
X113909523Y-95628571D01*
X112909523Y-95152380D02*
X112909523Y-95961904D01*
X112861904Y-96057142D01*
X112814285Y-96104761D01*
X112719047Y-96152380D01*
X112528571Y-96152380D01*
X112433333Y-96104761D01*
X112385714Y-96057142D01*
X112338095Y-95961904D01*
X112338095Y-95152380D01*
X111290476Y-96152380D02*
X111623809Y-95676190D01*
X111861904Y-96152380D02*
X111861904Y-95152380D01*
X111480952Y-95152380D01*
X111385714Y-95200000D01*
X111338095Y-95247619D01*
X111290476Y-95342857D01*
X111290476Y-95485714D01*
X111338095Y-95580952D01*
X111385714Y-95628571D01*
X111480952Y-95676190D01*
X111861904Y-95676190D01*
X110861904Y-96152380D02*
X110861904Y-95152380D01*
X110290476Y-96152380D01*
X110290476Y-95152380D01*
X112761904Y-101100000D02*
X112857142Y-101052380D01*
X113000000Y-101052380D01*
X113142857Y-101100000D01*
X113238095Y-101195238D01*
X113285714Y-101290476D01*
X113333333Y-101480952D01*
X113333333Y-101623809D01*
X113285714Y-101814285D01*
X113238095Y-101909523D01*
X113142857Y-102004761D01*
X113000000Y-102052380D01*
X112904761Y-102052380D01*
X112761904Y-102004761D01*
X112714285Y-101957142D01*
X112714285Y-101623809D01*
X112904761Y-101623809D01*
X112285714Y-102052380D02*
X112285714Y-101052380D01*
X111714285Y-102052380D01*
X111714285Y-101052380D01*
X111238095Y-102052380D02*
X111238095Y-101052380D01*
X111000000Y-101052380D01*
X110857142Y-101100000D01*
X110761904Y-101195238D01*
X110714285Y-101290476D01*
X110666666Y-101480952D01*
X110666666Y-101623809D01*
X110714285Y-101814285D01*
X110761904Y-101909523D01*
X110857142Y-102004761D01*
X111000000Y-102052380D01*
X111238095Y-102052380D01*
X160133333Y-98652380D02*
X160133333Y-99366666D01*
X160180952Y-99509523D01*
X160276190Y-99604761D01*
X160419047Y-99652380D01*
X160514285Y-99652380D01*
X159704761Y-98747619D02*
X159657142Y-98700000D01*
X159561904Y-98652380D01*
X159323809Y-98652380D01*
X159228571Y-98700000D01*
X159180952Y-98747619D01*
X159133333Y-98842857D01*
X159133333Y-98938095D01*
X159180952Y-99080952D01*
X159752380Y-99652380D01*
X159133333Y-99652380D01*
D11*
X158752992Y-94265000D02*
X157228992Y-94900000D01*
X148225009Y-94475000D02*
X150729959Y-94475000D01*
X152470039Y-94475000D02*
X152729960Y-94475000D01*
X158752992Y-95535000D02*
X158752992Y-94265000D01*
X156974992Y-94475000D02*
X156974992Y-99104960D01*
X154470040Y-94475000D02*
X156974992Y-94475000D01*
X148225009Y-99104960D02*
X148225009Y-94475000D01*
X155515982Y-102425000D02*
X149684019Y-102425000D01*
X157228992Y-94900000D02*
X158752992Y-95535000D01*
%LPC*%
D12*
X163450000Y-143450000D03*
D13*
X121400000Y-95500000D03*
D14*
X161364000Y-58495000D03*
D13*
X116300000Y-101600000D03*
D12*
X73550000Y-53550000D03*
D14*
X161364000Y-138505000D03*
X75639000Y-134695000D03*
X75639000Y-61035000D03*
D12*
X73550000Y-143450000D03*
D13*
X121300000Y-101600000D03*
D12*
X163450000Y-53550000D03*
D13*
X116300000Y-95500000D03*
D15*
X153600000Y-94900000D03*
X151599999Y-94900000D03*
D16*
X156494998Y-100874999D03*
X148705003Y-100874999D03*
M02*
