%FSLAX45Y45*%
G04 Gerber Fmt 4.5, Leading zero omitted, Abs format (unit mm)*
G04 Created by KiCad (PCBNEW (6.0.5-0)) date 2023-01-03 07:11:19*
%MOMM*%
%LPD*%
G01*
G04 APERTURE LIST*
%TA.AperFunction,Profile*%
%ADD10C,0.100000*%
%TD*%
%ADD11C,0.200000*%
%ADD12C,0.040000*%
%ADD13C,0.100000*%
%ADD14C,0.270000*%
%ADD15C,0.370000*%
G04 APERTURE END LIST*
D10*
X7520000Y-13010000D02*
G75*
G03*
X7620000Y-12910000I0J100000D01*
G01*
X7250000Y-13010000D02*
G75*
G03*
X7150000Y-13110000I0J-100000D01*
G01*
X16180000Y-6690000D02*
G75*
G03*
X16080000Y-6790000I0J-100000D01*
G01*
X16700000Y-5800000D02*
X16700000Y-5100000D01*
X16700000Y-5800000D02*
X16650000Y-5800000D01*
X8690000Y-5520000D02*
G75*
G03*
X8790000Y-5620000I100000J0D01*
G01*
X15900000Y-5000000D02*
X16600000Y-5000000D01*
X16550000Y-13800000D02*
G75*
G03*
X16650000Y-13900000I100000J0D01*
G01*
X7000000Y-14600000D02*
G75*
G03*
X7100000Y-14700000I100000J0D01*
G01*
X14910000Y-14080000D02*
X8790000Y-14080000D01*
X16600000Y-14700000D02*
G75*
G03*
X16700000Y-14600000I0J100000D01*
G01*
X7900000Y-14550000D02*
G75*
G03*
X7800000Y-14650000I0J-100000D01*
G01*
X15900000Y-14650000D02*
G75*
G03*
X15800000Y-14550000I-100000J0D01*
G01*
X7000000Y-13900000D02*
X7000000Y-14600000D01*
X16550000Y-13110000D02*
G75*
G03*
X16450000Y-13010000I-100000J0D01*
G01*
X7050000Y-5800000D02*
X7000000Y-5800000D01*
X15010000Y-14180000D02*
X15010000Y-14450000D01*
X8790000Y-5620000D02*
X14910000Y-5620000D01*
X7150000Y-6590000D02*
G75*
G03*
X7250000Y-6690000I100000J0D01*
G01*
X7800000Y-14700000D02*
X7100000Y-14700000D01*
X16600000Y-14700000D02*
X15900000Y-14700000D01*
X16650000Y-13900000D02*
X16700000Y-13900000D01*
X15800000Y-5150000D02*
G75*
G03*
X15900000Y-5050000I0J100000D01*
G01*
X16080000Y-6790000D02*
X16080000Y-12910000D01*
X8590000Y-14550000D02*
X7900000Y-14550000D01*
X7520000Y-13010000D02*
X7250000Y-13010000D01*
X16550000Y-5900000D02*
X16550000Y-6590000D01*
X15010000Y-5520000D02*
X15010000Y-5250000D01*
X14910000Y-5620000D02*
G75*
G03*
X15010000Y-5520000I0J100000D01*
G01*
X8690000Y-14180000D02*
X8690000Y-14450000D01*
X15800000Y-14550000D02*
X15110000Y-14550000D01*
X8790000Y-14080000D02*
G75*
G03*
X8690000Y-14180000I0J-100000D01*
G01*
X7520000Y-6690000D02*
X7250000Y-6690000D01*
X7800000Y-5050000D02*
G75*
G03*
X7900000Y-5150000I100000J0D01*
G01*
X16180000Y-13010000D02*
X16450000Y-13010000D01*
X16700000Y-5100000D02*
G75*
G03*
X16600000Y-5000000I-100000J0D01*
G01*
X7900000Y-5150000D02*
X8590000Y-5150000D01*
X7150000Y-13110000D02*
X7150000Y-13800000D01*
X16180000Y-6690000D02*
X16450000Y-6690000D01*
X15900000Y-5000000D02*
X15900000Y-5050000D01*
X8590000Y-14550000D02*
G75*
G03*
X8690000Y-14450000I0J100000D01*
G01*
X7800000Y-5050000D02*
X7800000Y-5000000D01*
X7000000Y-13900000D02*
X7050000Y-13900000D01*
X7150000Y-5900000D02*
G75*
G03*
X7050000Y-5800000I-100000J0D01*
G01*
X16080000Y-12910000D02*
G75*
G03*
X16180000Y-13010000I100000J0D01*
G01*
X16650000Y-5800000D02*
G75*
G03*
X16550000Y-5900000I0J-100000D01*
G01*
X7620000Y-12910000D02*
X7620000Y-6790000D01*
X8690000Y-5520000D02*
X8690000Y-5250000D01*
X7000000Y-5100000D02*
X7000000Y-5800000D01*
X15800000Y-5150000D02*
X15110000Y-5150000D01*
X7150000Y-5900000D02*
X7150000Y-6590000D01*
X8690000Y-5250000D02*
G75*
G03*
X8590000Y-5150000I-100000J0D01*
G01*
X16450000Y-6690000D02*
G75*
G03*
X16550000Y-6590000I0J100000D01*
G01*
X15010000Y-14180000D02*
G75*
G03*
X14910000Y-14080000I-100000J0D01*
G01*
X15900000Y-14650000D02*
X15900000Y-14700000D01*
X7050000Y-13900000D02*
G75*
G03*
X7150000Y-13800000I0J100000D01*
G01*
X15010000Y-14450000D02*
G75*
G03*
X15110000Y-14550000I100000J0D01*
G01*
X15110000Y-5150000D02*
G75*
G03*
X15010000Y-5250000I0J-100000D01*
G01*
X16550000Y-13110000D02*
X16550000Y-13800000D01*
X7100000Y-5000000D02*
G75*
G03*
X7000000Y-5100000I0J-100000D01*
G01*
X7800000Y-5000000D02*
X7100000Y-5000000D01*
X16700000Y-13900000D02*
X16700000Y-14600000D01*
X7620000Y-6790000D02*
G75*
G03*
X7520000Y-6690000I-100000J0D01*
G01*
X7800000Y-14700000D02*
X7800000Y-14650000D01*
D11*
D12*
X8210000Y-8700000D02*
X8250000Y-8740000D01*
X8250000Y-8700000D02*
X8210000Y-8740000D01*
X8230000Y-8830000D02*
X8270000Y-8870000D01*
X8270000Y-8830000D02*
X8230000Y-8870000D01*
X8280000Y-8550000D02*
X8320000Y-8590000D01*
X8320000Y-8550000D02*
X8280000Y-8590000D01*
X8320000Y-9000000D02*
X8360000Y-9040000D01*
X8360000Y-9000000D02*
X8320000Y-9040000D01*
X8330000Y-8720000D02*
X8370000Y-8760000D01*
X8370000Y-8720000D02*
X8330000Y-8760000D01*
X8360000Y-8450000D02*
X8400000Y-8490000D01*
X8400000Y-8450000D02*
X8360000Y-8490000D01*
X8360000Y-8870000D02*
X8400000Y-8910000D01*
X8400000Y-8870000D02*
X8360000Y-8910000D01*
X8400000Y-8580000D02*
X8440000Y-8620000D01*
X8440000Y-8580000D02*
X8400000Y-8620000D01*
X8410000Y-9110000D02*
X8450000Y-9150000D01*
X8450000Y-9110000D02*
X8410000Y-9150000D01*
X8470000Y-9000000D02*
X8510000Y-9040000D01*
X8510000Y-9000000D02*
X8470000Y-9040000D01*
X8500000Y-8510000D02*
X8540000Y-8550000D01*
X8540000Y-8510000D02*
X8500000Y-8550000D01*
X8570000Y-9120000D02*
X8610000Y-9160000D01*
X8610000Y-9120000D02*
X8570000Y-9160000D01*
X8660000Y-8520000D02*
X8700000Y-8560000D01*
X8700000Y-8520000D02*
X8660000Y-8560000D01*
X8690000Y-9000000D02*
X8730000Y-9040000D01*
X8730000Y-9000000D02*
X8690000Y-9040000D01*
X8780000Y-8490000D02*
X8820000Y-8530000D01*
X8820000Y-8490000D02*
X8780000Y-8530000D01*
X8810000Y-8640000D02*
X8850000Y-8680000D01*
X8850000Y-8640000D02*
X8810000Y-8680000D01*
X8820000Y-8850000D02*
X8860000Y-8890000D01*
X8860000Y-8850000D02*
X8820000Y-8890000D01*
X10990000Y-10320000D02*
X11030000Y-10360000D01*
X11030000Y-10320000D02*
X10990000Y-10360000D01*
X11190000Y-10360000D02*
X11230000Y-10400000D01*
X11230000Y-10360000D02*
X11190000Y-10400000D01*
X11420000Y-10250000D02*
X11460000Y-10290000D01*
X11460000Y-10250000D02*
X11420000Y-10290000D01*
X11420000Y-10370000D02*
X11460000Y-10410000D01*
X11460000Y-10370000D02*
X11420000Y-10410000D01*
X11680000Y-10370000D02*
X11720000Y-10410000D01*
X11720000Y-10370000D02*
X11680000Y-10410000D01*
X11920000Y-10250000D02*
X11960000Y-10290000D01*
X11960000Y-10250000D02*
X11920000Y-10290000D01*
X11920000Y-10370000D02*
X11960000Y-10410000D01*
X11960000Y-10370000D02*
X11920000Y-10410000D01*
X12180000Y-10360000D02*
X12220000Y-10400000D01*
X12220000Y-10360000D02*
X12180000Y-10400000D01*
X12430000Y-10250000D02*
X12470000Y-10290000D01*
X12470000Y-10250000D02*
X12430000Y-10290000D01*
X12440000Y-10370000D02*
X12480000Y-10410000D01*
X12480000Y-10370000D02*
X12440000Y-10410000D01*
X12680000Y-10360000D02*
X12720000Y-10400000D01*
X12720000Y-10360000D02*
X12680000Y-10400000D01*
X12880000Y-10300000D02*
X12920000Y-10340000D01*
X12920000Y-10300000D02*
X12880000Y-10340000D01*
X14550000Y-10800000D02*
X14590000Y-10840000D01*
X14590000Y-10800000D02*
X14550000Y-10840000D01*
X14570000Y-10970000D02*
X14610000Y-11010000D01*
X14610000Y-10970000D02*
X14570000Y-11010000D01*
X14630000Y-10680000D02*
X14670000Y-10720000D01*
X14670000Y-10680000D02*
X14630000Y-10720000D01*
X14650000Y-11080000D02*
X14690000Y-11120000D01*
X14690000Y-11080000D02*
X14650000Y-11120000D01*
X14690000Y-10560000D02*
X14730000Y-10600000D01*
X14730000Y-10560000D02*
X14690000Y-10600000D01*
X14790000Y-10630000D02*
X14830000Y-10670000D01*
X14830000Y-10630000D02*
X14790000Y-10670000D01*
X14800000Y-11110000D02*
X14840000Y-11150000D01*
X14840000Y-11110000D02*
X14800000Y-11150000D01*
X14880000Y-10560000D02*
X14920000Y-10600000D01*
X14920000Y-10560000D02*
X14880000Y-10600000D01*
X14920000Y-10680000D02*
X14960000Y-10720000D01*
X14960000Y-10680000D02*
X14920000Y-10720000D01*
X14940000Y-11060000D02*
X14980000Y-11100000D01*
X14980000Y-11060000D02*
X14940000Y-11100000D01*
X14940000Y-11190000D02*
X14980000Y-11230000D01*
X14980000Y-11190000D02*
X14940000Y-11230000D01*
X15010000Y-10790000D02*
X15050000Y-10830000D01*
X15050000Y-10790000D02*
X15010000Y-10830000D01*
X15020000Y-10530000D02*
X15060000Y-10570000D01*
X15060000Y-10530000D02*
X15020000Y-10570000D01*
X15020000Y-10950000D02*
X15060000Y-10990000D01*
X15060000Y-10950000D02*
X15020000Y-10990000D01*
X15040000Y-10650000D02*
X15080000Y-10690000D01*
X15080000Y-10650000D02*
X15040000Y-10690000D01*
X15090000Y-11060000D02*
X15130000Y-11100000D01*
X15130000Y-11060000D02*
X15090000Y-11100000D01*
X15120000Y-10870000D02*
X15160000Y-10910000D01*
X15160000Y-10870000D02*
X15120000Y-10910000D01*
X15140000Y-10740000D02*
X15180000Y-10780000D01*
X15180000Y-10740000D02*
X15140000Y-10780000D01*
X15190000Y-10970000D02*
X15230000Y-11010000D01*
X15230000Y-10970000D02*
X15190000Y-11010000D01*
D13*
X11250000Y-9550000D02*
G75*
G03*
X11250000Y-9550000I-50000J0D01*
G01*
X11250000Y-10150000D02*
G75*
G03*
X11250000Y-10150000I-50000J0D01*
G01*
X11750000Y-9550000D02*
G75*
G03*
X11750000Y-9550000I-50000J0D01*
G01*
X11750000Y-10150000D02*
G75*
G03*
X11750000Y-10150000I-50000J0D01*
G01*
X12250000Y-9550000D02*
G75*
G03*
X12250000Y-9550000I-50000J0D01*
G01*
X12250000Y-10150000D02*
G75*
G03*
X12250000Y-10150000I-50000J0D01*
G01*
X12750000Y-9550000D02*
G75*
G03*
X12750000Y-9550000I-50000J0D01*
G01*
X12750000Y-10150000D02*
G75*
G03*
X12750000Y-10150000I-50000J0D01*
G01*
D11*
X8600000Y-8700000D02*
X8600000Y-8900000D01*
X8500000Y-8800000D02*
X8700000Y-8800000D01*
X8600000Y-10800000D02*
X8600000Y-11000000D01*
X8500000Y-10900000D02*
X8700000Y-10900000D01*
X9500000Y-8700000D02*
X9500000Y-8900000D01*
X9400000Y-8800000D02*
X9600000Y-8800000D01*
X9500000Y-10800000D02*
X9500000Y-11000000D01*
X9400000Y-10900000D02*
X9600000Y-10900000D01*
X11380000Y-10810000D02*
X11380000Y-11010000D01*
X11280000Y-10910000D02*
X11480000Y-10910000D01*
X11430000Y-8680000D02*
X11430000Y-8880000D01*
X11330000Y-8780000D02*
X11530000Y-8780000D01*
X12280000Y-10810000D02*
X12280000Y-11010000D01*
X12180000Y-10910000D02*
X12380000Y-10910000D01*
X12330000Y-8680000D02*
X12330000Y-8880000D01*
X12230000Y-8780000D02*
X12430000Y-8780000D01*
X13900000Y-8700000D02*
X13900000Y-8900000D01*
X13800000Y-8800000D02*
X14000000Y-8800000D01*
X13900000Y-10800000D02*
X13900000Y-11000000D01*
X13800000Y-10900000D02*
X14000000Y-10900000D01*
X14800000Y-8700000D02*
X14800000Y-8900000D01*
X14700000Y-8800000D02*
X14900000Y-8800000D01*
X14800000Y-10800000D02*
X14800000Y-11000000D01*
X14700000Y-10900000D02*
X14900000Y-10900000D01*
D14*
X7659360Y-6198960D02*
X7659360Y-6008040D01*
X7468440Y-6008040D01*
X7468440Y-6198960D01*
X7659360Y-6198960D01*
X7659360Y-13564960D02*
X7659360Y-13374040D01*
X7468440Y-13374040D01*
X7468440Y-13564960D01*
X7659360Y-13564960D01*
X16231860Y-5944960D02*
X16231860Y-5754040D01*
X16040940Y-5754040D01*
X16040940Y-5944960D01*
X16231860Y-5944960D01*
X16231860Y-13945960D02*
X16231860Y-13755040D01*
X16040940Y-13755040D01*
X16040940Y-13945960D01*
X16231860Y-13945960D01*
D15*
X7355000Y-5540000D02*
X7540000Y-5355000D01*
X7355000Y-5170000D01*
X7170000Y-5355000D01*
X7355000Y-5540000D01*
X7355000Y-14530000D02*
X7540000Y-14345000D01*
X7355000Y-14160000D01*
X7170000Y-14345000D01*
X7355000Y-14530000D01*
X16345000Y-5540000D02*
X16530000Y-5355000D01*
X16345000Y-5170000D01*
X16160000Y-5355000D01*
X16345000Y-5540000D01*
X16345000Y-14530000D02*
X16530000Y-14345000D01*
X16345000Y-14160000D01*
X16160000Y-14345000D01*
X16345000Y-14530000D01*
D11*
X7252619Y-15015476D02*
X7252619Y-14815476D01*
X7300238Y-14815476D01*
X7328809Y-14825000D01*
X7347857Y-14844048D01*
X7357381Y-14863095D01*
X7366905Y-14901190D01*
X7366905Y-14929762D01*
X7357381Y-14967857D01*
X7347857Y-14986905D01*
X7328809Y-15005952D01*
X7300238Y-15015476D01*
X7252619Y-15015476D01*
X7452619Y-15015476D02*
X7452619Y-14882143D01*
X7452619Y-14920238D02*
X7462143Y-14901190D01*
X7471667Y-14891667D01*
X7490714Y-14882143D01*
X7509762Y-14882143D01*
X7576428Y-15015476D02*
X7576428Y-14882143D01*
X7576428Y-14815476D02*
X7566905Y-14825000D01*
X7576428Y-14834524D01*
X7585952Y-14825000D01*
X7576428Y-14815476D01*
X7576428Y-14834524D01*
X7700238Y-15015476D02*
X7681190Y-15005952D01*
X7671667Y-14986905D01*
X7671667Y-14815476D01*
X7805000Y-15015476D02*
X7785952Y-15005952D01*
X7776428Y-14986905D01*
X7776428Y-14815476D01*
X8033571Y-15015476D02*
X8033571Y-14815476D01*
X8100238Y-14958333D01*
X8166905Y-14815476D01*
X8166905Y-15015476D01*
X8347857Y-15015476D02*
X8347857Y-14910714D01*
X8338333Y-14891667D01*
X8319286Y-14882143D01*
X8281190Y-14882143D01*
X8262143Y-14891667D01*
X8347857Y-15005952D02*
X8328809Y-15015476D01*
X8281190Y-15015476D01*
X8262143Y-15005952D01*
X8252619Y-14986905D01*
X8252619Y-14967857D01*
X8262143Y-14948809D01*
X8281190Y-14939286D01*
X8328809Y-14939286D01*
X8347857Y-14929762D01*
X8443095Y-14882143D02*
X8443095Y-15082143D01*
X8443095Y-14891667D02*
X8462143Y-14882143D01*
X8500238Y-14882143D01*
X8519286Y-14891667D01*
X8528810Y-14901190D01*
X8538333Y-14920238D01*
X8538333Y-14977381D01*
X8528810Y-14996428D01*
X8519286Y-15005952D01*
X8500238Y-15015476D01*
X8462143Y-15015476D01*
X8443095Y-15005952D01*
X8624048Y-14996428D02*
X8633571Y-15005952D01*
X8624048Y-15015476D01*
X8614524Y-15005952D01*
X8624048Y-14996428D01*
X8624048Y-15015476D01*
X8624048Y-14891667D02*
X8633571Y-14901190D01*
X8624048Y-14910714D01*
X8614524Y-14901190D01*
X8624048Y-14891667D01*
X8624048Y-14910714D01*
D12*
X6955000Y-15325000D02*
X6995000Y-15365000D01*
X6995000Y-15325000D02*
X6955000Y-15365000D01*
D11*
X7290714Y-15235476D02*
X7309762Y-15235476D01*
X7328809Y-15245000D01*
X7338333Y-15254524D01*
X7347857Y-15273571D01*
X7357381Y-15311667D01*
X7357381Y-15359286D01*
X7347857Y-15397381D01*
X7338333Y-15416428D01*
X7328809Y-15425952D01*
X7309762Y-15435476D01*
X7290714Y-15435476D01*
X7271667Y-15425952D01*
X7262143Y-15416428D01*
X7252619Y-15397381D01*
X7243095Y-15359286D01*
X7243095Y-15311667D01*
X7252619Y-15273571D01*
X7262143Y-15254524D01*
X7271667Y-15245000D01*
X7290714Y-15235476D01*
X7443095Y-15416428D02*
X7452619Y-15425952D01*
X7443095Y-15435476D01*
X7433571Y-15425952D01*
X7443095Y-15416428D01*
X7443095Y-15435476D01*
X7624048Y-15302143D02*
X7624048Y-15435476D01*
X7576428Y-15225952D02*
X7528809Y-15368809D01*
X7652619Y-15368809D01*
X7766905Y-15235476D02*
X7785952Y-15235476D01*
X7805000Y-15245000D01*
X7814524Y-15254524D01*
X7824048Y-15273571D01*
X7833571Y-15311667D01*
X7833571Y-15359286D01*
X7824048Y-15397381D01*
X7814524Y-15416428D01*
X7805000Y-15425952D01*
X7785952Y-15435476D01*
X7766905Y-15435476D01*
X7747857Y-15425952D01*
X7738333Y-15416428D01*
X7728809Y-15397381D01*
X7719286Y-15359286D01*
X7719286Y-15311667D01*
X7728809Y-15273571D01*
X7738333Y-15254524D01*
X7747857Y-15245000D01*
X7766905Y-15235476D01*
X7957381Y-15235476D02*
X7976428Y-15235476D01*
X7995476Y-15245000D01*
X8005000Y-15254524D01*
X8014524Y-15273571D01*
X8024048Y-15311667D01*
X8024048Y-15359286D01*
X8014524Y-15397381D01*
X8005000Y-15416428D01*
X7995476Y-15425952D01*
X7976428Y-15435476D01*
X7957381Y-15435476D01*
X7938333Y-15425952D01*
X7928809Y-15416428D01*
X7919286Y-15397381D01*
X7909762Y-15359286D01*
X7909762Y-15311667D01*
X7919286Y-15273571D01*
X7928809Y-15254524D01*
X7938333Y-15245000D01*
X7957381Y-15235476D01*
X8109762Y-15435476D02*
X8109762Y-15302143D01*
X8109762Y-15321190D02*
X8119286Y-15311667D01*
X8138333Y-15302143D01*
X8166905Y-15302143D01*
X8185952Y-15311667D01*
X8195476Y-15330714D01*
X8195476Y-15435476D01*
X8195476Y-15330714D02*
X8205000Y-15311667D01*
X8224048Y-15302143D01*
X8252619Y-15302143D01*
X8271667Y-15311667D01*
X8281190Y-15330714D01*
X8281190Y-15435476D01*
X8376428Y-15435476D02*
X8376428Y-15302143D01*
X8376428Y-15321190D02*
X8385952Y-15311667D01*
X8405000Y-15302143D01*
X8433571Y-15302143D01*
X8452619Y-15311667D01*
X8462143Y-15330714D01*
X8462143Y-15435476D01*
X8462143Y-15330714D02*
X8471667Y-15311667D01*
X8490714Y-15302143D01*
X8519286Y-15302143D01*
X8538333Y-15311667D01*
X8547857Y-15330714D01*
X8547857Y-15435476D01*
X8938333Y-15225952D02*
X8766905Y-15483095D01*
X9195476Y-15235476D02*
X9214524Y-15235476D01*
X9233571Y-15245000D01*
X9243095Y-15254524D01*
X9252619Y-15273571D01*
X9262143Y-15311667D01*
X9262143Y-15359286D01*
X9252619Y-15397381D01*
X9243095Y-15416428D01*
X9233571Y-15425952D01*
X9214524Y-15435476D01*
X9195476Y-15435476D01*
X9176429Y-15425952D01*
X9166905Y-15416428D01*
X9157381Y-15397381D01*
X9147857Y-15359286D01*
X9147857Y-15311667D01*
X9157381Y-15273571D01*
X9166905Y-15254524D01*
X9176429Y-15245000D01*
X9195476Y-15235476D01*
X9347857Y-15416428D02*
X9357381Y-15425952D01*
X9347857Y-15435476D01*
X9338333Y-15425952D01*
X9347857Y-15416428D01*
X9347857Y-15435476D01*
X9481190Y-15235476D02*
X9500238Y-15235476D01*
X9519286Y-15245000D01*
X9528810Y-15254524D01*
X9538333Y-15273571D01*
X9547857Y-15311667D01*
X9547857Y-15359286D01*
X9538333Y-15397381D01*
X9528810Y-15416428D01*
X9519286Y-15425952D01*
X9500238Y-15435476D01*
X9481190Y-15435476D01*
X9462143Y-15425952D01*
X9452619Y-15416428D01*
X9443095Y-15397381D01*
X9433571Y-15359286D01*
X9433571Y-15311667D01*
X9443095Y-15273571D01*
X9452619Y-15254524D01*
X9462143Y-15245000D01*
X9481190Y-15235476D01*
X9738333Y-15435476D02*
X9624048Y-15435476D01*
X9681190Y-15435476D02*
X9681190Y-15235476D01*
X9662143Y-15264048D01*
X9643095Y-15283095D01*
X9624048Y-15292619D01*
X9919286Y-15235476D02*
X9824048Y-15235476D01*
X9814524Y-15330714D01*
X9824048Y-15321190D01*
X9843095Y-15311667D01*
X9890714Y-15311667D01*
X9909762Y-15321190D01*
X9919286Y-15330714D01*
X9928810Y-15349762D01*
X9928810Y-15397381D01*
X9919286Y-15416428D01*
X9909762Y-15425952D01*
X9890714Y-15435476D01*
X9843095Y-15435476D01*
X9824048Y-15425952D01*
X9814524Y-15416428D01*
X9995476Y-15235476D02*
X10128810Y-15235476D01*
X10043095Y-15435476D01*
X10195476Y-15235476D02*
X10195476Y-15273571D01*
X10271667Y-15235476D02*
X10271667Y-15273571D01*
X10566905Y-15511667D02*
X10557381Y-15502143D01*
X10538333Y-15473571D01*
X10528810Y-15454524D01*
X10519286Y-15425952D01*
X10509762Y-15378333D01*
X10509762Y-15340238D01*
X10519286Y-15292619D01*
X10528810Y-15264048D01*
X10538333Y-15245000D01*
X10557381Y-15216428D01*
X10566905Y-15206905D01*
X10728810Y-15302143D02*
X10728810Y-15435476D01*
X10681190Y-15225952D02*
X10633571Y-15368809D01*
X10757381Y-15368809D01*
X10862143Y-15321190D02*
X10843095Y-15311667D01*
X10833571Y-15302143D01*
X10824048Y-15283095D01*
X10824048Y-15273571D01*
X10833571Y-15254524D01*
X10843095Y-15245000D01*
X10862143Y-15235476D01*
X10900238Y-15235476D01*
X10919286Y-15245000D01*
X10928810Y-15254524D01*
X10938333Y-15273571D01*
X10938333Y-15283095D01*
X10928810Y-15302143D01*
X10919286Y-15311667D01*
X10900238Y-15321190D01*
X10862143Y-15321190D01*
X10843095Y-15330714D01*
X10833571Y-15340238D01*
X10824048Y-15359286D01*
X10824048Y-15397381D01*
X10833571Y-15416428D01*
X10843095Y-15425952D01*
X10862143Y-15435476D01*
X10900238Y-15435476D01*
X10919286Y-15425952D01*
X10928810Y-15416428D01*
X10938333Y-15397381D01*
X10938333Y-15359286D01*
X10928810Y-15340238D01*
X10919286Y-15330714D01*
X10900238Y-15321190D01*
X11176429Y-15435476D02*
X11176429Y-15235476D01*
X11262143Y-15435476D02*
X11262143Y-15330714D01*
X11252619Y-15311667D01*
X11233571Y-15302143D01*
X11205000Y-15302143D01*
X11185952Y-15311667D01*
X11176429Y-15321190D01*
X11385952Y-15435476D02*
X11366905Y-15425952D01*
X11357381Y-15416428D01*
X11347857Y-15397381D01*
X11347857Y-15340238D01*
X11357381Y-15321190D01*
X11366905Y-15311667D01*
X11385952Y-15302143D01*
X11414524Y-15302143D01*
X11433571Y-15311667D01*
X11443095Y-15321190D01*
X11452619Y-15340238D01*
X11452619Y-15397381D01*
X11443095Y-15416428D01*
X11433571Y-15425952D01*
X11414524Y-15435476D01*
X11385952Y-15435476D01*
X11566905Y-15435476D02*
X11547857Y-15425952D01*
X11538333Y-15406905D01*
X11538333Y-15235476D01*
X11719286Y-15425952D02*
X11700238Y-15435476D01*
X11662143Y-15435476D01*
X11643095Y-15425952D01*
X11633571Y-15406905D01*
X11633571Y-15330714D01*
X11643095Y-15311667D01*
X11662143Y-15302143D01*
X11700238Y-15302143D01*
X11719286Y-15311667D01*
X11728809Y-15330714D01*
X11728809Y-15349762D01*
X11633571Y-15368809D01*
X11805000Y-15425952D02*
X11824048Y-15435476D01*
X11862143Y-15435476D01*
X11881190Y-15425952D01*
X11890714Y-15406905D01*
X11890714Y-15397381D01*
X11881190Y-15378333D01*
X11862143Y-15368809D01*
X11833571Y-15368809D01*
X11814524Y-15359286D01*
X11805000Y-15340238D01*
X11805000Y-15330714D01*
X11814524Y-15311667D01*
X11833571Y-15302143D01*
X11862143Y-15302143D01*
X11881190Y-15311667D01*
X11957381Y-15511667D02*
X11966905Y-15502143D01*
X11985952Y-15473571D01*
X11995476Y-15454524D01*
X12005000Y-15425952D01*
X12014524Y-15378333D01*
X12014524Y-15340238D01*
X12005000Y-15292619D01*
X11995476Y-15264048D01*
X11985952Y-15245000D01*
X11966905Y-15216428D01*
X11957381Y-15206905D01*
D13*
X6995000Y-15609000D02*
G75*
G03*
X6995000Y-15609000I-50000J0D01*
G01*
D11*
X7357381Y-15699476D02*
X7243095Y-15699476D01*
X7300238Y-15699476D02*
X7300238Y-15499476D01*
X7281190Y-15528048D01*
X7262143Y-15547095D01*
X7243095Y-15556619D01*
X7443095Y-15680428D02*
X7452619Y-15689952D01*
X7443095Y-15699476D01*
X7433571Y-15689952D01*
X7443095Y-15680428D01*
X7443095Y-15699476D01*
X7576428Y-15499476D02*
X7595476Y-15499476D01*
X7614524Y-15509000D01*
X7624048Y-15518524D01*
X7633571Y-15537571D01*
X7643095Y-15575667D01*
X7643095Y-15623286D01*
X7633571Y-15661381D01*
X7624048Y-15680428D01*
X7614524Y-15689952D01*
X7595476Y-15699476D01*
X7576428Y-15699476D01*
X7557381Y-15689952D01*
X7547857Y-15680428D01*
X7538333Y-15661381D01*
X7528809Y-15623286D01*
X7528809Y-15575667D01*
X7538333Y-15537571D01*
X7547857Y-15518524D01*
X7557381Y-15509000D01*
X7576428Y-15499476D01*
X7766905Y-15499476D02*
X7785952Y-15499476D01*
X7805000Y-15509000D01*
X7814524Y-15518524D01*
X7824048Y-15537571D01*
X7833571Y-15575667D01*
X7833571Y-15623286D01*
X7824048Y-15661381D01*
X7814524Y-15680428D01*
X7805000Y-15689952D01*
X7785952Y-15699476D01*
X7766905Y-15699476D01*
X7747857Y-15689952D01*
X7738333Y-15680428D01*
X7728809Y-15661381D01*
X7719286Y-15623286D01*
X7719286Y-15575667D01*
X7728809Y-15537571D01*
X7738333Y-15518524D01*
X7747857Y-15509000D01*
X7766905Y-15499476D01*
X7957381Y-15499476D02*
X7976428Y-15499476D01*
X7995476Y-15509000D01*
X8005000Y-15518524D01*
X8014524Y-15537571D01*
X8024048Y-15575667D01*
X8024048Y-15623286D01*
X8014524Y-15661381D01*
X8005000Y-15680428D01*
X7995476Y-15689952D01*
X7976428Y-15699476D01*
X7957381Y-15699476D01*
X7938333Y-15689952D01*
X7928809Y-15680428D01*
X7919286Y-15661381D01*
X7909762Y-15623286D01*
X7909762Y-15575667D01*
X7919286Y-15537571D01*
X7928809Y-15518524D01*
X7938333Y-15509000D01*
X7957381Y-15499476D01*
X8109762Y-15699476D02*
X8109762Y-15566143D01*
X8109762Y-15585190D02*
X8119286Y-15575667D01*
X8138333Y-15566143D01*
X8166905Y-15566143D01*
X8185952Y-15575667D01*
X8195476Y-15594714D01*
X8195476Y-15699476D01*
X8195476Y-15594714D02*
X8205000Y-15575667D01*
X8224048Y-15566143D01*
X8252619Y-15566143D01*
X8271667Y-15575667D01*
X8281190Y-15594714D01*
X8281190Y-15699476D01*
X8376428Y-15699476D02*
X8376428Y-15566143D01*
X8376428Y-15585190D02*
X8385952Y-15575667D01*
X8405000Y-15566143D01*
X8433571Y-15566143D01*
X8452619Y-15575667D01*
X8462143Y-15594714D01*
X8462143Y-15699476D01*
X8462143Y-15594714D02*
X8471667Y-15575667D01*
X8490714Y-15566143D01*
X8519286Y-15566143D01*
X8538333Y-15575667D01*
X8547857Y-15594714D01*
X8547857Y-15699476D01*
X8938333Y-15489952D02*
X8766905Y-15747095D01*
X9195476Y-15499476D02*
X9214524Y-15499476D01*
X9233571Y-15509000D01*
X9243095Y-15518524D01*
X9252619Y-15537571D01*
X9262143Y-15575667D01*
X9262143Y-15623286D01*
X9252619Y-15661381D01*
X9243095Y-15680428D01*
X9233571Y-15689952D01*
X9214524Y-15699476D01*
X9195476Y-15699476D01*
X9176429Y-15689952D01*
X9166905Y-15680428D01*
X9157381Y-15661381D01*
X9147857Y-15623286D01*
X9147857Y-15575667D01*
X9157381Y-15537571D01*
X9166905Y-15518524D01*
X9176429Y-15509000D01*
X9195476Y-15499476D01*
X9347857Y-15680428D02*
X9357381Y-15689952D01*
X9347857Y-15699476D01*
X9338333Y-15689952D01*
X9347857Y-15680428D01*
X9347857Y-15699476D01*
X9481190Y-15499476D02*
X9500238Y-15499476D01*
X9519286Y-15509000D01*
X9528810Y-15518524D01*
X9538333Y-15537571D01*
X9547857Y-15575667D01*
X9547857Y-15623286D01*
X9538333Y-15661381D01*
X9528810Y-15680428D01*
X9519286Y-15689952D01*
X9500238Y-15699476D01*
X9481190Y-15699476D01*
X9462143Y-15689952D01*
X9452619Y-15680428D01*
X9443095Y-15661381D01*
X9433571Y-15623286D01*
X9433571Y-15575667D01*
X9443095Y-15537571D01*
X9452619Y-15518524D01*
X9462143Y-15509000D01*
X9481190Y-15499476D01*
X9614524Y-15499476D02*
X9738333Y-15499476D01*
X9671667Y-15575667D01*
X9700238Y-15575667D01*
X9719286Y-15585190D01*
X9728810Y-15594714D01*
X9738333Y-15613762D01*
X9738333Y-15661381D01*
X9728810Y-15680428D01*
X9719286Y-15689952D01*
X9700238Y-15699476D01*
X9643095Y-15699476D01*
X9624048Y-15689952D01*
X9614524Y-15680428D01*
X9833571Y-15699476D02*
X9871667Y-15699476D01*
X9890714Y-15689952D01*
X9900238Y-15680428D01*
X9919286Y-15651857D01*
X9928810Y-15613762D01*
X9928810Y-15537571D01*
X9919286Y-15518524D01*
X9909762Y-15509000D01*
X9890714Y-15499476D01*
X9852619Y-15499476D01*
X9833571Y-15509000D01*
X9824048Y-15518524D01*
X9814524Y-15537571D01*
X9814524Y-15585190D01*
X9824048Y-15604238D01*
X9833571Y-15613762D01*
X9852619Y-15623286D01*
X9890714Y-15623286D01*
X9909762Y-15613762D01*
X9919286Y-15604238D01*
X9928810Y-15585190D01*
X10100238Y-15566143D02*
X10100238Y-15699476D01*
X10052619Y-15489952D02*
X10005000Y-15632809D01*
X10128810Y-15632809D01*
X10195476Y-15499476D02*
X10195476Y-15537571D01*
X10271667Y-15499476D02*
X10271667Y-15537571D01*
X10566905Y-15775667D02*
X10557381Y-15766143D01*
X10538333Y-15737571D01*
X10528810Y-15718524D01*
X10519286Y-15689952D01*
X10509762Y-15642333D01*
X10509762Y-15604238D01*
X10519286Y-15556619D01*
X10528810Y-15528048D01*
X10538333Y-15509000D01*
X10557381Y-15480428D01*
X10566905Y-15470905D01*
X10671667Y-15585190D02*
X10652619Y-15575667D01*
X10643095Y-15566143D01*
X10633571Y-15547095D01*
X10633571Y-15537571D01*
X10643095Y-15518524D01*
X10652619Y-15509000D01*
X10671667Y-15499476D01*
X10709762Y-15499476D01*
X10728810Y-15509000D01*
X10738333Y-15518524D01*
X10747857Y-15537571D01*
X10747857Y-15547095D01*
X10738333Y-15566143D01*
X10728810Y-15575667D01*
X10709762Y-15585190D01*
X10671667Y-15585190D01*
X10652619Y-15594714D01*
X10643095Y-15604238D01*
X10633571Y-15623286D01*
X10633571Y-15661381D01*
X10643095Y-15680428D01*
X10652619Y-15689952D01*
X10671667Y-15699476D01*
X10709762Y-15699476D01*
X10728810Y-15689952D01*
X10738333Y-15680428D01*
X10747857Y-15661381D01*
X10747857Y-15623286D01*
X10738333Y-15604238D01*
X10728810Y-15594714D01*
X10709762Y-15585190D01*
X10985952Y-15699476D02*
X10985952Y-15499476D01*
X11071667Y-15699476D02*
X11071667Y-15594714D01*
X11062143Y-15575667D01*
X11043095Y-15566143D01*
X11014524Y-15566143D01*
X10995476Y-15575667D01*
X10985952Y-15585190D01*
X11195476Y-15699476D02*
X11176429Y-15689952D01*
X11166905Y-15680428D01*
X11157381Y-15661381D01*
X11157381Y-15604238D01*
X11166905Y-15585190D01*
X11176429Y-15575667D01*
X11195476Y-15566143D01*
X11224048Y-15566143D01*
X11243095Y-15575667D01*
X11252619Y-15585190D01*
X11262143Y-15604238D01*
X11262143Y-15661381D01*
X11252619Y-15680428D01*
X11243095Y-15689952D01*
X11224048Y-15699476D01*
X11195476Y-15699476D01*
X11376428Y-15699476D02*
X11357381Y-15689952D01*
X11347857Y-15670905D01*
X11347857Y-15499476D01*
X11528809Y-15689952D02*
X11509762Y-15699476D01*
X11471667Y-15699476D01*
X11452619Y-15689952D01*
X11443095Y-15670905D01*
X11443095Y-15594714D01*
X11452619Y-15575667D01*
X11471667Y-15566143D01*
X11509762Y-15566143D01*
X11528809Y-15575667D01*
X11538333Y-15594714D01*
X11538333Y-15613762D01*
X11443095Y-15632809D01*
X11614524Y-15689952D02*
X11633571Y-15699476D01*
X11671667Y-15699476D01*
X11690714Y-15689952D01*
X11700238Y-15670905D01*
X11700238Y-15661381D01*
X11690714Y-15642333D01*
X11671667Y-15632809D01*
X11643095Y-15632809D01*
X11624048Y-15623286D01*
X11614524Y-15604238D01*
X11614524Y-15594714D01*
X11624048Y-15575667D01*
X11643095Y-15566143D01*
X11671667Y-15566143D01*
X11690714Y-15575667D01*
X11766905Y-15775667D02*
X11776428Y-15766143D01*
X11795476Y-15737571D01*
X11805000Y-15718524D01*
X11814524Y-15689952D01*
X11824048Y-15642333D01*
X11824048Y-15604238D01*
X11814524Y-15556619D01*
X11805000Y-15528048D01*
X11795476Y-15509000D01*
X11776428Y-15480428D01*
X11766905Y-15470905D01*
X6895000Y-15773000D02*
X6895000Y-15973000D01*
X6795000Y-15873000D02*
X6995000Y-15873000D01*
X7243095Y-15782524D02*
X7252619Y-15773000D01*
X7271667Y-15763476D01*
X7319286Y-15763476D01*
X7338333Y-15773000D01*
X7347857Y-15782524D01*
X7357381Y-15801571D01*
X7357381Y-15820619D01*
X7347857Y-15849190D01*
X7233571Y-15963476D01*
X7357381Y-15963476D01*
X7443095Y-15944428D02*
X7452619Y-15953952D01*
X7443095Y-15963476D01*
X7433571Y-15953952D01*
X7443095Y-15944428D01*
X7443095Y-15963476D01*
X7576428Y-15763476D02*
X7595476Y-15763476D01*
X7614524Y-15773000D01*
X7624048Y-15782524D01*
X7633571Y-15801571D01*
X7643095Y-15839667D01*
X7643095Y-15887286D01*
X7633571Y-15925381D01*
X7624048Y-15944428D01*
X7614524Y-15953952D01*
X7595476Y-15963476D01*
X7576428Y-15963476D01*
X7557381Y-15953952D01*
X7547857Y-15944428D01*
X7538333Y-15925381D01*
X7528809Y-15887286D01*
X7528809Y-15839667D01*
X7538333Y-15801571D01*
X7547857Y-15782524D01*
X7557381Y-15773000D01*
X7576428Y-15763476D01*
X7766905Y-15763476D02*
X7785952Y-15763476D01*
X7805000Y-15773000D01*
X7814524Y-15782524D01*
X7824048Y-15801571D01*
X7833571Y-15839667D01*
X7833571Y-15887286D01*
X7824048Y-15925381D01*
X7814524Y-15944428D01*
X7805000Y-15953952D01*
X7785952Y-15963476D01*
X7766905Y-15963476D01*
X7747857Y-15953952D01*
X7738333Y-15944428D01*
X7728809Y-15925381D01*
X7719286Y-15887286D01*
X7719286Y-15839667D01*
X7728809Y-15801571D01*
X7738333Y-15782524D01*
X7747857Y-15773000D01*
X7766905Y-15763476D01*
X7957381Y-15763476D02*
X7976428Y-15763476D01*
X7995476Y-15773000D01*
X8005000Y-15782524D01*
X8014524Y-15801571D01*
X8024048Y-15839667D01*
X8024048Y-15887286D01*
X8014524Y-15925381D01*
X8005000Y-15944428D01*
X7995476Y-15953952D01*
X7976428Y-15963476D01*
X7957381Y-15963476D01*
X7938333Y-15953952D01*
X7928809Y-15944428D01*
X7919286Y-15925381D01*
X7909762Y-15887286D01*
X7909762Y-15839667D01*
X7919286Y-15801571D01*
X7928809Y-15782524D01*
X7938333Y-15773000D01*
X7957381Y-15763476D01*
X8109762Y-15963476D02*
X8109762Y-15830143D01*
X8109762Y-15849190D02*
X8119286Y-15839667D01*
X8138333Y-15830143D01*
X8166905Y-15830143D01*
X8185952Y-15839667D01*
X8195476Y-15858714D01*
X8195476Y-15963476D01*
X8195476Y-15858714D02*
X8205000Y-15839667D01*
X8224048Y-15830143D01*
X8252619Y-15830143D01*
X8271667Y-15839667D01*
X8281190Y-15858714D01*
X8281190Y-15963476D01*
X8376428Y-15963476D02*
X8376428Y-15830143D01*
X8376428Y-15849190D02*
X8385952Y-15839667D01*
X8405000Y-15830143D01*
X8433571Y-15830143D01*
X8452619Y-15839667D01*
X8462143Y-15858714D01*
X8462143Y-15963476D01*
X8462143Y-15858714D02*
X8471667Y-15839667D01*
X8490714Y-15830143D01*
X8519286Y-15830143D01*
X8538333Y-15839667D01*
X8547857Y-15858714D01*
X8547857Y-15963476D01*
X8938333Y-15753952D02*
X8766905Y-16011095D01*
X9195476Y-15763476D02*
X9214524Y-15763476D01*
X9233571Y-15773000D01*
X9243095Y-15782524D01*
X9252619Y-15801571D01*
X9262143Y-15839667D01*
X9262143Y-15887286D01*
X9252619Y-15925381D01*
X9243095Y-15944428D01*
X9233571Y-15953952D01*
X9214524Y-15963476D01*
X9195476Y-15963476D01*
X9176429Y-15953952D01*
X9166905Y-15944428D01*
X9157381Y-15925381D01*
X9147857Y-15887286D01*
X9147857Y-15839667D01*
X9157381Y-15801571D01*
X9166905Y-15782524D01*
X9176429Y-15773000D01*
X9195476Y-15763476D01*
X9347857Y-15944428D02*
X9357381Y-15953952D01*
X9347857Y-15963476D01*
X9338333Y-15953952D01*
X9347857Y-15944428D01*
X9347857Y-15963476D01*
X9481190Y-15763476D02*
X9500238Y-15763476D01*
X9519286Y-15773000D01*
X9528810Y-15782524D01*
X9538333Y-15801571D01*
X9547857Y-15839667D01*
X9547857Y-15887286D01*
X9538333Y-15925381D01*
X9528810Y-15944428D01*
X9519286Y-15953952D01*
X9500238Y-15963476D01*
X9481190Y-15963476D01*
X9462143Y-15953952D01*
X9452619Y-15944428D01*
X9443095Y-15925381D01*
X9433571Y-15887286D01*
X9433571Y-15839667D01*
X9443095Y-15801571D01*
X9452619Y-15782524D01*
X9462143Y-15773000D01*
X9481190Y-15763476D01*
X9614524Y-15763476D02*
X9747857Y-15763476D01*
X9662143Y-15963476D01*
X9852619Y-15849190D02*
X9833571Y-15839667D01*
X9824048Y-15830143D01*
X9814524Y-15811095D01*
X9814524Y-15801571D01*
X9824048Y-15782524D01*
X9833571Y-15773000D01*
X9852619Y-15763476D01*
X9890714Y-15763476D01*
X9909762Y-15773000D01*
X9919286Y-15782524D01*
X9928810Y-15801571D01*
X9928810Y-15811095D01*
X9919286Y-15830143D01*
X9909762Y-15839667D01*
X9890714Y-15849190D01*
X9852619Y-15849190D01*
X9833571Y-15858714D01*
X9824048Y-15868238D01*
X9814524Y-15887286D01*
X9814524Y-15925381D01*
X9824048Y-15944428D01*
X9833571Y-15953952D01*
X9852619Y-15963476D01*
X9890714Y-15963476D01*
X9909762Y-15953952D01*
X9919286Y-15944428D01*
X9928810Y-15925381D01*
X9928810Y-15887286D01*
X9919286Y-15868238D01*
X9909762Y-15858714D01*
X9890714Y-15849190D01*
X9995476Y-15763476D02*
X10128810Y-15763476D01*
X10043095Y-15963476D01*
X10195476Y-15763476D02*
X10195476Y-15801571D01*
X10271667Y-15763476D02*
X10271667Y-15801571D01*
X10566905Y-16039667D02*
X10557381Y-16030143D01*
X10538333Y-16001571D01*
X10528810Y-15982524D01*
X10519286Y-15953952D01*
X10509762Y-15906333D01*
X10509762Y-15868238D01*
X10519286Y-15820619D01*
X10528810Y-15792048D01*
X10538333Y-15773000D01*
X10557381Y-15744428D01*
X10566905Y-15734905D01*
X10747857Y-15963476D02*
X10633571Y-15963476D01*
X10690714Y-15963476D02*
X10690714Y-15763476D01*
X10671667Y-15792048D01*
X10652619Y-15811095D01*
X10633571Y-15820619D01*
X10824048Y-15782524D02*
X10833571Y-15773000D01*
X10852619Y-15763476D01*
X10900238Y-15763476D01*
X10919286Y-15773000D01*
X10928810Y-15782524D01*
X10938333Y-15801571D01*
X10938333Y-15820619D01*
X10928810Y-15849190D01*
X10814524Y-15963476D01*
X10938333Y-15963476D01*
X11176429Y-15963476D02*
X11176429Y-15763476D01*
X11262143Y-15963476D02*
X11262143Y-15858714D01*
X11252619Y-15839667D01*
X11233571Y-15830143D01*
X11205000Y-15830143D01*
X11185952Y-15839667D01*
X11176429Y-15849190D01*
X11385952Y-15963476D02*
X11366905Y-15953952D01*
X11357381Y-15944428D01*
X11347857Y-15925381D01*
X11347857Y-15868238D01*
X11357381Y-15849190D01*
X11366905Y-15839667D01*
X11385952Y-15830143D01*
X11414524Y-15830143D01*
X11433571Y-15839667D01*
X11443095Y-15849190D01*
X11452619Y-15868238D01*
X11452619Y-15925381D01*
X11443095Y-15944428D01*
X11433571Y-15953952D01*
X11414524Y-15963476D01*
X11385952Y-15963476D01*
X11566905Y-15963476D02*
X11547857Y-15953952D01*
X11538333Y-15934905D01*
X11538333Y-15763476D01*
X11719286Y-15953952D02*
X11700238Y-15963476D01*
X11662143Y-15963476D01*
X11643095Y-15953952D01*
X11633571Y-15934905D01*
X11633571Y-15858714D01*
X11643095Y-15839667D01*
X11662143Y-15830143D01*
X11700238Y-15830143D01*
X11719286Y-15839667D01*
X11728809Y-15858714D01*
X11728809Y-15877762D01*
X11633571Y-15896809D01*
X11805000Y-15953952D02*
X11824048Y-15963476D01*
X11862143Y-15963476D01*
X11881190Y-15953952D01*
X11890714Y-15934905D01*
X11890714Y-15925381D01*
X11881190Y-15906333D01*
X11862143Y-15896809D01*
X11833571Y-15896809D01*
X11814524Y-15887286D01*
X11805000Y-15868238D01*
X11805000Y-15858714D01*
X11814524Y-15839667D01*
X11833571Y-15830143D01*
X11862143Y-15830143D01*
X11881190Y-15839667D01*
X11957381Y-16039667D02*
X11966905Y-16030143D01*
X11985952Y-16001571D01*
X11995476Y-15982524D01*
X12005000Y-15953952D01*
X12014524Y-15906333D01*
X12014524Y-15868238D01*
X12005000Y-15820619D01*
X11995476Y-15792048D01*
X11985952Y-15773000D01*
X11966905Y-15744428D01*
X11957381Y-15734905D01*
X6965711Y-16263711D02*
X6965711Y-16122289D01*
X6824289Y-16122289D01*
X6824289Y-16263711D01*
X6965711Y-16263711D01*
X7243095Y-16102524D02*
X7252619Y-16093000D01*
X7271667Y-16083476D01*
X7319286Y-16083476D01*
X7338333Y-16093000D01*
X7347857Y-16102524D01*
X7357381Y-16121571D01*
X7357381Y-16140619D01*
X7347857Y-16169190D01*
X7233571Y-16283476D01*
X7357381Y-16283476D01*
X7443095Y-16264428D02*
X7452619Y-16273952D01*
X7443095Y-16283476D01*
X7433571Y-16273952D01*
X7443095Y-16264428D01*
X7443095Y-16283476D01*
X7519286Y-16083476D02*
X7652619Y-16083476D01*
X7566905Y-16283476D01*
X7766905Y-16083476D02*
X7785952Y-16083476D01*
X7805000Y-16093000D01*
X7814524Y-16102524D01*
X7824048Y-16121571D01*
X7833571Y-16159667D01*
X7833571Y-16207286D01*
X7824048Y-16245381D01*
X7814524Y-16264428D01*
X7805000Y-16273952D01*
X7785952Y-16283476D01*
X7766905Y-16283476D01*
X7747857Y-16273952D01*
X7738333Y-16264428D01*
X7728809Y-16245381D01*
X7719286Y-16207286D01*
X7719286Y-16159667D01*
X7728809Y-16121571D01*
X7738333Y-16102524D01*
X7747857Y-16093000D01*
X7766905Y-16083476D01*
X7957381Y-16083476D02*
X7976428Y-16083476D01*
X7995476Y-16093000D01*
X8005000Y-16102524D01*
X8014524Y-16121571D01*
X8024048Y-16159667D01*
X8024048Y-16207286D01*
X8014524Y-16245381D01*
X8005000Y-16264428D01*
X7995476Y-16273952D01*
X7976428Y-16283476D01*
X7957381Y-16283476D01*
X7938333Y-16273952D01*
X7928809Y-16264428D01*
X7919286Y-16245381D01*
X7909762Y-16207286D01*
X7909762Y-16159667D01*
X7919286Y-16121571D01*
X7928809Y-16102524D01*
X7938333Y-16093000D01*
X7957381Y-16083476D01*
X8109762Y-16283476D02*
X8109762Y-16150143D01*
X8109762Y-16169190D02*
X8119286Y-16159667D01*
X8138333Y-16150143D01*
X8166905Y-16150143D01*
X8185952Y-16159667D01*
X8195476Y-16178714D01*
X8195476Y-16283476D01*
X8195476Y-16178714D02*
X8205000Y-16159667D01*
X8224048Y-16150143D01*
X8252619Y-16150143D01*
X8271667Y-16159667D01*
X8281190Y-16178714D01*
X8281190Y-16283476D01*
X8376428Y-16283476D02*
X8376428Y-16150143D01*
X8376428Y-16169190D02*
X8385952Y-16159667D01*
X8405000Y-16150143D01*
X8433571Y-16150143D01*
X8452619Y-16159667D01*
X8462143Y-16178714D01*
X8462143Y-16283476D01*
X8462143Y-16178714D02*
X8471667Y-16159667D01*
X8490714Y-16150143D01*
X8519286Y-16150143D01*
X8538333Y-16159667D01*
X8547857Y-16178714D01*
X8547857Y-16283476D01*
X8938333Y-16073952D02*
X8766905Y-16331095D01*
X9195476Y-16083476D02*
X9214524Y-16083476D01*
X9233571Y-16093000D01*
X9243095Y-16102524D01*
X9252619Y-16121571D01*
X9262143Y-16159667D01*
X9262143Y-16207286D01*
X9252619Y-16245381D01*
X9243095Y-16264428D01*
X9233571Y-16273952D01*
X9214524Y-16283476D01*
X9195476Y-16283476D01*
X9176429Y-16273952D01*
X9166905Y-16264428D01*
X9157381Y-16245381D01*
X9147857Y-16207286D01*
X9147857Y-16159667D01*
X9157381Y-16121571D01*
X9166905Y-16102524D01*
X9176429Y-16093000D01*
X9195476Y-16083476D01*
X9347857Y-16264428D02*
X9357381Y-16273952D01*
X9347857Y-16283476D01*
X9338333Y-16273952D01*
X9347857Y-16264428D01*
X9347857Y-16283476D01*
X9547857Y-16283476D02*
X9433571Y-16283476D01*
X9490714Y-16283476D02*
X9490714Y-16083476D01*
X9471667Y-16112048D01*
X9452619Y-16131095D01*
X9433571Y-16140619D01*
X9671667Y-16083476D02*
X9690714Y-16083476D01*
X9709762Y-16093000D01*
X9719286Y-16102524D01*
X9728810Y-16121571D01*
X9738333Y-16159667D01*
X9738333Y-16207286D01*
X9728810Y-16245381D01*
X9719286Y-16264428D01*
X9709762Y-16273952D01*
X9690714Y-16283476D01*
X9671667Y-16283476D01*
X9652619Y-16273952D01*
X9643095Y-16264428D01*
X9633571Y-16245381D01*
X9624048Y-16207286D01*
X9624048Y-16159667D01*
X9633571Y-16121571D01*
X9643095Y-16102524D01*
X9652619Y-16093000D01*
X9671667Y-16083476D01*
X9909762Y-16083476D02*
X9871667Y-16083476D01*
X9852619Y-16093000D01*
X9843095Y-16102524D01*
X9824048Y-16131095D01*
X9814524Y-16169190D01*
X9814524Y-16245381D01*
X9824048Y-16264428D01*
X9833571Y-16273952D01*
X9852619Y-16283476D01*
X9890714Y-16283476D01*
X9909762Y-16273952D01*
X9919286Y-16264428D01*
X9928810Y-16245381D01*
X9928810Y-16197762D01*
X9919286Y-16178714D01*
X9909762Y-16169190D01*
X9890714Y-16159667D01*
X9852619Y-16159667D01*
X9833571Y-16169190D01*
X9824048Y-16178714D01*
X9814524Y-16197762D01*
X9995476Y-16083476D02*
X10119286Y-16083476D01*
X10052619Y-16159667D01*
X10081190Y-16159667D01*
X10100238Y-16169190D01*
X10109762Y-16178714D01*
X10119286Y-16197762D01*
X10119286Y-16245381D01*
X10109762Y-16264428D01*
X10100238Y-16273952D01*
X10081190Y-16283476D01*
X10024048Y-16283476D01*
X10005000Y-16273952D01*
X9995476Y-16264428D01*
X10195476Y-16083476D02*
X10195476Y-16121571D01*
X10271667Y-16083476D02*
X10271667Y-16121571D01*
X10566905Y-16359667D02*
X10557381Y-16350143D01*
X10538333Y-16321571D01*
X10528810Y-16302524D01*
X10519286Y-16273952D01*
X10509762Y-16226333D01*
X10509762Y-16188238D01*
X10519286Y-16140619D01*
X10528810Y-16112048D01*
X10538333Y-16093000D01*
X10557381Y-16064428D01*
X10566905Y-16054905D01*
X10728810Y-16150143D02*
X10728810Y-16283476D01*
X10681190Y-16073952D02*
X10633571Y-16216809D01*
X10757381Y-16216809D01*
X10985952Y-16283476D02*
X10985952Y-16083476D01*
X11071667Y-16283476D02*
X11071667Y-16178714D01*
X11062143Y-16159667D01*
X11043095Y-16150143D01*
X11014524Y-16150143D01*
X10995476Y-16159667D01*
X10985952Y-16169190D01*
X11195476Y-16283476D02*
X11176429Y-16273952D01*
X11166905Y-16264428D01*
X11157381Y-16245381D01*
X11157381Y-16188238D01*
X11166905Y-16169190D01*
X11176429Y-16159667D01*
X11195476Y-16150143D01*
X11224048Y-16150143D01*
X11243095Y-16159667D01*
X11252619Y-16169190D01*
X11262143Y-16188238D01*
X11262143Y-16245381D01*
X11252619Y-16264428D01*
X11243095Y-16273952D01*
X11224048Y-16283476D01*
X11195476Y-16283476D01*
X11376428Y-16283476D02*
X11357381Y-16273952D01*
X11347857Y-16254905D01*
X11347857Y-16083476D01*
X11528809Y-16273952D02*
X11509762Y-16283476D01*
X11471667Y-16283476D01*
X11452619Y-16273952D01*
X11443095Y-16254905D01*
X11443095Y-16178714D01*
X11452619Y-16159667D01*
X11471667Y-16150143D01*
X11509762Y-16150143D01*
X11528809Y-16159667D01*
X11538333Y-16178714D01*
X11538333Y-16197762D01*
X11443095Y-16216809D01*
X11614524Y-16273952D02*
X11633571Y-16283476D01*
X11671667Y-16283476D01*
X11690714Y-16273952D01*
X11700238Y-16254905D01*
X11700238Y-16245381D01*
X11690714Y-16226333D01*
X11671667Y-16216809D01*
X11643095Y-16216809D01*
X11624048Y-16207286D01*
X11614524Y-16188238D01*
X11614524Y-16178714D01*
X11624048Y-16159667D01*
X11643095Y-16150143D01*
X11671667Y-16150143D01*
X11690714Y-16159667D01*
X11766905Y-16359667D02*
X11776428Y-16350143D01*
X11795476Y-16321571D01*
X11805000Y-16302524D01*
X11814524Y-16273952D01*
X11824048Y-16226333D01*
X11824048Y-16188238D01*
X11814524Y-16140619D01*
X11805000Y-16112048D01*
X11795476Y-16093000D01*
X11776428Y-16064428D01*
X11766905Y-16054905D01*
X6895000Y-16613000D02*
X6995000Y-16513000D01*
X6895000Y-16413000D01*
X6795000Y-16513000D01*
X6895000Y-16613000D01*
X7233571Y-16403476D02*
X7357381Y-16403476D01*
X7290714Y-16479667D01*
X7319286Y-16479667D01*
X7338333Y-16489190D01*
X7347857Y-16498714D01*
X7357381Y-16517762D01*
X7357381Y-16565381D01*
X7347857Y-16584428D01*
X7338333Y-16593952D01*
X7319286Y-16603476D01*
X7262143Y-16603476D01*
X7243095Y-16593952D01*
X7233571Y-16584428D01*
X7443095Y-16584428D02*
X7452619Y-16593952D01*
X7443095Y-16603476D01*
X7433571Y-16593952D01*
X7443095Y-16584428D01*
X7443095Y-16603476D01*
X7519286Y-16403476D02*
X7652619Y-16403476D01*
X7566905Y-16603476D01*
X7766905Y-16403476D02*
X7785952Y-16403476D01*
X7805000Y-16413000D01*
X7814524Y-16422524D01*
X7824048Y-16441571D01*
X7833571Y-16479667D01*
X7833571Y-16527286D01*
X7824048Y-16565381D01*
X7814524Y-16584428D01*
X7805000Y-16593952D01*
X7785952Y-16603476D01*
X7766905Y-16603476D01*
X7747857Y-16593952D01*
X7738333Y-16584428D01*
X7728809Y-16565381D01*
X7719286Y-16527286D01*
X7719286Y-16479667D01*
X7728809Y-16441571D01*
X7738333Y-16422524D01*
X7747857Y-16413000D01*
X7766905Y-16403476D01*
X7957381Y-16403476D02*
X7976428Y-16403476D01*
X7995476Y-16413000D01*
X8005000Y-16422524D01*
X8014524Y-16441571D01*
X8024048Y-16479667D01*
X8024048Y-16527286D01*
X8014524Y-16565381D01*
X8005000Y-16584428D01*
X7995476Y-16593952D01*
X7976428Y-16603476D01*
X7957381Y-16603476D01*
X7938333Y-16593952D01*
X7928809Y-16584428D01*
X7919286Y-16565381D01*
X7909762Y-16527286D01*
X7909762Y-16479667D01*
X7919286Y-16441571D01*
X7928809Y-16422524D01*
X7938333Y-16413000D01*
X7957381Y-16403476D01*
X8109762Y-16603476D02*
X8109762Y-16470143D01*
X8109762Y-16489190D02*
X8119286Y-16479667D01*
X8138333Y-16470143D01*
X8166905Y-16470143D01*
X8185952Y-16479667D01*
X8195476Y-16498714D01*
X8195476Y-16603476D01*
X8195476Y-16498714D02*
X8205000Y-16479667D01*
X8224048Y-16470143D01*
X8252619Y-16470143D01*
X8271667Y-16479667D01*
X8281190Y-16498714D01*
X8281190Y-16603476D01*
X8376428Y-16603476D02*
X8376428Y-16470143D01*
X8376428Y-16489190D02*
X8385952Y-16479667D01*
X8405000Y-16470143D01*
X8433571Y-16470143D01*
X8452619Y-16479667D01*
X8462143Y-16498714D01*
X8462143Y-16603476D01*
X8462143Y-16498714D02*
X8471667Y-16479667D01*
X8490714Y-16470143D01*
X8519286Y-16470143D01*
X8538333Y-16479667D01*
X8547857Y-16498714D01*
X8547857Y-16603476D01*
X8938333Y-16393952D02*
X8766905Y-16651095D01*
X9195476Y-16403476D02*
X9214524Y-16403476D01*
X9233571Y-16413000D01*
X9243095Y-16422524D01*
X9252619Y-16441571D01*
X9262143Y-16479667D01*
X9262143Y-16527286D01*
X9252619Y-16565381D01*
X9243095Y-16584428D01*
X9233571Y-16593952D01*
X9214524Y-16603476D01*
X9195476Y-16603476D01*
X9176429Y-16593952D01*
X9166905Y-16584428D01*
X9157381Y-16565381D01*
X9147857Y-16527286D01*
X9147857Y-16479667D01*
X9157381Y-16441571D01*
X9166905Y-16422524D01*
X9176429Y-16413000D01*
X9195476Y-16403476D01*
X9347857Y-16584428D02*
X9357381Y-16593952D01*
X9347857Y-16603476D01*
X9338333Y-16593952D01*
X9347857Y-16584428D01*
X9347857Y-16603476D01*
X9547857Y-16603476D02*
X9433571Y-16603476D01*
X9490714Y-16603476D02*
X9490714Y-16403476D01*
X9471667Y-16432048D01*
X9452619Y-16451095D01*
X9433571Y-16460619D01*
X9719286Y-16470143D02*
X9719286Y-16603476D01*
X9671667Y-16393952D02*
X9624048Y-16536809D01*
X9747857Y-16536809D01*
X9919286Y-16403476D02*
X9824048Y-16403476D01*
X9814524Y-16498714D01*
X9824048Y-16489190D01*
X9843095Y-16479667D01*
X9890714Y-16479667D01*
X9909762Y-16489190D01*
X9919286Y-16498714D01*
X9928810Y-16517762D01*
X9928810Y-16565381D01*
X9919286Y-16584428D01*
X9909762Y-16593952D01*
X9890714Y-16603476D01*
X9843095Y-16603476D01*
X9824048Y-16593952D01*
X9814524Y-16584428D01*
X9995476Y-16403476D02*
X10128810Y-16403476D01*
X10043095Y-16603476D01*
X10195476Y-16403476D02*
X10195476Y-16441571D01*
X10271667Y-16403476D02*
X10271667Y-16441571D01*
X10566905Y-16679667D02*
X10557381Y-16670143D01*
X10538333Y-16641571D01*
X10528810Y-16622524D01*
X10519286Y-16593952D01*
X10509762Y-16546333D01*
X10509762Y-16508238D01*
X10519286Y-16460619D01*
X10528810Y-16432048D01*
X10538333Y-16413000D01*
X10557381Y-16384428D01*
X10566905Y-16374905D01*
X10728810Y-16470143D02*
X10728810Y-16603476D01*
X10681190Y-16393952D02*
X10633571Y-16536809D01*
X10757381Y-16536809D01*
X10985952Y-16603476D02*
X10985952Y-16403476D01*
X11071667Y-16603476D02*
X11071667Y-16498714D01*
X11062143Y-16479667D01*
X11043095Y-16470143D01*
X11014524Y-16470143D01*
X10995476Y-16479667D01*
X10985952Y-16489190D01*
X11195476Y-16603476D02*
X11176429Y-16593952D01*
X11166905Y-16584428D01*
X11157381Y-16565381D01*
X11157381Y-16508238D01*
X11166905Y-16489190D01*
X11176429Y-16479667D01*
X11195476Y-16470143D01*
X11224048Y-16470143D01*
X11243095Y-16479667D01*
X11252619Y-16489190D01*
X11262143Y-16508238D01*
X11262143Y-16565381D01*
X11252619Y-16584428D01*
X11243095Y-16593952D01*
X11224048Y-16603476D01*
X11195476Y-16603476D01*
X11376428Y-16603476D02*
X11357381Y-16593952D01*
X11347857Y-16574905D01*
X11347857Y-16403476D01*
X11528809Y-16593952D02*
X11509762Y-16603476D01*
X11471667Y-16603476D01*
X11452619Y-16593952D01*
X11443095Y-16574905D01*
X11443095Y-16498714D01*
X11452619Y-16479667D01*
X11471667Y-16470143D01*
X11509762Y-16470143D01*
X11528809Y-16479667D01*
X11538333Y-16498714D01*
X11538333Y-16517762D01*
X11443095Y-16536809D01*
X11614524Y-16593952D02*
X11633571Y-16603476D01*
X11671667Y-16603476D01*
X11690714Y-16593952D01*
X11700238Y-16574905D01*
X11700238Y-16565381D01*
X11690714Y-16546333D01*
X11671667Y-16536809D01*
X11643095Y-16536809D01*
X11624048Y-16527286D01*
X11614524Y-16508238D01*
X11614524Y-16498714D01*
X11624048Y-16479667D01*
X11643095Y-16470143D01*
X11671667Y-16470143D01*
X11690714Y-16479667D01*
X11766905Y-16679667D02*
X11776428Y-16670143D01*
X11795476Y-16641571D01*
X11805000Y-16622524D01*
X11814524Y-16593952D01*
X11824048Y-16546333D01*
X11824048Y-16508238D01*
X11814524Y-16460619D01*
X11805000Y-16432048D01*
X11795476Y-16413000D01*
X11776428Y-16384428D01*
X11766905Y-16374905D01*
M02*
