G04 #@! TF.GenerationSoftware,KiCad,Pcbnew,(6.0.5-0)*
G04 #@! TF.CreationDate,2023-03-07T01:41:47-05:00*
G04 #@! TF.ProjectId,bottom-adapter,626f7474-6f6d-42d6-9164-61707465722e,3*
G04 #@! TF.SameCoordinates,Original*
G04 #@! TF.FileFunction,Copper,L1,Top*
G04 #@! TF.FilePolarity,Positive*
%FSLAX46Y46*%
G04 Gerber Fmt 4.6, Leading zero omitted, Abs format (unit mm)*
G04 Created by KiCad (PCBNEW (6.0.5-0)) date 2023-03-07 01:41:47*
%MOMM*%
%LPD*%
G01*
G04 APERTURE LIST*
G04 #@! TA.AperFunction,ComponentPad*
%ADD10C,5.500000*%
G04 #@! TD*
G04 #@! TA.AperFunction,ComponentPad*
%ADD11R,2.000000X2.000000*%
G04 #@! TD*
G04 #@! TA.AperFunction,ComponentPad*
%ADD12C,4.300000*%
G04 #@! TD*
G04 #@! TA.AperFunction,ViaPad*
%ADD13C,0.800000*%
G04 #@! TD*
G04 APERTURE END LIST*
D10*
X163450000Y-143450000D03*
D11*
X121400000Y-95500000D03*
D12*
X161364000Y-58495000D03*
D11*
X116300000Y-101600000D03*
D10*
X73550000Y-53550000D03*
D12*
X161364000Y-138505000D03*
X75639000Y-134695000D03*
X75639000Y-61035000D03*
D10*
X73550000Y-143450000D03*
D11*
X121300000Y-101600000D03*
D10*
X163450000Y-53550000D03*
D11*
X116300000Y-95500000D03*
D13*
X118700000Y-104000000D03*
X113700000Y-104000000D03*
X121300000Y-103900000D03*
X113700000Y-102800000D03*
X118700000Y-102800000D03*
X123900000Y-104000000D03*
X116300000Y-104000000D03*
X123800000Y-102800000D03*
G04 #@! TA.AperFunction,Conductor*
G36*
X77704031Y-50273713D02*
G01*
X77740576Y-50324013D01*
X77745500Y-50355100D01*
X77745500Y-50465025D01*
X77743567Y-50484650D01*
X77740514Y-50500000D01*
X77742346Y-50509209D01*
X77742447Y-50510492D01*
X77742447Y-50512490D01*
X77742811Y-50515123D01*
X77757114Y-50696854D01*
X77758037Y-50700700D01*
X77758038Y-50700704D01*
X77772890Y-50762565D01*
X77803210Y-50888860D01*
X77804723Y-50892512D01*
X77804724Y-50892516D01*
X77855604Y-51015350D01*
X77878776Y-51071292D01*
X77981950Y-51239657D01*
X78110192Y-51389808D01*
X78260343Y-51518050D01*
X78428708Y-51621224D01*
X78432357Y-51622735D01*
X78432356Y-51622735D01*
X78607484Y-51695276D01*
X78607488Y-51695277D01*
X78611140Y-51696790D01*
X78707143Y-51719838D01*
X78799296Y-51741962D01*
X78799300Y-51741963D01*
X78803146Y-51742886D01*
X78984877Y-51757189D01*
X78987510Y-51757553D01*
X78989508Y-51757553D01*
X78990791Y-51757654D01*
X79000000Y-51759486D01*
X79009718Y-51757553D01*
X79009719Y-51757553D01*
X79015350Y-51756433D01*
X79034975Y-51754500D01*
X85865025Y-51754500D01*
X85884650Y-51756433D01*
X85890281Y-51757553D01*
X85890282Y-51757553D01*
X85900000Y-51759486D01*
X85909717Y-51757553D01*
X85919627Y-51757553D01*
X85919627Y-51758202D01*
X85931616Y-51757614D01*
X86035582Y-51767854D01*
X86054923Y-51771702D01*
X86175806Y-51808371D01*
X86194026Y-51815918D01*
X86305440Y-51875470D01*
X86321838Y-51886426D01*
X86419489Y-51966566D01*
X86433434Y-51980511D01*
X86513574Y-52078162D01*
X86524530Y-52094560D01*
X86584082Y-52205974D01*
X86591629Y-52224194D01*
X86628298Y-52345077D01*
X86632146Y-52364418D01*
X86642386Y-52468384D01*
X86641798Y-52480373D01*
X86642447Y-52480373D01*
X86642447Y-52490283D01*
X86640514Y-52500000D01*
X86642447Y-52509718D01*
X86642447Y-52509719D01*
X86643567Y-52515350D01*
X86645500Y-52534975D01*
X86645500Y-55165025D01*
X86643567Y-55184650D01*
X86640514Y-55200000D01*
X86642346Y-55209209D01*
X86642447Y-55210492D01*
X86642447Y-55212490D01*
X86642811Y-55215123D01*
X86657114Y-55396854D01*
X86703210Y-55588860D01*
X86704723Y-55592512D01*
X86704724Y-55592516D01*
X86760491Y-55727148D01*
X86778776Y-55771292D01*
X86881950Y-55939657D01*
X87010192Y-56089808D01*
X87160343Y-56218050D01*
X87328708Y-56321224D01*
X87332357Y-56322735D01*
X87332356Y-56322735D01*
X87507484Y-56395276D01*
X87507488Y-56395277D01*
X87511140Y-56396790D01*
X87607143Y-56419838D01*
X87699296Y-56441962D01*
X87699300Y-56441963D01*
X87703146Y-56442886D01*
X87884877Y-56457189D01*
X87887510Y-56457553D01*
X87889508Y-56457553D01*
X87890791Y-56457654D01*
X87900000Y-56459486D01*
X87909718Y-56457553D01*
X87909719Y-56457553D01*
X87915350Y-56456433D01*
X87934975Y-56454500D01*
X149065025Y-56454500D01*
X149084650Y-56456433D01*
X149090281Y-56457553D01*
X149090282Y-56457553D01*
X149100000Y-56459486D01*
X149109209Y-56457654D01*
X149110492Y-56457553D01*
X149112490Y-56457553D01*
X149115123Y-56457189D01*
X149296854Y-56442886D01*
X149300700Y-56441963D01*
X149300704Y-56441962D01*
X149392857Y-56419838D01*
X149488860Y-56396790D01*
X149492512Y-56395277D01*
X149492516Y-56395276D01*
X149667644Y-56322735D01*
X149667643Y-56322735D01*
X149671292Y-56321224D01*
X149839657Y-56218050D01*
X149989808Y-56089808D01*
X150118050Y-55939657D01*
X150221224Y-55771292D01*
X150239509Y-55727148D01*
X150295276Y-55592516D01*
X150295277Y-55592512D01*
X150296790Y-55588860D01*
X150342886Y-55396854D01*
X150357189Y-55215123D01*
X150357553Y-55212490D01*
X150357553Y-55210492D01*
X150357654Y-55209209D01*
X150359486Y-55200000D01*
X150356433Y-55184650D01*
X150354500Y-55165025D01*
X150354500Y-52534975D01*
X150356433Y-52515350D01*
X150357553Y-52509719D01*
X150357553Y-52509718D01*
X150359486Y-52500000D01*
X150357553Y-52490283D01*
X150357553Y-52480373D01*
X150358202Y-52480373D01*
X150357614Y-52468384D01*
X150367854Y-52364418D01*
X150371702Y-52345077D01*
X150408371Y-52224194D01*
X150415918Y-52205974D01*
X150475470Y-52094560D01*
X150486426Y-52078162D01*
X150566566Y-51980511D01*
X150580511Y-51966566D01*
X150678162Y-51886426D01*
X150694560Y-51875470D01*
X150805974Y-51815918D01*
X150824194Y-51808371D01*
X150945077Y-51771702D01*
X150964418Y-51767854D01*
X151068384Y-51757614D01*
X151080373Y-51758202D01*
X151080373Y-51757553D01*
X151090283Y-51757553D01*
X151100000Y-51759486D01*
X151109718Y-51757553D01*
X151109719Y-51757553D01*
X151115350Y-51756433D01*
X151134975Y-51754500D01*
X157965025Y-51754500D01*
X157984650Y-51756433D01*
X157990281Y-51757553D01*
X157990282Y-51757553D01*
X158000000Y-51759486D01*
X158009209Y-51757654D01*
X158010492Y-51757553D01*
X158012490Y-51757553D01*
X158015123Y-51757189D01*
X158196854Y-51742886D01*
X158200700Y-51741963D01*
X158200704Y-51741962D01*
X158292857Y-51719838D01*
X158388860Y-51696790D01*
X158392512Y-51695277D01*
X158392516Y-51695276D01*
X158567644Y-51622735D01*
X158567643Y-51622735D01*
X158571292Y-51621224D01*
X158739657Y-51518050D01*
X158889808Y-51389808D01*
X159018050Y-51239657D01*
X159121224Y-51071292D01*
X159144396Y-51015350D01*
X159195276Y-50892516D01*
X159195277Y-50892512D01*
X159196790Y-50888860D01*
X159227110Y-50762565D01*
X159241962Y-50700704D01*
X159241963Y-50700700D01*
X159242886Y-50696854D01*
X159257189Y-50515123D01*
X159257553Y-50512490D01*
X159257553Y-50510492D01*
X159257654Y-50509209D01*
X159259486Y-50500000D01*
X159256433Y-50484650D01*
X159254500Y-50465025D01*
X159254500Y-50355100D01*
X159273713Y-50295969D01*
X159324013Y-50259424D01*
X159355100Y-50254500D01*
X165965025Y-50254500D01*
X165984650Y-50256433D01*
X165990281Y-50257553D01*
X165990282Y-50257553D01*
X166000000Y-50259486D01*
X166009717Y-50257553D01*
X166019627Y-50257553D01*
X166019627Y-50258202D01*
X166031616Y-50257614D01*
X166135582Y-50267854D01*
X166154923Y-50271702D01*
X166275806Y-50308371D01*
X166294026Y-50315918D01*
X166405440Y-50375470D01*
X166421838Y-50386426D01*
X166519489Y-50466566D01*
X166533432Y-50480509D01*
X166541452Y-50490281D01*
X166613574Y-50578162D01*
X166624530Y-50594560D01*
X166684082Y-50705974D01*
X166691629Y-50724194D01*
X166728298Y-50845077D01*
X166732146Y-50864418D01*
X166742386Y-50968384D01*
X166741798Y-50980373D01*
X166742447Y-50980373D01*
X166742447Y-50990283D01*
X166740514Y-51000000D01*
X166742447Y-51009718D01*
X166742447Y-51009719D01*
X166743567Y-51015350D01*
X166745500Y-51034975D01*
X166745500Y-57644900D01*
X166726287Y-57704031D01*
X166675987Y-57740576D01*
X166644900Y-57745500D01*
X166534975Y-57745500D01*
X166515350Y-57743567D01*
X166509719Y-57742447D01*
X166509718Y-57742447D01*
X166500000Y-57740514D01*
X166490791Y-57742346D01*
X166489508Y-57742447D01*
X166487510Y-57742447D01*
X166484877Y-57742811D01*
X166303146Y-57757114D01*
X166299300Y-57758037D01*
X166299296Y-57758038D01*
X166207143Y-57780162D01*
X166111140Y-57803210D01*
X166107488Y-57804723D01*
X166107484Y-57804724D01*
X165955058Y-57867861D01*
X165928708Y-57878776D01*
X165760343Y-57981950D01*
X165610192Y-58110192D01*
X165481950Y-58260343D01*
X165378776Y-58428708D01*
X165303210Y-58611140D01*
X165302286Y-58614990D01*
X165259358Y-58793800D01*
X165257114Y-58803146D01*
X165242941Y-58983235D01*
X165242812Y-58984873D01*
X165242447Y-58987510D01*
X165242447Y-58989508D01*
X165242346Y-58990791D01*
X165240514Y-59000000D01*
X165242447Y-59009718D01*
X165242447Y-59009719D01*
X165243567Y-59015350D01*
X165245500Y-59034975D01*
X165245500Y-65865025D01*
X165243567Y-65884650D01*
X165240514Y-65900000D01*
X165242447Y-65909717D01*
X165242447Y-65919627D01*
X165241798Y-65919627D01*
X165242386Y-65931616D01*
X165232146Y-66035582D01*
X165228298Y-66054923D01*
X165191629Y-66175806D01*
X165184082Y-66194026D01*
X165124530Y-66305440D01*
X165113574Y-66321838D01*
X165033434Y-66419489D01*
X165019489Y-66433434D01*
X164921838Y-66513574D01*
X164905440Y-66524530D01*
X164794026Y-66584082D01*
X164775806Y-66591629D01*
X164654923Y-66628298D01*
X164635582Y-66632146D01*
X164531616Y-66642386D01*
X164519627Y-66641798D01*
X164519627Y-66642447D01*
X164509717Y-66642447D01*
X164500000Y-66640514D01*
X164490282Y-66642447D01*
X164490281Y-66642447D01*
X164484650Y-66643567D01*
X164465025Y-66645500D01*
X161834975Y-66645500D01*
X161815350Y-66643567D01*
X161809719Y-66642447D01*
X161809718Y-66642447D01*
X161800000Y-66640514D01*
X161790791Y-66642346D01*
X161789508Y-66642447D01*
X161787510Y-66642447D01*
X161784877Y-66642811D01*
X161603146Y-66657114D01*
X161599300Y-66658037D01*
X161599296Y-66658038D01*
X161507143Y-66680162D01*
X161411140Y-66703210D01*
X161407488Y-66704723D01*
X161407484Y-66704724D01*
X161255058Y-66767861D01*
X161228708Y-66778776D01*
X161060343Y-66881950D01*
X160910192Y-67010192D01*
X160781950Y-67160343D01*
X160678776Y-67328708D01*
X160603210Y-67511140D01*
X160557114Y-67703146D01*
X160556804Y-67707089D01*
X160542812Y-67884873D01*
X160542447Y-67887510D01*
X160542447Y-67889508D01*
X160542346Y-67890791D01*
X160540514Y-67900000D01*
X160542447Y-67909718D01*
X160542447Y-67909719D01*
X160543567Y-67915350D01*
X160545500Y-67934975D01*
X160545500Y-129065025D01*
X160543567Y-129084650D01*
X160540514Y-129100000D01*
X160542346Y-129109209D01*
X160542447Y-129110492D01*
X160542447Y-129112490D01*
X160542811Y-129115123D01*
X160557114Y-129296854D01*
X160603210Y-129488860D01*
X160678776Y-129671292D01*
X160781950Y-129839657D01*
X160910192Y-129989808D01*
X161060343Y-130118050D01*
X161228708Y-130221224D01*
X161232357Y-130222735D01*
X161232356Y-130222735D01*
X161407484Y-130295276D01*
X161407488Y-130295277D01*
X161411140Y-130296790D01*
X161507143Y-130319838D01*
X161599296Y-130341962D01*
X161599300Y-130341963D01*
X161603146Y-130342886D01*
X161784877Y-130357189D01*
X161787510Y-130357553D01*
X161789508Y-130357553D01*
X161790791Y-130357654D01*
X161800000Y-130359486D01*
X161809718Y-130357553D01*
X161809719Y-130357553D01*
X161815350Y-130356433D01*
X161834975Y-130354500D01*
X164465025Y-130354500D01*
X164484650Y-130356433D01*
X164490281Y-130357553D01*
X164490282Y-130357553D01*
X164500000Y-130359486D01*
X164509717Y-130357553D01*
X164519627Y-130357553D01*
X164519627Y-130358202D01*
X164531616Y-130357614D01*
X164635582Y-130367854D01*
X164654923Y-130371702D01*
X164775806Y-130408371D01*
X164794026Y-130415918D01*
X164905440Y-130475470D01*
X164921838Y-130486426D01*
X165019489Y-130566566D01*
X165033434Y-130580511D01*
X165113574Y-130678162D01*
X165124530Y-130694560D01*
X165184082Y-130805974D01*
X165191629Y-130824194D01*
X165228298Y-130945077D01*
X165232146Y-130964418D01*
X165242386Y-131068384D01*
X165241798Y-131080373D01*
X165242447Y-131080373D01*
X165242447Y-131090283D01*
X165240514Y-131100000D01*
X165242447Y-131109718D01*
X165242447Y-131109719D01*
X165243567Y-131115350D01*
X165245500Y-131134975D01*
X165245500Y-137965025D01*
X165243567Y-137984650D01*
X165240514Y-138000000D01*
X165242346Y-138009209D01*
X165242447Y-138010492D01*
X165242447Y-138012490D01*
X165242811Y-138015123D01*
X165257114Y-138196854D01*
X165258037Y-138200700D01*
X165258038Y-138200704D01*
X165278345Y-138285290D01*
X165303210Y-138388860D01*
X165378776Y-138571292D01*
X165481950Y-138739657D01*
X165610192Y-138889808D01*
X165760343Y-139018050D01*
X165928708Y-139121224D01*
X165932357Y-139122735D01*
X165932356Y-139122735D01*
X166107484Y-139195276D01*
X166107488Y-139195277D01*
X166111140Y-139196790D01*
X166207143Y-139219838D01*
X166299296Y-139241962D01*
X166299300Y-139241963D01*
X166303146Y-139242886D01*
X166484877Y-139257189D01*
X166487510Y-139257553D01*
X166489508Y-139257553D01*
X166490791Y-139257654D01*
X166500000Y-139259486D01*
X166509718Y-139257553D01*
X166509719Y-139257553D01*
X166515350Y-139256433D01*
X166534975Y-139254500D01*
X166644900Y-139254500D01*
X166704031Y-139273713D01*
X166740576Y-139324013D01*
X166745500Y-139355100D01*
X166745500Y-145965025D01*
X166743567Y-145984650D01*
X166740514Y-146000000D01*
X166742447Y-146009717D01*
X166742447Y-146019627D01*
X166741798Y-146019627D01*
X166742386Y-146031616D01*
X166732146Y-146135582D01*
X166728298Y-146154923D01*
X166691629Y-146275806D01*
X166684082Y-146294026D01*
X166624530Y-146405440D01*
X166613574Y-146421838D01*
X166601905Y-146436057D01*
X166536831Y-146515350D01*
X166533434Y-146519489D01*
X166519489Y-146533434D01*
X166421838Y-146613574D01*
X166405440Y-146624530D01*
X166294026Y-146684082D01*
X166275806Y-146691629D01*
X166154923Y-146728298D01*
X166135582Y-146732146D01*
X166031616Y-146742386D01*
X166019627Y-146741798D01*
X166019627Y-146742447D01*
X166009717Y-146742447D01*
X166000000Y-146740514D01*
X165990282Y-146742447D01*
X165990281Y-146742447D01*
X165984650Y-146743567D01*
X165965025Y-146745500D01*
X159355100Y-146745500D01*
X159295969Y-146726287D01*
X159259424Y-146675987D01*
X159254500Y-146644900D01*
X159254500Y-146534975D01*
X159256433Y-146515350D01*
X159257553Y-146509719D01*
X159257553Y-146509718D01*
X159259486Y-146500000D01*
X159257654Y-146490791D01*
X159257553Y-146489508D01*
X159257553Y-146487510D01*
X159257188Y-146484873D01*
X159257059Y-146483235D01*
X159242886Y-146303146D01*
X159240256Y-146292188D01*
X159207301Y-146154923D01*
X159196790Y-146111140D01*
X159157699Y-146016765D01*
X159122735Y-145932356D01*
X159121224Y-145928708D01*
X159018050Y-145760343D01*
X158889808Y-145610192D01*
X158739657Y-145481950D01*
X158571292Y-145378776D01*
X158544942Y-145367861D01*
X158392516Y-145304724D01*
X158392512Y-145304723D01*
X158388860Y-145303210D01*
X158292857Y-145280162D01*
X158200704Y-145258038D01*
X158200700Y-145258037D01*
X158196854Y-145257114D01*
X158015123Y-145242811D01*
X158012490Y-145242447D01*
X158010492Y-145242447D01*
X158009209Y-145242346D01*
X158000000Y-145240514D01*
X157990282Y-145242447D01*
X157990281Y-145242447D01*
X157984650Y-145243567D01*
X157965025Y-145245500D01*
X151134975Y-145245500D01*
X151115350Y-145243567D01*
X151109719Y-145242447D01*
X151109718Y-145242447D01*
X151100000Y-145240514D01*
X151090283Y-145242447D01*
X151080373Y-145242447D01*
X151080373Y-145241798D01*
X151068384Y-145242386D01*
X150964418Y-145232146D01*
X150945077Y-145228298D01*
X150824194Y-145191629D01*
X150805974Y-145184082D01*
X150694560Y-145124530D01*
X150678162Y-145113574D01*
X150580511Y-145033434D01*
X150566566Y-145019489D01*
X150486426Y-144921838D01*
X150475470Y-144905440D01*
X150415918Y-144794026D01*
X150408371Y-144775806D01*
X150371702Y-144654923D01*
X150367854Y-144635582D01*
X150357614Y-144531616D01*
X150358202Y-144519627D01*
X150357553Y-144519627D01*
X150357553Y-144509717D01*
X150359486Y-144500000D01*
X150356433Y-144484650D01*
X150354500Y-144465025D01*
X150354500Y-141834975D01*
X150356433Y-141815350D01*
X150357553Y-141809719D01*
X150357553Y-141809718D01*
X150359486Y-141800000D01*
X150357654Y-141790791D01*
X150357553Y-141789508D01*
X150357553Y-141787510D01*
X150357188Y-141784873D01*
X150357059Y-141783235D01*
X150342886Y-141603146D01*
X150296790Y-141411140D01*
X150221224Y-141228708D01*
X150134353Y-141086947D01*
X150120114Y-141063711D01*
X150120113Y-141063710D01*
X150118050Y-141060343D01*
X149989808Y-140910192D01*
X149839657Y-140781950D01*
X149671292Y-140678776D01*
X149644942Y-140667861D01*
X149492516Y-140604724D01*
X149492512Y-140604723D01*
X149488860Y-140603210D01*
X149384376Y-140578126D01*
X149300704Y-140558038D01*
X149300700Y-140558037D01*
X149296854Y-140557114D01*
X149115123Y-140542811D01*
X149112490Y-140542447D01*
X149110492Y-140542447D01*
X149109209Y-140542346D01*
X149100000Y-140540514D01*
X149090282Y-140542447D01*
X149090281Y-140542447D01*
X149084650Y-140543567D01*
X149065025Y-140545500D01*
X87934975Y-140545500D01*
X87915350Y-140543567D01*
X87909719Y-140542447D01*
X87909718Y-140542447D01*
X87900000Y-140540514D01*
X87890791Y-140542346D01*
X87889508Y-140542447D01*
X87887510Y-140542447D01*
X87884877Y-140542811D01*
X87703146Y-140557114D01*
X87699300Y-140558037D01*
X87699296Y-140558038D01*
X87615624Y-140578126D01*
X87511140Y-140603210D01*
X87507488Y-140604723D01*
X87507484Y-140604724D01*
X87355058Y-140667861D01*
X87328708Y-140678776D01*
X87160343Y-140781950D01*
X87010192Y-140910192D01*
X86881950Y-141060343D01*
X86879887Y-141063710D01*
X86879886Y-141063711D01*
X86865647Y-141086947D01*
X86778776Y-141228708D01*
X86703210Y-141411140D01*
X86657114Y-141603146D01*
X86642941Y-141783235D01*
X86642812Y-141784873D01*
X86642447Y-141787510D01*
X86642447Y-141789508D01*
X86642346Y-141790791D01*
X86640514Y-141800000D01*
X86642447Y-141809718D01*
X86642447Y-141809719D01*
X86643567Y-141815350D01*
X86645500Y-141834975D01*
X86645500Y-144465025D01*
X86643567Y-144484650D01*
X86640514Y-144500000D01*
X86642447Y-144509717D01*
X86642447Y-144519627D01*
X86641798Y-144519627D01*
X86642386Y-144531616D01*
X86632146Y-144635582D01*
X86628298Y-144654923D01*
X86591629Y-144775806D01*
X86584082Y-144794026D01*
X86524530Y-144905440D01*
X86513574Y-144921838D01*
X86433434Y-145019489D01*
X86419489Y-145033434D01*
X86321838Y-145113574D01*
X86305440Y-145124530D01*
X86194026Y-145184082D01*
X86175806Y-145191629D01*
X86054923Y-145228298D01*
X86035582Y-145232146D01*
X85931616Y-145242386D01*
X85919627Y-145241798D01*
X85919627Y-145242447D01*
X85909717Y-145242447D01*
X85900000Y-145240514D01*
X85890282Y-145242447D01*
X85890281Y-145242447D01*
X85884650Y-145243567D01*
X85865025Y-145245500D01*
X79034975Y-145245500D01*
X79015350Y-145243567D01*
X79009719Y-145242447D01*
X79009718Y-145242447D01*
X79000000Y-145240514D01*
X78990791Y-145242346D01*
X78989508Y-145242447D01*
X78987510Y-145242447D01*
X78984877Y-145242811D01*
X78803146Y-145257114D01*
X78799300Y-145258037D01*
X78799296Y-145258038D01*
X78707143Y-145280162D01*
X78611140Y-145303210D01*
X78607488Y-145304723D01*
X78607484Y-145304724D01*
X78455058Y-145367861D01*
X78428708Y-145378776D01*
X78260343Y-145481950D01*
X78110192Y-145610192D01*
X77981950Y-145760343D01*
X77878776Y-145928708D01*
X77877265Y-145932356D01*
X77842302Y-146016765D01*
X77803210Y-146111140D01*
X77792699Y-146154923D01*
X77759745Y-146292188D01*
X77757114Y-146303146D01*
X77742941Y-146483235D01*
X77742812Y-146484873D01*
X77742447Y-146487510D01*
X77742447Y-146489508D01*
X77742346Y-146490791D01*
X77740514Y-146500000D01*
X77742447Y-146509718D01*
X77742447Y-146509719D01*
X77743567Y-146515350D01*
X77745500Y-146534975D01*
X77745500Y-146644900D01*
X77726287Y-146704031D01*
X77675987Y-146740576D01*
X77644900Y-146745500D01*
X71034975Y-146745500D01*
X71015350Y-146743567D01*
X71009719Y-146742447D01*
X71009718Y-146742447D01*
X71000000Y-146740514D01*
X70990283Y-146742447D01*
X70980373Y-146742447D01*
X70980373Y-146741798D01*
X70968384Y-146742386D01*
X70864418Y-146732146D01*
X70845077Y-146728298D01*
X70724194Y-146691629D01*
X70705974Y-146684082D01*
X70594560Y-146624530D01*
X70578162Y-146613574D01*
X70480511Y-146533434D01*
X70466566Y-146519489D01*
X70463170Y-146515350D01*
X70398095Y-146436057D01*
X70386426Y-146421838D01*
X70375470Y-146405440D01*
X70315918Y-146294026D01*
X70308371Y-146275806D01*
X70271702Y-146154923D01*
X70267854Y-146135582D01*
X70257614Y-146031616D01*
X70258202Y-146019627D01*
X70257553Y-146019627D01*
X70257553Y-146009717D01*
X70259486Y-146000000D01*
X70256433Y-145984650D01*
X70254500Y-145965025D01*
X70254500Y-143355466D01*
X70541893Y-143355466D01*
X70550963Y-143701836D01*
X70599784Y-144044868D01*
X70600521Y-144047678D01*
X70600522Y-144047682D01*
X70671929Y-144319868D01*
X70687708Y-144380015D01*
X70813570Y-144702835D01*
X70975703Y-145009050D01*
X71171956Y-145294600D01*
X71173860Y-145296783D01*
X71173865Y-145296789D01*
X71358103Y-145507984D01*
X71399729Y-145555701D01*
X71656002Y-145788892D01*
X71658347Y-145790577D01*
X71928428Y-145984650D01*
X71937380Y-145991083D01*
X72240132Y-146159592D01*
X72560246Y-146292188D01*
X72563031Y-146292981D01*
X72563033Y-146292982D01*
X72612557Y-146307089D01*
X72893478Y-146387111D01*
X73235412Y-146443105D01*
X73454757Y-146453449D01*
X73578608Y-146459290D01*
X73578610Y-146459290D01*
X73581516Y-146459427D01*
X73850539Y-146441086D01*
X73924313Y-146436057D01*
X73924314Y-146436057D01*
X73927202Y-146435860D01*
X73930048Y-146435332D01*
X73930052Y-146435332D01*
X74265030Y-146373248D01*
X74265035Y-146373247D01*
X74267888Y-146372718D01*
X74366544Y-146342367D01*
X74596302Y-146271685D01*
X74596310Y-146271682D01*
X74599060Y-146270836D01*
X74916326Y-146131566D01*
X75215483Y-145956753D01*
X75492564Y-145748714D01*
X75743898Y-145510207D01*
X75966153Y-145244394D01*
X76120745Y-145009050D01*
X76154797Y-144957211D01*
X76154800Y-144957207D01*
X76156383Y-144954796D01*
X76181207Y-144905440D01*
X76246406Y-144775806D01*
X76312067Y-144645253D01*
X76315606Y-144635582D01*
X76430146Y-144322588D01*
X76430148Y-144322582D01*
X76431141Y-144319868D01*
X76512027Y-143982953D01*
X76553653Y-143638974D01*
X76559592Y-143450000D01*
X76539647Y-143104086D01*
X76480075Y-142762757D01*
X76381667Y-142430537D01*
X76245727Y-142111830D01*
X76199304Y-142030441D01*
X76121329Y-141893738D01*
X76074056Y-141810859D01*
X75868930Y-141531614D01*
X75800205Y-141457656D01*
X75635047Y-141279925D01*
X75633069Y-141277796D01*
X75627281Y-141272852D01*
X75371809Y-141054659D01*
X75371807Y-141054657D01*
X75369597Y-141052770D01*
X75082007Y-140859518D01*
X75028936Y-140832126D01*
X74776681Y-140701927D01*
X74776674Y-140701924D01*
X74774111Y-140700601D01*
X74516374Y-140603210D01*
X74452701Y-140579150D01*
X74449991Y-140578126D01*
X74447180Y-140577420D01*
X74447177Y-140577419D01*
X74116761Y-140494424D01*
X74116755Y-140494423D01*
X74113941Y-140493716D01*
X74111059Y-140493337D01*
X74111056Y-140493336D01*
X73939201Y-140470711D01*
X73770417Y-140448490D01*
X73623172Y-140446177D01*
X73426866Y-140443093D01*
X73426858Y-140443093D01*
X73423971Y-140443048D01*
X73201087Y-140465295D01*
X73082069Y-140477174D01*
X73082065Y-140477175D01*
X73079196Y-140477461D01*
X72740661Y-140551274D01*
X72412853Y-140663507D01*
X72100118Y-140812674D01*
X72097668Y-140814211D01*
X71809056Y-140995257D01*
X71809052Y-140995260D01*
X71806600Y-140996798D01*
X71804342Y-140998607D01*
X71804335Y-140998612D01*
X71716695Y-141068825D01*
X71536190Y-141213437D01*
X71477394Y-141272852D01*
X71344165Y-141407484D01*
X71292472Y-141459721D01*
X71290685Y-141462000D01*
X71139699Y-141654560D01*
X71078676Y-141732385D01*
X71077165Y-141734850D01*
X71077162Y-141734855D01*
X70899149Y-142025346D01*
X70897636Y-142027815D01*
X70751752Y-142342095D01*
X70750840Y-142344852D01*
X70750839Y-142344855D01*
X70721582Y-142433319D01*
X70642957Y-142671060D01*
X70642369Y-142673899D01*
X70642368Y-142673903D01*
X70623375Y-142765620D01*
X70572694Y-143010350D01*
X70572437Y-143013234D01*
X70572436Y-143013238D01*
X70559169Y-143161898D01*
X70541893Y-143355466D01*
X70254500Y-143355466D01*
X70254500Y-139355100D01*
X70273713Y-139295969D01*
X70324013Y-139259424D01*
X70355100Y-139254500D01*
X70465025Y-139254500D01*
X70484650Y-139256433D01*
X70490281Y-139257553D01*
X70490282Y-139257553D01*
X70500000Y-139259486D01*
X70509209Y-139257654D01*
X70510492Y-139257553D01*
X70512490Y-139257553D01*
X70515123Y-139257189D01*
X70696854Y-139242886D01*
X70700700Y-139241963D01*
X70700704Y-139241962D01*
X70792857Y-139219838D01*
X70888860Y-139196790D01*
X70892512Y-139195277D01*
X70892516Y-139195276D01*
X71067644Y-139122735D01*
X71067643Y-139122735D01*
X71071292Y-139121224D01*
X71239657Y-139018050D01*
X71389808Y-138889808D01*
X71518050Y-138739657D01*
X71621224Y-138571292D01*
X71648683Y-138505000D01*
X158954746Y-138505000D01*
X158954945Y-138508163D01*
X158969564Y-138740514D01*
X158973744Y-138806960D01*
X159030437Y-139104157D01*
X159123932Y-139391906D01*
X159252755Y-139665667D01*
X159414873Y-139921124D01*
X159607729Y-140154248D01*
X159828284Y-140361362D01*
X159830834Y-140363215D01*
X159830838Y-140363218D01*
X159948143Y-140448445D01*
X160073057Y-140539200D01*
X160338190Y-140684958D01*
X160341133Y-140686123D01*
X160341141Y-140686127D01*
X160616552Y-140795170D01*
X160616555Y-140795171D01*
X160619500Y-140796337D01*
X160622555Y-140797121D01*
X160622563Y-140797124D01*
X160846834Y-140854706D01*
X160912551Y-140871579D01*
X160915670Y-140871973D01*
X160915675Y-140871974D01*
X161209584Y-140909104D01*
X161209591Y-140909104D01*
X161212722Y-140909500D01*
X161515278Y-140909500D01*
X161518416Y-140909104D01*
X161521573Y-140908905D01*
X161521634Y-140909881D01*
X161578978Y-140920827D01*
X161621533Y-140966156D01*
X161629318Y-141027841D01*
X161599358Y-141082320D01*
X161593410Y-141087480D01*
X161436190Y-141213437D01*
X161377394Y-141272852D01*
X161244165Y-141407484D01*
X161192472Y-141459721D01*
X161190685Y-141462000D01*
X161039699Y-141654560D01*
X160978676Y-141732385D01*
X160977165Y-141734850D01*
X160977162Y-141734855D01*
X160799149Y-142025346D01*
X160797636Y-142027815D01*
X160651752Y-142342095D01*
X160650840Y-142344852D01*
X160650839Y-142344855D01*
X160621582Y-142433319D01*
X160542957Y-142671060D01*
X160542369Y-142673899D01*
X160542368Y-142673903D01*
X160523375Y-142765620D01*
X160472694Y-143010350D01*
X160472437Y-143013234D01*
X160472436Y-143013238D01*
X160459169Y-143161898D01*
X160441893Y-143355466D01*
X160450963Y-143701836D01*
X160499784Y-144044868D01*
X160500521Y-144047678D01*
X160500522Y-144047682D01*
X160571929Y-144319868D01*
X160587708Y-144380015D01*
X160713570Y-144702835D01*
X160875703Y-145009050D01*
X161071956Y-145294600D01*
X161073860Y-145296783D01*
X161073865Y-145296789D01*
X161258103Y-145507984D01*
X161299729Y-145555701D01*
X161556002Y-145788892D01*
X161558347Y-145790577D01*
X161828428Y-145984650D01*
X161837380Y-145991083D01*
X162140132Y-146159592D01*
X162460246Y-146292188D01*
X162463031Y-146292981D01*
X162463033Y-146292982D01*
X162512557Y-146307089D01*
X162793478Y-146387111D01*
X163135412Y-146443105D01*
X163354757Y-146453449D01*
X163478608Y-146459290D01*
X163478610Y-146459290D01*
X163481516Y-146459427D01*
X163750539Y-146441086D01*
X163824313Y-146436057D01*
X163824314Y-146436057D01*
X163827202Y-146435860D01*
X163830048Y-146435332D01*
X163830052Y-146435332D01*
X164165030Y-146373248D01*
X164165035Y-146373247D01*
X164167888Y-146372718D01*
X164266544Y-146342367D01*
X164496302Y-146271685D01*
X164496310Y-146271682D01*
X164499060Y-146270836D01*
X164816326Y-146131566D01*
X165115483Y-145956753D01*
X165392564Y-145748714D01*
X165643898Y-145510207D01*
X165866153Y-145244394D01*
X166020745Y-145009050D01*
X166054797Y-144957211D01*
X166054800Y-144957207D01*
X166056383Y-144954796D01*
X166081207Y-144905440D01*
X166146406Y-144775806D01*
X166212067Y-144645253D01*
X166215606Y-144635582D01*
X166330146Y-144322588D01*
X166330148Y-144322582D01*
X166331141Y-144319868D01*
X166412027Y-143982953D01*
X166453653Y-143638974D01*
X166459592Y-143450000D01*
X166439647Y-143104086D01*
X166380075Y-142762757D01*
X166281667Y-142430537D01*
X166145727Y-142111830D01*
X166099304Y-142030441D01*
X166021329Y-141893738D01*
X165974056Y-141810859D01*
X165768930Y-141531614D01*
X165700205Y-141457656D01*
X165535047Y-141279925D01*
X165533069Y-141277796D01*
X165527281Y-141272852D01*
X165271809Y-141054659D01*
X165271807Y-141054657D01*
X165269597Y-141052770D01*
X164982007Y-140859518D01*
X164928936Y-140832126D01*
X164676681Y-140701927D01*
X164676674Y-140701924D01*
X164674111Y-140700601D01*
X164416374Y-140603210D01*
X164352701Y-140579150D01*
X164349991Y-140578126D01*
X164347180Y-140577420D01*
X164347177Y-140577419D01*
X164016761Y-140494424D01*
X164016755Y-140494423D01*
X164013941Y-140493716D01*
X164011059Y-140493337D01*
X164011056Y-140493336D01*
X163839201Y-140470711D01*
X163670417Y-140448490D01*
X163523172Y-140446177D01*
X163326866Y-140443093D01*
X163326858Y-140443093D01*
X163323971Y-140443048D01*
X163186270Y-140456792D01*
X163046819Y-140470711D01*
X162986072Y-140457466D01*
X162944712Y-140411044D01*
X162938537Y-140349177D01*
X162967963Y-140297274D01*
X163117963Y-140156415D01*
X163120271Y-140154248D01*
X163313127Y-139921124D01*
X163475245Y-139665667D01*
X163604068Y-139391906D01*
X163697563Y-139104157D01*
X163754256Y-138806960D01*
X163758437Y-138740514D01*
X163773055Y-138508163D01*
X163773254Y-138505000D01*
X163754256Y-138203040D01*
X163697563Y-137905843D01*
X163604068Y-137618094D01*
X163475245Y-137344333D01*
X163313127Y-137088876D01*
X163290545Y-137061579D01*
X163122285Y-136858186D01*
X163122281Y-136858182D01*
X163120271Y-136855752D01*
X162899716Y-136648638D01*
X162897166Y-136646785D01*
X162897162Y-136646782D01*
X162657500Y-136472658D01*
X162654943Y-136470800D01*
X162389810Y-136325042D01*
X162386867Y-136323877D01*
X162386859Y-136323873D01*
X162111448Y-136214830D01*
X162111445Y-136214829D01*
X162108500Y-136213663D01*
X162105445Y-136212879D01*
X162105437Y-136212876D01*
X161881166Y-136155294D01*
X161815449Y-136138421D01*
X161812330Y-136138027D01*
X161812325Y-136138026D01*
X161518416Y-136100896D01*
X161518409Y-136100896D01*
X161515278Y-136100500D01*
X161212722Y-136100500D01*
X161209591Y-136100896D01*
X161209584Y-136100896D01*
X160915675Y-136138026D01*
X160915670Y-136138027D01*
X160912551Y-136138421D01*
X160846835Y-136155294D01*
X160622563Y-136212876D01*
X160622555Y-136212879D01*
X160619500Y-136213663D01*
X160616555Y-136214829D01*
X160616552Y-136214830D01*
X160341141Y-136323873D01*
X160341133Y-136323877D01*
X160338190Y-136325042D01*
X160073057Y-136470800D01*
X160070500Y-136472658D01*
X159830838Y-136646782D01*
X159830834Y-136646785D01*
X159828284Y-136648638D01*
X159607729Y-136855752D01*
X159605719Y-136858182D01*
X159605715Y-136858186D01*
X159437455Y-137061579D01*
X159414873Y-137088876D01*
X159252755Y-137344333D01*
X159123932Y-137618094D01*
X159030437Y-137905843D01*
X158973744Y-138203040D01*
X158954746Y-138505000D01*
X71648683Y-138505000D01*
X71696790Y-138388860D01*
X71721655Y-138285290D01*
X71741962Y-138200704D01*
X71741963Y-138200700D01*
X71742886Y-138196854D01*
X71757189Y-138015123D01*
X71757553Y-138012490D01*
X71757553Y-138010492D01*
X71757654Y-138009209D01*
X71759486Y-138000000D01*
X71756433Y-137984650D01*
X71754500Y-137965025D01*
X71754500Y-134695000D01*
X73229746Y-134695000D01*
X73248744Y-134996960D01*
X73305437Y-135294157D01*
X73398932Y-135581906D01*
X73527755Y-135855667D01*
X73689873Y-136111124D01*
X73691884Y-136113555D01*
X73691887Y-136113559D01*
X73775666Y-136214830D01*
X73882729Y-136344248D01*
X74103284Y-136551362D01*
X74105834Y-136553215D01*
X74105838Y-136553218D01*
X74234618Y-136646782D01*
X74348057Y-136729200D01*
X74613190Y-136874958D01*
X74616133Y-136876123D01*
X74616141Y-136876127D01*
X74891552Y-136985170D01*
X74891555Y-136985171D01*
X74894500Y-136986337D01*
X74897555Y-136987121D01*
X74897563Y-136987124D01*
X75121834Y-137044706D01*
X75187551Y-137061579D01*
X75190670Y-137061973D01*
X75190675Y-137061974D01*
X75484584Y-137099104D01*
X75484591Y-137099104D01*
X75487722Y-137099500D01*
X75790278Y-137099500D01*
X75793409Y-137099104D01*
X75793416Y-137099104D01*
X76087325Y-137061974D01*
X76087330Y-137061973D01*
X76090449Y-137061579D01*
X76156166Y-137044706D01*
X76380437Y-136987124D01*
X76380445Y-136987121D01*
X76383500Y-136986337D01*
X76386445Y-136985171D01*
X76386448Y-136985170D01*
X76661859Y-136876127D01*
X76661867Y-136876123D01*
X76664810Y-136874958D01*
X76929943Y-136729200D01*
X77043382Y-136646782D01*
X77172162Y-136553218D01*
X77172166Y-136553215D01*
X77174716Y-136551362D01*
X77395271Y-136344248D01*
X77502335Y-136214830D01*
X77586113Y-136113559D01*
X77586116Y-136113555D01*
X77588127Y-136111124D01*
X77750245Y-135855667D01*
X77879068Y-135581906D01*
X77972563Y-135294157D01*
X78029256Y-134996960D01*
X78048254Y-134695000D01*
X78029256Y-134393040D01*
X77972563Y-134095843D01*
X77879068Y-133808094D01*
X77750245Y-133534333D01*
X77588127Y-133278876D01*
X77395271Y-133045752D01*
X77174716Y-132838638D01*
X77172166Y-132836785D01*
X77172162Y-132836782D01*
X76932500Y-132662658D01*
X76929943Y-132660800D01*
X76664810Y-132515042D01*
X76661867Y-132513877D01*
X76661859Y-132513873D01*
X76386448Y-132404830D01*
X76386445Y-132404829D01*
X76383500Y-132403663D01*
X76380445Y-132402879D01*
X76380437Y-132402876D01*
X76156166Y-132345294D01*
X76090449Y-132328421D01*
X76087330Y-132328027D01*
X76087325Y-132328026D01*
X75793416Y-132290896D01*
X75793409Y-132290896D01*
X75790278Y-132290500D01*
X75487722Y-132290500D01*
X75484591Y-132290896D01*
X75484584Y-132290896D01*
X75190675Y-132328026D01*
X75190670Y-132328027D01*
X75187551Y-132328421D01*
X75121834Y-132345294D01*
X74897563Y-132402876D01*
X74897555Y-132402879D01*
X74894500Y-132403663D01*
X74891555Y-132404829D01*
X74891552Y-132404830D01*
X74616141Y-132513873D01*
X74616133Y-132513877D01*
X74613190Y-132515042D01*
X74348057Y-132660800D01*
X74345500Y-132662658D01*
X74105838Y-132836782D01*
X74105834Y-132836785D01*
X74103284Y-132838638D01*
X73882729Y-133045752D01*
X73689873Y-133278876D01*
X73527755Y-133534333D01*
X73398932Y-133808094D01*
X73305437Y-134095843D01*
X73248744Y-134393040D01*
X73229746Y-134695000D01*
X71754500Y-134695000D01*
X71754500Y-131134975D01*
X71756433Y-131115350D01*
X71757553Y-131109719D01*
X71757553Y-131109718D01*
X71759486Y-131100000D01*
X71757553Y-131090283D01*
X71757553Y-131080373D01*
X71758202Y-131080373D01*
X71757614Y-131068384D01*
X71767854Y-130964418D01*
X71771702Y-130945077D01*
X71808371Y-130824194D01*
X71815918Y-130805974D01*
X71875470Y-130694560D01*
X71886426Y-130678162D01*
X71966566Y-130580511D01*
X71980511Y-130566566D01*
X72078162Y-130486426D01*
X72094560Y-130475470D01*
X72205974Y-130415918D01*
X72224194Y-130408371D01*
X72345077Y-130371702D01*
X72364418Y-130367854D01*
X72468384Y-130357614D01*
X72480373Y-130358202D01*
X72480373Y-130357553D01*
X72490283Y-130357553D01*
X72500000Y-130359486D01*
X72509718Y-130357553D01*
X72509719Y-130357553D01*
X72515350Y-130356433D01*
X72534975Y-130354500D01*
X75165025Y-130354500D01*
X75184650Y-130356433D01*
X75190281Y-130357553D01*
X75190282Y-130357553D01*
X75200000Y-130359486D01*
X75209209Y-130357654D01*
X75210492Y-130357553D01*
X75212490Y-130357553D01*
X75215123Y-130357189D01*
X75396854Y-130342886D01*
X75400700Y-130341963D01*
X75400704Y-130341962D01*
X75492857Y-130319838D01*
X75588860Y-130296790D01*
X75592512Y-130295277D01*
X75592516Y-130295276D01*
X75767644Y-130222735D01*
X75767643Y-130222735D01*
X75771292Y-130221224D01*
X75939657Y-130118050D01*
X76089808Y-129989808D01*
X76218050Y-129839657D01*
X76321224Y-129671292D01*
X76396790Y-129488860D01*
X76442886Y-129296854D01*
X76457189Y-129115123D01*
X76457553Y-129112490D01*
X76457553Y-129110492D01*
X76457654Y-129109209D01*
X76459486Y-129100000D01*
X76456433Y-129084650D01*
X76454500Y-129065025D01*
X76454500Y-102620078D01*
X115046001Y-102620078D01*
X115046965Y-102629861D01*
X115058804Y-102689386D01*
X115066242Y-102707345D01*
X115111371Y-102774885D01*
X115125115Y-102788629D01*
X115192657Y-102833759D01*
X115210611Y-102841196D01*
X115270131Y-102853035D01*
X115279930Y-102854000D01*
X116030067Y-102854000D01*
X116042957Y-102849812D01*
X116046000Y-102845623D01*
X116046000Y-102838066D01*
X116554000Y-102838066D01*
X116558188Y-102850956D01*
X116562377Y-102853999D01*
X117320078Y-102853999D01*
X117329861Y-102853035D01*
X117389386Y-102841196D01*
X117407345Y-102833758D01*
X117474885Y-102788629D01*
X117488629Y-102774885D01*
X117533759Y-102707343D01*
X117541196Y-102689389D01*
X117553035Y-102629869D01*
X117553999Y-102620078D01*
X120046001Y-102620078D01*
X120046965Y-102629861D01*
X120058804Y-102689386D01*
X120066242Y-102707345D01*
X120111371Y-102774885D01*
X120125115Y-102788629D01*
X120192657Y-102833759D01*
X120210611Y-102841196D01*
X120270131Y-102853035D01*
X120279930Y-102854000D01*
X121030067Y-102854000D01*
X121042957Y-102849812D01*
X121046000Y-102845623D01*
X121046000Y-102838066D01*
X121554000Y-102838066D01*
X121558188Y-102850956D01*
X121562377Y-102853999D01*
X122320078Y-102853999D01*
X122329861Y-102853035D01*
X122389386Y-102841196D01*
X122407345Y-102833758D01*
X122474885Y-102788629D01*
X122488629Y-102774885D01*
X122533759Y-102707343D01*
X122541196Y-102689389D01*
X122553035Y-102629869D01*
X122554000Y-102620070D01*
X122554000Y-101869933D01*
X122549812Y-101857043D01*
X122545623Y-101854000D01*
X121569933Y-101854000D01*
X121557043Y-101858188D01*
X121554000Y-101862377D01*
X121554000Y-102838066D01*
X121046000Y-102838066D01*
X121046000Y-101869933D01*
X121041812Y-101857043D01*
X121037623Y-101854000D01*
X120061934Y-101854000D01*
X120049044Y-101858188D01*
X120046001Y-101862377D01*
X120046001Y-102620078D01*
X117553999Y-102620078D01*
X117554000Y-102620070D01*
X117554000Y-101869933D01*
X117549812Y-101857043D01*
X117545623Y-101854000D01*
X116569933Y-101854000D01*
X116557043Y-101858188D01*
X116554000Y-101862377D01*
X116554000Y-102838066D01*
X116046000Y-102838066D01*
X116046000Y-101869933D01*
X116041812Y-101857043D01*
X116037623Y-101854000D01*
X115061934Y-101854000D01*
X115049044Y-101858188D01*
X115046001Y-101862377D01*
X115046001Y-102620078D01*
X76454500Y-102620078D01*
X76454500Y-101330067D01*
X115046000Y-101330067D01*
X115050188Y-101342957D01*
X115054377Y-101346000D01*
X116030067Y-101346000D01*
X116042957Y-101341812D01*
X116046000Y-101337623D01*
X116046000Y-101330067D01*
X116554000Y-101330067D01*
X116558188Y-101342957D01*
X116562377Y-101346000D01*
X117538066Y-101346000D01*
X117550956Y-101341812D01*
X117553999Y-101337623D01*
X117553999Y-101330067D01*
X120046000Y-101330067D01*
X120050188Y-101342957D01*
X120054377Y-101346000D01*
X121030067Y-101346000D01*
X121042957Y-101341812D01*
X121046000Y-101337623D01*
X121046000Y-101330067D01*
X121554000Y-101330067D01*
X121558188Y-101342957D01*
X121562377Y-101346000D01*
X122538066Y-101346000D01*
X122550956Y-101341812D01*
X122553999Y-101337623D01*
X122553999Y-100579922D01*
X122553035Y-100570139D01*
X122541196Y-100510614D01*
X122533758Y-100492655D01*
X122488629Y-100425115D01*
X122474885Y-100411371D01*
X122407343Y-100366241D01*
X122389389Y-100358804D01*
X122329869Y-100346965D01*
X122320070Y-100346000D01*
X121569933Y-100346000D01*
X121557043Y-100350188D01*
X121554000Y-100354377D01*
X121554000Y-101330067D01*
X121046000Y-101330067D01*
X121046000Y-100361934D01*
X121041812Y-100349044D01*
X121037623Y-100346001D01*
X120279922Y-100346001D01*
X120270139Y-100346965D01*
X120210614Y-100358804D01*
X120192655Y-100366242D01*
X120125115Y-100411371D01*
X120111371Y-100425115D01*
X120066241Y-100492657D01*
X120058804Y-100510611D01*
X120046965Y-100570131D01*
X120046000Y-100579930D01*
X120046000Y-101330067D01*
X117553999Y-101330067D01*
X117553999Y-100579922D01*
X117553035Y-100570139D01*
X117541196Y-100510614D01*
X117533758Y-100492655D01*
X117488629Y-100425115D01*
X117474885Y-100411371D01*
X117407343Y-100366241D01*
X117389389Y-100358804D01*
X117329869Y-100346965D01*
X117320070Y-100346000D01*
X116569933Y-100346000D01*
X116557043Y-100350188D01*
X116554000Y-100354377D01*
X116554000Y-101330067D01*
X116046000Y-101330067D01*
X116046000Y-100361934D01*
X116041812Y-100349044D01*
X116037623Y-100346001D01*
X115279922Y-100346001D01*
X115270139Y-100346965D01*
X115210614Y-100358804D01*
X115192655Y-100366242D01*
X115125115Y-100411371D01*
X115111371Y-100425115D01*
X115066241Y-100492657D01*
X115058804Y-100510611D01*
X115046965Y-100570131D01*
X115046000Y-100579930D01*
X115046000Y-101330067D01*
X76454500Y-101330067D01*
X76454500Y-94474933D01*
X115045500Y-94474933D01*
X115045501Y-96525066D01*
X115060266Y-96599301D01*
X115065769Y-96607536D01*
X115065769Y-96607537D01*
X115111012Y-96675247D01*
X115116516Y-96683484D01*
X115200699Y-96739734D01*
X115249239Y-96749389D01*
X115270081Y-96753535D01*
X115270082Y-96753535D01*
X115274933Y-96754500D01*
X115279880Y-96754500D01*
X116300933Y-96754499D01*
X117325066Y-96754499D01*
X117360548Y-96747442D01*
X117389584Y-96741667D01*
X117389586Y-96741666D01*
X117399301Y-96739734D01*
X117483484Y-96683484D01*
X117539734Y-96599301D01*
X117554500Y-96525067D01*
X117554499Y-94474934D01*
X117554499Y-94474933D01*
X120145500Y-94474933D01*
X120145501Y-96525066D01*
X120160266Y-96599301D01*
X120165769Y-96607536D01*
X120165769Y-96607537D01*
X120211012Y-96675247D01*
X120216516Y-96683484D01*
X120300699Y-96739734D01*
X120349239Y-96749389D01*
X120370081Y-96753535D01*
X120370082Y-96753535D01*
X120374933Y-96754500D01*
X120379880Y-96754500D01*
X121400933Y-96754499D01*
X122425066Y-96754499D01*
X122460548Y-96747442D01*
X122489584Y-96741667D01*
X122489586Y-96741666D01*
X122499301Y-96739734D01*
X122583484Y-96683484D01*
X122639734Y-96599301D01*
X122654500Y-96525067D01*
X122654499Y-94474934D01*
X122639734Y-94400699D01*
X122634230Y-94392461D01*
X122588988Y-94324753D01*
X122583484Y-94316516D01*
X122499301Y-94260266D01*
X122450761Y-94250611D01*
X122429919Y-94246465D01*
X122429918Y-94246465D01*
X122425067Y-94245500D01*
X122420120Y-94245500D01*
X121399067Y-94245501D01*
X120374934Y-94245501D01*
X120339452Y-94252558D01*
X120310416Y-94258333D01*
X120310414Y-94258334D01*
X120300699Y-94260266D01*
X120216516Y-94316516D01*
X120160266Y-94400699D01*
X120145500Y-94474933D01*
X117554499Y-94474933D01*
X117539734Y-94400699D01*
X117534230Y-94392461D01*
X117488988Y-94324753D01*
X117483484Y-94316516D01*
X117399301Y-94260266D01*
X117350761Y-94250611D01*
X117329919Y-94246465D01*
X117329918Y-94246465D01*
X117325067Y-94245500D01*
X117320120Y-94245500D01*
X116299067Y-94245501D01*
X115274934Y-94245501D01*
X115239452Y-94252558D01*
X115210416Y-94258333D01*
X115210414Y-94258334D01*
X115200699Y-94260266D01*
X115116516Y-94316516D01*
X115060266Y-94400699D01*
X115045500Y-94474933D01*
X76454500Y-94474933D01*
X76454500Y-67934975D01*
X76456433Y-67915350D01*
X76457553Y-67909719D01*
X76457553Y-67909718D01*
X76459486Y-67900000D01*
X76457654Y-67890791D01*
X76457553Y-67889508D01*
X76457553Y-67887510D01*
X76457188Y-67884873D01*
X76443196Y-67707089D01*
X76442886Y-67703146D01*
X76396790Y-67511140D01*
X76321224Y-67328708D01*
X76218050Y-67160343D01*
X76089808Y-67010192D01*
X75939657Y-66881950D01*
X75771292Y-66778776D01*
X75744942Y-66767861D01*
X75592516Y-66704724D01*
X75592512Y-66704723D01*
X75588860Y-66703210D01*
X75492857Y-66680162D01*
X75400704Y-66658038D01*
X75400700Y-66658037D01*
X75396854Y-66657114D01*
X75215123Y-66642811D01*
X75212490Y-66642447D01*
X75210492Y-66642447D01*
X75209209Y-66642346D01*
X75200000Y-66640514D01*
X75190282Y-66642447D01*
X75190281Y-66642447D01*
X75184650Y-66643567D01*
X75165025Y-66645500D01*
X72534975Y-66645500D01*
X72515350Y-66643567D01*
X72509719Y-66642447D01*
X72509718Y-66642447D01*
X72500000Y-66640514D01*
X72490283Y-66642447D01*
X72480373Y-66642447D01*
X72480373Y-66641798D01*
X72468384Y-66642386D01*
X72364418Y-66632146D01*
X72345077Y-66628298D01*
X72224194Y-66591629D01*
X72205974Y-66584082D01*
X72094560Y-66524530D01*
X72078162Y-66513574D01*
X71980511Y-66433434D01*
X71966566Y-66419489D01*
X71886426Y-66321838D01*
X71875470Y-66305440D01*
X71815918Y-66194026D01*
X71808371Y-66175806D01*
X71771702Y-66054923D01*
X71767854Y-66035582D01*
X71757614Y-65931616D01*
X71758202Y-65919627D01*
X71757553Y-65919627D01*
X71757553Y-65909717D01*
X71759486Y-65900000D01*
X71756433Y-65884650D01*
X71754500Y-65865025D01*
X71754500Y-61035000D01*
X73229746Y-61035000D01*
X73248744Y-61336960D01*
X73305437Y-61634157D01*
X73398932Y-61921906D01*
X73527755Y-62195667D01*
X73689873Y-62451124D01*
X73882729Y-62684248D01*
X74103284Y-62891362D01*
X74105834Y-62893215D01*
X74105838Y-62893218D01*
X74259248Y-63004677D01*
X74348057Y-63069200D01*
X74613190Y-63214958D01*
X74616133Y-63216123D01*
X74616141Y-63216127D01*
X74891552Y-63325170D01*
X74891555Y-63325171D01*
X74894500Y-63326337D01*
X74897555Y-63327121D01*
X74897563Y-63327124D01*
X75121834Y-63384706D01*
X75187551Y-63401579D01*
X75190670Y-63401973D01*
X75190675Y-63401974D01*
X75484584Y-63439104D01*
X75484591Y-63439104D01*
X75487722Y-63439500D01*
X75790278Y-63439500D01*
X75793409Y-63439104D01*
X75793416Y-63439104D01*
X76087325Y-63401974D01*
X76087330Y-63401973D01*
X76090449Y-63401579D01*
X76156166Y-63384706D01*
X76380437Y-63327124D01*
X76380445Y-63327121D01*
X76383500Y-63326337D01*
X76386445Y-63325171D01*
X76386448Y-63325170D01*
X76661859Y-63216127D01*
X76661867Y-63216123D01*
X76664810Y-63214958D01*
X76929943Y-63069200D01*
X77018752Y-63004677D01*
X77172162Y-62893218D01*
X77172166Y-62893215D01*
X77174716Y-62891362D01*
X77395271Y-62684248D01*
X77588127Y-62451124D01*
X77750245Y-62195667D01*
X77879068Y-61921906D01*
X77972563Y-61634157D01*
X78029256Y-61336960D01*
X78048254Y-61035000D01*
X78029256Y-60733040D01*
X77972563Y-60435843D01*
X77879068Y-60148094D01*
X77835640Y-60055806D01*
X77751596Y-59877203D01*
X77751593Y-59877197D01*
X77750245Y-59874333D01*
X77588127Y-59618876D01*
X77395271Y-59385752D01*
X77174716Y-59178638D01*
X77172166Y-59176785D01*
X77172162Y-59176782D01*
X76976981Y-59034975D01*
X76929943Y-59000800D01*
X76664810Y-58855042D01*
X76661867Y-58853877D01*
X76661859Y-58853873D01*
X76386448Y-58744830D01*
X76386445Y-58744829D01*
X76383500Y-58743663D01*
X76380445Y-58742879D01*
X76380437Y-58742876D01*
X76156166Y-58685294D01*
X76090449Y-58668421D01*
X76087330Y-58668027D01*
X76087325Y-58668026D01*
X75793416Y-58630896D01*
X75793409Y-58630896D01*
X75790278Y-58630500D01*
X75487722Y-58630500D01*
X75484591Y-58630896D01*
X75484584Y-58630896D01*
X75190675Y-58668026D01*
X75190670Y-58668027D01*
X75187551Y-58668421D01*
X75121834Y-58685294D01*
X74897563Y-58742876D01*
X74897555Y-58742879D01*
X74894500Y-58743663D01*
X74891555Y-58744829D01*
X74891552Y-58744830D01*
X74616141Y-58853873D01*
X74616133Y-58853877D01*
X74613190Y-58855042D01*
X74348057Y-59000800D01*
X74301019Y-59034975D01*
X74105838Y-59176782D01*
X74105834Y-59176785D01*
X74103284Y-59178638D01*
X73882729Y-59385752D01*
X73689873Y-59618876D01*
X73527755Y-59874333D01*
X73526407Y-59877197D01*
X73526404Y-59877203D01*
X73442360Y-60055806D01*
X73398932Y-60148094D01*
X73305437Y-60435843D01*
X73248744Y-60733040D01*
X73229746Y-61035000D01*
X71754500Y-61035000D01*
X71754500Y-59034975D01*
X71756433Y-59015350D01*
X71757553Y-59009719D01*
X71757553Y-59009718D01*
X71759486Y-59000000D01*
X71757654Y-58990791D01*
X71757553Y-58989508D01*
X71757553Y-58987510D01*
X71757188Y-58984873D01*
X71757059Y-58983235D01*
X71742886Y-58803146D01*
X71740643Y-58793800D01*
X71697714Y-58614990D01*
X71696790Y-58611140D01*
X71648683Y-58495000D01*
X158954746Y-58495000D01*
X158973744Y-58796960D01*
X159030437Y-59094157D01*
X159123932Y-59381906D01*
X159125279Y-59384768D01*
X159236701Y-59621550D01*
X159252755Y-59655667D01*
X159414873Y-59911124D01*
X159607729Y-60144248D01*
X159828284Y-60351362D01*
X159830834Y-60353215D01*
X159830838Y-60353218D01*
X159940423Y-60432836D01*
X160073057Y-60529200D01*
X160338190Y-60674958D01*
X160341133Y-60676123D01*
X160341141Y-60676127D01*
X160616552Y-60785170D01*
X160616555Y-60785171D01*
X160619500Y-60786337D01*
X160622555Y-60787121D01*
X160622563Y-60787124D01*
X160846834Y-60844706D01*
X160912551Y-60861579D01*
X160915670Y-60861973D01*
X160915675Y-60861974D01*
X161209584Y-60899104D01*
X161209591Y-60899104D01*
X161212722Y-60899500D01*
X161515278Y-60899500D01*
X161518409Y-60899104D01*
X161518416Y-60899104D01*
X161812325Y-60861974D01*
X161812330Y-60861973D01*
X161815449Y-60861579D01*
X161881166Y-60844706D01*
X162105437Y-60787124D01*
X162105445Y-60787121D01*
X162108500Y-60786337D01*
X162111445Y-60785171D01*
X162111448Y-60785170D01*
X162386859Y-60676127D01*
X162386867Y-60676123D01*
X162389810Y-60674958D01*
X162654943Y-60529200D01*
X162787577Y-60432836D01*
X162897162Y-60353218D01*
X162897166Y-60353215D01*
X162899716Y-60351362D01*
X163120271Y-60144248D01*
X163313127Y-59911124D01*
X163475245Y-59655667D01*
X163491300Y-59621550D01*
X163602721Y-59384768D01*
X163604068Y-59381906D01*
X163697563Y-59094157D01*
X163754256Y-58796960D01*
X163773254Y-58495000D01*
X163768872Y-58425344D01*
X163754455Y-58196200D01*
X163754455Y-58196197D01*
X163754256Y-58193040D01*
X163697563Y-57895843D01*
X163604068Y-57608094D01*
X163475245Y-57334333D01*
X163313127Y-57078876D01*
X163120271Y-56845752D01*
X162967328Y-56702130D01*
X162937377Y-56647649D01*
X162945169Y-56585965D01*
X162987730Y-56540642D01*
X163052452Y-56529520D01*
X163081490Y-56534275D01*
X163135412Y-56543105D01*
X163354757Y-56553449D01*
X163478608Y-56559290D01*
X163478610Y-56559290D01*
X163481516Y-56559427D01*
X163757059Y-56540642D01*
X163824313Y-56536057D01*
X163824314Y-56536057D01*
X163827202Y-56535860D01*
X163830048Y-56535332D01*
X163830052Y-56535332D01*
X164165030Y-56473248D01*
X164165035Y-56473247D01*
X164167888Y-56472718D01*
X164267862Y-56441962D01*
X164496302Y-56371685D01*
X164496310Y-56371682D01*
X164499060Y-56370836D01*
X164816326Y-56231566D01*
X165115483Y-56056753D01*
X165392564Y-55848714D01*
X165643898Y-55610207D01*
X165866153Y-55344394D01*
X166020745Y-55109050D01*
X166054797Y-55057211D01*
X166054800Y-55057207D01*
X166056383Y-55054796D01*
X166212067Y-54745253D01*
X166213062Y-54742535D01*
X166330146Y-54422588D01*
X166330148Y-54422582D01*
X166331141Y-54419868D01*
X166412027Y-54082953D01*
X166453653Y-53738974D01*
X166459592Y-53550000D01*
X166439647Y-53204086D01*
X166380075Y-52862757D01*
X166281667Y-52530537D01*
X166145727Y-52211830D01*
X166099304Y-52130441D01*
X165975499Y-51913389D01*
X165974056Y-51910859D01*
X165768930Y-51631614D01*
X165760680Y-51622735D01*
X165629854Y-51481950D01*
X165533069Y-51377796D01*
X165460135Y-51315504D01*
X165271809Y-51154659D01*
X165271807Y-51154657D01*
X165269597Y-51152770D01*
X164982007Y-50959518D01*
X164964600Y-50950533D01*
X164676681Y-50801927D01*
X164676674Y-50801924D01*
X164674111Y-50800601D01*
X164349991Y-50678126D01*
X164347180Y-50677420D01*
X164347177Y-50677419D01*
X164016761Y-50594424D01*
X164016755Y-50594423D01*
X164013941Y-50593716D01*
X164011059Y-50593337D01*
X164011056Y-50593336D01*
X163880580Y-50576159D01*
X163670417Y-50548490D01*
X163523172Y-50546177D01*
X163326866Y-50543093D01*
X163326858Y-50543093D01*
X163323971Y-50543048D01*
X163101087Y-50565295D01*
X162982069Y-50577174D01*
X162982065Y-50577175D01*
X162979196Y-50577461D01*
X162640661Y-50651274D01*
X162312853Y-50763507D01*
X162000118Y-50912674D01*
X161997668Y-50914211D01*
X161709056Y-51095257D01*
X161709052Y-51095260D01*
X161706600Y-51096798D01*
X161704342Y-51098607D01*
X161704335Y-51098612D01*
X161448955Y-51303210D01*
X161436190Y-51313437D01*
X161192472Y-51559721D01*
X161190685Y-51562000D01*
X160995250Y-51811248D01*
X160978676Y-51832385D01*
X160977165Y-51834850D01*
X160977162Y-51834855D01*
X160887904Y-51980511D01*
X160797636Y-52127815D01*
X160651752Y-52442095D01*
X160650840Y-52444852D01*
X160650839Y-52444855D01*
X160621582Y-52533319D01*
X160542957Y-52771060D01*
X160542369Y-52773899D01*
X160542368Y-52773903D01*
X160523375Y-52865620D01*
X160472694Y-53110350D01*
X160472437Y-53113234D01*
X160472436Y-53113238D01*
X160459169Y-53261898D01*
X160441893Y-53455466D01*
X160450963Y-53801836D01*
X160499784Y-54144868D01*
X160500521Y-54147678D01*
X160500522Y-54147682D01*
X160571929Y-54419868D01*
X160587708Y-54480015D01*
X160713570Y-54802835D01*
X160875703Y-55109050D01*
X161071956Y-55394600D01*
X161073860Y-55396783D01*
X161073865Y-55396789D01*
X161151070Y-55485290D01*
X161299729Y-55655701D01*
X161556002Y-55888892D01*
X161558347Y-55890577D01*
X161583731Y-55908817D01*
X161620539Y-55958925D01*
X161620865Y-56021098D01*
X161584584Y-56071589D01*
X161525554Y-56091112D01*
X161518714Y-56090915D01*
X161518413Y-56090896D01*
X161515278Y-56090500D01*
X161212722Y-56090500D01*
X161209591Y-56090896D01*
X161209584Y-56090896D01*
X160915675Y-56128026D01*
X160915670Y-56128027D01*
X160912551Y-56128421D01*
X160846834Y-56145294D01*
X160622563Y-56202876D01*
X160622555Y-56202879D01*
X160619500Y-56203663D01*
X160616555Y-56204829D01*
X160616552Y-56204830D01*
X160341141Y-56313873D01*
X160341133Y-56313877D01*
X160338190Y-56315042D01*
X160073057Y-56460800D01*
X160036843Y-56487111D01*
X159830838Y-56636782D01*
X159830834Y-56636785D01*
X159828284Y-56638638D01*
X159607729Y-56845752D01*
X159414873Y-57078876D01*
X159252755Y-57334333D01*
X159123932Y-57608094D01*
X159030437Y-57895843D01*
X158973744Y-58193040D01*
X158973545Y-58196197D01*
X158973545Y-58196200D01*
X158959128Y-58425344D01*
X158954746Y-58495000D01*
X71648683Y-58495000D01*
X71621224Y-58428708D01*
X71518050Y-58260343D01*
X71389808Y-58110192D01*
X71239657Y-57981950D01*
X71071292Y-57878776D01*
X71044942Y-57867861D01*
X70892516Y-57804724D01*
X70892512Y-57804723D01*
X70888860Y-57803210D01*
X70792857Y-57780162D01*
X70700704Y-57758038D01*
X70700700Y-57758037D01*
X70696854Y-57757114D01*
X70515123Y-57742811D01*
X70512490Y-57742447D01*
X70510492Y-57742447D01*
X70509209Y-57742346D01*
X70500000Y-57740514D01*
X70490282Y-57742447D01*
X70490281Y-57742447D01*
X70484650Y-57743567D01*
X70465025Y-57745500D01*
X70355100Y-57745500D01*
X70295969Y-57726287D01*
X70259424Y-57675987D01*
X70254500Y-57644900D01*
X70254500Y-53455466D01*
X70541893Y-53455466D01*
X70550963Y-53801836D01*
X70599784Y-54144868D01*
X70600521Y-54147678D01*
X70600522Y-54147682D01*
X70671929Y-54419868D01*
X70687708Y-54480015D01*
X70813570Y-54802835D01*
X70975703Y-55109050D01*
X71171956Y-55394600D01*
X71173860Y-55396783D01*
X71173865Y-55396789D01*
X71251070Y-55485290D01*
X71399729Y-55655701D01*
X71656002Y-55888892D01*
X71937380Y-56091083D01*
X72240132Y-56259592D01*
X72560246Y-56392188D01*
X72563031Y-56392981D01*
X72563033Y-56392982D01*
X72579645Y-56397714D01*
X72893478Y-56487111D01*
X73235412Y-56543105D01*
X73454757Y-56553449D01*
X73578608Y-56559290D01*
X73578610Y-56559290D01*
X73581516Y-56559427D01*
X73857059Y-56540642D01*
X73924313Y-56536057D01*
X73924314Y-56536057D01*
X73927202Y-56535860D01*
X73930048Y-56535332D01*
X73930052Y-56535332D01*
X74265030Y-56473248D01*
X74265035Y-56473247D01*
X74267888Y-56472718D01*
X74367862Y-56441962D01*
X74596302Y-56371685D01*
X74596310Y-56371682D01*
X74599060Y-56370836D01*
X74916326Y-56231566D01*
X75215483Y-56056753D01*
X75492564Y-55848714D01*
X75743898Y-55610207D01*
X75966153Y-55344394D01*
X76120745Y-55109050D01*
X76154797Y-55057211D01*
X76154800Y-55057207D01*
X76156383Y-55054796D01*
X76312067Y-54745253D01*
X76313062Y-54742535D01*
X76430146Y-54422588D01*
X76430148Y-54422582D01*
X76431141Y-54419868D01*
X76512027Y-54082953D01*
X76553653Y-53738974D01*
X76559592Y-53550000D01*
X76539647Y-53204086D01*
X76480075Y-52862757D01*
X76381667Y-52530537D01*
X76245727Y-52211830D01*
X76199304Y-52130441D01*
X76075499Y-51913389D01*
X76074056Y-51910859D01*
X75868930Y-51631614D01*
X75860680Y-51622735D01*
X75729854Y-51481950D01*
X75633069Y-51377796D01*
X75560135Y-51315504D01*
X75371809Y-51154659D01*
X75371807Y-51154657D01*
X75369597Y-51152770D01*
X75082007Y-50959518D01*
X75064600Y-50950533D01*
X74776681Y-50801927D01*
X74776674Y-50801924D01*
X74774111Y-50800601D01*
X74449991Y-50678126D01*
X74447180Y-50677420D01*
X74447177Y-50677419D01*
X74116761Y-50594424D01*
X74116755Y-50594423D01*
X74113941Y-50593716D01*
X74111059Y-50593337D01*
X74111056Y-50593336D01*
X73980580Y-50576159D01*
X73770417Y-50548490D01*
X73623172Y-50546177D01*
X73426866Y-50543093D01*
X73426858Y-50543093D01*
X73423971Y-50543048D01*
X73201087Y-50565295D01*
X73082069Y-50577174D01*
X73082065Y-50577175D01*
X73079196Y-50577461D01*
X72740661Y-50651274D01*
X72412853Y-50763507D01*
X72100118Y-50912674D01*
X72097668Y-50914211D01*
X71809056Y-51095257D01*
X71809052Y-51095260D01*
X71806600Y-51096798D01*
X71804342Y-51098607D01*
X71804335Y-51098612D01*
X71548955Y-51303210D01*
X71536190Y-51313437D01*
X71292472Y-51559721D01*
X71290685Y-51562000D01*
X71095250Y-51811248D01*
X71078676Y-51832385D01*
X71077165Y-51834850D01*
X71077162Y-51834855D01*
X70987904Y-51980511D01*
X70897636Y-52127815D01*
X70751752Y-52442095D01*
X70750840Y-52444852D01*
X70750839Y-52444855D01*
X70721582Y-52533319D01*
X70642957Y-52771060D01*
X70642369Y-52773899D01*
X70642368Y-52773903D01*
X70623375Y-52865620D01*
X70572694Y-53110350D01*
X70572437Y-53113234D01*
X70572436Y-53113238D01*
X70559169Y-53261898D01*
X70541893Y-53455466D01*
X70254500Y-53455466D01*
X70254500Y-51034975D01*
X70256433Y-51015350D01*
X70257553Y-51009719D01*
X70257553Y-51009718D01*
X70259486Y-51000000D01*
X70257553Y-50990283D01*
X70257553Y-50980373D01*
X70258202Y-50980373D01*
X70257614Y-50968384D01*
X70267854Y-50864418D01*
X70271702Y-50845077D01*
X70308371Y-50724194D01*
X70315918Y-50705974D01*
X70375470Y-50594560D01*
X70386426Y-50578162D01*
X70458548Y-50490281D01*
X70466568Y-50480509D01*
X70480511Y-50466566D01*
X70578162Y-50386426D01*
X70594560Y-50375470D01*
X70705974Y-50315918D01*
X70724194Y-50308371D01*
X70845077Y-50271702D01*
X70864418Y-50267854D01*
X70968384Y-50257614D01*
X70980373Y-50258202D01*
X70980373Y-50257553D01*
X70990283Y-50257553D01*
X71000000Y-50259486D01*
X71009718Y-50257553D01*
X71009719Y-50257553D01*
X71015350Y-50256433D01*
X71034975Y-50254500D01*
X77644900Y-50254500D01*
X77704031Y-50273713D01*
G37*
G04 #@! TD.AperFunction*
M02*
