M48
; DRILL file {KiCad (6.0.5-0)} date Tuesday, March 07, 2023 at 01:42:03 AM
; FORMAT={-:-/ absolute / metric / decimal}
; #@! TF.CreationDate,2023-03-07T01:42:03-05:00
; #@! TF.GenerationSoftware,Kicad,Pcbnew,(6.0.5-0)
; #@! TF.FileFunction,Plated,1,2,PTH
FMAT,2
METRIC
; #@! TA.AperFunction,Plated,PTH,ViaDrill
T1C0.400
; #@! TA.AperFunction,Plated,PTH,ComponentDrill
T2C1.000
; #@! TA.AperFunction,Plated,PTH,ComponentDrill
T3C2.700
; #@! TA.AperFunction,Plated,PTH,ComponentDrill
T4C3.700
%
G90
G05
T1
X113.7Y-102.8
X113.7Y-104.0
X116.3Y-104.0
X118.7Y-102.8
X118.7Y-104.0
X121.3Y-103.9
X123.8Y-102.8
X123.9Y-104.0
T2
X116.3Y-95.5
X116.3Y-101.6
X121.3Y-101.6
X121.4Y-95.5
T3
X75.639Y-61.035
X75.639Y-134.695
X161.364Y-58.495
X161.364Y-138.505
T4
X73.55Y-53.55
X73.55Y-143.45
X163.45Y-53.55
X163.45Y-143.45
T0
M30
