G04 #@! TF.GenerationSoftware,KiCad,Pcbnew,(7.0.0-0)*
G04 #@! TF.CreationDate,2023-03-18T15:00:22-04:00*
G04 #@! TF.ProjectId,bottom-adapter,626f7474-6f6d-42d6-9164-61707465722e,3*
G04 #@! TF.SameCoordinates,Original*
G04 #@! TF.FileFunction,Profile,NP*
%FSLAX46Y46*%
G04 Gerber Fmt 4.6, Leading zero omitted, Abs format (unit mm)*
G04 Created by KiCad (PCBNEW (7.0.0-0)) date 2023-03-18 15:00:22*
%MOMM*%
%LPD*%
G01*
G04 APERTURE LIST*
G04 #@! TA.AperFunction,Profile*
%ADD10C,0.100000*%
G04 #@! TD*
G04 APERTURE END LIST*
D10*
X75200000Y-130100000D02*
G75*
G03*
X76200000Y-129100000I0J1000000D01*
G01*
X72500000Y-130100000D02*
G75*
G03*
X71500000Y-131100000I0J-1000000D01*
G01*
X161800000Y-66900000D02*
G75*
G03*
X160800000Y-67900000I0J-1000000D01*
G01*
X167000000Y-58000000D02*
X167000000Y-51000000D01*
X167000000Y-58000000D02*
X166500000Y-58000000D01*
X86900000Y-55200000D02*
G75*
G03*
X87900000Y-56200000I1000000J0D01*
G01*
X159000000Y-50000000D02*
X166000000Y-50000000D01*
X165500000Y-138000000D02*
G75*
G03*
X166500000Y-139000000I1000000J0D01*
G01*
X70000000Y-146000000D02*
G75*
G03*
X71000000Y-147000000I1000000J0D01*
G01*
X149100000Y-140800000D02*
X87900000Y-140800000D01*
X166000000Y-147000000D02*
G75*
G03*
X167000000Y-146000000I0J1000000D01*
G01*
X79000000Y-145500000D02*
G75*
G03*
X78000000Y-146500000I0J-1000000D01*
G01*
X159000000Y-146500000D02*
G75*
G03*
X158000000Y-145500000I-1000000J0D01*
G01*
X70000000Y-139000000D02*
X70000000Y-146000000D01*
X165500000Y-131100000D02*
G75*
G03*
X164500000Y-130100000I-1000000J0D01*
G01*
X70500000Y-58000000D02*
X70000000Y-58000000D01*
X150100000Y-141800000D02*
X150100000Y-144500000D01*
X87900000Y-56200000D02*
X149100000Y-56200000D01*
X71500000Y-65900000D02*
G75*
G03*
X72500000Y-66900000I1000000J0D01*
G01*
X78000000Y-147000000D02*
X71000000Y-147000000D01*
X166000000Y-147000000D02*
X159000000Y-147000000D01*
X166500000Y-139000000D02*
X167000000Y-139000000D01*
X158000000Y-51500000D02*
G75*
G03*
X159000000Y-50500000I0J1000000D01*
G01*
X160800000Y-67900000D02*
X160800000Y-129100000D01*
X85900000Y-145500000D02*
X79000000Y-145500000D01*
X75200000Y-130100000D02*
X72500000Y-130100000D01*
X165500000Y-59000000D02*
X165500000Y-65900000D01*
X150100000Y-55200000D02*
X150100000Y-52500000D01*
X149100000Y-56200000D02*
G75*
G03*
X150100000Y-55200000I0J1000000D01*
G01*
X86900000Y-141800000D02*
X86900000Y-144500000D01*
X158000000Y-145500000D02*
X151100000Y-145500000D01*
X87900000Y-140800000D02*
G75*
G03*
X86900000Y-141800000I0J-1000000D01*
G01*
X75200000Y-66900000D02*
X72500000Y-66900000D01*
X78000000Y-50500000D02*
G75*
G03*
X79000000Y-51500000I1000000J0D01*
G01*
X161800000Y-130100000D02*
X164500000Y-130100000D01*
X167000000Y-51000000D02*
G75*
G03*
X166000000Y-50000000I-1000000J0D01*
G01*
X79000000Y-51500000D02*
X85900000Y-51500000D01*
X71500000Y-131100000D02*
X71500000Y-138000000D01*
X161800000Y-66900000D02*
X164500000Y-66900000D01*
X159000000Y-50000000D02*
X159000000Y-50500000D01*
X85900000Y-145500000D02*
G75*
G03*
X86900000Y-144500000I0J1000000D01*
G01*
X78000000Y-50500000D02*
X78000000Y-50000000D01*
X70000000Y-139000000D02*
X70500000Y-139000000D01*
X71500000Y-59000000D02*
G75*
G03*
X70500000Y-58000000I-1000000J0D01*
G01*
X160800000Y-129100000D02*
G75*
G03*
X161800000Y-130100000I1000000J0D01*
G01*
X166500000Y-58000000D02*
G75*
G03*
X165500000Y-59000000I0J-1000000D01*
G01*
X76200000Y-129100000D02*
X76200000Y-67900000D01*
X86900000Y-55200000D02*
X86900000Y-52500000D01*
X70000000Y-51000000D02*
X70000000Y-58000000D01*
X158000000Y-51500000D02*
X151100000Y-51500000D01*
X71500000Y-59000000D02*
X71500000Y-65900000D01*
X86900000Y-52500000D02*
G75*
G03*
X85900000Y-51500000I-1000000J0D01*
G01*
X164500000Y-66900000D02*
G75*
G03*
X165500000Y-65900000I0J1000000D01*
G01*
X150100000Y-141800000D02*
G75*
G03*
X149100000Y-140800000I-1000000J0D01*
G01*
X159000000Y-146500000D02*
X159000000Y-147000000D01*
X70500000Y-139000000D02*
G75*
G03*
X71500000Y-138000000I0J1000000D01*
G01*
X150100000Y-144500000D02*
G75*
G03*
X151100000Y-145500000I1000000J0D01*
G01*
X151100000Y-51500000D02*
G75*
G03*
X150100000Y-52500000I0J-1000000D01*
G01*
X165500000Y-131100000D02*
X165500000Y-138000000D01*
X71000000Y-50000000D02*
G75*
G03*
X70000000Y-51000000I0J-1000000D01*
G01*
X78000000Y-50000000D02*
X71000000Y-50000000D01*
X167000000Y-139000000D02*
X167000000Y-146000000D01*
X76200000Y-67900000D02*
G75*
G03*
X75200000Y-66900000I-1000000J0D01*
G01*
X78000000Y-147000000D02*
X78000000Y-146500000D01*
M02*
