G04 #@! TF.GenerationSoftware,KiCad,Pcbnew,(7.0.0-0)*
G04 #@! TF.CreationDate,2023-03-17T23:54:48-04:00*
G04 #@! TF.ProjectId,bottom-adapter,626f7474-6f6d-42d6-9164-61707465722e,3*
G04 #@! TF.SameCoordinates,Original*
G04 #@! TF.FileFunction,Copper,L1,Top*
G04 #@! TF.FilePolarity,Positive*
%FSLAX46Y46*%
G04 Gerber Fmt 4.6, Leading zero omitted, Abs format (unit mm)*
G04 Created by KiCad (PCBNEW (7.0.0-0)) date 2023-03-17 23:54:48*
%MOMM*%
%LPD*%
G01*
G04 APERTURE LIST*
G04 #@! TA.AperFunction,ComponentPad*
%ADD10C,5.500000*%
G04 #@! TD*
G04 #@! TA.AperFunction,ComponentPad*
%ADD11R,2.000000X2.000000*%
G04 #@! TD*
G04 #@! TA.AperFunction,ComponentPad*
%ADD12C,4.300000*%
G04 #@! TD*
G04 #@! TA.AperFunction,ViaPad*
%ADD13C,0.800000*%
G04 #@! TD*
G04 APERTURE END LIST*
D10*
X163450000Y-143450000D03*
D11*
X121399999Y-95499999D03*
D12*
X161364000Y-58495000D03*
D11*
X116299999Y-101599999D03*
D10*
X73550000Y-53550000D03*
D12*
X161364000Y-138505000D03*
X75639000Y-134695000D03*
X75639000Y-61035000D03*
D10*
X73550000Y-143450000D03*
D11*
X121299999Y-101599999D03*
D10*
X163450000Y-53550000D03*
D11*
X116299999Y-95499999D03*
D13*
X118700000Y-104000000D03*
X113700000Y-104000000D03*
X121300000Y-103900000D03*
X113700000Y-102800000D03*
X118700000Y-102800000D03*
X123900000Y-104000000D03*
X116300000Y-104000000D03*
X123800000Y-102800000D03*
G04 #@! TA.AperFunction,Conductor*
G36*
X77949200Y-50013978D02*
G01*
X77986022Y-50050800D01*
X77999500Y-50101100D01*
X77999500Y-50499500D01*
X77999500Y-50500000D01*
X77999500Y-50587532D01*
X78000260Y-50591845D01*
X78000261Y-50591850D01*
X78014668Y-50673561D01*
X78029899Y-50759938D01*
X78031397Y-50764054D01*
X78031399Y-50764061D01*
X78059712Y-50841849D01*
X78089775Y-50924445D01*
X78177308Y-51076055D01*
X78289837Y-51210163D01*
X78423945Y-51322692D01*
X78575555Y-51410225D01*
X78740062Y-51470101D01*
X78912468Y-51500500D01*
X78999901Y-51500500D01*
X79000000Y-51500500D01*
X79000500Y-51500500D01*
X85895610Y-51500500D01*
X85904376Y-51500883D01*
X85911103Y-51501471D01*
X85944991Y-51504436D01*
X85945800Y-51504511D01*
X86073691Y-51517107D01*
X86089829Y-51520044D01*
X86156789Y-51537985D01*
X86159887Y-51538870D01*
X86253149Y-51567161D01*
X86266458Y-51572252D01*
X86334461Y-51603963D01*
X86339302Y-51606383D01*
X86420289Y-51649671D01*
X86430560Y-51655982D01*
X86493626Y-51700142D01*
X86499744Y-51704783D01*
X86569342Y-51761900D01*
X86576657Y-51768530D01*
X86631468Y-51823341D01*
X86638098Y-51830656D01*
X86695215Y-51900254D01*
X86699856Y-51906372D01*
X86744016Y-51969438D01*
X86750331Y-51979717D01*
X86793598Y-52060663D01*
X86796052Y-52065571D01*
X86827744Y-52133536D01*
X86832837Y-52146849D01*
X86861123Y-52240096D01*
X86862027Y-52243260D01*
X86879950Y-52310147D01*
X86882894Y-52326325D01*
X86895472Y-52454042D01*
X86895573Y-52455130D01*
X86899117Y-52495621D01*
X86899500Y-52504390D01*
X86899500Y-55199500D01*
X86899500Y-55200000D01*
X86899500Y-55287532D01*
X86900260Y-55291845D01*
X86900261Y-55291850D01*
X86914668Y-55373561D01*
X86929899Y-55459938D01*
X86931397Y-55464054D01*
X86931399Y-55464061D01*
X86939621Y-55486650D01*
X86989775Y-55624445D01*
X87077308Y-55776055D01*
X87189837Y-55910163D01*
X87323945Y-56022692D01*
X87475555Y-56110225D01*
X87630132Y-56166486D01*
X87632462Y-56167335D01*
X87640062Y-56170101D01*
X87812468Y-56200500D01*
X87899901Y-56200500D01*
X87900000Y-56200500D01*
X87900500Y-56200500D01*
X149099500Y-56200500D01*
X149100099Y-56200500D01*
X149183145Y-56200500D01*
X149187532Y-56200500D01*
X149359938Y-56170101D01*
X149524445Y-56110225D01*
X149676055Y-56022692D01*
X149810163Y-55910163D01*
X149922692Y-55776055D01*
X150010225Y-55624445D01*
X150070101Y-55459938D01*
X150100500Y-55287532D01*
X150100500Y-55200000D01*
X150100500Y-55199500D01*
X150100500Y-52504390D01*
X150100883Y-52495624D01*
X150101370Y-52490053D01*
X150104440Y-52454964D01*
X150104508Y-52454229D01*
X150117107Y-52326303D01*
X150120042Y-52310174D01*
X150137994Y-52243177D01*
X150138860Y-52240145D01*
X150167164Y-52146840D01*
X150172248Y-52133550D01*
X150203977Y-52065508D01*
X150206368Y-52060726D01*
X150249680Y-51979695D01*
X150255976Y-51969447D01*
X150300144Y-51906368D01*
X150304767Y-51900274D01*
X150361918Y-51830635D01*
X150368510Y-51823362D01*
X150423362Y-51768510D01*
X150430635Y-51761918D01*
X150500274Y-51704767D01*
X150506372Y-51700142D01*
X150569447Y-51655976D01*
X150579695Y-51649680D01*
X150660726Y-51606368D01*
X150665508Y-51603977D01*
X150733550Y-51572248D01*
X150746840Y-51567164D01*
X150840145Y-51538860D01*
X150843177Y-51537994D01*
X150910174Y-51520042D01*
X150926303Y-51517107D01*
X151054229Y-51504508D01*
X151054964Y-51504440D01*
X151090053Y-51501370D01*
X151095624Y-51500883D01*
X151104390Y-51500500D01*
X158083145Y-51500500D01*
X158087532Y-51500500D01*
X158259938Y-51470101D01*
X158424445Y-51410225D01*
X158576055Y-51322692D01*
X158710163Y-51210163D01*
X158822692Y-51076055D01*
X158910225Y-50924445D01*
X158970101Y-50759938D01*
X159000500Y-50587532D01*
X159000500Y-50500000D01*
X159000500Y-50499500D01*
X159000500Y-50101100D01*
X159013978Y-50050800D01*
X159050800Y-50013978D01*
X159101100Y-50000500D01*
X165995610Y-50000500D01*
X166004376Y-50000883D01*
X166011103Y-50001471D01*
X166044991Y-50004436D01*
X166045800Y-50004511D01*
X166173691Y-50017107D01*
X166189829Y-50020044D01*
X166256789Y-50037985D01*
X166259887Y-50038870D01*
X166353149Y-50067161D01*
X166366458Y-50072252D01*
X166434461Y-50103963D01*
X166439302Y-50106383D01*
X166520289Y-50149671D01*
X166530560Y-50155982D01*
X166593626Y-50200142D01*
X166599744Y-50204783D01*
X166669342Y-50261900D01*
X166676657Y-50268530D01*
X166731468Y-50323341D01*
X166738098Y-50330656D01*
X166795215Y-50400254D01*
X166799856Y-50406372D01*
X166844016Y-50469438D01*
X166850331Y-50479717D01*
X166893598Y-50560663D01*
X166896052Y-50565571D01*
X166927744Y-50633536D01*
X166932837Y-50646849D01*
X166961123Y-50740096D01*
X166962027Y-50743260D01*
X166979950Y-50810147D01*
X166982894Y-50826325D01*
X166995472Y-50954042D01*
X166995573Y-50955130D01*
X166999117Y-50995621D01*
X166999500Y-51004393D01*
X166999500Y-57898900D01*
X166986022Y-57949200D01*
X166949200Y-57986022D01*
X166898900Y-57999500D01*
X166500500Y-57999500D01*
X166500000Y-57999500D01*
X166412468Y-57999500D01*
X166408155Y-58000260D01*
X166408149Y-58000261D01*
X166244380Y-58029137D01*
X166244373Y-58029138D01*
X166240062Y-58029899D01*
X166235948Y-58031396D01*
X166235938Y-58031399D01*
X166079686Y-58088271D01*
X166079681Y-58088272D01*
X166075555Y-58089775D01*
X166071752Y-58091970D01*
X166071747Y-58091973D01*
X165927751Y-58175110D01*
X165927746Y-58175113D01*
X165923945Y-58177308D01*
X165920582Y-58180129D01*
X165920576Y-58180134D01*
X165793205Y-58287010D01*
X165793199Y-58287015D01*
X165789837Y-58289837D01*
X165787015Y-58293199D01*
X165787010Y-58293205D01*
X165680134Y-58420576D01*
X165680129Y-58420582D01*
X165677308Y-58423945D01*
X165675113Y-58427746D01*
X165675110Y-58427751D01*
X165591973Y-58571747D01*
X165591970Y-58571752D01*
X165589775Y-58575555D01*
X165588272Y-58579681D01*
X165588271Y-58579686D01*
X165531399Y-58735938D01*
X165531396Y-58735948D01*
X165529899Y-58740062D01*
X165529138Y-58744373D01*
X165529137Y-58744380D01*
X165500261Y-58908149D01*
X165500260Y-58908155D01*
X165499500Y-58912468D01*
X165499500Y-58916855D01*
X165499500Y-65895607D01*
X165499117Y-65904379D01*
X165495573Y-65944868D01*
X165495472Y-65945956D01*
X165482894Y-66073673D01*
X165479950Y-66089851D01*
X165462027Y-66156738D01*
X165461123Y-66159902D01*
X165432837Y-66253149D01*
X165427744Y-66266462D01*
X165396052Y-66334427D01*
X165393598Y-66339335D01*
X165350331Y-66420281D01*
X165344016Y-66430560D01*
X165299856Y-66493626D01*
X165295215Y-66499744D01*
X165238098Y-66569342D01*
X165231468Y-66576657D01*
X165176657Y-66631468D01*
X165169342Y-66638098D01*
X165099744Y-66695215D01*
X165093626Y-66699856D01*
X165030560Y-66744016D01*
X165020281Y-66750331D01*
X164939335Y-66793598D01*
X164934427Y-66796052D01*
X164866462Y-66827744D01*
X164853149Y-66832837D01*
X164759902Y-66861123D01*
X164756738Y-66862027D01*
X164689851Y-66879950D01*
X164673673Y-66882894D01*
X164545956Y-66895472D01*
X164544868Y-66895573D01*
X164507511Y-66898842D01*
X164504376Y-66899117D01*
X164495607Y-66899500D01*
X161800500Y-66899500D01*
X161800000Y-66899500D01*
X161712468Y-66899500D01*
X161708155Y-66900260D01*
X161708149Y-66900261D01*
X161544380Y-66929137D01*
X161544373Y-66929138D01*
X161540062Y-66929899D01*
X161535948Y-66931396D01*
X161535938Y-66931399D01*
X161379686Y-66988271D01*
X161379681Y-66988272D01*
X161375555Y-66989775D01*
X161371752Y-66991970D01*
X161371747Y-66991973D01*
X161227751Y-67075110D01*
X161227746Y-67075113D01*
X161223945Y-67077308D01*
X161220582Y-67080129D01*
X161220576Y-67080134D01*
X161093205Y-67187010D01*
X161093199Y-67187015D01*
X161089837Y-67189837D01*
X161087015Y-67193199D01*
X161087010Y-67193205D01*
X160980134Y-67320576D01*
X160980129Y-67320582D01*
X160977308Y-67323945D01*
X160975113Y-67327746D01*
X160975110Y-67327751D01*
X160891973Y-67471747D01*
X160891970Y-67471752D01*
X160889775Y-67475555D01*
X160888272Y-67479681D01*
X160888271Y-67479686D01*
X160831399Y-67635938D01*
X160831396Y-67635948D01*
X160829899Y-67640062D01*
X160829138Y-67644373D01*
X160829137Y-67644380D01*
X160800261Y-67808149D01*
X160800260Y-67808155D01*
X160799500Y-67812468D01*
X160799500Y-67899901D01*
X160799500Y-129099500D01*
X160799500Y-129100000D01*
X160799500Y-129187532D01*
X160800260Y-129191845D01*
X160800261Y-129191850D01*
X160814668Y-129273561D01*
X160829899Y-129359938D01*
X160831397Y-129364054D01*
X160831399Y-129364061D01*
X160859712Y-129441849D01*
X160889775Y-129524445D01*
X160977308Y-129676055D01*
X161089837Y-129810163D01*
X161223945Y-129922692D01*
X161375555Y-130010225D01*
X161540062Y-130070101D01*
X161712468Y-130100500D01*
X161799901Y-130100500D01*
X161800000Y-130100500D01*
X161800500Y-130100500D01*
X164495610Y-130100500D01*
X164504376Y-130100883D01*
X164511103Y-130101471D01*
X164544991Y-130104436D01*
X164545800Y-130104511D01*
X164673691Y-130117107D01*
X164689829Y-130120044D01*
X164756789Y-130137985D01*
X164759887Y-130138870D01*
X164853149Y-130167161D01*
X164866458Y-130172252D01*
X164934461Y-130203963D01*
X164939302Y-130206383D01*
X165020289Y-130249671D01*
X165030560Y-130255982D01*
X165093626Y-130300142D01*
X165099744Y-130304783D01*
X165169342Y-130361900D01*
X165176657Y-130368530D01*
X165231468Y-130423341D01*
X165238098Y-130430656D01*
X165295215Y-130500254D01*
X165299856Y-130506372D01*
X165344016Y-130569438D01*
X165350331Y-130579717D01*
X165393598Y-130660663D01*
X165396052Y-130665571D01*
X165427744Y-130733536D01*
X165432837Y-130746849D01*
X165461123Y-130840096D01*
X165462027Y-130843260D01*
X165479950Y-130910147D01*
X165482894Y-130926325D01*
X165495472Y-131054042D01*
X165495573Y-131055130D01*
X165499117Y-131095621D01*
X165499500Y-131104390D01*
X165499500Y-137999500D01*
X165499500Y-138000000D01*
X165499500Y-138087532D01*
X165500260Y-138091845D01*
X165500261Y-138091850D01*
X165520423Y-138206200D01*
X165529899Y-138259938D01*
X165531397Y-138264054D01*
X165531399Y-138264061D01*
X165559712Y-138341849D01*
X165589775Y-138424445D01*
X165677308Y-138576055D01*
X165789837Y-138710163D01*
X165923945Y-138822692D01*
X166075555Y-138910225D01*
X166240062Y-138970101D01*
X166412468Y-139000500D01*
X166499901Y-139000500D01*
X166500000Y-139000500D01*
X166500500Y-139000500D01*
X166898900Y-139000500D01*
X166949200Y-139013978D01*
X166986022Y-139050800D01*
X166999500Y-139101100D01*
X166999500Y-145995607D01*
X166999117Y-146004379D01*
X166995573Y-146044868D01*
X166995472Y-146045956D01*
X166982894Y-146173673D01*
X166979950Y-146189851D01*
X166962027Y-146256738D01*
X166961123Y-146259902D01*
X166932837Y-146353149D01*
X166927744Y-146366462D01*
X166896052Y-146434427D01*
X166893598Y-146439335D01*
X166850331Y-146520281D01*
X166844016Y-146530560D01*
X166799856Y-146593626D01*
X166795215Y-146599744D01*
X166738098Y-146669342D01*
X166731468Y-146676657D01*
X166676657Y-146731468D01*
X166669342Y-146738098D01*
X166599744Y-146795215D01*
X166593626Y-146799856D01*
X166530560Y-146844016D01*
X166520281Y-146850331D01*
X166439335Y-146893598D01*
X166434427Y-146896052D01*
X166366462Y-146927744D01*
X166353149Y-146932837D01*
X166259902Y-146961123D01*
X166256738Y-146962027D01*
X166189851Y-146979950D01*
X166173673Y-146982894D01*
X166045956Y-146995472D01*
X166044868Y-146995573D01*
X166007511Y-146998842D01*
X166004376Y-146999117D01*
X165995607Y-146999500D01*
X159101100Y-146999500D01*
X159050800Y-146986022D01*
X159013978Y-146949200D01*
X159000500Y-146898900D01*
X159000500Y-146416855D01*
X159000500Y-146412468D01*
X158970101Y-146240062D01*
X158910225Y-146075555D01*
X158822692Y-145923945D01*
X158710163Y-145789837D01*
X158644022Y-145734339D01*
X158579423Y-145680134D01*
X158579422Y-145680133D01*
X158576055Y-145677308D01*
X158424445Y-145589775D01*
X158420313Y-145588271D01*
X158264061Y-145531399D01*
X158264054Y-145531397D01*
X158259938Y-145529899D01*
X158255624Y-145529138D01*
X158255619Y-145529137D01*
X158091850Y-145500261D01*
X158091845Y-145500260D01*
X158087532Y-145499500D01*
X158083145Y-145499500D01*
X151104393Y-145499500D01*
X151095623Y-145499117D01*
X151092099Y-145498808D01*
X151055130Y-145495573D01*
X151054042Y-145495472D01*
X150926325Y-145482894D01*
X150910151Y-145479950D01*
X150873391Y-145470101D01*
X150843260Y-145462027D01*
X150840096Y-145461123D01*
X150746849Y-145432837D01*
X150733536Y-145427744D01*
X150665571Y-145396052D01*
X150660663Y-145393598D01*
X150647664Y-145386650D01*
X150629056Y-145376703D01*
X150579717Y-145350331D01*
X150569438Y-145344016D01*
X150506372Y-145299856D01*
X150500254Y-145295215D01*
X150430656Y-145238098D01*
X150423341Y-145231468D01*
X150368530Y-145176657D01*
X150361900Y-145169342D01*
X150304783Y-145099744D01*
X150300142Y-145093626D01*
X150255982Y-145030560D01*
X150249671Y-145020289D01*
X150206383Y-144939302D01*
X150203963Y-144934461D01*
X150172252Y-144866458D01*
X150167161Y-144853149D01*
X150138875Y-144759902D01*
X150137985Y-144756788D01*
X150120044Y-144689829D01*
X150117107Y-144673691D01*
X150104511Y-144545800D01*
X150104436Y-144544991D01*
X150100883Y-144504376D01*
X150100500Y-144495610D01*
X150100500Y-141716855D01*
X150100500Y-141712468D01*
X150070101Y-141540062D01*
X150010225Y-141375555D01*
X149922692Y-141223945D01*
X149810163Y-141089837D01*
X149748161Y-141037812D01*
X149679423Y-140980134D01*
X149679422Y-140980133D01*
X149676055Y-140977308D01*
X149524445Y-140889775D01*
X149475535Y-140871973D01*
X149364061Y-140831399D01*
X149364054Y-140831397D01*
X149359938Y-140829899D01*
X149355624Y-140829138D01*
X149355619Y-140829137D01*
X149191850Y-140800261D01*
X149191845Y-140800260D01*
X149187532Y-140799500D01*
X149100099Y-140799500D01*
X87900500Y-140799500D01*
X87900000Y-140799500D01*
X87812468Y-140799500D01*
X87808155Y-140800260D01*
X87808149Y-140800261D01*
X87644380Y-140829137D01*
X87644373Y-140829138D01*
X87640062Y-140829899D01*
X87635948Y-140831396D01*
X87635938Y-140831399D01*
X87479686Y-140888271D01*
X87479681Y-140888272D01*
X87475555Y-140889775D01*
X87471752Y-140891970D01*
X87471747Y-140891973D01*
X87327751Y-140975110D01*
X87327746Y-140975113D01*
X87323945Y-140977308D01*
X87320582Y-140980129D01*
X87320576Y-140980134D01*
X87193205Y-141087010D01*
X87193199Y-141087015D01*
X87189837Y-141089837D01*
X87187015Y-141093199D01*
X87187010Y-141093205D01*
X87080134Y-141220576D01*
X87080129Y-141220582D01*
X87077308Y-141223945D01*
X87075113Y-141227746D01*
X87075110Y-141227751D01*
X86991973Y-141371747D01*
X86991970Y-141371752D01*
X86989775Y-141375555D01*
X86988272Y-141379681D01*
X86988271Y-141379686D01*
X86931399Y-141535938D01*
X86931396Y-141535948D01*
X86929899Y-141540062D01*
X86929138Y-141544373D01*
X86929137Y-141544380D01*
X86900261Y-141708149D01*
X86900260Y-141708155D01*
X86899500Y-141712468D01*
X86899500Y-141716855D01*
X86899500Y-144495607D01*
X86899117Y-144504379D01*
X86895573Y-144544868D01*
X86895472Y-144545956D01*
X86882894Y-144673673D01*
X86879950Y-144689851D01*
X86862027Y-144756738D01*
X86861123Y-144759902D01*
X86832837Y-144853149D01*
X86827744Y-144866462D01*
X86796052Y-144934427D01*
X86793598Y-144939335D01*
X86750331Y-145020281D01*
X86744016Y-145030560D01*
X86699856Y-145093626D01*
X86695215Y-145099744D01*
X86638098Y-145169342D01*
X86631468Y-145176657D01*
X86576657Y-145231468D01*
X86569342Y-145238098D01*
X86499744Y-145295215D01*
X86493626Y-145299856D01*
X86430560Y-145344016D01*
X86420281Y-145350331D01*
X86339335Y-145393598D01*
X86334427Y-145396052D01*
X86266462Y-145427744D01*
X86253149Y-145432837D01*
X86159902Y-145461123D01*
X86156738Y-145462027D01*
X86089851Y-145479950D01*
X86073673Y-145482894D01*
X85945956Y-145495472D01*
X85944868Y-145495573D01*
X85907511Y-145498842D01*
X85904376Y-145499117D01*
X85895607Y-145499500D01*
X79000500Y-145499500D01*
X79000000Y-145499500D01*
X78912468Y-145499500D01*
X78908155Y-145500260D01*
X78908149Y-145500261D01*
X78744380Y-145529137D01*
X78744373Y-145529138D01*
X78740062Y-145529899D01*
X78735948Y-145531396D01*
X78735938Y-145531399D01*
X78579686Y-145588271D01*
X78579681Y-145588272D01*
X78575555Y-145589775D01*
X78571752Y-145591970D01*
X78571747Y-145591973D01*
X78427751Y-145675110D01*
X78427746Y-145675113D01*
X78423945Y-145677308D01*
X78420582Y-145680129D01*
X78420576Y-145680134D01*
X78293205Y-145787010D01*
X78293199Y-145787015D01*
X78289837Y-145789837D01*
X78287015Y-145793199D01*
X78287010Y-145793205D01*
X78180134Y-145920576D01*
X78180129Y-145920582D01*
X78177308Y-145923945D01*
X78175113Y-145927746D01*
X78175110Y-145927751D01*
X78091973Y-146071747D01*
X78091970Y-146071752D01*
X78089775Y-146075555D01*
X78088272Y-146079681D01*
X78088271Y-146079686D01*
X78031399Y-146235938D01*
X78031396Y-146235948D01*
X78029899Y-146240062D01*
X78029138Y-146244373D01*
X78029137Y-146244380D01*
X78000261Y-146408149D01*
X78000260Y-146408155D01*
X77999500Y-146412468D01*
X77999500Y-146416855D01*
X77999500Y-146898900D01*
X77986022Y-146949200D01*
X77949200Y-146986022D01*
X77898900Y-146999500D01*
X71004393Y-146999500D01*
X70995623Y-146999117D01*
X70992099Y-146998808D01*
X70955130Y-146995573D01*
X70954042Y-146995472D01*
X70826325Y-146982894D01*
X70810151Y-146979950D01*
X70773391Y-146970101D01*
X70743260Y-146962027D01*
X70740096Y-146961123D01*
X70646849Y-146932837D01*
X70633536Y-146927744D01*
X70565571Y-146896052D01*
X70560663Y-146893598D01*
X70479717Y-146850331D01*
X70469438Y-146844016D01*
X70406372Y-146799856D01*
X70400254Y-146795215D01*
X70330656Y-146738098D01*
X70323341Y-146731468D01*
X70268530Y-146676657D01*
X70261900Y-146669342D01*
X70204783Y-146599744D01*
X70200142Y-146593626D01*
X70155982Y-146530560D01*
X70149671Y-146520289D01*
X70106383Y-146439302D01*
X70103963Y-146434461D01*
X70072252Y-146366458D01*
X70067161Y-146353149D01*
X70038875Y-146259902D01*
X70037985Y-146256788D01*
X70020044Y-146189829D01*
X70017107Y-146173691D01*
X70004511Y-146045800D01*
X70004436Y-146044991D01*
X70000883Y-146004376D01*
X70000500Y-145995610D01*
X70000500Y-143450000D01*
X70540408Y-143450000D01*
X70560758Y-143799392D01*
X70621532Y-144144060D01*
X70721909Y-144479341D01*
X70723059Y-144482007D01*
X70723063Y-144482018D01*
X70805687Y-144673561D01*
X70860530Y-144800702D01*
X70940551Y-144939302D01*
X71019505Y-145076055D01*
X71035523Y-145103798D01*
X71037270Y-145106145D01*
X71037271Y-145106146D01*
X71230421Y-145365592D01*
X71244519Y-145384528D01*
X71484693Y-145639098D01*
X71486929Y-145640974D01*
X71486933Y-145640978D01*
X71598196Y-145734339D01*
X71752796Y-145864064D01*
X72045204Y-146056383D01*
X72357962Y-146213456D01*
X72686839Y-146333158D01*
X73027390Y-146413870D01*
X73375008Y-146454500D01*
X73722065Y-146454500D01*
X73724992Y-146454500D01*
X74072610Y-146413870D01*
X74413161Y-146333158D01*
X74742038Y-146213456D01*
X75054796Y-146056383D01*
X75347204Y-145864064D01*
X75615307Y-145639098D01*
X75855481Y-145384528D01*
X76064477Y-145103798D01*
X76239470Y-144800702D01*
X76378091Y-144479341D01*
X76478468Y-144144060D01*
X76539242Y-143799392D01*
X76559592Y-143450000D01*
X76539242Y-143100608D01*
X76478468Y-142755940D01*
X76378091Y-142420659D01*
X76239470Y-142099298D01*
X76064477Y-141796202D01*
X75855481Y-141515472D01*
X75615307Y-141260902D01*
X75613071Y-141259026D01*
X75613066Y-141259021D01*
X75349440Y-141037812D01*
X75349437Y-141037810D01*
X75347204Y-141035936D01*
X75054796Y-140843617D01*
X74742038Y-140686544D01*
X74413161Y-140566842D01*
X74410319Y-140566168D01*
X74410311Y-140566166D01*
X74075461Y-140486805D01*
X74075449Y-140486802D01*
X74072610Y-140486130D01*
X74069706Y-140485790D01*
X74069703Y-140485790D01*
X73727897Y-140445839D01*
X73727887Y-140445838D01*
X73724992Y-140445500D01*
X73375008Y-140445500D01*
X73372113Y-140445838D01*
X73372102Y-140445839D01*
X73030296Y-140485790D01*
X73030290Y-140485791D01*
X73027390Y-140486130D01*
X73024553Y-140486802D01*
X73024538Y-140486805D01*
X72689688Y-140566166D01*
X72689675Y-140566169D01*
X72686839Y-140566842D01*
X72684092Y-140567841D01*
X72684088Y-140567843D01*
X72360708Y-140685544D01*
X72360700Y-140685547D01*
X72357962Y-140686544D01*
X72355351Y-140687855D01*
X72355347Y-140687857D01*
X72069532Y-140831399D01*
X72045204Y-140843617D01*
X72042757Y-140845226D01*
X72042749Y-140845231D01*
X71755240Y-141034328D01*
X71755233Y-141034332D01*
X71752796Y-141035936D01*
X71750570Y-141037803D01*
X71750559Y-141037812D01*
X71486933Y-141259021D01*
X71486919Y-141259033D01*
X71484693Y-141260902D01*
X71482688Y-141263027D01*
X71482685Y-141263030D01*
X71246521Y-141513349D01*
X71246513Y-141513358D01*
X71244519Y-141515472D01*
X71242784Y-141517802D01*
X71242776Y-141517812D01*
X71037271Y-141793853D01*
X71037265Y-141793861D01*
X71035523Y-141796202D01*
X71034062Y-141798731D01*
X71034057Y-141798740D01*
X70861990Y-142096769D01*
X70860530Y-142099298D01*
X70859376Y-142101971D01*
X70859374Y-142101977D01*
X70723063Y-142417981D01*
X70723056Y-142417998D01*
X70721909Y-142420659D01*
X70621532Y-142755940D01*
X70560758Y-143100608D01*
X70540408Y-143450000D01*
X70000500Y-143450000D01*
X70000500Y-139101100D01*
X70013978Y-139050800D01*
X70050800Y-139013978D01*
X70101100Y-139000500D01*
X70583145Y-139000500D01*
X70587532Y-139000500D01*
X70759938Y-138970101D01*
X70924445Y-138910225D01*
X71076055Y-138822692D01*
X71210163Y-138710163D01*
X71322692Y-138576055D01*
X71363716Y-138505000D01*
X158954746Y-138505000D01*
X158973744Y-138806960D01*
X158974334Y-138810054D01*
X158974336Y-138810068D01*
X159029844Y-139101051D01*
X159029845Y-139101058D01*
X159030437Y-139104157D01*
X159031413Y-139107163D01*
X159031414Y-139107164D01*
X159122954Y-139388898D01*
X159122957Y-139388907D01*
X159123932Y-139391906D01*
X159252755Y-139665667D01*
X159414873Y-139921124D01*
X159607729Y-140154248D01*
X159610037Y-140156415D01*
X159825980Y-140359199D01*
X159825985Y-140359203D01*
X159828284Y-140361362D01*
X159944090Y-140445500D01*
X160070499Y-140537342D01*
X160070504Y-140537345D01*
X160073057Y-140539200D01*
X160338190Y-140684958D01*
X160619500Y-140796337D01*
X160856305Y-140857137D01*
X160870479Y-140860777D01*
X160912551Y-140871579D01*
X161212722Y-140909500D01*
X161512112Y-140909500D01*
X161515278Y-140909500D01*
X161518416Y-140909103D01*
X161521573Y-140908905D01*
X161521664Y-140910365D01*
X161565883Y-140916071D01*
X161606854Y-140946755D01*
X161627423Y-140993627D01*
X161622264Y-141044554D01*
X161592714Y-141086350D01*
X161386933Y-141259021D01*
X161386919Y-141259033D01*
X161384693Y-141260902D01*
X161382688Y-141263027D01*
X161382685Y-141263030D01*
X161146521Y-141513349D01*
X161146513Y-141513358D01*
X161144519Y-141515472D01*
X161142784Y-141517802D01*
X161142776Y-141517812D01*
X160937271Y-141793853D01*
X160937265Y-141793861D01*
X160935523Y-141796202D01*
X160934062Y-141798731D01*
X160934057Y-141798740D01*
X160761990Y-142096769D01*
X160760530Y-142099298D01*
X160759376Y-142101971D01*
X160759374Y-142101977D01*
X160623063Y-142417981D01*
X160623056Y-142417998D01*
X160621909Y-142420659D01*
X160521532Y-142755940D01*
X160460758Y-143100608D01*
X160440408Y-143450000D01*
X160460758Y-143799392D01*
X160521532Y-144144060D01*
X160621909Y-144479341D01*
X160623059Y-144482007D01*
X160623063Y-144482018D01*
X160705687Y-144673561D01*
X160760530Y-144800702D01*
X160840551Y-144939302D01*
X160919505Y-145076055D01*
X160935523Y-145103798D01*
X160937270Y-145106145D01*
X160937271Y-145106146D01*
X161130421Y-145365592D01*
X161144519Y-145384528D01*
X161384693Y-145639098D01*
X161386929Y-145640974D01*
X161386933Y-145640978D01*
X161498196Y-145734339D01*
X161652796Y-145864064D01*
X161945204Y-146056383D01*
X162257962Y-146213456D01*
X162586839Y-146333158D01*
X162927390Y-146413870D01*
X163275008Y-146454500D01*
X163622065Y-146454500D01*
X163624992Y-146454500D01*
X163972610Y-146413870D01*
X164313161Y-146333158D01*
X164642038Y-146213456D01*
X164954796Y-146056383D01*
X165247204Y-145864064D01*
X165515307Y-145639098D01*
X165755481Y-145384528D01*
X165964477Y-145103798D01*
X166139470Y-144800702D01*
X166278091Y-144479341D01*
X166378468Y-144144060D01*
X166439242Y-143799392D01*
X166459592Y-143450000D01*
X166439242Y-143100608D01*
X166378468Y-142755940D01*
X166278091Y-142420659D01*
X166139470Y-142099298D01*
X165964477Y-141796202D01*
X165755481Y-141515472D01*
X165515307Y-141260902D01*
X165513071Y-141259026D01*
X165513066Y-141259021D01*
X165249440Y-141037812D01*
X165249437Y-141037810D01*
X165247204Y-141035936D01*
X164954796Y-140843617D01*
X164642038Y-140686544D01*
X164313161Y-140566842D01*
X164310319Y-140566168D01*
X164310311Y-140566166D01*
X163975461Y-140486805D01*
X163975449Y-140486802D01*
X163972610Y-140486130D01*
X163969706Y-140485790D01*
X163969703Y-140485790D01*
X163627897Y-140445839D01*
X163627887Y-140445838D01*
X163624992Y-140445500D01*
X163275008Y-140445500D01*
X163272113Y-140445838D01*
X163272102Y-140445839D01*
X163046748Y-140472179D01*
X162985990Y-140460075D01*
X162943845Y-140414668D01*
X162936295Y-140353178D01*
X162966201Y-140298927D01*
X163120271Y-140154248D01*
X163313127Y-139921124D01*
X163475245Y-139665667D01*
X163604068Y-139391906D01*
X163697563Y-139104157D01*
X163754256Y-138806960D01*
X163773254Y-138505000D01*
X163754256Y-138203040D01*
X163697563Y-137905843D01*
X163604068Y-137618094D01*
X163475245Y-137344333D01*
X163313127Y-137088876D01*
X163120271Y-136855752D01*
X162987129Y-136730724D01*
X162902019Y-136650800D01*
X162902013Y-136650795D01*
X162899716Y-136648638D01*
X162827346Y-136596058D01*
X162657500Y-136472657D01*
X162657491Y-136472651D01*
X162654943Y-136470800D01*
X162652176Y-136469278D01*
X162652170Y-136469275D01*
X162392591Y-136326571D01*
X162392592Y-136326571D01*
X162389810Y-136325042D01*
X162386860Y-136323874D01*
X162386858Y-136323873D01*
X162111448Y-136214830D01*
X162111445Y-136214829D01*
X162108500Y-136213663D01*
X162105440Y-136212877D01*
X162105436Y-136212876D01*
X161818498Y-136139203D01*
X161818485Y-136139200D01*
X161815449Y-136138421D01*
X161812327Y-136138026D01*
X161812324Y-136138026D01*
X161518416Y-136100896D01*
X161518409Y-136100895D01*
X161515278Y-136100500D01*
X161212722Y-136100500D01*
X161209591Y-136100895D01*
X161209583Y-136100896D01*
X160915675Y-136138026D01*
X160915669Y-136138027D01*
X160912551Y-136138421D01*
X160909517Y-136139199D01*
X160909501Y-136139203D01*
X160622563Y-136212876D01*
X160622554Y-136212878D01*
X160619500Y-136213663D01*
X160616559Y-136214827D01*
X160616551Y-136214830D01*
X160341141Y-136323873D01*
X160341132Y-136323876D01*
X160338190Y-136325042D01*
X160335413Y-136326568D01*
X160335408Y-136326571D01*
X160075829Y-136469275D01*
X160075816Y-136469283D01*
X160073057Y-136470800D01*
X160070515Y-136472646D01*
X160070499Y-136472657D01*
X159830838Y-136646782D01*
X159830833Y-136646785D01*
X159828284Y-136648638D01*
X159825994Y-136650788D01*
X159825980Y-136650800D01*
X159610037Y-136853584D01*
X159610031Y-136853589D01*
X159607729Y-136855752D01*
X159605718Y-136858182D01*
X159605715Y-136858186D01*
X159437455Y-137061579D01*
X159414873Y-137088876D01*
X159413181Y-137091541D01*
X159413176Y-137091549D01*
X159254455Y-137341653D01*
X159254449Y-137341662D01*
X159252755Y-137344333D01*
X159251407Y-137347197D01*
X159251404Y-137347203D01*
X159125278Y-137615232D01*
X159125273Y-137615242D01*
X159123932Y-137618094D01*
X159122959Y-137621087D01*
X159122954Y-137621101D01*
X159031414Y-137902835D01*
X159030437Y-137905843D01*
X159029846Y-137908937D01*
X159029844Y-137908948D01*
X158974336Y-138199931D01*
X158974333Y-138199947D01*
X158973744Y-138203040D01*
X158954746Y-138505000D01*
X71363716Y-138505000D01*
X71410225Y-138424445D01*
X71470101Y-138259938D01*
X71500500Y-138087532D01*
X71500500Y-138000000D01*
X71500500Y-137999500D01*
X71500500Y-134695000D01*
X73229746Y-134695000D01*
X73248744Y-134996960D01*
X73249334Y-135000054D01*
X73249336Y-135000068D01*
X73304844Y-135291051D01*
X73304845Y-135291058D01*
X73305437Y-135294157D01*
X73306413Y-135297163D01*
X73306414Y-135297164D01*
X73397954Y-135578898D01*
X73397957Y-135578907D01*
X73398932Y-135581906D01*
X73527755Y-135855667D01*
X73689873Y-136111124D01*
X73882729Y-136344248D01*
X73885037Y-136346415D01*
X74100980Y-136549199D01*
X74100985Y-136549203D01*
X74103284Y-136551362D01*
X74234618Y-136646782D01*
X74345499Y-136727342D01*
X74345504Y-136727345D01*
X74348057Y-136729200D01*
X74613190Y-136874958D01*
X74894500Y-136986337D01*
X75187551Y-137061579D01*
X75487722Y-137099500D01*
X75787112Y-137099500D01*
X75790278Y-137099500D01*
X76090449Y-137061579D01*
X76383500Y-136986337D01*
X76664810Y-136874958D01*
X76929943Y-136729200D01*
X77174716Y-136551362D01*
X77395271Y-136344248D01*
X77588127Y-136111124D01*
X77750245Y-135855667D01*
X77879068Y-135581906D01*
X77972563Y-135294157D01*
X78029256Y-134996960D01*
X78048254Y-134695000D01*
X78029256Y-134393040D01*
X77972563Y-134095843D01*
X77879068Y-133808094D01*
X77750245Y-133534333D01*
X77588127Y-133278876D01*
X77395271Y-133045752D01*
X77327133Y-132981766D01*
X77177019Y-132840800D01*
X77177013Y-132840795D01*
X77174716Y-132838638D01*
X77102346Y-132786058D01*
X76932500Y-132662657D01*
X76932491Y-132662651D01*
X76929943Y-132660800D01*
X76927176Y-132659278D01*
X76927170Y-132659275D01*
X76667591Y-132516571D01*
X76667592Y-132516571D01*
X76664810Y-132515042D01*
X76661860Y-132513874D01*
X76661858Y-132513873D01*
X76386448Y-132404830D01*
X76386445Y-132404829D01*
X76383500Y-132403663D01*
X76380440Y-132402877D01*
X76380436Y-132402876D01*
X76093498Y-132329203D01*
X76093485Y-132329200D01*
X76090449Y-132328421D01*
X76087327Y-132328026D01*
X76087324Y-132328026D01*
X75793416Y-132290896D01*
X75793409Y-132290895D01*
X75790278Y-132290500D01*
X75487722Y-132290500D01*
X75484591Y-132290895D01*
X75484583Y-132290896D01*
X75190675Y-132328026D01*
X75190669Y-132328027D01*
X75187551Y-132328421D01*
X75184517Y-132329199D01*
X75184501Y-132329203D01*
X74897563Y-132402876D01*
X74897554Y-132402878D01*
X74894500Y-132403663D01*
X74891559Y-132404827D01*
X74891551Y-132404830D01*
X74616141Y-132513873D01*
X74616132Y-132513876D01*
X74613190Y-132515042D01*
X74610413Y-132516568D01*
X74610408Y-132516571D01*
X74350829Y-132659275D01*
X74350816Y-132659283D01*
X74348057Y-132660800D01*
X74345515Y-132662646D01*
X74345499Y-132662657D01*
X74105838Y-132836782D01*
X74105833Y-132836785D01*
X74103284Y-132838638D01*
X74100994Y-132840788D01*
X74100980Y-132840800D01*
X73885037Y-133043584D01*
X73885031Y-133043589D01*
X73882729Y-133045752D01*
X73689873Y-133278876D01*
X73688181Y-133281541D01*
X73688176Y-133281549D01*
X73529455Y-133531653D01*
X73529449Y-133531662D01*
X73527755Y-133534333D01*
X73526407Y-133537197D01*
X73526404Y-133537203D01*
X73400278Y-133805232D01*
X73400273Y-133805242D01*
X73398932Y-133808094D01*
X73397959Y-133811087D01*
X73397954Y-133811101D01*
X73306414Y-134092835D01*
X73305437Y-134095843D01*
X73304846Y-134098937D01*
X73304844Y-134098948D01*
X73249336Y-134389931D01*
X73249333Y-134389947D01*
X73248744Y-134393040D01*
X73229746Y-134695000D01*
X71500500Y-134695000D01*
X71500500Y-131104390D01*
X71500883Y-131095624D01*
X71501370Y-131090053D01*
X71504440Y-131054964D01*
X71504508Y-131054229D01*
X71517107Y-130926303D01*
X71520042Y-130910174D01*
X71537994Y-130843177D01*
X71538860Y-130840145D01*
X71567164Y-130746840D01*
X71572248Y-130733550D01*
X71603977Y-130665508D01*
X71606368Y-130660726D01*
X71649680Y-130579695D01*
X71655976Y-130569447D01*
X71700144Y-130506368D01*
X71704767Y-130500274D01*
X71761918Y-130430635D01*
X71768510Y-130423362D01*
X71823362Y-130368510D01*
X71830635Y-130361918D01*
X71900274Y-130304767D01*
X71906372Y-130300142D01*
X71969447Y-130255976D01*
X71979695Y-130249680D01*
X72060726Y-130206368D01*
X72065508Y-130203977D01*
X72133550Y-130172248D01*
X72146840Y-130167164D01*
X72240145Y-130138860D01*
X72243177Y-130137994D01*
X72310174Y-130120042D01*
X72326303Y-130117107D01*
X72454229Y-130104508D01*
X72454964Y-130104440D01*
X72490053Y-130101370D01*
X72495624Y-130100883D01*
X72504390Y-130100500D01*
X75283145Y-130100500D01*
X75287532Y-130100500D01*
X75459938Y-130070101D01*
X75624445Y-130010225D01*
X75776055Y-129922692D01*
X75910163Y-129810163D01*
X76022692Y-129676055D01*
X76110225Y-129524445D01*
X76170101Y-129359938D01*
X76200500Y-129187532D01*
X76200500Y-129100000D01*
X76200500Y-129099500D01*
X76200500Y-102620078D01*
X115046001Y-102620078D01*
X115046964Y-102629861D01*
X115058803Y-102689386D01*
X115066242Y-102707344D01*
X115111370Y-102774884D01*
X115125115Y-102788629D01*
X115192656Y-102833758D01*
X115210610Y-102841195D01*
X115270130Y-102853034D01*
X115279930Y-102854000D01*
X116032756Y-102854000D01*
X116043201Y-102851201D01*
X116046000Y-102840756D01*
X116046000Y-102840755D01*
X116554000Y-102840755D01*
X116556798Y-102851200D01*
X116567244Y-102853999D01*
X117320078Y-102853999D01*
X117329861Y-102853035D01*
X117389386Y-102841196D01*
X117407344Y-102833757D01*
X117474884Y-102788629D01*
X117488629Y-102774884D01*
X117533758Y-102707343D01*
X117541195Y-102689389D01*
X117553034Y-102629869D01*
X117553999Y-102620078D01*
X120046001Y-102620078D01*
X120046964Y-102629861D01*
X120058803Y-102689386D01*
X120066242Y-102707344D01*
X120111370Y-102774884D01*
X120125115Y-102788629D01*
X120192656Y-102833758D01*
X120210610Y-102841195D01*
X120270130Y-102853034D01*
X120279930Y-102854000D01*
X121032756Y-102854000D01*
X121043201Y-102851201D01*
X121046000Y-102840756D01*
X121046000Y-102840755D01*
X121554000Y-102840755D01*
X121556798Y-102851200D01*
X121567244Y-102853999D01*
X122320078Y-102853999D01*
X122329861Y-102853035D01*
X122389386Y-102841196D01*
X122407344Y-102833757D01*
X122474884Y-102788629D01*
X122488629Y-102774884D01*
X122533758Y-102707343D01*
X122541195Y-102689389D01*
X122553034Y-102629869D01*
X122554000Y-102620070D01*
X122554000Y-101867244D01*
X122551201Y-101856798D01*
X122540756Y-101854000D01*
X121567244Y-101854000D01*
X121556798Y-101856798D01*
X121554000Y-101867244D01*
X121554000Y-102840755D01*
X121046000Y-102840755D01*
X121046000Y-101867244D01*
X121043201Y-101856798D01*
X121032756Y-101854000D01*
X120059245Y-101854000D01*
X120048799Y-101856798D01*
X120046001Y-101867244D01*
X120046001Y-102620078D01*
X117553999Y-102620078D01*
X117554000Y-102620070D01*
X117554000Y-101867244D01*
X117551201Y-101856798D01*
X117540756Y-101854000D01*
X116567244Y-101854000D01*
X116556798Y-101856798D01*
X116554000Y-101867244D01*
X116554000Y-102840755D01*
X116046000Y-102840755D01*
X116046000Y-101867244D01*
X116043201Y-101856798D01*
X116032756Y-101854000D01*
X115059245Y-101854000D01*
X115048799Y-101856798D01*
X115046001Y-101867244D01*
X115046001Y-102620078D01*
X76200500Y-102620078D01*
X76200500Y-101332756D01*
X115046000Y-101332756D01*
X115048798Y-101343201D01*
X115059244Y-101346000D01*
X116032756Y-101346000D01*
X116043201Y-101343201D01*
X116046000Y-101332756D01*
X116554000Y-101332756D01*
X116556798Y-101343201D01*
X116567244Y-101346000D01*
X117540755Y-101346000D01*
X117551200Y-101343201D01*
X117553999Y-101332756D01*
X120046000Y-101332756D01*
X120048798Y-101343201D01*
X120059244Y-101346000D01*
X121032756Y-101346000D01*
X121043201Y-101343201D01*
X121046000Y-101332756D01*
X121554000Y-101332756D01*
X121556798Y-101343201D01*
X121567244Y-101346000D01*
X122540755Y-101346000D01*
X122551200Y-101343201D01*
X122553999Y-101332756D01*
X122553999Y-100579922D01*
X122553035Y-100570138D01*
X122541196Y-100510613D01*
X122533757Y-100492655D01*
X122488629Y-100425115D01*
X122474884Y-100411370D01*
X122407343Y-100366241D01*
X122389389Y-100358804D01*
X122329869Y-100346965D01*
X122320070Y-100346000D01*
X121567244Y-100346000D01*
X121556798Y-100348798D01*
X121554000Y-100359244D01*
X121554000Y-101332756D01*
X121046000Y-101332756D01*
X121046000Y-100359245D01*
X121043201Y-100348799D01*
X121032756Y-100346001D01*
X120279922Y-100346001D01*
X120270138Y-100346964D01*
X120210613Y-100358803D01*
X120192655Y-100366242D01*
X120125115Y-100411370D01*
X120111370Y-100425115D01*
X120066241Y-100492656D01*
X120058804Y-100510610D01*
X120046965Y-100570130D01*
X120046000Y-100579930D01*
X120046000Y-101332756D01*
X117553999Y-101332756D01*
X117553999Y-100579922D01*
X117553035Y-100570138D01*
X117541196Y-100510613D01*
X117533757Y-100492655D01*
X117488629Y-100425115D01*
X117474884Y-100411370D01*
X117407343Y-100366241D01*
X117389389Y-100358804D01*
X117329869Y-100346965D01*
X117320070Y-100346000D01*
X116567244Y-100346000D01*
X116556798Y-100348798D01*
X116554000Y-100359244D01*
X116554000Y-101332756D01*
X116046000Y-101332756D01*
X116046000Y-100359245D01*
X116043201Y-100348799D01*
X116032756Y-100346001D01*
X115279922Y-100346001D01*
X115270138Y-100346964D01*
X115210613Y-100358803D01*
X115192655Y-100366242D01*
X115125115Y-100411370D01*
X115111370Y-100425115D01*
X115066241Y-100492656D01*
X115058804Y-100510610D01*
X115046965Y-100570130D01*
X115046000Y-100579930D01*
X115046000Y-101332756D01*
X76200500Y-101332756D01*
X76200500Y-96520137D01*
X115045500Y-96520137D01*
X115045501Y-96525066D01*
X115046463Y-96529904D01*
X115046464Y-96529911D01*
X115058333Y-96589582D01*
X115060266Y-96599301D01*
X115116516Y-96683484D01*
X115200699Y-96739734D01*
X115274933Y-96754500D01*
X117325066Y-96754499D01*
X117399301Y-96739734D01*
X117483484Y-96683484D01*
X117539734Y-96599301D01*
X117554500Y-96525067D01*
X117554500Y-96520137D01*
X120145500Y-96520137D01*
X120145501Y-96525066D01*
X120146463Y-96529904D01*
X120146464Y-96529911D01*
X120158333Y-96589582D01*
X120160266Y-96599301D01*
X120216516Y-96683484D01*
X120300699Y-96739734D01*
X120374933Y-96754500D01*
X122425066Y-96754499D01*
X122499301Y-96739734D01*
X122583484Y-96683484D01*
X122639734Y-96599301D01*
X122654500Y-96525067D01*
X122654499Y-94474934D01*
X122639734Y-94400699D01*
X122583484Y-94316516D01*
X122575247Y-94311012D01*
X122507539Y-94265770D01*
X122507536Y-94265769D01*
X122499301Y-94260266D01*
X122489585Y-94258333D01*
X122489582Y-94258332D01*
X122429918Y-94246465D01*
X122425067Y-94245500D01*
X122420120Y-94245500D01*
X120379872Y-94245500D01*
X120379861Y-94245500D01*
X120374934Y-94245501D01*
X120370096Y-94246463D01*
X120370088Y-94246464D01*
X120310416Y-94258333D01*
X120310414Y-94258333D01*
X120300699Y-94260266D01*
X120292463Y-94265768D01*
X120292463Y-94265769D01*
X120224752Y-94311012D01*
X120224749Y-94311014D01*
X120216516Y-94316516D01*
X120211014Y-94324749D01*
X120211012Y-94324752D01*
X120165770Y-94392460D01*
X120165769Y-94392463D01*
X120160266Y-94400699D01*
X120158333Y-94410412D01*
X120158332Y-94410417D01*
X120146465Y-94470081D01*
X120145500Y-94474933D01*
X120145500Y-94479878D01*
X120145500Y-94479879D01*
X120145500Y-96520127D01*
X120145500Y-96520137D01*
X117554500Y-96520137D01*
X117554499Y-94474934D01*
X117539734Y-94400699D01*
X117483484Y-94316516D01*
X117475247Y-94311012D01*
X117407539Y-94265770D01*
X117407536Y-94265769D01*
X117399301Y-94260266D01*
X117389585Y-94258333D01*
X117389582Y-94258332D01*
X117329918Y-94246465D01*
X117325067Y-94245500D01*
X117320120Y-94245500D01*
X115279872Y-94245500D01*
X115279861Y-94245500D01*
X115274934Y-94245501D01*
X115270096Y-94246463D01*
X115270088Y-94246464D01*
X115210416Y-94258333D01*
X115210414Y-94258333D01*
X115200699Y-94260266D01*
X115192463Y-94265768D01*
X115192463Y-94265769D01*
X115124752Y-94311012D01*
X115124749Y-94311014D01*
X115116516Y-94316516D01*
X115111014Y-94324749D01*
X115111012Y-94324752D01*
X115065770Y-94392460D01*
X115065769Y-94392463D01*
X115060266Y-94400699D01*
X115058333Y-94410412D01*
X115058332Y-94410417D01*
X115046465Y-94470081D01*
X115045500Y-94474933D01*
X115045500Y-94479878D01*
X115045500Y-94479879D01*
X115045500Y-96520127D01*
X115045500Y-96520137D01*
X76200500Y-96520137D01*
X76200500Y-67899901D01*
X76200500Y-67812468D01*
X76170101Y-67640062D01*
X76110225Y-67475555D01*
X76022692Y-67323945D01*
X75910163Y-67189837D01*
X75844022Y-67134339D01*
X75779423Y-67080134D01*
X75779422Y-67080133D01*
X75776055Y-67077308D01*
X75624445Y-66989775D01*
X75620313Y-66988271D01*
X75464061Y-66931399D01*
X75464054Y-66931397D01*
X75459938Y-66929899D01*
X75455624Y-66929138D01*
X75455619Y-66929137D01*
X75291850Y-66900261D01*
X75291845Y-66900260D01*
X75287532Y-66899500D01*
X75283145Y-66899500D01*
X72504393Y-66899500D01*
X72495623Y-66899117D01*
X72492099Y-66898808D01*
X72455130Y-66895573D01*
X72454042Y-66895472D01*
X72326325Y-66882894D01*
X72310151Y-66879950D01*
X72273391Y-66870101D01*
X72243260Y-66862027D01*
X72240096Y-66861123D01*
X72146849Y-66832837D01*
X72133536Y-66827744D01*
X72065571Y-66796052D01*
X72060663Y-66793598D01*
X71979717Y-66750331D01*
X71969438Y-66744016D01*
X71906372Y-66699856D01*
X71900254Y-66695215D01*
X71830656Y-66638098D01*
X71823341Y-66631468D01*
X71768530Y-66576657D01*
X71761900Y-66569342D01*
X71704783Y-66499744D01*
X71700142Y-66493626D01*
X71655982Y-66430560D01*
X71649671Y-66420289D01*
X71606383Y-66339302D01*
X71603963Y-66334461D01*
X71572252Y-66266458D01*
X71567161Y-66253149D01*
X71538875Y-66159902D01*
X71537985Y-66156788D01*
X71520044Y-66089829D01*
X71517107Y-66073691D01*
X71504511Y-65945800D01*
X71504436Y-65944991D01*
X71500883Y-65904376D01*
X71500500Y-65895610D01*
X71500500Y-61035000D01*
X73229746Y-61035000D01*
X73248744Y-61336960D01*
X73249334Y-61340054D01*
X73249336Y-61340068D01*
X73304844Y-61631051D01*
X73304845Y-61631058D01*
X73305437Y-61634157D01*
X73306413Y-61637163D01*
X73306414Y-61637164D01*
X73397954Y-61918898D01*
X73397957Y-61918907D01*
X73398932Y-61921906D01*
X73527755Y-62195667D01*
X73689873Y-62451124D01*
X73882729Y-62684248D01*
X73885037Y-62686415D01*
X74100980Y-62889199D01*
X74100985Y-62889203D01*
X74103284Y-62891362D01*
X74236026Y-62987804D01*
X74345499Y-63067342D01*
X74345504Y-63067345D01*
X74348057Y-63069200D01*
X74613190Y-63214958D01*
X74894500Y-63326337D01*
X75187551Y-63401579D01*
X75487722Y-63439500D01*
X75787112Y-63439500D01*
X75790278Y-63439500D01*
X76090449Y-63401579D01*
X76383500Y-63326337D01*
X76664810Y-63214958D01*
X76929943Y-63069200D01*
X77174716Y-62891362D01*
X77395271Y-62684248D01*
X77588127Y-62451124D01*
X77750245Y-62195667D01*
X77879068Y-61921906D01*
X77972563Y-61634157D01*
X78029256Y-61336960D01*
X78048254Y-61035000D01*
X78029256Y-60733040D01*
X77972563Y-60435843D01*
X77879068Y-60148094D01*
X77750245Y-59874333D01*
X77588127Y-59618876D01*
X77395271Y-59385752D01*
X77327133Y-59321766D01*
X77177019Y-59180800D01*
X77177013Y-59180795D01*
X77174716Y-59178638D01*
X77054163Y-59091051D01*
X76932500Y-59002657D01*
X76932491Y-59002651D01*
X76929943Y-59000800D01*
X76927176Y-58999278D01*
X76927170Y-58999275D01*
X76667591Y-58856571D01*
X76667592Y-58856571D01*
X76664810Y-58855042D01*
X76661860Y-58853874D01*
X76661858Y-58853873D01*
X76386448Y-58744830D01*
X76386445Y-58744829D01*
X76383500Y-58743663D01*
X76380440Y-58742877D01*
X76380436Y-58742876D01*
X76093498Y-58669203D01*
X76093485Y-58669200D01*
X76090449Y-58668421D01*
X76087327Y-58668026D01*
X76087324Y-58668026D01*
X75793416Y-58630896D01*
X75793409Y-58630895D01*
X75790278Y-58630500D01*
X75487722Y-58630500D01*
X75484591Y-58630895D01*
X75484583Y-58630896D01*
X75190675Y-58668026D01*
X75190669Y-58668027D01*
X75187551Y-58668421D01*
X75184517Y-58669199D01*
X75184501Y-58669203D01*
X74897563Y-58742876D01*
X74897554Y-58742878D01*
X74894500Y-58743663D01*
X74891559Y-58744827D01*
X74891551Y-58744830D01*
X74616141Y-58853873D01*
X74616132Y-58853876D01*
X74613190Y-58855042D01*
X74610413Y-58856568D01*
X74610408Y-58856571D01*
X74350829Y-58999275D01*
X74350816Y-58999283D01*
X74348057Y-59000800D01*
X74345515Y-59002646D01*
X74345499Y-59002657D01*
X74105838Y-59176782D01*
X74105833Y-59176785D01*
X74103284Y-59178638D01*
X74100994Y-59180788D01*
X74100980Y-59180800D01*
X73885037Y-59383584D01*
X73885031Y-59383589D01*
X73882729Y-59385752D01*
X73689873Y-59618876D01*
X73688181Y-59621541D01*
X73688176Y-59621549D01*
X73529455Y-59871653D01*
X73529449Y-59871662D01*
X73527755Y-59874333D01*
X73526407Y-59877197D01*
X73526404Y-59877203D01*
X73400278Y-60145232D01*
X73400273Y-60145242D01*
X73398932Y-60148094D01*
X73397959Y-60151087D01*
X73397954Y-60151101D01*
X73306414Y-60432835D01*
X73305437Y-60435843D01*
X73304846Y-60438937D01*
X73304844Y-60438948D01*
X73249336Y-60729931D01*
X73249333Y-60729947D01*
X73248744Y-60733040D01*
X73229746Y-61035000D01*
X71500500Y-61035000D01*
X71500500Y-58916855D01*
X71500500Y-58912468D01*
X71470101Y-58740062D01*
X71410225Y-58575555D01*
X71363716Y-58495000D01*
X158954746Y-58495000D01*
X158973744Y-58796960D01*
X158974334Y-58800054D01*
X158974336Y-58800068D01*
X159029844Y-59091051D01*
X159029845Y-59091058D01*
X159030437Y-59094157D01*
X159031413Y-59097163D01*
X159031414Y-59097164D01*
X159122954Y-59378898D01*
X159122957Y-59378907D01*
X159123932Y-59381906D01*
X159125276Y-59384763D01*
X159125278Y-59384767D01*
X159235442Y-59618876D01*
X159252755Y-59655667D01*
X159414873Y-59911124D01*
X159607729Y-60144248D01*
X159610037Y-60146415D01*
X159825980Y-60349199D01*
X159825985Y-60349203D01*
X159828284Y-60351362D01*
X159940422Y-60432835D01*
X160070499Y-60527342D01*
X160070504Y-60527345D01*
X160073057Y-60529200D01*
X160338190Y-60674958D01*
X160619500Y-60786337D01*
X160912551Y-60861579D01*
X161212722Y-60899500D01*
X161512112Y-60899500D01*
X161515278Y-60899500D01*
X161815449Y-60861579D01*
X162108500Y-60786337D01*
X162389810Y-60674958D01*
X162654943Y-60529200D01*
X162899716Y-60351362D01*
X163120271Y-60144248D01*
X163313127Y-59911124D01*
X163475245Y-59655667D01*
X163604068Y-59381906D01*
X163697563Y-59094157D01*
X163754256Y-58796960D01*
X163773254Y-58495000D01*
X163754256Y-58193040D01*
X163697563Y-57895843D01*
X163604068Y-57608094D01*
X163475245Y-57334333D01*
X163313127Y-57078876D01*
X163120271Y-56845752D01*
X162966204Y-56701074D01*
X162936295Y-56646821D01*
X162943845Y-56585331D01*
X162985990Y-56539924D01*
X163046745Y-56527820D01*
X163275008Y-56554500D01*
X163622065Y-56554500D01*
X163624992Y-56554500D01*
X163972610Y-56513870D01*
X164313161Y-56433158D01*
X164642038Y-56313456D01*
X164954796Y-56156383D01*
X165247204Y-55964064D01*
X165515307Y-55739098D01*
X165755481Y-55484528D01*
X165964477Y-55203798D01*
X166139470Y-54900702D01*
X166278091Y-54579341D01*
X166378468Y-54244060D01*
X166439242Y-53899392D01*
X166459592Y-53550000D01*
X166439242Y-53200608D01*
X166378468Y-52855940D01*
X166278091Y-52520659D01*
X166139470Y-52199298D01*
X165964477Y-51896202D01*
X165755481Y-51615472D01*
X165515307Y-51360902D01*
X165513071Y-51359026D01*
X165513066Y-51359021D01*
X165249440Y-51137812D01*
X165249437Y-51137810D01*
X165247204Y-51135936D01*
X164954796Y-50943617D01*
X164642038Y-50786544D01*
X164514558Y-50740145D01*
X164315911Y-50667843D01*
X164315912Y-50667843D01*
X164313161Y-50666842D01*
X164310319Y-50666168D01*
X164310311Y-50666166D01*
X163975461Y-50586805D01*
X163975449Y-50586802D01*
X163972610Y-50586130D01*
X163969706Y-50585790D01*
X163969703Y-50585790D01*
X163627897Y-50545839D01*
X163627887Y-50545838D01*
X163624992Y-50545500D01*
X163275008Y-50545500D01*
X163272113Y-50545838D01*
X163272102Y-50545839D01*
X162930296Y-50585790D01*
X162930290Y-50585791D01*
X162927390Y-50586130D01*
X162924553Y-50586802D01*
X162924538Y-50586805D01*
X162589688Y-50666166D01*
X162589675Y-50666169D01*
X162586839Y-50666842D01*
X162584092Y-50667841D01*
X162584088Y-50667843D01*
X162260708Y-50785544D01*
X162260700Y-50785547D01*
X162257962Y-50786544D01*
X162255351Y-50787855D01*
X162255347Y-50787857D01*
X161975798Y-50928252D01*
X161945204Y-50943617D01*
X161942757Y-50945226D01*
X161942749Y-50945231D01*
X161655240Y-51134328D01*
X161655233Y-51134332D01*
X161652796Y-51135936D01*
X161650570Y-51137803D01*
X161650559Y-51137812D01*
X161386933Y-51359021D01*
X161386919Y-51359033D01*
X161384693Y-51360902D01*
X161382688Y-51363027D01*
X161382685Y-51363030D01*
X161146521Y-51613349D01*
X161146513Y-51613358D01*
X161144519Y-51615472D01*
X161142784Y-51617802D01*
X161142776Y-51617812D01*
X160937271Y-51893853D01*
X160937265Y-51893861D01*
X160935523Y-51896202D01*
X160934062Y-51898731D01*
X160934057Y-51898740D01*
X160784286Y-52158151D01*
X160760530Y-52199298D01*
X160759376Y-52201971D01*
X160759374Y-52201977D01*
X160623063Y-52517981D01*
X160623056Y-52517998D01*
X160621909Y-52520659D01*
X160521532Y-52855940D01*
X160460758Y-53200608D01*
X160440408Y-53550000D01*
X160460758Y-53899392D01*
X160521532Y-54244060D01*
X160621909Y-54579341D01*
X160623059Y-54582007D01*
X160623063Y-54582018D01*
X160753366Y-54884095D01*
X160760530Y-54900702D01*
X160761990Y-54903230D01*
X160933041Y-55199500D01*
X160935523Y-55203798D01*
X161144519Y-55484528D01*
X161384693Y-55739098D01*
X161386929Y-55740974D01*
X161386933Y-55740978D01*
X161592714Y-55913649D01*
X161622221Y-55955330D01*
X161627461Y-56006130D01*
X161607081Y-56052956D01*
X161566335Y-56083743D01*
X161521657Y-56089756D01*
X161521573Y-56091095D01*
X161518416Y-56090896D01*
X161515278Y-56090500D01*
X161212722Y-56090500D01*
X161209591Y-56090895D01*
X161209583Y-56090896D01*
X160915675Y-56128026D01*
X160915669Y-56128027D01*
X160912551Y-56128421D01*
X160909517Y-56129199D01*
X160909501Y-56129203D01*
X160622563Y-56202876D01*
X160622554Y-56202878D01*
X160619500Y-56203663D01*
X160616559Y-56204827D01*
X160616551Y-56204830D01*
X160341141Y-56313873D01*
X160341132Y-56313876D01*
X160338190Y-56315042D01*
X160335413Y-56316568D01*
X160335408Y-56316571D01*
X160075829Y-56459275D01*
X160075816Y-56459283D01*
X160073057Y-56460800D01*
X160070515Y-56462646D01*
X160070499Y-56462657D01*
X159830838Y-56636782D01*
X159830833Y-56636785D01*
X159828284Y-56638638D01*
X159825994Y-56640788D01*
X159825980Y-56640800D01*
X159610037Y-56843584D01*
X159610031Y-56843589D01*
X159607729Y-56845752D01*
X159414873Y-57078876D01*
X159413181Y-57081541D01*
X159413176Y-57081549D01*
X159254455Y-57331653D01*
X159254449Y-57331662D01*
X159252755Y-57334333D01*
X159251407Y-57337197D01*
X159251404Y-57337203D01*
X159125278Y-57605232D01*
X159125273Y-57605242D01*
X159123932Y-57608094D01*
X159122959Y-57611087D01*
X159122954Y-57611101D01*
X159031414Y-57892835D01*
X159030437Y-57895843D01*
X159029846Y-57898937D01*
X159029844Y-57898948D01*
X158974336Y-58189931D01*
X158974333Y-58189947D01*
X158973744Y-58193040D01*
X158973545Y-58196197D01*
X158973545Y-58196200D01*
X158967832Y-58287010D01*
X158954746Y-58495000D01*
X71363716Y-58495000D01*
X71322692Y-58423945D01*
X71210163Y-58289837D01*
X71144022Y-58234339D01*
X71079423Y-58180134D01*
X71079422Y-58180133D01*
X71076055Y-58177308D01*
X70924445Y-58089775D01*
X70920313Y-58088271D01*
X70764061Y-58031399D01*
X70764054Y-58031397D01*
X70759938Y-58029899D01*
X70755624Y-58029138D01*
X70755619Y-58029137D01*
X70591850Y-58000261D01*
X70591845Y-58000260D01*
X70587532Y-57999500D01*
X70583145Y-57999500D01*
X70101100Y-57999500D01*
X70050800Y-57986022D01*
X70013978Y-57949200D01*
X70000500Y-57898900D01*
X70000500Y-53550000D01*
X70540408Y-53550000D01*
X70560758Y-53899392D01*
X70621532Y-54244060D01*
X70721909Y-54579341D01*
X70723059Y-54582007D01*
X70723063Y-54582018D01*
X70853366Y-54884095D01*
X70860530Y-54900702D01*
X70861990Y-54903230D01*
X71033041Y-55199500D01*
X71035523Y-55203798D01*
X71244519Y-55484528D01*
X71484693Y-55739098D01*
X71486929Y-55740974D01*
X71486933Y-55740978D01*
X71691927Y-55912989D01*
X71752796Y-55964064D01*
X72045204Y-56156383D01*
X72357962Y-56313456D01*
X72686839Y-56433158D01*
X73027390Y-56513870D01*
X73375008Y-56554500D01*
X73722065Y-56554500D01*
X73724992Y-56554500D01*
X74072610Y-56513870D01*
X74413161Y-56433158D01*
X74742038Y-56313456D01*
X75054796Y-56156383D01*
X75347204Y-55964064D01*
X75615307Y-55739098D01*
X75855481Y-55484528D01*
X76064477Y-55203798D01*
X76239470Y-54900702D01*
X76378091Y-54579341D01*
X76478468Y-54244060D01*
X76539242Y-53899392D01*
X76559592Y-53550000D01*
X76539242Y-53200608D01*
X76478468Y-52855940D01*
X76378091Y-52520659D01*
X76239470Y-52199298D01*
X76064477Y-51896202D01*
X75855481Y-51615472D01*
X75615307Y-51360902D01*
X75613071Y-51359026D01*
X75613066Y-51359021D01*
X75349440Y-51137812D01*
X75349437Y-51137810D01*
X75347204Y-51135936D01*
X75054796Y-50943617D01*
X74742038Y-50786544D01*
X74614558Y-50740145D01*
X74415911Y-50667843D01*
X74415912Y-50667843D01*
X74413161Y-50666842D01*
X74410319Y-50666168D01*
X74410311Y-50666166D01*
X74075461Y-50586805D01*
X74075449Y-50586802D01*
X74072610Y-50586130D01*
X74069706Y-50585790D01*
X74069703Y-50585790D01*
X73727897Y-50545839D01*
X73727887Y-50545838D01*
X73724992Y-50545500D01*
X73375008Y-50545500D01*
X73372113Y-50545838D01*
X73372102Y-50545839D01*
X73030296Y-50585790D01*
X73030290Y-50585791D01*
X73027390Y-50586130D01*
X73024553Y-50586802D01*
X73024538Y-50586805D01*
X72689688Y-50666166D01*
X72689675Y-50666169D01*
X72686839Y-50666842D01*
X72684092Y-50667841D01*
X72684088Y-50667843D01*
X72360708Y-50785544D01*
X72360700Y-50785547D01*
X72357962Y-50786544D01*
X72355351Y-50787855D01*
X72355347Y-50787857D01*
X72075798Y-50928252D01*
X72045204Y-50943617D01*
X72042757Y-50945226D01*
X72042749Y-50945231D01*
X71755240Y-51134328D01*
X71755233Y-51134332D01*
X71752796Y-51135936D01*
X71750570Y-51137803D01*
X71750559Y-51137812D01*
X71486933Y-51359021D01*
X71486919Y-51359033D01*
X71484693Y-51360902D01*
X71482688Y-51363027D01*
X71482685Y-51363030D01*
X71246521Y-51613349D01*
X71246513Y-51613358D01*
X71244519Y-51615472D01*
X71242784Y-51617802D01*
X71242776Y-51617812D01*
X71037271Y-51893853D01*
X71037265Y-51893861D01*
X71035523Y-51896202D01*
X71034062Y-51898731D01*
X71034057Y-51898740D01*
X70884286Y-52158151D01*
X70860530Y-52199298D01*
X70859376Y-52201971D01*
X70859374Y-52201977D01*
X70723063Y-52517981D01*
X70723056Y-52517998D01*
X70721909Y-52520659D01*
X70621532Y-52855940D01*
X70560758Y-53200608D01*
X70540408Y-53550000D01*
X70000500Y-53550000D01*
X70000500Y-51004390D01*
X70000883Y-50995624D01*
X70001370Y-50990053D01*
X70004440Y-50954964D01*
X70004508Y-50954229D01*
X70017107Y-50826303D01*
X70020042Y-50810174D01*
X70037994Y-50743177D01*
X70038860Y-50740145D01*
X70067164Y-50646840D01*
X70072248Y-50633550D01*
X70103977Y-50565508D01*
X70106368Y-50560726D01*
X70149680Y-50479695D01*
X70155976Y-50469447D01*
X70200144Y-50406368D01*
X70204767Y-50400274D01*
X70261918Y-50330635D01*
X70268510Y-50323362D01*
X70323362Y-50268510D01*
X70330635Y-50261918D01*
X70400274Y-50204767D01*
X70406372Y-50200142D01*
X70469447Y-50155976D01*
X70479695Y-50149680D01*
X70560726Y-50106368D01*
X70565508Y-50103977D01*
X70633550Y-50072248D01*
X70646840Y-50067164D01*
X70740145Y-50038860D01*
X70743177Y-50037994D01*
X70810174Y-50020042D01*
X70826303Y-50017107D01*
X70954229Y-50004508D01*
X70954964Y-50004440D01*
X70990053Y-50001370D01*
X70995624Y-50000883D01*
X71004390Y-50000500D01*
X77898900Y-50000500D01*
X77949200Y-50013978D01*
G37*
G04 #@! TD.AperFunction*
M02*
