%TF.GenerationSoftware,KiCad,Pcbnew,(7.0.0-0)*%
%TF.CreationDate,2023-03-17T23:56:31-04:00*%
%TF.ProjectId,bottom-adapter,626f7474-6f6d-42d6-9164-61707465722e,3*%
%TF.SameCoordinates,Original*%
%TF.FileFunction,Drillmap*%
%TF.FilePolarity,Positive*%
%FSLAX45Y45*%
G04 Gerber Fmt 4.5, Leading zero omitted, Abs format (unit mm)*
G04 Created by KiCad (PCBNEW (7.0.0-0)) date 2023-03-17 23:56:31*
%MOMM*%
%LPD*%
G01*
G04 APERTURE LIST*
%ADD10C,0.100000*%
%ADD11C,0.200000*%
%ADD12C,0.040000*%
%ADD13C,0.270000*%
%ADD14C,0.370000*%
G04 APERTURE END LIST*
D10*
X7520000Y-13010000D02*
G75*
G03*
X7620000Y-12910000I0J100000D01*
G01*
X7250000Y-13010000D02*
G75*
G03*
X7150000Y-13110000I0J-100000D01*
G01*
X16180000Y-6690000D02*
G75*
G03*
X16080000Y-6790000I0J-100000D01*
G01*
X16700000Y-5800000D02*
X16700000Y-5100000D01*
X16700000Y-5800000D02*
X16650000Y-5800000D01*
X8690000Y-5520000D02*
G75*
G03*
X8790000Y-5620000I100000J0D01*
G01*
X15900000Y-5000000D02*
X16600000Y-5000000D01*
X16550000Y-13800000D02*
G75*
G03*
X16650000Y-13900000I100000J0D01*
G01*
X7000000Y-14600000D02*
G75*
G03*
X7100000Y-14700000I100000J0D01*
G01*
X14910000Y-14080000D02*
X8790000Y-14080000D01*
X16600000Y-14700000D02*
G75*
G03*
X16700000Y-14600000I0J100000D01*
G01*
X7900000Y-14550000D02*
G75*
G03*
X7800000Y-14650000I0J-100000D01*
G01*
X15900000Y-14650000D02*
G75*
G03*
X15800000Y-14550000I-100000J0D01*
G01*
X7000000Y-13900000D02*
X7000000Y-14600000D01*
X16550000Y-13110000D02*
G75*
G03*
X16450000Y-13010000I-100000J0D01*
G01*
X7050000Y-5800000D02*
X7000000Y-5800000D01*
X15010000Y-14180000D02*
X15010000Y-14450000D01*
X8790000Y-5620000D02*
X14910000Y-5620000D01*
X7150000Y-6590000D02*
G75*
G03*
X7250000Y-6690000I100000J0D01*
G01*
X7800000Y-14700000D02*
X7100000Y-14700000D01*
X16600000Y-14700000D02*
X15900000Y-14700000D01*
X16650000Y-13900000D02*
X16700000Y-13900000D01*
X15800000Y-5150000D02*
G75*
G03*
X15900000Y-5050000I0J100000D01*
G01*
X16080000Y-6790000D02*
X16080000Y-12910000D01*
X8590000Y-14550000D02*
X7900000Y-14550000D01*
X7520000Y-13010000D02*
X7250000Y-13010000D01*
X16550000Y-5900000D02*
X16550000Y-6590000D01*
X15010000Y-5520000D02*
X15010000Y-5250000D01*
X14910000Y-5620000D02*
G75*
G03*
X15010000Y-5520000I0J100000D01*
G01*
X8690000Y-14180000D02*
X8690000Y-14450000D01*
X15800000Y-14550000D02*
X15110000Y-14550000D01*
X8790000Y-14080000D02*
G75*
G03*
X8690000Y-14180000I0J-100000D01*
G01*
X7520000Y-6690000D02*
X7250000Y-6690000D01*
X7800000Y-5050000D02*
G75*
G03*
X7900000Y-5150000I100000J0D01*
G01*
X16180000Y-13010000D02*
X16450000Y-13010000D01*
X16700000Y-5100000D02*
G75*
G03*
X16600000Y-5000000I-100000J0D01*
G01*
X7900000Y-5150000D02*
X8590000Y-5150000D01*
X7150000Y-13110000D02*
X7150000Y-13800000D01*
X16180000Y-6690000D02*
X16450000Y-6690000D01*
X15900000Y-5000000D02*
X15900000Y-5050000D01*
X8590000Y-14550000D02*
G75*
G03*
X8690000Y-14450000I0J100000D01*
G01*
X7800000Y-5050000D02*
X7800000Y-5000000D01*
X7000000Y-13900000D02*
X7050000Y-13900000D01*
X7150000Y-5900000D02*
G75*
G03*
X7050000Y-5800000I-100000J0D01*
G01*
X16080000Y-12910000D02*
G75*
G03*
X16180000Y-13010000I100000J0D01*
G01*
X16650000Y-5800000D02*
G75*
G03*
X16550000Y-5900000I0J-100000D01*
G01*
X7620000Y-12910000D02*
X7620000Y-6790000D01*
X8690000Y-5520000D02*
X8690000Y-5250000D01*
X7000000Y-5100000D02*
X7000000Y-5800000D01*
X15800000Y-5150000D02*
X15110000Y-5150000D01*
X7150000Y-5900000D02*
X7150000Y-6590000D01*
X8690000Y-5250000D02*
G75*
G03*
X8590000Y-5150000I-100000J0D01*
G01*
X16450000Y-6690000D02*
G75*
G03*
X16550000Y-6590000I0J100000D01*
G01*
X15010000Y-14180000D02*
G75*
G03*
X14910000Y-14080000I-100000J0D01*
G01*
X15900000Y-14650000D02*
X15900000Y-14700000D01*
X7050000Y-13900000D02*
G75*
G03*
X7150000Y-13800000I0J100000D01*
G01*
X15010000Y-14450000D02*
G75*
G03*
X15110000Y-14550000I100000J0D01*
G01*
X15110000Y-5150000D02*
G75*
G03*
X15010000Y-5250000I0J-100000D01*
G01*
X16550000Y-13110000D02*
X16550000Y-13800000D01*
X7100000Y-5000000D02*
G75*
G03*
X7000000Y-5100000I0J-100000D01*
G01*
X7800000Y-5000000D02*
X7100000Y-5000000D01*
X16700000Y-13900000D02*
X16700000Y-14600000D01*
X7620000Y-6790000D02*
G75*
G03*
X7520000Y-6690000I-100000J0D01*
G01*
X7800000Y-14700000D02*
X7800000Y-14650000D01*
D11*
D12*
X11350000Y-10260000D02*
X11390000Y-10300000D01*
X11390000Y-10260000D02*
X11350000Y-10300000D01*
X11350000Y-10380000D02*
X11390000Y-10420000D01*
X11390000Y-10380000D02*
X11350000Y-10420000D01*
X11610000Y-10380000D02*
X11650000Y-10420000D01*
X11650000Y-10380000D02*
X11610000Y-10420000D01*
X11850000Y-10260000D02*
X11890000Y-10300000D01*
X11890000Y-10260000D02*
X11850000Y-10300000D01*
X11850000Y-10380000D02*
X11890000Y-10420000D01*
X11890000Y-10380000D02*
X11850000Y-10420000D01*
X12110000Y-10370000D02*
X12150000Y-10410000D01*
X12150000Y-10370000D02*
X12110000Y-10410000D01*
X12360000Y-10260000D02*
X12400000Y-10300000D01*
X12400000Y-10260000D02*
X12360000Y-10300000D01*
X12370000Y-10380000D02*
X12410000Y-10420000D01*
X12410000Y-10380000D02*
X12370000Y-10420000D01*
D10*
X11680000Y-9550000D02*
G75*
G03*
X11680000Y-9550000I-50000J0D01*
G01*
X11680000Y-10160000D02*
G75*
G03*
X11680000Y-10160000I-50000J0D01*
G01*
X12180000Y-10160000D02*
G75*
G03*
X12180000Y-10160000I-50000J0D01*
G01*
X12190000Y-9550000D02*
G75*
G03*
X12190000Y-9550000I-50000J0D01*
G01*
D13*
X7563900Y-5968500D02*
X7563900Y-6238500D01*
X7428900Y-6103500D02*
X7698900Y-6103500D01*
X7563900Y-13334500D02*
X7563900Y-13604500D01*
X7428900Y-13469500D02*
X7698900Y-13469500D01*
X16136400Y-5714500D02*
X16136400Y-5984500D01*
X16001400Y-5849500D02*
X16271400Y-5849500D01*
X16136400Y-13715500D02*
X16136400Y-13985500D01*
X16001400Y-13850500D02*
X16271400Y-13850500D01*
D14*
X7485816Y-5485816D02*
X7485816Y-5224184D01*
X7224184Y-5224184D01*
X7224184Y-5485816D01*
X7485816Y-5485816D01*
X7485816Y-14475816D02*
X7485816Y-14214184D01*
X7224184Y-14214184D01*
X7224184Y-14475816D01*
X7485816Y-14475816D01*
X16475816Y-5485816D02*
X16475816Y-5224184D01*
X16214184Y-5224184D01*
X16214184Y-5485816D01*
X16475816Y-5485816D01*
X16475816Y-14475816D02*
X16475816Y-14214184D01*
X16214184Y-14214184D01*
X16214184Y-14475816D01*
X16475816Y-14475816D01*
D11*
X7242619Y-14998476D02*
X7242619Y-14798476D01*
X7242619Y-14798476D02*
X7290238Y-14798476D01*
X7290238Y-14798476D02*
X7318809Y-14808000D01*
X7318809Y-14808000D02*
X7337857Y-14827048D01*
X7337857Y-14827048D02*
X7347381Y-14846095D01*
X7347381Y-14846095D02*
X7356905Y-14884190D01*
X7356905Y-14884190D02*
X7356905Y-14912762D01*
X7356905Y-14912762D02*
X7347381Y-14950857D01*
X7347381Y-14950857D02*
X7337857Y-14969905D01*
X7337857Y-14969905D02*
X7318809Y-14988952D01*
X7318809Y-14988952D02*
X7290238Y-14998476D01*
X7290238Y-14998476D02*
X7242619Y-14998476D01*
X7442619Y-14998476D02*
X7442619Y-14865143D01*
X7442619Y-14903238D02*
X7452143Y-14884190D01*
X7452143Y-14884190D02*
X7461667Y-14874667D01*
X7461667Y-14874667D02*
X7480714Y-14865143D01*
X7480714Y-14865143D02*
X7499762Y-14865143D01*
X7566428Y-14998476D02*
X7566428Y-14865143D01*
X7566428Y-14798476D02*
X7556905Y-14808000D01*
X7556905Y-14808000D02*
X7566428Y-14817524D01*
X7566428Y-14817524D02*
X7575952Y-14808000D01*
X7575952Y-14808000D02*
X7566428Y-14798476D01*
X7566428Y-14798476D02*
X7566428Y-14817524D01*
X7690238Y-14998476D02*
X7671190Y-14988952D01*
X7671190Y-14988952D02*
X7661667Y-14969905D01*
X7661667Y-14969905D02*
X7661667Y-14798476D01*
X7795000Y-14998476D02*
X7775952Y-14988952D01*
X7775952Y-14988952D02*
X7766428Y-14969905D01*
X7766428Y-14969905D02*
X7766428Y-14798476D01*
X7991190Y-14998476D02*
X7991190Y-14798476D01*
X7991190Y-14798476D02*
X8057857Y-14941333D01*
X8057857Y-14941333D02*
X8124524Y-14798476D01*
X8124524Y-14798476D02*
X8124524Y-14998476D01*
X8305476Y-14998476D02*
X8305476Y-14893714D01*
X8305476Y-14893714D02*
X8295952Y-14874667D01*
X8295952Y-14874667D02*
X8276905Y-14865143D01*
X8276905Y-14865143D02*
X8238809Y-14865143D01*
X8238809Y-14865143D02*
X8219762Y-14874667D01*
X8305476Y-14988952D02*
X8286428Y-14998476D01*
X8286428Y-14998476D02*
X8238809Y-14998476D01*
X8238809Y-14998476D02*
X8219762Y-14988952D01*
X8219762Y-14988952D02*
X8210238Y-14969905D01*
X8210238Y-14969905D02*
X8210238Y-14950857D01*
X8210238Y-14950857D02*
X8219762Y-14931809D01*
X8219762Y-14931809D02*
X8238809Y-14922286D01*
X8238809Y-14922286D02*
X8286428Y-14922286D01*
X8286428Y-14922286D02*
X8305476Y-14912762D01*
X8400714Y-14865143D02*
X8400714Y-15065143D01*
X8400714Y-14874667D02*
X8419762Y-14865143D01*
X8419762Y-14865143D02*
X8457857Y-14865143D01*
X8457857Y-14865143D02*
X8476905Y-14874667D01*
X8476905Y-14874667D02*
X8486429Y-14884190D01*
X8486429Y-14884190D02*
X8495952Y-14903238D01*
X8495952Y-14903238D02*
X8495952Y-14960381D01*
X8495952Y-14960381D02*
X8486429Y-14979428D01*
X8486429Y-14979428D02*
X8476905Y-14988952D01*
X8476905Y-14988952D02*
X8457857Y-14998476D01*
X8457857Y-14998476D02*
X8419762Y-14998476D01*
X8419762Y-14998476D02*
X8400714Y-14988952D01*
X8581667Y-14979428D02*
X8591190Y-14988952D01*
X8591190Y-14988952D02*
X8581667Y-14998476D01*
X8581667Y-14998476D02*
X8572143Y-14988952D01*
X8572143Y-14988952D02*
X8581667Y-14979428D01*
X8581667Y-14979428D02*
X8581667Y-14998476D01*
X8581667Y-14874667D02*
X8591190Y-14884190D01*
X8591190Y-14884190D02*
X8581667Y-14893714D01*
X8581667Y-14893714D02*
X8572143Y-14884190D01*
X8572143Y-14884190D02*
X8581667Y-14874667D01*
X8581667Y-14874667D02*
X8581667Y-14893714D01*
D12*
X6955000Y-15325000D02*
X6995000Y-15365000D01*
X6995000Y-15325000D02*
X6955000Y-15365000D01*
D11*
X7280714Y-15218476D02*
X7299762Y-15218476D01*
X7299762Y-15218476D02*
X7318809Y-15228000D01*
X7318809Y-15228000D02*
X7328333Y-15237524D01*
X7328333Y-15237524D02*
X7337857Y-15256571D01*
X7337857Y-15256571D02*
X7347381Y-15294667D01*
X7347381Y-15294667D02*
X7347381Y-15342286D01*
X7347381Y-15342286D02*
X7337857Y-15380381D01*
X7337857Y-15380381D02*
X7328333Y-15399428D01*
X7328333Y-15399428D02*
X7318809Y-15408952D01*
X7318809Y-15408952D02*
X7299762Y-15418476D01*
X7299762Y-15418476D02*
X7280714Y-15418476D01*
X7280714Y-15418476D02*
X7261667Y-15408952D01*
X7261667Y-15408952D02*
X7252143Y-15399428D01*
X7252143Y-15399428D02*
X7242619Y-15380381D01*
X7242619Y-15380381D02*
X7233095Y-15342286D01*
X7233095Y-15342286D02*
X7233095Y-15294667D01*
X7233095Y-15294667D02*
X7242619Y-15256571D01*
X7242619Y-15256571D02*
X7252143Y-15237524D01*
X7252143Y-15237524D02*
X7261667Y-15228000D01*
X7261667Y-15228000D02*
X7280714Y-15218476D01*
X7433095Y-15399428D02*
X7442619Y-15408952D01*
X7442619Y-15408952D02*
X7433095Y-15418476D01*
X7433095Y-15418476D02*
X7423571Y-15408952D01*
X7423571Y-15408952D02*
X7433095Y-15399428D01*
X7433095Y-15399428D02*
X7433095Y-15418476D01*
X7614048Y-15285143D02*
X7614048Y-15418476D01*
X7566428Y-15208952D02*
X7518809Y-15351809D01*
X7518809Y-15351809D02*
X7642619Y-15351809D01*
X7756905Y-15218476D02*
X7775952Y-15218476D01*
X7775952Y-15218476D02*
X7795000Y-15228000D01*
X7795000Y-15228000D02*
X7804524Y-15237524D01*
X7804524Y-15237524D02*
X7814048Y-15256571D01*
X7814048Y-15256571D02*
X7823571Y-15294667D01*
X7823571Y-15294667D02*
X7823571Y-15342286D01*
X7823571Y-15342286D02*
X7814048Y-15380381D01*
X7814048Y-15380381D02*
X7804524Y-15399428D01*
X7804524Y-15399428D02*
X7795000Y-15408952D01*
X7795000Y-15408952D02*
X7775952Y-15418476D01*
X7775952Y-15418476D02*
X7756905Y-15418476D01*
X7756905Y-15418476D02*
X7737857Y-15408952D01*
X7737857Y-15408952D02*
X7728333Y-15399428D01*
X7728333Y-15399428D02*
X7718809Y-15380381D01*
X7718809Y-15380381D02*
X7709286Y-15342286D01*
X7709286Y-15342286D02*
X7709286Y-15294667D01*
X7709286Y-15294667D02*
X7718809Y-15256571D01*
X7718809Y-15256571D02*
X7728333Y-15237524D01*
X7728333Y-15237524D02*
X7737857Y-15228000D01*
X7737857Y-15228000D02*
X7756905Y-15218476D01*
X7947381Y-15218476D02*
X7966429Y-15218476D01*
X7966429Y-15218476D02*
X7985476Y-15228000D01*
X7985476Y-15228000D02*
X7995000Y-15237524D01*
X7995000Y-15237524D02*
X8004524Y-15256571D01*
X8004524Y-15256571D02*
X8014048Y-15294667D01*
X8014048Y-15294667D02*
X8014048Y-15342286D01*
X8014048Y-15342286D02*
X8004524Y-15380381D01*
X8004524Y-15380381D02*
X7995000Y-15399428D01*
X7995000Y-15399428D02*
X7985476Y-15408952D01*
X7985476Y-15408952D02*
X7966429Y-15418476D01*
X7966429Y-15418476D02*
X7947381Y-15418476D01*
X7947381Y-15418476D02*
X7928333Y-15408952D01*
X7928333Y-15408952D02*
X7918809Y-15399428D01*
X7918809Y-15399428D02*
X7909286Y-15380381D01*
X7909286Y-15380381D02*
X7899762Y-15342286D01*
X7899762Y-15342286D02*
X7899762Y-15294667D01*
X7899762Y-15294667D02*
X7909286Y-15256571D01*
X7909286Y-15256571D02*
X7918809Y-15237524D01*
X7918809Y-15237524D02*
X7928333Y-15228000D01*
X7928333Y-15228000D02*
X7947381Y-15218476D01*
X8099762Y-15418476D02*
X8099762Y-15285143D01*
X8099762Y-15304190D02*
X8109286Y-15294667D01*
X8109286Y-15294667D02*
X8128333Y-15285143D01*
X8128333Y-15285143D02*
X8156905Y-15285143D01*
X8156905Y-15285143D02*
X8175952Y-15294667D01*
X8175952Y-15294667D02*
X8185476Y-15313714D01*
X8185476Y-15313714D02*
X8185476Y-15418476D01*
X8185476Y-15313714D02*
X8195000Y-15294667D01*
X8195000Y-15294667D02*
X8214048Y-15285143D01*
X8214048Y-15285143D02*
X8242619Y-15285143D01*
X8242619Y-15285143D02*
X8261667Y-15294667D01*
X8261667Y-15294667D02*
X8271190Y-15313714D01*
X8271190Y-15313714D02*
X8271190Y-15418476D01*
X8366429Y-15418476D02*
X8366429Y-15285143D01*
X8366429Y-15304190D02*
X8375952Y-15294667D01*
X8375952Y-15294667D02*
X8395000Y-15285143D01*
X8395000Y-15285143D02*
X8423572Y-15285143D01*
X8423572Y-15285143D02*
X8442619Y-15294667D01*
X8442619Y-15294667D02*
X8452143Y-15313714D01*
X8452143Y-15313714D02*
X8452143Y-15418476D01*
X8452143Y-15313714D02*
X8461667Y-15294667D01*
X8461667Y-15294667D02*
X8480714Y-15285143D01*
X8480714Y-15285143D02*
X8509286Y-15285143D01*
X8509286Y-15285143D02*
X8528333Y-15294667D01*
X8528333Y-15294667D02*
X8537857Y-15313714D01*
X8537857Y-15313714D02*
X8537857Y-15418476D01*
X8895952Y-15208952D02*
X8724524Y-15466095D01*
X9120714Y-15218476D02*
X9139762Y-15218476D01*
X9139762Y-15218476D02*
X9158810Y-15228000D01*
X9158810Y-15228000D02*
X9168333Y-15237524D01*
X9168333Y-15237524D02*
X9177857Y-15256571D01*
X9177857Y-15256571D02*
X9187381Y-15294667D01*
X9187381Y-15294667D02*
X9187381Y-15342286D01*
X9187381Y-15342286D02*
X9177857Y-15380381D01*
X9177857Y-15380381D02*
X9168333Y-15399428D01*
X9168333Y-15399428D02*
X9158810Y-15408952D01*
X9158810Y-15408952D02*
X9139762Y-15418476D01*
X9139762Y-15418476D02*
X9120714Y-15418476D01*
X9120714Y-15418476D02*
X9101667Y-15408952D01*
X9101667Y-15408952D02*
X9092143Y-15399428D01*
X9092143Y-15399428D02*
X9082619Y-15380381D01*
X9082619Y-15380381D02*
X9073095Y-15342286D01*
X9073095Y-15342286D02*
X9073095Y-15294667D01*
X9073095Y-15294667D02*
X9082619Y-15256571D01*
X9082619Y-15256571D02*
X9092143Y-15237524D01*
X9092143Y-15237524D02*
X9101667Y-15228000D01*
X9101667Y-15228000D02*
X9120714Y-15218476D01*
X9273095Y-15399428D02*
X9282619Y-15408952D01*
X9282619Y-15408952D02*
X9273095Y-15418476D01*
X9273095Y-15418476D02*
X9263572Y-15408952D01*
X9263572Y-15408952D02*
X9273095Y-15399428D01*
X9273095Y-15399428D02*
X9273095Y-15418476D01*
X9406429Y-15218476D02*
X9425476Y-15218476D01*
X9425476Y-15218476D02*
X9444524Y-15228000D01*
X9444524Y-15228000D02*
X9454048Y-15237524D01*
X9454048Y-15237524D02*
X9463572Y-15256571D01*
X9463572Y-15256571D02*
X9473095Y-15294667D01*
X9473095Y-15294667D02*
X9473095Y-15342286D01*
X9473095Y-15342286D02*
X9463572Y-15380381D01*
X9463572Y-15380381D02*
X9454048Y-15399428D01*
X9454048Y-15399428D02*
X9444524Y-15408952D01*
X9444524Y-15408952D02*
X9425476Y-15418476D01*
X9425476Y-15418476D02*
X9406429Y-15418476D01*
X9406429Y-15418476D02*
X9387381Y-15408952D01*
X9387381Y-15408952D02*
X9377857Y-15399428D01*
X9377857Y-15399428D02*
X9368333Y-15380381D01*
X9368333Y-15380381D02*
X9358810Y-15342286D01*
X9358810Y-15342286D02*
X9358810Y-15294667D01*
X9358810Y-15294667D02*
X9368333Y-15256571D01*
X9368333Y-15256571D02*
X9377857Y-15237524D01*
X9377857Y-15237524D02*
X9387381Y-15228000D01*
X9387381Y-15228000D02*
X9406429Y-15218476D01*
X9663572Y-15418476D02*
X9549286Y-15418476D01*
X9606429Y-15418476D02*
X9606429Y-15218476D01*
X9606429Y-15218476D02*
X9587381Y-15247048D01*
X9587381Y-15247048D02*
X9568333Y-15266095D01*
X9568333Y-15266095D02*
X9549286Y-15275619D01*
X9844524Y-15218476D02*
X9749286Y-15218476D01*
X9749286Y-15218476D02*
X9739762Y-15313714D01*
X9739762Y-15313714D02*
X9749286Y-15304190D01*
X9749286Y-15304190D02*
X9768333Y-15294667D01*
X9768333Y-15294667D02*
X9815953Y-15294667D01*
X9815953Y-15294667D02*
X9835000Y-15304190D01*
X9835000Y-15304190D02*
X9844524Y-15313714D01*
X9844524Y-15313714D02*
X9854048Y-15332762D01*
X9854048Y-15332762D02*
X9854048Y-15380381D01*
X9854048Y-15380381D02*
X9844524Y-15399428D01*
X9844524Y-15399428D02*
X9835000Y-15408952D01*
X9835000Y-15408952D02*
X9815953Y-15418476D01*
X9815953Y-15418476D02*
X9768333Y-15418476D01*
X9768333Y-15418476D02*
X9749286Y-15408952D01*
X9749286Y-15408952D02*
X9739762Y-15399428D01*
X9920714Y-15218476D02*
X10054048Y-15218476D01*
X10054048Y-15218476D02*
X9968333Y-15418476D01*
X10120714Y-15218476D02*
X10120714Y-15256571D01*
X10196905Y-15218476D02*
X10196905Y-15256571D01*
X10459762Y-15494667D02*
X10450238Y-15485143D01*
X10450238Y-15485143D02*
X10431191Y-15456571D01*
X10431191Y-15456571D02*
X10421667Y-15437524D01*
X10421667Y-15437524D02*
X10412143Y-15408952D01*
X10412143Y-15408952D02*
X10402619Y-15361333D01*
X10402619Y-15361333D02*
X10402619Y-15323238D01*
X10402619Y-15323238D02*
X10412143Y-15275619D01*
X10412143Y-15275619D02*
X10421667Y-15247048D01*
X10421667Y-15247048D02*
X10431191Y-15228000D01*
X10431191Y-15228000D02*
X10450238Y-15199428D01*
X10450238Y-15199428D02*
X10459762Y-15189905D01*
X10564524Y-15304190D02*
X10545476Y-15294667D01*
X10545476Y-15294667D02*
X10535953Y-15285143D01*
X10535953Y-15285143D02*
X10526429Y-15266095D01*
X10526429Y-15266095D02*
X10526429Y-15256571D01*
X10526429Y-15256571D02*
X10535953Y-15237524D01*
X10535953Y-15237524D02*
X10545476Y-15228000D01*
X10545476Y-15228000D02*
X10564524Y-15218476D01*
X10564524Y-15218476D02*
X10602619Y-15218476D01*
X10602619Y-15218476D02*
X10621667Y-15228000D01*
X10621667Y-15228000D02*
X10631191Y-15237524D01*
X10631191Y-15237524D02*
X10640714Y-15256571D01*
X10640714Y-15256571D02*
X10640714Y-15266095D01*
X10640714Y-15266095D02*
X10631191Y-15285143D01*
X10631191Y-15285143D02*
X10621667Y-15294667D01*
X10621667Y-15294667D02*
X10602619Y-15304190D01*
X10602619Y-15304190D02*
X10564524Y-15304190D01*
X10564524Y-15304190D02*
X10545476Y-15313714D01*
X10545476Y-15313714D02*
X10535953Y-15323238D01*
X10535953Y-15323238D02*
X10526429Y-15342286D01*
X10526429Y-15342286D02*
X10526429Y-15380381D01*
X10526429Y-15380381D02*
X10535953Y-15399428D01*
X10535953Y-15399428D02*
X10545476Y-15408952D01*
X10545476Y-15408952D02*
X10564524Y-15418476D01*
X10564524Y-15418476D02*
X10602619Y-15418476D01*
X10602619Y-15418476D02*
X10621667Y-15408952D01*
X10621667Y-15408952D02*
X10631191Y-15399428D01*
X10631191Y-15399428D02*
X10640714Y-15380381D01*
X10640714Y-15380381D02*
X10640714Y-15342286D01*
X10640714Y-15342286D02*
X10631191Y-15323238D01*
X10631191Y-15323238D02*
X10621667Y-15313714D01*
X10621667Y-15313714D02*
X10602619Y-15304190D01*
X10846429Y-15418476D02*
X10846429Y-15218476D01*
X10932143Y-15418476D02*
X10932143Y-15313714D01*
X10932143Y-15313714D02*
X10922619Y-15294667D01*
X10922619Y-15294667D02*
X10903572Y-15285143D01*
X10903572Y-15285143D02*
X10875000Y-15285143D01*
X10875000Y-15285143D02*
X10855953Y-15294667D01*
X10855953Y-15294667D02*
X10846429Y-15304190D01*
X11055953Y-15418476D02*
X11036905Y-15408952D01*
X11036905Y-15408952D02*
X11027381Y-15399428D01*
X11027381Y-15399428D02*
X11017857Y-15380381D01*
X11017857Y-15380381D02*
X11017857Y-15323238D01*
X11017857Y-15323238D02*
X11027381Y-15304190D01*
X11027381Y-15304190D02*
X11036905Y-15294667D01*
X11036905Y-15294667D02*
X11055953Y-15285143D01*
X11055953Y-15285143D02*
X11084524Y-15285143D01*
X11084524Y-15285143D02*
X11103572Y-15294667D01*
X11103572Y-15294667D02*
X11113095Y-15304190D01*
X11113095Y-15304190D02*
X11122619Y-15323238D01*
X11122619Y-15323238D02*
X11122619Y-15380381D01*
X11122619Y-15380381D02*
X11113095Y-15399428D01*
X11113095Y-15399428D02*
X11103572Y-15408952D01*
X11103572Y-15408952D02*
X11084524Y-15418476D01*
X11084524Y-15418476D02*
X11055953Y-15418476D01*
X11236905Y-15418476D02*
X11217857Y-15408952D01*
X11217857Y-15408952D02*
X11208333Y-15389905D01*
X11208333Y-15389905D02*
X11208333Y-15218476D01*
X11389286Y-15408952D02*
X11370238Y-15418476D01*
X11370238Y-15418476D02*
X11332143Y-15418476D01*
X11332143Y-15418476D02*
X11313095Y-15408952D01*
X11313095Y-15408952D02*
X11303572Y-15389905D01*
X11303572Y-15389905D02*
X11303572Y-15313714D01*
X11303572Y-15313714D02*
X11313095Y-15294667D01*
X11313095Y-15294667D02*
X11332143Y-15285143D01*
X11332143Y-15285143D02*
X11370238Y-15285143D01*
X11370238Y-15285143D02*
X11389286Y-15294667D01*
X11389286Y-15294667D02*
X11398810Y-15313714D01*
X11398810Y-15313714D02*
X11398810Y-15332762D01*
X11398810Y-15332762D02*
X11303572Y-15351809D01*
X11475000Y-15408952D02*
X11494048Y-15418476D01*
X11494048Y-15418476D02*
X11532143Y-15418476D01*
X11532143Y-15418476D02*
X11551191Y-15408952D01*
X11551191Y-15408952D02*
X11560714Y-15389905D01*
X11560714Y-15389905D02*
X11560714Y-15380381D01*
X11560714Y-15380381D02*
X11551191Y-15361333D01*
X11551191Y-15361333D02*
X11532143Y-15351809D01*
X11532143Y-15351809D02*
X11503572Y-15351809D01*
X11503572Y-15351809D02*
X11484524Y-15342286D01*
X11484524Y-15342286D02*
X11475000Y-15323238D01*
X11475000Y-15323238D02*
X11475000Y-15313714D01*
X11475000Y-15313714D02*
X11484524Y-15294667D01*
X11484524Y-15294667D02*
X11503572Y-15285143D01*
X11503572Y-15285143D02*
X11532143Y-15285143D01*
X11532143Y-15285143D02*
X11551191Y-15294667D01*
X11627381Y-15494667D02*
X11636905Y-15485143D01*
X11636905Y-15485143D02*
X11655953Y-15456571D01*
X11655953Y-15456571D02*
X11665476Y-15437524D01*
X11665476Y-15437524D02*
X11675000Y-15408952D01*
X11675000Y-15408952D02*
X11684524Y-15361333D01*
X11684524Y-15361333D02*
X11684524Y-15323238D01*
X11684524Y-15323238D02*
X11675000Y-15275619D01*
X11675000Y-15275619D02*
X11665476Y-15247048D01*
X11665476Y-15247048D02*
X11655953Y-15228000D01*
X11655953Y-15228000D02*
X11636905Y-15199428D01*
X11636905Y-15199428D02*
X11627381Y-15189905D01*
D10*
X6995000Y-15609000D02*
G75*
G03*
X6995000Y-15609000I-50000J0D01*
G01*
D11*
X7347381Y-15682476D02*
X7233095Y-15682476D01*
X7290238Y-15682476D02*
X7290238Y-15482476D01*
X7290238Y-15482476D02*
X7271190Y-15511048D01*
X7271190Y-15511048D02*
X7252143Y-15530095D01*
X7252143Y-15530095D02*
X7233095Y-15539619D01*
X7433095Y-15663428D02*
X7442619Y-15672952D01*
X7442619Y-15672952D02*
X7433095Y-15682476D01*
X7433095Y-15682476D02*
X7423571Y-15672952D01*
X7423571Y-15672952D02*
X7433095Y-15663428D01*
X7433095Y-15663428D02*
X7433095Y-15682476D01*
X7566428Y-15482476D02*
X7585476Y-15482476D01*
X7585476Y-15482476D02*
X7604524Y-15492000D01*
X7604524Y-15492000D02*
X7614048Y-15501524D01*
X7614048Y-15501524D02*
X7623571Y-15520571D01*
X7623571Y-15520571D02*
X7633095Y-15558667D01*
X7633095Y-15558667D02*
X7633095Y-15606286D01*
X7633095Y-15606286D02*
X7623571Y-15644381D01*
X7623571Y-15644381D02*
X7614048Y-15663428D01*
X7614048Y-15663428D02*
X7604524Y-15672952D01*
X7604524Y-15672952D02*
X7585476Y-15682476D01*
X7585476Y-15682476D02*
X7566428Y-15682476D01*
X7566428Y-15682476D02*
X7547381Y-15672952D01*
X7547381Y-15672952D02*
X7537857Y-15663428D01*
X7537857Y-15663428D02*
X7528333Y-15644381D01*
X7528333Y-15644381D02*
X7518809Y-15606286D01*
X7518809Y-15606286D02*
X7518809Y-15558667D01*
X7518809Y-15558667D02*
X7528333Y-15520571D01*
X7528333Y-15520571D02*
X7537857Y-15501524D01*
X7537857Y-15501524D02*
X7547381Y-15492000D01*
X7547381Y-15492000D02*
X7566428Y-15482476D01*
X7756905Y-15482476D02*
X7775952Y-15482476D01*
X7775952Y-15482476D02*
X7795000Y-15492000D01*
X7795000Y-15492000D02*
X7804524Y-15501524D01*
X7804524Y-15501524D02*
X7814048Y-15520571D01*
X7814048Y-15520571D02*
X7823571Y-15558667D01*
X7823571Y-15558667D02*
X7823571Y-15606286D01*
X7823571Y-15606286D02*
X7814048Y-15644381D01*
X7814048Y-15644381D02*
X7804524Y-15663428D01*
X7804524Y-15663428D02*
X7795000Y-15672952D01*
X7795000Y-15672952D02*
X7775952Y-15682476D01*
X7775952Y-15682476D02*
X7756905Y-15682476D01*
X7756905Y-15682476D02*
X7737857Y-15672952D01*
X7737857Y-15672952D02*
X7728333Y-15663428D01*
X7728333Y-15663428D02*
X7718809Y-15644381D01*
X7718809Y-15644381D02*
X7709286Y-15606286D01*
X7709286Y-15606286D02*
X7709286Y-15558667D01*
X7709286Y-15558667D02*
X7718809Y-15520571D01*
X7718809Y-15520571D02*
X7728333Y-15501524D01*
X7728333Y-15501524D02*
X7737857Y-15492000D01*
X7737857Y-15492000D02*
X7756905Y-15482476D01*
X7947381Y-15482476D02*
X7966429Y-15482476D01*
X7966429Y-15482476D02*
X7985476Y-15492000D01*
X7985476Y-15492000D02*
X7995000Y-15501524D01*
X7995000Y-15501524D02*
X8004524Y-15520571D01*
X8004524Y-15520571D02*
X8014048Y-15558667D01*
X8014048Y-15558667D02*
X8014048Y-15606286D01*
X8014048Y-15606286D02*
X8004524Y-15644381D01*
X8004524Y-15644381D02*
X7995000Y-15663428D01*
X7995000Y-15663428D02*
X7985476Y-15672952D01*
X7985476Y-15672952D02*
X7966429Y-15682476D01*
X7966429Y-15682476D02*
X7947381Y-15682476D01*
X7947381Y-15682476D02*
X7928333Y-15672952D01*
X7928333Y-15672952D02*
X7918809Y-15663428D01*
X7918809Y-15663428D02*
X7909286Y-15644381D01*
X7909286Y-15644381D02*
X7899762Y-15606286D01*
X7899762Y-15606286D02*
X7899762Y-15558667D01*
X7899762Y-15558667D02*
X7909286Y-15520571D01*
X7909286Y-15520571D02*
X7918809Y-15501524D01*
X7918809Y-15501524D02*
X7928333Y-15492000D01*
X7928333Y-15492000D02*
X7947381Y-15482476D01*
X8099762Y-15682476D02*
X8099762Y-15549143D01*
X8099762Y-15568190D02*
X8109286Y-15558667D01*
X8109286Y-15558667D02*
X8128333Y-15549143D01*
X8128333Y-15549143D02*
X8156905Y-15549143D01*
X8156905Y-15549143D02*
X8175952Y-15558667D01*
X8175952Y-15558667D02*
X8185476Y-15577714D01*
X8185476Y-15577714D02*
X8185476Y-15682476D01*
X8185476Y-15577714D02*
X8195000Y-15558667D01*
X8195000Y-15558667D02*
X8214048Y-15549143D01*
X8214048Y-15549143D02*
X8242619Y-15549143D01*
X8242619Y-15549143D02*
X8261667Y-15558667D01*
X8261667Y-15558667D02*
X8271190Y-15577714D01*
X8271190Y-15577714D02*
X8271190Y-15682476D01*
X8366429Y-15682476D02*
X8366429Y-15549143D01*
X8366429Y-15568190D02*
X8375952Y-15558667D01*
X8375952Y-15558667D02*
X8395000Y-15549143D01*
X8395000Y-15549143D02*
X8423572Y-15549143D01*
X8423572Y-15549143D02*
X8442619Y-15558667D01*
X8442619Y-15558667D02*
X8452143Y-15577714D01*
X8452143Y-15577714D02*
X8452143Y-15682476D01*
X8452143Y-15577714D02*
X8461667Y-15558667D01*
X8461667Y-15558667D02*
X8480714Y-15549143D01*
X8480714Y-15549143D02*
X8509286Y-15549143D01*
X8509286Y-15549143D02*
X8528333Y-15558667D01*
X8528333Y-15558667D02*
X8537857Y-15577714D01*
X8537857Y-15577714D02*
X8537857Y-15682476D01*
X8895952Y-15472952D02*
X8724524Y-15730095D01*
X9120714Y-15482476D02*
X9139762Y-15482476D01*
X9139762Y-15482476D02*
X9158810Y-15492000D01*
X9158810Y-15492000D02*
X9168333Y-15501524D01*
X9168333Y-15501524D02*
X9177857Y-15520571D01*
X9177857Y-15520571D02*
X9187381Y-15558667D01*
X9187381Y-15558667D02*
X9187381Y-15606286D01*
X9187381Y-15606286D02*
X9177857Y-15644381D01*
X9177857Y-15644381D02*
X9168333Y-15663428D01*
X9168333Y-15663428D02*
X9158810Y-15672952D01*
X9158810Y-15672952D02*
X9139762Y-15682476D01*
X9139762Y-15682476D02*
X9120714Y-15682476D01*
X9120714Y-15682476D02*
X9101667Y-15672952D01*
X9101667Y-15672952D02*
X9092143Y-15663428D01*
X9092143Y-15663428D02*
X9082619Y-15644381D01*
X9082619Y-15644381D02*
X9073095Y-15606286D01*
X9073095Y-15606286D02*
X9073095Y-15558667D01*
X9073095Y-15558667D02*
X9082619Y-15520571D01*
X9082619Y-15520571D02*
X9092143Y-15501524D01*
X9092143Y-15501524D02*
X9101667Y-15492000D01*
X9101667Y-15492000D02*
X9120714Y-15482476D01*
X9273095Y-15663428D02*
X9282619Y-15672952D01*
X9282619Y-15672952D02*
X9273095Y-15682476D01*
X9273095Y-15682476D02*
X9263572Y-15672952D01*
X9263572Y-15672952D02*
X9273095Y-15663428D01*
X9273095Y-15663428D02*
X9273095Y-15682476D01*
X9406429Y-15482476D02*
X9425476Y-15482476D01*
X9425476Y-15482476D02*
X9444524Y-15492000D01*
X9444524Y-15492000D02*
X9454048Y-15501524D01*
X9454048Y-15501524D02*
X9463572Y-15520571D01*
X9463572Y-15520571D02*
X9473095Y-15558667D01*
X9473095Y-15558667D02*
X9473095Y-15606286D01*
X9473095Y-15606286D02*
X9463572Y-15644381D01*
X9463572Y-15644381D02*
X9454048Y-15663428D01*
X9454048Y-15663428D02*
X9444524Y-15672952D01*
X9444524Y-15672952D02*
X9425476Y-15682476D01*
X9425476Y-15682476D02*
X9406429Y-15682476D01*
X9406429Y-15682476D02*
X9387381Y-15672952D01*
X9387381Y-15672952D02*
X9377857Y-15663428D01*
X9377857Y-15663428D02*
X9368333Y-15644381D01*
X9368333Y-15644381D02*
X9358810Y-15606286D01*
X9358810Y-15606286D02*
X9358810Y-15558667D01*
X9358810Y-15558667D02*
X9368333Y-15520571D01*
X9368333Y-15520571D02*
X9377857Y-15501524D01*
X9377857Y-15501524D02*
X9387381Y-15492000D01*
X9387381Y-15492000D02*
X9406429Y-15482476D01*
X9539762Y-15482476D02*
X9663572Y-15482476D01*
X9663572Y-15482476D02*
X9596905Y-15558667D01*
X9596905Y-15558667D02*
X9625476Y-15558667D01*
X9625476Y-15558667D02*
X9644524Y-15568190D01*
X9644524Y-15568190D02*
X9654048Y-15577714D01*
X9654048Y-15577714D02*
X9663572Y-15596762D01*
X9663572Y-15596762D02*
X9663572Y-15644381D01*
X9663572Y-15644381D02*
X9654048Y-15663428D01*
X9654048Y-15663428D02*
X9644524Y-15672952D01*
X9644524Y-15672952D02*
X9625476Y-15682476D01*
X9625476Y-15682476D02*
X9568333Y-15682476D01*
X9568333Y-15682476D02*
X9549286Y-15672952D01*
X9549286Y-15672952D02*
X9539762Y-15663428D01*
X9758810Y-15682476D02*
X9796905Y-15682476D01*
X9796905Y-15682476D02*
X9815953Y-15672952D01*
X9815953Y-15672952D02*
X9825476Y-15663428D01*
X9825476Y-15663428D02*
X9844524Y-15634857D01*
X9844524Y-15634857D02*
X9854048Y-15596762D01*
X9854048Y-15596762D02*
X9854048Y-15520571D01*
X9854048Y-15520571D02*
X9844524Y-15501524D01*
X9844524Y-15501524D02*
X9835000Y-15492000D01*
X9835000Y-15492000D02*
X9815953Y-15482476D01*
X9815953Y-15482476D02*
X9777857Y-15482476D01*
X9777857Y-15482476D02*
X9758810Y-15492000D01*
X9758810Y-15492000D02*
X9749286Y-15501524D01*
X9749286Y-15501524D02*
X9739762Y-15520571D01*
X9739762Y-15520571D02*
X9739762Y-15568190D01*
X9739762Y-15568190D02*
X9749286Y-15587238D01*
X9749286Y-15587238D02*
X9758810Y-15596762D01*
X9758810Y-15596762D02*
X9777857Y-15606286D01*
X9777857Y-15606286D02*
X9815953Y-15606286D01*
X9815953Y-15606286D02*
X9835000Y-15596762D01*
X9835000Y-15596762D02*
X9844524Y-15587238D01*
X9844524Y-15587238D02*
X9854048Y-15568190D01*
X10025476Y-15549143D02*
X10025476Y-15682476D01*
X9977857Y-15472952D02*
X9930238Y-15615809D01*
X9930238Y-15615809D02*
X10054048Y-15615809D01*
X10120714Y-15482476D02*
X10120714Y-15520571D01*
X10196905Y-15482476D02*
X10196905Y-15520571D01*
X10459762Y-15758667D02*
X10450238Y-15749143D01*
X10450238Y-15749143D02*
X10431191Y-15720571D01*
X10431191Y-15720571D02*
X10421667Y-15701524D01*
X10421667Y-15701524D02*
X10412143Y-15672952D01*
X10412143Y-15672952D02*
X10402619Y-15625333D01*
X10402619Y-15625333D02*
X10402619Y-15587238D01*
X10402619Y-15587238D02*
X10412143Y-15539619D01*
X10412143Y-15539619D02*
X10421667Y-15511048D01*
X10421667Y-15511048D02*
X10431191Y-15492000D01*
X10431191Y-15492000D02*
X10450238Y-15463428D01*
X10450238Y-15463428D02*
X10459762Y-15453905D01*
X10621667Y-15549143D02*
X10621667Y-15682476D01*
X10574048Y-15472952D02*
X10526429Y-15615809D01*
X10526429Y-15615809D02*
X10650238Y-15615809D01*
X10846429Y-15682476D02*
X10846429Y-15482476D01*
X10932143Y-15682476D02*
X10932143Y-15577714D01*
X10932143Y-15577714D02*
X10922619Y-15558667D01*
X10922619Y-15558667D02*
X10903572Y-15549143D01*
X10903572Y-15549143D02*
X10875000Y-15549143D01*
X10875000Y-15549143D02*
X10855953Y-15558667D01*
X10855953Y-15558667D02*
X10846429Y-15568190D01*
X11055953Y-15682476D02*
X11036905Y-15672952D01*
X11036905Y-15672952D02*
X11027381Y-15663428D01*
X11027381Y-15663428D02*
X11017857Y-15644381D01*
X11017857Y-15644381D02*
X11017857Y-15587238D01*
X11017857Y-15587238D02*
X11027381Y-15568190D01*
X11027381Y-15568190D02*
X11036905Y-15558667D01*
X11036905Y-15558667D02*
X11055953Y-15549143D01*
X11055953Y-15549143D02*
X11084524Y-15549143D01*
X11084524Y-15549143D02*
X11103572Y-15558667D01*
X11103572Y-15558667D02*
X11113095Y-15568190D01*
X11113095Y-15568190D02*
X11122619Y-15587238D01*
X11122619Y-15587238D02*
X11122619Y-15644381D01*
X11122619Y-15644381D02*
X11113095Y-15663428D01*
X11113095Y-15663428D02*
X11103572Y-15672952D01*
X11103572Y-15672952D02*
X11084524Y-15682476D01*
X11084524Y-15682476D02*
X11055953Y-15682476D01*
X11236905Y-15682476D02*
X11217857Y-15672952D01*
X11217857Y-15672952D02*
X11208333Y-15653905D01*
X11208333Y-15653905D02*
X11208333Y-15482476D01*
X11389286Y-15672952D02*
X11370238Y-15682476D01*
X11370238Y-15682476D02*
X11332143Y-15682476D01*
X11332143Y-15682476D02*
X11313095Y-15672952D01*
X11313095Y-15672952D02*
X11303572Y-15653905D01*
X11303572Y-15653905D02*
X11303572Y-15577714D01*
X11303572Y-15577714D02*
X11313095Y-15558667D01*
X11313095Y-15558667D02*
X11332143Y-15549143D01*
X11332143Y-15549143D02*
X11370238Y-15549143D01*
X11370238Y-15549143D02*
X11389286Y-15558667D01*
X11389286Y-15558667D02*
X11398810Y-15577714D01*
X11398810Y-15577714D02*
X11398810Y-15596762D01*
X11398810Y-15596762D02*
X11303572Y-15615809D01*
X11475000Y-15672952D02*
X11494048Y-15682476D01*
X11494048Y-15682476D02*
X11532143Y-15682476D01*
X11532143Y-15682476D02*
X11551191Y-15672952D01*
X11551191Y-15672952D02*
X11560714Y-15653905D01*
X11560714Y-15653905D02*
X11560714Y-15644381D01*
X11560714Y-15644381D02*
X11551191Y-15625333D01*
X11551191Y-15625333D02*
X11532143Y-15615809D01*
X11532143Y-15615809D02*
X11503572Y-15615809D01*
X11503572Y-15615809D02*
X11484524Y-15606286D01*
X11484524Y-15606286D02*
X11475000Y-15587238D01*
X11475000Y-15587238D02*
X11475000Y-15577714D01*
X11475000Y-15577714D02*
X11484524Y-15558667D01*
X11484524Y-15558667D02*
X11503572Y-15549143D01*
X11503572Y-15549143D02*
X11532143Y-15549143D01*
X11532143Y-15549143D02*
X11551191Y-15558667D01*
X11627381Y-15758667D02*
X11636905Y-15749143D01*
X11636905Y-15749143D02*
X11655953Y-15720571D01*
X11655953Y-15720571D02*
X11665476Y-15701524D01*
X11665476Y-15701524D02*
X11675000Y-15672952D01*
X11675000Y-15672952D02*
X11684524Y-15625333D01*
X11684524Y-15625333D02*
X11684524Y-15587238D01*
X11684524Y-15587238D02*
X11675000Y-15539619D01*
X11675000Y-15539619D02*
X11665476Y-15511048D01*
X11665476Y-15511048D02*
X11655953Y-15492000D01*
X11655953Y-15492000D02*
X11636905Y-15463428D01*
X11636905Y-15463428D02*
X11627381Y-15453905D01*
X6895000Y-15773000D02*
X6895000Y-15973000D01*
X6795000Y-15873000D02*
X6995000Y-15873000D01*
X7233095Y-15765524D02*
X7242619Y-15756000D01*
X7242619Y-15756000D02*
X7261667Y-15746476D01*
X7261667Y-15746476D02*
X7309286Y-15746476D01*
X7309286Y-15746476D02*
X7328333Y-15756000D01*
X7328333Y-15756000D02*
X7337857Y-15765524D01*
X7337857Y-15765524D02*
X7347381Y-15784571D01*
X7347381Y-15784571D02*
X7347381Y-15803619D01*
X7347381Y-15803619D02*
X7337857Y-15832190D01*
X7337857Y-15832190D02*
X7223571Y-15946476D01*
X7223571Y-15946476D02*
X7347381Y-15946476D01*
X7433095Y-15927428D02*
X7442619Y-15936952D01*
X7442619Y-15936952D02*
X7433095Y-15946476D01*
X7433095Y-15946476D02*
X7423571Y-15936952D01*
X7423571Y-15936952D02*
X7433095Y-15927428D01*
X7433095Y-15927428D02*
X7433095Y-15946476D01*
X7509286Y-15746476D02*
X7642619Y-15746476D01*
X7642619Y-15746476D02*
X7556905Y-15946476D01*
X7756905Y-15746476D02*
X7775952Y-15746476D01*
X7775952Y-15746476D02*
X7795000Y-15756000D01*
X7795000Y-15756000D02*
X7804524Y-15765524D01*
X7804524Y-15765524D02*
X7814048Y-15784571D01*
X7814048Y-15784571D02*
X7823571Y-15822667D01*
X7823571Y-15822667D02*
X7823571Y-15870286D01*
X7823571Y-15870286D02*
X7814048Y-15908381D01*
X7814048Y-15908381D02*
X7804524Y-15927428D01*
X7804524Y-15927428D02*
X7795000Y-15936952D01*
X7795000Y-15936952D02*
X7775952Y-15946476D01*
X7775952Y-15946476D02*
X7756905Y-15946476D01*
X7756905Y-15946476D02*
X7737857Y-15936952D01*
X7737857Y-15936952D02*
X7728333Y-15927428D01*
X7728333Y-15927428D02*
X7718809Y-15908381D01*
X7718809Y-15908381D02*
X7709286Y-15870286D01*
X7709286Y-15870286D02*
X7709286Y-15822667D01*
X7709286Y-15822667D02*
X7718809Y-15784571D01*
X7718809Y-15784571D02*
X7728333Y-15765524D01*
X7728333Y-15765524D02*
X7737857Y-15756000D01*
X7737857Y-15756000D02*
X7756905Y-15746476D01*
X7947381Y-15746476D02*
X7966429Y-15746476D01*
X7966429Y-15746476D02*
X7985476Y-15756000D01*
X7985476Y-15756000D02*
X7995000Y-15765524D01*
X7995000Y-15765524D02*
X8004524Y-15784571D01*
X8004524Y-15784571D02*
X8014048Y-15822667D01*
X8014048Y-15822667D02*
X8014048Y-15870286D01*
X8014048Y-15870286D02*
X8004524Y-15908381D01*
X8004524Y-15908381D02*
X7995000Y-15927428D01*
X7995000Y-15927428D02*
X7985476Y-15936952D01*
X7985476Y-15936952D02*
X7966429Y-15946476D01*
X7966429Y-15946476D02*
X7947381Y-15946476D01*
X7947381Y-15946476D02*
X7928333Y-15936952D01*
X7928333Y-15936952D02*
X7918809Y-15927428D01*
X7918809Y-15927428D02*
X7909286Y-15908381D01*
X7909286Y-15908381D02*
X7899762Y-15870286D01*
X7899762Y-15870286D02*
X7899762Y-15822667D01*
X7899762Y-15822667D02*
X7909286Y-15784571D01*
X7909286Y-15784571D02*
X7918809Y-15765524D01*
X7918809Y-15765524D02*
X7928333Y-15756000D01*
X7928333Y-15756000D02*
X7947381Y-15746476D01*
X8099762Y-15946476D02*
X8099762Y-15813143D01*
X8099762Y-15832190D02*
X8109286Y-15822667D01*
X8109286Y-15822667D02*
X8128333Y-15813143D01*
X8128333Y-15813143D02*
X8156905Y-15813143D01*
X8156905Y-15813143D02*
X8175952Y-15822667D01*
X8175952Y-15822667D02*
X8185476Y-15841714D01*
X8185476Y-15841714D02*
X8185476Y-15946476D01*
X8185476Y-15841714D02*
X8195000Y-15822667D01*
X8195000Y-15822667D02*
X8214048Y-15813143D01*
X8214048Y-15813143D02*
X8242619Y-15813143D01*
X8242619Y-15813143D02*
X8261667Y-15822667D01*
X8261667Y-15822667D02*
X8271190Y-15841714D01*
X8271190Y-15841714D02*
X8271190Y-15946476D01*
X8366429Y-15946476D02*
X8366429Y-15813143D01*
X8366429Y-15832190D02*
X8375952Y-15822667D01*
X8375952Y-15822667D02*
X8395000Y-15813143D01*
X8395000Y-15813143D02*
X8423572Y-15813143D01*
X8423572Y-15813143D02*
X8442619Y-15822667D01*
X8442619Y-15822667D02*
X8452143Y-15841714D01*
X8452143Y-15841714D02*
X8452143Y-15946476D01*
X8452143Y-15841714D02*
X8461667Y-15822667D01*
X8461667Y-15822667D02*
X8480714Y-15813143D01*
X8480714Y-15813143D02*
X8509286Y-15813143D01*
X8509286Y-15813143D02*
X8528333Y-15822667D01*
X8528333Y-15822667D02*
X8537857Y-15841714D01*
X8537857Y-15841714D02*
X8537857Y-15946476D01*
X8895952Y-15736952D02*
X8724524Y-15994095D01*
X9120714Y-15746476D02*
X9139762Y-15746476D01*
X9139762Y-15746476D02*
X9158810Y-15756000D01*
X9158810Y-15756000D02*
X9168333Y-15765524D01*
X9168333Y-15765524D02*
X9177857Y-15784571D01*
X9177857Y-15784571D02*
X9187381Y-15822667D01*
X9187381Y-15822667D02*
X9187381Y-15870286D01*
X9187381Y-15870286D02*
X9177857Y-15908381D01*
X9177857Y-15908381D02*
X9168333Y-15927428D01*
X9168333Y-15927428D02*
X9158810Y-15936952D01*
X9158810Y-15936952D02*
X9139762Y-15946476D01*
X9139762Y-15946476D02*
X9120714Y-15946476D01*
X9120714Y-15946476D02*
X9101667Y-15936952D01*
X9101667Y-15936952D02*
X9092143Y-15927428D01*
X9092143Y-15927428D02*
X9082619Y-15908381D01*
X9082619Y-15908381D02*
X9073095Y-15870286D01*
X9073095Y-15870286D02*
X9073095Y-15822667D01*
X9073095Y-15822667D02*
X9082619Y-15784571D01*
X9082619Y-15784571D02*
X9092143Y-15765524D01*
X9092143Y-15765524D02*
X9101667Y-15756000D01*
X9101667Y-15756000D02*
X9120714Y-15746476D01*
X9273095Y-15927428D02*
X9282619Y-15936952D01*
X9282619Y-15936952D02*
X9273095Y-15946476D01*
X9273095Y-15946476D02*
X9263572Y-15936952D01*
X9263572Y-15936952D02*
X9273095Y-15927428D01*
X9273095Y-15927428D02*
X9273095Y-15946476D01*
X9473095Y-15946476D02*
X9358810Y-15946476D01*
X9415952Y-15946476D02*
X9415952Y-15746476D01*
X9415952Y-15746476D02*
X9396905Y-15775048D01*
X9396905Y-15775048D02*
X9377857Y-15794095D01*
X9377857Y-15794095D02*
X9358810Y-15803619D01*
X9596905Y-15746476D02*
X9615953Y-15746476D01*
X9615953Y-15746476D02*
X9635000Y-15756000D01*
X9635000Y-15756000D02*
X9644524Y-15765524D01*
X9644524Y-15765524D02*
X9654048Y-15784571D01*
X9654048Y-15784571D02*
X9663572Y-15822667D01*
X9663572Y-15822667D02*
X9663572Y-15870286D01*
X9663572Y-15870286D02*
X9654048Y-15908381D01*
X9654048Y-15908381D02*
X9644524Y-15927428D01*
X9644524Y-15927428D02*
X9635000Y-15936952D01*
X9635000Y-15936952D02*
X9615953Y-15946476D01*
X9615953Y-15946476D02*
X9596905Y-15946476D01*
X9596905Y-15946476D02*
X9577857Y-15936952D01*
X9577857Y-15936952D02*
X9568333Y-15927428D01*
X9568333Y-15927428D02*
X9558810Y-15908381D01*
X9558810Y-15908381D02*
X9549286Y-15870286D01*
X9549286Y-15870286D02*
X9549286Y-15822667D01*
X9549286Y-15822667D02*
X9558810Y-15784571D01*
X9558810Y-15784571D02*
X9568333Y-15765524D01*
X9568333Y-15765524D02*
X9577857Y-15756000D01*
X9577857Y-15756000D02*
X9596905Y-15746476D01*
X9835000Y-15746476D02*
X9796905Y-15746476D01*
X9796905Y-15746476D02*
X9777857Y-15756000D01*
X9777857Y-15756000D02*
X9768333Y-15765524D01*
X9768333Y-15765524D02*
X9749286Y-15794095D01*
X9749286Y-15794095D02*
X9739762Y-15832190D01*
X9739762Y-15832190D02*
X9739762Y-15908381D01*
X9739762Y-15908381D02*
X9749286Y-15927428D01*
X9749286Y-15927428D02*
X9758810Y-15936952D01*
X9758810Y-15936952D02*
X9777857Y-15946476D01*
X9777857Y-15946476D02*
X9815953Y-15946476D01*
X9815953Y-15946476D02*
X9835000Y-15936952D01*
X9835000Y-15936952D02*
X9844524Y-15927428D01*
X9844524Y-15927428D02*
X9854048Y-15908381D01*
X9854048Y-15908381D02*
X9854048Y-15860762D01*
X9854048Y-15860762D02*
X9844524Y-15841714D01*
X9844524Y-15841714D02*
X9835000Y-15832190D01*
X9835000Y-15832190D02*
X9815953Y-15822667D01*
X9815953Y-15822667D02*
X9777857Y-15822667D01*
X9777857Y-15822667D02*
X9758810Y-15832190D01*
X9758810Y-15832190D02*
X9749286Y-15841714D01*
X9749286Y-15841714D02*
X9739762Y-15860762D01*
X9920714Y-15746476D02*
X10044524Y-15746476D01*
X10044524Y-15746476D02*
X9977857Y-15822667D01*
X9977857Y-15822667D02*
X10006429Y-15822667D01*
X10006429Y-15822667D02*
X10025476Y-15832190D01*
X10025476Y-15832190D02*
X10035000Y-15841714D01*
X10035000Y-15841714D02*
X10044524Y-15860762D01*
X10044524Y-15860762D02*
X10044524Y-15908381D01*
X10044524Y-15908381D02*
X10035000Y-15927428D01*
X10035000Y-15927428D02*
X10025476Y-15936952D01*
X10025476Y-15936952D02*
X10006429Y-15946476D01*
X10006429Y-15946476D02*
X9949286Y-15946476D01*
X9949286Y-15946476D02*
X9930238Y-15936952D01*
X9930238Y-15936952D02*
X9920714Y-15927428D01*
X10120714Y-15746476D02*
X10120714Y-15784571D01*
X10196905Y-15746476D02*
X10196905Y-15784571D01*
X10459762Y-16022667D02*
X10450238Y-16013143D01*
X10450238Y-16013143D02*
X10431191Y-15984571D01*
X10431191Y-15984571D02*
X10421667Y-15965524D01*
X10421667Y-15965524D02*
X10412143Y-15936952D01*
X10412143Y-15936952D02*
X10402619Y-15889333D01*
X10402619Y-15889333D02*
X10402619Y-15851238D01*
X10402619Y-15851238D02*
X10412143Y-15803619D01*
X10412143Y-15803619D02*
X10421667Y-15775048D01*
X10421667Y-15775048D02*
X10431191Y-15756000D01*
X10431191Y-15756000D02*
X10450238Y-15727428D01*
X10450238Y-15727428D02*
X10459762Y-15717905D01*
X10621667Y-15813143D02*
X10621667Y-15946476D01*
X10574048Y-15736952D02*
X10526429Y-15879809D01*
X10526429Y-15879809D02*
X10650238Y-15879809D01*
X10846429Y-15946476D02*
X10846429Y-15746476D01*
X10932143Y-15946476D02*
X10932143Y-15841714D01*
X10932143Y-15841714D02*
X10922619Y-15822667D01*
X10922619Y-15822667D02*
X10903572Y-15813143D01*
X10903572Y-15813143D02*
X10875000Y-15813143D01*
X10875000Y-15813143D02*
X10855953Y-15822667D01*
X10855953Y-15822667D02*
X10846429Y-15832190D01*
X11055953Y-15946476D02*
X11036905Y-15936952D01*
X11036905Y-15936952D02*
X11027381Y-15927428D01*
X11027381Y-15927428D02*
X11017857Y-15908381D01*
X11017857Y-15908381D02*
X11017857Y-15851238D01*
X11017857Y-15851238D02*
X11027381Y-15832190D01*
X11027381Y-15832190D02*
X11036905Y-15822667D01*
X11036905Y-15822667D02*
X11055953Y-15813143D01*
X11055953Y-15813143D02*
X11084524Y-15813143D01*
X11084524Y-15813143D02*
X11103572Y-15822667D01*
X11103572Y-15822667D02*
X11113095Y-15832190D01*
X11113095Y-15832190D02*
X11122619Y-15851238D01*
X11122619Y-15851238D02*
X11122619Y-15908381D01*
X11122619Y-15908381D02*
X11113095Y-15927428D01*
X11113095Y-15927428D02*
X11103572Y-15936952D01*
X11103572Y-15936952D02*
X11084524Y-15946476D01*
X11084524Y-15946476D02*
X11055953Y-15946476D01*
X11236905Y-15946476D02*
X11217857Y-15936952D01*
X11217857Y-15936952D02*
X11208333Y-15917905D01*
X11208333Y-15917905D02*
X11208333Y-15746476D01*
X11389286Y-15936952D02*
X11370238Y-15946476D01*
X11370238Y-15946476D02*
X11332143Y-15946476D01*
X11332143Y-15946476D02*
X11313095Y-15936952D01*
X11313095Y-15936952D02*
X11303572Y-15917905D01*
X11303572Y-15917905D02*
X11303572Y-15841714D01*
X11303572Y-15841714D02*
X11313095Y-15822667D01*
X11313095Y-15822667D02*
X11332143Y-15813143D01*
X11332143Y-15813143D02*
X11370238Y-15813143D01*
X11370238Y-15813143D02*
X11389286Y-15822667D01*
X11389286Y-15822667D02*
X11398810Y-15841714D01*
X11398810Y-15841714D02*
X11398810Y-15860762D01*
X11398810Y-15860762D02*
X11303572Y-15879809D01*
X11475000Y-15936952D02*
X11494048Y-15946476D01*
X11494048Y-15946476D02*
X11532143Y-15946476D01*
X11532143Y-15946476D02*
X11551191Y-15936952D01*
X11551191Y-15936952D02*
X11560714Y-15917905D01*
X11560714Y-15917905D02*
X11560714Y-15908381D01*
X11560714Y-15908381D02*
X11551191Y-15889333D01*
X11551191Y-15889333D02*
X11532143Y-15879809D01*
X11532143Y-15879809D02*
X11503572Y-15879809D01*
X11503572Y-15879809D02*
X11484524Y-15870286D01*
X11484524Y-15870286D02*
X11475000Y-15851238D01*
X11475000Y-15851238D02*
X11475000Y-15841714D01*
X11475000Y-15841714D02*
X11484524Y-15822667D01*
X11484524Y-15822667D02*
X11503572Y-15813143D01*
X11503572Y-15813143D02*
X11532143Y-15813143D01*
X11532143Y-15813143D02*
X11551191Y-15822667D01*
X11627381Y-16022667D02*
X11636905Y-16013143D01*
X11636905Y-16013143D02*
X11655953Y-15984571D01*
X11655953Y-15984571D02*
X11665476Y-15965524D01*
X11665476Y-15965524D02*
X11675000Y-15936952D01*
X11675000Y-15936952D02*
X11684524Y-15889333D01*
X11684524Y-15889333D02*
X11684524Y-15851238D01*
X11684524Y-15851238D02*
X11675000Y-15803619D01*
X11675000Y-15803619D02*
X11665476Y-15775048D01*
X11665476Y-15775048D02*
X11655953Y-15756000D01*
X11655953Y-15756000D02*
X11636905Y-15727428D01*
X11636905Y-15727428D02*
X11627381Y-15717905D01*
X6965711Y-16263711D02*
X6965711Y-16122289D01*
X6824289Y-16122289D01*
X6824289Y-16263711D01*
X6965711Y-16263711D01*
X7223571Y-16066476D02*
X7347381Y-16066476D01*
X7347381Y-16066476D02*
X7280714Y-16142667D01*
X7280714Y-16142667D02*
X7309286Y-16142667D01*
X7309286Y-16142667D02*
X7328333Y-16152190D01*
X7328333Y-16152190D02*
X7337857Y-16161714D01*
X7337857Y-16161714D02*
X7347381Y-16180762D01*
X7347381Y-16180762D02*
X7347381Y-16228381D01*
X7347381Y-16228381D02*
X7337857Y-16247428D01*
X7337857Y-16247428D02*
X7328333Y-16256952D01*
X7328333Y-16256952D02*
X7309286Y-16266476D01*
X7309286Y-16266476D02*
X7252143Y-16266476D01*
X7252143Y-16266476D02*
X7233095Y-16256952D01*
X7233095Y-16256952D02*
X7223571Y-16247428D01*
X7433095Y-16247428D02*
X7442619Y-16256952D01*
X7442619Y-16256952D02*
X7433095Y-16266476D01*
X7433095Y-16266476D02*
X7423571Y-16256952D01*
X7423571Y-16256952D02*
X7433095Y-16247428D01*
X7433095Y-16247428D02*
X7433095Y-16266476D01*
X7509286Y-16066476D02*
X7642619Y-16066476D01*
X7642619Y-16066476D02*
X7556905Y-16266476D01*
X7756905Y-16066476D02*
X7775952Y-16066476D01*
X7775952Y-16066476D02*
X7795000Y-16076000D01*
X7795000Y-16076000D02*
X7804524Y-16085524D01*
X7804524Y-16085524D02*
X7814048Y-16104571D01*
X7814048Y-16104571D02*
X7823571Y-16142667D01*
X7823571Y-16142667D02*
X7823571Y-16190286D01*
X7823571Y-16190286D02*
X7814048Y-16228381D01*
X7814048Y-16228381D02*
X7804524Y-16247428D01*
X7804524Y-16247428D02*
X7795000Y-16256952D01*
X7795000Y-16256952D02*
X7775952Y-16266476D01*
X7775952Y-16266476D02*
X7756905Y-16266476D01*
X7756905Y-16266476D02*
X7737857Y-16256952D01*
X7737857Y-16256952D02*
X7728333Y-16247428D01*
X7728333Y-16247428D02*
X7718809Y-16228381D01*
X7718809Y-16228381D02*
X7709286Y-16190286D01*
X7709286Y-16190286D02*
X7709286Y-16142667D01*
X7709286Y-16142667D02*
X7718809Y-16104571D01*
X7718809Y-16104571D02*
X7728333Y-16085524D01*
X7728333Y-16085524D02*
X7737857Y-16076000D01*
X7737857Y-16076000D02*
X7756905Y-16066476D01*
X7947381Y-16066476D02*
X7966429Y-16066476D01*
X7966429Y-16066476D02*
X7985476Y-16076000D01*
X7985476Y-16076000D02*
X7995000Y-16085524D01*
X7995000Y-16085524D02*
X8004524Y-16104571D01*
X8004524Y-16104571D02*
X8014048Y-16142667D01*
X8014048Y-16142667D02*
X8014048Y-16190286D01*
X8014048Y-16190286D02*
X8004524Y-16228381D01*
X8004524Y-16228381D02*
X7995000Y-16247428D01*
X7995000Y-16247428D02*
X7985476Y-16256952D01*
X7985476Y-16256952D02*
X7966429Y-16266476D01*
X7966429Y-16266476D02*
X7947381Y-16266476D01*
X7947381Y-16266476D02*
X7928333Y-16256952D01*
X7928333Y-16256952D02*
X7918809Y-16247428D01*
X7918809Y-16247428D02*
X7909286Y-16228381D01*
X7909286Y-16228381D02*
X7899762Y-16190286D01*
X7899762Y-16190286D02*
X7899762Y-16142667D01*
X7899762Y-16142667D02*
X7909286Y-16104571D01*
X7909286Y-16104571D02*
X7918809Y-16085524D01*
X7918809Y-16085524D02*
X7928333Y-16076000D01*
X7928333Y-16076000D02*
X7947381Y-16066476D01*
X8099762Y-16266476D02*
X8099762Y-16133143D01*
X8099762Y-16152190D02*
X8109286Y-16142667D01*
X8109286Y-16142667D02*
X8128333Y-16133143D01*
X8128333Y-16133143D02*
X8156905Y-16133143D01*
X8156905Y-16133143D02*
X8175952Y-16142667D01*
X8175952Y-16142667D02*
X8185476Y-16161714D01*
X8185476Y-16161714D02*
X8185476Y-16266476D01*
X8185476Y-16161714D02*
X8195000Y-16142667D01*
X8195000Y-16142667D02*
X8214048Y-16133143D01*
X8214048Y-16133143D02*
X8242619Y-16133143D01*
X8242619Y-16133143D02*
X8261667Y-16142667D01*
X8261667Y-16142667D02*
X8271190Y-16161714D01*
X8271190Y-16161714D02*
X8271190Y-16266476D01*
X8366429Y-16266476D02*
X8366429Y-16133143D01*
X8366429Y-16152190D02*
X8375952Y-16142667D01*
X8375952Y-16142667D02*
X8395000Y-16133143D01*
X8395000Y-16133143D02*
X8423572Y-16133143D01*
X8423572Y-16133143D02*
X8442619Y-16142667D01*
X8442619Y-16142667D02*
X8452143Y-16161714D01*
X8452143Y-16161714D02*
X8452143Y-16266476D01*
X8452143Y-16161714D02*
X8461667Y-16142667D01*
X8461667Y-16142667D02*
X8480714Y-16133143D01*
X8480714Y-16133143D02*
X8509286Y-16133143D01*
X8509286Y-16133143D02*
X8528333Y-16142667D01*
X8528333Y-16142667D02*
X8537857Y-16161714D01*
X8537857Y-16161714D02*
X8537857Y-16266476D01*
X8895952Y-16056952D02*
X8724524Y-16314095D01*
X9120714Y-16066476D02*
X9139762Y-16066476D01*
X9139762Y-16066476D02*
X9158810Y-16076000D01*
X9158810Y-16076000D02*
X9168333Y-16085524D01*
X9168333Y-16085524D02*
X9177857Y-16104571D01*
X9177857Y-16104571D02*
X9187381Y-16142667D01*
X9187381Y-16142667D02*
X9187381Y-16190286D01*
X9187381Y-16190286D02*
X9177857Y-16228381D01*
X9177857Y-16228381D02*
X9168333Y-16247428D01*
X9168333Y-16247428D02*
X9158810Y-16256952D01*
X9158810Y-16256952D02*
X9139762Y-16266476D01*
X9139762Y-16266476D02*
X9120714Y-16266476D01*
X9120714Y-16266476D02*
X9101667Y-16256952D01*
X9101667Y-16256952D02*
X9092143Y-16247428D01*
X9092143Y-16247428D02*
X9082619Y-16228381D01*
X9082619Y-16228381D02*
X9073095Y-16190286D01*
X9073095Y-16190286D02*
X9073095Y-16142667D01*
X9073095Y-16142667D02*
X9082619Y-16104571D01*
X9082619Y-16104571D02*
X9092143Y-16085524D01*
X9092143Y-16085524D02*
X9101667Y-16076000D01*
X9101667Y-16076000D02*
X9120714Y-16066476D01*
X9273095Y-16247428D02*
X9282619Y-16256952D01*
X9282619Y-16256952D02*
X9273095Y-16266476D01*
X9273095Y-16266476D02*
X9263572Y-16256952D01*
X9263572Y-16256952D02*
X9273095Y-16247428D01*
X9273095Y-16247428D02*
X9273095Y-16266476D01*
X9473095Y-16266476D02*
X9358810Y-16266476D01*
X9415952Y-16266476D02*
X9415952Y-16066476D01*
X9415952Y-16066476D02*
X9396905Y-16095048D01*
X9396905Y-16095048D02*
X9377857Y-16114095D01*
X9377857Y-16114095D02*
X9358810Y-16123619D01*
X9644524Y-16133143D02*
X9644524Y-16266476D01*
X9596905Y-16056952D02*
X9549286Y-16199809D01*
X9549286Y-16199809D02*
X9673095Y-16199809D01*
X9844524Y-16066476D02*
X9749286Y-16066476D01*
X9749286Y-16066476D02*
X9739762Y-16161714D01*
X9739762Y-16161714D02*
X9749286Y-16152190D01*
X9749286Y-16152190D02*
X9768333Y-16142667D01*
X9768333Y-16142667D02*
X9815953Y-16142667D01*
X9815953Y-16142667D02*
X9835000Y-16152190D01*
X9835000Y-16152190D02*
X9844524Y-16161714D01*
X9844524Y-16161714D02*
X9854048Y-16180762D01*
X9854048Y-16180762D02*
X9854048Y-16228381D01*
X9854048Y-16228381D02*
X9844524Y-16247428D01*
X9844524Y-16247428D02*
X9835000Y-16256952D01*
X9835000Y-16256952D02*
X9815953Y-16266476D01*
X9815953Y-16266476D02*
X9768333Y-16266476D01*
X9768333Y-16266476D02*
X9749286Y-16256952D01*
X9749286Y-16256952D02*
X9739762Y-16247428D01*
X9920714Y-16066476D02*
X10054048Y-16066476D01*
X10054048Y-16066476D02*
X9968333Y-16266476D01*
X10120714Y-16066476D02*
X10120714Y-16104571D01*
X10196905Y-16066476D02*
X10196905Y-16104571D01*
X10459762Y-16342667D02*
X10450238Y-16333143D01*
X10450238Y-16333143D02*
X10431191Y-16304571D01*
X10431191Y-16304571D02*
X10421667Y-16285524D01*
X10421667Y-16285524D02*
X10412143Y-16256952D01*
X10412143Y-16256952D02*
X10402619Y-16209333D01*
X10402619Y-16209333D02*
X10402619Y-16171238D01*
X10402619Y-16171238D02*
X10412143Y-16123619D01*
X10412143Y-16123619D02*
X10421667Y-16095048D01*
X10421667Y-16095048D02*
X10431191Y-16076000D01*
X10431191Y-16076000D02*
X10450238Y-16047428D01*
X10450238Y-16047428D02*
X10459762Y-16037905D01*
X10621667Y-16133143D02*
X10621667Y-16266476D01*
X10574048Y-16056952D02*
X10526429Y-16199809D01*
X10526429Y-16199809D02*
X10650238Y-16199809D01*
X10846429Y-16266476D02*
X10846429Y-16066476D01*
X10932143Y-16266476D02*
X10932143Y-16161714D01*
X10932143Y-16161714D02*
X10922619Y-16142667D01*
X10922619Y-16142667D02*
X10903572Y-16133143D01*
X10903572Y-16133143D02*
X10875000Y-16133143D01*
X10875000Y-16133143D02*
X10855953Y-16142667D01*
X10855953Y-16142667D02*
X10846429Y-16152190D01*
X11055953Y-16266476D02*
X11036905Y-16256952D01*
X11036905Y-16256952D02*
X11027381Y-16247428D01*
X11027381Y-16247428D02*
X11017857Y-16228381D01*
X11017857Y-16228381D02*
X11017857Y-16171238D01*
X11017857Y-16171238D02*
X11027381Y-16152190D01*
X11027381Y-16152190D02*
X11036905Y-16142667D01*
X11036905Y-16142667D02*
X11055953Y-16133143D01*
X11055953Y-16133143D02*
X11084524Y-16133143D01*
X11084524Y-16133143D02*
X11103572Y-16142667D01*
X11103572Y-16142667D02*
X11113095Y-16152190D01*
X11113095Y-16152190D02*
X11122619Y-16171238D01*
X11122619Y-16171238D02*
X11122619Y-16228381D01*
X11122619Y-16228381D02*
X11113095Y-16247428D01*
X11113095Y-16247428D02*
X11103572Y-16256952D01*
X11103572Y-16256952D02*
X11084524Y-16266476D01*
X11084524Y-16266476D02*
X11055953Y-16266476D01*
X11236905Y-16266476D02*
X11217857Y-16256952D01*
X11217857Y-16256952D02*
X11208333Y-16237905D01*
X11208333Y-16237905D02*
X11208333Y-16066476D01*
X11389286Y-16256952D02*
X11370238Y-16266476D01*
X11370238Y-16266476D02*
X11332143Y-16266476D01*
X11332143Y-16266476D02*
X11313095Y-16256952D01*
X11313095Y-16256952D02*
X11303572Y-16237905D01*
X11303572Y-16237905D02*
X11303572Y-16161714D01*
X11303572Y-16161714D02*
X11313095Y-16142667D01*
X11313095Y-16142667D02*
X11332143Y-16133143D01*
X11332143Y-16133143D02*
X11370238Y-16133143D01*
X11370238Y-16133143D02*
X11389286Y-16142667D01*
X11389286Y-16142667D02*
X11398810Y-16161714D01*
X11398810Y-16161714D02*
X11398810Y-16180762D01*
X11398810Y-16180762D02*
X11303572Y-16199809D01*
X11475000Y-16256952D02*
X11494048Y-16266476D01*
X11494048Y-16266476D02*
X11532143Y-16266476D01*
X11532143Y-16266476D02*
X11551191Y-16256952D01*
X11551191Y-16256952D02*
X11560714Y-16237905D01*
X11560714Y-16237905D02*
X11560714Y-16228381D01*
X11560714Y-16228381D02*
X11551191Y-16209333D01*
X11551191Y-16209333D02*
X11532143Y-16199809D01*
X11532143Y-16199809D02*
X11503572Y-16199809D01*
X11503572Y-16199809D02*
X11484524Y-16190286D01*
X11484524Y-16190286D02*
X11475000Y-16171238D01*
X11475000Y-16171238D02*
X11475000Y-16161714D01*
X11475000Y-16161714D02*
X11484524Y-16142667D01*
X11484524Y-16142667D02*
X11503572Y-16133143D01*
X11503572Y-16133143D02*
X11532143Y-16133143D01*
X11532143Y-16133143D02*
X11551191Y-16142667D01*
X11627381Y-16342667D02*
X11636905Y-16333143D01*
X11636905Y-16333143D02*
X11655953Y-16304571D01*
X11655953Y-16304571D02*
X11665476Y-16285524D01*
X11665476Y-16285524D02*
X11675000Y-16256952D01*
X11675000Y-16256952D02*
X11684524Y-16209333D01*
X11684524Y-16209333D02*
X11684524Y-16171238D01*
X11684524Y-16171238D02*
X11675000Y-16123619D01*
X11675000Y-16123619D02*
X11665476Y-16095048D01*
X11665476Y-16095048D02*
X11655953Y-16076000D01*
X11655953Y-16076000D02*
X11636905Y-16047428D01*
X11636905Y-16047428D02*
X11627381Y-16037905D01*
M02*
