G04 #@! TF.GenerationSoftware,KiCad,Pcbnew,(6.0.5-0)*
G04 #@! TF.CreationDate,2023-01-03T07:11:01-05:00*
G04 #@! TF.ProjectId,bottom-adapter,626f7474-6f6d-42d6-9164-61707465722e,2*
G04 #@! TF.SameCoordinates,Original*
G04 #@! TF.FileFunction,Legend,Bot*
G04 #@! TF.FilePolarity,Positive*
%FSLAX46Y46*%
G04 Gerber Fmt 4.6, Leading zero omitted, Abs format (unit mm)*
G04 Created by KiCad (PCBNEW (6.0.5-0)) date 2023-01-03 07:11:01*
%MOMM*%
%LPD*%
G01*
G04 APERTURE LIST*
%ADD10C,0.300000*%
%ADD11C,0.150000*%
%ADD12C,0.120000*%
%ADD13C,0.100000*%
%ADD14C,3.000000*%
%ADD15C,5.500000*%
%ADD16C,4.300000*%
%ADD17R,2.000000X2.000000*%
%ADD18R,1.100000X1.450000*%
%ADD19R,1.350000X2.899999*%
%ADD20R,1.700000X2.500000*%
G04 APERTURE END LIST*
D10*
X112257142Y-113185714D02*
X114542857Y-113185714D01*
X113400000Y-112042857D02*
X113400000Y-114328571D01*
X149742857Y-113314285D02*
X147457142Y-113314285D01*
X139542857Y-84114285D02*
X137257142Y-84114285D01*
X114542857Y-84114285D02*
X112257142Y-84114285D01*
X84457142Y-113085714D02*
X86742857Y-113085714D01*
X85600000Y-111942857D02*
X85600000Y-114228571D01*
D11*
X109076190Y-95528571D02*
X108933333Y-95576190D01*
X108885714Y-95623809D01*
X108838095Y-95719047D01*
X108838095Y-95861904D01*
X108885714Y-95957142D01*
X108933333Y-96004761D01*
X109028571Y-96052380D01*
X109409523Y-96052380D01*
X109409523Y-95052380D01*
X109076190Y-95052380D01*
X108980952Y-95100000D01*
X108933333Y-95147619D01*
X108885714Y-95242857D01*
X108885714Y-95338095D01*
X108933333Y-95433333D01*
X108980952Y-95480952D01*
X109076190Y-95528571D01*
X109409523Y-95528571D01*
X108409523Y-95052380D02*
X108409523Y-95861904D01*
X108361904Y-95957142D01*
X108314285Y-96004761D01*
X108219047Y-96052380D01*
X108028571Y-96052380D01*
X107933333Y-96004761D01*
X107885714Y-95957142D01*
X107838095Y-95861904D01*
X107838095Y-95052380D01*
X106790476Y-96052380D02*
X107123809Y-95576190D01*
X107361904Y-96052380D02*
X107361904Y-95052380D01*
X106980952Y-95052380D01*
X106885714Y-95100000D01*
X106838095Y-95147619D01*
X106790476Y-95242857D01*
X106790476Y-95385714D01*
X106838095Y-95480952D01*
X106885714Y-95528571D01*
X106980952Y-95576190D01*
X107361904Y-95576190D01*
X106361904Y-96052380D02*
X106361904Y-95052380D01*
X105790476Y-96052380D01*
X105790476Y-95052380D01*
D10*
X94657142Y-83885714D02*
X96942857Y-83885714D01*
X95800000Y-82742857D02*
X95800000Y-85028571D01*
X86542857Y-84014285D02*
X84257142Y-84014285D01*
X124542857Y-113414285D02*
X122257142Y-113414285D01*
X96742857Y-113314285D02*
X94457142Y-113314285D01*
D11*
X108461904Y-101000000D02*
X108557142Y-100952380D01*
X108700000Y-100952380D01*
X108842857Y-101000000D01*
X108938095Y-101095238D01*
X108985714Y-101190476D01*
X109033333Y-101380952D01*
X109033333Y-101523809D01*
X108985714Y-101714285D01*
X108938095Y-101809523D01*
X108842857Y-101904761D01*
X108700000Y-101952380D01*
X108604761Y-101952380D01*
X108461904Y-101904761D01*
X108414285Y-101857142D01*
X108414285Y-101523809D01*
X108604761Y-101523809D01*
X107985714Y-101952380D02*
X107985714Y-100952380D01*
X107414285Y-101952380D01*
X107414285Y-100952380D01*
X106938095Y-101952380D02*
X106938095Y-100952380D01*
X106700000Y-100952380D01*
X106557142Y-101000000D01*
X106461904Y-101095238D01*
X106414285Y-101190476D01*
X106366666Y-101380952D01*
X106366666Y-101523809D01*
X106414285Y-101714285D01*
X106461904Y-101809523D01*
X106557142Y-101904761D01*
X106700000Y-101952380D01*
X106938095Y-101952380D01*
D10*
X147657142Y-83885714D02*
X149942857Y-83885714D01*
X148800000Y-82742857D02*
X148800000Y-85028571D01*
X123814285Y-82757142D02*
X123814285Y-85042857D01*
X124957142Y-83900000D02*
X122671428Y-83900000D01*
X138614285Y-111967142D02*
X138614285Y-114252857D01*
X139757142Y-113110000D02*
X137471428Y-113110000D01*
D11*
X147533333Y-98752380D02*
X147533333Y-99466666D01*
X147580952Y-99609523D01*
X147676190Y-99704761D01*
X147819047Y-99752380D01*
X147914285Y-99752380D01*
X147104761Y-98847619D02*
X147057142Y-98800000D01*
X146961904Y-98752380D01*
X146723809Y-98752380D01*
X146628571Y-98800000D01*
X146580952Y-98847619D01*
X146533333Y-98942857D01*
X146533333Y-99038095D01*
X146580952Y-99180952D01*
X147152380Y-99752380D01*
X146533333Y-99752380D01*
X143071428Y-92328571D02*
X142928571Y-92376190D01*
X142880952Y-92423809D01*
X142833333Y-92519047D01*
X142833333Y-92661904D01*
X142880952Y-92757142D01*
X142928571Y-92804761D01*
X143023809Y-92852380D01*
X143404761Y-92852380D01*
X143404761Y-91852380D01*
X143071428Y-91852380D01*
X142976190Y-91900000D01*
X142928571Y-91947619D01*
X142880952Y-92042857D01*
X142880952Y-92138095D01*
X142928571Y-92233333D01*
X142976190Y-92280952D01*
X143071428Y-92328571D01*
X143404761Y-92328571D01*
X141976190Y-92185714D02*
X141976190Y-92852380D01*
X142404761Y-92185714D02*
X142404761Y-92709523D01*
X142357142Y-92804761D01*
X142261904Y-92852380D01*
X142119047Y-92852380D01*
X142023809Y-92804761D01*
X141976190Y-92757142D01*
X141500000Y-92852380D02*
X141500000Y-92185714D01*
X141500000Y-92376190D02*
X141452380Y-92280952D01*
X141404761Y-92233333D01*
X141309523Y-92185714D01*
X141214285Y-92185714D01*
X140880952Y-92185714D02*
X140880952Y-92852380D01*
X140880952Y-92280952D02*
X140833333Y-92233333D01*
X140738095Y-92185714D01*
X140595238Y-92185714D01*
X140500000Y-92233333D01*
X140452380Y-92328571D01*
X140452380Y-92852380D01*
X139309523Y-91852380D02*
X139071428Y-92852380D01*
X138880952Y-92138095D01*
X138690476Y-92852380D01*
X138452380Y-91852380D01*
X138071428Y-92852380D02*
X138071428Y-92185714D01*
X138071428Y-91852380D02*
X138119047Y-91900000D01*
X138071428Y-91947619D01*
X138023809Y-91900000D01*
X138071428Y-91852380D01*
X138071428Y-91947619D01*
X137595238Y-92852380D02*
X137595238Y-92185714D01*
X137595238Y-92376190D02*
X137547619Y-92280952D01*
X137500000Y-92233333D01*
X137404761Y-92185714D01*
X137309523Y-92185714D01*
X136595238Y-92804761D02*
X136690476Y-92852380D01*
X136880952Y-92852380D01*
X136976190Y-92804761D01*
X137023809Y-92709523D01*
X137023809Y-92328571D01*
X136976190Y-92233333D01*
X136880952Y-92185714D01*
X136690476Y-92185714D01*
X136595238Y-92233333D01*
X136547619Y-92328571D01*
X136547619Y-92423809D01*
X137023809Y-92519047D01*
X78433333Y-97652380D02*
X78433333Y-98366666D01*
X78480952Y-98509523D01*
X78576190Y-98604761D01*
X78719047Y-98652380D01*
X78814285Y-98652380D01*
X77433333Y-98652380D02*
X78004761Y-98652380D01*
X77719047Y-98652380D02*
X77719047Y-97652380D01*
X77814285Y-97795238D01*
X77909523Y-97890476D01*
X78004761Y-97938095D01*
X88295238Y-105504761D02*
X88152380Y-105552380D01*
X87914285Y-105552380D01*
X87819047Y-105504761D01*
X87771428Y-105457142D01*
X87723809Y-105361904D01*
X87723809Y-105266666D01*
X87771428Y-105171428D01*
X87819047Y-105123809D01*
X87914285Y-105076190D01*
X88104761Y-105028571D01*
X88200000Y-104980952D01*
X88247619Y-104933333D01*
X88295238Y-104838095D01*
X88295238Y-104742857D01*
X88247619Y-104647619D01*
X88200000Y-104600000D01*
X88104761Y-104552380D01*
X87866666Y-104552380D01*
X87723809Y-104600000D01*
X87152380Y-105552380D02*
X87247619Y-105504761D01*
X87295238Y-105457142D01*
X87342857Y-105361904D01*
X87342857Y-105076190D01*
X87295238Y-104980952D01*
X87247619Y-104933333D01*
X87152380Y-104885714D01*
X87009523Y-104885714D01*
X86914285Y-104933333D01*
X86866666Y-104980952D01*
X86819047Y-105076190D01*
X86819047Y-105361904D01*
X86866666Y-105457142D01*
X86914285Y-105504761D01*
X87009523Y-105552380D01*
X87152380Y-105552380D01*
X86247619Y-105552380D02*
X86342857Y-105504761D01*
X86390476Y-105409523D01*
X86390476Y-104552380D01*
X85438095Y-105552380D02*
X85438095Y-105028571D01*
X85485714Y-104933333D01*
X85580952Y-104885714D01*
X85771428Y-104885714D01*
X85866666Y-104933333D01*
X85438095Y-105504761D02*
X85533333Y-105552380D01*
X85771428Y-105552380D01*
X85866666Y-105504761D01*
X85914285Y-105409523D01*
X85914285Y-105314285D01*
X85866666Y-105219047D01*
X85771428Y-105171428D01*
X85533333Y-105171428D01*
X85438095Y-105123809D01*
X84961904Y-105552380D02*
X84961904Y-104885714D01*
X84961904Y-105076190D02*
X84914285Y-104980952D01*
X84866666Y-104933333D01*
X84771428Y-104885714D01*
X84676190Y-104885714D01*
X83009523Y-105457142D02*
X83057142Y-105504761D01*
X83200000Y-105552380D01*
X83295238Y-105552380D01*
X83438095Y-105504761D01*
X83533333Y-105409523D01*
X83580952Y-105314285D01*
X83628571Y-105123809D01*
X83628571Y-104980952D01*
X83580952Y-104790476D01*
X83533333Y-104695238D01*
X83438095Y-104600000D01*
X83295238Y-104552380D01*
X83200000Y-104552380D01*
X83057142Y-104600000D01*
X83009523Y-104647619D01*
X82200000Y-105504761D02*
X82295238Y-105552380D01*
X82485714Y-105552380D01*
X82580952Y-105504761D01*
X82628571Y-105409523D01*
X82628571Y-105028571D01*
X82580952Y-104933333D01*
X82485714Y-104885714D01*
X82295238Y-104885714D01*
X82200000Y-104933333D01*
X82152380Y-105028571D01*
X82152380Y-105123809D01*
X82628571Y-105219047D01*
X81580952Y-105552380D02*
X81676190Y-105504761D01*
X81723809Y-105409523D01*
X81723809Y-104552380D01*
X81057142Y-105552380D02*
X81152380Y-105504761D01*
X81200000Y-105409523D01*
X81200000Y-104552380D01*
D12*
X146152992Y-94365000D02*
X144628992Y-95000000D01*
X135625009Y-94575000D02*
X138129959Y-94575000D01*
X139870039Y-94575000D02*
X140129960Y-94575000D01*
X146152992Y-95635000D02*
X146152992Y-94365000D01*
X144374992Y-94575000D02*
X144374992Y-99204960D01*
X141870040Y-94575000D02*
X144374992Y-94575000D01*
X135625009Y-99204960D02*
X135625009Y-94575000D01*
X142915982Y-102525000D02*
X137084019Y-102525000D01*
X144628992Y-95000000D02*
X146152992Y-95635000D01*
X82155519Y-94525000D02*
X87987482Y-94525000D01*
X78918509Y-102685000D02*
X80442509Y-102050000D01*
X89446492Y-97845040D02*
X89446492Y-102475000D01*
X78918509Y-101415000D02*
X78918509Y-102685000D01*
X83201461Y-102475000D02*
X80696509Y-102475000D01*
X80696509Y-102475000D02*
X80696509Y-97845040D01*
X85201462Y-102475000D02*
X84941541Y-102475000D01*
X89446492Y-102475000D02*
X86941542Y-102475000D01*
X80442509Y-102050000D02*
X78918509Y-101415000D01*
X96450000Y-96425000D02*
X93550000Y-96425000D01*
X96450000Y-96425000D02*
X96450000Y-101175000D01*
X96450000Y-101175000D02*
X93550000Y-101175000D01*
X93550000Y-96425000D02*
X93550000Y-101175000D01*
X94187200Y-98368200D02*
X95736600Y-98368200D01*
G36*
X95711200Y-99308000D02*
G01*
X94365000Y-99308000D01*
X94974600Y-98495200D01*
X95711200Y-99308000D01*
G37*
D13*
X95711200Y-99308000D02*
X94365000Y-99308000D01*
X94974600Y-98495200D01*
X95711200Y-99308000D01*
D12*
X101450000Y-101175000D02*
X98550000Y-101175000D01*
X101450000Y-96425000D02*
X98550000Y-96425000D01*
X99187200Y-98368200D02*
X100736600Y-98368200D01*
X98550000Y-96425000D02*
X98550000Y-101175000D01*
X101450000Y-96425000D02*
X101450000Y-101175000D01*
G36*
X100711200Y-99308000D02*
G01*
X99365000Y-99308000D01*
X99974600Y-98495200D01*
X100711200Y-99308000D01*
G37*
D13*
X100711200Y-99308000D02*
X99365000Y-99308000D01*
X99974600Y-98495200D01*
X100711200Y-99308000D01*
%LPC*%
D14*
X86000000Y-109000000D03*
X95000000Y-109000000D03*
D15*
X163450000Y-143450000D03*
D14*
X113800000Y-109100000D03*
X122800000Y-109100000D03*
X148000000Y-88000000D03*
X139000000Y-88000000D03*
X95000000Y-88000000D03*
X86000000Y-88000000D03*
X123300000Y-87800000D03*
X114300000Y-87800000D03*
D16*
X161364000Y-58495000D03*
D17*
X117000000Y-101500000D03*
D15*
X73550000Y-53550000D03*
D17*
X127000000Y-101500000D03*
D16*
X161364000Y-138505000D03*
D14*
X139000000Y-109000000D03*
X148000000Y-109000000D03*
D17*
X112000000Y-101500000D03*
X127000000Y-95500000D03*
D16*
X75639000Y-134695000D03*
X75639000Y-61035000D03*
D15*
X73550000Y-143450000D03*
D17*
X122000000Y-101500000D03*
X122000000Y-95500000D03*
X112000000Y-95500000D03*
D15*
X163450000Y-53550000D03*
D17*
X117000000Y-95500000D03*
D18*
X141000000Y-95000000D03*
X138999999Y-95000000D03*
D19*
X143894998Y-100974999D03*
X136105003Y-100974999D03*
D18*
X84071501Y-102050000D03*
X86071502Y-102050000D03*
D19*
X81176503Y-96075001D03*
X88966498Y-96075001D03*
D20*
X95000000Y-96800000D03*
X95000000Y-100800000D03*
X100000000Y-96800000D03*
X100000000Y-100800000D03*
M02*
