%FSLAX45Y45*%
G04 Gerber Fmt 4.5, Leading zero omitted, Abs format (unit mm)*
G04 Created by KiCad (PCBNEW (6.0.5-0)) date 2023-03-07 01:42:04*
%MOMM*%
%LPD*%
G01*
G04 APERTURE LIST*
%TA.AperFunction,Profile*%
%ADD10C,0.100000*%
%TD*%
%ADD11C,0.200000*%
%ADD12C,0.040000*%
%ADD13C,0.100000*%
%ADD14C,0.270000*%
%ADD15C,0.370000*%
G04 APERTURE END LIST*
D10*
X7520000Y-13010000D02*
G75*
G03*
X7620000Y-12910000I0J100000D01*
G01*
X7250000Y-13010000D02*
G75*
G03*
X7150000Y-13110000I0J-100000D01*
G01*
X16180000Y-6690000D02*
G75*
G03*
X16080000Y-6790000I0J-100000D01*
G01*
X16700000Y-5800000D02*
X16700000Y-5100000D01*
X16700000Y-5800000D02*
X16650000Y-5800000D01*
X8690000Y-5520000D02*
G75*
G03*
X8790000Y-5620000I100000J0D01*
G01*
X15900000Y-5000000D02*
X16600000Y-5000000D01*
X16550000Y-13800000D02*
G75*
G03*
X16650000Y-13900000I100000J0D01*
G01*
X7000000Y-14600000D02*
G75*
G03*
X7100000Y-14700000I100000J0D01*
G01*
X14910000Y-14080000D02*
X8790000Y-14080000D01*
X16600000Y-14700000D02*
G75*
G03*
X16700000Y-14600000I0J100000D01*
G01*
X7900000Y-14550000D02*
G75*
G03*
X7800000Y-14650000I0J-100000D01*
G01*
X15900000Y-14650000D02*
G75*
G03*
X15800000Y-14550000I-100000J0D01*
G01*
X7000000Y-13900000D02*
X7000000Y-14600000D01*
X16550000Y-13110000D02*
G75*
G03*
X16450000Y-13010000I-100000J0D01*
G01*
X7050000Y-5800000D02*
X7000000Y-5800000D01*
X15010000Y-14180000D02*
X15010000Y-14450000D01*
X8790000Y-5620000D02*
X14910000Y-5620000D01*
X7150000Y-6590000D02*
G75*
G03*
X7250000Y-6690000I100000J0D01*
G01*
X7800000Y-14700000D02*
X7100000Y-14700000D01*
X16600000Y-14700000D02*
X15900000Y-14700000D01*
X16650000Y-13900000D02*
X16700000Y-13900000D01*
X15800000Y-5150000D02*
G75*
G03*
X15900000Y-5050000I0J100000D01*
G01*
X16080000Y-6790000D02*
X16080000Y-12910000D01*
X8590000Y-14550000D02*
X7900000Y-14550000D01*
X7520000Y-13010000D02*
X7250000Y-13010000D01*
X16550000Y-5900000D02*
X16550000Y-6590000D01*
X15010000Y-5520000D02*
X15010000Y-5250000D01*
X14910000Y-5620000D02*
G75*
G03*
X15010000Y-5520000I0J100000D01*
G01*
X8690000Y-14180000D02*
X8690000Y-14450000D01*
X15800000Y-14550000D02*
X15110000Y-14550000D01*
X8790000Y-14080000D02*
G75*
G03*
X8690000Y-14180000I0J-100000D01*
G01*
X7520000Y-6690000D02*
X7250000Y-6690000D01*
X7800000Y-5050000D02*
G75*
G03*
X7900000Y-5150000I100000J0D01*
G01*
X16180000Y-13010000D02*
X16450000Y-13010000D01*
X16700000Y-5100000D02*
G75*
G03*
X16600000Y-5000000I-100000J0D01*
G01*
X7900000Y-5150000D02*
X8590000Y-5150000D01*
X7150000Y-13110000D02*
X7150000Y-13800000D01*
X16180000Y-6690000D02*
X16450000Y-6690000D01*
X15900000Y-5000000D02*
X15900000Y-5050000D01*
X8590000Y-14550000D02*
G75*
G03*
X8690000Y-14450000I0J100000D01*
G01*
X7800000Y-5050000D02*
X7800000Y-5000000D01*
X7000000Y-13900000D02*
X7050000Y-13900000D01*
X7150000Y-5900000D02*
G75*
G03*
X7050000Y-5800000I-100000J0D01*
G01*
X16080000Y-12910000D02*
G75*
G03*
X16180000Y-13010000I100000J0D01*
G01*
X16650000Y-5800000D02*
G75*
G03*
X16550000Y-5900000I0J-100000D01*
G01*
X7620000Y-12910000D02*
X7620000Y-6790000D01*
X8690000Y-5520000D02*
X8690000Y-5250000D01*
X7000000Y-5100000D02*
X7000000Y-5800000D01*
X15800000Y-5150000D02*
X15110000Y-5150000D01*
X7150000Y-5900000D02*
X7150000Y-6590000D01*
X8690000Y-5250000D02*
G75*
G03*
X8590000Y-5150000I-100000J0D01*
G01*
X16450000Y-6690000D02*
G75*
G03*
X16550000Y-6590000I0J100000D01*
G01*
X15010000Y-14180000D02*
G75*
G03*
X14910000Y-14080000I-100000J0D01*
G01*
X15900000Y-14650000D02*
X15900000Y-14700000D01*
X7050000Y-13900000D02*
G75*
G03*
X7150000Y-13800000I0J100000D01*
G01*
X15010000Y-14450000D02*
G75*
G03*
X15110000Y-14550000I100000J0D01*
G01*
X15110000Y-5150000D02*
G75*
G03*
X15010000Y-5250000I0J-100000D01*
G01*
X16550000Y-13110000D02*
X16550000Y-13800000D01*
X7100000Y-5000000D02*
G75*
G03*
X7000000Y-5100000I0J-100000D01*
G01*
X7800000Y-5000000D02*
X7100000Y-5000000D01*
X16700000Y-13900000D02*
X16700000Y-14600000D01*
X7620000Y-6790000D02*
G75*
G03*
X7520000Y-6690000I-100000J0D01*
G01*
X7800000Y-14700000D02*
X7800000Y-14650000D01*
D11*
D12*
X11350000Y-10260000D02*
X11390000Y-10300000D01*
X11390000Y-10260000D02*
X11350000Y-10300000D01*
X11350000Y-10380000D02*
X11390000Y-10420000D01*
X11390000Y-10380000D02*
X11350000Y-10420000D01*
X11610000Y-10380000D02*
X11650000Y-10420000D01*
X11650000Y-10380000D02*
X11610000Y-10420000D01*
X11850000Y-10260000D02*
X11890000Y-10300000D01*
X11890000Y-10260000D02*
X11850000Y-10300000D01*
X11850000Y-10380000D02*
X11890000Y-10420000D01*
X11890000Y-10380000D02*
X11850000Y-10420000D01*
X12110000Y-10370000D02*
X12150000Y-10410000D01*
X12150000Y-10370000D02*
X12110000Y-10410000D01*
X12360000Y-10260000D02*
X12400000Y-10300000D01*
X12400000Y-10260000D02*
X12360000Y-10300000D01*
X12370000Y-10380000D02*
X12410000Y-10420000D01*
X12410000Y-10380000D02*
X12370000Y-10420000D01*
D13*
X11680000Y-9550000D02*
G75*
G03*
X11680000Y-9550000I-50000J0D01*
G01*
X11680000Y-10160000D02*
G75*
G03*
X11680000Y-10160000I-50000J0D01*
G01*
X12180000Y-10160000D02*
G75*
G03*
X12180000Y-10160000I-50000J0D01*
G01*
X12190000Y-9550000D02*
G75*
G03*
X12190000Y-9550000I-50000J0D01*
G01*
D14*
X7563900Y-5968500D02*
X7563900Y-6238500D01*
X7428900Y-6103500D02*
X7698900Y-6103500D01*
X7563900Y-13334500D02*
X7563900Y-13604500D01*
X7428900Y-13469500D02*
X7698900Y-13469500D01*
X16136400Y-5714500D02*
X16136400Y-5984500D01*
X16001400Y-5849500D02*
X16271400Y-5849500D01*
X16136400Y-13715500D02*
X16136400Y-13985500D01*
X16001400Y-13850500D02*
X16271400Y-13850500D01*
D15*
X7485816Y-5485816D02*
X7485816Y-5224184D01*
X7224184Y-5224184D01*
X7224184Y-5485816D01*
X7485816Y-5485816D01*
X7485816Y-14475816D02*
X7485816Y-14214184D01*
X7224184Y-14214184D01*
X7224184Y-14475816D01*
X7485816Y-14475816D01*
X16475816Y-5485816D02*
X16475816Y-5224184D01*
X16214184Y-5224184D01*
X16214184Y-5485816D01*
X16475816Y-5485816D01*
X16475816Y-14475816D02*
X16475816Y-14214184D01*
X16214184Y-14214184D01*
X16214184Y-14475816D01*
X16475816Y-14475816D01*
D11*
X7252619Y-15015476D02*
X7252619Y-14815476D01*
X7300238Y-14815476D01*
X7328809Y-14825000D01*
X7347857Y-14844048D01*
X7357381Y-14863095D01*
X7366905Y-14901190D01*
X7366905Y-14929762D01*
X7357381Y-14967857D01*
X7347857Y-14986905D01*
X7328809Y-15005952D01*
X7300238Y-15015476D01*
X7252619Y-15015476D01*
X7452619Y-15015476D02*
X7452619Y-14882143D01*
X7452619Y-14920238D02*
X7462143Y-14901190D01*
X7471667Y-14891667D01*
X7490714Y-14882143D01*
X7509762Y-14882143D01*
X7576428Y-15015476D02*
X7576428Y-14882143D01*
X7576428Y-14815476D02*
X7566905Y-14825000D01*
X7576428Y-14834524D01*
X7585952Y-14825000D01*
X7576428Y-14815476D01*
X7576428Y-14834524D01*
X7700238Y-15015476D02*
X7681190Y-15005952D01*
X7671667Y-14986905D01*
X7671667Y-14815476D01*
X7805000Y-15015476D02*
X7785952Y-15005952D01*
X7776428Y-14986905D01*
X7776428Y-14815476D01*
X8033571Y-15015476D02*
X8033571Y-14815476D01*
X8100238Y-14958333D01*
X8166905Y-14815476D01*
X8166905Y-15015476D01*
X8347857Y-15015476D02*
X8347857Y-14910714D01*
X8338333Y-14891667D01*
X8319286Y-14882143D01*
X8281190Y-14882143D01*
X8262143Y-14891667D01*
X8347857Y-15005952D02*
X8328809Y-15015476D01*
X8281190Y-15015476D01*
X8262143Y-15005952D01*
X8252619Y-14986905D01*
X8252619Y-14967857D01*
X8262143Y-14948809D01*
X8281190Y-14939286D01*
X8328809Y-14939286D01*
X8347857Y-14929762D01*
X8443095Y-14882143D02*
X8443095Y-15082143D01*
X8443095Y-14891667D02*
X8462143Y-14882143D01*
X8500238Y-14882143D01*
X8519286Y-14891667D01*
X8528810Y-14901190D01*
X8538333Y-14920238D01*
X8538333Y-14977381D01*
X8528810Y-14996428D01*
X8519286Y-15005952D01*
X8500238Y-15015476D01*
X8462143Y-15015476D01*
X8443095Y-15005952D01*
X8624048Y-14996428D02*
X8633571Y-15005952D01*
X8624048Y-15015476D01*
X8614524Y-15005952D01*
X8624048Y-14996428D01*
X8624048Y-15015476D01*
X8624048Y-14891667D02*
X8633571Y-14901190D01*
X8624048Y-14910714D01*
X8614524Y-14901190D01*
X8624048Y-14891667D01*
X8624048Y-14910714D01*
D12*
X6955000Y-15325000D02*
X6995000Y-15365000D01*
X6995000Y-15325000D02*
X6955000Y-15365000D01*
D11*
X7290714Y-15235476D02*
X7309762Y-15235476D01*
X7328809Y-15245000D01*
X7338333Y-15254524D01*
X7347857Y-15273571D01*
X7357381Y-15311667D01*
X7357381Y-15359286D01*
X7347857Y-15397381D01*
X7338333Y-15416428D01*
X7328809Y-15425952D01*
X7309762Y-15435476D01*
X7290714Y-15435476D01*
X7271667Y-15425952D01*
X7262143Y-15416428D01*
X7252619Y-15397381D01*
X7243095Y-15359286D01*
X7243095Y-15311667D01*
X7252619Y-15273571D01*
X7262143Y-15254524D01*
X7271667Y-15245000D01*
X7290714Y-15235476D01*
X7443095Y-15416428D02*
X7452619Y-15425952D01*
X7443095Y-15435476D01*
X7433571Y-15425952D01*
X7443095Y-15416428D01*
X7443095Y-15435476D01*
X7624048Y-15302143D02*
X7624048Y-15435476D01*
X7576428Y-15225952D02*
X7528809Y-15368809D01*
X7652619Y-15368809D01*
X7766905Y-15235476D02*
X7785952Y-15235476D01*
X7805000Y-15245000D01*
X7814524Y-15254524D01*
X7824048Y-15273571D01*
X7833571Y-15311667D01*
X7833571Y-15359286D01*
X7824048Y-15397381D01*
X7814524Y-15416428D01*
X7805000Y-15425952D01*
X7785952Y-15435476D01*
X7766905Y-15435476D01*
X7747857Y-15425952D01*
X7738333Y-15416428D01*
X7728809Y-15397381D01*
X7719286Y-15359286D01*
X7719286Y-15311667D01*
X7728809Y-15273571D01*
X7738333Y-15254524D01*
X7747857Y-15245000D01*
X7766905Y-15235476D01*
X7957381Y-15235476D02*
X7976428Y-15235476D01*
X7995476Y-15245000D01*
X8005000Y-15254524D01*
X8014524Y-15273571D01*
X8024048Y-15311667D01*
X8024048Y-15359286D01*
X8014524Y-15397381D01*
X8005000Y-15416428D01*
X7995476Y-15425952D01*
X7976428Y-15435476D01*
X7957381Y-15435476D01*
X7938333Y-15425952D01*
X7928809Y-15416428D01*
X7919286Y-15397381D01*
X7909762Y-15359286D01*
X7909762Y-15311667D01*
X7919286Y-15273571D01*
X7928809Y-15254524D01*
X7938333Y-15245000D01*
X7957381Y-15235476D01*
X8109762Y-15435476D02*
X8109762Y-15302143D01*
X8109762Y-15321190D02*
X8119286Y-15311667D01*
X8138333Y-15302143D01*
X8166905Y-15302143D01*
X8185952Y-15311667D01*
X8195476Y-15330714D01*
X8195476Y-15435476D01*
X8195476Y-15330714D02*
X8205000Y-15311667D01*
X8224048Y-15302143D01*
X8252619Y-15302143D01*
X8271667Y-15311667D01*
X8281190Y-15330714D01*
X8281190Y-15435476D01*
X8376428Y-15435476D02*
X8376428Y-15302143D01*
X8376428Y-15321190D02*
X8385952Y-15311667D01*
X8405000Y-15302143D01*
X8433571Y-15302143D01*
X8452619Y-15311667D01*
X8462143Y-15330714D01*
X8462143Y-15435476D01*
X8462143Y-15330714D02*
X8471667Y-15311667D01*
X8490714Y-15302143D01*
X8519286Y-15302143D01*
X8538333Y-15311667D01*
X8547857Y-15330714D01*
X8547857Y-15435476D01*
X8938333Y-15225952D02*
X8766905Y-15483095D01*
X9195476Y-15235476D02*
X9214524Y-15235476D01*
X9233571Y-15245000D01*
X9243095Y-15254524D01*
X9252619Y-15273571D01*
X9262143Y-15311667D01*
X9262143Y-15359286D01*
X9252619Y-15397381D01*
X9243095Y-15416428D01*
X9233571Y-15425952D01*
X9214524Y-15435476D01*
X9195476Y-15435476D01*
X9176429Y-15425952D01*
X9166905Y-15416428D01*
X9157381Y-15397381D01*
X9147857Y-15359286D01*
X9147857Y-15311667D01*
X9157381Y-15273571D01*
X9166905Y-15254524D01*
X9176429Y-15245000D01*
X9195476Y-15235476D01*
X9347857Y-15416428D02*
X9357381Y-15425952D01*
X9347857Y-15435476D01*
X9338333Y-15425952D01*
X9347857Y-15416428D01*
X9347857Y-15435476D01*
X9481190Y-15235476D02*
X9500238Y-15235476D01*
X9519286Y-15245000D01*
X9528810Y-15254524D01*
X9538333Y-15273571D01*
X9547857Y-15311667D01*
X9547857Y-15359286D01*
X9538333Y-15397381D01*
X9528810Y-15416428D01*
X9519286Y-15425952D01*
X9500238Y-15435476D01*
X9481190Y-15435476D01*
X9462143Y-15425952D01*
X9452619Y-15416428D01*
X9443095Y-15397381D01*
X9433571Y-15359286D01*
X9433571Y-15311667D01*
X9443095Y-15273571D01*
X9452619Y-15254524D01*
X9462143Y-15245000D01*
X9481190Y-15235476D01*
X9738333Y-15435476D02*
X9624048Y-15435476D01*
X9681190Y-15435476D02*
X9681190Y-15235476D01*
X9662143Y-15264048D01*
X9643095Y-15283095D01*
X9624048Y-15292619D01*
X9919286Y-15235476D02*
X9824048Y-15235476D01*
X9814524Y-15330714D01*
X9824048Y-15321190D01*
X9843095Y-15311667D01*
X9890714Y-15311667D01*
X9909762Y-15321190D01*
X9919286Y-15330714D01*
X9928810Y-15349762D01*
X9928810Y-15397381D01*
X9919286Y-15416428D01*
X9909762Y-15425952D01*
X9890714Y-15435476D01*
X9843095Y-15435476D01*
X9824048Y-15425952D01*
X9814524Y-15416428D01*
X9995476Y-15235476D02*
X10128810Y-15235476D01*
X10043095Y-15435476D01*
X10195476Y-15235476D02*
X10195476Y-15273571D01*
X10271667Y-15235476D02*
X10271667Y-15273571D01*
X10566905Y-15511667D02*
X10557381Y-15502143D01*
X10538333Y-15473571D01*
X10528810Y-15454524D01*
X10519286Y-15425952D01*
X10509762Y-15378333D01*
X10509762Y-15340238D01*
X10519286Y-15292619D01*
X10528810Y-15264048D01*
X10538333Y-15245000D01*
X10557381Y-15216428D01*
X10566905Y-15206905D01*
X10671667Y-15321190D02*
X10652619Y-15311667D01*
X10643095Y-15302143D01*
X10633571Y-15283095D01*
X10633571Y-15273571D01*
X10643095Y-15254524D01*
X10652619Y-15245000D01*
X10671667Y-15235476D01*
X10709762Y-15235476D01*
X10728810Y-15245000D01*
X10738333Y-15254524D01*
X10747857Y-15273571D01*
X10747857Y-15283095D01*
X10738333Y-15302143D01*
X10728810Y-15311667D01*
X10709762Y-15321190D01*
X10671667Y-15321190D01*
X10652619Y-15330714D01*
X10643095Y-15340238D01*
X10633571Y-15359286D01*
X10633571Y-15397381D01*
X10643095Y-15416428D01*
X10652619Y-15425952D01*
X10671667Y-15435476D01*
X10709762Y-15435476D01*
X10728810Y-15425952D01*
X10738333Y-15416428D01*
X10747857Y-15397381D01*
X10747857Y-15359286D01*
X10738333Y-15340238D01*
X10728810Y-15330714D01*
X10709762Y-15321190D01*
X10985952Y-15435476D02*
X10985952Y-15235476D01*
X11071667Y-15435476D02*
X11071667Y-15330714D01*
X11062143Y-15311667D01*
X11043095Y-15302143D01*
X11014524Y-15302143D01*
X10995476Y-15311667D01*
X10985952Y-15321190D01*
X11195476Y-15435476D02*
X11176429Y-15425952D01*
X11166905Y-15416428D01*
X11157381Y-15397381D01*
X11157381Y-15340238D01*
X11166905Y-15321190D01*
X11176429Y-15311667D01*
X11195476Y-15302143D01*
X11224048Y-15302143D01*
X11243095Y-15311667D01*
X11252619Y-15321190D01*
X11262143Y-15340238D01*
X11262143Y-15397381D01*
X11252619Y-15416428D01*
X11243095Y-15425952D01*
X11224048Y-15435476D01*
X11195476Y-15435476D01*
X11376428Y-15435476D02*
X11357381Y-15425952D01*
X11347857Y-15406905D01*
X11347857Y-15235476D01*
X11528809Y-15425952D02*
X11509762Y-15435476D01*
X11471667Y-15435476D01*
X11452619Y-15425952D01*
X11443095Y-15406905D01*
X11443095Y-15330714D01*
X11452619Y-15311667D01*
X11471667Y-15302143D01*
X11509762Y-15302143D01*
X11528809Y-15311667D01*
X11538333Y-15330714D01*
X11538333Y-15349762D01*
X11443095Y-15368809D01*
X11614524Y-15425952D02*
X11633571Y-15435476D01*
X11671667Y-15435476D01*
X11690714Y-15425952D01*
X11700238Y-15406905D01*
X11700238Y-15397381D01*
X11690714Y-15378333D01*
X11671667Y-15368809D01*
X11643095Y-15368809D01*
X11624048Y-15359286D01*
X11614524Y-15340238D01*
X11614524Y-15330714D01*
X11624048Y-15311667D01*
X11643095Y-15302143D01*
X11671667Y-15302143D01*
X11690714Y-15311667D01*
X11766905Y-15511667D02*
X11776428Y-15502143D01*
X11795476Y-15473571D01*
X11805000Y-15454524D01*
X11814524Y-15425952D01*
X11824048Y-15378333D01*
X11824048Y-15340238D01*
X11814524Y-15292619D01*
X11805000Y-15264048D01*
X11795476Y-15245000D01*
X11776428Y-15216428D01*
X11766905Y-15206905D01*
D13*
X6995000Y-15609000D02*
G75*
G03*
X6995000Y-15609000I-50000J0D01*
G01*
D11*
X7357381Y-15699476D02*
X7243095Y-15699476D01*
X7300238Y-15699476D02*
X7300238Y-15499476D01*
X7281190Y-15528048D01*
X7262143Y-15547095D01*
X7243095Y-15556619D01*
X7443095Y-15680428D02*
X7452619Y-15689952D01*
X7443095Y-15699476D01*
X7433571Y-15689952D01*
X7443095Y-15680428D01*
X7443095Y-15699476D01*
X7576428Y-15499476D02*
X7595476Y-15499476D01*
X7614524Y-15509000D01*
X7624048Y-15518524D01*
X7633571Y-15537571D01*
X7643095Y-15575667D01*
X7643095Y-15623286D01*
X7633571Y-15661381D01*
X7624048Y-15680428D01*
X7614524Y-15689952D01*
X7595476Y-15699476D01*
X7576428Y-15699476D01*
X7557381Y-15689952D01*
X7547857Y-15680428D01*
X7538333Y-15661381D01*
X7528809Y-15623286D01*
X7528809Y-15575667D01*
X7538333Y-15537571D01*
X7547857Y-15518524D01*
X7557381Y-15509000D01*
X7576428Y-15499476D01*
X7766905Y-15499476D02*
X7785952Y-15499476D01*
X7805000Y-15509000D01*
X7814524Y-15518524D01*
X7824048Y-15537571D01*
X7833571Y-15575667D01*
X7833571Y-15623286D01*
X7824048Y-15661381D01*
X7814524Y-15680428D01*
X7805000Y-15689952D01*
X7785952Y-15699476D01*
X7766905Y-15699476D01*
X7747857Y-15689952D01*
X7738333Y-15680428D01*
X7728809Y-15661381D01*
X7719286Y-15623286D01*
X7719286Y-15575667D01*
X7728809Y-15537571D01*
X7738333Y-15518524D01*
X7747857Y-15509000D01*
X7766905Y-15499476D01*
X7957381Y-15499476D02*
X7976428Y-15499476D01*
X7995476Y-15509000D01*
X8005000Y-15518524D01*
X8014524Y-15537571D01*
X8024048Y-15575667D01*
X8024048Y-15623286D01*
X8014524Y-15661381D01*
X8005000Y-15680428D01*
X7995476Y-15689952D01*
X7976428Y-15699476D01*
X7957381Y-15699476D01*
X7938333Y-15689952D01*
X7928809Y-15680428D01*
X7919286Y-15661381D01*
X7909762Y-15623286D01*
X7909762Y-15575667D01*
X7919286Y-15537571D01*
X7928809Y-15518524D01*
X7938333Y-15509000D01*
X7957381Y-15499476D01*
X8109762Y-15699476D02*
X8109762Y-15566143D01*
X8109762Y-15585190D02*
X8119286Y-15575667D01*
X8138333Y-15566143D01*
X8166905Y-15566143D01*
X8185952Y-15575667D01*
X8195476Y-15594714D01*
X8195476Y-15699476D01*
X8195476Y-15594714D02*
X8205000Y-15575667D01*
X8224048Y-15566143D01*
X8252619Y-15566143D01*
X8271667Y-15575667D01*
X8281190Y-15594714D01*
X8281190Y-15699476D01*
X8376428Y-15699476D02*
X8376428Y-15566143D01*
X8376428Y-15585190D02*
X8385952Y-15575667D01*
X8405000Y-15566143D01*
X8433571Y-15566143D01*
X8452619Y-15575667D01*
X8462143Y-15594714D01*
X8462143Y-15699476D01*
X8462143Y-15594714D02*
X8471667Y-15575667D01*
X8490714Y-15566143D01*
X8519286Y-15566143D01*
X8538333Y-15575667D01*
X8547857Y-15594714D01*
X8547857Y-15699476D01*
X8938333Y-15489952D02*
X8766905Y-15747095D01*
X9195476Y-15499476D02*
X9214524Y-15499476D01*
X9233571Y-15509000D01*
X9243095Y-15518524D01*
X9252619Y-15537571D01*
X9262143Y-15575667D01*
X9262143Y-15623286D01*
X9252619Y-15661381D01*
X9243095Y-15680428D01*
X9233571Y-15689952D01*
X9214524Y-15699476D01*
X9195476Y-15699476D01*
X9176429Y-15689952D01*
X9166905Y-15680428D01*
X9157381Y-15661381D01*
X9147857Y-15623286D01*
X9147857Y-15575667D01*
X9157381Y-15537571D01*
X9166905Y-15518524D01*
X9176429Y-15509000D01*
X9195476Y-15499476D01*
X9347857Y-15680428D02*
X9357381Y-15689952D01*
X9347857Y-15699476D01*
X9338333Y-15689952D01*
X9347857Y-15680428D01*
X9347857Y-15699476D01*
X9481190Y-15499476D02*
X9500238Y-15499476D01*
X9519286Y-15509000D01*
X9528810Y-15518524D01*
X9538333Y-15537571D01*
X9547857Y-15575667D01*
X9547857Y-15623286D01*
X9538333Y-15661381D01*
X9528810Y-15680428D01*
X9519286Y-15689952D01*
X9500238Y-15699476D01*
X9481190Y-15699476D01*
X9462143Y-15689952D01*
X9452619Y-15680428D01*
X9443095Y-15661381D01*
X9433571Y-15623286D01*
X9433571Y-15575667D01*
X9443095Y-15537571D01*
X9452619Y-15518524D01*
X9462143Y-15509000D01*
X9481190Y-15499476D01*
X9614524Y-15499476D02*
X9738333Y-15499476D01*
X9671667Y-15575667D01*
X9700238Y-15575667D01*
X9719286Y-15585190D01*
X9728810Y-15594714D01*
X9738333Y-15613762D01*
X9738333Y-15661381D01*
X9728810Y-15680428D01*
X9719286Y-15689952D01*
X9700238Y-15699476D01*
X9643095Y-15699476D01*
X9624048Y-15689952D01*
X9614524Y-15680428D01*
X9833571Y-15699476D02*
X9871667Y-15699476D01*
X9890714Y-15689952D01*
X9900238Y-15680428D01*
X9919286Y-15651857D01*
X9928810Y-15613762D01*
X9928810Y-15537571D01*
X9919286Y-15518524D01*
X9909762Y-15509000D01*
X9890714Y-15499476D01*
X9852619Y-15499476D01*
X9833571Y-15509000D01*
X9824048Y-15518524D01*
X9814524Y-15537571D01*
X9814524Y-15585190D01*
X9824048Y-15604238D01*
X9833571Y-15613762D01*
X9852619Y-15623286D01*
X9890714Y-15623286D01*
X9909762Y-15613762D01*
X9919286Y-15604238D01*
X9928810Y-15585190D01*
X10100238Y-15566143D02*
X10100238Y-15699476D01*
X10052619Y-15489952D02*
X10005000Y-15632809D01*
X10128810Y-15632809D01*
X10195476Y-15499476D02*
X10195476Y-15537571D01*
X10271667Y-15499476D02*
X10271667Y-15537571D01*
X10566905Y-15775667D02*
X10557381Y-15766143D01*
X10538333Y-15737571D01*
X10528810Y-15718524D01*
X10519286Y-15689952D01*
X10509762Y-15642333D01*
X10509762Y-15604238D01*
X10519286Y-15556619D01*
X10528810Y-15528048D01*
X10538333Y-15509000D01*
X10557381Y-15480428D01*
X10566905Y-15470905D01*
X10728810Y-15566143D02*
X10728810Y-15699476D01*
X10681190Y-15489952D02*
X10633571Y-15632809D01*
X10757381Y-15632809D01*
X10985952Y-15699476D02*
X10985952Y-15499476D01*
X11071667Y-15699476D02*
X11071667Y-15594714D01*
X11062143Y-15575667D01*
X11043095Y-15566143D01*
X11014524Y-15566143D01*
X10995476Y-15575667D01*
X10985952Y-15585190D01*
X11195476Y-15699476D02*
X11176429Y-15689952D01*
X11166905Y-15680428D01*
X11157381Y-15661381D01*
X11157381Y-15604238D01*
X11166905Y-15585190D01*
X11176429Y-15575667D01*
X11195476Y-15566143D01*
X11224048Y-15566143D01*
X11243095Y-15575667D01*
X11252619Y-15585190D01*
X11262143Y-15604238D01*
X11262143Y-15661381D01*
X11252619Y-15680428D01*
X11243095Y-15689952D01*
X11224048Y-15699476D01*
X11195476Y-15699476D01*
X11376428Y-15699476D02*
X11357381Y-15689952D01*
X11347857Y-15670905D01*
X11347857Y-15499476D01*
X11528809Y-15689952D02*
X11509762Y-15699476D01*
X11471667Y-15699476D01*
X11452619Y-15689952D01*
X11443095Y-15670905D01*
X11443095Y-15594714D01*
X11452619Y-15575667D01*
X11471667Y-15566143D01*
X11509762Y-15566143D01*
X11528809Y-15575667D01*
X11538333Y-15594714D01*
X11538333Y-15613762D01*
X11443095Y-15632809D01*
X11614524Y-15689952D02*
X11633571Y-15699476D01*
X11671667Y-15699476D01*
X11690714Y-15689952D01*
X11700238Y-15670905D01*
X11700238Y-15661381D01*
X11690714Y-15642333D01*
X11671667Y-15632809D01*
X11643095Y-15632809D01*
X11624048Y-15623286D01*
X11614524Y-15604238D01*
X11614524Y-15594714D01*
X11624048Y-15575667D01*
X11643095Y-15566143D01*
X11671667Y-15566143D01*
X11690714Y-15575667D01*
X11766905Y-15775667D02*
X11776428Y-15766143D01*
X11795476Y-15737571D01*
X11805000Y-15718524D01*
X11814524Y-15689952D01*
X11824048Y-15642333D01*
X11824048Y-15604238D01*
X11814524Y-15556619D01*
X11805000Y-15528048D01*
X11795476Y-15509000D01*
X11776428Y-15480428D01*
X11766905Y-15470905D01*
X6895000Y-15773000D02*
X6895000Y-15973000D01*
X6795000Y-15873000D02*
X6995000Y-15873000D01*
X7243095Y-15782524D02*
X7252619Y-15773000D01*
X7271667Y-15763476D01*
X7319286Y-15763476D01*
X7338333Y-15773000D01*
X7347857Y-15782524D01*
X7357381Y-15801571D01*
X7357381Y-15820619D01*
X7347857Y-15849190D01*
X7233571Y-15963476D01*
X7357381Y-15963476D01*
X7443095Y-15944428D02*
X7452619Y-15953952D01*
X7443095Y-15963476D01*
X7433571Y-15953952D01*
X7443095Y-15944428D01*
X7443095Y-15963476D01*
X7519286Y-15763476D02*
X7652619Y-15763476D01*
X7566905Y-15963476D01*
X7766905Y-15763476D02*
X7785952Y-15763476D01*
X7805000Y-15773000D01*
X7814524Y-15782524D01*
X7824048Y-15801571D01*
X7833571Y-15839667D01*
X7833571Y-15887286D01*
X7824048Y-15925381D01*
X7814524Y-15944428D01*
X7805000Y-15953952D01*
X7785952Y-15963476D01*
X7766905Y-15963476D01*
X7747857Y-15953952D01*
X7738333Y-15944428D01*
X7728809Y-15925381D01*
X7719286Y-15887286D01*
X7719286Y-15839667D01*
X7728809Y-15801571D01*
X7738333Y-15782524D01*
X7747857Y-15773000D01*
X7766905Y-15763476D01*
X7957381Y-15763476D02*
X7976428Y-15763476D01*
X7995476Y-15773000D01*
X8005000Y-15782524D01*
X8014524Y-15801571D01*
X8024048Y-15839667D01*
X8024048Y-15887286D01*
X8014524Y-15925381D01*
X8005000Y-15944428D01*
X7995476Y-15953952D01*
X7976428Y-15963476D01*
X7957381Y-15963476D01*
X7938333Y-15953952D01*
X7928809Y-15944428D01*
X7919286Y-15925381D01*
X7909762Y-15887286D01*
X7909762Y-15839667D01*
X7919286Y-15801571D01*
X7928809Y-15782524D01*
X7938333Y-15773000D01*
X7957381Y-15763476D01*
X8109762Y-15963476D02*
X8109762Y-15830143D01*
X8109762Y-15849190D02*
X8119286Y-15839667D01*
X8138333Y-15830143D01*
X8166905Y-15830143D01*
X8185952Y-15839667D01*
X8195476Y-15858714D01*
X8195476Y-15963476D01*
X8195476Y-15858714D02*
X8205000Y-15839667D01*
X8224048Y-15830143D01*
X8252619Y-15830143D01*
X8271667Y-15839667D01*
X8281190Y-15858714D01*
X8281190Y-15963476D01*
X8376428Y-15963476D02*
X8376428Y-15830143D01*
X8376428Y-15849190D02*
X8385952Y-15839667D01*
X8405000Y-15830143D01*
X8433571Y-15830143D01*
X8452619Y-15839667D01*
X8462143Y-15858714D01*
X8462143Y-15963476D01*
X8462143Y-15858714D02*
X8471667Y-15839667D01*
X8490714Y-15830143D01*
X8519286Y-15830143D01*
X8538333Y-15839667D01*
X8547857Y-15858714D01*
X8547857Y-15963476D01*
X8938333Y-15753952D02*
X8766905Y-16011095D01*
X9195476Y-15763476D02*
X9214524Y-15763476D01*
X9233571Y-15773000D01*
X9243095Y-15782524D01*
X9252619Y-15801571D01*
X9262143Y-15839667D01*
X9262143Y-15887286D01*
X9252619Y-15925381D01*
X9243095Y-15944428D01*
X9233571Y-15953952D01*
X9214524Y-15963476D01*
X9195476Y-15963476D01*
X9176429Y-15953952D01*
X9166905Y-15944428D01*
X9157381Y-15925381D01*
X9147857Y-15887286D01*
X9147857Y-15839667D01*
X9157381Y-15801571D01*
X9166905Y-15782524D01*
X9176429Y-15773000D01*
X9195476Y-15763476D01*
X9347857Y-15944428D02*
X9357381Y-15953952D01*
X9347857Y-15963476D01*
X9338333Y-15953952D01*
X9347857Y-15944428D01*
X9347857Y-15963476D01*
X9547857Y-15963476D02*
X9433571Y-15963476D01*
X9490714Y-15963476D02*
X9490714Y-15763476D01*
X9471667Y-15792048D01*
X9452619Y-15811095D01*
X9433571Y-15820619D01*
X9671667Y-15763476D02*
X9690714Y-15763476D01*
X9709762Y-15773000D01*
X9719286Y-15782524D01*
X9728810Y-15801571D01*
X9738333Y-15839667D01*
X9738333Y-15887286D01*
X9728810Y-15925381D01*
X9719286Y-15944428D01*
X9709762Y-15953952D01*
X9690714Y-15963476D01*
X9671667Y-15963476D01*
X9652619Y-15953952D01*
X9643095Y-15944428D01*
X9633571Y-15925381D01*
X9624048Y-15887286D01*
X9624048Y-15839667D01*
X9633571Y-15801571D01*
X9643095Y-15782524D01*
X9652619Y-15773000D01*
X9671667Y-15763476D01*
X9909762Y-15763476D02*
X9871667Y-15763476D01*
X9852619Y-15773000D01*
X9843095Y-15782524D01*
X9824048Y-15811095D01*
X9814524Y-15849190D01*
X9814524Y-15925381D01*
X9824048Y-15944428D01*
X9833571Y-15953952D01*
X9852619Y-15963476D01*
X9890714Y-15963476D01*
X9909762Y-15953952D01*
X9919286Y-15944428D01*
X9928810Y-15925381D01*
X9928810Y-15877762D01*
X9919286Y-15858714D01*
X9909762Y-15849190D01*
X9890714Y-15839667D01*
X9852619Y-15839667D01*
X9833571Y-15849190D01*
X9824048Y-15858714D01*
X9814524Y-15877762D01*
X9995476Y-15763476D02*
X10119286Y-15763476D01*
X10052619Y-15839667D01*
X10081190Y-15839667D01*
X10100238Y-15849190D01*
X10109762Y-15858714D01*
X10119286Y-15877762D01*
X10119286Y-15925381D01*
X10109762Y-15944428D01*
X10100238Y-15953952D01*
X10081190Y-15963476D01*
X10024048Y-15963476D01*
X10005000Y-15953952D01*
X9995476Y-15944428D01*
X10195476Y-15763476D02*
X10195476Y-15801571D01*
X10271667Y-15763476D02*
X10271667Y-15801571D01*
X10566905Y-16039667D02*
X10557381Y-16030143D01*
X10538333Y-16001571D01*
X10528810Y-15982524D01*
X10519286Y-15953952D01*
X10509762Y-15906333D01*
X10509762Y-15868238D01*
X10519286Y-15820619D01*
X10528810Y-15792048D01*
X10538333Y-15773000D01*
X10557381Y-15744428D01*
X10566905Y-15734905D01*
X10728810Y-15830143D02*
X10728810Y-15963476D01*
X10681190Y-15753952D02*
X10633571Y-15896809D01*
X10757381Y-15896809D01*
X10985952Y-15963476D02*
X10985952Y-15763476D01*
X11071667Y-15963476D02*
X11071667Y-15858714D01*
X11062143Y-15839667D01*
X11043095Y-15830143D01*
X11014524Y-15830143D01*
X10995476Y-15839667D01*
X10985952Y-15849190D01*
X11195476Y-15963476D02*
X11176429Y-15953952D01*
X11166905Y-15944428D01*
X11157381Y-15925381D01*
X11157381Y-15868238D01*
X11166905Y-15849190D01*
X11176429Y-15839667D01*
X11195476Y-15830143D01*
X11224048Y-15830143D01*
X11243095Y-15839667D01*
X11252619Y-15849190D01*
X11262143Y-15868238D01*
X11262143Y-15925381D01*
X11252619Y-15944428D01*
X11243095Y-15953952D01*
X11224048Y-15963476D01*
X11195476Y-15963476D01*
X11376428Y-15963476D02*
X11357381Y-15953952D01*
X11347857Y-15934905D01*
X11347857Y-15763476D01*
X11528809Y-15953952D02*
X11509762Y-15963476D01*
X11471667Y-15963476D01*
X11452619Y-15953952D01*
X11443095Y-15934905D01*
X11443095Y-15858714D01*
X11452619Y-15839667D01*
X11471667Y-15830143D01*
X11509762Y-15830143D01*
X11528809Y-15839667D01*
X11538333Y-15858714D01*
X11538333Y-15877762D01*
X11443095Y-15896809D01*
X11614524Y-15953952D02*
X11633571Y-15963476D01*
X11671667Y-15963476D01*
X11690714Y-15953952D01*
X11700238Y-15934905D01*
X11700238Y-15925381D01*
X11690714Y-15906333D01*
X11671667Y-15896809D01*
X11643095Y-15896809D01*
X11624048Y-15887286D01*
X11614524Y-15868238D01*
X11614524Y-15858714D01*
X11624048Y-15839667D01*
X11643095Y-15830143D01*
X11671667Y-15830143D01*
X11690714Y-15839667D01*
X11766905Y-16039667D02*
X11776428Y-16030143D01*
X11795476Y-16001571D01*
X11805000Y-15982524D01*
X11814524Y-15953952D01*
X11824048Y-15906333D01*
X11824048Y-15868238D01*
X11814524Y-15820619D01*
X11805000Y-15792048D01*
X11795476Y-15773000D01*
X11776428Y-15744428D01*
X11766905Y-15734905D01*
X6965711Y-16263711D02*
X6965711Y-16122289D01*
X6824289Y-16122289D01*
X6824289Y-16263711D01*
X6965711Y-16263711D01*
X7233571Y-16083476D02*
X7357381Y-16083476D01*
X7290714Y-16159667D01*
X7319286Y-16159667D01*
X7338333Y-16169190D01*
X7347857Y-16178714D01*
X7357381Y-16197762D01*
X7357381Y-16245381D01*
X7347857Y-16264428D01*
X7338333Y-16273952D01*
X7319286Y-16283476D01*
X7262143Y-16283476D01*
X7243095Y-16273952D01*
X7233571Y-16264428D01*
X7443095Y-16264428D02*
X7452619Y-16273952D01*
X7443095Y-16283476D01*
X7433571Y-16273952D01*
X7443095Y-16264428D01*
X7443095Y-16283476D01*
X7519286Y-16083476D02*
X7652619Y-16083476D01*
X7566905Y-16283476D01*
X7766905Y-16083476D02*
X7785952Y-16083476D01*
X7805000Y-16093000D01*
X7814524Y-16102524D01*
X7824048Y-16121571D01*
X7833571Y-16159667D01*
X7833571Y-16207286D01*
X7824048Y-16245381D01*
X7814524Y-16264428D01*
X7805000Y-16273952D01*
X7785952Y-16283476D01*
X7766905Y-16283476D01*
X7747857Y-16273952D01*
X7738333Y-16264428D01*
X7728809Y-16245381D01*
X7719286Y-16207286D01*
X7719286Y-16159667D01*
X7728809Y-16121571D01*
X7738333Y-16102524D01*
X7747857Y-16093000D01*
X7766905Y-16083476D01*
X7957381Y-16083476D02*
X7976428Y-16083476D01*
X7995476Y-16093000D01*
X8005000Y-16102524D01*
X8014524Y-16121571D01*
X8024048Y-16159667D01*
X8024048Y-16207286D01*
X8014524Y-16245381D01*
X8005000Y-16264428D01*
X7995476Y-16273952D01*
X7976428Y-16283476D01*
X7957381Y-16283476D01*
X7938333Y-16273952D01*
X7928809Y-16264428D01*
X7919286Y-16245381D01*
X7909762Y-16207286D01*
X7909762Y-16159667D01*
X7919286Y-16121571D01*
X7928809Y-16102524D01*
X7938333Y-16093000D01*
X7957381Y-16083476D01*
X8109762Y-16283476D02*
X8109762Y-16150143D01*
X8109762Y-16169190D02*
X8119286Y-16159667D01*
X8138333Y-16150143D01*
X8166905Y-16150143D01*
X8185952Y-16159667D01*
X8195476Y-16178714D01*
X8195476Y-16283476D01*
X8195476Y-16178714D02*
X8205000Y-16159667D01*
X8224048Y-16150143D01*
X8252619Y-16150143D01*
X8271667Y-16159667D01*
X8281190Y-16178714D01*
X8281190Y-16283476D01*
X8376428Y-16283476D02*
X8376428Y-16150143D01*
X8376428Y-16169190D02*
X8385952Y-16159667D01*
X8405000Y-16150143D01*
X8433571Y-16150143D01*
X8452619Y-16159667D01*
X8462143Y-16178714D01*
X8462143Y-16283476D01*
X8462143Y-16178714D02*
X8471667Y-16159667D01*
X8490714Y-16150143D01*
X8519286Y-16150143D01*
X8538333Y-16159667D01*
X8547857Y-16178714D01*
X8547857Y-16283476D01*
X8938333Y-16073952D02*
X8766905Y-16331095D01*
X9195476Y-16083476D02*
X9214524Y-16083476D01*
X9233571Y-16093000D01*
X9243095Y-16102524D01*
X9252619Y-16121571D01*
X9262143Y-16159667D01*
X9262143Y-16207286D01*
X9252619Y-16245381D01*
X9243095Y-16264428D01*
X9233571Y-16273952D01*
X9214524Y-16283476D01*
X9195476Y-16283476D01*
X9176429Y-16273952D01*
X9166905Y-16264428D01*
X9157381Y-16245381D01*
X9147857Y-16207286D01*
X9147857Y-16159667D01*
X9157381Y-16121571D01*
X9166905Y-16102524D01*
X9176429Y-16093000D01*
X9195476Y-16083476D01*
X9347857Y-16264428D02*
X9357381Y-16273952D01*
X9347857Y-16283476D01*
X9338333Y-16273952D01*
X9347857Y-16264428D01*
X9347857Y-16283476D01*
X9547857Y-16283476D02*
X9433571Y-16283476D01*
X9490714Y-16283476D02*
X9490714Y-16083476D01*
X9471667Y-16112048D01*
X9452619Y-16131095D01*
X9433571Y-16140619D01*
X9719286Y-16150143D02*
X9719286Y-16283476D01*
X9671667Y-16073952D02*
X9624048Y-16216809D01*
X9747857Y-16216809D01*
X9919286Y-16083476D02*
X9824048Y-16083476D01*
X9814524Y-16178714D01*
X9824048Y-16169190D01*
X9843095Y-16159667D01*
X9890714Y-16159667D01*
X9909762Y-16169190D01*
X9919286Y-16178714D01*
X9928810Y-16197762D01*
X9928810Y-16245381D01*
X9919286Y-16264428D01*
X9909762Y-16273952D01*
X9890714Y-16283476D01*
X9843095Y-16283476D01*
X9824048Y-16273952D01*
X9814524Y-16264428D01*
X9995476Y-16083476D02*
X10128810Y-16083476D01*
X10043095Y-16283476D01*
X10195476Y-16083476D02*
X10195476Y-16121571D01*
X10271667Y-16083476D02*
X10271667Y-16121571D01*
X10566905Y-16359667D02*
X10557381Y-16350143D01*
X10538333Y-16321571D01*
X10528810Y-16302524D01*
X10519286Y-16273952D01*
X10509762Y-16226333D01*
X10509762Y-16188238D01*
X10519286Y-16140619D01*
X10528810Y-16112048D01*
X10538333Y-16093000D01*
X10557381Y-16064428D01*
X10566905Y-16054905D01*
X10728810Y-16150143D02*
X10728810Y-16283476D01*
X10681190Y-16073952D02*
X10633571Y-16216809D01*
X10757381Y-16216809D01*
X10985952Y-16283476D02*
X10985952Y-16083476D01*
X11071667Y-16283476D02*
X11071667Y-16178714D01*
X11062143Y-16159667D01*
X11043095Y-16150143D01*
X11014524Y-16150143D01*
X10995476Y-16159667D01*
X10985952Y-16169190D01*
X11195476Y-16283476D02*
X11176429Y-16273952D01*
X11166905Y-16264428D01*
X11157381Y-16245381D01*
X11157381Y-16188238D01*
X11166905Y-16169190D01*
X11176429Y-16159667D01*
X11195476Y-16150143D01*
X11224048Y-16150143D01*
X11243095Y-16159667D01*
X11252619Y-16169190D01*
X11262143Y-16188238D01*
X11262143Y-16245381D01*
X11252619Y-16264428D01*
X11243095Y-16273952D01*
X11224048Y-16283476D01*
X11195476Y-16283476D01*
X11376428Y-16283476D02*
X11357381Y-16273952D01*
X11347857Y-16254905D01*
X11347857Y-16083476D01*
X11528809Y-16273952D02*
X11509762Y-16283476D01*
X11471667Y-16283476D01*
X11452619Y-16273952D01*
X11443095Y-16254905D01*
X11443095Y-16178714D01*
X11452619Y-16159667D01*
X11471667Y-16150143D01*
X11509762Y-16150143D01*
X11528809Y-16159667D01*
X11538333Y-16178714D01*
X11538333Y-16197762D01*
X11443095Y-16216809D01*
X11614524Y-16273952D02*
X11633571Y-16283476D01*
X11671667Y-16283476D01*
X11690714Y-16273952D01*
X11700238Y-16254905D01*
X11700238Y-16245381D01*
X11690714Y-16226333D01*
X11671667Y-16216809D01*
X11643095Y-16216809D01*
X11624048Y-16207286D01*
X11614524Y-16188238D01*
X11614524Y-16178714D01*
X11624048Y-16159667D01*
X11643095Y-16150143D01*
X11671667Y-16150143D01*
X11690714Y-16159667D01*
X11766905Y-16359667D02*
X11776428Y-16350143D01*
X11795476Y-16321571D01*
X11805000Y-16302524D01*
X11814524Y-16273952D01*
X11824048Y-16226333D01*
X11824048Y-16188238D01*
X11814524Y-16140619D01*
X11805000Y-16112048D01*
X11795476Y-16093000D01*
X11776428Y-16064428D01*
X11766905Y-16054905D01*
M02*
