G04 #@! TF.GenerationSoftware,KiCad,Pcbnew,(7.0.0-0)*
G04 #@! TF.CreationDate,2023-03-19T01:12:47-04:00*
G04 #@! TF.ProjectId,bottom-adapter,626f7474-6f6d-42d6-9164-61707465722e,3*
G04 #@! TF.SameCoordinates,Original*
G04 #@! TF.FileFunction,Legend,Bot*
G04 #@! TF.FilePolarity,Positive*
%FSLAX46Y46*%
G04 Gerber Fmt 4.6, Leading zero omitted, Abs format (unit mm)*
G04 Created by KiCad (PCBNEW (7.0.0-0)) date 2023-03-19 01:12:47*
%MOMM*%
%LPD*%
G01*
G04 APERTURE LIST*
%ADD10C,0.150000*%
%ADD11C,0.230000*%
%ADD12C,0.120000*%
%ADD13C,5.500000*%
%ADD14R,2.000000X2.000000*%
%ADD15C,4.300000*%
%ADD16R,1.100000X1.450000*%
%ADD17R,1.350000X2.899999*%
G04 APERTURE END LIST*
D10*
X113576190Y-95543571D02*
X113433333Y-95591190D01*
X113433333Y-95591190D02*
X113385714Y-95638809D01*
X113385714Y-95638809D02*
X113338095Y-95734047D01*
X113338095Y-95734047D02*
X113338095Y-95876904D01*
X113338095Y-95876904D02*
X113385714Y-95972142D01*
X113385714Y-95972142D02*
X113433333Y-96019761D01*
X113433333Y-96019761D02*
X113528571Y-96067380D01*
X113528571Y-96067380D02*
X113909523Y-96067380D01*
X113909523Y-96067380D02*
X113909523Y-95067380D01*
X113909523Y-95067380D02*
X113576190Y-95067380D01*
X113576190Y-95067380D02*
X113480952Y-95115000D01*
X113480952Y-95115000D02*
X113433333Y-95162619D01*
X113433333Y-95162619D02*
X113385714Y-95257857D01*
X113385714Y-95257857D02*
X113385714Y-95353095D01*
X113385714Y-95353095D02*
X113433333Y-95448333D01*
X113433333Y-95448333D02*
X113480952Y-95495952D01*
X113480952Y-95495952D02*
X113576190Y-95543571D01*
X113576190Y-95543571D02*
X113909523Y-95543571D01*
X112909523Y-95067380D02*
X112909523Y-95876904D01*
X112909523Y-95876904D02*
X112861904Y-95972142D01*
X112861904Y-95972142D02*
X112814285Y-96019761D01*
X112814285Y-96019761D02*
X112719047Y-96067380D01*
X112719047Y-96067380D02*
X112528571Y-96067380D01*
X112528571Y-96067380D02*
X112433333Y-96019761D01*
X112433333Y-96019761D02*
X112385714Y-95972142D01*
X112385714Y-95972142D02*
X112338095Y-95876904D01*
X112338095Y-95876904D02*
X112338095Y-95067380D01*
X111290476Y-96067380D02*
X111623809Y-95591190D01*
X111861904Y-96067380D02*
X111861904Y-95067380D01*
X111861904Y-95067380D02*
X111480952Y-95067380D01*
X111480952Y-95067380D02*
X111385714Y-95115000D01*
X111385714Y-95115000D02*
X111338095Y-95162619D01*
X111338095Y-95162619D02*
X111290476Y-95257857D01*
X111290476Y-95257857D02*
X111290476Y-95400714D01*
X111290476Y-95400714D02*
X111338095Y-95495952D01*
X111338095Y-95495952D02*
X111385714Y-95543571D01*
X111385714Y-95543571D02*
X111480952Y-95591190D01*
X111480952Y-95591190D02*
X111861904Y-95591190D01*
X110861904Y-96067380D02*
X110861904Y-95067380D01*
X110861904Y-95067380D02*
X110290476Y-96067380D01*
X110290476Y-96067380D02*
X110290476Y-95067380D01*
X112761904Y-101015000D02*
X112857142Y-100967380D01*
X112857142Y-100967380D02*
X112999999Y-100967380D01*
X112999999Y-100967380D02*
X113142856Y-101015000D01*
X113142856Y-101015000D02*
X113238094Y-101110238D01*
X113238094Y-101110238D02*
X113285713Y-101205476D01*
X113285713Y-101205476D02*
X113333332Y-101395952D01*
X113333332Y-101395952D02*
X113333332Y-101538809D01*
X113333332Y-101538809D02*
X113285713Y-101729285D01*
X113285713Y-101729285D02*
X113238094Y-101824523D01*
X113238094Y-101824523D02*
X113142856Y-101919761D01*
X113142856Y-101919761D02*
X112999999Y-101967380D01*
X112999999Y-101967380D02*
X112904761Y-101967380D01*
X112904761Y-101967380D02*
X112761904Y-101919761D01*
X112761904Y-101919761D02*
X112714285Y-101872142D01*
X112714285Y-101872142D02*
X112714285Y-101538809D01*
X112714285Y-101538809D02*
X112904761Y-101538809D01*
X112285713Y-101967380D02*
X112285713Y-100967380D01*
X112285713Y-100967380D02*
X111714285Y-101967380D01*
X111714285Y-101967380D02*
X111714285Y-100967380D01*
X111238094Y-101967380D02*
X111238094Y-100967380D01*
X111238094Y-100967380D02*
X110999999Y-100967380D01*
X110999999Y-100967380D02*
X110857142Y-101015000D01*
X110857142Y-101015000D02*
X110761904Y-101110238D01*
X110761904Y-101110238D02*
X110714285Y-101205476D01*
X110714285Y-101205476D02*
X110666666Y-101395952D01*
X110666666Y-101395952D02*
X110666666Y-101538809D01*
X110666666Y-101538809D02*
X110714285Y-101729285D01*
X110714285Y-101729285D02*
X110761904Y-101824523D01*
X110761904Y-101824523D02*
X110857142Y-101919761D01*
X110857142Y-101919761D02*
X110999999Y-101967380D01*
X110999999Y-101967380D02*
X111238094Y-101967380D01*
D11*
X126031664Y-111694976D02*
X125867378Y-111749738D01*
X125867378Y-111749738D02*
X125593569Y-111749738D01*
X125593569Y-111749738D02*
X125484045Y-111694976D01*
X125484045Y-111694976D02*
X125429283Y-111640214D01*
X125429283Y-111640214D02*
X125374521Y-111530690D01*
X125374521Y-111530690D02*
X125374521Y-111421166D01*
X125374521Y-111421166D02*
X125429283Y-111311642D01*
X125429283Y-111311642D02*
X125484045Y-111256880D01*
X125484045Y-111256880D02*
X125593569Y-111202119D01*
X125593569Y-111202119D02*
X125812616Y-111147357D01*
X125812616Y-111147357D02*
X125922140Y-111092595D01*
X125922140Y-111092595D02*
X125976902Y-111037833D01*
X125976902Y-111037833D02*
X126031664Y-110928309D01*
X126031664Y-110928309D02*
X126031664Y-110818785D01*
X126031664Y-110818785D02*
X125976902Y-110709261D01*
X125976902Y-110709261D02*
X125922140Y-110654500D01*
X125922140Y-110654500D02*
X125812616Y-110599738D01*
X125812616Y-110599738D02*
X125538807Y-110599738D01*
X125538807Y-110599738D02*
X125374521Y-110654500D01*
X124881664Y-110983071D02*
X124881664Y-112133071D01*
X124881664Y-111037833D02*
X124772140Y-110983071D01*
X124772140Y-110983071D02*
X124553093Y-110983071D01*
X124553093Y-110983071D02*
X124443569Y-111037833D01*
X124443569Y-111037833D02*
X124388807Y-111092595D01*
X124388807Y-111092595D02*
X124334045Y-111202119D01*
X124334045Y-111202119D02*
X124334045Y-111530690D01*
X124334045Y-111530690D02*
X124388807Y-111640214D01*
X124388807Y-111640214D02*
X124443569Y-111694976D01*
X124443569Y-111694976D02*
X124553093Y-111749738D01*
X124553093Y-111749738D02*
X124772140Y-111749738D01*
X124772140Y-111749738D02*
X124881664Y-111694976D01*
X123403093Y-111694976D02*
X123512617Y-111749738D01*
X123512617Y-111749738D02*
X123731664Y-111749738D01*
X123731664Y-111749738D02*
X123841188Y-111694976D01*
X123841188Y-111694976D02*
X123895950Y-111585452D01*
X123895950Y-111585452D02*
X123895950Y-111147357D01*
X123895950Y-111147357D02*
X123841188Y-111037833D01*
X123841188Y-111037833D02*
X123731664Y-110983071D01*
X123731664Y-110983071D02*
X123512617Y-110983071D01*
X123512617Y-110983071D02*
X123403093Y-111037833D01*
X123403093Y-111037833D02*
X123348331Y-111147357D01*
X123348331Y-111147357D02*
X123348331Y-111256880D01*
X123348331Y-111256880D02*
X123895950Y-111366404D01*
X122362617Y-111694976D02*
X122472141Y-111749738D01*
X122472141Y-111749738D02*
X122691188Y-111749738D01*
X122691188Y-111749738D02*
X122800712Y-111694976D01*
X122800712Y-111694976D02*
X122855474Y-111640214D01*
X122855474Y-111640214D02*
X122910236Y-111530690D01*
X122910236Y-111530690D02*
X122910236Y-111202119D01*
X122910236Y-111202119D02*
X122855474Y-111092595D01*
X122855474Y-111092595D02*
X122800712Y-111037833D01*
X122800712Y-111037833D02*
X122691188Y-110983071D01*
X122691188Y-110983071D02*
X122472141Y-110983071D01*
X122472141Y-110983071D02*
X122362617Y-111037833D01*
X121869760Y-111749738D02*
X121869760Y-110983071D01*
X121869760Y-110599738D02*
X121924522Y-110654500D01*
X121924522Y-110654500D02*
X121869760Y-110709261D01*
X121869760Y-110709261D02*
X121814998Y-110654500D01*
X121814998Y-110654500D02*
X121869760Y-110599738D01*
X121869760Y-110599738D02*
X121869760Y-110709261D01*
X120829284Y-111749738D02*
X120829284Y-111147357D01*
X120829284Y-111147357D02*
X120884046Y-111037833D01*
X120884046Y-111037833D02*
X120993570Y-110983071D01*
X120993570Y-110983071D02*
X121212617Y-110983071D01*
X121212617Y-110983071D02*
X121322141Y-111037833D01*
X120829284Y-111694976D02*
X120938808Y-111749738D01*
X120938808Y-111749738D02*
X121212617Y-111749738D01*
X121212617Y-111749738D02*
X121322141Y-111694976D01*
X121322141Y-111694976D02*
X121376903Y-111585452D01*
X121376903Y-111585452D02*
X121376903Y-111475928D01*
X121376903Y-111475928D02*
X121322141Y-111366404D01*
X121322141Y-111366404D02*
X121212617Y-111311642D01*
X121212617Y-111311642D02*
X120938808Y-111311642D01*
X120938808Y-111311642D02*
X120829284Y-111256880D01*
X120117379Y-111749738D02*
X120226903Y-111694976D01*
X120226903Y-111694976D02*
X120281665Y-111585452D01*
X120281665Y-111585452D02*
X120281665Y-110599738D01*
X119153570Y-110599738D02*
X118496427Y-110599738D01*
X118824998Y-111749738D02*
X118824998Y-110599738D01*
X118113094Y-111749738D02*
X118113094Y-110599738D01*
X117620237Y-111749738D02*
X117620237Y-111147357D01*
X117620237Y-111147357D02*
X117674999Y-111037833D01*
X117674999Y-111037833D02*
X117784523Y-110983071D01*
X117784523Y-110983071D02*
X117948808Y-110983071D01*
X117948808Y-110983071D02*
X118058332Y-111037833D01*
X118058332Y-111037833D02*
X118113094Y-111092595D01*
X116579761Y-111749738D02*
X116579761Y-111147357D01*
X116579761Y-111147357D02*
X116634523Y-111037833D01*
X116634523Y-111037833D02*
X116744047Y-110983071D01*
X116744047Y-110983071D02*
X116963094Y-110983071D01*
X116963094Y-110983071D02*
X117072618Y-111037833D01*
X116579761Y-111694976D02*
X116689285Y-111749738D01*
X116689285Y-111749738D02*
X116963094Y-111749738D01*
X116963094Y-111749738D02*
X117072618Y-111694976D01*
X117072618Y-111694976D02*
X117127380Y-111585452D01*
X117127380Y-111585452D02*
X117127380Y-111475928D01*
X117127380Y-111475928D02*
X117072618Y-111366404D01*
X117072618Y-111366404D02*
X116963094Y-111311642D01*
X116963094Y-111311642D02*
X116689285Y-111311642D01*
X116689285Y-111311642D02*
X116579761Y-111256880D01*
X116032142Y-110983071D02*
X116032142Y-111749738D01*
X116032142Y-111092595D02*
X115977380Y-111037833D01*
X115977380Y-111037833D02*
X115867856Y-110983071D01*
X115867856Y-110983071D02*
X115703571Y-110983071D01*
X115703571Y-110983071D02*
X115594047Y-111037833D01*
X115594047Y-111037833D02*
X115539285Y-111147357D01*
X115539285Y-111147357D02*
X115539285Y-111749738D01*
X114991666Y-111749738D02*
X114991666Y-110599738D01*
X114882142Y-111311642D02*
X114553571Y-111749738D01*
X114553571Y-110983071D02*
X114991666Y-111421166D01*
X114115476Y-111694976D02*
X114005952Y-111749738D01*
X114005952Y-111749738D02*
X113786904Y-111749738D01*
X113786904Y-111749738D02*
X113677381Y-111694976D01*
X113677381Y-111694976D02*
X113622619Y-111585452D01*
X113622619Y-111585452D02*
X113622619Y-111530690D01*
X113622619Y-111530690D02*
X113677381Y-111421166D01*
X113677381Y-111421166D02*
X113786904Y-111366404D01*
X113786904Y-111366404D02*
X113951190Y-111366404D01*
X113951190Y-111366404D02*
X114060714Y-111311642D01*
X114060714Y-111311642D02*
X114115476Y-111202119D01*
X114115476Y-111202119D02*
X114115476Y-111147357D01*
X114115476Y-111147357D02*
X114060714Y-111037833D01*
X114060714Y-111037833D02*
X113951190Y-110983071D01*
X113951190Y-110983071D02*
X113786904Y-110983071D01*
X113786904Y-110983071D02*
X113677381Y-111037833D01*
X112604048Y-110599738D02*
X111946905Y-110599738D01*
X112275476Y-111749738D02*
X112275476Y-110599738D01*
X111399286Y-111749738D02*
X111508810Y-111694976D01*
X111508810Y-111694976D02*
X111563572Y-111640214D01*
X111563572Y-111640214D02*
X111618334Y-111530690D01*
X111618334Y-111530690D02*
X111618334Y-111202119D01*
X111618334Y-111202119D02*
X111563572Y-111092595D01*
X111563572Y-111092595D02*
X111508810Y-111037833D01*
X111508810Y-111037833D02*
X111399286Y-110983071D01*
X111399286Y-110983071D02*
X111235001Y-110983071D01*
X111235001Y-110983071D02*
X111125477Y-111037833D01*
X111125477Y-111037833D02*
X111070715Y-111092595D01*
X111070715Y-111092595D02*
X111015953Y-111202119D01*
X111015953Y-111202119D02*
X111015953Y-111530690D01*
X111015953Y-111530690D02*
X111070715Y-111640214D01*
X111070715Y-111640214D02*
X111125477Y-111694976D01*
X111125477Y-111694976D02*
X111235001Y-111749738D01*
X111235001Y-111749738D02*
X111399286Y-111749738D01*
X110523096Y-111640214D02*
X110468334Y-111694976D01*
X110468334Y-111694976D02*
X110523096Y-111749738D01*
X110523096Y-111749738D02*
X110577858Y-111694976D01*
X110577858Y-111694976D02*
X110523096Y-111640214D01*
X110523096Y-111640214D02*
X110523096Y-111749738D01*
X110523096Y-111037833D02*
X110468334Y-111092595D01*
X110468334Y-111092595D02*
X110523096Y-111147357D01*
X110523096Y-111147357D02*
X110577858Y-111092595D01*
X110577858Y-111092595D02*
X110523096Y-111037833D01*
X110523096Y-111037833D02*
X110523096Y-111147357D01*
D10*
X125026191Y-113782380D02*
X124835715Y-113782380D01*
X124835715Y-113782380D02*
X124740477Y-113830000D01*
X124740477Y-113830000D02*
X124645239Y-113925238D01*
X124645239Y-113925238D02*
X124597620Y-114115714D01*
X124597620Y-114115714D02*
X124597620Y-114449047D01*
X124597620Y-114449047D02*
X124645239Y-114639523D01*
X124645239Y-114639523D02*
X124740477Y-114734761D01*
X124740477Y-114734761D02*
X124835715Y-114782380D01*
X124835715Y-114782380D02*
X125026191Y-114782380D01*
X125026191Y-114782380D02*
X125121429Y-114734761D01*
X125121429Y-114734761D02*
X125216667Y-114639523D01*
X125216667Y-114639523D02*
X125264286Y-114449047D01*
X125264286Y-114449047D02*
X125264286Y-114115714D01*
X125264286Y-114115714D02*
X125216667Y-113925238D01*
X125216667Y-113925238D02*
X125121429Y-113830000D01*
X125121429Y-113830000D02*
X125026191Y-113782380D01*
X124026191Y-114782380D02*
X124121429Y-114734761D01*
X124121429Y-114734761D02*
X124169048Y-114639523D01*
X124169048Y-114639523D02*
X124169048Y-113782380D01*
X123264286Y-114734761D02*
X123359524Y-114782380D01*
X123359524Y-114782380D02*
X123550000Y-114782380D01*
X123550000Y-114782380D02*
X123645238Y-114734761D01*
X123645238Y-114734761D02*
X123692857Y-114639523D01*
X123692857Y-114639523D02*
X123692857Y-114258571D01*
X123692857Y-114258571D02*
X123645238Y-114163333D01*
X123645238Y-114163333D02*
X123550000Y-114115714D01*
X123550000Y-114115714D02*
X123359524Y-114115714D01*
X123359524Y-114115714D02*
X123264286Y-114163333D01*
X123264286Y-114163333D02*
X123216667Y-114258571D01*
X123216667Y-114258571D02*
X123216667Y-114353809D01*
X123216667Y-114353809D02*
X123692857Y-114449047D01*
X122359524Y-114115714D02*
X122359524Y-114925238D01*
X122359524Y-114925238D02*
X122407143Y-115020476D01*
X122407143Y-115020476D02*
X122454762Y-115068095D01*
X122454762Y-115068095D02*
X122550000Y-115115714D01*
X122550000Y-115115714D02*
X122692857Y-115115714D01*
X122692857Y-115115714D02*
X122788095Y-115068095D01*
X122359524Y-114734761D02*
X122454762Y-114782380D01*
X122454762Y-114782380D02*
X122645238Y-114782380D01*
X122645238Y-114782380D02*
X122740476Y-114734761D01*
X122740476Y-114734761D02*
X122788095Y-114687142D01*
X122788095Y-114687142D02*
X122835714Y-114591904D01*
X122835714Y-114591904D02*
X122835714Y-114306190D01*
X122835714Y-114306190D02*
X122788095Y-114210952D01*
X122788095Y-114210952D02*
X122740476Y-114163333D01*
X122740476Y-114163333D02*
X122645238Y-114115714D01*
X122645238Y-114115714D02*
X122454762Y-114115714D01*
X122454762Y-114115714D02*
X122359524Y-114163333D01*
X121330952Y-114734761D02*
X121188095Y-114782380D01*
X121188095Y-114782380D02*
X120950000Y-114782380D01*
X120950000Y-114782380D02*
X120854762Y-114734761D01*
X120854762Y-114734761D02*
X120807143Y-114687142D01*
X120807143Y-114687142D02*
X120759524Y-114591904D01*
X120759524Y-114591904D02*
X120759524Y-114496666D01*
X120759524Y-114496666D02*
X120807143Y-114401428D01*
X120807143Y-114401428D02*
X120854762Y-114353809D01*
X120854762Y-114353809D02*
X120950000Y-114306190D01*
X120950000Y-114306190D02*
X121140476Y-114258571D01*
X121140476Y-114258571D02*
X121235714Y-114210952D01*
X121235714Y-114210952D02*
X121283333Y-114163333D01*
X121283333Y-114163333D02*
X121330952Y-114068095D01*
X121330952Y-114068095D02*
X121330952Y-113972857D01*
X121330952Y-113972857D02*
X121283333Y-113877619D01*
X121283333Y-113877619D02*
X121235714Y-113830000D01*
X121235714Y-113830000D02*
X121140476Y-113782380D01*
X121140476Y-113782380D02*
X120902381Y-113782380D01*
X120902381Y-113782380D02*
X120759524Y-113830000D01*
X120330952Y-114782380D02*
X120330952Y-113782380D01*
X119902381Y-114782380D02*
X119902381Y-114258571D01*
X119902381Y-114258571D02*
X119950000Y-114163333D01*
X119950000Y-114163333D02*
X120045238Y-114115714D01*
X120045238Y-114115714D02*
X120188095Y-114115714D01*
X120188095Y-114115714D02*
X120283333Y-114163333D01*
X120283333Y-114163333D02*
X120330952Y-114210952D01*
X118997619Y-114782380D02*
X118997619Y-114258571D01*
X118997619Y-114258571D02*
X119045238Y-114163333D01*
X119045238Y-114163333D02*
X119140476Y-114115714D01*
X119140476Y-114115714D02*
X119330952Y-114115714D01*
X119330952Y-114115714D02*
X119426190Y-114163333D01*
X118997619Y-114734761D02*
X119092857Y-114782380D01*
X119092857Y-114782380D02*
X119330952Y-114782380D01*
X119330952Y-114782380D02*
X119426190Y-114734761D01*
X119426190Y-114734761D02*
X119473809Y-114639523D01*
X119473809Y-114639523D02*
X119473809Y-114544285D01*
X119473809Y-114544285D02*
X119426190Y-114449047D01*
X119426190Y-114449047D02*
X119330952Y-114401428D01*
X119330952Y-114401428D02*
X119092857Y-114401428D01*
X119092857Y-114401428D02*
X118997619Y-114353809D01*
X118521428Y-114782380D02*
X118521428Y-114115714D01*
X118521428Y-114306190D02*
X118473809Y-114210952D01*
X118473809Y-114210952D02*
X118426190Y-114163333D01*
X118426190Y-114163333D02*
X118330952Y-114115714D01*
X118330952Y-114115714D02*
X118235714Y-114115714D01*
X117473809Y-114115714D02*
X117473809Y-114925238D01*
X117473809Y-114925238D02*
X117521428Y-115020476D01*
X117521428Y-115020476D02*
X117569047Y-115068095D01*
X117569047Y-115068095D02*
X117664285Y-115115714D01*
X117664285Y-115115714D02*
X117807142Y-115115714D01*
X117807142Y-115115714D02*
X117902380Y-115068095D01*
X117473809Y-114734761D02*
X117569047Y-114782380D01*
X117569047Y-114782380D02*
X117759523Y-114782380D01*
X117759523Y-114782380D02*
X117854761Y-114734761D01*
X117854761Y-114734761D02*
X117902380Y-114687142D01*
X117902380Y-114687142D02*
X117949999Y-114591904D01*
X117949999Y-114591904D02*
X117949999Y-114306190D01*
X117949999Y-114306190D02*
X117902380Y-114210952D01*
X117902380Y-114210952D02*
X117854761Y-114163333D01*
X117854761Y-114163333D02*
X117759523Y-114115714D01*
X117759523Y-114115714D02*
X117569047Y-114115714D01*
X117569047Y-114115714D02*
X117473809Y-114163333D01*
X116854761Y-114782380D02*
X116949999Y-114734761D01*
X116949999Y-114734761D02*
X116997618Y-114687142D01*
X116997618Y-114687142D02*
X117045237Y-114591904D01*
X117045237Y-114591904D02*
X117045237Y-114306190D01*
X117045237Y-114306190D02*
X116997618Y-114210952D01*
X116997618Y-114210952D02*
X116949999Y-114163333D01*
X116949999Y-114163333D02*
X116854761Y-114115714D01*
X116854761Y-114115714D02*
X116711904Y-114115714D01*
X116711904Y-114115714D02*
X116616666Y-114163333D01*
X116616666Y-114163333D02*
X116569047Y-114210952D01*
X116569047Y-114210952D02*
X116521428Y-114306190D01*
X116521428Y-114306190D02*
X116521428Y-114591904D01*
X116521428Y-114591904D02*
X116569047Y-114687142D01*
X116569047Y-114687142D02*
X116616666Y-114734761D01*
X116616666Y-114734761D02*
X116711904Y-114782380D01*
X116711904Y-114782380D02*
X116854761Y-114782380D01*
X116092856Y-114782380D02*
X116092856Y-114115714D01*
X116092856Y-114306190D02*
X116045237Y-114210952D01*
X116045237Y-114210952D02*
X115997618Y-114163333D01*
X115997618Y-114163333D02*
X115902380Y-114115714D01*
X115902380Y-114115714D02*
X115807142Y-114115714D01*
X115330951Y-114782380D02*
X115426189Y-114734761D01*
X115426189Y-114734761D02*
X115473808Y-114687142D01*
X115473808Y-114687142D02*
X115521427Y-114591904D01*
X115521427Y-114591904D02*
X115521427Y-114306190D01*
X115521427Y-114306190D02*
X115473808Y-114210952D01*
X115473808Y-114210952D02*
X115426189Y-114163333D01*
X115426189Y-114163333D02*
X115330951Y-114115714D01*
X115330951Y-114115714D02*
X115188094Y-114115714D01*
X115188094Y-114115714D02*
X115092856Y-114163333D01*
X115092856Y-114163333D02*
X115045237Y-114210952D01*
X115045237Y-114210952D02*
X114997618Y-114306190D01*
X114997618Y-114306190D02*
X114997618Y-114591904D01*
X114997618Y-114591904D02*
X115045237Y-114687142D01*
X115045237Y-114687142D02*
X115092856Y-114734761D01*
X115092856Y-114734761D02*
X115188094Y-114782380D01*
X115188094Y-114782380D02*
X115330951Y-114782380D01*
X114140475Y-114782380D02*
X114140475Y-113782380D01*
X114140475Y-114734761D02*
X114235713Y-114782380D01*
X114235713Y-114782380D02*
X114426189Y-114782380D01*
X114426189Y-114782380D02*
X114521427Y-114734761D01*
X114521427Y-114734761D02*
X114569046Y-114687142D01*
X114569046Y-114687142D02*
X114616665Y-114591904D01*
X114616665Y-114591904D02*
X114616665Y-114306190D01*
X114616665Y-114306190D02*
X114569046Y-114210952D01*
X114569046Y-114210952D02*
X114521427Y-114163333D01*
X114521427Y-114163333D02*
X114426189Y-114115714D01*
X114426189Y-114115714D02*
X114235713Y-114115714D01*
X114235713Y-114115714D02*
X114140475Y-114163333D01*
X113711903Y-114734761D02*
X113616665Y-114782380D01*
X113616665Y-114782380D02*
X113426189Y-114782380D01*
X113426189Y-114782380D02*
X113330951Y-114734761D01*
X113330951Y-114734761D02*
X113283332Y-114639523D01*
X113283332Y-114639523D02*
X113283332Y-114591904D01*
X113283332Y-114591904D02*
X113330951Y-114496666D01*
X113330951Y-114496666D02*
X113426189Y-114449047D01*
X113426189Y-114449047D02*
X113569046Y-114449047D01*
X113569046Y-114449047D02*
X113664284Y-114401428D01*
X113664284Y-114401428D02*
X113711903Y-114306190D01*
X113711903Y-114306190D02*
X113711903Y-114258571D01*
X113711903Y-114258571D02*
X113664284Y-114163333D01*
X113664284Y-114163333D02*
X113569046Y-114115714D01*
X113569046Y-114115714D02*
X113426189Y-114115714D01*
X113426189Y-114115714D02*
X113330951Y-114163333D01*
X112854760Y-114782380D02*
X112854760Y-113782380D01*
X112759522Y-114401428D02*
X112473808Y-114782380D01*
X112473808Y-114115714D02*
X112854760Y-114496666D01*
X112045236Y-114782380D02*
X112045236Y-114115714D01*
X112045236Y-113782380D02*
X112092855Y-113830000D01*
X112092855Y-113830000D02*
X112045236Y-113877619D01*
X112045236Y-113877619D02*
X111997617Y-113830000D01*
X111997617Y-113830000D02*
X112045236Y-113782380D01*
X112045236Y-113782380D02*
X112045236Y-113877619D01*
X111664284Y-114115714D02*
X111426189Y-114782380D01*
X111188094Y-114115714D02*
X111426189Y-114782380D01*
X111426189Y-114782380D02*
X111521427Y-115020476D01*
X111521427Y-115020476D02*
X111569046Y-115068095D01*
X111569046Y-115068095D02*
X111664284Y-115115714D01*
X128664286Y-116402380D02*
X128664286Y-115402380D01*
X128664286Y-115402380D02*
X128283334Y-115402380D01*
X128283334Y-115402380D02*
X128188096Y-115450000D01*
X128188096Y-115450000D02*
X128140477Y-115497619D01*
X128140477Y-115497619D02*
X128092858Y-115592857D01*
X128092858Y-115592857D02*
X128092858Y-115735714D01*
X128092858Y-115735714D02*
X128140477Y-115830952D01*
X128140477Y-115830952D02*
X128188096Y-115878571D01*
X128188096Y-115878571D02*
X128283334Y-115926190D01*
X128283334Y-115926190D02*
X128664286Y-115926190D01*
X127664286Y-116402380D02*
X127664286Y-115735714D01*
X127664286Y-115926190D02*
X127616667Y-115830952D01*
X127616667Y-115830952D02*
X127569048Y-115783333D01*
X127569048Y-115783333D02*
X127473810Y-115735714D01*
X127473810Y-115735714D02*
X127378572Y-115735714D01*
X126902381Y-116402380D02*
X126997619Y-116354761D01*
X126997619Y-116354761D02*
X127045238Y-116307142D01*
X127045238Y-116307142D02*
X127092857Y-116211904D01*
X127092857Y-116211904D02*
X127092857Y-115926190D01*
X127092857Y-115926190D02*
X127045238Y-115830952D01*
X127045238Y-115830952D02*
X126997619Y-115783333D01*
X126997619Y-115783333D02*
X126902381Y-115735714D01*
X126902381Y-115735714D02*
X126759524Y-115735714D01*
X126759524Y-115735714D02*
X126664286Y-115783333D01*
X126664286Y-115783333D02*
X126616667Y-115830952D01*
X126616667Y-115830952D02*
X126569048Y-115926190D01*
X126569048Y-115926190D02*
X126569048Y-116211904D01*
X126569048Y-116211904D02*
X126616667Y-116307142D01*
X126616667Y-116307142D02*
X126664286Y-116354761D01*
X126664286Y-116354761D02*
X126759524Y-116402380D01*
X126759524Y-116402380D02*
X126902381Y-116402380D01*
X126283333Y-115735714D02*
X125902381Y-115735714D01*
X126140476Y-116402380D02*
X126140476Y-115545238D01*
X126140476Y-115545238D02*
X126092857Y-115450000D01*
X126092857Y-115450000D02*
X125997619Y-115402380D01*
X125997619Y-115402380D02*
X125902381Y-115402380D01*
X125188095Y-116354761D02*
X125283333Y-116402380D01*
X125283333Y-116402380D02*
X125473809Y-116402380D01*
X125473809Y-116402380D02*
X125569047Y-116354761D01*
X125569047Y-116354761D02*
X125616666Y-116259523D01*
X125616666Y-116259523D02*
X125616666Y-115878571D01*
X125616666Y-115878571D02*
X125569047Y-115783333D01*
X125569047Y-115783333D02*
X125473809Y-115735714D01*
X125473809Y-115735714D02*
X125283333Y-115735714D01*
X125283333Y-115735714D02*
X125188095Y-115783333D01*
X125188095Y-115783333D02*
X125140476Y-115878571D01*
X125140476Y-115878571D02*
X125140476Y-115973809D01*
X125140476Y-115973809D02*
X125616666Y-116069047D01*
X124759523Y-116354761D02*
X124664285Y-116402380D01*
X124664285Y-116402380D02*
X124473809Y-116402380D01*
X124473809Y-116402380D02*
X124378571Y-116354761D01*
X124378571Y-116354761D02*
X124330952Y-116259523D01*
X124330952Y-116259523D02*
X124330952Y-116211904D01*
X124330952Y-116211904D02*
X124378571Y-116116666D01*
X124378571Y-116116666D02*
X124473809Y-116069047D01*
X124473809Y-116069047D02*
X124616666Y-116069047D01*
X124616666Y-116069047D02*
X124711904Y-116021428D01*
X124711904Y-116021428D02*
X124759523Y-115926190D01*
X124759523Y-115926190D02*
X124759523Y-115878571D01*
X124759523Y-115878571D02*
X124711904Y-115783333D01*
X124711904Y-115783333D02*
X124616666Y-115735714D01*
X124616666Y-115735714D02*
X124473809Y-115735714D01*
X124473809Y-115735714D02*
X124378571Y-115783333D01*
X123949999Y-116354761D02*
X123854761Y-116402380D01*
X123854761Y-116402380D02*
X123664285Y-116402380D01*
X123664285Y-116402380D02*
X123569047Y-116354761D01*
X123569047Y-116354761D02*
X123521428Y-116259523D01*
X123521428Y-116259523D02*
X123521428Y-116211904D01*
X123521428Y-116211904D02*
X123569047Y-116116666D01*
X123569047Y-116116666D02*
X123664285Y-116069047D01*
X123664285Y-116069047D02*
X123807142Y-116069047D01*
X123807142Y-116069047D02*
X123902380Y-116021428D01*
X123902380Y-116021428D02*
X123949999Y-115926190D01*
X123949999Y-115926190D02*
X123949999Y-115878571D01*
X123949999Y-115878571D02*
X123902380Y-115783333D01*
X123902380Y-115783333D02*
X123807142Y-115735714D01*
X123807142Y-115735714D02*
X123664285Y-115735714D01*
X123664285Y-115735714D02*
X123569047Y-115783333D01*
X122949999Y-116402380D02*
X123045237Y-116354761D01*
X123045237Y-116354761D02*
X123092856Y-116307142D01*
X123092856Y-116307142D02*
X123140475Y-116211904D01*
X123140475Y-116211904D02*
X123140475Y-115926190D01*
X123140475Y-115926190D02*
X123092856Y-115830952D01*
X123092856Y-115830952D02*
X123045237Y-115783333D01*
X123045237Y-115783333D02*
X122949999Y-115735714D01*
X122949999Y-115735714D02*
X122807142Y-115735714D01*
X122807142Y-115735714D02*
X122711904Y-115783333D01*
X122711904Y-115783333D02*
X122664285Y-115830952D01*
X122664285Y-115830952D02*
X122616666Y-115926190D01*
X122616666Y-115926190D02*
X122616666Y-116211904D01*
X122616666Y-116211904D02*
X122664285Y-116307142D01*
X122664285Y-116307142D02*
X122711904Y-116354761D01*
X122711904Y-116354761D02*
X122807142Y-116402380D01*
X122807142Y-116402380D02*
X122949999Y-116402380D01*
X122188094Y-116402380D02*
X122188094Y-115735714D01*
X122188094Y-115926190D02*
X122140475Y-115830952D01*
X122140475Y-115830952D02*
X122092856Y-115783333D01*
X122092856Y-115783333D02*
X121997618Y-115735714D01*
X121997618Y-115735714D02*
X121902380Y-115735714D01*
X120683332Y-115402380D02*
X120683332Y-116116666D01*
X120683332Y-116116666D02*
X120730951Y-116259523D01*
X120730951Y-116259523D02*
X120826189Y-116354761D01*
X120826189Y-116354761D02*
X120969046Y-116402380D01*
X120969046Y-116402380D02*
X121064284Y-116402380D01*
X120064284Y-116402380D02*
X120159522Y-116354761D01*
X120159522Y-116354761D02*
X120207141Y-116307142D01*
X120207141Y-116307142D02*
X120254760Y-116211904D01*
X120254760Y-116211904D02*
X120254760Y-115926190D01*
X120254760Y-115926190D02*
X120207141Y-115830952D01*
X120207141Y-115830952D02*
X120159522Y-115783333D01*
X120159522Y-115783333D02*
X120064284Y-115735714D01*
X120064284Y-115735714D02*
X119921427Y-115735714D01*
X119921427Y-115735714D02*
X119826189Y-115783333D01*
X119826189Y-115783333D02*
X119778570Y-115830952D01*
X119778570Y-115830952D02*
X119730951Y-115926190D01*
X119730951Y-115926190D02*
X119730951Y-116211904D01*
X119730951Y-116211904D02*
X119778570Y-116307142D01*
X119778570Y-116307142D02*
X119826189Y-116354761D01*
X119826189Y-116354761D02*
X119921427Y-116402380D01*
X119921427Y-116402380D02*
X120064284Y-116402380D01*
X119349998Y-116354761D02*
X119254760Y-116402380D01*
X119254760Y-116402380D02*
X119064284Y-116402380D01*
X119064284Y-116402380D02*
X118969046Y-116354761D01*
X118969046Y-116354761D02*
X118921427Y-116259523D01*
X118921427Y-116259523D02*
X118921427Y-116211904D01*
X118921427Y-116211904D02*
X118969046Y-116116666D01*
X118969046Y-116116666D02*
X119064284Y-116069047D01*
X119064284Y-116069047D02*
X119207141Y-116069047D01*
X119207141Y-116069047D02*
X119302379Y-116021428D01*
X119302379Y-116021428D02*
X119349998Y-115926190D01*
X119349998Y-115926190D02*
X119349998Y-115878571D01*
X119349998Y-115878571D02*
X119302379Y-115783333D01*
X119302379Y-115783333D02*
X119207141Y-115735714D01*
X119207141Y-115735714D02*
X119064284Y-115735714D01*
X119064284Y-115735714D02*
X118969046Y-115783333D01*
X118111903Y-116354761D02*
X118207141Y-116402380D01*
X118207141Y-116402380D02*
X118397617Y-116402380D01*
X118397617Y-116402380D02*
X118492855Y-116354761D01*
X118492855Y-116354761D02*
X118540474Y-116259523D01*
X118540474Y-116259523D02*
X118540474Y-115878571D01*
X118540474Y-115878571D02*
X118492855Y-115783333D01*
X118492855Y-115783333D02*
X118397617Y-115735714D01*
X118397617Y-115735714D02*
X118207141Y-115735714D01*
X118207141Y-115735714D02*
X118111903Y-115783333D01*
X118111903Y-115783333D02*
X118064284Y-115878571D01*
X118064284Y-115878571D02*
X118064284Y-115973809D01*
X118064284Y-115973809D02*
X118540474Y-116069047D01*
X117635712Y-115735714D02*
X117635712Y-116735714D01*
X117635712Y-115783333D02*
X117540474Y-115735714D01*
X117540474Y-115735714D02*
X117349998Y-115735714D01*
X117349998Y-115735714D02*
X117254760Y-115783333D01*
X117254760Y-115783333D02*
X117207141Y-115830952D01*
X117207141Y-115830952D02*
X117159522Y-115926190D01*
X117159522Y-115926190D02*
X117159522Y-116211904D01*
X117159522Y-116211904D02*
X117207141Y-116307142D01*
X117207141Y-116307142D02*
X117254760Y-116354761D01*
X117254760Y-116354761D02*
X117349998Y-116402380D01*
X117349998Y-116402380D02*
X117540474Y-116402380D01*
X117540474Y-116402380D02*
X117635712Y-116354761D01*
X116730950Y-116402380D02*
X116730950Y-115402380D01*
X116302379Y-116402380D02*
X116302379Y-115878571D01*
X116302379Y-115878571D02*
X116349998Y-115783333D01*
X116349998Y-115783333D02*
X116445236Y-115735714D01*
X116445236Y-115735714D02*
X116588093Y-115735714D01*
X116588093Y-115735714D02*
X116683331Y-115783333D01*
X116683331Y-115783333D02*
X116730950Y-115830952D01*
X114892855Y-115878571D02*
X114749998Y-115926190D01*
X114749998Y-115926190D02*
X114702379Y-115973809D01*
X114702379Y-115973809D02*
X114654760Y-116069047D01*
X114654760Y-116069047D02*
X114654760Y-116211904D01*
X114654760Y-116211904D02*
X114702379Y-116307142D01*
X114702379Y-116307142D02*
X114749998Y-116354761D01*
X114749998Y-116354761D02*
X114845236Y-116402380D01*
X114845236Y-116402380D02*
X115226188Y-116402380D01*
X115226188Y-116402380D02*
X115226188Y-115402380D01*
X115226188Y-115402380D02*
X114892855Y-115402380D01*
X114892855Y-115402380D02*
X114797617Y-115450000D01*
X114797617Y-115450000D02*
X114749998Y-115497619D01*
X114749998Y-115497619D02*
X114702379Y-115592857D01*
X114702379Y-115592857D02*
X114702379Y-115688095D01*
X114702379Y-115688095D02*
X114749998Y-115783333D01*
X114749998Y-115783333D02*
X114797617Y-115830952D01*
X114797617Y-115830952D02*
X114892855Y-115878571D01*
X114892855Y-115878571D02*
X115226188Y-115878571D01*
X114083331Y-116402380D02*
X114178569Y-116354761D01*
X114178569Y-116354761D02*
X114226188Y-116307142D01*
X114226188Y-116307142D02*
X114273807Y-116211904D01*
X114273807Y-116211904D02*
X114273807Y-115926190D01*
X114273807Y-115926190D02*
X114226188Y-115830952D01*
X114226188Y-115830952D02*
X114178569Y-115783333D01*
X114178569Y-115783333D02*
X114083331Y-115735714D01*
X114083331Y-115735714D02*
X113940474Y-115735714D01*
X113940474Y-115735714D02*
X113845236Y-115783333D01*
X113845236Y-115783333D02*
X113797617Y-115830952D01*
X113797617Y-115830952D02*
X113749998Y-115926190D01*
X113749998Y-115926190D02*
X113749998Y-116211904D01*
X113749998Y-116211904D02*
X113797617Y-116307142D01*
X113797617Y-116307142D02*
X113845236Y-116354761D01*
X113845236Y-116354761D02*
X113940474Y-116402380D01*
X113940474Y-116402380D02*
X114083331Y-116402380D01*
X113321426Y-116402380D02*
X113321426Y-115735714D01*
X113321426Y-115926190D02*
X113273807Y-115830952D01*
X113273807Y-115830952D02*
X113226188Y-115783333D01*
X113226188Y-115783333D02*
X113130950Y-115735714D01*
X113130950Y-115735714D02*
X113035712Y-115735714D01*
X112559521Y-116402380D02*
X112654759Y-116354761D01*
X112654759Y-116354761D02*
X112702378Y-116307142D01*
X112702378Y-116307142D02*
X112749997Y-116211904D01*
X112749997Y-116211904D02*
X112749997Y-115926190D01*
X112749997Y-115926190D02*
X112702378Y-115830952D01*
X112702378Y-115830952D02*
X112654759Y-115783333D01*
X112654759Y-115783333D02*
X112559521Y-115735714D01*
X112559521Y-115735714D02*
X112416664Y-115735714D01*
X112416664Y-115735714D02*
X112321426Y-115783333D01*
X112321426Y-115783333D02*
X112273807Y-115830952D01*
X112273807Y-115830952D02*
X112226188Y-115926190D01*
X112226188Y-115926190D02*
X112226188Y-116211904D01*
X112226188Y-116211904D02*
X112273807Y-116307142D01*
X112273807Y-116307142D02*
X112321426Y-116354761D01*
X112321426Y-116354761D02*
X112416664Y-116402380D01*
X112416664Y-116402380D02*
X112559521Y-116402380D01*
X111892854Y-115735714D02*
X111702378Y-116402380D01*
X111702378Y-116402380D02*
X111511902Y-115926190D01*
X111511902Y-115926190D02*
X111321426Y-116402380D01*
X111321426Y-116402380D02*
X111130950Y-115735714D01*
X110749997Y-116402380D02*
X110749997Y-115735714D01*
X110749997Y-115402380D02*
X110797616Y-115450000D01*
X110797616Y-115450000D02*
X110749997Y-115497619D01*
X110749997Y-115497619D02*
X110702378Y-115450000D01*
X110702378Y-115450000D02*
X110749997Y-115402380D01*
X110749997Y-115402380D02*
X110749997Y-115497619D01*
X109892855Y-116354761D02*
X109988093Y-116402380D01*
X109988093Y-116402380D02*
X110178569Y-116402380D01*
X110178569Y-116402380D02*
X110273807Y-116354761D01*
X110273807Y-116354761D02*
X110321426Y-116259523D01*
X110321426Y-116259523D02*
X110321426Y-115878571D01*
X110321426Y-115878571D02*
X110273807Y-115783333D01*
X110273807Y-115783333D02*
X110178569Y-115735714D01*
X110178569Y-115735714D02*
X109988093Y-115735714D01*
X109988093Y-115735714D02*
X109892855Y-115783333D01*
X109892855Y-115783333D02*
X109845236Y-115878571D01*
X109845236Y-115878571D02*
X109845236Y-115973809D01*
X109845236Y-115973809D02*
X110321426Y-116069047D01*
X108988093Y-116354761D02*
X109083331Y-116402380D01*
X109083331Y-116402380D02*
X109273807Y-116402380D01*
X109273807Y-116402380D02*
X109369045Y-116354761D01*
X109369045Y-116354761D02*
X109416664Y-116307142D01*
X109416664Y-116307142D02*
X109464283Y-116211904D01*
X109464283Y-116211904D02*
X109464283Y-115926190D01*
X109464283Y-115926190D02*
X109416664Y-115830952D01*
X109416664Y-115830952D02*
X109369045Y-115783333D01*
X109369045Y-115783333D02*
X109273807Y-115735714D01*
X109273807Y-115735714D02*
X109083331Y-115735714D01*
X109083331Y-115735714D02*
X108988093Y-115783333D01*
X123816666Y-118022380D02*
X123816666Y-117022380D01*
X123816666Y-117022380D02*
X123483333Y-117736666D01*
X123483333Y-117736666D02*
X123150000Y-117022380D01*
X123150000Y-117022380D02*
X123150000Y-118022380D01*
X122673809Y-118022380D02*
X122673809Y-117355714D01*
X122673809Y-117022380D02*
X122721428Y-117070000D01*
X122721428Y-117070000D02*
X122673809Y-117117619D01*
X122673809Y-117117619D02*
X122626190Y-117070000D01*
X122626190Y-117070000D02*
X122673809Y-117022380D01*
X122673809Y-117022380D02*
X122673809Y-117117619D01*
X121769048Y-117974761D02*
X121864286Y-118022380D01*
X121864286Y-118022380D02*
X122054762Y-118022380D01*
X122054762Y-118022380D02*
X122150000Y-117974761D01*
X122150000Y-117974761D02*
X122197619Y-117927142D01*
X122197619Y-117927142D02*
X122245238Y-117831904D01*
X122245238Y-117831904D02*
X122245238Y-117546190D01*
X122245238Y-117546190D02*
X122197619Y-117450952D01*
X122197619Y-117450952D02*
X122150000Y-117403333D01*
X122150000Y-117403333D02*
X122054762Y-117355714D01*
X122054762Y-117355714D02*
X121864286Y-117355714D01*
X121864286Y-117355714D02*
X121769048Y-117403333D01*
X121340476Y-118022380D02*
X121340476Y-117022380D01*
X120911905Y-118022380D02*
X120911905Y-117498571D01*
X120911905Y-117498571D02*
X120959524Y-117403333D01*
X120959524Y-117403333D02*
X121054762Y-117355714D01*
X121054762Y-117355714D02*
X121197619Y-117355714D01*
X121197619Y-117355714D02*
X121292857Y-117403333D01*
X121292857Y-117403333D02*
X121340476Y-117450952D01*
X120007143Y-118022380D02*
X120007143Y-117498571D01*
X120007143Y-117498571D02*
X120054762Y-117403333D01*
X120054762Y-117403333D02*
X120150000Y-117355714D01*
X120150000Y-117355714D02*
X120340476Y-117355714D01*
X120340476Y-117355714D02*
X120435714Y-117403333D01*
X120007143Y-117974761D02*
X120102381Y-118022380D01*
X120102381Y-118022380D02*
X120340476Y-118022380D01*
X120340476Y-118022380D02*
X120435714Y-117974761D01*
X120435714Y-117974761D02*
X120483333Y-117879523D01*
X120483333Y-117879523D02*
X120483333Y-117784285D01*
X120483333Y-117784285D02*
X120435714Y-117689047D01*
X120435714Y-117689047D02*
X120340476Y-117641428D01*
X120340476Y-117641428D02*
X120102381Y-117641428D01*
X120102381Y-117641428D02*
X120007143Y-117593809D01*
X119150000Y-117974761D02*
X119245238Y-118022380D01*
X119245238Y-118022380D02*
X119435714Y-118022380D01*
X119435714Y-118022380D02*
X119530952Y-117974761D01*
X119530952Y-117974761D02*
X119578571Y-117879523D01*
X119578571Y-117879523D02*
X119578571Y-117498571D01*
X119578571Y-117498571D02*
X119530952Y-117403333D01*
X119530952Y-117403333D02*
X119435714Y-117355714D01*
X119435714Y-117355714D02*
X119245238Y-117355714D01*
X119245238Y-117355714D02*
X119150000Y-117403333D01*
X119150000Y-117403333D02*
X119102381Y-117498571D01*
X119102381Y-117498571D02*
X119102381Y-117593809D01*
X119102381Y-117593809D02*
X119578571Y-117689047D01*
X118530952Y-118022380D02*
X118626190Y-117974761D01*
X118626190Y-117974761D02*
X118673809Y-117879523D01*
X118673809Y-117879523D02*
X118673809Y-117022380D01*
X117549999Y-118022380D02*
X117549999Y-117022380D01*
X117549999Y-117022380D02*
X117169047Y-117022380D01*
X117169047Y-117022380D02*
X117073809Y-117070000D01*
X117073809Y-117070000D02*
X117026190Y-117117619D01*
X117026190Y-117117619D02*
X116978571Y-117212857D01*
X116978571Y-117212857D02*
X116978571Y-117355714D01*
X116978571Y-117355714D02*
X117026190Y-117450952D01*
X117026190Y-117450952D02*
X117073809Y-117498571D01*
X117073809Y-117498571D02*
X117169047Y-117546190D01*
X117169047Y-117546190D02*
X117549999Y-117546190D01*
X116549999Y-118022380D02*
X116549999Y-117022380D01*
X116121428Y-118022380D02*
X116121428Y-117498571D01*
X116121428Y-117498571D02*
X116169047Y-117403333D01*
X116169047Y-117403333D02*
X116264285Y-117355714D01*
X116264285Y-117355714D02*
X116407142Y-117355714D01*
X116407142Y-117355714D02*
X116502380Y-117403333D01*
X116502380Y-117403333D02*
X116549999Y-117450952D01*
X115216666Y-118022380D02*
X115216666Y-117498571D01*
X115216666Y-117498571D02*
X115264285Y-117403333D01*
X115264285Y-117403333D02*
X115359523Y-117355714D01*
X115359523Y-117355714D02*
X115549999Y-117355714D01*
X115549999Y-117355714D02*
X115645237Y-117403333D01*
X115216666Y-117974761D02*
X115311904Y-118022380D01*
X115311904Y-118022380D02*
X115549999Y-118022380D01*
X115549999Y-118022380D02*
X115645237Y-117974761D01*
X115645237Y-117974761D02*
X115692856Y-117879523D01*
X115692856Y-117879523D02*
X115692856Y-117784285D01*
X115692856Y-117784285D02*
X115645237Y-117689047D01*
X115645237Y-117689047D02*
X115549999Y-117641428D01*
X115549999Y-117641428D02*
X115311904Y-117641428D01*
X115311904Y-117641428D02*
X115216666Y-117593809D01*
X114740475Y-118022380D02*
X114740475Y-117355714D01*
X114740475Y-117450952D02*
X114692856Y-117403333D01*
X114692856Y-117403333D02*
X114597618Y-117355714D01*
X114597618Y-117355714D02*
X114454761Y-117355714D01*
X114454761Y-117355714D02*
X114359523Y-117403333D01*
X114359523Y-117403333D02*
X114311904Y-117498571D01*
X114311904Y-117498571D02*
X114311904Y-118022380D01*
X114311904Y-117498571D02*
X114264285Y-117403333D01*
X114264285Y-117403333D02*
X114169047Y-117355714D01*
X114169047Y-117355714D02*
X114026190Y-117355714D01*
X114026190Y-117355714D02*
X113930951Y-117403333D01*
X113930951Y-117403333D02*
X113883332Y-117498571D01*
X113883332Y-117498571D02*
X113883332Y-118022380D01*
X123573810Y-119118571D02*
X123907143Y-119118571D01*
X123907143Y-119642380D02*
X123907143Y-118642380D01*
X123907143Y-118642380D02*
X123430953Y-118642380D01*
X122907143Y-119642380D02*
X123002381Y-119594761D01*
X123002381Y-119594761D02*
X123050000Y-119499523D01*
X123050000Y-119499523D02*
X123050000Y-118642380D01*
X122621428Y-118975714D02*
X122383333Y-119642380D01*
X122145238Y-118975714D02*
X122383333Y-119642380D01*
X122383333Y-119642380D02*
X122478571Y-119880476D01*
X122478571Y-119880476D02*
X122526190Y-119928095D01*
X122526190Y-119928095D02*
X122621428Y-119975714D01*
X121764285Y-118975714D02*
X121764285Y-119642380D01*
X121764285Y-119070952D02*
X121716666Y-119023333D01*
X121716666Y-119023333D02*
X121621428Y-118975714D01*
X121621428Y-118975714D02*
X121478571Y-118975714D01*
X121478571Y-118975714D02*
X121383333Y-119023333D01*
X121383333Y-119023333D02*
X121335714Y-119118571D01*
X121335714Y-119118571D02*
X121335714Y-119642380D01*
X120859523Y-118975714D02*
X120859523Y-119642380D01*
X120859523Y-119070952D02*
X120811904Y-119023333D01*
X120811904Y-119023333D02*
X120716666Y-118975714D01*
X120716666Y-118975714D02*
X120573809Y-118975714D01*
X120573809Y-118975714D02*
X120478571Y-119023333D01*
X120478571Y-119023333D02*
X120430952Y-119118571D01*
X120430952Y-119118571D02*
X120430952Y-119642380D01*
X119354761Y-119642380D02*
X119354761Y-118642380D01*
X119354761Y-118642380D02*
X119116666Y-118642380D01*
X119116666Y-118642380D02*
X118973809Y-118690000D01*
X118973809Y-118690000D02*
X118878571Y-118785238D01*
X118878571Y-118785238D02*
X118830952Y-118880476D01*
X118830952Y-118880476D02*
X118783333Y-119070952D01*
X118783333Y-119070952D02*
X118783333Y-119213809D01*
X118783333Y-119213809D02*
X118830952Y-119404285D01*
X118830952Y-119404285D02*
X118878571Y-119499523D01*
X118878571Y-119499523D02*
X118973809Y-119594761D01*
X118973809Y-119594761D02*
X119116666Y-119642380D01*
X119116666Y-119642380D02*
X119354761Y-119642380D01*
X118354761Y-119642380D02*
X118354761Y-118975714D01*
X118354761Y-119166190D02*
X118307142Y-119070952D01*
X118307142Y-119070952D02*
X118259523Y-119023333D01*
X118259523Y-119023333D02*
X118164285Y-118975714D01*
X118164285Y-118975714D02*
X118069047Y-118975714D01*
X117354761Y-119594761D02*
X117449999Y-119642380D01*
X117449999Y-119642380D02*
X117640475Y-119642380D01*
X117640475Y-119642380D02*
X117735713Y-119594761D01*
X117735713Y-119594761D02*
X117783332Y-119499523D01*
X117783332Y-119499523D02*
X117783332Y-119118571D01*
X117783332Y-119118571D02*
X117735713Y-119023333D01*
X117735713Y-119023333D02*
X117640475Y-118975714D01*
X117640475Y-118975714D02*
X117449999Y-118975714D01*
X117449999Y-118975714D02*
X117354761Y-119023333D01*
X117354761Y-119023333D02*
X117307142Y-119118571D01*
X117307142Y-119118571D02*
X117307142Y-119213809D01*
X117307142Y-119213809D02*
X117783332Y-119309047D01*
X116878570Y-119642380D02*
X116878570Y-118975714D01*
X116878570Y-118642380D02*
X116926189Y-118690000D01*
X116926189Y-118690000D02*
X116878570Y-118737619D01*
X116878570Y-118737619D02*
X116830951Y-118690000D01*
X116830951Y-118690000D02*
X116878570Y-118642380D01*
X116878570Y-118642380D02*
X116878570Y-118737619D01*
X116259523Y-119642380D02*
X116354761Y-119594761D01*
X116354761Y-119594761D02*
X116402380Y-119499523D01*
X116402380Y-119499523D02*
X116402380Y-118642380D01*
X115878570Y-119642380D02*
X115878570Y-118975714D01*
X115878570Y-118642380D02*
X115926189Y-118690000D01*
X115926189Y-118690000D02*
X115878570Y-118737619D01*
X115878570Y-118737619D02*
X115830951Y-118690000D01*
X115830951Y-118690000D02*
X115878570Y-118642380D01*
X115878570Y-118642380D02*
X115878570Y-118737619D01*
X115402380Y-118975714D02*
X115402380Y-119642380D01*
X115402380Y-119070952D02*
X115354761Y-119023333D01*
X115354761Y-119023333D02*
X115259523Y-118975714D01*
X115259523Y-118975714D02*
X115116666Y-118975714D01*
X115116666Y-118975714D02*
X115021428Y-119023333D01*
X115021428Y-119023333D02*
X114973809Y-119118571D01*
X114973809Y-119118571D02*
X114973809Y-119642380D01*
X114069047Y-118975714D02*
X114069047Y-119785238D01*
X114069047Y-119785238D02*
X114116666Y-119880476D01*
X114116666Y-119880476D02*
X114164285Y-119928095D01*
X114164285Y-119928095D02*
X114259523Y-119975714D01*
X114259523Y-119975714D02*
X114402380Y-119975714D01*
X114402380Y-119975714D02*
X114497618Y-119928095D01*
X114069047Y-119594761D02*
X114164285Y-119642380D01*
X114164285Y-119642380D02*
X114354761Y-119642380D01*
X114354761Y-119642380D02*
X114449999Y-119594761D01*
X114449999Y-119594761D02*
X114497618Y-119547142D01*
X114497618Y-119547142D02*
X114545237Y-119451904D01*
X114545237Y-119451904D02*
X114545237Y-119166190D01*
X114545237Y-119166190D02*
X114497618Y-119070952D01*
X114497618Y-119070952D02*
X114449999Y-119023333D01*
X114449999Y-119023333D02*
X114354761Y-118975714D01*
X114354761Y-118975714D02*
X114164285Y-118975714D01*
X114164285Y-118975714D02*
X114069047Y-119023333D01*
X113211904Y-119594761D02*
X113307142Y-119642380D01*
X113307142Y-119642380D02*
X113497618Y-119642380D01*
X113497618Y-119642380D02*
X113592856Y-119594761D01*
X113592856Y-119594761D02*
X113640475Y-119499523D01*
X113640475Y-119499523D02*
X113640475Y-119118571D01*
X113640475Y-119118571D02*
X113592856Y-119023333D01*
X113592856Y-119023333D02*
X113497618Y-118975714D01*
X113497618Y-118975714D02*
X113307142Y-118975714D01*
X113307142Y-118975714D02*
X113211904Y-119023333D01*
X113211904Y-119023333D02*
X113164285Y-119118571D01*
X113164285Y-119118571D02*
X113164285Y-119213809D01*
X113164285Y-119213809D02*
X113640475Y-119309047D01*
X112735713Y-119642380D02*
X112735713Y-118975714D01*
X112735713Y-119166190D02*
X112688094Y-119070952D01*
X112688094Y-119070952D02*
X112640475Y-119023333D01*
X112640475Y-119023333D02*
X112545237Y-118975714D01*
X112545237Y-118975714D02*
X112449999Y-118975714D01*
X145721430Y-137912380D02*
X145721430Y-138102857D01*
X145340478Y-137912380D02*
X145340478Y-138102857D01*
X144388097Y-137960000D02*
X144483335Y-137912380D01*
X144483335Y-137912380D02*
X144626192Y-137912380D01*
X144626192Y-137912380D02*
X144769049Y-137960000D01*
X144769049Y-137960000D02*
X144864287Y-138055238D01*
X144864287Y-138055238D02*
X144911906Y-138150476D01*
X144911906Y-138150476D02*
X144959525Y-138340952D01*
X144959525Y-138340952D02*
X144959525Y-138483809D01*
X144959525Y-138483809D02*
X144911906Y-138674285D01*
X144911906Y-138674285D02*
X144864287Y-138769523D01*
X144864287Y-138769523D02*
X144769049Y-138864761D01*
X144769049Y-138864761D02*
X144626192Y-138912380D01*
X144626192Y-138912380D02*
X144530954Y-138912380D01*
X144530954Y-138912380D02*
X144388097Y-138864761D01*
X144388097Y-138864761D02*
X144340478Y-138817142D01*
X144340478Y-138817142D02*
X144340478Y-138483809D01*
X144340478Y-138483809D02*
X144530954Y-138483809D01*
X143769049Y-138912380D02*
X143864287Y-138864761D01*
X143864287Y-138864761D02*
X143911906Y-138817142D01*
X143911906Y-138817142D02*
X143959525Y-138721904D01*
X143959525Y-138721904D02*
X143959525Y-138436190D01*
X143959525Y-138436190D02*
X143911906Y-138340952D01*
X143911906Y-138340952D02*
X143864287Y-138293333D01*
X143864287Y-138293333D02*
X143769049Y-138245714D01*
X143769049Y-138245714D02*
X143626192Y-138245714D01*
X143626192Y-138245714D02*
X143530954Y-138293333D01*
X143530954Y-138293333D02*
X143483335Y-138340952D01*
X143483335Y-138340952D02*
X143435716Y-138436190D01*
X143435716Y-138436190D02*
X143435716Y-138721904D01*
X143435716Y-138721904D02*
X143483335Y-138817142D01*
X143483335Y-138817142D02*
X143530954Y-138864761D01*
X143530954Y-138864761D02*
X143626192Y-138912380D01*
X143626192Y-138912380D02*
X143769049Y-138912380D01*
X142578573Y-138912380D02*
X142578573Y-137912380D01*
X142578573Y-138864761D02*
X142673811Y-138912380D01*
X142673811Y-138912380D02*
X142864287Y-138912380D01*
X142864287Y-138912380D02*
X142959525Y-138864761D01*
X142959525Y-138864761D02*
X143007144Y-138817142D01*
X143007144Y-138817142D02*
X143054763Y-138721904D01*
X143054763Y-138721904D02*
X143054763Y-138436190D01*
X143054763Y-138436190D02*
X143007144Y-138340952D01*
X143007144Y-138340952D02*
X142959525Y-138293333D01*
X142959525Y-138293333D02*
X142864287Y-138245714D01*
X142864287Y-138245714D02*
X142673811Y-138245714D01*
X142673811Y-138245714D02*
X142578573Y-138293333D01*
X141502382Y-138912380D02*
X141502382Y-138245714D01*
X141502382Y-137912380D02*
X141550001Y-137960000D01*
X141550001Y-137960000D02*
X141502382Y-138007619D01*
X141502382Y-138007619D02*
X141454763Y-137960000D01*
X141454763Y-137960000D02*
X141502382Y-137912380D01*
X141502382Y-137912380D02*
X141502382Y-138007619D01*
X141073811Y-138864761D02*
X140978573Y-138912380D01*
X140978573Y-138912380D02*
X140788097Y-138912380D01*
X140788097Y-138912380D02*
X140692859Y-138864761D01*
X140692859Y-138864761D02*
X140645240Y-138769523D01*
X140645240Y-138769523D02*
X140645240Y-138721904D01*
X140645240Y-138721904D02*
X140692859Y-138626666D01*
X140692859Y-138626666D02*
X140788097Y-138579047D01*
X140788097Y-138579047D02*
X140930954Y-138579047D01*
X140930954Y-138579047D02*
X141026192Y-138531428D01*
X141026192Y-138531428D02*
X141073811Y-138436190D01*
X141073811Y-138436190D02*
X141073811Y-138388571D01*
X141073811Y-138388571D02*
X141026192Y-138293333D01*
X141026192Y-138293333D02*
X140930954Y-138245714D01*
X140930954Y-138245714D02*
X140788097Y-138245714D01*
X140788097Y-138245714D02*
X140692859Y-138293333D01*
X139473811Y-138912380D02*
X139569049Y-138864761D01*
X139569049Y-138864761D02*
X139616668Y-138769523D01*
X139616668Y-138769523D02*
X139616668Y-137912380D01*
X138950001Y-138912380D02*
X139045239Y-138864761D01*
X139045239Y-138864761D02*
X139092858Y-138817142D01*
X139092858Y-138817142D02*
X139140477Y-138721904D01*
X139140477Y-138721904D02*
X139140477Y-138436190D01*
X139140477Y-138436190D02*
X139092858Y-138340952D01*
X139092858Y-138340952D02*
X139045239Y-138293333D01*
X139045239Y-138293333D02*
X138950001Y-138245714D01*
X138950001Y-138245714D02*
X138807144Y-138245714D01*
X138807144Y-138245714D02*
X138711906Y-138293333D01*
X138711906Y-138293333D02*
X138664287Y-138340952D01*
X138664287Y-138340952D02*
X138616668Y-138436190D01*
X138616668Y-138436190D02*
X138616668Y-138721904D01*
X138616668Y-138721904D02*
X138664287Y-138817142D01*
X138664287Y-138817142D02*
X138711906Y-138864761D01*
X138711906Y-138864761D02*
X138807144Y-138912380D01*
X138807144Y-138912380D02*
X138950001Y-138912380D01*
X138283334Y-138245714D02*
X138045239Y-138912380D01*
X138045239Y-138912380D02*
X137807144Y-138245714D01*
X137045239Y-138864761D02*
X137140477Y-138912380D01*
X137140477Y-138912380D02*
X137330953Y-138912380D01*
X137330953Y-138912380D02*
X137426191Y-138864761D01*
X137426191Y-138864761D02*
X137473810Y-138769523D01*
X137473810Y-138769523D02*
X137473810Y-138388571D01*
X137473810Y-138388571D02*
X137426191Y-138293333D01*
X137426191Y-138293333D02*
X137330953Y-138245714D01*
X137330953Y-138245714D02*
X137140477Y-138245714D01*
X137140477Y-138245714D02*
X137045239Y-138293333D01*
X137045239Y-138293333D02*
X136997620Y-138388571D01*
X136997620Y-138388571D02*
X136997620Y-138483809D01*
X136997620Y-138483809D02*
X137473810Y-138579047D01*
X136616667Y-137912380D02*
X136616667Y-138102857D01*
X136235715Y-137912380D02*
X136235715Y-138102857D01*
X135207143Y-138531428D02*
X134445239Y-138531428D01*
X133369048Y-138912380D02*
X133369048Y-137912380D01*
X133369048Y-137912380D02*
X133035715Y-138626666D01*
X133035715Y-138626666D02*
X132702382Y-137912380D01*
X132702382Y-137912380D02*
X132702382Y-138912380D01*
X132226191Y-138912380D02*
X132226191Y-138245714D01*
X132226191Y-137912380D02*
X132273810Y-137960000D01*
X132273810Y-137960000D02*
X132226191Y-138007619D01*
X132226191Y-138007619D02*
X132178572Y-137960000D01*
X132178572Y-137960000D02*
X132226191Y-137912380D01*
X132226191Y-137912380D02*
X132226191Y-138007619D01*
X131321430Y-138864761D02*
X131416668Y-138912380D01*
X131416668Y-138912380D02*
X131607144Y-138912380D01*
X131607144Y-138912380D02*
X131702382Y-138864761D01*
X131702382Y-138864761D02*
X131750001Y-138817142D01*
X131750001Y-138817142D02*
X131797620Y-138721904D01*
X131797620Y-138721904D02*
X131797620Y-138436190D01*
X131797620Y-138436190D02*
X131750001Y-138340952D01*
X131750001Y-138340952D02*
X131702382Y-138293333D01*
X131702382Y-138293333D02*
X131607144Y-138245714D01*
X131607144Y-138245714D02*
X131416668Y-138245714D01*
X131416668Y-138245714D02*
X131321430Y-138293333D01*
X130892858Y-138912380D02*
X130892858Y-137912380D01*
X130464287Y-138912380D02*
X130464287Y-138388571D01*
X130464287Y-138388571D02*
X130511906Y-138293333D01*
X130511906Y-138293333D02*
X130607144Y-138245714D01*
X130607144Y-138245714D02*
X130750001Y-138245714D01*
X130750001Y-138245714D02*
X130845239Y-138293333D01*
X130845239Y-138293333D02*
X130892858Y-138340952D01*
X129559525Y-138912380D02*
X129559525Y-138388571D01*
X129559525Y-138388571D02*
X129607144Y-138293333D01*
X129607144Y-138293333D02*
X129702382Y-138245714D01*
X129702382Y-138245714D02*
X129892858Y-138245714D01*
X129892858Y-138245714D02*
X129988096Y-138293333D01*
X129559525Y-138864761D02*
X129654763Y-138912380D01*
X129654763Y-138912380D02*
X129892858Y-138912380D01*
X129892858Y-138912380D02*
X129988096Y-138864761D01*
X129988096Y-138864761D02*
X130035715Y-138769523D01*
X130035715Y-138769523D02*
X130035715Y-138674285D01*
X130035715Y-138674285D02*
X129988096Y-138579047D01*
X129988096Y-138579047D02*
X129892858Y-138531428D01*
X129892858Y-138531428D02*
X129654763Y-138531428D01*
X129654763Y-138531428D02*
X129559525Y-138483809D01*
X128702382Y-138864761D02*
X128797620Y-138912380D01*
X128797620Y-138912380D02*
X128988096Y-138912380D01*
X128988096Y-138912380D02*
X129083334Y-138864761D01*
X129083334Y-138864761D02*
X129130953Y-138769523D01*
X129130953Y-138769523D02*
X129130953Y-138388571D01*
X129130953Y-138388571D02*
X129083334Y-138293333D01*
X129083334Y-138293333D02*
X128988096Y-138245714D01*
X128988096Y-138245714D02*
X128797620Y-138245714D01*
X128797620Y-138245714D02*
X128702382Y-138293333D01*
X128702382Y-138293333D02*
X128654763Y-138388571D01*
X128654763Y-138388571D02*
X128654763Y-138483809D01*
X128654763Y-138483809D02*
X129130953Y-138579047D01*
X128083334Y-138912380D02*
X128178572Y-138864761D01*
X128178572Y-138864761D02*
X128226191Y-138769523D01*
X128226191Y-138769523D02*
X128226191Y-137912380D01*
X126530953Y-138817142D02*
X126578572Y-138864761D01*
X126578572Y-138864761D02*
X126721429Y-138912380D01*
X126721429Y-138912380D02*
X126816667Y-138912380D01*
X126816667Y-138912380D02*
X126959524Y-138864761D01*
X126959524Y-138864761D02*
X127054762Y-138769523D01*
X127054762Y-138769523D02*
X127102381Y-138674285D01*
X127102381Y-138674285D02*
X127150000Y-138483809D01*
X127150000Y-138483809D02*
X127150000Y-138340952D01*
X127150000Y-138340952D02*
X127102381Y-138150476D01*
X127102381Y-138150476D02*
X127054762Y-138055238D01*
X127054762Y-138055238D02*
X126959524Y-137960000D01*
X126959524Y-137960000D02*
X126816667Y-137912380D01*
X126816667Y-137912380D02*
X126721429Y-137912380D01*
X126721429Y-137912380D02*
X126578572Y-137960000D01*
X126578572Y-137960000D02*
X126530953Y-138007619D01*
X126102381Y-138912380D02*
X126102381Y-137912380D01*
X125673810Y-138912380D02*
X125673810Y-138388571D01*
X125673810Y-138388571D02*
X125721429Y-138293333D01*
X125721429Y-138293333D02*
X125816667Y-138245714D01*
X125816667Y-138245714D02*
X125959524Y-138245714D01*
X125959524Y-138245714D02*
X126054762Y-138293333D01*
X126054762Y-138293333D02*
X126102381Y-138340952D01*
X125197619Y-138912380D02*
X125197619Y-138245714D01*
X125197619Y-137912380D02*
X125245238Y-137960000D01*
X125245238Y-137960000D02*
X125197619Y-138007619D01*
X125197619Y-138007619D02*
X125150000Y-137960000D01*
X125150000Y-137960000D02*
X125197619Y-137912380D01*
X125197619Y-137912380D02*
X125197619Y-138007619D01*
X124292858Y-138245714D02*
X124292858Y-139055238D01*
X124292858Y-139055238D02*
X124340477Y-139150476D01*
X124340477Y-139150476D02*
X124388096Y-139198095D01*
X124388096Y-139198095D02*
X124483334Y-139245714D01*
X124483334Y-139245714D02*
X124626191Y-139245714D01*
X124626191Y-139245714D02*
X124721429Y-139198095D01*
X124292858Y-138864761D02*
X124388096Y-138912380D01*
X124388096Y-138912380D02*
X124578572Y-138912380D01*
X124578572Y-138912380D02*
X124673810Y-138864761D01*
X124673810Y-138864761D02*
X124721429Y-138817142D01*
X124721429Y-138817142D02*
X124769048Y-138721904D01*
X124769048Y-138721904D02*
X124769048Y-138436190D01*
X124769048Y-138436190D02*
X124721429Y-138340952D01*
X124721429Y-138340952D02*
X124673810Y-138293333D01*
X124673810Y-138293333D02*
X124578572Y-138245714D01*
X124578572Y-138245714D02*
X124388096Y-138245714D01*
X124388096Y-138245714D02*
X124292858Y-138293333D01*
X123673810Y-138912380D02*
X123769048Y-138864761D01*
X123769048Y-138864761D02*
X123816667Y-138769523D01*
X123816667Y-138769523D02*
X123816667Y-137912380D01*
X123292857Y-138912380D02*
X123292857Y-138245714D01*
X123292857Y-137912380D02*
X123340476Y-137960000D01*
X123340476Y-137960000D02*
X123292857Y-138007619D01*
X123292857Y-138007619D02*
X123245238Y-137960000D01*
X123245238Y-137960000D02*
X123292857Y-137912380D01*
X123292857Y-137912380D02*
X123292857Y-138007619D01*
X122816667Y-138245714D02*
X122816667Y-138912380D01*
X122816667Y-138340952D02*
X122769048Y-138293333D01*
X122769048Y-138293333D02*
X122673810Y-138245714D01*
X122673810Y-138245714D02*
X122530953Y-138245714D01*
X122530953Y-138245714D02*
X122435715Y-138293333D01*
X122435715Y-138293333D02*
X122388096Y-138388571D01*
X122388096Y-138388571D02*
X122388096Y-138912380D01*
X121959524Y-138864761D02*
X121864286Y-138912380D01*
X121864286Y-138912380D02*
X121673810Y-138912380D01*
X121673810Y-138912380D02*
X121578572Y-138864761D01*
X121578572Y-138864761D02*
X121530953Y-138769523D01*
X121530953Y-138769523D02*
X121530953Y-138721904D01*
X121530953Y-138721904D02*
X121578572Y-138626666D01*
X121578572Y-138626666D02*
X121673810Y-138579047D01*
X121673810Y-138579047D02*
X121816667Y-138579047D01*
X121816667Y-138579047D02*
X121911905Y-138531428D01*
X121911905Y-138531428D02*
X121959524Y-138436190D01*
X121959524Y-138436190D02*
X121959524Y-138388571D01*
X121959524Y-138388571D02*
X121911905Y-138293333D01*
X121911905Y-138293333D02*
X121816667Y-138245714D01*
X121816667Y-138245714D02*
X121673810Y-138245714D01*
X121673810Y-138245714D02*
X121578572Y-138293333D01*
X121102381Y-138912380D02*
X121102381Y-137912380D01*
X121007143Y-138531428D02*
X120721429Y-138912380D01*
X120721429Y-138245714D02*
X121102381Y-138626666D01*
X120388095Y-138245714D02*
X120150000Y-138912380D01*
X119911905Y-138245714D02*
X120150000Y-138912380D01*
X120150000Y-138912380D02*
X120245238Y-139150476D01*
X120245238Y-139150476D02*
X120292857Y-139198095D01*
X120292857Y-139198095D02*
X120388095Y-139245714D01*
X118692857Y-139245714D02*
X118692857Y-137817142D01*
X117426190Y-137912380D02*
X117426190Y-138102857D01*
X117045238Y-137912380D02*
X117045238Y-138102857D01*
X116616666Y-138912380D02*
X116616666Y-137912380D01*
X116616666Y-137912380D02*
X116235714Y-137912380D01*
X116235714Y-137912380D02*
X116140476Y-137960000D01*
X116140476Y-137960000D02*
X116092857Y-138007619D01*
X116092857Y-138007619D02*
X116045238Y-138102857D01*
X116045238Y-138102857D02*
X116045238Y-138245714D01*
X116045238Y-138245714D02*
X116092857Y-138340952D01*
X116092857Y-138340952D02*
X116140476Y-138388571D01*
X116140476Y-138388571D02*
X116235714Y-138436190D01*
X116235714Y-138436190D02*
X116616666Y-138436190D01*
X115616666Y-138912380D02*
X115616666Y-138245714D01*
X115616666Y-138436190D02*
X115569047Y-138340952D01*
X115569047Y-138340952D02*
X115521428Y-138293333D01*
X115521428Y-138293333D02*
X115426190Y-138245714D01*
X115426190Y-138245714D02*
X115330952Y-138245714D01*
X114569047Y-138912380D02*
X114569047Y-138388571D01*
X114569047Y-138388571D02*
X114616666Y-138293333D01*
X114616666Y-138293333D02*
X114711904Y-138245714D01*
X114711904Y-138245714D02*
X114902380Y-138245714D01*
X114902380Y-138245714D02*
X114997618Y-138293333D01*
X114569047Y-138864761D02*
X114664285Y-138912380D01*
X114664285Y-138912380D02*
X114902380Y-138912380D01*
X114902380Y-138912380D02*
X114997618Y-138864761D01*
X114997618Y-138864761D02*
X115045237Y-138769523D01*
X115045237Y-138769523D02*
X115045237Y-138674285D01*
X115045237Y-138674285D02*
X114997618Y-138579047D01*
X114997618Y-138579047D02*
X114902380Y-138531428D01*
X114902380Y-138531428D02*
X114664285Y-138531428D01*
X114664285Y-138531428D02*
X114569047Y-138483809D01*
X114092856Y-138912380D02*
X114092856Y-138245714D01*
X114092856Y-137912380D02*
X114140475Y-137960000D01*
X114140475Y-137960000D02*
X114092856Y-138007619D01*
X114092856Y-138007619D02*
X114045237Y-137960000D01*
X114045237Y-137960000D02*
X114092856Y-137912380D01*
X114092856Y-137912380D02*
X114092856Y-138007619D01*
X113664285Y-138864761D02*
X113569047Y-138912380D01*
X113569047Y-138912380D02*
X113378571Y-138912380D01*
X113378571Y-138912380D02*
X113283333Y-138864761D01*
X113283333Y-138864761D02*
X113235714Y-138769523D01*
X113235714Y-138769523D02*
X113235714Y-138721904D01*
X113235714Y-138721904D02*
X113283333Y-138626666D01*
X113283333Y-138626666D02*
X113378571Y-138579047D01*
X113378571Y-138579047D02*
X113521428Y-138579047D01*
X113521428Y-138579047D02*
X113616666Y-138531428D01*
X113616666Y-138531428D02*
X113664285Y-138436190D01*
X113664285Y-138436190D02*
X113664285Y-138388571D01*
X113664285Y-138388571D02*
X113616666Y-138293333D01*
X113616666Y-138293333D02*
X113521428Y-138245714D01*
X113521428Y-138245714D02*
X113378571Y-138245714D01*
X113378571Y-138245714D02*
X113283333Y-138293333D01*
X112426190Y-138864761D02*
X112521428Y-138912380D01*
X112521428Y-138912380D02*
X112711904Y-138912380D01*
X112711904Y-138912380D02*
X112807142Y-138864761D01*
X112807142Y-138864761D02*
X112854761Y-138769523D01*
X112854761Y-138769523D02*
X112854761Y-138388571D01*
X112854761Y-138388571D02*
X112807142Y-138293333D01*
X112807142Y-138293333D02*
X112711904Y-138245714D01*
X112711904Y-138245714D02*
X112521428Y-138245714D01*
X112521428Y-138245714D02*
X112426190Y-138293333D01*
X112426190Y-138293333D02*
X112378571Y-138388571D01*
X112378571Y-138388571D02*
X112378571Y-138483809D01*
X112378571Y-138483809D02*
X112854761Y-138579047D01*
X111349999Y-138912380D02*
X111349999Y-137912380D01*
X111349999Y-138293333D02*
X111254761Y-138245714D01*
X111254761Y-138245714D02*
X111064285Y-138245714D01*
X111064285Y-138245714D02*
X110969047Y-138293333D01*
X110969047Y-138293333D02*
X110921428Y-138340952D01*
X110921428Y-138340952D02*
X110873809Y-138436190D01*
X110873809Y-138436190D02*
X110873809Y-138721904D01*
X110873809Y-138721904D02*
X110921428Y-138817142D01*
X110921428Y-138817142D02*
X110969047Y-138864761D01*
X110969047Y-138864761D02*
X111064285Y-138912380D01*
X111064285Y-138912380D02*
X111254761Y-138912380D01*
X111254761Y-138912380D02*
X111349999Y-138864761D01*
X110064285Y-138864761D02*
X110159523Y-138912380D01*
X110159523Y-138912380D02*
X110349999Y-138912380D01*
X110349999Y-138912380D02*
X110445237Y-138864761D01*
X110445237Y-138864761D02*
X110492856Y-138769523D01*
X110492856Y-138769523D02*
X110492856Y-138388571D01*
X110492856Y-138388571D02*
X110445237Y-138293333D01*
X110445237Y-138293333D02*
X110349999Y-138245714D01*
X110349999Y-138245714D02*
X110159523Y-138245714D01*
X110159523Y-138245714D02*
X110064285Y-138293333D01*
X110064285Y-138293333D02*
X110016666Y-138388571D01*
X110016666Y-138388571D02*
X110016666Y-138483809D01*
X110016666Y-138483809D02*
X110492856Y-138579047D01*
X109130951Y-138245714D02*
X108749999Y-138245714D01*
X108988094Y-137912380D02*
X108988094Y-138769523D01*
X108988094Y-138769523D02*
X108940475Y-138864761D01*
X108940475Y-138864761D02*
X108845237Y-138912380D01*
X108845237Y-138912380D02*
X108749999Y-138912380D01*
X108273808Y-138912380D02*
X108369046Y-138864761D01*
X108369046Y-138864761D02*
X108416665Y-138817142D01*
X108416665Y-138817142D02*
X108464284Y-138721904D01*
X108464284Y-138721904D02*
X108464284Y-138436190D01*
X108464284Y-138436190D02*
X108416665Y-138340952D01*
X108416665Y-138340952D02*
X108369046Y-138293333D01*
X108369046Y-138293333D02*
X108273808Y-138245714D01*
X108273808Y-138245714D02*
X108130951Y-138245714D01*
X108130951Y-138245714D02*
X108035713Y-138293333D01*
X108035713Y-138293333D02*
X107988094Y-138340952D01*
X107988094Y-138340952D02*
X107940475Y-138436190D01*
X107940475Y-138436190D02*
X107940475Y-138721904D01*
X107940475Y-138721904D02*
X107988094Y-138817142D01*
X107988094Y-138817142D02*
X108035713Y-138864761D01*
X108035713Y-138864761D02*
X108130951Y-138912380D01*
X108130951Y-138912380D02*
X108273808Y-138912380D01*
X106483332Y-138245714D02*
X106483332Y-139055238D01*
X106483332Y-139055238D02*
X106530951Y-139150476D01*
X106530951Y-139150476D02*
X106578570Y-139198095D01*
X106578570Y-139198095D02*
X106673808Y-139245714D01*
X106673808Y-139245714D02*
X106816665Y-139245714D01*
X106816665Y-139245714D02*
X106911903Y-139198095D01*
X106483332Y-138864761D02*
X106578570Y-138912380D01*
X106578570Y-138912380D02*
X106769046Y-138912380D01*
X106769046Y-138912380D02*
X106864284Y-138864761D01*
X106864284Y-138864761D02*
X106911903Y-138817142D01*
X106911903Y-138817142D02*
X106959522Y-138721904D01*
X106959522Y-138721904D02*
X106959522Y-138436190D01*
X106959522Y-138436190D02*
X106911903Y-138340952D01*
X106911903Y-138340952D02*
X106864284Y-138293333D01*
X106864284Y-138293333D02*
X106769046Y-138245714D01*
X106769046Y-138245714D02*
X106578570Y-138245714D01*
X106578570Y-138245714D02*
X106483332Y-138293333D01*
X105864284Y-138912380D02*
X105959522Y-138864761D01*
X105959522Y-138864761D02*
X106007141Y-138817142D01*
X106007141Y-138817142D02*
X106054760Y-138721904D01*
X106054760Y-138721904D02*
X106054760Y-138436190D01*
X106054760Y-138436190D02*
X106007141Y-138340952D01*
X106007141Y-138340952D02*
X105959522Y-138293333D01*
X105959522Y-138293333D02*
X105864284Y-138245714D01*
X105864284Y-138245714D02*
X105721427Y-138245714D01*
X105721427Y-138245714D02*
X105626189Y-138293333D01*
X105626189Y-138293333D02*
X105578570Y-138340952D01*
X105578570Y-138340952D02*
X105530951Y-138436190D01*
X105530951Y-138436190D02*
X105530951Y-138721904D01*
X105530951Y-138721904D02*
X105578570Y-138817142D01*
X105578570Y-138817142D02*
X105626189Y-138864761D01*
X105626189Y-138864761D02*
X105721427Y-138912380D01*
X105721427Y-138912380D02*
X105864284Y-138912380D01*
X104673808Y-138912380D02*
X104673808Y-137912380D01*
X104673808Y-138864761D02*
X104769046Y-138912380D01*
X104769046Y-138912380D02*
X104959522Y-138912380D01*
X104959522Y-138912380D02*
X105054760Y-138864761D01*
X105054760Y-138864761D02*
X105102379Y-138817142D01*
X105102379Y-138817142D02*
X105149998Y-138721904D01*
X105149998Y-138721904D02*
X105149998Y-138436190D01*
X105149998Y-138436190D02*
X105102379Y-138340952D01*
X105102379Y-138340952D02*
X105054760Y-138293333D01*
X105054760Y-138293333D02*
X104959522Y-138245714D01*
X104959522Y-138245714D02*
X104769046Y-138245714D01*
X104769046Y-138245714D02*
X104673808Y-138293333D01*
X104245236Y-137912380D02*
X104245236Y-138102857D01*
X103864284Y-137912380D02*
X103864284Y-138102857D01*
X102835712Y-138531428D02*
X102073808Y-138531428D01*
X100997617Y-138388571D02*
X100664284Y-138388571D01*
X100521427Y-138912380D02*
X100997617Y-138912380D01*
X100997617Y-138912380D02*
X100997617Y-137912380D01*
X100997617Y-137912380D02*
X100521427Y-137912380D01*
X100235712Y-138245714D02*
X99854760Y-138245714D01*
X100092855Y-137912380D02*
X100092855Y-138769523D01*
X100092855Y-138769523D02*
X100045236Y-138864761D01*
X100045236Y-138864761D02*
X99949998Y-138912380D01*
X99949998Y-138912380D02*
X99854760Y-138912380D01*
X99521426Y-138912380D02*
X99521426Y-137912380D01*
X99092855Y-138912380D02*
X99092855Y-138388571D01*
X99092855Y-138388571D02*
X99140474Y-138293333D01*
X99140474Y-138293333D02*
X99235712Y-138245714D01*
X99235712Y-138245714D02*
X99378569Y-138245714D01*
X99378569Y-138245714D02*
X99473807Y-138293333D01*
X99473807Y-138293333D02*
X99521426Y-138340952D01*
X98188093Y-138912380D02*
X98188093Y-138388571D01*
X98188093Y-138388571D02*
X98235712Y-138293333D01*
X98235712Y-138293333D02*
X98330950Y-138245714D01*
X98330950Y-138245714D02*
X98521426Y-138245714D01*
X98521426Y-138245714D02*
X98616664Y-138293333D01*
X98188093Y-138864761D02*
X98283331Y-138912380D01*
X98283331Y-138912380D02*
X98521426Y-138912380D01*
X98521426Y-138912380D02*
X98616664Y-138864761D01*
X98616664Y-138864761D02*
X98664283Y-138769523D01*
X98664283Y-138769523D02*
X98664283Y-138674285D01*
X98664283Y-138674285D02*
X98616664Y-138579047D01*
X98616664Y-138579047D02*
X98521426Y-138531428D01*
X98521426Y-138531428D02*
X98283331Y-138531428D01*
X98283331Y-138531428D02*
X98188093Y-138483809D01*
X97711902Y-138245714D02*
X97711902Y-138912380D01*
X97711902Y-138340952D02*
X97664283Y-138293333D01*
X97664283Y-138293333D02*
X97569045Y-138245714D01*
X97569045Y-138245714D02*
X97426188Y-138245714D01*
X97426188Y-138245714D02*
X97330950Y-138293333D01*
X97330950Y-138293333D02*
X97283331Y-138388571D01*
X97283331Y-138388571D02*
X97283331Y-138912380D01*
X96207140Y-138912380D02*
X96207140Y-137912380D01*
X96207140Y-137912380D02*
X95826188Y-137912380D01*
X95826188Y-137912380D02*
X95730950Y-137960000D01*
X95730950Y-137960000D02*
X95683331Y-138007619D01*
X95683331Y-138007619D02*
X95635712Y-138102857D01*
X95635712Y-138102857D02*
X95635712Y-138245714D01*
X95635712Y-138245714D02*
X95683331Y-138340952D01*
X95683331Y-138340952D02*
X95730950Y-138388571D01*
X95730950Y-138388571D02*
X95826188Y-138436190D01*
X95826188Y-138436190D02*
X96207140Y-138436190D01*
X95207140Y-138912380D02*
X95207140Y-137912380D01*
X94778569Y-138912380D02*
X94778569Y-138388571D01*
X94778569Y-138388571D02*
X94826188Y-138293333D01*
X94826188Y-138293333D02*
X94921426Y-138245714D01*
X94921426Y-138245714D02*
X95064283Y-138245714D01*
X95064283Y-138245714D02*
X95159521Y-138293333D01*
X95159521Y-138293333D02*
X95207140Y-138340952D01*
X94302378Y-138912380D02*
X94302378Y-138245714D01*
X94302378Y-137912380D02*
X94349997Y-137960000D01*
X94349997Y-137960000D02*
X94302378Y-138007619D01*
X94302378Y-138007619D02*
X94254759Y-137960000D01*
X94254759Y-137960000D02*
X94302378Y-137912380D01*
X94302378Y-137912380D02*
X94302378Y-138007619D01*
X93683331Y-138912380D02*
X93778569Y-138864761D01*
X93778569Y-138864761D02*
X93826188Y-138769523D01*
X93826188Y-138769523D02*
X93826188Y-137912380D01*
X93302378Y-138245714D02*
X93302378Y-139245714D01*
X93302378Y-138293333D02*
X93207140Y-138245714D01*
X93207140Y-138245714D02*
X93016664Y-138245714D01*
X93016664Y-138245714D02*
X92921426Y-138293333D01*
X92921426Y-138293333D02*
X92873807Y-138340952D01*
X92873807Y-138340952D02*
X92826188Y-138436190D01*
X92826188Y-138436190D02*
X92826188Y-138721904D01*
X92826188Y-138721904D02*
X92873807Y-138817142D01*
X92873807Y-138817142D02*
X92921426Y-138864761D01*
X92921426Y-138864761D02*
X93016664Y-138912380D01*
X93016664Y-138912380D02*
X93207140Y-138912380D01*
X93207140Y-138912380D02*
X93302378Y-138864761D01*
X92254759Y-138912380D02*
X92349997Y-138864761D01*
X92349997Y-138864761D02*
X92397616Y-138817142D01*
X92397616Y-138817142D02*
X92445235Y-138721904D01*
X92445235Y-138721904D02*
X92445235Y-138436190D01*
X92445235Y-138436190D02*
X92397616Y-138340952D01*
X92397616Y-138340952D02*
X92349997Y-138293333D01*
X92349997Y-138293333D02*
X92254759Y-138245714D01*
X92254759Y-138245714D02*
X92111902Y-138245714D01*
X92111902Y-138245714D02*
X92016664Y-138293333D01*
X92016664Y-138293333D02*
X91969045Y-138340952D01*
X91969045Y-138340952D02*
X91921426Y-138436190D01*
X91921426Y-138436190D02*
X91921426Y-138721904D01*
X91921426Y-138721904D02*
X91969045Y-138817142D01*
X91969045Y-138817142D02*
X92016664Y-138864761D01*
X92016664Y-138864761D02*
X92111902Y-138912380D01*
X92111902Y-138912380D02*
X92254759Y-138912380D01*
X91635711Y-138245714D02*
X91254759Y-138245714D01*
X91492854Y-137912380D02*
X91492854Y-138769523D01*
X91492854Y-138769523D02*
X91445235Y-138864761D01*
X91445235Y-138864761D02*
X91349997Y-138912380D01*
X91349997Y-138912380D02*
X91254759Y-138912380D01*
X91064282Y-138245714D02*
X90683330Y-138245714D01*
X90921425Y-137912380D02*
X90921425Y-138769523D01*
X90921425Y-138769523D02*
X90873806Y-138864761D01*
X90873806Y-138864761D02*
X90778568Y-138912380D01*
X90778568Y-138912380D02*
X90683330Y-138912380D01*
X160133333Y-98567380D02*
X160133333Y-99281666D01*
X160133333Y-99281666D02*
X160180952Y-99424523D01*
X160180952Y-99424523D02*
X160276190Y-99519761D01*
X160276190Y-99519761D02*
X160419047Y-99567380D01*
X160419047Y-99567380D02*
X160514285Y-99567380D01*
X159704761Y-98662619D02*
X159657142Y-98615000D01*
X159657142Y-98615000D02*
X159561904Y-98567380D01*
X159561904Y-98567380D02*
X159323809Y-98567380D01*
X159323809Y-98567380D02*
X159228571Y-98615000D01*
X159228571Y-98615000D02*
X159180952Y-98662619D01*
X159180952Y-98662619D02*
X159133333Y-98757857D01*
X159133333Y-98757857D02*
X159133333Y-98853095D01*
X159133333Y-98853095D02*
X159180952Y-98995952D01*
X159180952Y-98995952D02*
X159752380Y-99567380D01*
X159752380Y-99567380D02*
X159133333Y-99567380D01*
D12*
X148225009Y-94475000D02*
X150729959Y-94475000D01*
X148225009Y-99104960D02*
X148225009Y-94475000D01*
X152470039Y-94475000D02*
X152729960Y-94475000D01*
X154470040Y-94475000D02*
X156974992Y-94475000D01*
X155515982Y-102425000D02*
X149684019Y-102425000D01*
X156974992Y-94475000D02*
X156974992Y-99104960D01*
X157228992Y-94900000D02*
X158752992Y-95535000D01*
X158752992Y-94265000D02*
X157228992Y-94900000D01*
X158752992Y-95535000D02*
X158752992Y-94265000D01*
%LPC*%
D13*
X163450000Y-143450000D03*
D14*
X121399999Y-95499999D03*
D15*
X161364000Y-58495000D03*
D14*
X116299999Y-101599999D03*
D13*
X73550000Y-53550000D03*
D15*
X161364000Y-138505000D03*
X75639000Y-134695000D03*
X75639000Y-61035000D03*
D13*
X73550000Y-143450000D03*
D14*
X121299999Y-101599999D03*
D13*
X163450000Y-53550000D03*
D14*
X116299999Y-95499999D03*
D16*
X153599999Y-94899999D03*
X151599998Y-94899999D03*
D17*
X156494997Y-100874998D03*
X148705002Y-100874998D03*
M02*
