G04 #@! TF.GenerationSoftware,KiCad,Pcbnew,(6.0.5-0)*
G04 #@! TF.CreationDate,2023-01-03T07:21:46-05:00*
G04 #@! TF.ProjectId,solar-cell-pcbs-usb,736f6c61-722d-4636-956c-6c2d70636273,3*
G04 #@! TF.SameCoordinates,Original*
G04 #@! TF.FileFunction,Profile,NP*
%FSLAX46Y46*%
G04 Gerber Fmt 4.6, Leading zero omitted, Abs format (unit mm)*
G04 Created by KiCad (PCBNEW (6.0.5-0)) date 2023-01-03 07:21:46*
%MOMM*%
%LPD*%
G01*
G04 APERTURE LIST*
G04 #@! TA.AperFunction,Profile*
%ADD10C,0.100000*%
G04 #@! TD*
G04 APERTURE END LIST*
D10*
X143600000Y-38750000D02*
X152100000Y-38750000D01*
X96000000Y-70000000D02*
X96000000Y-63400000D01*
X80600000Y-142250000D02*
X88600000Y-142250000D01*
X135600000Y-142250000D02*
X88600000Y-142250000D01*
X80650000Y-38750000D02*
X88650000Y-38750000D01*
X135600000Y-38750000D02*
X143600000Y-38750000D01*
X152100000Y-38750000D02*
X152100000Y-142250000D01*
X80600000Y-142250000D02*
X72100000Y-142250000D01*
X82600000Y-63400000D02*
X82600000Y-50414214D01*
X143600000Y-142250000D02*
X152100000Y-142250000D01*
X96000000Y-70000000D02*
X117994360Y-70000000D01*
X117994360Y-69999969D02*
G75*
G03*
X120000000Y-68085786I-3860J2011869D01*
G01*
X119999947Y-50414215D02*
G75*
G03*
X117989127Y-48400000I-2039847J-25585D01*
G01*
X84600002Y-48399959D02*
G75*
G03*
X82600000Y-50414214I-97602J-1903141D01*
G01*
X135600000Y-142250000D02*
X143600000Y-142250000D01*
X120000000Y-50414214D02*
X120000000Y-68085786D01*
X88650000Y-38750000D02*
X135600000Y-38750000D01*
X84600000Y-48400000D02*
X117989127Y-48400000D01*
X80650000Y-38750000D02*
X72100000Y-38750000D01*
X72100000Y-142250000D02*
X72100000Y-38750000D01*
X96000000Y-63400000D02*
X82600000Y-63400000D01*
M02*
