M48
; DRILL file {KiCad (6.0.5-0)} date Tuesday, March 07, 2023 at 01:44:10 AM
; FORMAT={-:-/ absolute / metric / decimal}
; #@! TF.CreationDate,2023-03-07T01:44:10-05:00
; #@! TF.GenerationSoftware,Kicad,Pcbnew,(6.0.5-0)
; #@! TF.FileFunction,Plated,1,2,PTH
FMAT,2
METRIC
; #@! TA.AperFunction,Plated,PTH,ViaDrill
T1C0.400
; #@! TA.AperFunction,Plated,PTH,ComponentDrill
T2C1.500
; #@! TA.AperFunction,Plated,PTH,ComponentDrill
T3C1.700
; #@! TA.AperFunction,Plated,PTH,ComponentDrill
T4C2.700
; #@! TA.AperFunction,Plated,PTH,ComponentDrill
T5C3.700
%
G90
G05
T1
X99.35Y-86.15
X99.35Y-88.2
X99.4Y-81.6
X99.5Y-84.0
X99.5Y-90.65
X99.8Y-95.3
X99.8Y-97.1
X99.8Y-98.8
X99.8Y-100.9
X99.8Y-103.25
X99.85Y-93.05
X99.9Y-105.6
X99.95Y-108.4
X100.0Y-113.6
X100.0Y-115.7
X100.05Y-110.95
X101.3Y-82.85
X101.4Y-84.85
X101.5Y-81.5
X101.5Y-87.15
X101.5Y-89.25
X101.5Y-91.65
X101.7Y-96.35
X101.7Y-98.15
X101.7Y-99.85
X101.7Y-101.95
X101.7Y-104.3
X101.75Y-94.1
X101.8Y-107.0
X101.9Y-109.75
X102.05Y-112.25
X102.05Y-113.95
X102.6Y-115.7
X103.15Y-92.85
X103.25Y-95.4
X103.3Y-103.35
X103.4Y-97.7
X103.4Y-99.6
X103.4Y-101.4
X104.8Y-94.35
X104.95Y-96.65
X104.95Y-98.55
X104.95Y-100.35
X104.95Y-102.05
X105.05Y-104.3
X106.4Y-93.15
X106.55Y-95.45
X106.55Y-97.35
X106.55Y-99.15
X106.55Y-100.85
X106.65Y-103.1
X108.15Y-94.1
X108.3Y-96.4
X108.3Y-98.3
X108.3Y-100.1
X108.3Y-101.8
X108.4Y-104.05
X109.9Y-95.0
X109.9Y-96.9
X109.9Y-98.7
X109.9Y-100.4
X110.0Y-102.65
X111.5Y-93.6
X111.65Y-95.9
X111.65Y-97.8
X111.65Y-99.6
X111.65Y-101.3
X111.75Y-103.55
X113.45Y-94.8
X113.45Y-96.7
X113.45Y-98.5
X113.45Y-100.2
X113.45Y-102.3
X115.1Y-94.3
X115.1Y-103.6
X115.3Y-100.5
X115.4Y-96.5
X115.4Y-98.3
X116.8Y-103.2
X116.9Y-93.3
X117.0Y-95.4
X117.0Y-99.5
X117.0Y-101.6
X117.4Y-97.9
X119.7Y-99.7
X119.7Y-101.9
X119.7Y-103.5
X120.1Y-95.6
X120.1Y-97.6
X120.2Y-94.0
X121.7Y-99.8
X122.0Y-101.8
X122.3Y-97.1
X122.8Y-94.4
X123.1Y-103.3
X123.4Y-98.7
X125.0Y-94.4
X125.0Y-97.4
X125.0Y-99.9
X125.4Y-101.8
X125.6Y-103.0
X126.9Y-98.4
X127.6Y-103.5
X127.8Y-94.4
X127.9Y-96.3
X128.0Y-99.8
X128.6Y-101.9
X129.1Y-98.2
X133.5Y-105.4
X133.6Y-94.1
X133.9Y-107.1
X134.0Y-91.4
X134.0Y-103.0
X134.1Y-110.4
X134.4Y-86.4
X134.5Y-89.4
X134.8Y-95.9
X135.2Y-94.1
X135.3Y-87.9
X135.3Y-100.5
X135.3Y-108.8
X135.3Y-111.9
X135.4Y-91.7
X135.5Y-105.8
X135.9Y-102.5
X136.0Y-85.0
X136.2Y-89.5
X136.6Y-107.2
X136.7Y-99.6
X136.8Y-110.3
X137.0Y-105.0
X137.3Y-94.1
X137.4Y-86.3
X137.5Y-95.9
X137.6Y-91.6
X138.0Y-87.9
X138.1Y-101.3
X138.1Y-103.5
X138.3Y-111.9
X138.4Y-108.9
X138.6Y-107.3
X138.8Y-89.8
X139.0Y-99.7
X139.1Y-84.8
X139.3Y-94.6
X139.5Y-102.9
X139.5Y-110.4
X139.9Y-92.0
X140.0Y-86.4
X140.0Y-106.3
X140.8Y-89.7
X140.9Y-101.1
X140.9Y-108.9
X141.0Y-104.9
X141.2Y-93.5
X141.3Y-111.8
X141.4Y-96.0
X141.6Y-103.7
X141.7Y-84.8
X141.7Y-88.0
X142.3Y-91.6
X142.5Y-107.2
X142.6Y-99.8
X142.6Y-110.2
X142.8Y-105.5
X143.0Y-101.4
X143.3Y-89.5
X143.3Y-103.4
X143.4Y-94.7
X143.5Y-108.7
X143.7Y-86.2
X143.9Y-93.4
X144.1Y-92.0
X144.3Y-101.9
X144.4Y-102.8
X144.4Y-106.8
X144.6Y-104.7
X144.7Y-95.2
X144.7Y-111.9
X144.8Y-87.9
X144.9Y-90.2
X144.9Y-100.8
X145.3Y-93.4
X145.3Y-105.8
X145.4Y-84.6
X145.7Y-110.5
X145.8Y-91.8
X146.0Y-103.5
X146.2Y-108.8
X146.3Y-89.9
X146.5Y-105.4
X146.7Y-107.1
X146.8Y-86.2
X147.0Y-88.3
X147.0Y-92.9
X147.5Y-91.4
X147.5Y-102.7
X148.0Y-105.2
X148.1Y-89.8
X148.1Y-106.6
X148.2Y-108.2
X148.3Y-84.8
X148.3Y-111.9
X148.5Y-93.0
X148.5Y-104.1
X149.0Y-110.0
X149.2Y-91.4
X149.4Y-102.6
X149.5Y-88.2
X149.5Y-90.1
X149.7Y-94.9
X149.7Y-100.7
X149.8Y-105.7
X150.0Y-86.5
X150.3Y-93.0
X150.6Y-107.8
X150.8Y-110.0
X150.9Y-102.8
X151.0Y-91.8
X151.3Y-85.0
X151.3Y-89.9
X151.3Y-111.8
X151.4Y-104.3
X151.6Y-88.0
X152.0Y-93.0
X152.2Y-108.5
X152.5Y-106.1
X152.8Y-102.8
X152.9Y-89.4
X152.9Y-91.3
X153.2Y-87.2
X153.3Y-110.1
X153.8Y-85.0
X154.0Y-92.8
X154.0Y-106.9
X154.1Y-111.9
X154.4Y-90.6
X154.6Y-104.0
X154.9Y-100.9
X154.9Y-102.2
X155.5Y-87.2
X155.5Y-89.0
X155.5Y-108.1
X155.6Y-94.1
X155.6Y-105.2
X156.0Y-92.1
X156.4Y-85.0
X156.4Y-110.1
X156.7Y-111.8
X156.9Y-96.1
X156.9Y-101.8
X157.1Y-93.6
X157.1Y-98.9
X157.4Y-103.5
X157.5Y-106.5
X157.7Y-90.5
X157.8Y-97.4
X158.0Y-87.2
X158.0Y-94.6
X158.6Y-92.5
X158.6Y-108.1
X159.2Y-85.1
X159.2Y-104.3
X159.3Y-88.9
X159.3Y-99.9
X159.3Y-102.1
X159.4Y-95.8
X159.4Y-111.8
X159.6Y-91.1
X159.6Y-98.0
X159.6Y-106.2
X159.7Y-110.0
X160.0Y-93.9
T2
X149.7Y-97.7
T3
X147.15Y-95.15
X147.15Y-100.25
X152.25Y-95.15
X152.25Y-100.25
T4
X75.639Y-61.035
X75.639Y-134.695
X161.364Y-58.495
X161.364Y-138.505
T5
X73.55Y-53.55
X73.55Y-143.45
X163.45Y-53.55
X163.45Y-143.45
T0
M30
