G04 #@! TF.GenerationSoftware,KiCad,Pcbnew,(6.0.5-0)*
G04 #@! TF.CreationDate,2023-03-07T01:44:05-05:00*
G04 #@! TF.ProjectId,antenna-pcb,616e7465-6e6e-4612-9d70-63622e6b6963,3*
G04 #@! TF.SameCoordinates,Original*
G04 #@! TF.FileFunction,Legend,Bot*
G04 #@! TF.FilePolarity,Positive*
%FSLAX46Y46*%
G04 Gerber Fmt 4.6, Leading zero omitted, Abs format (unit mm)*
G04 Created by KiCad (PCBNEW (6.0.5-0)) date 2023-03-07 01:44:05*
%MOMM*%
%LPD*%
G01*
G04 APERTURE LIST*
%ADD10C,0.150000*%
%ADD11C,0.120000*%
%ADD12C,5.500000*%
%ADD13C,4.300000*%
%ADD14C,2.050000*%
%ADD15C,2.250000*%
%ADD16R,26.000000X8.000000*%
%ADD17R,2.000000X8.000000*%
%ADD18R,0.350000X1.000000*%
G04 APERTURE END LIST*
D10*
G04 #@! TO.C,J1*
X154552380Y-97366666D02*
X155266666Y-97366666D01*
X155409523Y-97319047D01*
X155504761Y-97223809D01*
X155552380Y-97080952D01*
X155552380Y-96985714D01*
X155552380Y-98366666D02*
X155552380Y-97795238D01*
X155552380Y-98080952D02*
X154552380Y-98080952D01*
X154695238Y-97985714D01*
X154790476Y-97890476D01*
X154838095Y-97795238D01*
G04 #@! TO.C,U1*
X129002380Y-96038095D02*
X129811904Y-96038095D01*
X129907142Y-96085714D01*
X129954761Y-96133333D01*
X130002380Y-96228571D01*
X130002380Y-96419047D01*
X129954761Y-96514285D01*
X129907142Y-96561904D01*
X129811904Y-96609523D01*
X129002380Y-96609523D01*
X130002380Y-97609523D02*
X130002380Y-97038095D01*
X130002380Y-97323809D02*
X129002380Y-97323809D01*
X129145238Y-97228571D01*
X129240476Y-97133333D01*
X129288095Y-97038095D01*
D11*
G04 #@! TO.C,J1*
X151150000Y-94345000D02*
X148250000Y-94345000D01*
X153055000Y-99150000D02*
X153055000Y-96250000D01*
X151150000Y-101055000D02*
X148250000Y-101055000D01*
X146345000Y-99150000D02*
X146345000Y-96250000D01*
G04 #@! TO.C,AE1*
X131500000Y-116850000D02*
X131500000Y-119390000D01*
X105500000Y-77610000D02*
X131500000Y-77610000D01*
X105500000Y-119390000D02*
X131500000Y-119390000D01*
X105500000Y-116850000D02*
X131500000Y-116850000D01*
X131500000Y-77610000D02*
X131500000Y-80150000D01*
X105500000Y-80150000D02*
X131500000Y-80150000D01*
X105500000Y-80150000D02*
X105500000Y-77610000D01*
X105500000Y-119390000D02*
X105500000Y-116850000D01*
G04 #@! TO.C,U1*
X132750000Y-98100000D02*
X132750000Y-96200000D01*
X130650000Y-97400000D02*
X130650000Y-96200000D01*
G04 #@! TD*
%LPC*%
D12*
G04 #@! TO.C,H4*
X163450000Y-143450000D03*
G04 #@! TD*
D13*
G04 #@! TO.C,H6*
X161364000Y-58495000D03*
G04 #@! TD*
D12*
G04 #@! TO.C,H1*
X73550000Y-53550000D03*
G04 #@! TD*
D13*
G04 #@! TO.C,H8*
X161364000Y-138505000D03*
G04 #@! TD*
G04 #@! TO.C,H7*
X75639000Y-134695000D03*
G04 #@! TD*
G04 #@! TO.C,H5*
X75639000Y-61035000D03*
G04 #@! TD*
D12*
G04 #@! TO.C,H3*
X73550000Y-143450000D03*
G04 #@! TD*
G04 #@! TO.C,H2*
X163450000Y-53550000D03*
G04 #@! TD*
D14*
G04 #@! TO.C,J1*
X149700000Y-97700000D03*
D15*
X147150000Y-95150000D03*
X152250000Y-100250000D03*
X147150000Y-100250000D03*
X152250000Y-95150000D03*
G04 #@! TD*
D16*
G04 #@! TO.C,AE1*
X118500000Y-86700000D03*
D17*
X130500000Y-86700000D03*
D16*
X118500000Y-110300000D03*
D17*
X130500000Y-110300000D03*
G04 #@! TD*
D18*
G04 #@! TO.C,U1*
X132350000Y-97700000D03*
X131700000Y-97700000D03*
X131050000Y-97700000D03*
X131050000Y-95900000D03*
X131700000Y-95900000D03*
X132350000Y-95900000D03*
G04 #@! TD*
M02*
