G04 #@! TF.GenerationSoftware,KiCad,Pcbnew,(6.0.5-0)*
G04 #@! TF.CreationDate,2022-12-26T00:23:02-05:00*
G04 #@! TF.ProjectId,solar-cell-pcbs-burn-wire-vertical,736f6c61-722d-4636-956c-6c2d70636273,rev?*
G04 #@! TF.SameCoordinates,Original*
G04 #@! TF.FileFunction,Legend,Top*
G04 #@! TF.FilePolarity,Positive*
%FSLAX46Y46*%
G04 Gerber Fmt 4.6, Leading zero omitted, Abs format (unit mm)*
G04 Created by KiCad (PCBNEW (6.0.5-0)) date 2022-12-26 00:23:02*
%MOMM*%
%LPD*%
G01*
G04 APERTURE LIST*
%ADD10C,0.200000*%
%ADD11C,0.150000*%
%ADD12C,0.250000*%
%ADD13C,0.120000*%
%ADD14R,2.000000X2.000000*%
%ADD15C,2.000000*%
%ADD16C,5.600000*%
%ADD17C,3.000000*%
G04 APERTURE END LIST*
D10*
X88500000Y-135000000D02*
X135700000Y-135000000D01*
X88550000Y-46000000D02*
X135700000Y-46000000D01*
D11*
X144600000Y-46000000D02*
X144600000Y-135000000D01*
X79600000Y-46000000D02*
X79600000Y-135000000D01*
D12*
X108392857Y-90952380D02*
X108392857Y-89952380D01*
X108726190Y-90666666D01*
X109059523Y-89952380D01*
X109059523Y-90952380D01*
X109726190Y-89952380D02*
X109916666Y-89952380D01*
X110011904Y-90000000D01*
X110107142Y-90095238D01*
X110154761Y-90285714D01*
X110154761Y-90619047D01*
X110107142Y-90809523D01*
X110011904Y-90904761D01*
X109916666Y-90952380D01*
X109726190Y-90952380D01*
X109630952Y-90904761D01*
X109535714Y-90809523D01*
X109488095Y-90619047D01*
X109488095Y-90285714D01*
X109535714Y-90095238D01*
X109630952Y-90000000D01*
X109726190Y-89952380D01*
X110583333Y-90952380D02*
X110583333Y-89952380D01*
X110916666Y-90666666D01*
X111250000Y-89952380D01*
X111250000Y-90952380D01*
X111916666Y-89952380D02*
X112107142Y-89952380D01*
X112202380Y-90000000D01*
X112297619Y-90095238D01*
X112345238Y-90285714D01*
X112345238Y-90619047D01*
X112297619Y-90809523D01*
X112202380Y-90904761D01*
X112107142Y-90952380D01*
X111916666Y-90952380D01*
X111821428Y-90904761D01*
X111726190Y-90809523D01*
X111678571Y-90619047D01*
X111678571Y-90285714D01*
X111726190Y-90095238D01*
X111821428Y-90000000D01*
X111916666Y-89952380D01*
X113107142Y-90428571D02*
X113250000Y-90476190D01*
X113297619Y-90523809D01*
X113345238Y-90619047D01*
X113345238Y-90761904D01*
X113297619Y-90857142D01*
X113250000Y-90904761D01*
X113154761Y-90952380D01*
X112773809Y-90952380D01*
X112773809Y-89952380D01*
X113107142Y-89952380D01*
X113202380Y-90000000D01*
X113250000Y-90047619D01*
X113297619Y-90142857D01*
X113297619Y-90238095D01*
X113250000Y-90333333D01*
X113202380Y-90380952D01*
X113107142Y-90428571D01*
X112773809Y-90428571D01*
X113964285Y-89952380D02*
X114154761Y-89952380D01*
X114250000Y-90000000D01*
X114345238Y-90095238D01*
X114392857Y-90285714D01*
X114392857Y-90619047D01*
X114345238Y-90809523D01*
X114250000Y-90904761D01*
X114154761Y-90952380D01*
X113964285Y-90952380D01*
X113869047Y-90904761D01*
X113773809Y-90809523D01*
X113726190Y-90619047D01*
X113726190Y-90285714D01*
X113773809Y-90095238D01*
X113869047Y-90000000D01*
X113964285Y-89952380D01*
X114678571Y-89952380D02*
X115250000Y-89952380D01*
X114964285Y-90952380D02*
X114964285Y-89952380D01*
X108154761Y-132404761D02*
X108297619Y-132452380D01*
X108535714Y-132452380D01*
X108630952Y-132404761D01*
X108678571Y-132357142D01*
X108726190Y-132261904D01*
X108726190Y-132166666D01*
X108678571Y-132071428D01*
X108630952Y-132023809D01*
X108535714Y-131976190D01*
X108345238Y-131928571D01*
X108250000Y-131880952D01*
X108202380Y-131833333D01*
X108154761Y-131738095D01*
X108154761Y-131642857D01*
X108202380Y-131547619D01*
X108250000Y-131500000D01*
X108345238Y-131452380D01*
X108583333Y-131452380D01*
X108726190Y-131500000D01*
X109297619Y-132452380D02*
X109202380Y-132404761D01*
X109154761Y-132357142D01*
X109107142Y-132261904D01*
X109107142Y-131976190D01*
X109154761Y-131880952D01*
X109202380Y-131833333D01*
X109297619Y-131785714D01*
X109440476Y-131785714D01*
X109535714Y-131833333D01*
X109583333Y-131880952D01*
X109630952Y-131976190D01*
X109630952Y-132261904D01*
X109583333Y-132357142D01*
X109535714Y-132404761D01*
X109440476Y-132452380D01*
X109297619Y-132452380D01*
X110202380Y-132452380D02*
X110107142Y-132404761D01*
X110059523Y-132309523D01*
X110059523Y-131452380D01*
X111011904Y-132452380D02*
X111011904Y-131928571D01*
X110964285Y-131833333D01*
X110869047Y-131785714D01*
X110678571Y-131785714D01*
X110583333Y-131833333D01*
X111011904Y-132404761D02*
X110916666Y-132452380D01*
X110678571Y-132452380D01*
X110583333Y-132404761D01*
X110535714Y-132309523D01*
X110535714Y-132214285D01*
X110583333Y-132119047D01*
X110678571Y-132071428D01*
X110916666Y-132071428D01*
X111011904Y-132023809D01*
X111488095Y-132452380D02*
X111488095Y-131785714D01*
X111488095Y-131976190D02*
X111535714Y-131880952D01*
X111583333Y-131833333D01*
X111678571Y-131785714D01*
X111773809Y-131785714D01*
X113440476Y-132357142D02*
X113392857Y-132404761D01*
X113250000Y-132452380D01*
X113154761Y-132452380D01*
X113011904Y-132404761D01*
X112916666Y-132309523D01*
X112869047Y-132214285D01*
X112821428Y-132023809D01*
X112821428Y-131880952D01*
X112869047Y-131690476D01*
X112916666Y-131595238D01*
X113011904Y-131500000D01*
X113154761Y-131452380D01*
X113250000Y-131452380D01*
X113392857Y-131500000D01*
X113440476Y-131547619D01*
X114250000Y-132404761D02*
X114154761Y-132452380D01*
X113964285Y-132452380D01*
X113869047Y-132404761D01*
X113821428Y-132309523D01*
X113821428Y-131928571D01*
X113869047Y-131833333D01*
X113964285Y-131785714D01*
X114154761Y-131785714D01*
X114250000Y-131833333D01*
X114297619Y-131928571D01*
X114297619Y-132023809D01*
X113821428Y-132119047D01*
X114869047Y-132452380D02*
X114773809Y-132404761D01*
X114726190Y-132309523D01*
X114726190Y-131452380D01*
X115392857Y-132452380D02*
X115297619Y-132404761D01*
X115250000Y-132309523D01*
X115250000Y-131452380D01*
D11*
X146857142Y-125328571D02*
X147000000Y-125376190D01*
X147047619Y-125423809D01*
X147095238Y-125519047D01*
X147095238Y-125661904D01*
X147047619Y-125757142D01*
X147000000Y-125804761D01*
X146904761Y-125852380D01*
X146523809Y-125852380D01*
X146523809Y-124852380D01*
X146857142Y-124852380D01*
X146952380Y-124900000D01*
X147000000Y-124947619D01*
X147047619Y-125042857D01*
X147047619Y-125138095D01*
X147000000Y-125233333D01*
X146952380Y-125280952D01*
X146857142Y-125328571D01*
X146523809Y-125328571D01*
X147952380Y-125185714D02*
X147952380Y-125852380D01*
X147523809Y-125185714D02*
X147523809Y-125709523D01*
X147571428Y-125804761D01*
X147666666Y-125852380D01*
X147809523Y-125852380D01*
X147904761Y-125804761D01*
X147952380Y-125757142D01*
X148428571Y-125852380D02*
X148428571Y-125185714D01*
X148428571Y-125376190D02*
X148476190Y-125280952D01*
X148523809Y-125233333D01*
X148619047Y-125185714D01*
X148714285Y-125185714D01*
X149047619Y-125185714D02*
X149047619Y-125852380D01*
X149047619Y-125280952D02*
X149095238Y-125233333D01*
X149190476Y-125185714D01*
X149333333Y-125185714D01*
X149428571Y-125233333D01*
X149476190Y-125328571D01*
X149476190Y-125852380D01*
X78404761Y-74604761D02*
X78452380Y-74461904D01*
X78452380Y-74223809D01*
X78404761Y-74128571D01*
X78357142Y-74080952D01*
X78261904Y-74033333D01*
X78166666Y-74033333D01*
X78071428Y-74080952D01*
X78023809Y-74128571D01*
X77976190Y-74223809D01*
X77928571Y-74414285D01*
X77880952Y-74509523D01*
X77833333Y-74557142D01*
X77738095Y-74604761D01*
X77642857Y-74604761D01*
X77547619Y-74557142D01*
X77500000Y-74509523D01*
X77452380Y-74414285D01*
X77452380Y-74176190D01*
X77500000Y-74033333D01*
X78357142Y-73033333D02*
X78404761Y-73080952D01*
X78452380Y-73223809D01*
X78452380Y-73319047D01*
X78404761Y-73461904D01*
X78309523Y-73557142D01*
X78214285Y-73604761D01*
X78023809Y-73652380D01*
X77880952Y-73652380D01*
X77690476Y-73604761D01*
X77595238Y-73557142D01*
X77500000Y-73461904D01*
X77452380Y-73319047D01*
X77452380Y-73223809D01*
X77500000Y-73080952D01*
X77547619Y-73033333D01*
X78071428Y-72604761D02*
X78071428Y-71842857D01*
X78452380Y-72223809D02*
X77690476Y-72223809D01*
X75213095Y-138650000D02*
X75117857Y-138602380D01*
X74975000Y-138602380D01*
X74832142Y-138650000D01*
X74736904Y-138745238D01*
X74689285Y-138840476D01*
X74641666Y-139030952D01*
X74641666Y-139173809D01*
X74689285Y-139364285D01*
X74736904Y-139459523D01*
X74832142Y-139554761D01*
X74975000Y-139602380D01*
X75070238Y-139602380D01*
X75213095Y-139554761D01*
X75260714Y-139507142D01*
X75260714Y-139173809D01*
X75070238Y-139173809D01*
X75689285Y-139602380D02*
X75689285Y-138602380D01*
X76260714Y-139602380D01*
X76260714Y-138602380D01*
X76736904Y-139602380D02*
X76736904Y-138602380D01*
X76975000Y-138602380D01*
X77117857Y-138650000D01*
X77213095Y-138745238D01*
X77260714Y-138840476D01*
X77308333Y-139030952D01*
X77308333Y-139173809D01*
X77260714Y-139364285D01*
X77213095Y-139459523D01*
X77117857Y-139554761D01*
X76975000Y-139602380D01*
X76736904Y-139602380D01*
X86204761Y-114104761D02*
X86252380Y-113961904D01*
X86252380Y-113723809D01*
X86204761Y-113628571D01*
X86157142Y-113580952D01*
X86061904Y-113533333D01*
X85966666Y-113533333D01*
X85871428Y-113580952D01*
X85823809Y-113628571D01*
X85776190Y-113723809D01*
X85728571Y-113914285D01*
X85680952Y-114009523D01*
X85633333Y-114057142D01*
X85538095Y-114104761D01*
X85442857Y-114104761D01*
X85347619Y-114057142D01*
X85300000Y-114009523D01*
X85252380Y-113914285D01*
X85252380Y-113676190D01*
X85300000Y-113533333D01*
X86157142Y-112533333D02*
X86204761Y-112580952D01*
X86252380Y-112723809D01*
X86252380Y-112819047D01*
X86204761Y-112961904D01*
X86109523Y-113057142D01*
X86014285Y-113104761D01*
X85823809Y-113152380D01*
X85680952Y-113152380D01*
X85490476Y-113104761D01*
X85395238Y-113057142D01*
X85300000Y-112961904D01*
X85252380Y-112819047D01*
X85252380Y-112723809D01*
X85300000Y-112580952D01*
X85347619Y-112533333D01*
X85871428Y-112104761D02*
X85871428Y-111342857D01*
X86252380Y-111723809D02*
X85490476Y-111723809D01*
X147288095Y-41175000D02*
X147192857Y-41127380D01*
X147050000Y-41127380D01*
X146907142Y-41175000D01*
X146811904Y-41270238D01*
X146764285Y-41365476D01*
X146716666Y-41555952D01*
X146716666Y-41698809D01*
X146764285Y-41889285D01*
X146811904Y-41984523D01*
X146907142Y-42079761D01*
X147050000Y-42127380D01*
X147145238Y-42127380D01*
X147288095Y-42079761D01*
X147335714Y-42032142D01*
X147335714Y-41698809D01*
X147145238Y-41698809D01*
X147764285Y-42127380D02*
X147764285Y-41127380D01*
X148335714Y-42127380D01*
X148335714Y-41127380D01*
X148811904Y-42127380D02*
X148811904Y-41127380D01*
X149050000Y-41127380D01*
X149192857Y-41175000D01*
X149288095Y-41270238D01*
X149335714Y-41365476D01*
X149383333Y-41555952D01*
X149383333Y-41698809D01*
X149335714Y-41889285D01*
X149288095Y-41984523D01*
X149192857Y-42079761D01*
X149050000Y-42127380D01*
X148811904Y-42127380D01*
X74857142Y-55528571D02*
X75000000Y-55576190D01*
X75047619Y-55623809D01*
X75095238Y-55719047D01*
X75095238Y-55861904D01*
X75047619Y-55957142D01*
X75000000Y-56004761D01*
X74904761Y-56052380D01*
X74523809Y-56052380D01*
X74523809Y-55052380D01*
X74857142Y-55052380D01*
X74952380Y-55100000D01*
X75000000Y-55147619D01*
X75047619Y-55242857D01*
X75047619Y-55338095D01*
X75000000Y-55433333D01*
X74952380Y-55480952D01*
X74857142Y-55528571D01*
X74523809Y-55528571D01*
X75952380Y-55385714D02*
X75952380Y-56052380D01*
X75523809Y-55385714D02*
X75523809Y-55909523D01*
X75571428Y-56004761D01*
X75666666Y-56052380D01*
X75809523Y-56052380D01*
X75904761Y-56004761D01*
X75952380Y-55957142D01*
X76428571Y-56052380D02*
X76428571Y-55385714D01*
X76428571Y-55576190D02*
X76476190Y-55480952D01*
X76523809Y-55433333D01*
X76619047Y-55385714D01*
X76714285Y-55385714D01*
X77047619Y-55385714D02*
X77047619Y-56052380D01*
X77047619Y-55480952D02*
X77095238Y-55433333D01*
X77190476Y-55385714D01*
X77333333Y-55385714D01*
X77428571Y-55433333D01*
X77476190Y-55528571D01*
X77476190Y-56052380D01*
X75288095Y-41275000D02*
X75192857Y-41227380D01*
X75050000Y-41227380D01*
X74907142Y-41275000D01*
X74811904Y-41370238D01*
X74764285Y-41465476D01*
X74716666Y-41655952D01*
X74716666Y-41798809D01*
X74764285Y-41989285D01*
X74811904Y-42084523D01*
X74907142Y-42179761D01*
X75050000Y-42227380D01*
X75145238Y-42227380D01*
X75288095Y-42179761D01*
X75335714Y-42132142D01*
X75335714Y-41798809D01*
X75145238Y-41798809D01*
X75764285Y-42227380D02*
X75764285Y-41227380D01*
X76335714Y-42227380D01*
X76335714Y-41227380D01*
X76811904Y-42227380D02*
X76811904Y-41227380D01*
X77050000Y-41227380D01*
X77192857Y-41275000D01*
X77288095Y-41370238D01*
X77335714Y-41465476D01*
X77383333Y-41655952D01*
X77383333Y-41798809D01*
X77335714Y-41989285D01*
X77288095Y-42084523D01*
X77192857Y-42179761D01*
X77050000Y-42227380D01*
X76811904Y-42227380D01*
X74857142Y-125403571D02*
X75000000Y-125451190D01*
X75047619Y-125498809D01*
X75095238Y-125594047D01*
X75095238Y-125736904D01*
X75047619Y-125832142D01*
X75000000Y-125879761D01*
X74904761Y-125927380D01*
X74523809Y-125927380D01*
X74523809Y-124927380D01*
X74857142Y-124927380D01*
X74952380Y-124975000D01*
X75000000Y-125022619D01*
X75047619Y-125117857D01*
X75047619Y-125213095D01*
X75000000Y-125308333D01*
X74952380Y-125355952D01*
X74857142Y-125403571D01*
X74523809Y-125403571D01*
X75952380Y-125260714D02*
X75952380Y-125927380D01*
X75523809Y-125260714D02*
X75523809Y-125784523D01*
X75571428Y-125879761D01*
X75666666Y-125927380D01*
X75809523Y-125927380D01*
X75904761Y-125879761D01*
X75952380Y-125832142D01*
X76428571Y-125927380D02*
X76428571Y-125260714D01*
X76428571Y-125451190D02*
X76476190Y-125355952D01*
X76523809Y-125308333D01*
X76619047Y-125260714D01*
X76714285Y-125260714D01*
X77047619Y-125260714D02*
X77047619Y-125927380D01*
X77047619Y-125355952D02*
X77095238Y-125308333D01*
X77190476Y-125260714D01*
X77333333Y-125260714D01*
X77428571Y-125308333D01*
X77476190Y-125403571D01*
X77476190Y-125927380D01*
X78404761Y-69704761D02*
X78452380Y-69561904D01*
X78452380Y-69323809D01*
X78404761Y-69228571D01*
X78357142Y-69180952D01*
X78261904Y-69133333D01*
X78166666Y-69133333D01*
X78071428Y-69180952D01*
X78023809Y-69228571D01*
X77976190Y-69323809D01*
X77928571Y-69514285D01*
X77880952Y-69609523D01*
X77833333Y-69657142D01*
X77738095Y-69704761D01*
X77642857Y-69704761D01*
X77547619Y-69657142D01*
X77500000Y-69609523D01*
X77452380Y-69514285D01*
X77452380Y-69276190D01*
X77500000Y-69133333D01*
X78357142Y-68133333D02*
X78404761Y-68180952D01*
X78452380Y-68323809D01*
X78452380Y-68419047D01*
X78404761Y-68561904D01*
X78309523Y-68657142D01*
X78214285Y-68704761D01*
X78023809Y-68752380D01*
X77880952Y-68752380D01*
X77690476Y-68704761D01*
X77595238Y-68657142D01*
X77500000Y-68561904D01*
X77452380Y-68419047D01*
X77452380Y-68323809D01*
X77500000Y-68180952D01*
X77547619Y-68133333D01*
X78071428Y-67704761D02*
X78071428Y-66942857D01*
X86204761Y-69704761D02*
X86252380Y-69561904D01*
X86252380Y-69323809D01*
X86204761Y-69228571D01*
X86157142Y-69180952D01*
X86061904Y-69133333D01*
X85966666Y-69133333D01*
X85871428Y-69180952D01*
X85823809Y-69228571D01*
X85776190Y-69323809D01*
X85728571Y-69514285D01*
X85680952Y-69609523D01*
X85633333Y-69657142D01*
X85538095Y-69704761D01*
X85442857Y-69704761D01*
X85347619Y-69657142D01*
X85300000Y-69609523D01*
X85252380Y-69514285D01*
X85252380Y-69276190D01*
X85300000Y-69133333D01*
X86157142Y-68133333D02*
X86204761Y-68180952D01*
X86252380Y-68323809D01*
X86252380Y-68419047D01*
X86204761Y-68561904D01*
X86109523Y-68657142D01*
X86014285Y-68704761D01*
X85823809Y-68752380D01*
X85680952Y-68752380D01*
X85490476Y-68704761D01*
X85395238Y-68657142D01*
X85300000Y-68561904D01*
X85252380Y-68419047D01*
X85252380Y-68323809D01*
X85300000Y-68180952D01*
X85347619Y-68133333D01*
X85871428Y-67704761D02*
X85871428Y-66942857D01*
X146857142Y-55428571D02*
X147000000Y-55476190D01*
X147047619Y-55523809D01*
X147095238Y-55619047D01*
X147095238Y-55761904D01*
X147047619Y-55857142D01*
X147000000Y-55904761D01*
X146904761Y-55952380D01*
X146523809Y-55952380D01*
X146523809Y-54952380D01*
X146857142Y-54952380D01*
X146952380Y-55000000D01*
X147000000Y-55047619D01*
X147047619Y-55142857D01*
X147047619Y-55238095D01*
X147000000Y-55333333D01*
X146952380Y-55380952D01*
X146857142Y-55428571D01*
X146523809Y-55428571D01*
X147952380Y-55285714D02*
X147952380Y-55952380D01*
X147523809Y-55285714D02*
X147523809Y-55809523D01*
X147571428Y-55904761D01*
X147666666Y-55952380D01*
X147809523Y-55952380D01*
X147904761Y-55904761D01*
X147952380Y-55857142D01*
X148428571Y-55952380D02*
X148428571Y-55285714D01*
X148428571Y-55476190D02*
X148476190Y-55380952D01*
X148523809Y-55333333D01*
X148619047Y-55285714D01*
X148714285Y-55285714D01*
X149047619Y-55285714D02*
X149047619Y-55952380D01*
X149047619Y-55380952D02*
X149095238Y-55333333D01*
X149190476Y-55285714D01*
X149333333Y-55285714D01*
X149428571Y-55333333D01*
X149476190Y-55428571D01*
X149476190Y-55952380D01*
X147213095Y-138825000D02*
X147117857Y-138777380D01*
X146975000Y-138777380D01*
X146832142Y-138825000D01*
X146736904Y-138920238D01*
X146689285Y-139015476D01*
X146641666Y-139205952D01*
X146641666Y-139348809D01*
X146689285Y-139539285D01*
X146736904Y-139634523D01*
X146832142Y-139729761D01*
X146975000Y-139777380D01*
X147070238Y-139777380D01*
X147213095Y-139729761D01*
X147260714Y-139682142D01*
X147260714Y-139348809D01*
X147070238Y-139348809D01*
X147689285Y-139777380D02*
X147689285Y-138777380D01*
X148260714Y-139777380D01*
X148260714Y-138777380D01*
X148736904Y-139777380D02*
X148736904Y-138777380D01*
X148975000Y-138777380D01*
X149117857Y-138825000D01*
X149213095Y-138920238D01*
X149260714Y-139015476D01*
X149308333Y-139205952D01*
X149308333Y-139348809D01*
X149260714Y-139539285D01*
X149213095Y-139634523D01*
X149117857Y-139729761D01*
X148975000Y-139777380D01*
X148736904Y-139777380D01*
D13*
X149200000Y-129200000D02*
X146800000Y-129200000D01*
X146800000Y-129200000D02*
X146800000Y-126800000D01*
X149200000Y-126800000D02*
X149200000Y-129200000D01*
X146800000Y-126800000D02*
X149200000Y-126800000D01*
X76500000Y-73200000D02*
G75*
G03*
X76500000Y-73200000I-1500000J0D01*
G01*
X74800000Y-134800000D02*
X77200000Y-134800000D01*
X77200000Y-134800000D02*
X77200000Y-137200000D01*
X77200000Y-137200000D02*
X74800000Y-137200000D01*
X74800000Y-137200000D02*
X74800000Y-134800000D01*
X84350000Y-112700000D02*
G75*
G03*
X84350000Y-112700000I-1750000J0D01*
G01*
X149200000Y-46200000D02*
X146800000Y-46200000D01*
X146800000Y-43800000D02*
X149200000Y-43800000D01*
X146800000Y-46200000D02*
X146800000Y-43800000D01*
X149200000Y-43800000D02*
X149200000Y-46200000D01*
X77200000Y-54200000D02*
X74800000Y-54200000D01*
X74800000Y-54200000D02*
X74800000Y-51800000D01*
X77200000Y-51800000D02*
X77200000Y-54200000D01*
X74800000Y-51800000D02*
X77200000Y-51800000D01*
X74800000Y-46200000D02*
X74800000Y-43800000D01*
X74800000Y-43800000D02*
X77200000Y-43800000D01*
X77200000Y-46200000D02*
X74800000Y-46200000D01*
X77200000Y-43800000D02*
X77200000Y-46200000D01*
X77200000Y-129200000D02*
X74800000Y-129200000D01*
X74800000Y-126800000D02*
X77200000Y-126800000D01*
X77200000Y-126800000D02*
X77200000Y-129200000D01*
X74800000Y-129200000D02*
X74800000Y-126800000D01*
X76500000Y-68300000D02*
G75*
G03*
X76500000Y-68300000I-1500000J0D01*
G01*
X84350000Y-68300000D02*
G75*
G03*
X84350000Y-68300000I-1750000J0D01*
G01*
X149200000Y-54200000D02*
X146800000Y-54200000D01*
X149200000Y-51800000D02*
X149200000Y-54200000D01*
X146800000Y-54200000D02*
X146800000Y-51800000D01*
X146800000Y-51800000D02*
X149200000Y-51800000D01*
X146800000Y-134800000D02*
X149200000Y-134800000D01*
X149200000Y-134800000D02*
X149200000Y-137200000D01*
X146800000Y-137200000D02*
X146800000Y-134800000D01*
X149200000Y-137200000D02*
X146800000Y-137200000D01*
%LPC*%
D14*
X148000000Y-128000000D03*
D15*
X75000000Y-73200000D03*
D16*
X98350000Y-138250000D03*
D14*
X76000000Y-136000000D03*
D17*
X82600000Y-112700000D03*
D14*
X148000000Y-45000000D03*
D16*
X125850000Y-138250000D03*
D14*
X76000000Y-53000000D03*
D16*
X125850000Y-42750000D03*
D14*
X76000000Y-45000000D03*
X76000000Y-128000000D03*
D15*
X75000000Y-68300000D03*
D17*
X82600000Y-68300000D03*
D16*
X98350000Y-42750000D03*
D14*
X148000000Y-53000000D03*
X148000000Y-136000000D03*
M02*
