G04 #@! TF.GenerationSoftware,KiCad,Pcbnew,(6.0.5-0)*
G04 #@! TF.CreationDate,2022-12-26T00:23:02-05:00*
G04 #@! TF.ProjectId,solar-cell-pcbs-burn-wire-vertical,736f6c61-722d-4636-956c-6c2d70636273,rev?*
G04 #@! TF.SameCoordinates,Original*
G04 #@! TF.FileFunction,Copper,L1,Top*
G04 #@! TF.FilePolarity,Positive*
%FSLAX46Y46*%
G04 Gerber Fmt 4.6, Leading zero omitted, Abs format (unit mm)*
G04 Created by KiCad (PCBNEW (6.0.5-0)) date 2022-12-26 00:23:02*
%MOMM*%
%LPD*%
G01*
G04 APERTURE LIST*
G04 #@! TA.AperFunction,ComponentPad*
%ADD10R,2.000000X2.000000*%
G04 #@! TD*
G04 #@! TA.AperFunction,ComponentPad*
%ADD11C,2.000000*%
G04 #@! TD*
G04 #@! TA.AperFunction,ComponentPad*
%ADD12C,5.600000*%
G04 #@! TD*
G04 #@! TA.AperFunction,ComponentPad*
%ADD13C,3.000000*%
G04 #@! TD*
G04 #@! TA.AperFunction,ViaPad*
%ADD14C,0.800000*%
G04 #@! TD*
G04 #@! TA.AperFunction,Conductor*
%ADD15C,1.270000*%
G04 #@! TD*
G04 APERTURE END LIST*
D10*
X148000000Y-128000000D03*
D11*
X75000000Y-73200000D03*
D12*
X98350000Y-138250000D03*
D10*
X76000000Y-136000000D03*
D13*
X82600000Y-112700000D03*
D10*
X148000000Y-45000000D03*
D12*
X125850000Y-138250000D03*
D10*
X76000000Y-53000000D03*
D12*
X125850000Y-42750000D03*
D10*
X76000000Y-45000000D03*
X76000000Y-128000000D03*
D11*
X75000000Y-68300000D03*
D13*
X82600000Y-68300000D03*
D12*
X98350000Y-42750000D03*
D10*
X148000000Y-53000000D03*
X148000000Y-136000000D03*
D14*
X78650000Y-140100000D03*
X78425000Y-47300000D03*
X147875000Y-140275000D03*
X145525000Y-47200000D03*
X73725000Y-140100000D03*
X145550000Y-42600000D03*
X147875000Y-138275000D03*
X145475000Y-133675000D03*
X73525000Y-42700000D03*
X150400000Y-135875000D03*
X76000000Y-42700000D03*
X73500000Y-47300000D03*
X73675000Y-138100000D03*
X94100000Y-110375000D03*
X76125000Y-138100000D03*
X78650000Y-138100000D03*
X107000000Y-110350000D03*
X78450000Y-40700000D03*
X145550000Y-40600000D03*
X73750000Y-133500000D03*
X150375000Y-140275000D03*
X107025000Y-112000000D03*
X78675000Y-133500000D03*
X78500000Y-45100000D03*
X94050000Y-113450000D03*
X107025000Y-113550000D03*
X73525000Y-40700000D03*
X150475000Y-40600000D03*
X150400000Y-133675000D03*
X150375000Y-138275000D03*
X76025000Y-40700000D03*
X147900000Y-133675000D03*
X94100000Y-111775000D03*
X150525000Y-45000000D03*
X78500000Y-42700000D03*
X76025000Y-47300000D03*
X145525000Y-45000000D03*
X150525000Y-42600000D03*
X145450000Y-140275000D03*
X145400000Y-138275000D03*
X76150000Y-140100000D03*
X78675000Y-135700000D03*
X73675000Y-135700000D03*
X148050000Y-40600000D03*
X145400000Y-135875000D03*
X73500000Y-45100000D03*
X148050000Y-42600000D03*
X150450000Y-47200000D03*
X92375000Y-113475000D03*
X76175000Y-133500000D03*
X147975000Y-47225000D03*
X105275000Y-113575000D03*
D15*
X75000000Y-105100000D02*
X82600000Y-112700000D01*
X75000000Y-73200000D02*
X75000000Y-105100000D01*
X76000000Y-128000000D02*
X148000000Y-128000000D01*
X148000000Y-128000000D02*
X148000000Y-53000000D01*
X148000000Y-53000000D02*
X76000000Y-53000000D01*
M02*
