G04 #@! TF.GenerationSoftware,KiCad,Pcbnew,(6.0.5-0)*
G04 #@! TF.CreationDate,2022-12-26T00:23:02-05:00*
G04 #@! TF.ProjectId,solar-cell-pcbs-burn-wire-vertical,736f6c61-722d-4636-956c-6c2d70636273,rev?*
G04 #@! TF.SameCoordinates,Original*
G04 #@! TF.FileFunction,Copper,L2,Bot*
G04 #@! TF.FilePolarity,Positive*
%FSLAX46Y46*%
G04 Gerber Fmt 4.6, Leading zero omitted, Abs format (unit mm)*
G04 Created by KiCad (PCBNEW (6.0.5-0)) date 2022-12-26 00:23:02*
%MOMM*%
%LPD*%
G01*
G04 APERTURE LIST*
G04 #@! TA.AperFunction,ComponentPad*
%ADD10R,2.000000X2.000000*%
G04 #@! TD*
G04 #@! TA.AperFunction,ComponentPad*
%ADD11C,2.000000*%
G04 #@! TD*
G04 #@! TA.AperFunction,ComponentPad*
%ADD12C,5.600000*%
G04 #@! TD*
G04 #@! TA.AperFunction,ComponentPad*
%ADD13C,3.000000*%
G04 #@! TD*
G04 #@! TA.AperFunction,SMDPad,CuDef*
%ADD14R,1.100000X1.450000*%
G04 #@! TD*
G04 #@! TA.AperFunction,SMDPad,CuDef*
%ADD15R,1.350000X2.899999*%
G04 #@! TD*
G04 #@! TA.AperFunction,ViaPad*
%ADD16C,0.800000*%
G04 #@! TD*
G04 #@! TA.AperFunction,Conductor*
%ADD17C,1.270000*%
G04 #@! TD*
G04 APERTURE END LIST*
D10*
X148000000Y-128000000D03*
D11*
X75000000Y-73200000D03*
D12*
X98350000Y-138250000D03*
D10*
X76000000Y-136000000D03*
D13*
X82600000Y-112700000D03*
D10*
X148000000Y-45000000D03*
D12*
X125850000Y-138250000D03*
D10*
X76000000Y-53000000D03*
D12*
X125850000Y-42750000D03*
D10*
X76000000Y-45000000D03*
X76000000Y-128000000D03*
D11*
X75000000Y-68300000D03*
D13*
X82600000Y-68300000D03*
D12*
X98350000Y-42750000D03*
D10*
X148000000Y-53000000D03*
X148000000Y-136000000D03*
D14*
X92253500Y-111425001D03*
X90253499Y-111425001D03*
D15*
X95148498Y-117400000D03*
X87358503Y-117400000D03*
D14*
X105000000Y-111425001D03*
X102999999Y-111425001D03*
D15*
X107894998Y-117400000D03*
X100105003Y-117400000D03*
D16*
X78650000Y-140100000D03*
X78425000Y-47300000D03*
X147875000Y-140275000D03*
X145525000Y-47200000D03*
X73725000Y-140100000D03*
X145550000Y-42600000D03*
X147875000Y-138275000D03*
X145475000Y-133675000D03*
X73525000Y-42700000D03*
X150400000Y-135875000D03*
X76000000Y-42700000D03*
X73500000Y-47300000D03*
X73675000Y-138100000D03*
X94100000Y-110375000D03*
X76125000Y-138100000D03*
X78650000Y-138100000D03*
X107000000Y-110350000D03*
X78450000Y-40700000D03*
X145550000Y-40600000D03*
X73750000Y-133500000D03*
X150375000Y-140275000D03*
X107025000Y-112000000D03*
X78675000Y-133500000D03*
X78500000Y-45100000D03*
X94050000Y-113450000D03*
X107025000Y-113550000D03*
X73525000Y-40700000D03*
X150475000Y-40600000D03*
X150400000Y-133675000D03*
X150375000Y-138275000D03*
X76025000Y-40700000D03*
X147900000Y-133675000D03*
X94100000Y-111775000D03*
X150525000Y-45000000D03*
X78500000Y-42700000D03*
X76025000Y-47300000D03*
X145525000Y-45000000D03*
X150525000Y-42600000D03*
X145450000Y-140275000D03*
X145400000Y-138275000D03*
X76150000Y-140100000D03*
X78675000Y-135700000D03*
X73675000Y-135700000D03*
X148050000Y-40600000D03*
X145400000Y-135875000D03*
X73500000Y-45100000D03*
X148050000Y-42600000D03*
X150450000Y-47200000D03*
X92375000Y-113475000D03*
X76175000Y-133500000D03*
X147975000Y-47225000D03*
X105275000Y-113575000D03*
D17*
X83874999Y-111425001D02*
X82600000Y-112700000D01*
X90253499Y-111425001D02*
X83874999Y-111425001D01*
X102999999Y-122000001D02*
X97000000Y-128000000D01*
X102999999Y-111425001D02*
X102999999Y-122000001D01*
X97000000Y-128000000D02*
X76000000Y-128000000D01*
G04 #@! TA.AperFunction,Conductor*
G36*
X80083621Y-39278502D02*
G01*
X80130114Y-39332158D01*
X80141500Y-39384500D01*
X80141500Y-45050633D01*
X80140000Y-45070018D01*
X80137690Y-45084851D01*
X80137690Y-45084855D01*
X80136309Y-45093724D01*
X80137474Y-45102631D01*
X80137470Y-45102927D01*
X80138185Y-45110417D01*
X80139780Y-45136780D01*
X80146972Y-45255671D01*
X80153322Y-45360654D01*
X80200392Y-45617507D01*
X80278079Y-45866814D01*
X80279641Y-45870284D01*
X80279643Y-45870290D01*
X80314689Y-45948158D01*
X80385250Y-46104938D01*
X80387219Y-46108195D01*
X80387221Y-46108199D01*
X80467805Y-46241500D01*
X80520343Y-46328409D01*
X80522684Y-46331397D01*
X80522686Y-46331400D01*
X80656425Y-46502105D01*
X80681387Y-46533966D01*
X80866034Y-46718613D01*
X81071591Y-46879657D01*
X81074845Y-46881624D01*
X81291801Y-47012779D01*
X81291805Y-47012781D01*
X81295062Y-47014750D01*
X81414124Y-47068335D01*
X81529710Y-47120357D01*
X81529716Y-47120359D01*
X81533186Y-47121921D01*
X81782493Y-47199608D01*
X82039346Y-47246678D01*
X82043140Y-47246908D01*
X82043144Y-47246908D01*
X82263220Y-47260221D01*
X82276509Y-47261736D01*
X82282649Y-47262769D01*
X82282652Y-47262769D01*
X82287448Y-47263576D01*
X82293826Y-47263654D01*
X82295140Y-47263670D01*
X82295143Y-47263670D01*
X82300000Y-47263729D01*
X82327624Y-47259773D01*
X82345486Y-47258500D01*
X86946750Y-47258500D01*
X86967655Y-47260246D01*
X86982656Y-47262770D01*
X86982659Y-47262770D01*
X86987448Y-47263576D01*
X86993687Y-47263652D01*
X86995140Y-47263670D01*
X86995143Y-47263670D01*
X87000000Y-47263729D01*
X87004810Y-47263040D01*
X87004812Y-47263040D01*
X87008000Y-47262583D01*
X87010420Y-47262237D01*
X87020668Y-47261195D01*
X87256856Y-47246908D01*
X87256860Y-47246907D01*
X87260654Y-47246678D01*
X87517507Y-47199608D01*
X87766814Y-47121921D01*
X87770284Y-47120359D01*
X87770290Y-47120357D01*
X87885876Y-47068336D01*
X88004938Y-47014750D01*
X88008195Y-47012781D01*
X88008199Y-47012779D01*
X88225155Y-46881624D01*
X88228409Y-46879657D01*
X88433966Y-46718613D01*
X88618613Y-46533966D01*
X88643575Y-46502105D01*
X88777314Y-46331400D01*
X88777316Y-46331397D01*
X88779657Y-46328409D01*
X88832195Y-46241500D01*
X88912779Y-46108199D01*
X88912781Y-46108195D01*
X88914750Y-46104938D01*
X88985311Y-45948158D01*
X89020357Y-45870290D01*
X89020359Y-45870284D01*
X89021921Y-45866814D01*
X89099608Y-45617507D01*
X89146678Y-45360654D01*
X89150455Y-45298219D01*
X89160221Y-45136780D01*
X89161736Y-45123491D01*
X89162769Y-45117351D01*
X89162769Y-45117348D01*
X89163576Y-45112552D01*
X89163729Y-45100000D01*
X89159773Y-45072376D01*
X89158500Y-45054514D01*
X89158500Y-39384500D01*
X89178502Y-39316379D01*
X89232158Y-39269886D01*
X89284500Y-39258500D01*
X97663413Y-39258500D01*
X97731534Y-39278502D01*
X97778027Y-39332158D01*
X97788131Y-39402432D01*
X97758637Y-39467012D01*
X97698911Y-39505396D01*
X97690257Y-39507608D01*
X97470117Y-39555606D01*
X97130271Y-39669317D01*
X97127178Y-39670739D01*
X97127177Y-39670740D01*
X97120974Y-39673593D01*
X96804694Y-39819066D01*
X96497193Y-40003101D01*
X96494467Y-40005163D01*
X96494465Y-40005164D01*
X96488620Y-40009585D01*
X96211367Y-40219270D01*
X95950559Y-40465043D01*
X95717819Y-40737546D01*
X95715900Y-40740358D01*
X95715897Y-40740363D01*
X95622624Y-40877097D01*
X95515871Y-41033591D01*
X95347077Y-41349714D01*
X95213411Y-41682218D01*
X95212491Y-41685492D01*
X95212489Y-41685497D01*
X95210332Y-41693173D01*
X95116437Y-42027213D01*
X95057290Y-42380663D01*
X95036661Y-42738434D01*
X95054792Y-43096340D01*
X95055329Y-43099695D01*
X95055330Y-43099701D01*
X95060316Y-43130828D01*
X95111470Y-43450195D01*
X95206033Y-43795859D01*
X95337374Y-44129288D01*
X95503957Y-44446582D01*
X95505858Y-44449411D01*
X95505864Y-44449421D01*
X95689569Y-44722800D01*
X95703834Y-44744029D01*
X95934665Y-45018150D01*
X96193751Y-45265738D01*
X96478061Y-45483897D01*
X96510056Y-45503350D01*
X96781355Y-45668303D01*
X96781360Y-45668306D01*
X96784270Y-45670075D01*
X96787358Y-45671521D01*
X96787357Y-45671521D01*
X97105710Y-45820649D01*
X97105720Y-45820653D01*
X97108794Y-45822093D01*
X97112012Y-45823195D01*
X97112015Y-45823196D01*
X97444615Y-45937071D01*
X97444623Y-45937073D01*
X97447838Y-45938174D01*
X97797435Y-46016959D01*
X97849728Y-46022917D01*
X98150114Y-46057142D01*
X98150122Y-46057142D01*
X98153497Y-46057527D01*
X98156901Y-46057545D01*
X98156904Y-46057545D01*
X98351227Y-46058562D01*
X98511857Y-46059403D01*
X98515243Y-46059053D01*
X98515245Y-46059053D01*
X98864932Y-46022917D01*
X98864941Y-46022916D01*
X98868324Y-46022566D01*
X98871657Y-46021852D01*
X98871660Y-46021851D01*
X99092811Y-45974440D01*
X99218727Y-45947446D01*
X99558968Y-45834922D01*
X99885066Y-45686311D01*
X100007252Y-45613762D01*
X100190262Y-45505099D01*
X100190267Y-45505096D01*
X100193207Y-45503350D01*
X100210434Y-45490416D01*
X100466415Y-45298219D01*
X100479786Y-45288180D01*
X100741451Y-45043319D01*
X100975140Y-44771630D01*
X101081750Y-44616512D01*
X101176190Y-44479101D01*
X101176195Y-44479094D01*
X101178120Y-44476292D01*
X101179732Y-44473298D01*
X101179737Y-44473290D01*
X101346395Y-44163772D01*
X101348017Y-44160760D01*
X101482842Y-43828724D01*
X101493142Y-43792568D01*
X101563186Y-43546676D01*
X101581020Y-43484070D01*
X101641401Y-43130828D01*
X101643511Y-43096340D01*
X101663168Y-42774928D01*
X101663278Y-42773131D01*
X101663359Y-42750000D01*
X101643979Y-42392159D01*
X101586066Y-42038505D01*
X101490297Y-41693173D01*
X101487243Y-41685497D01*
X101359052Y-41363369D01*
X101357793Y-41360205D01*
X101327768Y-41303498D01*
X101191702Y-41046513D01*
X101191698Y-41046506D01*
X101190103Y-41043494D01*
X100989190Y-40746746D01*
X100757403Y-40473432D01*
X100497454Y-40226750D01*
X100212384Y-40009585D01*
X100209472Y-40007828D01*
X100209467Y-40007825D01*
X99908443Y-39826236D01*
X99908437Y-39826233D01*
X99905528Y-39824478D01*
X99580475Y-39673593D01*
X99410752Y-39616145D01*
X99244255Y-39559789D01*
X99244250Y-39559788D01*
X99241028Y-39558697D01*
X99015896Y-39508786D01*
X99010154Y-39507513D01*
X98947978Y-39473241D01*
X98914200Y-39410794D01*
X98919546Y-39339999D01*
X98962318Y-39283333D01*
X99028936Y-39258786D01*
X99037426Y-39258500D01*
X125163413Y-39258500D01*
X125231534Y-39278502D01*
X125278027Y-39332158D01*
X125288131Y-39402432D01*
X125258637Y-39467012D01*
X125198911Y-39505396D01*
X125190257Y-39507608D01*
X124970117Y-39555606D01*
X124630271Y-39669317D01*
X124627178Y-39670739D01*
X124627177Y-39670740D01*
X124620974Y-39673593D01*
X124304694Y-39819066D01*
X123997193Y-40003101D01*
X123994467Y-40005163D01*
X123994465Y-40005164D01*
X123988620Y-40009585D01*
X123711367Y-40219270D01*
X123450559Y-40465043D01*
X123217819Y-40737546D01*
X123215900Y-40740358D01*
X123215897Y-40740363D01*
X123122624Y-40877097D01*
X123015871Y-41033591D01*
X122847077Y-41349714D01*
X122713411Y-41682218D01*
X122712491Y-41685492D01*
X122712489Y-41685497D01*
X122710332Y-41693173D01*
X122616437Y-42027213D01*
X122557290Y-42380663D01*
X122536661Y-42738434D01*
X122554792Y-43096340D01*
X122555329Y-43099695D01*
X122555330Y-43099701D01*
X122560316Y-43130828D01*
X122611470Y-43450195D01*
X122706033Y-43795859D01*
X122837374Y-44129288D01*
X123003957Y-44446582D01*
X123005858Y-44449411D01*
X123005864Y-44449421D01*
X123189569Y-44722800D01*
X123203834Y-44744029D01*
X123434665Y-45018150D01*
X123693751Y-45265738D01*
X123978061Y-45483897D01*
X124010056Y-45503350D01*
X124281355Y-45668303D01*
X124281360Y-45668306D01*
X124284270Y-45670075D01*
X124287358Y-45671521D01*
X124287357Y-45671521D01*
X124605710Y-45820649D01*
X124605720Y-45820653D01*
X124608794Y-45822093D01*
X124612012Y-45823195D01*
X124612015Y-45823196D01*
X124944615Y-45937071D01*
X124944623Y-45937073D01*
X124947838Y-45938174D01*
X125297435Y-46016959D01*
X125349728Y-46022917D01*
X125650114Y-46057142D01*
X125650122Y-46057142D01*
X125653497Y-46057527D01*
X125656901Y-46057545D01*
X125656904Y-46057545D01*
X125851227Y-46058562D01*
X126011857Y-46059403D01*
X126015243Y-46059053D01*
X126015245Y-46059053D01*
X126364932Y-46022917D01*
X126364941Y-46022916D01*
X126368324Y-46022566D01*
X126371657Y-46021852D01*
X126371660Y-46021851D01*
X126592811Y-45974440D01*
X126718727Y-45947446D01*
X127058968Y-45834922D01*
X127385066Y-45686311D01*
X127507252Y-45613762D01*
X127690262Y-45505099D01*
X127690267Y-45505096D01*
X127693207Y-45503350D01*
X127710434Y-45490416D01*
X127966415Y-45298219D01*
X127979786Y-45288180D01*
X128241451Y-45043319D01*
X128475140Y-44771630D01*
X128581750Y-44616512D01*
X128676190Y-44479101D01*
X128676195Y-44479094D01*
X128678120Y-44476292D01*
X128679732Y-44473298D01*
X128679737Y-44473290D01*
X128846395Y-44163772D01*
X128848017Y-44160760D01*
X128982842Y-43828724D01*
X128993142Y-43792568D01*
X129063186Y-43546676D01*
X129081020Y-43484070D01*
X129141401Y-43130828D01*
X129143511Y-43096340D01*
X129163168Y-42774928D01*
X129163278Y-42773131D01*
X129163359Y-42750000D01*
X129143979Y-42392159D01*
X129086066Y-42038505D01*
X128990297Y-41693173D01*
X128987243Y-41685497D01*
X128859052Y-41363369D01*
X128857793Y-41360205D01*
X128827768Y-41303498D01*
X128691702Y-41046513D01*
X128691698Y-41046506D01*
X128690103Y-41043494D01*
X128489190Y-40746746D01*
X128257403Y-40473432D01*
X127997454Y-40226750D01*
X127712384Y-40009585D01*
X127709472Y-40007828D01*
X127709467Y-40007825D01*
X127408443Y-39826236D01*
X127408437Y-39826233D01*
X127405528Y-39824478D01*
X127080475Y-39673593D01*
X126910752Y-39616145D01*
X126744255Y-39559789D01*
X126744250Y-39559788D01*
X126741028Y-39558697D01*
X126515896Y-39508786D01*
X126510154Y-39507513D01*
X126447978Y-39473241D01*
X126414200Y-39410794D01*
X126419546Y-39339999D01*
X126462318Y-39283333D01*
X126528936Y-39258786D01*
X126537426Y-39258500D01*
X134965500Y-39258500D01*
X135033621Y-39278502D01*
X135080114Y-39332158D01*
X135091500Y-39384500D01*
X135091500Y-45050633D01*
X135090000Y-45070018D01*
X135087690Y-45084851D01*
X135087690Y-45084855D01*
X135086309Y-45093724D01*
X135087474Y-45102631D01*
X135087470Y-45102927D01*
X135088185Y-45110417D01*
X135089780Y-45136780D01*
X135096972Y-45255671D01*
X135103322Y-45360654D01*
X135150392Y-45617507D01*
X135228079Y-45866814D01*
X135229641Y-45870284D01*
X135229643Y-45870290D01*
X135264689Y-45948158D01*
X135335250Y-46104938D01*
X135337219Y-46108195D01*
X135337221Y-46108199D01*
X135417805Y-46241500D01*
X135470343Y-46328409D01*
X135472684Y-46331397D01*
X135472686Y-46331400D01*
X135606425Y-46502105D01*
X135631387Y-46533966D01*
X135816034Y-46718613D01*
X136021591Y-46879657D01*
X136024845Y-46881624D01*
X136241801Y-47012779D01*
X136241805Y-47012781D01*
X136245062Y-47014750D01*
X136364124Y-47068335D01*
X136479710Y-47120357D01*
X136479716Y-47120359D01*
X136483186Y-47121921D01*
X136732493Y-47199608D01*
X136989346Y-47246678D01*
X136993140Y-47246908D01*
X136993144Y-47246908D01*
X137213220Y-47260221D01*
X137226509Y-47261736D01*
X137232649Y-47262769D01*
X137232652Y-47262769D01*
X137237448Y-47263576D01*
X137243826Y-47263654D01*
X137245140Y-47263670D01*
X137245143Y-47263670D01*
X137250000Y-47263729D01*
X137277624Y-47259773D01*
X137295486Y-47258500D01*
X141896750Y-47258500D01*
X141917655Y-47260246D01*
X141932656Y-47262770D01*
X141932659Y-47262770D01*
X141937448Y-47263576D01*
X141943687Y-47263652D01*
X141945140Y-47263670D01*
X141945143Y-47263670D01*
X141950000Y-47263729D01*
X141954810Y-47263040D01*
X141954812Y-47263040D01*
X141958000Y-47262583D01*
X141960420Y-47262237D01*
X141970668Y-47261195D01*
X142206856Y-47246908D01*
X142206860Y-47246907D01*
X142210654Y-47246678D01*
X142467507Y-47199608D01*
X142716814Y-47121921D01*
X142720284Y-47120359D01*
X142720290Y-47120357D01*
X142835876Y-47068336D01*
X142954938Y-47014750D01*
X142958195Y-47012781D01*
X142958199Y-47012779D01*
X143175155Y-46881624D01*
X143178409Y-46879657D01*
X143383966Y-46718613D01*
X143568613Y-46533966D01*
X143593575Y-46502105D01*
X143727314Y-46331400D01*
X143727316Y-46331397D01*
X143729657Y-46328409D01*
X143782195Y-46241500D01*
X143862779Y-46108199D01*
X143862781Y-46108195D01*
X143864750Y-46104938D01*
X143891875Y-46044669D01*
X146492001Y-46044669D01*
X146492371Y-46051490D01*
X146497895Y-46102352D01*
X146501521Y-46117604D01*
X146546676Y-46238054D01*
X146555214Y-46253649D01*
X146631715Y-46355724D01*
X146644276Y-46368285D01*
X146746351Y-46444786D01*
X146761946Y-46453324D01*
X146882394Y-46498478D01*
X146897649Y-46502105D01*
X146948514Y-46507631D01*
X146955328Y-46508000D01*
X147727885Y-46508000D01*
X147743124Y-46503525D01*
X147744329Y-46502135D01*
X147746000Y-46494452D01*
X147746000Y-46489884D01*
X148254000Y-46489884D01*
X148258475Y-46505123D01*
X148259865Y-46506328D01*
X148267548Y-46507999D01*
X149044669Y-46507999D01*
X149051490Y-46507629D01*
X149102352Y-46502105D01*
X149117604Y-46498479D01*
X149238054Y-46453324D01*
X149253649Y-46444786D01*
X149355724Y-46368285D01*
X149368285Y-46355724D01*
X149444786Y-46253649D01*
X149453324Y-46238054D01*
X149498478Y-46117606D01*
X149502105Y-46102351D01*
X149507631Y-46051486D01*
X149508000Y-46044672D01*
X149508000Y-45272115D01*
X149503525Y-45256876D01*
X149502135Y-45255671D01*
X149494452Y-45254000D01*
X148272115Y-45254000D01*
X148256876Y-45258475D01*
X148255671Y-45259865D01*
X148254000Y-45267548D01*
X148254000Y-46489884D01*
X147746000Y-46489884D01*
X147746000Y-45272115D01*
X147741525Y-45256876D01*
X147740135Y-45255671D01*
X147732452Y-45254000D01*
X146510116Y-45254000D01*
X146494877Y-45258475D01*
X146493672Y-45259865D01*
X146492001Y-45267548D01*
X146492001Y-46044669D01*
X143891875Y-46044669D01*
X143935311Y-45948158D01*
X143970357Y-45870290D01*
X143970359Y-45870284D01*
X143971921Y-45866814D01*
X144049608Y-45617507D01*
X144096678Y-45360654D01*
X144100455Y-45298219D01*
X144110221Y-45136780D01*
X144111736Y-45123491D01*
X144112769Y-45117351D01*
X144112769Y-45117348D01*
X144113576Y-45112552D01*
X144113729Y-45100000D01*
X144109773Y-45072376D01*
X144108500Y-45054514D01*
X144108500Y-44727885D01*
X146492000Y-44727885D01*
X146496475Y-44743124D01*
X146497865Y-44744329D01*
X146505548Y-44746000D01*
X147727885Y-44746000D01*
X147743124Y-44741525D01*
X147744329Y-44740135D01*
X147746000Y-44732452D01*
X147746000Y-44727885D01*
X148254000Y-44727885D01*
X148258475Y-44743124D01*
X148259865Y-44744329D01*
X148267548Y-44746000D01*
X149489884Y-44746000D01*
X149505123Y-44741525D01*
X149506328Y-44740135D01*
X149507999Y-44732452D01*
X149507999Y-43955331D01*
X149507629Y-43948510D01*
X149502105Y-43897648D01*
X149498479Y-43882396D01*
X149453324Y-43761946D01*
X149444786Y-43746351D01*
X149368285Y-43644276D01*
X149355724Y-43631715D01*
X149253649Y-43555214D01*
X149238054Y-43546676D01*
X149117606Y-43501522D01*
X149102351Y-43497895D01*
X149051486Y-43492369D01*
X149044672Y-43492000D01*
X148272115Y-43492000D01*
X148256876Y-43496475D01*
X148255671Y-43497865D01*
X148254000Y-43505548D01*
X148254000Y-44727885D01*
X147746000Y-44727885D01*
X147746000Y-43510116D01*
X147741525Y-43494877D01*
X147740135Y-43493672D01*
X147732452Y-43492001D01*
X146955331Y-43492001D01*
X146948510Y-43492371D01*
X146897648Y-43497895D01*
X146882396Y-43501521D01*
X146761946Y-43546676D01*
X146746351Y-43555214D01*
X146644276Y-43631715D01*
X146631715Y-43644276D01*
X146555214Y-43746351D01*
X146546676Y-43761946D01*
X146501522Y-43882394D01*
X146497895Y-43897649D01*
X146492369Y-43948514D01*
X146492000Y-43955328D01*
X146492000Y-44727885D01*
X144108500Y-44727885D01*
X144108500Y-39384500D01*
X144128502Y-39316379D01*
X144182158Y-39269886D01*
X144234500Y-39258500D01*
X151465500Y-39258500D01*
X151533621Y-39278502D01*
X151580114Y-39332158D01*
X151591500Y-39384500D01*
X151591500Y-141615500D01*
X151571498Y-141683621D01*
X151517842Y-141730114D01*
X151465500Y-141741500D01*
X144234500Y-141741500D01*
X144166379Y-141721498D01*
X144119886Y-141667842D01*
X144108500Y-141615500D01*
X144108500Y-137044669D01*
X146492001Y-137044669D01*
X146492371Y-137051490D01*
X146497895Y-137102352D01*
X146501521Y-137117604D01*
X146546676Y-137238054D01*
X146555214Y-137253649D01*
X146631715Y-137355724D01*
X146644276Y-137368285D01*
X146746351Y-137444786D01*
X146761946Y-137453324D01*
X146882394Y-137498478D01*
X146897649Y-137502105D01*
X146948514Y-137507631D01*
X146955328Y-137508000D01*
X147727885Y-137508000D01*
X147743124Y-137503525D01*
X147744329Y-137502135D01*
X147746000Y-137494452D01*
X147746000Y-137489884D01*
X148254000Y-137489884D01*
X148258475Y-137505123D01*
X148259865Y-137506328D01*
X148267548Y-137507999D01*
X149044669Y-137507999D01*
X149051490Y-137507629D01*
X149102352Y-137502105D01*
X149117604Y-137498479D01*
X149238054Y-137453324D01*
X149253649Y-137444786D01*
X149355724Y-137368285D01*
X149368285Y-137355724D01*
X149444786Y-137253649D01*
X149453324Y-137238054D01*
X149498478Y-137117606D01*
X149502105Y-137102351D01*
X149507631Y-137051486D01*
X149508000Y-137044672D01*
X149508000Y-136272115D01*
X149503525Y-136256876D01*
X149502135Y-136255671D01*
X149494452Y-136254000D01*
X148272115Y-136254000D01*
X148256876Y-136258475D01*
X148255671Y-136259865D01*
X148254000Y-136267548D01*
X148254000Y-137489884D01*
X147746000Y-137489884D01*
X147746000Y-136272115D01*
X147741525Y-136256876D01*
X147740135Y-136255671D01*
X147732452Y-136254000D01*
X146510116Y-136254000D01*
X146494877Y-136258475D01*
X146493672Y-136259865D01*
X146492001Y-136267548D01*
X146492001Y-137044669D01*
X144108500Y-137044669D01*
X144108500Y-135953250D01*
X144110246Y-135932345D01*
X144112770Y-135917344D01*
X144112770Y-135917341D01*
X144113576Y-135912552D01*
X144113729Y-135900000D01*
X144112237Y-135889580D01*
X144111195Y-135879332D01*
X144102034Y-135727885D01*
X146492000Y-135727885D01*
X146496475Y-135743124D01*
X146497865Y-135744329D01*
X146505548Y-135746000D01*
X147727885Y-135746000D01*
X147743124Y-135741525D01*
X147744329Y-135740135D01*
X147746000Y-135732452D01*
X147746000Y-135727885D01*
X148254000Y-135727885D01*
X148258475Y-135743124D01*
X148259865Y-135744329D01*
X148267548Y-135746000D01*
X149489884Y-135746000D01*
X149505123Y-135741525D01*
X149506328Y-135740135D01*
X149507999Y-135732452D01*
X149507999Y-134955331D01*
X149507629Y-134948510D01*
X149502105Y-134897648D01*
X149498479Y-134882396D01*
X149453324Y-134761946D01*
X149444786Y-134746351D01*
X149368285Y-134644276D01*
X149355724Y-134631715D01*
X149253649Y-134555214D01*
X149238054Y-134546676D01*
X149117606Y-134501522D01*
X149102351Y-134497895D01*
X149051486Y-134492369D01*
X149044672Y-134492000D01*
X148272115Y-134492000D01*
X148256876Y-134496475D01*
X148255671Y-134497865D01*
X148254000Y-134505548D01*
X148254000Y-135727885D01*
X147746000Y-135727885D01*
X147746000Y-134510116D01*
X147741525Y-134494877D01*
X147740135Y-134493672D01*
X147732452Y-134492001D01*
X146955331Y-134492001D01*
X146948510Y-134492371D01*
X146897648Y-134497895D01*
X146882396Y-134501521D01*
X146761946Y-134546676D01*
X146746351Y-134555214D01*
X146644276Y-134631715D01*
X146631715Y-134644276D01*
X146555214Y-134746351D01*
X146546676Y-134761946D01*
X146501522Y-134882394D01*
X146497895Y-134897649D01*
X146492369Y-134948514D01*
X146492000Y-134955328D01*
X146492000Y-135727885D01*
X144102034Y-135727885D01*
X144096908Y-135643144D01*
X144096907Y-135643140D01*
X144096678Y-135639346D01*
X144049608Y-135382493D01*
X143971921Y-135133186D01*
X143864750Y-134895062D01*
X143783255Y-134760252D01*
X143731624Y-134674845D01*
X143729657Y-134671591D01*
X143638482Y-134555214D01*
X143570966Y-134469037D01*
X143570963Y-134469034D01*
X143568613Y-134466034D01*
X143383966Y-134281387D01*
X143178409Y-134120343D01*
X143121679Y-134086049D01*
X142958199Y-133987221D01*
X142958195Y-133987219D01*
X142954938Y-133985250D01*
X142835876Y-133931664D01*
X142720290Y-133879643D01*
X142720284Y-133879641D01*
X142716814Y-133878079D01*
X142467507Y-133800392D01*
X142210654Y-133753322D01*
X142206860Y-133753092D01*
X142206856Y-133753092D01*
X141986780Y-133739779D01*
X141973491Y-133738264D01*
X141967351Y-133737231D01*
X141967348Y-133737231D01*
X141962552Y-133736424D01*
X141956174Y-133736346D01*
X141954860Y-133736330D01*
X141954857Y-133736330D01*
X141950000Y-133736271D01*
X141925679Y-133739754D01*
X141922376Y-133740227D01*
X141904514Y-133741500D01*
X137303250Y-133741500D01*
X137282345Y-133739754D01*
X137267344Y-133737230D01*
X137267341Y-133737230D01*
X137262552Y-133736424D01*
X137256313Y-133736348D01*
X137254860Y-133736330D01*
X137254857Y-133736330D01*
X137250000Y-133736271D01*
X137245190Y-133736960D01*
X137245188Y-133736960D01*
X137242000Y-133737417D01*
X137239580Y-133737763D01*
X137229332Y-133738805D01*
X136993144Y-133753092D01*
X136993140Y-133753093D01*
X136989346Y-133753322D01*
X136732493Y-133800392D01*
X136483186Y-133878079D01*
X136479716Y-133879641D01*
X136479710Y-133879643D01*
X136364124Y-133931664D01*
X136245062Y-133985250D01*
X136241805Y-133987219D01*
X136241801Y-133987221D01*
X136078321Y-134086049D01*
X136021591Y-134120343D01*
X135816034Y-134281387D01*
X135631387Y-134466034D01*
X135629037Y-134469034D01*
X135629034Y-134469037D01*
X135561519Y-134555214D01*
X135470343Y-134671591D01*
X135468376Y-134674845D01*
X135416746Y-134760252D01*
X135335250Y-134895062D01*
X135228079Y-135133186D01*
X135150392Y-135382493D01*
X135103322Y-135639346D01*
X135103093Y-135643140D01*
X135103092Y-135643144D01*
X135089325Y-135870735D01*
X135088056Y-135882505D01*
X135086309Y-135893724D01*
X135087473Y-135902626D01*
X135087473Y-135902628D01*
X135090436Y-135925283D01*
X135091500Y-135941621D01*
X135091500Y-141615500D01*
X135071498Y-141683621D01*
X135017842Y-141730114D01*
X134965500Y-141741500D01*
X126535919Y-141741500D01*
X126467798Y-141721498D01*
X126421305Y-141667842D01*
X126411201Y-141597568D01*
X126440695Y-141532988D01*
X126500421Y-141494604D01*
X126509507Y-141492299D01*
X126558678Y-141481758D01*
X126718727Y-141447446D01*
X127058968Y-141334922D01*
X127385066Y-141186311D01*
X127479052Y-141130506D01*
X127690262Y-141005099D01*
X127690267Y-141005096D01*
X127693207Y-141003350D01*
X127979786Y-140788180D01*
X128241451Y-140543319D01*
X128475140Y-140271630D01*
X128581750Y-140116512D01*
X128676190Y-139979101D01*
X128676195Y-139979094D01*
X128678120Y-139976292D01*
X128679732Y-139973298D01*
X128679737Y-139973290D01*
X128846395Y-139663772D01*
X128848017Y-139660760D01*
X128982842Y-139328724D01*
X128993142Y-139292568D01*
X129013527Y-139221006D01*
X129081020Y-138984070D01*
X129141401Y-138630828D01*
X129143511Y-138596340D01*
X129163168Y-138274928D01*
X129163278Y-138273131D01*
X129163359Y-138250000D01*
X129143979Y-137892159D01*
X129086066Y-137538505D01*
X128990297Y-137193173D01*
X128987243Y-137185497D01*
X128859052Y-136863369D01*
X128857793Y-136860205D01*
X128827768Y-136803498D01*
X128691702Y-136546513D01*
X128691698Y-136546506D01*
X128690103Y-136543494D01*
X128489190Y-136246746D01*
X128257403Y-135973432D01*
X127997454Y-135726750D01*
X127712384Y-135509585D01*
X127709472Y-135507828D01*
X127709467Y-135507825D01*
X127408443Y-135326236D01*
X127408437Y-135326233D01*
X127405528Y-135324478D01*
X127080475Y-135173593D01*
X126910752Y-135116145D01*
X126744255Y-135059789D01*
X126744250Y-135059788D01*
X126741028Y-135058697D01*
X126542681Y-135014724D01*
X126394493Y-134981871D01*
X126394487Y-134981870D01*
X126391158Y-134981132D01*
X126387769Y-134980758D01*
X126387764Y-134980757D01*
X126038338Y-134942180D01*
X126038333Y-134942180D01*
X126034957Y-134941807D01*
X126031558Y-134941801D01*
X126031557Y-134941801D01*
X125862080Y-134941505D01*
X125676592Y-134941182D01*
X125563413Y-134953277D01*
X125323639Y-134978901D01*
X125323631Y-134978902D01*
X125320256Y-134979263D01*
X124970117Y-135055606D01*
X124630271Y-135169317D01*
X124627178Y-135170739D01*
X124627177Y-135170740D01*
X124620974Y-135173593D01*
X124304694Y-135319066D01*
X124301760Y-135320822D01*
X124301758Y-135320823D01*
X124287678Y-135329250D01*
X123997193Y-135503101D01*
X123994467Y-135505163D01*
X123994465Y-135505164D01*
X123734492Y-135701781D01*
X123711367Y-135719270D01*
X123708882Y-135721612D01*
X123708877Y-135721616D01*
X123611626Y-135813261D01*
X123450559Y-135965043D01*
X123217819Y-136237546D01*
X123215900Y-136240358D01*
X123215897Y-136240363D01*
X123122624Y-136377097D01*
X123015871Y-136533591D01*
X122847077Y-136849714D01*
X122713411Y-137182218D01*
X122712491Y-137185492D01*
X122712489Y-137185497D01*
X122621838Y-137508000D01*
X122616437Y-137527213D01*
X122557290Y-137880663D01*
X122536661Y-138238434D01*
X122554792Y-138596340D01*
X122555329Y-138599695D01*
X122555330Y-138599701D01*
X122560316Y-138630828D01*
X122611470Y-138950195D01*
X122706033Y-139295859D01*
X122837374Y-139629288D01*
X123003957Y-139946582D01*
X123005858Y-139949411D01*
X123005864Y-139949421D01*
X123189569Y-140222800D01*
X123203834Y-140244029D01*
X123434665Y-140518150D01*
X123693751Y-140765738D01*
X123978061Y-140983897D01*
X124010056Y-141003350D01*
X124281355Y-141168303D01*
X124281360Y-141168306D01*
X124284270Y-141170075D01*
X124287358Y-141171521D01*
X124287357Y-141171521D01*
X124605710Y-141320649D01*
X124605720Y-141320653D01*
X124608794Y-141322093D01*
X124612012Y-141323195D01*
X124612015Y-141323196D01*
X124944615Y-141437071D01*
X124944623Y-141437073D01*
X124947838Y-141438174D01*
X124951166Y-141438924D01*
X125189270Y-141492583D01*
X125251326Y-141527071D01*
X125284886Y-141589636D01*
X125279293Y-141660412D01*
X125236324Y-141716928D01*
X125169620Y-141741243D01*
X125161569Y-141741500D01*
X99035919Y-141741500D01*
X98967798Y-141721498D01*
X98921305Y-141667842D01*
X98911201Y-141597568D01*
X98940695Y-141532988D01*
X99000421Y-141494604D01*
X99009507Y-141492299D01*
X99058678Y-141481758D01*
X99218727Y-141447446D01*
X99558968Y-141334922D01*
X99885066Y-141186311D01*
X99979052Y-141130506D01*
X100190262Y-141005099D01*
X100190267Y-141005096D01*
X100193207Y-141003350D01*
X100479786Y-140788180D01*
X100741451Y-140543319D01*
X100975140Y-140271630D01*
X101081750Y-140116512D01*
X101176190Y-139979101D01*
X101176195Y-139979094D01*
X101178120Y-139976292D01*
X101179732Y-139973298D01*
X101179737Y-139973290D01*
X101346395Y-139663772D01*
X101348017Y-139660760D01*
X101482842Y-139328724D01*
X101493142Y-139292568D01*
X101513527Y-139221006D01*
X101581020Y-138984070D01*
X101641401Y-138630828D01*
X101643511Y-138596340D01*
X101663168Y-138274928D01*
X101663278Y-138273131D01*
X101663359Y-138250000D01*
X101643979Y-137892159D01*
X101586066Y-137538505D01*
X101490297Y-137193173D01*
X101487243Y-137185497D01*
X101359052Y-136863369D01*
X101357793Y-136860205D01*
X101327768Y-136803498D01*
X101191702Y-136546513D01*
X101191698Y-136546506D01*
X101190103Y-136543494D01*
X100989190Y-136246746D01*
X100757403Y-135973432D01*
X100497454Y-135726750D01*
X100212384Y-135509585D01*
X100209472Y-135507828D01*
X100209467Y-135507825D01*
X99908443Y-135326236D01*
X99908437Y-135326233D01*
X99905528Y-135324478D01*
X99580475Y-135173593D01*
X99410752Y-135116145D01*
X99244255Y-135059789D01*
X99244250Y-135059788D01*
X99241028Y-135058697D01*
X99042681Y-135014724D01*
X98894493Y-134981871D01*
X98894487Y-134981870D01*
X98891158Y-134981132D01*
X98887769Y-134980758D01*
X98887764Y-134980757D01*
X98538338Y-134942180D01*
X98538333Y-134942180D01*
X98534957Y-134941807D01*
X98531558Y-134941801D01*
X98531557Y-134941801D01*
X98362080Y-134941505D01*
X98176592Y-134941182D01*
X98063413Y-134953277D01*
X97823639Y-134978901D01*
X97823631Y-134978902D01*
X97820256Y-134979263D01*
X97470117Y-135055606D01*
X97130271Y-135169317D01*
X97127178Y-135170739D01*
X97127177Y-135170740D01*
X97120974Y-135173593D01*
X96804694Y-135319066D01*
X96801760Y-135320822D01*
X96801758Y-135320823D01*
X96787678Y-135329250D01*
X96497193Y-135503101D01*
X96494467Y-135505163D01*
X96494465Y-135505164D01*
X96234492Y-135701781D01*
X96211367Y-135719270D01*
X96208882Y-135721612D01*
X96208877Y-135721616D01*
X96111626Y-135813261D01*
X95950559Y-135965043D01*
X95717819Y-136237546D01*
X95715900Y-136240358D01*
X95715897Y-136240363D01*
X95622624Y-136377097D01*
X95515871Y-136533591D01*
X95347077Y-136849714D01*
X95213411Y-137182218D01*
X95212491Y-137185492D01*
X95212489Y-137185497D01*
X95121838Y-137508000D01*
X95116437Y-137527213D01*
X95057290Y-137880663D01*
X95036661Y-138238434D01*
X95054792Y-138596340D01*
X95055329Y-138599695D01*
X95055330Y-138599701D01*
X95060316Y-138630828D01*
X95111470Y-138950195D01*
X95206033Y-139295859D01*
X95337374Y-139629288D01*
X95503957Y-139946582D01*
X95505858Y-139949411D01*
X95505864Y-139949421D01*
X95689569Y-140222800D01*
X95703834Y-140244029D01*
X95934665Y-140518150D01*
X96193751Y-140765738D01*
X96478061Y-140983897D01*
X96510056Y-141003350D01*
X96781355Y-141168303D01*
X96781360Y-141168306D01*
X96784270Y-141170075D01*
X96787358Y-141171521D01*
X96787357Y-141171521D01*
X97105710Y-141320649D01*
X97105720Y-141320653D01*
X97108794Y-141322093D01*
X97112012Y-141323195D01*
X97112015Y-141323196D01*
X97444615Y-141437071D01*
X97444623Y-141437073D01*
X97447838Y-141438174D01*
X97451166Y-141438924D01*
X97689270Y-141492583D01*
X97751326Y-141527071D01*
X97784886Y-141589636D01*
X97779293Y-141660412D01*
X97736324Y-141716928D01*
X97669620Y-141741243D01*
X97661569Y-141741500D01*
X89234500Y-141741500D01*
X89166379Y-141721498D01*
X89119886Y-141667842D01*
X89108500Y-141615500D01*
X89108500Y-135953250D01*
X89110246Y-135932345D01*
X89112770Y-135917344D01*
X89112770Y-135917341D01*
X89113576Y-135912552D01*
X89113729Y-135900000D01*
X89112237Y-135889580D01*
X89111195Y-135879332D01*
X89096908Y-135643144D01*
X89096907Y-135643140D01*
X89096678Y-135639346D01*
X89049608Y-135382493D01*
X88971921Y-135133186D01*
X88864750Y-134895062D01*
X88783255Y-134760252D01*
X88731624Y-134674845D01*
X88729657Y-134671591D01*
X88638482Y-134555214D01*
X88570966Y-134469037D01*
X88570963Y-134469034D01*
X88568613Y-134466034D01*
X88383966Y-134281387D01*
X88178409Y-134120343D01*
X88121679Y-134086049D01*
X87958199Y-133987221D01*
X87958195Y-133987219D01*
X87954938Y-133985250D01*
X87835876Y-133931664D01*
X87720290Y-133879643D01*
X87720284Y-133879641D01*
X87716814Y-133878079D01*
X87467507Y-133800392D01*
X87210654Y-133753322D01*
X87206860Y-133753092D01*
X87206856Y-133753092D01*
X86986780Y-133739779D01*
X86973491Y-133738264D01*
X86967351Y-133737231D01*
X86967348Y-133737231D01*
X86962552Y-133736424D01*
X86956174Y-133736346D01*
X86954860Y-133736330D01*
X86954857Y-133736330D01*
X86950000Y-133736271D01*
X86925679Y-133739754D01*
X86922376Y-133740227D01*
X86904514Y-133741500D01*
X82303250Y-133741500D01*
X82282345Y-133739754D01*
X82267344Y-133737230D01*
X82267341Y-133737230D01*
X82262552Y-133736424D01*
X82256313Y-133736348D01*
X82254860Y-133736330D01*
X82254857Y-133736330D01*
X82250000Y-133736271D01*
X82245190Y-133736960D01*
X82245188Y-133736960D01*
X82242000Y-133737417D01*
X82239580Y-133737763D01*
X82229332Y-133738805D01*
X81993144Y-133753092D01*
X81993140Y-133753093D01*
X81989346Y-133753322D01*
X81732493Y-133800392D01*
X81483186Y-133878079D01*
X81479716Y-133879641D01*
X81479710Y-133879643D01*
X81364124Y-133931664D01*
X81245062Y-133985250D01*
X81241805Y-133987219D01*
X81241801Y-133987221D01*
X81078321Y-134086049D01*
X81021591Y-134120343D01*
X80816034Y-134281387D01*
X80631387Y-134466034D01*
X80629037Y-134469034D01*
X80629034Y-134469037D01*
X80561519Y-134555214D01*
X80470343Y-134671591D01*
X80468376Y-134674845D01*
X80416746Y-134760252D01*
X80335250Y-134895062D01*
X80228079Y-135133186D01*
X80150392Y-135382493D01*
X80103322Y-135639346D01*
X80103093Y-135643140D01*
X80103092Y-135643144D01*
X80089325Y-135870735D01*
X80088056Y-135882505D01*
X80086309Y-135893724D01*
X80087473Y-135902626D01*
X80087473Y-135902628D01*
X80090436Y-135925283D01*
X80091500Y-135941621D01*
X80091500Y-141615500D01*
X80071498Y-141683621D01*
X80017842Y-141730114D01*
X79965500Y-141741500D01*
X72734500Y-141741500D01*
X72666379Y-141721498D01*
X72619886Y-141667842D01*
X72608500Y-141615500D01*
X72608500Y-137044669D01*
X74492001Y-137044669D01*
X74492371Y-137051490D01*
X74497895Y-137102352D01*
X74501521Y-137117604D01*
X74546676Y-137238054D01*
X74555214Y-137253649D01*
X74631715Y-137355724D01*
X74644276Y-137368285D01*
X74746351Y-137444786D01*
X74761946Y-137453324D01*
X74882394Y-137498478D01*
X74897649Y-137502105D01*
X74948514Y-137507631D01*
X74955328Y-137508000D01*
X75727885Y-137508000D01*
X75743124Y-137503525D01*
X75744329Y-137502135D01*
X75746000Y-137494452D01*
X75746000Y-137489884D01*
X76254000Y-137489884D01*
X76258475Y-137505123D01*
X76259865Y-137506328D01*
X76267548Y-137507999D01*
X77044669Y-137507999D01*
X77051490Y-137507629D01*
X77102352Y-137502105D01*
X77117604Y-137498479D01*
X77238054Y-137453324D01*
X77253649Y-137444786D01*
X77355724Y-137368285D01*
X77368285Y-137355724D01*
X77444786Y-137253649D01*
X77453324Y-137238054D01*
X77498478Y-137117606D01*
X77502105Y-137102351D01*
X77507631Y-137051486D01*
X77508000Y-137044672D01*
X77508000Y-136272115D01*
X77503525Y-136256876D01*
X77502135Y-136255671D01*
X77494452Y-136254000D01*
X76272115Y-136254000D01*
X76256876Y-136258475D01*
X76255671Y-136259865D01*
X76254000Y-136267548D01*
X76254000Y-137489884D01*
X75746000Y-137489884D01*
X75746000Y-136272115D01*
X75741525Y-136256876D01*
X75740135Y-136255671D01*
X75732452Y-136254000D01*
X74510116Y-136254000D01*
X74494877Y-136258475D01*
X74493672Y-136259865D01*
X74492001Y-136267548D01*
X74492001Y-137044669D01*
X72608500Y-137044669D01*
X72608500Y-135727885D01*
X74492000Y-135727885D01*
X74496475Y-135743124D01*
X74497865Y-135744329D01*
X74505548Y-135746000D01*
X75727885Y-135746000D01*
X75743124Y-135741525D01*
X75744329Y-135740135D01*
X75746000Y-135732452D01*
X75746000Y-135727885D01*
X76254000Y-135727885D01*
X76258475Y-135743124D01*
X76259865Y-135744329D01*
X76267548Y-135746000D01*
X77489884Y-135746000D01*
X77505123Y-135741525D01*
X77506328Y-135740135D01*
X77507999Y-135732452D01*
X77507999Y-134955331D01*
X77507629Y-134948510D01*
X77502105Y-134897648D01*
X77498479Y-134882396D01*
X77453324Y-134761946D01*
X77444786Y-134746351D01*
X77368285Y-134644276D01*
X77355724Y-134631715D01*
X77253649Y-134555214D01*
X77238054Y-134546676D01*
X77117606Y-134501522D01*
X77102351Y-134497895D01*
X77051486Y-134492369D01*
X77044672Y-134492000D01*
X76272115Y-134492000D01*
X76256876Y-134496475D01*
X76255671Y-134497865D01*
X76254000Y-134505548D01*
X76254000Y-135727885D01*
X75746000Y-135727885D01*
X75746000Y-134510116D01*
X75741525Y-134494877D01*
X75740135Y-134493672D01*
X75732452Y-134492001D01*
X74955331Y-134492001D01*
X74948510Y-134492371D01*
X74897648Y-134497895D01*
X74882396Y-134501521D01*
X74761946Y-134546676D01*
X74746351Y-134555214D01*
X74644276Y-134631715D01*
X74631715Y-134644276D01*
X74555214Y-134746351D01*
X74546676Y-134761946D01*
X74501522Y-134882394D01*
X74497895Y-134897649D01*
X74492369Y-134948514D01*
X74492000Y-134955328D01*
X74492000Y-135727885D01*
X72608500Y-135727885D01*
X72608500Y-129048134D01*
X74491500Y-129048134D01*
X74498255Y-129110316D01*
X74549385Y-129246705D01*
X74636739Y-129363261D01*
X74753295Y-129450615D01*
X74889684Y-129501745D01*
X74951866Y-129508500D01*
X77048134Y-129508500D01*
X77110316Y-129501745D01*
X77246705Y-129450615D01*
X77363261Y-129363261D01*
X77450615Y-129246705D01*
X77453769Y-129238293D01*
X77458652Y-129225269D01*
X77501294Y-129168505D01*
X77567856Y-129143806D01*
X77576633Y-129143500D01*
X96957195Y-129143500D01*
X96965436Y-129143770D01*
X97030061Y-129148006D01*
X97117973Y-129137601D01*
X97121186Y-129137264D01*
X97209279Y-129129169D01*
X97214839Y-129127601D01*
X97218412Y-129126939D01*
X97229415Y-129124750D01*
X97233028Y-129123982D01*
X97238765Y-129123303D01*
X97323276Y-129097062D01*
X97326373Y-129096146D01*
X97411549Y-129072123D01*
X97416737Y-129069565D01*
X97420188Y-129068240D01*
X97430566Y-129064099D01*
X97433953Y-129062696D01*
X97439473Y-129060982D01*
X97463893Y-129048134D01*
X146491500Y-129048134D01*
X146498255Y-129110316D01*
X146549385Y-129246705D01*
X146636739Y-129363261D01*
X146753295Y-129450615D01*
X146889684Y-129501745D01*
X146951866Y-129508500D01*
X149048134Y-129508500D01*
X149110316Y-129501745D01*
X149246705Y-129450615D01*
X149363261Y-129363261D01*
X149450615Y-129246705D01*
X149501745Y-129110316D01*
X149508500Y-129048134D01*
X149508500Y-126951866D01*
X149501745Y-126889684D01*
X149450615Y-126753295D01*
X149363261Y-126636739D01*
X149246705Y-126549385D01*
X149110316Y-126498255D01*
X149048134Y-126491500D01*
X146951866Y-126491500D01*
X146889684Y-126498255D01*
X146753295Y-126549385D01*
X146636739Y-126636739D01*
X146549385Y-126753295D01*
X146498255Y-126889684D01*
X146491500Y-126951866D01*
X146491500Y-129048134D01*
X97463893Y-129048134D01*
X97517746Y-129019801D01*
X97520682Y-129018305D01*
X97600037Y-128979171D01*
X97604668Y-128975713D01*
X97607871Y-128973750D01*
X97617258Y-128967827D01*
X97620351Y-128965818D01*
X97625463Y-128963129D01*
X97694956Y-128908344D01*
X97697526Y-128906373D01*
X97763801Y-128856884D01*
X97763808Y-128856877D01*
X97768429Y-128853427D01*
X97824263Y-128793026D01*
X97827692Y-128789461D01*
X103778303Y-122838850D01*
X103784321Y-122833213D01*
X103833018Y-122790507D01*
X103887797Y-122721019D01*
X103889875Y-122718454D01*
X103942733Y-122654901D01*
X103942737Y-122654896D01*
X103946425Y-122650461D01*
X103949244Y-122645427D01*
X103951313Y-122642417D01*
X103957507Y-122633147D01*
X103959550Y-122630002D01*
X103963127Y-122625464D01*
X104004317Y-122547175D01*
X104005886Y-122544285D01*
X104046290Y-122472140D01*
X104046291Y-122472138D01*
X104049114Y-122467097D01*
X104050971Y-122461625D01*
X104052485Y-122458225D01*
X104056872Y-122448014D01*
X104058294Y-122444580D01*
X104060981Y-122439474D01*
X104087211Y-122355002D01*
X104088230Y-122351866D01*
X104114812Y-122273556D01*
X104116668Y-122268089D01*
X104117497Y-122262376D01*
X104118340Y-122258863D01*
X104120832Y-122247850D01*
X104121590Y-122244283D01*
X104123303Y-122238767D01*
X104133705Y-122150883D01*
X104134133Y-122147632D01*
X104146824Y-122060104D01*
X104143596Y-121977947D01*
X104143499Y-121973000D01*
X104143499Y-118898133D01*
X106711498Y-118898133D01*
X106718253Y-118960315D01*
X106769383Y-119096704D01*
X106856737Y-119213260D01*
X106973293Y-119300614D01*
X107109682Y-119351744D01*
X107171864Y-119358499D01*
X108618132Y-119358499D01*
X108680314Y-119351744D01*
X108816703Y-119300614D01*
X108933259Y-119213260D01*
X109020613Y-119096704D01*
X109071743Y-118960315D01*
X109078498Y-118898133D01*
X109078498Y-115901867D01*
X109071743Y-115839685D01*
X109020613Y-115703296D01*
X108933259Y-115586740D01*
X108816703Y-115499386D01*
X108680314Y-115448256D01*
X108618132Y-115441501D01*
X107171864Y-115441501D01*
X107109682Y-115448256D01*
X106973293Y-115499386D01*
X106856737Y-115586740D01*
X106769383Y-115703296D01*
X106718253Y-115839685D01*
X106711498Y-115901867D01*
X106711498Y-118898133D01*
X104143499Y-118898133D01*
X104143499Y-112759464D01*
X104163501Y-112691343D01*
X104217157Y-112644850D01*
X104287431Y-112634746D01*
X104313729Y-112641482D01*
X104332394Y-112648479D01*
X104347649Y-112652106D01*
X104398514Y-112657632D01*
X104405328Y-112658001D01*
X104727885Y-112658001D01*
X104743124Y-112653526D01*
X104744329Y-112652136D01*
X104746000Y-112644453D01*
X104746000Y-112639885D01*
X105254000Y-112639885D01*
X105258475Y-112655124D01*
X105259865Y-112656329D01*
X105267548Y-112658000D01*
X105594669Y-112658000D01*
X105601490Y-112657630D01*
X105652352Y-112652106D01*
X105667604Y-112648480D01*
X105788054Y-112603325D01*
X105803649Y-112594787D01*
X105905724Y-112518286D01*
X105918285Y-112505725D01*
X105994786Y-112403650D01*
X106003324Y-112388055D01*
X106048478Y-112267607D01*
X106052105Y-112252352D01*
X106057631Y-112201487D01*
X106058000Y-112194673D01*
X106058000Y-111697116D01*
X106053525Y-111681877D01*
X106052135Y-111680672D01*
X106044452Y-111679001D01*
X105272115Y-111679001D01*
X105256876Y-111683476D01*
X105255671Y-111684866D01*
X105254000Y-111692549D01*
X105254000Y-112639885D01*
X104746000Y-112639885D01*
X104746000Y-111152886D01*
X105254000Y-111152886D01*
X105258475Y-111168125D01*
X105259865Y-111169330D01*
X105267548Y-111171001D01*
X106039884Y-111171001D01*
X106055123Y-111166526D01*
X106056328Y-111165136D01*
X106057999Y-111157453D01*
X106057999Y-110655332D01*
X106057629Y-110648511D01*
X106052105Y-110597649D01*
X106048479Y-110582397D01*
X106003324Y-110461947D01*
X105994786Y-110446352D01*
X105918285Y-110344277D01*
X105905724Y-110331716D01*
X105803649Y-110255215D01*
X105788054Y-110246677D01*
X105667606Y-110201523D01*
X105652351Y-110197896D01*
X105601486Y-110192370D01*
X105594672Y-110192001D01*
X105272115Y-110192001D01*
X105256876Y-110196476D01*
X105255671Y-110197866D01*
X105254000Y-110205549D01*
X105254000Y-111152886D01*
X104746000Y-111152886D01*
X104746000Y-110210117D01*
X104741525Y-110194878D01*
X104740135Y-110193673D01*
X104732452Y-110192002D01*
X104405331Y-110192002D01*
X104398510Y-110192372D01*
X104347648Y-110197896D01*
X104332396Y-110201522D01*
X104211946Y-110246677D01*
X104196351Y-110255215D01*
X104094279Y-110331714D01*
X104089456Y-110336537D01*
X104027146Y-110370565D01*
X103956330Y-110365504D01*
X103914829Y-110338833D01*
X103913260Y-110336740D01*
X103796704Y-110249386D01*
X103660315Y-110198256D01*
X103598133Y-110191501D01*
X102401865Y-110191501D01*
X102339683Y-110198256D01*
X102203294Y-110249386D01*
X102086738Y-110336740D01*
X101999384Y-110453296D01*
X101948254Y-110589685D01*
X101941499Y-110651867D01*
X101941499Y-110958423D01*
X101935831Y-110995788D01*
X101876695Y-111186235D01*
X101856499Y-111356875D01*
X101856499Y-121474158D01*
X101836497Y-121542279D01*
X101819594Y-121563253D01*
X96563252Y-126819595D01*
X96500940Y-126853621D01*
X96474157Y-126856500D01*
X77576633Y-126856500D01*
X77508512Y-126836498D01*
X77462019Y-126782842D01*
X77458652Y-126774731D01*
X77453769Y-126761707D01*
X77453767Y-126761703D01*
X77450615Y-126753295D01*
X77363261Y-126636739D01*
X77246705Y-126549385D01*
X77110316Y-126498255D01*
X77048134Y-126491500D01*
X74951866Y-126491500D01*
X74889684Y-126498255D01*
X74753295Y-126549385D01*
X74636739Y-126636739D01*
X74549385Y-126753295D01*
X74498255Y-126889684D01*
X74491500Y-126951866D01*
X74491500Y-129048134D01*
X72608500Y-129048134D01*
X72608500Y-118898133D01*
X86175003Y-118898133D01*
X86181758Y-118960315D01*
X86232888Y-119096704D01*
X86320242Y-119213260D01*
X86436798Y-119300614D01*
X86573187Y-119351744D01*
X86635369Y-119358499D01*
X88081637Y-119358499D01*
X88143819Y-119351744D01*
X88280208Y-119300614D01*
X88396764Y-119213260D01*
X88484118Y-119096704D01*
X88535248Y-118960315D01*
X88542003Y-118898133D01*
X93964998Y-118898133D01*
X93971753Y-118960315D01*
X94022883Y-119096704D01*
X94110237Y-119213260D01*
X94226793Y-119300614D01*
X94363182Y-119351744D01*
X94425364Y-119358499D01*
X95871632Y-119358499D01*
X95933814Y-119351744D01*
X96070203Y-119300614D01*
X96186759Y-119213260D01*
X96274113Y-119096704D01*
X96325243Y-118960315D01*
X96331998Y-118898133D01*
X98921503Y-118898133D01*
X98928258Y-118960315D01*
X98979388Y-119096704D01*
X99066742Y-119213260D01*
X99183298Y-119300614D01*
X99319687Y-119351744D01*
X99381869Y-119358499D01*
X100828137Y-119358499D01*
X100890319Y-119351744D01*
X101026708Y-119300614D01*
X101143264Y-119213260D01*
X101230618Y-119096704D01*
X101281748Y-118960315D01*
X101288503Y-118898133D01*
X101288503Y-115901867D01*
X101281748Y-115839685D01*
X101230618Y-115703296D01*
X101143264Y-115586740D01*
X101026708Y-115499386D01*
X100890319Y-115448256D01*
X100828137Y-115441501D01*
X99381869Y-115441501D01*
X99319687Y-115448256D01*
X99183298Y-115499386D01*
X99066742Y-115586740D01*
X98979388Y-115703296D01*
X98928258Y-115839685D01*
X98921503Y-115901867D01*
X98921503Y-118898133D01*
X96331998Y-118898133D01*
X96331998Y-115901867D01*
X96325243Y-115839685D01*
X96274113Y-115703296D01*
X96186759Y-115586740D01*
X96070203Y-115499386D01*
X95933814Y-115448256D01*
X95871632Y-115441501D01*
X94425364Y-115441501D01*
X94363182Y-115448256D01*
X94226793Y-115499386D01*
X94110237Y-115586740D01*
X94022883Y-115703296D01*
X93971753Y-115839685D01*
X93964998Y-115901867D01*
X93964998Y-118898133D01*
X88542003Y-118898133D01*
X88542003Y-115901867D01*
X88535248Y-115839685D01*
X88484118Y-115703296D01*
X88396764Y-115586740D01*
X88280208Y-115499386D01*
X88143819Y-115448256D01*
X88081637Y-115441501D01*
X86635369Y-115441501D01*
X86573187Y-115448256D01*
X86436798Y-115499386D01*
X86320242Y-115586740D01*
X86232888Y-115703296D01*
X86181758Y-115839685D01*
X86175003Y-115901867D01*
X86175003Y-118898133D01*
X72608500Y-118898133D01*
X72608500Y-112678918D01*
X80586917Y-112678918D01*
X80602682Y-112952320D01*
X80603507Y-112956525D01*
X80603508Y-112956533D01*
X80614127Y-113010657D01*
X80655405Y-113221053D01*
X80656792Y-113225103D01*
X80656793Y-113225108D01*
X80677605Y-113285895D01*
X80744112Y-113480144D01*
X80867160Y-113724799D01*
X80869586Y-113728328D01*
X80869589Y-113728334D01*
X81019843Y-113946953D01*
X81022274Y-113950490D01*
X81206582Y-114153043D01*
X81416675Y-114328707D01*
X81420316Y-114330991D01*
X81645024Y-114471951D01*
X81645028Y-114471953D01*
X81648664Y-114474234D01*
X81716544Y-114504883D01*
X81894345Y-114585164D01*
X81894349Y-114585166D01*
X81898257Y-114586930D01*
X81902377Y-114588150D01*
X81902376Y-114588150D01*
X82156723Y-114663491D01*
X82156727Y-114663492D01*
X82160836Y-114664709D01*
X82165070Y-114665357D01*
X82165075Y-114665358D01*
X82427298Y-114705483D01*
X82427300Y-114705483D01*
X82431540Y-114706132D01*
X82570912Y-114708322D01*
X82701071Y-114710367D01*
X82701077Y-114710367D01*
X82705362Y-114710434D01*
X82977235Y-114677534D01*
X83242127Y-114608041D01*
X83246087Y-114606401D01*
X83246092Y-114606399D01*
X83368632Y-114555641D01*
X83495136Y-114503241D01*
X83731582Y-114365073D01*
X83947089Y-114196094D01*
X83988809Y-114153043D01*
X84134686Y-114002509D01*
X84137669Y-113999431D01*
X84140202Y-113995983D01*
X84140206Y-113995978D01*
X84297257Y-113782178D01*
X84299795Y-113778723D01*
X84327154Y-113728334D01*
X84428418Y-113541830D01*
X84428419Y-113541828D01*
X84430468Y-113538054D01*
X84527269Y-113281877D01*
X84588407Y-113014933D01*
X84612751Y-112742161D01*
X84613193Y-112700000D01*
X84613061Y-112698066D01*
X84631068Y-112629469D01*
X84683359Y-112581446D01*
X84738989Y-112568501D01*
X89371968Y-112568501D01*
X89440089Y-112588503D01*
X89447521Y-112593666D01*
X89456794Y-112600616D01*
X89593183Y-112651746D01*
X89655365Y-112658501D01*
X90851633Y-112658501D01*
X90913815Y-112651746D01*
X91050204Y-112600616D01*
X91108628Y-112556829D01*
X91159578Y-112518645D01*
X91159580Y-112518643D01*
X91166760Y-112513262D01*
X91167893Y-112511750D01*
X91227079Y-112479435D01*
X91297895Y-112484503D01*
X91342952Y-112513462D01*
X91347776Y-112518286D01*
X91449851Y-112594787D01*
X91465446Y-112603325D01*
X91585894Y-112648479D01*
X91601149Y-112652106D01*
X91652014Y-112657632D01*
X91658828Y-112658001D01*
X91981385Y-112658001D01*
X91996624Y-112653526D01*
X91997829Y-112652136D01*
X91999500Y-112644453D01*
X91999500Y-112639885D01*
X92507500Y-112639885D01*
X92511975Y-112655124D01*
X92513365Y-112656329D01*
X92521048Y-112658000D01*
X92848169Y-112658000D01*
X92854990Y-112657630D01*
X92905852Y-112652106D01*
X92921104Y-112648480D01*
X93041554Y-112603325D01*
X93057149Y-112594787D01*
X93159224Y-112518286D01*
X93171785Y-112505725D01*
X93248286Y-112403650D01*
X93256824Y-112388055D01*
X93301978Y-112267607D01*
X93305605Y-112252352D01*
X93311131Y-112201487D01*
X93311500Y-112194673D01*
X93311500Y-111697116D01*
X93307025Y-111681877D01*
X93305635Y-111680672D01*
X93297952Y-111679001D01*
X92525615Y-111679001D01*
X92510376Y-111683476D01*
X92509171Y-111684866D01*
X92507500Y-111692549D01*
X92507500Y-112639885D01*
X91999500Y-112639885D01*
X91999500Y-111152886D01*
X92507500Y-111152886D01*
X92511975Y-111168125D01*
X92513365Y-111169330D01*
X92521048Y-111171001D01*
X93293384Y-111171001D01*
X93308623Y-111166526D01*
X93309828Y-111165136D01*
X93311499Y-111157453D01*
X93311499Y-110655332D01*
X93311129Y-110648511D01*
X93305605Y-110597649D01*
X93301979Y-110582397D01*
X93256824Y-110461947D01*
X93248286Y-110446352D01*
X93171785Y-110344277D01*
X93159224Y-110331716D01*
X93057149Y-110255215D01*
X93041554Y-110246677D01*
X92921106Y-110201523D01*
X92905851Y-110197896D01*
X92854986Y-110192370D01*
X92848172Y-110192001D01*
X92525615Y-110192001D01*
X92510376Y-110196476D01*
X92509171Y-110197866D01*
X92507500Y-110205549D01*
X92507500Y-111152886D01*
X91999500Y-111152886D01*
X91999500Y-110210117D01*
X91995025Y-110194878D01*
X91993635Y-110193673D01*
X91985952Y-110192002D01*
X91658831Y-110192002D01*
X91652010Y-110192372D01*
X91601148Y-110197896D01*
X91585896Y-110201522D01*
X91465446Y-110246677D01*
X91449851Y-110255215D01*
X91347779Y-110331714D01*
X91342956Y-110336537D01*
X91280646Y-110370565D01*
X91209830Y-110365504D01*
X91168329Y-110338833D01*
X91166760Y-110336740D01*
X91050204Y-110249386D01*
X90913815Y-110198256D01*
X90851633Y-110191501D01*
X89655365Y-110191501D01*
X89593183Y-110198256D01*
X89456794Y-110249386D01*
X89447533Y-110256327D01*
X89445123Y-110257227D01*
X89441739Y-110259080D01*
X89441472Y-110258592D01*
X89381029Y-110281175D01*
X89371968Y-110281501D01*
X83917804Y-110281501D01*
X83909563Y-110281231D01*
X83900451Y-110280634D01*
X83844938Y-110276995D01*
X83757040Y-110287399D01*
X83753772Y-110287741D01*
X83665720Y-110295832D01*
X83660154Y-110297402D01*
X83656458Y-110298087D01*
X83645609Y-110300245D01*
X83641973Y-110301018D01*
X83636234Y-110301697D01*
X83551743Y-110327932D01*
X83548607Y-110328861D01*
X83520671Y-110336740D01*
X83463450Y-110352878D01*
X83458262Y-110355436D01*
X83454811Y-110356761D01*
X83444433Y-110360902D01*
X83441046Y-110362305D01*
X83435526Y-110364019D01*
X83430412Y-110366710D01*
X83430411Y-110366710D01*
X83357254Y-110405199D01*
X83354318Y-110406696D01*
X83274962Y-110445830D01*
X83270331Y-110449288D01*
X83267128Y-110451251D01*
X83257741Y-110457174D01*
X83254648Y-110459183D01*
X83249536Y-110461872D01*
X83180043Y-110516657D01*
X83177473Y-110518628D01*
X83111198Y-110568117D01*
X83111191Y-110568124D01*
X83106570Y-110571574D01*
X83102656Y-110575808D01*
X83102654Y-110575810D01*
X83050737Y-110631974D01*
X83047307Y-110635540D01*
X83004854Y-110677993D01*
X82942542Y-110712019D01*
X82898006Y-110713641D01*
X82751695Y-110692818D01*
X82751693Y-110692818D01*
X82747443Y-110692213D01*
X82603589Y-110691460D01*
X82477877Y-110690802D01*
X82477871Y-110690802D01*
X82473591Y-110690780D01*
X82469347Y-110691339D01*
X82469343Y-110691339D01*
X82350302Y-110707011D01*
X82202078Y-110726525D01*
X81937928Y-110798788D01*
X81933980Y-110800472D01*
X81689982Y-110904546D01*
X81689978Y-110904548D01*
X81686030Y-110906232D01*
X81598825Y-110958423D01*
X81454725Y-111044664D01*
X81454721Y-111044667D01*
X81451043Y-111046868D01*
X81237318Y-111218094D01*
X81234371Y-111221200D01*
X81091566Y-111371685D01*
X81048808Y-111416742D01*
X80889002Y-111639136D01*
X80760857Y-111881161D01*
X80666743Y-112138337D01*
X80608404Y-112405907D01*
X80608068Y-112410177D01*
X80589056Y-112651746D01*
X80586917Y-112678918D01*
X72608500Y-112678918D01*
X72608500Y-73200000D01*
X73486835Y-73200000D01*
X73505465Y-73436711D01*
X73560895Y-73667594D01*
X73651760Y-73886963D01*
X73654346Y-73891183D01*
X73773241Y-74085202D01*
X73773245Y-74085208D01*
X73775824Y-74089416D01*
X73930031Y-74269969D01*
X74110584Y-74424176D01*
X74114792Y-74426755D01*
X74114798Y-74426759D01*
X74308817Y-74545654D01*
X74313037Y-74548240D01*
X74317607Y-74550133D01*
X74317611Y-74550135D01*
X74527833Y-74637211D01*
X74532406Y-74639105D01*
X74612609Y-74658360D01*
X74758476Y-74693380D01*
X74758482Y-74693381D01*
X74763289Y-74694535D01*
X75000000Y-74713165D01*
X75236711Y-74694535D01*
X75241518Y-74693381D01*
X75241524Y-74693380D01*
X75387391Y-74658360D01*
X75467594Y-74639105D01*
X75472167Y-74637211D01*
X75682389Y-74550135D01*
X75682393Y-74550133D01*
X75686963Y-74548240D01*
X75691183Y-74545654D01*
X75885202Y-74426759D01*
X75885208Y-74426755D01*
X75889416Y-74424176D01*
X76069969Y-74269969D01*
X76224176Y-74089416D01*
X76226755Y-74085208D01*
X76226759Y-74085202D01*
X76345654Y-73891183D01*
X76348240Y-73886963D01*
X76439105Y-73667594D01*
X76494535Y-73436711D01*
X76513165Y-73200000D01*
X76494535Y-72963289D01*
X76439105Y-72732406D01*
X76348240Y-72513037D01*
X76345654Y-72508817D01*
X76226759Y-72314798D01*
X76226755Y-72314792D01*
X76224176Y-72310584D01*
X76069969Y-72130031D01*
X75889416Y-71975824D01*
X75885208Y-71973245D01*
X75885202Y-71973241D01*
X75691183Y-71854346D01*
X75686963Y-71851760D01*
X75682393Y-71849867D01*
X75682389Y-71849865D01*
X75472167Y-71762789D01*
X75472165Y-71762788D01*
X75467594Y-71760895D01*
X75387391Y-71741640D01*
X75241524Y-71706620D01*
X75241518Y-71706619D01*
X75236711Y-71705465D01*
X75000000Y-71686835D01*
X74763289Y-71705465D01*
X74758482Y-71706619D01*
X74758476Y-71706620D01*
X74612609Y-71741640D01*
X74532406Y-71760895D01*
X74527835Y-71762788D01*
X74527833Y-71762789D01*
X74317611Y-71849865D01*
X74317607Y-71849867D01*
X74313037Y-71851760D01*
X74308817Y-71854346D01*
X74114798Y-71973241D01*
X74114792Y-71973245D01*
X74110584Y-71975824D01*
X73930031Y-72130031D01*
X73775824Y-72310584D01*
X73773245Y-72314792D01*
X73773241Y-72314798D01*
X73654346Y-72508817D01*
X73651760Y-72513037D01*
X73560895Y-72732406D01*
X73505465Y-72963289D01*
X73486835Y-73200000D01*
X72608500Y-73200000D01*
X72608500Y-69889654D01*
X81375618Y-69889654D01*
X81382673Y-69899627D01*
X81413679Y-69925551D01*
X81420598Y-69930579D01*
X81645272Y-70071515D01*
X81652807Y-70075556D01*
X81894520Y-70184694D01*
X81902551Y-70187680D01*
X82156832Y-70263002D01*
X82165184Y-70264869D01*
X82427340Y-70304984D01*
X82435874Y-70305700D01*
X82701045Y-70309867D01*
X82709596Y-70309418D01*
X82972883Y-70277557D01*
X82981284Y-70275955D01*
X83237824Y-70208653D01*
X83245926Y-70205926D01*
X83490949Y-70104434D01*
X83498617Y-70100628D01*
X83727598Y-69966822D01*
X83734679Y-69962009D01*
X83814655Y-69899301D01*
X83823125Y-69887442D01*
X83816608Y-69875818D01*
X82612812Y-68672022D01*
X82598868Y-68664408D01*
X82597035Y-68664539D01*
X82590420Y-68668790D01*
X81382910Y-69876300D01*
X81375618Y-69889654D01*
X72608500Y-69889654D01*
X72608500Y-69532670D01*
X74132160Y-69532670D01*
X74137887Y-69540320D01*
X74309042Y-69645205D01*
X74317837Y-69649687D01*
X74527988Y-69736734D01*
X74537373Y-69739783D01*
X74758554Y-69792885D01*
X74768301Y-69794428D01*
X74995070Y-69812275D01*
X75004930Y-69812275D01*
X75231699Y-69794428D01*
X75241446Y-69792885D01*
X75462627Y-69739783D01*
X75472012Y-69736734D01*
X75682163Y-69649687D01*
X75690958Y-69645205D01*
X75858445Y-69542568D01*
X75867907Y-69532110D01*
X75864124Y-69523334D01*
X75012812Y-68672022D01*
X74998868Y-68664408D01*
X74997035Y-68664539D01*
X74990420Y-68668790D01*
X74138920Y-69520290D01*
X74132160Y-69532670D01*
X72608500Y-69532670D01*
X72608500Y-68304930D01*
X73487725Y-68304930D01*
X73505572Y-68531699D01*
X73507115Y-68541446D01*
X73560217Y-68762627D01*
X73563266Y-68772012D01*
X73650313Y-68982163D01*
X73654795Y-68990958D01*
X73757432Y-69158445D01*
X73767890Y-69167907D01*
X73776666Y-69164124D01*
X74627978Y-68312812D01*
X74634356Y-68301132D01*
X75364408Y-68301132D01*
X75364539Y-68302965D01*
X75368790Y-68309580D01*
X76220290Y-69161080D01*
X76232670Y-69167840D01*
X76240320Y-69162113D01*
X76345205Y-68990958D01*
X76349687Y-68982163D01*
X76436734Y-68772012D01*
X76439783Y-68762627D01*
X76492885Y-68541446D01*
X76494428Y-68531699D01*
X76512275Y-68304930D01*
X76512275Y-68295070D01*
X76511341Y-68283204D01*
X80587665Y-68283204D01*
X80602932Y-68547969D01*
X80604005Y-68556470D01*
X80655065Y-68816722D01*
X80657276Y-68824974D01*
X80743184Y-69075894D01*
X80746499Y-69083779D01*
X80865664Y-69320713D01*
X80870020Y-69328079D01*
X80999347Y-69516250D01*
X81009601Y-69524594D01*
X81023342Y-69517448D01*
X82227978Y-68312812D01*
X82234356Y-68301132D01*
X82964408Y-68301132D01*
X82964539Y-68302965D01*
X82968790Y-68309580D01*
X84175730Y-69516520D01*
X84187939Y-69523187D01*
X84199439Y-69514497D01*
X84296831Y-69381913D01*
X84301418Y-69374685D01*
X84427962Y-69141621D01*
X84431530Y-69133827D01*
X84525271Y-68885750D01*
X84527748Y-68877544D01*
X84586954Y-68619038D01*
X84588294Y-68610577D01*
X84612031Y-68344616D01*
X84612277Y-68339677D01*
X84612666Y-68302485D01*
X84612523Y-68297519D01*
X84594362Y-68031123D01*
X84593201Y-68022649D01*
X84539419Y-67762944D01*
X84537120Y-67754709D01*
X84448588Y-67504705D01*
X84445191Y-67496854D01*
X84323550Y-67261178D01*
X84319122Y-67253866D01*
X84200031Y-67084417D01*
X84189509Y-67076037D01*
X84176121Y-67083089D01*
X82972022Y-68287188D01*
X82964408Y-68301132D01*
X82234356Y-68301132D01*
X82235592Y-68298868D01*
X82235461Y-68297035D01*
X82231210Y-68290420D01*
X81023814Y-67083024D01*
X81011804Y-67076466D01*
X81000064Y-67085434D01*
X80891935Y-67235911D01*
X80887418Y-67243196D01*
X80763325Y-67477567D01*
X80759839Y-67485395D01*
X80668700Y-67734446D01*
X80666311Y-67742670D01*
X80609812Y-68001795D01*
X80608563Y-68010250D01*
X80587754Y-68274653D01*
X80587665Y-68283204D01*
X76511341Y-68283204D01*
X76494428Y-68068301D01*
X76492885Y-68058554D01*
X76439783Y-67837373D01*
X76436734Y-67827988D01*
X76349687Y-67617837D01*
X76345205Y-67609042D01*
X76242568Y-67441555D01*
X76232110Y-67432093D01*
X76223334Y-67435876D01*
X75372022Y-68287188D01*
X75364408Y-68301132D01*
X74634356Y-68301132D01*
X74635592Y-68298868D01*
X74635461Y-68297035D01*
X74631210Y-68290420D01*
X73779710Y-67438920D01*
X73767330Y-67432160D01*
X73759680Y-67437887D01*
X73654795Y-67609042D01*
X73650313Y-67617837D01*
X73563266Y-67827988D01*
X73560217Y-67837373D01*
X73507115Y-68058554D01*
X73505572Y-68068301D01*
X73487725Y-68295070D01*
X73487725Y-68304930D01*
X72608500Y-68304930D01*
X72608500Y-67067890D01*
X74132093Y-67067890D01*
X74135876Y-67076666D01*
X74987188Y-67927978D01*
X75001132Y-67935592D01*
X75002965Y-67935461D01*
X75009580Y-67931210D01*
X75861080Y-67079710D01*
X75867840Y-67067330D01*
X75862113Y-67059680D01*
X75690958Y-66954795D01*
X75682163Y-66950313D01*
X75472012Y-66863266D01*
X75462627Y-66860217D01*
X75241446Y-66807115D01*
X75231699Y-66805572D01*
X75004930Y-66787725D01*
X74995070Y-66787725D01*
X74768301Y-66805572D01*
X74758554Y-66807115D01*
X74537373Y-66860217D01*
X74527988Y-66863266D01*
X74317837Y-66950313D01*
X74309042Y-66954795D01*
X74141555Y-67057432D01*
X74132093Y-67067890D01*
X72608500Y-67067890D01*
X72608500Y-66712500D01*
X81376584Y-66712500D01*
X81382980Y-66723770D01*
X82587188Y-67927978D01*
X82601132Y-67935592D01*
X82602965Y-67935461D01*
X82609580Y-67931210D01*
X83816604Y-66724186D01*
X83823795Y-66711017D01*
X83816473Y-66700780D01*
X83769233Y-66662115D01*
X83762261Y-66657160D01*
X83536122Y-66518582D01*
X83528552Y-66514624D01*
X83285704Y-66408022D01*
X83277644Y-66405120D01*
X83022592Y-66332467D01*
X83014214Y-66330685D01*
X82751656Y-66293318D01*
X82743111Y-66292691D01*
X82477908Y-66291302D01*
X82469374Y-66291839D01*
X82206433Y-66326456D01*
X82198035Y-66328149D01*
X81942238Y-66398127D01*
X81934143Y-66400946D01*
X81690199Y-66504997D01*
X81682577Y-66508881D01*
X81455013Y-66645075D01*
X81447981Y-66649962D01*
X81385053Y-66700377D01*
X81376584Y-66712500D01*
X72608500Y-66712500D01*
X72608500Y-54048134D01*
X74491500Y-54048134D01*
X74498255Y-54110316D01*
X74549385Y-54246705D01*
X74636739Y-54363261D01*
X74753295Y-54450615D01*
X74889684Y-54501745D01*
X74951866Y-54508500D01*
X77048134Y-54508500D01*
X77110316Y-54501745D01*
X77246705Y-54450615D01*
X77363261Y-54363261D01*
X77450615Y-54246705D01*
X77501745Y-54110316D01*
X77508500Y-54048134D01*
X146491500Y-54048134D01*
X146498255Y-54110316D01*
X146549385Y-54246705D01*
X146636739Y-54363261D01*
X146753295Y-54450615D01*
X146889684Y-54501745D01*
X146951866Y-54508500D01*
X149048134Y-54508500D01*
X149110316Y-54501745D01*
X149246705Y-54450615D01*
X149363261Y-54363261D01*
X149450615Y-54246705D01*
X149501745Y-54110316D01*
X149508500Y-54048134D01*
X149508500Y-51951866D01*
X149501745Y-51889684D01*
X149450615Y-51753295D01*
X149363261Y-51636739D01*
X149246705Y-51549385D01*
X149110316Y-51498255D01*
X149048134Y-51491500D01*
X146951866Y-51491500D01*
X146889684Y-51498255D01*
X146753295Y-51549385D01*
X146636739Y-51636739D01*
X146549385Y-51753295D01*
X146498255Y-51889684D01*
X146491500Y-51951866D01*
X146491500Y-54048134D01*
X77508500Y-54048134D01*
X77508500Y-51951866D01*
X77501745Y-51889684D01*
X77450615Y-51753295D01*
X77363261Y-51636739D01*
X77246705Y-51549385D01*
X77110316Y-51498255D01*
X77048134Y-51491500D01*
X74951866Y-51491500D01*
X74889684Y-51498255D01*
X74753295Y-51549385D01*
X74636739Y-51636739D01*
X74549385Y-51753295D01*
X74498255Y-51889684D01*
X74491500Y-51951866D01*
X74491500Y-54048134D01*
X72608500Y-54048134D01*
X72608500Y-46044669D01*
X74492001Y-46044669D01*
X74492371Y-46051490D01*
X74497895Y-46102352D01*
X74501521Y-46117604D01*
X74546676Y-46238054D01*
X74555214Y-46253649D01*
X74631715Y-46355724D01*
X74644276Y-46368285D01*
X74746351Y-46444786D01*
X74761946Y-46453324D01*
X74882394Y-46498478D01*
X74897649Y-46502105D01*
X74948514Y-46507631D01*
X74955328Y-46508000D01*
X75727885Y-46508000D01*
X75743124Y-46503525D01*
X75744329Y-46502135D01*
X75746000Y-46494452D01*
X75746000Y-46489884D01*
X76254000Y-46489884D01*
X76258475Y-46505123D01*
X76259865Y-46506328D01*
X76267548Y-46507999D01*
X77044669Y-46507999D01*
X77051490Y-46507629D01*
X77102352Y-46502105D01*
X77117604Y-46498479D01*
X77238054Y-46453324D01*
X77253649Y-46444786D01*
X77355724Y-46368285D01*
X77368285Y-46355724D01*
X77444786Y-46253649D01*
X77453324Y-46238054D01*
X77498478Y-46117606D01*
X77502105Y-46102351D01*
X77507631Y-46051486D01*
X77508000Y-46044672D01*
X77508000Y-45272115D01*
X77503525Y-45256876D01*
X77502135Y-45255671D01*
X77494452Y-45254000D01*
X76272115Y-45254000D01*
X76256876Y-45258475D01*
X76255671Y-45259865D01*
X76254000Y-45267548D01*
X76254000Y-46489884D01*
X75746000Y-46489884D01*
X75746000Y-45272115D01*
X75741525Y-45256876D01*
X75740135Y-45255671D01*
X75732452Y-45254000D01*
X74510116Y-45254000D01*
X74494877Y-45258475D01*
X74493672Y-45259865D01*
X74492001Y-45267548D01*
X74492001Y-46044669D01*
X72608500Y-46044669D01*
X72608500Y-44727885D01*
X74492000Y-44727885D01*
X74496475Y-44743124D01*
X74497865Y-44744329D01*
X74505548Y-44746000D01*
X75727885Y-44746000D01*
X75743124Y-44741525D01*
X75744329Y-44740135D01*
X75746000Y-44732452D01*
X75746000Y-44727885D01*
X76254000Y-44727885D01*
X76258475Y-44743124D01*
X76259865Y-44744329D01*
X76267548Y-44746000D01*
X77489884Y-44746000D01*
X77505123Y-44741525D01*
X77506328Y-44740135D01*
X77507999Y-44732452D01*
X77507999Y-43955331D01*
X77507629Y-43948510D01*
X77502105Y-43897648D01*
X77498479Y-43882396D01*
X77453324Y-43761946D01*
X77444786Y-43746351D01*
X77368285Y-43644276D01*
X77355724Y-43631715D01*
X77253649Y-43555214D01*
X77238054Y-43546676D01*
X77117606Y-43501522D01*
X77102351Y-43497895D01*
X77051486Y-43492369D01*
X77044672Y-43492000D01*
X76272115Y-43492000D01*
X76256876Y-43496475D01*
X76255671Y-43497865D01*
X76254000Y-43505548D01*
X76254000Y-44727885D01*
X75746000Y-44727885D01*
X75746000Y-43510116D01*
X75741525Y-43494877D01*
X75740135Y-43493672D01*
X75732452Y-43492001D01*
X74955331Y-43492001D01*
X74948510Y-43492371D01*
X74897648Y-43497895D01*
X74882396Y-43501521D01*
X74761946Y-43546676D01*
X74746351Y-43555214D01*
X74644276Y-43631715D01*
X74631715Y-43644276D01*
X74555214Y-43746351D01*
X74546676Y-43761946D01*
X74501522Y-43882394D01*
X74497895Y-43897649D01*
X74492369Y-43948514D01*
X74492000Y-43955328D01*
X74492000Y-44727885D01*
X72608500Y-44727885D01*
X72608500Y-39384500D01*
X72628502Y-39316379D01*
X72682158Y-39269886D01*
X72734500Y-39258500D01*
X80015500Y-39258500D01*
X80083621Y-39278502D01*
G37*
G04 #@! TD.AperFunction*
M02*
