%FSLAX45Y45*%
G04 Gerber Fmt 4.5, Leading zero omitted, Abs format (unit mm)*
G04 Created by KiCad (PCBNEW (6.0.5-0)) date 2022-12-26 00:24:34*
%MOMM*%
%LPD*%
G01*
G04 APERTURE LIST*
%TA.AperFunction,Profile*%
%ADD10C,0.100000*%
%TD*%
%ADD11C,0.200000*%
%ADD12C,0.040000*%
%ADD13C,0.100000*%
%ADD14C,0.150000*%
%ADD15C,0.320000*%
G04 APERTURE END LIST*
D10*
X14360000Y-3875000D02*
X15210000Y-3875000D01*
X13560000Y-14225000D02*
X8860000Y-14225000D01*
X15210000Y-3875000D02*
X15210000Y-14225000D01*
X13560000Y-14225000D02*
X13560000Y-13590000D01*
X8700000Y-4675000D02*
G75*
G03*
X8865000Y-4510000I0J165000D01*
G01*
X8060000Y-14225000D02*
X7210000Y-14225000D01*
X14360000Y-14225000D02*
X15210000Y-14225000D01*
X14195000Y-4675000D02*
G75*
G03*
X14360000Y-4510000I0J165000D01*
G01*
X13725000Y-13425000D02*
G75*
G03*
X13560000Y-13590000I0J-165000D01*
G01*
X14195000Y-13425000D02*
X13725000Y-13425000D01*
X8860000Y-13590000D02*
X8860000Y-14225000D01*
X14360000Y-13590000D02*
G75*
G03*
X14195000Y-13425000I-165000J0D01*
G01*
X13560000Y-4510000D02*
X13560000Y-3875000D01*
X8230000Y-4675000D02*
X8700000Y-4675000D01*
X8860000Y-13590000D02*
G75*
G03*
X8695000Y-13425000I-165000J0D01*
G01*
X8695000Y-13425000D02*
X8225000Y-13425000D01*
X14360000Y-3875000D02*
X14360000Y-4510000D01*
X13560000Y-4510000D02*
G75*
G03*
X13725000Y-4675000I165000J0D01*
G01*
X8865000Y-3875000D02*
X13560000Y-3875000D01*
X8065000Y-4510000D02*
X8065000Y-3875000D01*
X8065000Y-4510000D02*
G75*
G03*
X8230000Y-4675000I165000J0D01*
G01*
X14360000Y-13590000D02*
X14360000Y-14225000D01*
X8065000Y-3875000D02*
X7210000Y-3875000D01*
X7210000Y-14225000D02*
X7210000Y-3875000D01*
X8225000Y-13425000D02*
G75*
G03*
X8060000Y-13590000I0J-165000D01*
G01*
X8865000Y-3875000D02*
X8865000Y-4510000D01*
X8060000Y-14225000D02*
X8060000Y-13590000D01*
X13725000Y-4675000D02*
X14195000Y-4675000D01*
D11*
D12*
X7330000Y-4490000D02*
X7370000Y-4530000D01*
X7370000Y-4490000D02*
X7330000Y-4530000D01*
X7330000Y-4710000D02*
X7370000Y-4750000D01*
X7370000Y-4710000D02*
X7330000Y-4750000D01*
X7332500Y-4050000D02*
X7372500Y-4090000D01*
X7372500Y-4050000D02*
X7332500Y-4090000D01*
X7332500Y-4250000D02*
X7372500Y-4290000D01*
X7372500Y-4250000D02*
X7332500Y-4290000D01*
X7347500Y-13550000D02*
X7387500Y-13590000D01*
X7387500Y-13550000D02*
X7347500Y-13590000D01*
X7347500Y-13790000D02*
X7387500Y-13830000D01*
X7387500Y-13790000D02*
X7347500Y-13830000D01*
X7352500Y-13990000D02*
X7392500Y-14030000D01*
X7392500Y-13990000D02*
X7352500Y-14030000D01*
X7355000Y-13330000D02*
X7395000Y-13370000D01*
X7395000Y-13330000D02*
X7355000Y-13370000D01*
X7580000Y-4250000D02*
X7620000Y-4290000D01*
X7620000Y-4250000D02*
X7580000Y-4290000D01*
X7582500Y-4050000D02*
X7622500Y-4090000D01*
X7622500Y-4050000D02*
X7582500Y-4090000D01*
X7582500Y-4710000D02*
X7622500Y-4750000D01*
X7622500Y-4710000D02*
X7582500Y-4750000D01*
X7592500Y-13790000D02*
X7632500Y-13830000D01*
X7632500Y-13790000D02*
X7592500Y-13830000D01*
X7595000Y-13990000D02*
X7635000Y-14030000D01*
X7635000Y-13990000D02*
X7595000Y-14030000D01*
X7597500Y-13330000D02*
X7637500Y-13370000D01*
X7637500Y-13330000D02*
X7597500Y-13370000D01*
X7822500Y-4710000D02*
X7862500Y-4750000D01*
X7862500Y-4710000D02*
X7822500Y-4750000D01*
X7825000Y-4050000D02*
X7865000Y-4090000D01*
X7865000Y-4050000D02*
X7825000Y-4090000D01*
X7830000Y-4250000D02*
X7870000Y-4290000D01*
X7870000Y-4250000D02*
X7830000Y-4290000D01*
X7830000Y-4490000D02*
X7870000Y-4530000D01*
X7870000Y-4490000D02*
X7830000Y-4530000D01*
X7845000Y-13790000D02*
X7885000Y-13830000D01*
X7885000Y-13790000D02*
X7845000Y-13830000D01*
X7845000Y-13990000D02*
X7885000Y-14030000D01*
X7885000Y-13990000D02*
X7845000Y-14030000D01*
X7847500Y-13330000D02*
X7887500Y-13370000D01*
X7887500Y-13330000D02*
X7847500Y-13370000D01*
X7847500Y-13550000D02*
X7887500Y-13590000D01*
X7887500Y-13550000D02*
X7847500Y-13590000D01*
X9217500Y-11327500D02*
X9257500Y-11367500D01*
X9257500Y-11327500D02*
X9217500Y-11367500D01*
X9385000Y-11325000D02*
X9425000Y-11365000D01*
X9425000Y-11325000D02*
X9385000Y-11365000D01*
X9390000Y-11017500D02*
X9430000Y-11057500D01*
X9430000Y-11017500D02*
X9390000Y-11057500D01*
X9390000Y-11157500D02*
X9430000Y-11197500D01*
X9430000Y-11157500D02*
X9390000Y-11197500D01*
X10507500Y-11337500D02*
X10547500Y-11377500D01*
X10547500Y-11337500D02*
X10507500Y-11377500D01*
X10680000Y-11015000D02*
X10720000Y-11055000D01*
X10720000Y-11015000D02*
X10680000Y-11055000D01*
X10682500Y-11180000D02*
X10722500Y-11220000D01*
X10722500Y-11180000D02*
X10682500Y-11220000D01*
X10682500Y-11335000D02*
X10722500Y-11375000D01*
X10722500Y-11335000D02*
X10682500Y-11375000D01*
X14520000Y-13567500D02*
X14560000Y-13607500D01*
X14560000Y-13567500D02*
X14520000Y-13607500D01*
X14520000Y-13807500D02*
X14560000Y-13847500D01*
X14560000Y-13807500D02*
X14520000Y-13847500D01*
X14525000Y-14007500D02*
X14565000Y-14047500D01*
X14565000Y-14007500D02*
X14525000Y-14047500D01*
X14527500Y-13347500D02*
X14567500Y-13387500D01*
X14567500Y-13347500D02*
X14527500Y-13387500D01*
X14532500Y-4480000D02*
X14572500Y-4520000D01*
X14572500Y-4480000D02*
X14532500Y-4520000D01*
X14532500Y-4700000D02*
X14572500Y-4740000D01*
X14572500Y-4700000D02*
X14532500Y-4740000D01*
X14535000Y-4040000D02*
X14575000Y-4080000D01*
X14575000Y-4040000D02*
X14535000Y-4080000D01*
X14535000Y-4240000D02*
X14575000Y-4280000D01*
X14575000Y-4240000D02*
X14535000Y-4280000D01*
X14767500Y-13807500D02*
X14807500Y-13847500D01*
X14807500Y-13807500D02*
X14767500Y-13847500D01*
X14767500Y-14007500D02*
X14807500Y-14047500D01*
X14807500Y-14007500D02*
X14767500Y-14047500D01*
X14770000Y-13347500D02*
X14810000Y-13387500D01*
X14810000Y-13347500D02*
X14770000Y-13387500D01*
X14777500Y-4702500D02*
X14817500Y-4742500D01*
X14817500Y-4702500D02*
X14777500Y-4742500D01*
X14785000Y-4040000D02*
X14825000Y-4080000D01*
X14825000Y-4040000D02*
X14785000Y-4080000D01*
X14785000Y-4240000D02*
X14825000Y-4280000D01*
X14825000Y-4240000D02*
X14785000Y-4280000D01*
X15017500Y-13807500D02*
X15057500Y-13847500D01*
X15057500Y-13807500D02*
X15017500Y-13847500D01*
X15017500Y-14007500D02*
X15057500Y-14047500D01*
X15057500Y-14007500D02*
X15017500Y-14047500D01*
X15020000Y-13347500D02*
X15060000Y-13387500D01*
X15060000Y-13347500D02*
X15020000Y-13387500D01*
X15020000Y-13567500D02*
X15060000Y-13607500D01*
X15060000Y-13567500D02*
X15020000Y-13607500D01*
X15025000Y-4700000D02*
X15065000Y-4740000D01*
X15065000Y-4700000D02*
X15025000Y-4740000D01*
X15027500Y-4040000D02*
X15067500Y-4080000D01*
X15067500Y-4040000D02*
X15027500Y-4080000D01*
X15032500Y-4240000D02*
X15072500Y-4280000D01*
X15072500Y-4240000D02*
X15032500Y-4280000D01*
X15032500Y-4480000D02*
X15072500Y-4520000D01*
X15072500Y-4480000D02*
X15032500Y-4520000D01*
D13*
X7550000Y-6830000D02*
G75*
G03*
X7550000Y-6830000I-50000J0D01*
G01*
X7550000Y-7320000D02*
G75*
G03*
X7550000Y-7320000I-50000J0D01*
G01*
X7650000Y-4500000D02*
G75*
G03*
X7650000Y-4500000I-50000J0D01*
G01*
X7650000Y-5300000D02*
G75*
G03*
X7650000Y-5300000I-50000J0D01*
G01*
X7650000Y-12800000D02*
G75*
G03*
X7650000Y-12800000I-50000J0D01*
G01*
X7650000Y-13600000D02*
G75*
G03*
X7650000Y-13600000I-50000J0D01*
G01*
X14850000Y-4500000D02*
G75*
G03*
X14850000Y-4500000I-50000J0D01*
G01*
X14850000Y-5300000D02*
G75*
G03*
X14850000Y-5300000I-50000J0D01*
G01*
X14850000Y-12800000D02*
G75*
G03*
X14850000Y-12800000I-50000J0D01*
G01*
X14850000Y-13600000D02*
G75*
G03*
X14850000Y-13600000I-50000J0D01*
G01*
D14*
X8260000Y-6755000D02*
X8260000Y-6905000D01*
X8185000Y-6830000D02*
X8335000Y-6830000D01*
X8260000Y-11195000D02*
X8260000Y-11345000D01*
X8185000Y-11270000D02*
X8335000Y-11270000D01*
D15*
X9948138Y-4388138D02*
X9948138Y-4161862D01*
X9721862Y-4161862D01*
X9721862Y-4388138D01*
X9948138Y-4388138D01*
X9948138Y-13938138D02*
X9948138Y-13711862D01*
X9721862Y-13711862D01*
X9721862Y-13938138D01*
X9948138Y-13938138D01*
X12698138Y-4388138D02*
X12698138Y-4161862D01*
X12471862Y-4161862D01*
X12471862Y-4388138D01*
X12698138Y-4388138D01*
X12698138Y-13938138D02*
X12698138Y-13711862D01*
X12471862Y-13711862D01*
X12471862Y-13938138D01*
X12698138Y-13938138D01*
D11*
X7462619Y-14540476D02*
X7462619Y-14340476D01*
X7510238Y-14340476D01*
X7538809Y-14350000D01*
X7557857Y-14369048D01*
X7567381Y-14388095D01*
X7576905Y-14426190D01*
X7576905Y-14454762D01*
X7567381Y-14492857D01*
X7557857Y-14511905D01*
X7538809Y-14530952D01*
X7510238Y-14540476D01*
X7462619Y-14540476D01*
X7662619Y-14540476D02*
X7662619Y-14407143D01*
X7662619Y-14445238D02*
X7672143Y-14426190D01*
X7681667Y-14416667D01*
X7700714Y-14407143D01*
X7719762Y-14407143D01*
X7786428Y-14540476D02*
X7786428Y-14407143D01*
X7786428Y-14340476D02*
X7776905Y-14350000D01*
X7786428Y-14359524D01*
X7795952Y-14350000D01*
X7786428Y-14340476D01*
X7786428Y-14359524D01*
X7910238Y-14540476D02*
X7891190Y-14530952D01*
X7881667Y-14511905D01*
X7881667Y-14340476D01*
X8015000Y-14540476D02*
X7995952Y-14530952D01*
X7986428Y-14511905D01*
X7986428Y-14340476D01*
X8243571Y-14540476D02*
X8243571Y-14340476D01*
X8310238Y-14483333D01*
X8376905Y-14340476D01*
X8376905Y-14540476D01*
X8557857Y-14540476D02*
X8557857Y-14435714D01*
X8548333Y-14416667D01*
X8529286Y-14407143D01*
X8491190Y-14407143D01*
X8472143Y-14416667D01*
X8557857Y-14530952D02*
X8538810Y-14540476D01*
X8491190Y-14540476D01*
X8472143Y-14530952D01*
X8462619Y-14511905D01*
X8462619Y-14492857D01*
X8472143Y-14473809D01*
X8491190Y-14464286D01*
X8538810Y-14464286D01*
X8557857Y-14454762D01*
X8653095Y-14407143D02*
X8653095Y-14607143D01*
X8653095Y-14416667D02*
X8672143Y-14407143D01*
X8710238Y-14407143D01*
X8729286Y-14416667D01*
X8738810Y-14426190D01*
X8748333Y-14445238D01*
X8748333Y-14502381D01*
X8738810Y-14521428D01*
X8729286Y-14530952D01*
X8710238Y-14540476D01*
X8672143Y-14540476D01*
X8653095Y-14530952D01*
X8834048Y-14521428D02*
X8843571Y-14530952D01*
X8834048Y-14540476D01*
X8824524Y-14530952D01*
X8834048Y-14521428D01*
X8834048Y-14540476D01*
X8834048Y-14416667D02*
X8843571Y-14426190D01*
X8834048Y-14435714D01*
X8824524Y-14426190D01*
X8834048Y-14416667D01*
X8834048Y-14435714D01*
D12*
X7165000Y-14850000D02*
X7205000Y-14890000D01*
X7205000Y-14850000D02*
X7165000Y-14890000D01*
D11*
X7500714Y-14760476D02*
X7519762Y-14760476D01*
X7538809Y-14770000D01*
X7548333Y-14779524D01*
X7557857Y-14798571D01*
X7567381Y-14836667D01*
X7567381Y-14884286D01*
X7557857Y-14922381D01*
X7548333Y-14941428D01*
X7538809Y-14950952D01*
X7519762Y-14960476D01*
X7500714Y-14960476D01*
X7481667Y-14950952D01*
X7472143Y-14941428D01*
X7462619Y-14922381D01*
X7453095Y-14884286D01*
X7453095Y-14836667D01*
X7462619Y-14798571D01*
X7472143Y-14779524D01*
X7481667Y-14770000D01*
X7500714Y-14760476D01*
X7653095Y-14941428D02*
X7662619Y-14950952D01*
X7653095Y-14960476D01*
X7643571Y-14950952D01*
X7653095Y-14941428D01*
X7653095Y-14960476D01*
X7834048Y-14827143D02*
X7834048Y-14960476D01*
X7786428Y-14750952D02*
X7738809Y-14893809D01*
X7862619Y-14893809D01*
X7976905Y-14760476D02*
X7995952Y-14760476D01*
X8015000Y-14770000D01*
X8024524Y-14779524D01*
X8034048Y-14798571D01*
X8043571Y-14836667D01*
X8043571Y-14884286D01*
X8034048Y-14922381D01*
X8024524Y-14941428D01*
X8015000Y-14950952D01*
X7995952Y-14960476D01*
X7976905Y-14960476D01*
X7957857Y-14950952D01*
X7948333Y-14941428D01*
X7938809Y-14922381D01*
X7929286Y-14884286D01*
X7929286Y-14836667D01*
X7938809Y-14798571D01*
X7948333Y-14779524D01*
X7957857Y-14770000D01*
X7976905Y-14760476D01*
X8167381Y-14760476D02*
X8186428Y-14760476D01*
X8205476Y-14770000D01*
X8215000Y-14779524D01*
X8224524Y-14798571D01*
X8234048Y-14836667D01*
X8234048Y-14884286D01*
X8224524Y-14922381D01*
X8215000Y-14941428D01*
X8205476Y-14950952D01*
X8186428Y-14960476D01*
X8167381Y-14960476D01*
X8148333Y-14950952D01*
X8138809Y-14941428D01*
X8129286Y-14922381D01*
X8119762Y-14884286D01*
X8119762Y-14836667D01*
X8129286Y-14798571D01*
X8138809Y-14779524D01*
X8148333Y-14770000D01*
X8167381Y-14760476D01*
X8319762Y-14960476D02*
X8319762Y-14827143D01*
X8319762Y-14846190D02*
X8329286Y-14836667D01*
X8348333Y-14827143D01*
X8376905Y-14827143D01*
X8395952Y-14836667D01*
X8405476Y-14855714D01*
X8405476Y-14960476D01*
X8405476Y-14855714D02*
X8415000Y-14836667D01*
X8434048Y-14827143D01*
X8462619Y-14827143D01*
X8481667Y-14836667D01*
X8491190Y-14855714D01*
X8491190Y-14960476D01*
X8586429Y-14960476D02*
X8586429Y-14827143D01*
X8586429Y-14846190D02*
X8595952Y-14836667D01*
X8615000Y-14827143D01*
X8643571Y-14827143D01*
X8662619Y-14836667D01*
X8672143Y-14855714D01*
X8672143Y-14960476D01*
X8672143Y-14855714D02*
X8681667Y-14836667D01*
X8700714Y-14827143D01*
X8729286Y-14827143D01*
X8748333Y-14836667D01*
X8757857Y-14855714D01*
X8757857Y-14960476D01*
X9148333Y-14750952D02*
X8976905Y-15008095D01*
X9405476Y-14760476D02*
X9424524Y-14760476D01*
X9443571Y-14770000D01*
X9453095Y-14779524D01*
X9462619Y-14798571D01*
X9472143Y-14836667D01*
X9472143Y-14884286D01*
X9462619Y-14922381D01*
X9453095Y-14941428D01*
X9443571Y-14950952D01*
X9424524Y-14960476D01*
X9405476Y-14960476D01*
X9386429Y-14950952D01*
X9376905Y-14941428D01*
X9367381Y-14922381D01*
X9357857Y-14884286D01*
X9357857Y-14836667D01*
X9367381Y-14798571D01*
X9376905Y-14779524D01*
X9386429Y-14770000D01*
X9405476Y-14760476D01*
X9557857Y-14941428D02*
X9567381Y-14950952D01*
X9557857Y-14960476D01*
X9548333Y-14950952D01*
X9557857Y-14941428D01*
X9557857Y-14960476D01*
X9691190Y-14760476D02*
X9710238Y-14760476D01*
X9729286Y-14770000D01*
X9738810Y-14779524D01*
X9748333Y-14798571D01*
X9757857Y-14836667D01*
X9757857Y-14884286D01*
X9748333Y-14922381D01*
X9738810Y-14941428D01*
X9729286Y-14950952D01*
X9710238Y-14960476D01*
X9691190Y-14960476D01*
X9672143Y-14950952D01*
X9662619Y-14941428D01*
X9653095Y-14922381D01*
X9643571Y-14884286D01*
X9643571Y-14836667D01*
X9653095Y-14798571D01*
X9662619Y-14779524D01*
X9672143Y-14770000D01*
X9691190Y-14760476D01*
X9948333Y-14960476D02*
X9834048Y-14960476D01*
X9891190Y-14960476D02*
X9891190Y-14760476D01*
X9872143Y-14789048D01*
X9853095Y-14808095D01*
X9834048Y-14817619D01*
X10129286Y-14760476D02*
X10034048Y-14760476D01*
X10024524Y-14855714D01*
X10034048Y-14846190D01*
X10053095Y-14836667D01*
X10100714Y-14836667D01*
X10119762Y-14846190D01*
X10129286Y-14855714D01*
X10138810Y-14874762D01*
X10138810Y-14922381D01*
X10129286Y-14941428D01*
X10119762Y-14950952D01*
X10100714Y-14960476D01*
X10053095Y-14960476D01*
X10034048Y-14950952D01*
X10024524Y-14941428D01*
X10205476Y-14760476D02*
X10338810Y-14760476D01*
X10253095Y-14960476D01*
X10405476Y-14760476D02*
X10405476Y-14798571D01*
X10481667Y-14760476D02*
X10481667Y-14798571D01*
X10776905Y-15036667D02*
X10767381Y-15027143D01*
X10748333Y-14998571D01*
X10738810Y-14979524D01*
X10729286Y-14950952D01*
X10719762Y-14903333D01*
X10719762Y-14865238D01*
X10729286Y-14817619D01*
X10738810Y-14789048D01*
X10748333Y-14770000D01*
X10767381Y-14741428D01*
X10776905Y-14731905D01*
X10948333Y-14760476D02*
X10853095Y-14760476D01*
X10843571Y-14855714D01*
X10853095Y-14846190D01*
X10872143Y-14836667D01*
X10919762Y-14836667D01*
X10938810Y-14846190D01*
X10948333Y-14855714D01*
X10957857Y-14874762D01*
X10957857Y-14922381D01*
X10948333Y-14941428D01*
X10938810Y-14950952D01*
X10919762Y-14960476D01*
X10872143Y-14960476D01*
X10853095Y-14950952D01*
X10843571Y-14941428D01*
X11034048Y-14779524D02*
X11043571Y-14770000D01*
X11062619Y-14760476D01*
X11110238Y-14760476D01*
X11129286Y-14770000D01*
X11138810Y-14779524D01*
X11148333Y-14798571D01*
X11148333Y-14817619D01*
X11138810Y-14846190D01*
X11024524Y-14960476D01*
X11148333Y-14960476D01*
X11386428Y-14960476D02*
X11386428Y-14760476D01*
X11472143Y-14960476D02*
X11472143Y-14855714D01*
X11462619Y-14836667D01*
X11443571Y-14827143D01*
X11415000Y-14827143D01*
X11395952Y-14836667D01*
X11386428Y-14846190D01*
X11595952Y-14960476D02*
X11576905Y-14950952D01*
X11567381Y-14941428D01*
X11557857Y-14922381D01*
X11557857Y-14865238D01*
X11567381Y-14846190D01*
X11576905Y-14836667D01*
X11595952Y-14827143D01*
X11624524Y-14827143D01*
X11643571Y-14836667D01*
X11653095Y-14846190D01*
X11662619Y-14865238D01*
X11662619Y-14922381D01*
X11653095Y-14941428D01*
X11643571Y-14950952D01*
X11624524Y-14960476D01*
X11595952Y-14960476D01*
X11776905Y-14960476D02*
X11757857Y-14950952D01*
X11748333Y-14931905D01*
X11748333Y-14760476D01*
X11929286Y-14950952D02*
X11910238Y-14960476D01*
X11872143Y-14960476D01*
X11853095Y-14950952D01*
X11843571Y-14931905D01*
X11843571Y-14855714D01*
X11853095Y-14836667D01*
X11872143Y-14827143D01*
X11910238Y-14827143D01*
X11929286Y-14836667D01*
X11938809Y-14855714D01*
X11938809Y-14874762D01*
X11843571Y-14893809D01*
X12015000Y-14950952D02*
X12034048Y-14960476D01*
X12072143Y-14960476D01*
X12091190Y-14950952D01*
X12100714Y-14931905D01*
X12100714Y-14922381D01*
X12091190Y-14903333D01*
X12072143Y-14893809D01*
X12043571Y-14893809D01*
X12024524Y-14884286D01*
X12015000Y-14865238D01*
X12015000Y-14855714D01*
X12024524Y-14836667D01*
X12043571Y-14827143D01*
X12072143Y-14827143D01*
X12091190Y-14836667D01*
X12167381Y-15036667D02*
X12176905Y-15027143D01*
X12195952Y-14998571D01*
X12205476Y-14979524D01*
X12215000Y-14950952D01*
X12224524Y-14903333D01*
X12224524Y-14865238D01*
X12215000Y-14817619D01*
X12205476Y-14789048D01*
X12195952Y-14770000D01*
X12176905Y-14741428D01*
X12167381Y-14731905D01*
D13*
X7205000Y-15134000D02*
G75*
G03*
X7205000Y-15134000I-50000J0D01*
G01*
D11*
X7567381Y-15224476D02*
X7453095Y-15224476D01*
X7510238Y-15224476D02*
X7510238Y-15024476D01*
X7491190Y-15053048D01*
X7472143Y-15072095D01*
X7453095Y-15081619D01*
X7653095Y-15205428D02*
X7662619Y-15214952D01*
X7653095Y-15224476D01*
X7643571Y-15214952D01*
X7653095Y-15205428D01*
X7653095Y-15224476D01*
X7786428Y-15024476D02*
X7805476Y-15024476D01*
X7824524Y-15034000D01*
X7834048Y-15043524D01*
X7843571Y-15062571D01*
X7853095Y-15100667D01*
X7853095Y-15148286D01*
X7843571Y-15186381D01*
X7834048Y-15205428D01*
X7824524Y-15214952D01*
X7805476Y-15224476D01*
X7786428Y-15224476D01*
X7767381Y-15214952D01*
X7757857Y-15205428D01*
X7748333Y-15186381D01*
X7738809Y-15148286D01*
X7738809Y-15100667D01*
X7748333Y-15062571D01*
X7757857Y-15043524D01*
X7767381Y-15034000D01*
X7786428Y-15024476D01*
X7976905Y-15024476D02*
X7995952Y-15024476D01*
X8015000Y-15034000D01*
X8024524Y-15043524D01*
X8034048Y-15062571D01*
X8043571Y-15100667D01*
X8043571Y-15148286D01*
X8034048Y-15186381D01*
X8024524Y-15205428D01*
X8015000Y-15214952D01*
X7995952Y-15224476D01*
X7976905Y-15224476D01*
X7957857Y-15214952D01*
X7948333Y-15205428D01*
X7938809Y-15186381D01*
X7929286Y-15148286D01*
X7929286Y-15100667D01*
X7938809Y-15062571D01*
X7948333Y-15043524D01*
X7957857Y-15034000D01*
X7976905Y-15024476D01*
X8167381Y-15024476D02*
X8186428Y-15024476D01*
X8205476Y-15034000D01*
X8215000Y-15043524D01*
X8224524Y-15062571D01*
X8234048Y-15100667D01*
X8234048Y-15148286D01*
X8224524Y-15186381D01*
X8215000Y-15205428D01*
X8205476Y-15214952D01*
X8186428Y-15224476D01*
X8167381Y-15224476D01*
X8148333Y-15214952D01*
X8138809Y-15205428D01*
X8129286Y-15186381D01*
X8119762Y-15148286D01*
X8119762Y-15100667D01*
X8129286Y-15062571D01*
X8138809Y-15043524D01*
X8148333Y-15034000D01*
X8167381Y-15024476D01*
X8319762Y-15224476D02*
X8319762Y-15091143D01*
X8319762Y-15110190D02*
X8329286Y-15100667D01*
X8348333Y-15091143D01*
X8376905Y-15091143D01*
X8395952Y-15100667D01*
X8405476Y-15119714D01*
X8405476Y-15224476D01*
X8405476Y-15119714D02*
X8415000Y-15100667D01*
X8434048Y-15091143D01*
X8462619Y-15091143D01*
X8481667Y-15100667D01*
X8491190Y-15119714D01*
X8491190Y-15224476D01*
X8586429Y-15224476D02*
X8586429Y-15091143D01*
X8586429Y-15110190D02*
X8595952Y-15100667D01*
X8615000Y-15091143D01*
X8643571Y-15091143D01*
X8662619Y-15100667D01*
X8672143Y-15119714D01*
X8672143Y-15224476D01*
X8672143Y-15119714D02*
X8681667Y-15100667D01*
X8700714Y-15091143D01*
X8729286Y-15091143D01*
X8748333Y-15100667D01*
X8757857Y-15119714D01*
X8757857Y-15224476D01*
X9148333Y-15014952D02*
X8976905Y-15272095D01*
X9405476Y-15024476D02*
X9424524Y-15024476D01*
X9443571Y-15034000D01*
X9453095Y-15043524D01*
X9462619Y-15062571D01*
X9472143Y-15100667D01*
X9472143Y-15148286D01*
X9462619Y-15186381D01*
X9453095Y-15205428D01*
X9443571Y-15214952D01*
X9424524Y-15224476D01*
X9405476Y-15224476D01*
X9386429Y-15214952D01*
X9376905Y-15205428D01*
X9367381Y-15186381D01*
X9357857Y-15148286D01*
X9357857Y-15100667D01*
X9367381Y-15062571D01*
X9376905Y-15043524D01*
X9386429Y-15034000D01*
X9405476Y-15024476D01*
X9557857Y-15205428D02*
X9567381Y-15214952D01*
X9557857Y-15224476D01*
X9548333Y-15214952D01*
X9557857Y-15205428D01*
X9557857Y-15224476D01*
X9691190Y-15024476D02*
X9710238Y-15024476D01*
X9729286Y-15034000D01*
X9738810Y-15043524D01*
X9748333Y-15062571D01*
X9757857Y-15100667D01*
X9757857Y-15148286D01*
X9748333Y-15186381D01*
X9738810Y-15205428D01*
X9729286Y-15214952D01*
X9710238Y-15224476D01*
X9691190Y-15224476D01*
X9672143Y-15214952D01*
X9662619Y-15205428D01*
X9653095Y-15186381D01*
X9643571Y-15148286D01*
X9643571Y-15100667D01*
X9653095Y-15062571D01*
X9662619Y-15043524D01*
X9672143Y-15034000D01*
X9691190Y-15024476D01*
X9824524Y-15024476D02*
X9948333Y-15024476D01*
X9881667Y-15100667D01*
X9910238Y-15100667D01*
X9929286Y-15110190D01*
X9938810Y-15119714D01*
X9948333Y-15138762D01*
X9948333Y-15186381D01*
X9938810Y-15205428D01*
X9929286Y-15214952D01*
X9910238Y-15224476D01*
X9853095Y-15224476D01*
X9834048Y-15214952D01*
X9824524Y-15205428D01*
X10043571Y-15224476D02*
X10081667Y-15224476D01*
X10100714Y-15214952D01*
X10110238Y-15205428D01*
X10129286Y-15176857D01*
X10138810Y-15138762D01*
X10138810Y-15062571D01*
X10129286Y-15043524D01*
X10119762Y-15034000D01*
X10100714Y-15024476D01*
X10062619Y-15024476D01*
X10043571Y-15034000D01*
X10034048Y-15043524D01*
X10024524Y-15062571D01*
X10024524Y-15110190D01*
X10034048Y-15129238D01*
X10043571Y-15138762D01*
X10062619Y-15148286D01*
X10100714Y-15148286D01*
X10119762Y-15138762D01*
X10129286Y-15129238D01*
X10138810Y-15110190D01*
X10310238Y-15091143D02*
X10310238Y-15224476D01*
X10262619Y-15014952D02*
X10215000Y-15157809D01*
X10338810Y-15157809D01*
X10405476Y-15024476D02*
X10405476Y-15062571D01*
X10481667Y-15024476D02*
X10481667Y-15062571D01*
X10776905Y-15300667D02*
X10767381Y-15291143D01*
X10748333Y-15262571D01*
X10738810Y-15243524D01*
X10729286Y-15214952D01*
X10719762Y-15167333D01*
X10719762Y-15129238D01*
X10729286Y-15081619D01*
X10738810Y-15053048D01*
X10748333Y-15034000D01*
X10767381Y-15005428D01*
X10776905Y-14995905D01*
X10957857Y-15224476D02*
X10843571Y-15224476D01*
X10900714Y-15224476D02*
X10900714Y-15024476D01*
X10881667Y-15053048D01*
X10862619Y-15072095D01*
X10843571Y-15081619D01*
X11081667Y-15024476D02*
X11100714Y-15024476D01*
X11119762Y-15034000D01*
X11129286Y-15043524D01*
X11138810Y-15062571D01*
X11148333Y-15100667D01*
X11148333Y-15148286D01*
X11138810Y-15186381D01*
X11129286Y-15205428D01*
X11119762Y-15214952D01*
X11100714Y-15224476D01*
X11081667Y-15224476D01*
X11062619Y-15214952D01*
X11053095Y-15205428D01*
X11043571Y-15186381D01*
X11034048Y-15148286D01*
X11034048Y-15100667D01*
X11043571Y-15062571D01*
X11053095Y-15043524D01*
X11062619Y-15034000D01*
X11081667Y-15024476D01*
X11386428Y-15224476D02*
X11386428Y-15024476D01*
X11472143Y-15224476D02*
X11472143Y-15119714D01*
X11462619Y-15100667D01*
X11443571Y-15091143D01*
X11415000Y-15091143D01*
X11395952Y-15100667D01*
X11386428Y-15110190D01*
X11595952Y-15224476D02*
X11576905Y-15214952D01*
X11567381Y-15205428D01*
X11557857Y-15186381D01*
X11557857Y-15129238D01*
X11567381Y-15110190D01*
X11576905Y-15100667D01*
X11595952Y-15091143D01*
X11624524Y-15091143D01*
X11643571Y-15100667D01*
X11653095Y-15110190D01*
X11662619Y-15129238D01*
X11662619Y-15186381D01*
X11653095Y-15205428D01*
X11643571Y-15214952D01*
X11624524Y-15224476D01*
X11595952Y-15224476D01*
X11776905Y-15224476D02*
X11757857Y-15214952D01*
X11748333Y-15195905D01*
X11748333Y-15024476D01*
X11929286Y-15214952D02*
X11910238Y-15224476D01*
X11872143Y-15224476D01*
X11853095Y-15214952D01*
X11843571Y-15195905D01*
X11843571Y-15119714D01*
X11853095Y-15100667D01*
X11872143Y-15091143D01*
X11910238Y-15091143D01*
X11929286Y-15100667D01*
X11938809Y-15119714D01*
X11938809Y-15138762D01*
X11843571Y-15157809D01*
X12015000Y-15214952D02*
X12034048Y-15224476D01*
X12072143Y-15224476D01*
X12091190Y-15214952D01*
X12100714Y-15195905D01*
X12100714Y-15186381D01*
X12091190Y-15167333D01*
X12072143Y-15157809D01*
X12043571Y-15157809D01*
X12024524Y-15148286D01*
X12015000Y-15129238D01*
X12015000Y-15119714D01*
X12024524Y-15100667D01*
X12043571Y-15091143D01*
X12072143Y-15091143D01*
X12091190Y-15100667D01*
X12167381Y-15300667D02*
X12176905Y-15291143D01*
X12195952Y-15262571D01*
X12205476Y-15243524D01*
X12215000Y-15214952D01*
X12224524Y-15167333D01*
X12224524Y-15129238D01*
X12215000Y-15081619D01*
X12205476Y-15053048D01*
X12195952Y-15034000D01*
X12176905Y-15005428D01*
X12167381Y-14995905D01*
D14*
X7130000Y-15323000D02*
X7130000Y-15473000D01*
X7055000Y-15398000D02*
X7205000Y-15398000D01*
D11*
X7567381Y-15488476D02*
X7453095Y-15488476D01*
X7510238Y-15488476D02*
X7510238Y-15288476D01*
X7491190Y-15317048D01*
X7472143Y-15336095D01*
X7453095Y-15345619D01*
X7653095Y-15469428D02*
X7662619Y-15478952D01*
X7653095Y-15488476D01*
X7643571Y-15478952D01*
X7653095Y-15469428D01*
X7653095Y-15488476D01*
X7843571Y-15288476D02*
X7748333Y-15288476D01*
X7738809Y-15383714D01*
X7748333Y-15374190D01*
X7767381Y-15364667D01*
X7815000Y-15364667D01*
X7834048Y-15374190D01*
X7843571Y-15383714D01*
X7853095Y-15402762D01*
X7853095Y-15450381D01*
X7843571Y-15469428D01*
X7834048Y-15478952D01*
X7815000Y-15488476D01*
X7767381Y-15488476D01*
X7748333Y-15478952D01*
X7738809Y-15469428D01*
X7976905Y-15288476D02*
X7995952Y-15288476D01*
X8015000Y-15298000D01*
X8024524Y-15307524D01*
X8034048Y-15326571D01*
X8043571Y-15364667D01*
X8043571Y-15412286D01*
X8034048Y-15450381D01*
X8024524Y-15469428D01*
X8015000Y-15478952D01*
X7995952Y-15488476D01*
X7976905Y-15488476D01*
X7957857Y-15478952D01*
X7948333Y-15469428D01*
X7938809Y-15450381D01*
X7929286Y-15412286D01*
X7929286Y-15364667D01*
X7938809Y-15326571D01*
X7948333Y-15307524D01*
X7957857Y-15298000D01*
X7976905Y-15288476D01*
X8167381Y-15288476D02*
X8186428Y-15288476D01*
X8205476Y-15298000D01*
X8215000Y-15307524D01*
X8224524Y-15326571D01*
X8234048Y-15364667D01*
X8234048Y-15412286D01*
X8224524Y-15450381D01*
X8215000Y-15469428D01*
X8205476Y-15478952D01*
X8186428Y-15488476D01*
X8167381Y-15488476D01*
X8148333Y-15478952D01*
X8138809Y-15469428D01*
X8129286Y-15450381D01*
X8119762Y-15412286D01*
X8119762Y-15364667D01*
X8129286Y-15326571D01*
X8138809Y-15307524D01*
X8148333Y-15298000D01*
X8167381Y-15288476D01*
X8319762Y-15488476D02*
X8319762Y-15355143D01*
X8319762Y-15374190D02*
X8329286Y-15364667D01*
X8348333Y-15355143D01*
X8376905Y-15355143D01*
X8395952Y-15364667D01*
X8405476Y-15383714D01*
X8405476Y-15488476D01*
X8405476Y-15383714D02*
X8415000Y-15364667D01*
X8434048Y-15355143D01*
X8462619Y-15355143D01*
X8481667Y-15364667D01*
X8491190Y-15383714D01*
X8491190Y-15488476D01*
X8586429Y-15488476D02*
X8586429Y-15355143D01*
X8586429Y-15374190D02*
X8595952Y-15364667D01*
X8615000Y-15355143D01*
X8643571Y-15355143D01*
X8662619Y-15364667D01*
X8672143Y-15383714D01*
X8672143Y-15488476D01*
X8672143Y-15383714D02*
X8681667Y-15364667D01*
X8700714Y-15355143D01*
X8729286Y-15355143D01*
X8748333Y-15364667D01*
X8757857Y-15383714D01*
X8757857Y-15488476D01*
X9148333Y-15278952D02*
X8976905Y-15536095D01*
X9405476Y-15288476D02*
X9424524Y-15288476D01*
X9443571Y-15298000D01*
X9453095Y-15307524D01*
X9462619Y-15326571D01*
X9472143Y-15364667D01*
X9472143Y-15412286D01*
X9462619Y-15450381D01*
X9453095Y-15469428D01*
X9443571Y-15478952D01*
X9424524Y-15488476D01*
X9405476Y-15488476D01*
X9386429Y-15478952D01*
X9376905Y-15469428D01*
X9367381Y-15450381D01*
X9357857Y-15412286D01*
X9357857Y-15364667D01*
X9367381Y-15326571D01*
X9376905Y-15307524D01*
X9386429Y-15298000D01*
X9405476Y-15288476D01*
X9557857Y-15469428D02*
X9567381Y-15478952D01*
X9557857Y-15488476D01*
X9548333Y-15478952D01*
X9557857Y-15469428D01*
X9557857Y-15488476D01*
X9691190Y-15288476D02*
X9710238Y-15288476D01*
X9729286Y-15298000D01*
X9738810Y-15307524D01*
X9748333Y-15326571D01*
X9757857Y-15364667D01*
X9757857Y-15412286D01*
X9748333Y-15450381D01*
X9738810Y-15469428D01*
X9729286Y-15478952D01*
X9710238Y-15488476D01*
X9691190Y-15488476D01*
X9672143Y-15478952D01*
X9662619Y-15469428D01*
X9653095Y-15450381D01*
X9643571Y-15412286D01*
X9643571Y-15364667D01*
X9653095Y-15326571D01*
X9662619Y-15307524D01*
X9672143Y-15298000D01*
X9691190Y-15288476D01*
X9938810Y-15288476D02*
X9843571Y-15288476D01*
X9834048Y-15383714D01*
X9843571Y-15374190D01*
X9862619Y-15364667D01*
X9910238Y-15364667D01*
X9929286Y-15374190D01*
X9938810Y-15383714D01*
X9948333Y-15402762D01*
X9948333Y-15450381D01*
X9938810Y-15469428D01*
X9929286Y-15478952D01*
X9910238Y-15488476D01*
X9862619Y-15488476D01*
X9843571Y-15478952D01*
X9834048Y-15469428D01*
X10043571Y-15488476D02*
X10081667Y-15488476D01*
X10100714Y-15478952D01*
X10110238Y-15469428D01*
X10129286Y-15440857D01*
X10138810Y-15402762D01*
X10138810Y-15326571D01*
X10129286Y-15307524D01*
X10119762Y-15298000D01*
X10100714Y-15288476D01*
X10062619Y-15288476D01*
X10043571Y-15298000D01*
X10034048Y-15307524D01*
X10024524Y-15326571D01*
X10024524Y-15374190D01*
X10034048Y-15393238D01*
X10043571Y-15402762D01*
X10062619Y-15412286D01*
X10100714Y-15412286D01*
X10119762Y-15402762D01*
X10129286Y-15393238D01*
X10138810Y-15374190D01*
X10329286Y-15488476D02*
X10215000Y-15488476D01*
X10272143Y-15488476D02*
X10272143Y-15288476D01*
X10253095Y-15317048D01*
X10234048Y-15336095D01*
X10215000Y-15345619D01*
X10405476Y-15288476D02*
X10405476Y-15326571D01*
X10481667Y-15288476D02*
X10481667Y-15326571D01*
X10776905Y-15564667D02*
X10767381Y-15555143D01*
X10748333Y-15526571D01*
X10738810Y-15507524D01*
X10729286Y-15478952D01*
X10719762Y-15431333D01*
X10719762Y-15393238D01*
X10729286Y-15345619D01*
X10738810Y-15317048D01*
X10748333Y-15298000D01*
X10767381Y-15269428D01*
X10776905Y-15259905D01*
X10843571Y-15307524D02*
X10853095Y-15298000D01*
X10872143Y-15288476D01*
X10919762Y-15288476D01*
X10938810Y-15298000D01*
X10948333Y-15307524D01*
X10957857Y-15326571D01*
X10957857Y-15345619D01*
X10948333Y-15374190D01*
X10834048Y-15488476D01*
X10957857Y-15488476D01*
X11195952Y-15488476D02*
X11195952Y-15288476D01*
X11281667Y-15488476D02*
X11281667Y-15383714D01*
X11272143Y-15364667D01*
X11253095Y-15355143D01*
X11224524Y-15355143D01*
X11205476Y-15364667D01*
X11195952Y-15374190D01*
X11405476Y-15488476D02*
X11386428Y-15478952D01*
X11376905Y-15469428D01*
X11367381Y-15450381D01*
X11367381Y-15393238D01*
X11376905Y-15374190D01*
X11386428Y-15364667D01*
X11405476Y-15355143D01*
X11434048Y-15355143D01*
X11453095Y-15364667D01*
X11462619Y-15374190D01*
X11472143Y-15393238D01*
X11472143Y-15450381D01*
X11462619Y-15469428D01*
X11453095Y-15478952D01*
X11434048Y-15488476D01*
X11405476Y-15488476D01*
X11586428Y-15488476D02*
X11567381Y-15478952D01*
X11557857Y-15459905D01*
X11557857Y-15288476D01*
X11738809Y-15478952D02*
X11719762Y-15488476D01*
X11681667Y-15488476D01*
X11662619Y-15478952D01*
X11653095Y-15459905D01*
X11653095Y-15383714D01*
X11662619Y-15364667D01*
X11681667Y-15355143D01*
X11719762Y-15355143D01*
X11738809Y-15364667D01*
X11748333Y-15383714D01*
X11748333Y-15402762D01*
X11653095Y-15421809D01*
X11824524Y-15478952D02*
X11843571Y-15488476D01*
X11881667Y-15488476D01*
X11900714Y-15478952D01*
X11910238Y-15459905D01*
X11910238Y-15450381D01*
X11900714Y-15431333D01*
X11881667Y-15421809D01*
X11853095Y-15421809D01*
X11834048Y-15412286D01*
X11824524Y-15393238D01*
X11824524Y-15383714D01*
X11834048Y-15364667D01*
X11853095Y-15355143D01*
X11881667Y-15355143D01*
X11900714Y-15364667D01*
X11976905Y-15564667D02*
X11986428Y-15555143D01*
X12005476Y-15526571D01*
X12015000Y-15507524D01*
X12024524Y-15478952D01*
X12034048Y-15431333D01*
X12034048Y-15393238D01*
X12024524Y-15345619D01*
X12015000Y-15317048D01*
X12005476Y-15298000D01*
X11986428Y-15269428D01*
X11976905Y-15259905D01*
X7175711Y-15738711D02*
X7175711Y-15597289D01*
X7034289Y-15597289D01*
X7034289Y-15738711D01*
X7175711Y-15738711D01*
X7443571Y-15558476D02*
X7567381Y-15558476D01*
X7500714Y-15634667D01*
X7529286Y-15634667D01*
X7548333Y-15644190D01*
X7557857Y-15653714D01*
X7567381Y-15672762D01*
X7567381Y-15720381D01*
X7557857Y-15739428D01*
X7548333Y-15748952D01*
X7529286Y-15758476D01*
X7472143Y-15758476D01*
X7453095Y-15748952D01*
X7443571Y-15739428D01*
X7653095Y-15739428D02*
X7662619Y-15748952D01*
X7653095Y-15758476D01*
X7643571Y-15748952D01*
X7653095Y-15739428D01*
X7653095Y-15758476D01*
X7738809Y-15577524D02*
X7748333Y-15568000D01*
X7767381Y-15558476D01*
X7815000Y-15558476D01*
X7834048Y-15568000D01*
X7843571Y-15577524D01*
X7853095Y-15596571D01*
X7853095Y-15615619D01*
X7843571Y-15644190D01*
X7729286Y-15758476D01*
X7853095Y-15758476D01*
X7976905Y-15558476D02*
X7995952Y-15558476D01*
X8015000Y-15568000D01*
X8024524Y-15577524D01*
X8034048Y-15596571D01*
X8043571Y-15634667D01*
X8043571Y-15682286D01*
X8034048Y-15720381D01*
X8024524Y-15739428D01*
X8015000Y-15748952D01*
X7995952Y-15758476D01*
X7976905Y-15758476D01*
X7957857Y-15748952D01*
X7948333Y-15739428D01*
X7938809Y-15720381D01*
X7929286Y-15682286D01*
X7929286Y-15634667D01*
X7938809Y-15596571D01*
X7948333Y-15577524D01*
X7957857Y-15568000D01*
X7976905Y-15558476D01*
X8167381Y-15558476D02*
X8186428Y-15558476D01*
X8205476Y-15568000D01*
X8215000Y-15577524D01*
X8224524Y-15596571D01*
X8234048Y-15634667D01*
X8234048Y-15682286D01*
X8224524Y-15720381D01*
X8215000Y-15739428D01*
X8205476Y-15748952D01*
X8186428Y-15758476D01*
X8167381Y-15758476D01*
X8148333Y-15748952D01*
X8138809Y-15739428D01*
X8129286Y-15720381D01*
X8119762Y-15682286D01*
X8119762Y-15634667D01*
X8129286Y-15596571D01*
X8138809Y-15577524D01*
X8148333Y-15568000D01*
X8167381Y-15558476D01*
X8319762Y-15758476D02*
X8319762Y-15625143D01*
X8319762Y-15644190D02*
X8329286Y-15634667D01*
X8348333Y-15625143D01*
X8376905Y-15625143D01*
X8395952Y-15634667D01*
X8405476Y-15653714D01*
X8405476Y-15758476D01*
X8405476Y-15653714D02*
X8415000Y-15634667D01*
X8434048Y-15625143D01*
X8462619Y-15625143D01*
X8481667Y-15634667D01*
X8491190Y-15653714D01*
X8491190Y-15758476D01*
X8586429Y-15758476D02*
X8586429Y-15625143D01*
X8586429Y-15644190D02*
X8595952Y-15634667D01*
X8615000Y-15625143D01*
X8643571Y-15625143D01*
X8662619Y-15634667D01*
X8672143Y-15653714D01*
X8672143Y-15758476D01*
X8672143Y-15653714D02*
X8681667Y-15634667D01*
X8700714Y-15625143D01*
X8729286Y-15625143D01*
X8748333Y-15634667D01*
X8757857Y-15653714D01*
X8757857Y-15758476D01*
X9148333Y-15548952D02*
X8976905Y-15806095D01*
X9405476Y-15558476D02*
X9424524Y-15558476D01*
X9443571Y-15568000D01*
X9453095Y-15577524D01*
X9462619Y-15596571D01*
X9472143Y-15634667D01*
X9472143Y-15682286D01*
X9462619Y-15720381D01*
X9453095Y-15739428D01*
X9443571Y-15748952D01*
X9424524Y-15758476D01*
X9405476Y-15758476D01*
X9386429Y-15748952D01*
X9376905Y-15739428D01*
X9367381Y-15720381D01*
X9357857Y-15682286D01*
X9357857Y-15634667D01*
X9367381Y-15596571D01*
X9376905Y-15577524D01*
X9386429Y-15568000D01*
X9405476Y-15558476D01*
X9557857Y-15739428D02*
X9567381Y-15748952D01*
X9557857Y-15758476D01*
X9548333Y-15748952D01*
X9557857Y-15739428D01*
X9557857Y-15758476D01*
X9757857Y-15758476D02*
X9643571Y-15758476D01*
X9700714Y-15758476D02*
X9700714Y-15558476D01*
X9681667Y-15587048D01*
X9662619Y-15606095D01*
X9643571Y-15615619D01*
X9834048Y-15577524D02*
X9843571Y-15568000D01*
X9862619Y-15558476D01*
X9910238Y-15558476D01*
X9929286Y-15568000D01*
X9938810Y-15577524D01*
X9948333Y-15596571D01*
X9948333Y-15615619D01*
X9938810Y-15644190D01*
X9824524Y-15758476D01*
X9948333Y-15758476D01*
X10119762Y-15558476D02*
X10081667Y-15558476D01*
X10062619Y-15568000D01*
X10053095Y-15577524D01*
X10034048Y-15606095D01*
X10024524Y-15644190D01*
X10024524Y-15720381D01*
X10034048Y-15739428D01*
X10043571Y-15748952D01*
X10062619Y-15758476D01*
X10100714Y-15758476D01*
X10119762Y-15748952D01*
X10129286Y-15739428D01*
X10138810Y-15720381D01*
X10138810Y-15672762D01*
X10129286Y-15653714D01*
X10119762Y-15644190D01*
X10100714Y-15634667D01*
X10062619Y-15634667D01*
X10043571Y-15644190D01*
X10034048Y-15653714D01*
X10024524Y-15672762D01*
X10262619Y-15558476D02*
X10281667Y-15558476D01*
X10300714Y-15568000D01*
X10310238Y-15577524D01*
X10319762Y-15596571D01*
X10329286Y-15634667D01*
X10329286Y-15682286D01*
X10319762Y-15720381D01*
X10310238Y-15739428D01*
X10300714Y-15748952D01*
X10281667Y-15758476D01*
X10262619Y-15758476D01*
X10243571Y-15748952D01*
X10234048Y-15739428D01*
X10224524Y-15720381D01*
X10215000Y-15682286D01*
X10215000Y-15634667D01*
X10224524Y-15596571D01*
X10234048Y-15577524D01*
X10243571Y-15568000D01*
X10262619Y-15558476D01*
X10405476Y-15558476D02*
X10405476Y-15596571D01*
X10481667Y-15558476D02*
X10481667Y-15596571D01*
X10776905Y-15834667D02*
X10767381Y-15825143D01*
X10748333Y-15796571D01*
X10738810Y-15777524D01*
X10729286Y-15748952D01*
X10719762Y-15701333D01*
X10719762Y-15663238D01*
X10729286Y-15615619D01*
X10738810Y-15587048D01*
X10748333Y-15568000D01*
X10767381Y-15539428D01*
X10776905Y-15529905D01*
X10938810Y-15625143D02*
X10938810Y-15758476D01*
X10891190Y-15548952D02*
X10843571Y-15691809D01*
X10967381Y-15691809D01*
X11195952Y-15758476D02*
X11195952Y-15558476D01*
X11281667Y-15758476D02*
X11281667Y-15653714D01*
X11272143Y-15634667D01*
X11253095Y-15625143D01*
X11224524Y-15625143D01*
X11205476Y-15634667D01*
X11195952Y-15644190D01*
X11405476Y-15758476D02*
X11386428Y-15748952D01*
X11376905Y-15739428D01*
X11367381Y-15720381D01*
X11367381Y-15663238D01*
X11376905Y-15644190D01*
X11386428Y-15634667D01*
X11405476Y-15625143D01*
X11434048Y-15625143D01*
X11453095Y-15634667D01*
X11462619Y-15644190D01*
X11472143Y-15663238D01*
X11472143Y-15720381D01*
X11462619Y-15739428D01*
X11453095Y-15748952D01*
X11434048Y-15758476D01*
X11405476Y-15758476D01*
X11586428Y-15758476D02*
X11567381Y-15748952D01*
X11557857Y-15729905D01*
X11557857Y-15558476D01*
X11738809Y-15748952D02*
X11719762Y-15758476D01*
X11681667Y-15758476D01*
X11662619Y-15748952D01*
X11653095Y-15729905D01*
X11653095Y-15653714D01*
X11662619Y-15634667D01*
X11681667Y-15625143D01*
X11719762Y-15625143D01*
X11738809Y-15634667D01*
X11748333Y-15653714D01*
X11748333Y-15672762D01*
X11653095Y-15691809D01*
X11824524Y-15748952D02*
X11843571Y-15758476D01*
X11881667Y-15758476D01*
X11900714Y-15748952D01*
X11910238Y-15729905D01*
X11910238Y-15720381D01*
X11900714Y-15701333D01*
X11881667Y-15691809D01*
X11853095Y-15691809D01*
X11834048Y-15682286D01*
X11824524Y-15663238D01*
X11824524Y-15653714D01*
X11834048Y-15634667D01*
X11853095Y-15625143D01*
X11881667Y-15625143D01*
X11900714Y-15634667D01*
X11976905Y-15834667D02*
X11986428Y-15825143D01*
X12005476Y-15796571D01*
X12015000Y-15777524D01*
X12024524Y-15748952D01*
X12034048Y-15701333D01*
X12034048Y-15663238D01*
X12024524Y-15615619D01*
X12015000Y-15587048D01*
X12005476Y-15568000D01*
X11986428Y-15539428D01*
X11976905Y-15529905D01*
M02*
