M48
; DRILL file {KiCad 7.0.1-0} date 2023 March 19, Sunday 01:48:48
; FORMAT={-:-/ absolute / metric / decimal}
; #@! TF.CreationDate,2023-03-19T01:48:48-04:00
; #@! TF.GenerationSoftware,Kicad,Pcbnew,7.0.1-0
; #@! TF.FileFunction,Plated,1,2,PTH
FMAT,2
METRIC
; #@! TA.AperFunction,Plated,PTH,ViaDrill
T1C0.400
; #@! TA.AperFunction,Plated,PTH,ComponentDrill
T2C2.000
; #@! TA.AperFunction,Plated,PTH,ComponentDrill
T3C3.200
%
G90
G05
T1
X88.1Y-119.3
X88.1Y-120.6
X88.2Y-121.9
X88.9Y-119.8
X89.0Y-121.3
X89.3Y-118.9
X89.7Y-122.2
X92.6Y-124.0
X114.4Y-56.6
X114.5Y-55.24
X115.1Y-53.44
X115.8Y-51.94
X116.2Y-58.6
X117.0Y-52.64
X117.3Y-58.2
X118.4Y-52.04
X118.5Y-58.34
X118.9Y-53.34
X119.0Y-57.14
X119.6Y-55.24
X119.8Y-52.34
X120.0Y-54.04
X120.0Y-58.04
X120.2Y-56.64
X120.9Y-53.24
X120.9Y-55.14
X139.8Y-104.3
X140.4Y-106.2
X141.2Y-101.6
X142.3Y-106.9
X142.4Y-101.6
X143.6Y-101.2
X143.8Y-107.3
X144.2Y-102.4
X144.3Y-106.2
X144.9Y-104.3
X145.1Y-101.7
X145.2Y-103.1
X145.2Y-105.5
X145.2Y-106.9
X146.1Y-104.3
X146.3Y-105.8
T2
X79.7Y-55.58
X79.7Y-104.2
X88.7Y-55.58
X88.7Y-104.2
X107.768Y-104.348
X108.0Y-55.58
X116.768Y-104.348
X117.0Y-55.58
X133.3Y-104.2
X135.1Y-55.58
X142.3Y-104.2
X144.1Y-55.58
T3
X84.6Y-42.75
X84.6Y-138.25
X139.6Y-42.75
X139.6Y-138.25
T0
M30
