G04 #@! TF.GenerationSoftware,KiCad,Pcbnew,7.0.1-0*
G04 #@! TF.CreationDate,2023-03-19T01:48:45-04:00*
G04 #@! TF.ProjectId,solar-cell-pcbs-usbUPDATING,736f6c61-722d-4636-956c-6c2d70636273,3*
G04 #@! TF.SameCoordinates,Original*
G04 #@! TF.FileFunction,Copper,L2,Bot*
G04 #@! TF.FilePolarity,Positive*
%FSLAX46Y46*%
G04 Gerber Fmt 4.6, Leading zero omitted, Abs format (unit mm)*
G04 Created by KiCad (PCBNEW 7.0.1-0) date 2023-03-19 01:48:45*
%MOMM*%
%LPD*%
G01*
G04 APERTURE LIST*
G04 #@! TA.AperFunction,ComponentPad*
%ADD10C,5.600000*%
G04 #@! TD*
G04 #@! TA.AperFunction,ComponentPad*
%ADD11C,3.000000*%
G04 #@! TD*
G04 #@! TA.AperFunction,SMDPad,CuDef*
%ADD12R,1.100000X1.450000*%
G04 #@! TD*
G04 #@! TA.AperFunction,SMDPad,CuDef*
%ADD13R,1.350000X2.899999*%
G04 #@! TD*
G04 #@! TA.AperFunction,ViaPad*
%ADD14C,0.800000*%
G04 #@! TD*
G04 #@! TA.AperFunction,Conductor*
%ADD15C,0.500000*%
G04 #@! TD*
G04 APERTURE END LIST*
D10*
X84600000Y-42750000D03*
D11*
X107768000Y-104348000D03*
X116768000Y-104348000D03*
X133300000Y-104200000D03*
X142300000Y-104200000D03*
D10*
X139600000Y-138250000D03*
D11*
X79700000Y-104200000D03*
X88700000Y-104200000D03*
X135100000Y-55580000D03*
X144100000Y-55580000D03*
D10*
X84600000Y-138250000D03*
D11*
X79700000Y-55580000D03*
X88700000Y-55580000D03*
D10*
X139600000Y-42750000D03*
D11*
X108000000Y-55580000D03*
X117000000Y-55580000D03*
D12*
X90605000Y-120420000D03*
X92605001Y-120420000D03*
D13*
X87710002Y-114445001D03*
X95499997Y-114445001D03*
D14*
X146100000Y-104300000D03*
X145200000Y-106900000D03*
X144300000Y-106200000D03*
X142400000Y-101600000D03*
X120000000Y-58040000D03*
X144200000Y-102400000D03*
X120900000Y-53240000D03*
X141200000Y-101600000D03*
X117300000Y-58200000D03*
X118400000Y-52040000D03*
X120900000Y-55140000D03*
X116200000Y-58600000D03*
X118900000Y-53340000D03*
X89300000Y-118900000D03*
X88100000Y-120600000D03*
X114500000Y-55240000D03*
X115100000Y-53440000D03*
X142300000Y-106900000D03*
X120200000Y-56640000D03*
X88200000Y-121900000D03*
X119600000Y-55240000D03*
X89000000Y-121300000D03*
X145200000Y-105500000D03*
X120000000Y-54040000D03*
X88100000Y-119300000D03*
X144900000Y-104300000D03*
X115800000Y-51940000D03*
X140400000Y-106200000D03*
X119000000Y-57140000D03*
X88900000Y-119800000D03*
X117000000Y-52640000D03*
X118500000Y-58340000D03*
X139800000Y-104300000D03*
X145200000Y-103100000D03*
X114400000Y-56600000D03*
X89700000Y-122200000D03*
X143800000Y-107300000D03*
X119800000Y-52340000D03*
X145100000Y-101700000D03*
X143600000Y-101200000D03*
X146300000Y-105800000D03*
X92600000Y-124000000D03*
D15*
X88700000Y-95200000D02*
X88700000Y-55580000D01*
X79700000Y-104200000D02*
X88700000Y-95200000D01*
X108000000Y-84900000D02*
X108000000Y-55580000D01*
X88700000Y-104200000D02*
X108000000Y-84900000D01*
X92605001Y-123994999D02*
X92605001Y-120420000D01*
G04 #@! TA.AperFunction,Conductor*
G36*
X152026500Y-38777381D02*
G01*
X152072619Y-38823500D01*
X152089500Y-38886500D01*
X152089500Y-142113500D01*
X152072619Y-142176500D01*
X152026500Y-142222619D01*
X151963500Y-142239500D01*
X143602088Y-142239500D01*
X135602088Y-142239500D01*
X88602088Y-142239500D01*
X80602088Y-142239500D01*
X72236500Y-142239500D01*
X72173500Y-142222619D01*
X72127381Y-142176500D01*
X72110500Y-142113500D01*
X72110500Y-140764706D01*
X82444502Y-140764706D01*
X82455307Y-140774940D01*
X82740860Y-140992013D01*
X83048233Y-141176953D01*
X83373782Y-141327568D01*
X83713715Y-141442105D01*
X84064040Y-141519217D01*
X84420642Y-141558000D01*
X84779358Y-141558000D01*
X85135959Y-141519217D01*
X85486284Y-141442105D01*
X85826217Y-141327568D01*
X86151766Y-141176953D01*
X86459139Y-140992013D01*
X86744693Y-140774939D01*
X86755496Y-140764706D01*
X137444502Y-140764706D01*
X137455307Y-140774940D01*
X137740860Y-140992013D01*
X138048233Y-141176953D01*
X138373782Y-141327568D01*
X138713715Y-141442105D01*
X139064040Y-141519217D01*
X139420642Y-141558000D01*
X139779358Y-141558000D01*
X140135959Y-141519217D01*
X140486284Y-141442105D01*
X140826217Y-141327568D01*
X141151766Y-141176953D01*
X141459139Y-140992013D01*
X141744693Y-140774939D01*
X141755496Y-140764706D01*
X139600001Y-138609210D01*
X139599999Y-138609210D01*
X137444502Y-140764706D01*
X86755496Y-140764706D01*
X84600001Y-138609210D01*
X84599999Y-138609210D01*
X82444502Y-140764706D01*
X72110500Y-140764706D01*
X72110500Y-138249999D01*
X81287140Y-138249999D01*
X81306561Y-138608183D01*
X81364593Y-138962166D01*
X81460557Y-139307797D01*
X81593331Y-139641032D01*
X81761352Y-139957955D01*
X81962655Y-140254854D01*
X82088168Y-140402620D01*
X84240789Y-138250001D01*
X84959210Y-138250001D01*
X87111831Y-140402620D01*
X87237344Y-140254854D01*
X87438647Y-139957955D01*
X87606668Y-139641032D01*
X87739442Y-139307797D01*
X87835406Y-138962166D01*
X87893438Y-138608183D01*
X87912859Y-138250000D01*
X136287140Y-138250000D01*
X136306561Y-138608183D01*
X136364593Y-138962166D01*
X136460557Y-139307797D01*
X136593331Y-139641032D01*
X136761352Y-139957955D01*
X136962655Y-140254854D01*
X137088168Y-140402620D01*
X139240789Y-138250000D01*
X139959210Y-138250000D01*
X142111831Y-140402620D01*
X142237344Y-140254854D01*
X142438647Y-139957955D01*
X142606668Y-139641032D01*
X142739442Y-139307797D01*
X142835406Y-138962166D01*
X142893438Y-138608183D01*
X142912859Y-138250000D01*
X142893438Y-137891816D01*
X142835406Y-137537833D01*
X142739442Y-137192202D01*
X142606668Y-136858967D01*
X142438647Y-136542044D01*
X142237341Y-136245140D01*
X142111831Y-136097377D01*
X139959210Y-138249998D01*
X139959210Y-138250000D01*
X139240789Y-138250000D01*
X139240789Y-138249998D01*
X137088167Y-136097377D01*
X137088166Y-136097378D01*
X136962658Y-136245139D01*
X136761352Y-136542044D01*
X136593331Y-136858967D01*
X136460557Y-137192202D01*
X136364593Y-137537833D01*
X136306561Y-137891816D01*
X136287140Y-138250000D01*
X87912859Y-138250000D01*
X87912859Y-138249999D01*
X87893438Y-137891816D01*
X87835406Y-137537833D01*
X87739442Y-137192202D01*
X87606668Y-136858967D01*
X87438647Y-136542044D01*
X87237341Y-136245140D01*
X87111831Y-136097377D01*
X84959210Y-138249999D01*
X84959210Y-138250001D01*
X84240789Y-138250001D01*
X84240789Y-138249999D01*
X82088167Y-136097377D01*
X82088166Y-136097378D01*
X81962658Y-136245139D01*
X81761352Y-136542044D01*
X81593331Y-136858967D01*
X81460557Y-137192202D01*
X81364593Y-137537833D01*
X81306561Y-137891816D01*
X81287140Y-138249999D01*
X72110500Y-138249999D01*
X72110500Y-135735292D01*
X82444502Y-135735292D01*
X84599999Y-137890789D01*
X84600001Y-137890789D01*
X86755496Y-135735292D01*
X137444502Y-135735292D01*
X139599999Y-137890789D01*
X139600001Y-137890789D01*
X141755496Y-135735292D01*
X141744692Y-135725059D01*
X141459139Y-135507986D01*
X141151766Y-135323046D01*
X140826217Y-135172431D01*
X140486284Y-135057894D01*
X140135959Y-134980782D01*
X139779358Y-134942000D01*
X139420642Y-134942000D01*
X139064040Y-134980782D01*
X138713715Y-135057894D01*
X138373782Y-135172431D01*
X138048233Y-135323046D01*
X137740860Y-135507986D01*
X137455303Y-135725062D01*
X137444502Y-135735292D01*
X86755496Y-135735292D01*
X86744692Y-135725059D01*
X86459139Y-135507986D01*
X86151766Y-135323046D01*
X85826217Y-135172431D01*
X85486284Y-135057894D01*
X85135959Y-134980782D01*
X84779358Y-134942000D01*
X84420642Y-134942000D01*
X84064040Y-134980782D01*
X83713715Y-135057894D01*
X83373782Y-135172431D01*
X83048233Y-135323046D01*
X82740860Y-135507986D01*
X82455303Y-135725062D01*
X82444502Y-135735292D01*
X72110500Y-135735292D01*
X72110500Y-120674000D01*
X89547000Y-120674000D01*
X89547000Y-121193589D01*
X89553505Y-121254093D01*
X89604554Y-121390962D01*
X89692095Y-121507904D01*
X89809037Y-121595445D01*
X89945906Y-121646494D01*
X90006411Y-121653000D01*
X90351000Y-121653000D01*
X90859000Y-121653000D01*
X91203589Y-121653000D01*
X91264093Y-121646494D01*
X91400962Y-121595445D01*
X91529074Y-121499542D01*
X91577800Y-121477290D01*
X91631366Y-121477290D01*
X91680092Y-121499542D01*
X91796010Y-121586318D01*
X91833174Y-121630787D01*
X91846501Y-121687186D01*
X91846501Y-123454339D01*
X91829620Y-123517337D01*
X91798517Y-123571210D01*
X91765471Y-123628446D01*
X91706458Y-123810070D01*
X91686496Y-123999999D01*
X91706458Y-124189929D01*
X91765472Y-124371556D01*
X91860958Y-124536942D01*
X91860960Y-124536944D01*
X91988747Y-124678866D01*
X92143248Y-124791118D01*
X92317712Y-124868794D01*
X92504513Y-124908500D01*
X92695485Y-124908500D01*
X92695487Y-124908500D01*
X92882288Y-124868794D01*
X93056752Y-124791118D01*
X93211253Y-124678866D01*
X93339040Y-124536944D01*
X93434527Y-124371556D01*
X93493542Y-124189928D01*
X93513504Y-124000000D01*
X93493542Y-123810072D01*
X93434527Y-123628444D01*
X93380382Y-123534662D01*
X93363501Y-123471662D01*
X93363501Y-121687186D01*
X93376829Y-121630786D01*
X93413992Y-121586318D01*
X93518262Y-121508261D01*
X93605889Y-121391205D01*
X93605888Y-121391205D01*
X93605890Y-121391204D01*
X93656990Y-121254201D01*
X93663501Y-121193638D01*
X93663501Y-119646362D01*
X93656990Y-119585799D01*
X93605890Y-119448796D01*
X93541447Y-119362710D01*
X93518262Y-119331738D01*
X93401206Y-119244111D01*
X93332703Y-119218561D01*
X93264202Y-119193011D01*
X93203639Y-119186500D01*
X92006363Y-119186500D01*
X91945800Y-119193011D01*
X91808795Y-119244111D01*
X91680093Y-119340457D01*
X91631368Y-119362709D01*
X91577801Y-119362710D01*
X91529075Y-119340458D01*
X91400960Y-119244553D01*
X91264093Y-119193505D01*
X91203589Y-119187000D01*
X90859000Y-119187000D01*
X90859000Y-121653000D01*
X90351000Y-121653000D01*
X90351000Y-120674000D01*
X89547000Y-120674000D01*
X72110500Y-120674000D01*
X72110500Y-120166000D01*
X89547000Y-120166000D01*
X90351000Y-120166000D01*
X90351000Y-119187000D01*
X90006411Y-119187000D01*
X89945906Y-119193505D01*
X89809037Y-119244554D01*
X89692095Y-119332095D01*
X89604554Y-119449037D01*
X89553505Y-119585906D01*
X89547000Y-119646411D01*
X89547000Y-120166000D01*
X72110500Y-120166000D01*
X72110500Y-115943639D01*
X86526502Y-115943639D01*
X86533013Y-116004201D01*
X86584113Y-116141206D01*
X86671740Y-116258262D01*
X86788796Y-116345889D01*
X86788797Y-116345889D01*
X86788798Y-116345890D01*
X86925801Y-116396990D01*
X86986364Y-116403501D01*
X88433640Y-116403501D01*
X88494203Y-116396990D01*
X88631206Y-116345890D01*
X88748263Y-116258262D01*
X88835891Y-116141205D01*
X88886991Y-116004202D01*
X88893502Y-115943639D01*
X94316497Y-115943639D01*
X94323008Y-116004201D01*
X94374108Y-116141206D01*
X94461735Y-116258262D01*
X94578791Y-116345889D01*
X94578792Y-116345889D01*
X94578793Y-116345890D01*
X94715796Y-116396990D01*
X94776359Y-116403501D01*
X96223635Y-116403501D01*
X96284198Y-116396990D01*
X96421201Y-116345890D01*
X96538258Y-116258262D01*
X96625886Y-116141205D01*
X96676986Y-116004202D01*
X96683497Y-115943639D01*
X96683497Y-112946363D01*
X96676986Y-112885800D01*
X96625886Y-112748797D01*
X96625885Y-112748795D01*
X96538258Y-112631739D01*
X96421202Y-112544112D01*
X96352699Y-112518562D01*
X96284198Y-112493012D01*
X96223635Y-112486501D01*
X94776359Y-112486501D01*
X94715796Y-112493012D01*
X94578791Y-112544112D01*
X94461735Y-112631739D01*
X94374108Y-112748795D01*
X94323008Y-112885800D01*
X94316497Y-112946363D01*
X94316497Y-115943639D01*
X88893502Y-115943639D01*
X88893502Y-112946363D01*
X88886991Y-112885800D01*
X88835891Y-112748797D01*
X88835890Y-112748795D01*
X88748263Y-112631739D01*
X88631207Y-112544112D01*
X88562704Y-112518562D01*
X88494203Y-112493012D01*
X88433640Y-112486501D01*
X86986364Y-112486501D01*
X86925801Y-112493012D01*
X86788796Y-112544112D01*
X86671740Y-112631739D01*
X86584113Y-112748795D01*
X86533013Y-112885800D01*
X86526502Y-112946363D01*
X86526502Y-115943639D01*
X72110500Y-115943639D01*
X72110500Y-104199999D01*
X77686807Y-104199999D01*
X77705557Y-104474124D01*
X77705557Y-104474128D01*
X77705558Y-104474130D01*
X77761462Y-104743153D01*
X77761463Y-104743155D01*
X77853476Y-105002057D01*
X77979889Y-105246024D01*
X78084358Y-105394023D01*
X78138343Y-105470502D01*
X78325889Y-105671314D01*
X78539031Y-105844718D01*
X78773800Y-105987484D01*
X79025823Y-106096953D01*
X79290404Y-106171085D01*
X79290410Y-106171085D01*
X79290411Y-106171086D01*
X79562612Y-106208500D01*
X79562615Y-106208500D01*
X79837385Y-106208500D01*
X79837388Y-106208500D01*
X80056636Y-106178364D01*
X80109596Y-106171085D01*
X80374177Y-106096953D01*
X80626200Y-105987484D01*
X80860969Y-105844718D01*
X81074111Y-105671314D01*
X81261657Y-105470502D01*
X81420111Y-105246023D01*
X81546523Y-105002058D01*
X81638538Y-104743153D01*
X81694442Y-104474130D01*
X81713193Y-104200000D01*
X81713193Y-104199999D01*
X86686807Y-104199999D01*
X86705557Y-104474124D01*
X86705557Y-104474128D01*
X86705558Y-104474130D01*
X86761462Y-104743153D01*
X86761463Y-104743155D01*
X86853476Y-105002057D01*
X86979889Y-105246024D01*
X87084358Y-105394023D01*
X87138343Y-105470502D01*
X87325889Y-105671314D01*
X87539031Y-105844718D01*
X87773800Y-105987484D01*
X88025823Y-106096953D01*
X88290404Y-106171085D01*
X88290410Y-106171085D01*
X88290411Y-106171086D01*
X88562612Y-106208500D01*
X88562615Y-106208500D01*
X88837385Y-106208500D01*
X88837388Y-106208500D01*
X89056636Y-106178364D01*
X89109596Y-106171085D01*
X89374177Y-106096953D01*
X89626200Y-105987484D01*
X89860969Y-105844718D01*
X90074111Y-105671314D01*
X90261657Y-105470502D01*
X90420111Y-105246023D01*
X90546523Y-105002058D01*
X90638538Y-104743153D01*
X90694442Y-104474130D01*
X90703070Y-104348000D01*
X105754807Y-104348000D01*
X105773557Y-104622124D01*
X105773557Y-104622128D01*
X105773558Y-104622130D01*
X105829462Y-104891153D01*
X105829463Y-104891155D01*
X105921476Y-105150057D01*
X106047889Y-105394024D01*
X106206342Y-105618501D01*
X106206343Y-105618502D01*
X106393889Y-105819314D01*
X106607031Y-105992718D01*
X106841800Y-106135484D01*
X107093823Y-106244953D01*
X107358404Y-106319085D01*
X107358410Y-106319085D01*
X107358411Y-106319086D01*
X107630612Y-106356500D01*
X107630615Y-106356500D01*
X107905385Y-106356500D01*
X107905388Y-106356500D01*
X108124636Y-106326364D01*
X108177596Y-106319085D01*
X108442177Y-106244953D01*
X108694200Y-106135484D01*
X108928969Y-105992718D01*
X109142111Y-105819314D01*
X109329657Y-105618502D01*
X109488111Y-105394023D01*
X109614523Y-105150058D01*
X109706538Y-104891153D01*
X109762442Y-104622130D01*
X109781193Y-104348000D01*
X114754807Y-104348000D01*
X114773557Y-104622124D01*
X114773557Y-104622128D01*
X114773558Y-104622130D01*
X114829462Y-104891153D01*
X114829463Y-104891155D01*
X114921476Y-105150057D01*
X115047889Y-105394024D01*
X115206342Y-105618501D01*
X115206343Y-105618502D01*
X115393889Y-105819314D01*
X115607031Y-105992718D01*
X115841800Y-106135484D01*
X116093823Y-106244953D01*
X116358404Y-106319085D01*
X116358410Y-106319085D01*
X116358411Y-106319086D01*
X116630612Y-106356500D01*
X116630615Y-106356500D01*
X116905385Y-106356500D01*
X116905388Y-106356500D01*
X117124636Y-106326364D01*
X117177596Y-106319085D01*
X117442177Y-106244953D01*
X117694200Y-106135484D01*
X117928969Y-105992718D01*
X118142111Y-105819314D01*
X118329657Y-105618502D01*
X118488111Y-105394023D01*
X118614523Y-105150058D01*
X118706538Y-104891153D01*
X118762442Y-104622130D01*
X118781193Y-104348000D01*
X118771070Y-104200000D01*
X131286807Y-104200000D01*
X131305557Y-104474124D01*
X131305557Y-104474128D01*
X131305558Y-104474130D01*
X131361462Y-104743153D01*
X131361463Y-104743155D01*
X131453476Y-105002057D01*
X131579889Y-105246024D01*
X131684358Y-105394023D01*
X131738343Y-105470502D01*
X131925889Y-105671314D01*
X132139031Y-105844718D01*
X132373800Y-105987484D01*
X132625823Y-106096953D01*
X132890404Y-106171085D01*
X132890410Y-106171085D01*
X132890411Y-106171086D01*
X133162612Y-106208500D01*
X133162615Y-106208500D01*
X133437385Y-106208500D01*
X133437388Y-106208500D01*
X133656636Y-106178364D01*
X133709596Y-106171085D01*
X133974177Y-106096953D01*
X134226200Y-105987484D01*
X134460969Y-105844718D01*
X134530078Y-105788494D01*
X141070715Y-105788494D01*
X141139321Y-105844310D01*
X141374026Y-105987036D01*
X141625989Y-106096480D01*
X141890513Y-106170596D01*
X142162645Y-106208000D01*
X142437355Y-106208000D01*
X142709486Y-106170596D01*
X142974010Y-106096480D01*
X143225970Y-105987038D01*
X143460681Y-105844307D01*
X143529283Y-105788493D01*
X143529283Y-105788492D01*
X142300001Y-104559210D01*
X142299999Y-104559210D01*
X141070715Y-105788492D01*
X141070715Y-105788494D01*
X134530078Y-105788494D01*
X134674111Y-105671314D01*
X134861657Y-105470502D01*
X135020111Y-105246023D01*
X135146523Y-105002058D01*
X135238538Y-104743153D01*
X135294442Y-104474130D01*
X135313193Y-104200000D01*
X135313193Y-104199999D01*
X140287308Y-104199999D01*
X140306053Y-104474056D01*
X140361945Y-104743020D01*
X140453936Y-105001860D01*
X140580318Y-105245765D01*
X140710540Y-105430248D01*
X140710541Y-105430248D01*
X141940790Y-104200001D01*
X142659210Y-104200001D01*
X143889457Y-105430247D01*
X144019683Y-105245761D01*
X144146063Y-105001860D01*
X144238054Y-104743020D01*
X144293946Y-104474056D01*
X144312691Y-104199999D01*
X144293946Y-103925943D01*
X144238054Y-103656979D01*
X144146063Y-103398139D01*
X144019683Y-103154238D01*
X143889457Y-102969750D01*
X142659210Y-104199999D01*
X142659210Y-104200001D01*
X141940790Y-104200001D01*
X141940790Y-104199999D01*
X140710541Y-102969750D01*
X140580316Y-103154240D01*
X140453936Y-103398139D01*
X140361945Y-103656979D01*
X140306053Y-103925943D01*
X140287308Y-104199999D01*
X135313193Y-104199999D01*
X135294442Y-103925870D01*
X135238538Y-103656847D01*
X135146523Y-103397942D01*
X135020111Y-103153977D01*
X134966126Y-103077498D01*
X134861656Y-102929497D01*
X134674112Y-102728687D01*
X134530076Y-102611505D01*
X141070714Y-102611505D01*
X142299999Y-103840790D01*
X142300000Y-103840790D01*
X143529283Y-102611504D01*
X143460678Y-102555689D01*
X143225973Y-102412963D01*
X142974010Y-102303519D01*
X142709486Y-102229403D01*
X142437355Y-102192000D01*
X142162645Y-102192000D01*
X141890513Y-102229403D01*
X141625989Y-102303519D01*
X141374026Y-102412963D01*
X141139322Y-102555689D01*
X141070715Y-102611505D01*
X141070714Y-102611505D01*
X134530076Y-102611505D01*
X134460969Y-102555282D01*
X134289563Y-102451048D01*
X134226200Y-102412516D01*
X133974177Y-102303047D01*
X133709596Y-102228915D01*
X133709594Y-102228914D01*
X133709588Y-102228913D01*
X133437388Y-102191500D01*
X133437385Y-102191500D01*
X133162615Y-102191500D01*
X133162612Y-102191500D01*
X132890411Y-102228913D01*
X132890403Y-102228915D01*
X132890404Y-102228915D01*
X132625823Y-102303047D01*
X132625821Y-102303047D01*
X132625820Y-102303048D01*
X132373801Y-102412515D01*
X132139030Y-102555282D01*
X131925887Y-102728687D01*
X131738343Y-102929497D01*
X131579889Y-103153975D01*
X131453476Y-103397942D01*
X131361463Y-103656844D01*
X131305557Y-103925875D01*
X131286807Y-104200000D01*
X118771070Y-104200000D01*
X118762442Y-104073870D01*
X118706538Y-103804847D01*
X118614523Y-103545942D01*
X118488111Y-103301977D01*
X118329657Y-103077498D01*
X118142111Y-102876686D01*
X117928969Y-102703282D01*
X117694200Y-102560516D01*
X117442177Y-102451047D01*
X117177596Y-102376915D01*
X117177594Y-102376914D01*
X117177588Y-102376913D01*
X116905388Y-102339500D01*
X116905385Y-102339500D01*
X116630615Y-102339500D01*
X116630612Y-102339500D01*
X116358411Y-102376913D01*
X116358403Y-102376915D01*
X116358404Y-102376915D01*
X116093823Y-102451047D01*
X116093821Y-102451047D01*
X116093820Y-102451048D01*
X115841801Y-102560515D01*
X115607030Y-102703282D01*
X115393887Y-102876687D01*
X115206343Y-103077497D01*
X115047889Y-103301975D01*
X114921476Y-103545942D01*
X114829463Y-103804844D01*
X114773557Y-104073875D01*
X114754807Y-104348000D01*
X109781193Y-104348000D01*
X109762442Y-104073870D01*
X109706538Y-103804847D01*
X109614523Y-103545942D01*
X109488111Y-103301977D01*
X109329657Y-103077498D01*
X109142111Y-102876686D01*
X108928969Y-102703282D01*
X108694200Y-102560516D01*
X108442177Y-102451047D01*
X108177596Y-102376915D01*
X108177594Y-102376914D01*
X108177588Y-102376913D01*
X107905388Y-102339500D01*
X107905385Y-102339500D01*
X107630615Y-102339500D01*
X107630612Y-102339500D01*
X107358411Y-102376913D01*
X107358403Y-102376915D01*
X107358404Y-102376915D01*
X107093823Y-102451047D01*
X107093821Y-102451047D01*
X107093820Y-102451048D01*
X106841801Y-102560515D01*
X106607030Y-102703282D01*
X106393887Y-102876687D01*
X106206343Y-103077497D01*
X106047889Y-103301975D01*
X105921476Y-103545942D01*
X105829463Y-103804844D01*
X105773557Y-104073875D01*
X105754807Y-104348000D01*
X90703070Y-104348000D01*
X90713193Y-104200000D01*
X90694442Y-103925870D01*
X90638538Y-103656847D01*
X90580576Y-103493761D01*
X90576393Y-103423829D01*
X90610205Y-103362474D01*
X108490777Y-85481902D01*
X108504624Y-85469936D01*
X108524058Y-85455469D01*
X108556226Y-85417131D01*
X108563642Y-85409037D01*
X108567581Y-85405100D01*
X108587012Y-85380523D01*
X108589286Y-85377731D01*
X108638032Y-85319640D01*
X108638033Y-85319636D01*
X108638890Y-85318616D01*
X108649402Y-85302117D01*
X108653155Y-85294068D01*
X108682036Y-85232131D01*
X108683544Y-85229015D01*
X108717609Y-85161188D01*
X108717610Y-85161179D01*
X108718212Y-85159983D01*
X108724634Y-85141509D01*
X108740238Y-85065935D01*
X108741022Y-85062397D01*
X108758500Y-84988656D01*
X108758500Y-84988654D01*
X108758808Y-84987355D01*
X108760797Y-84967885D01*
X108760758Y-84966560D01*
X108760759Y-84966558D01*
X108758553Y-84890741D01*
X108758500Y-84887077D01*
X108758500Y-57522970D01*
X108767819Y-57475415D01*
X108794396Y-57434894D01*
X108834301Y-57407401D01*
X108926200Y-57367484D01*
X109160969Y-57224718D01*
X109230078Y-57168494D01*
X115770715Y-57168494D01*
X115839321Y-57224310D01*
X116074026Y-57367036D01*
X116325989Y-57476480D01*
X116590513Y-57550596D01*
X116862645Y-57588000D01*
X117137355Y-57588000D01*
X117409486Y-57550596D01*
X117674010Y-57476480D01*
X117925970Y-57367038D01*
X118160681Y-57224307D01*
X118229283Y-57168493D01*
X118229283Y-57168492D01*
X117000001Y-55939210D01*
X116999999Y-55939210D01*
X115770715Y-57168492D01*
X115770715Y-57168494D01*
X109230078Y-57168494D01*
X109374111Y-57051314D01*
X109561657Y-56850502D01*
X109720111Y-56626023D01*
X109846523Y-56382058D01*
X109938538Y-56123153D01*
X109994442Y-55854130D01*
X110013193Y-55580000D01*
X114987308Y-55580000D01*
X115006053Y-55854056D01*
X115061945Y-56123020D01*
X115153936Y-56381860D01*
X115280318Y-56625765D01*
X115410540Y-56810248D01*
X115410541Y-56810248D01*
X116640790Y-55580001D01*
X117359210Y-55580001D01*
X118589457Y-56810247D01*
X118719683Y-56625761D01*
X118846063Y-56381860D01*
X118938054Y-56123020D01*
X118993946Y-55854056D01*
X119012691Y-55580000D01*
X119012691Y-55579999D01*
X133086807Y-55579999D01*
X133105557Y-55854124D01*
X133105557Y-55854128D01*
X133105558Y-55854130D01*
X133161462Y-56123153D01*
X133161463Y-56123155D01*
X133253476Y-56382057D01*
X133379889Y-56626024D01*
X133509928Y-56810247D01*
X133538343Y-56850502D01*
X133725889Y-57051314D01*
X133939031Y-57224718D01*
X134173800Y-57367484D01*
X134425823Y-57476953D01*
X134690404Y-57551085D01*
X134690410Y-57551085D01*
X134690411Y-57551086D01*
X134962612Y-57588500D01*
X134962615Y-57588500D01*
X135237385Y-57588500D01*
X135237388Y-57588500D01*
X135456636Y-57558364D01*
X135509596Y-57551085D01*
X135774177Y-57476953D01*
X136026200Y-57367484D01*
X136260969Y-57224718D01*
X136474111Y-57051314D01*
X136661657Y-56850502D01*
X136820111Y-56626023D01*
X136946523Y-56382058D01*
X137038538Y-56123153D01*
X137094442Y-55854130D01*
X137113193Y-55580000D01*
X137113193Y-55579999D01*
X142086807Y-55579999D01*
X142105557Y-55854124D01*
X142105557Y-55854128D01*
X142105558Y-55854130D01*
X142161462Y-56123153D01*
X142161463Y-56123155D01*
X142253476Y-56382057D01*
X142379889Y-56626024D01*
X142509928Y-56810247D01*
X142538343Y-56850502D01*
X142725889Y-57051314D01*
X142939031Y-57224718D01*
X143173800Y-57367484D01*
X143425823Y-57476953D01*
X143690404Y-57551085D01*
X143690410Y-57551085D01*
X143690411Y-57551086D01*
X143962612Y-57588500D01*
X143962615Y-57588500D01*
X144237385Y-57588500D01*
X144237388Y-57588500D01*
X144456636Y-57558364D01*
X144509596Y-57551085D01*
X144774177Y-57476953D01*
X145026200Y-57367484D01*
X145260969Y-57224718D01*
X145474111Y-57051314D01*
X145661657Y-56850502D01*
X145820111Y-56626023D01*
X145946523Y-56382058D01*
X146038538Y-56123153D01*
X146094442Y-55854130D01*
X146113193Y-55580000D01*
X146094442Y-55305870D01*
X146038538Y-55036847D01*
X145946523Y-54777942D01*
X145820111Y-54533977D01*
X145661657Y-54309498D01*
X145474111Y-54108686D01*
X145260969Y-53935282D01*
X145026200Y-53792516D01*
X144774177Y-53683047D01*
X144509596Y-53608915D01*
X144509594Y-53608914D01*
X144509588Y-53608913D01*
X144237388Y-53571500D01*
X144237385Y-53571500D01*
X143962615Y-53571500D01*
X143962612Y-53571500D01*
X143690411Y-53608913D01*
X143690403Y-53608915D01*
X143690404Y-53608915D01*
X143425823Y-53683047D01*
X143425821Y-53683047D01*
X143425820Y-53683048D01*
X143173801Y-53792515D01*
X142939030Y-53935282D01*
X142725887Y-54108687D01*
X142538343Y-54309497D01*
X142379889Y-54533975D01*
X142253476Y-54777942D01*
X142161463Y-55036844D01*
X142105557Y-55305875D01*
X142086807Y-55579999D01*
X137113193Y-55579999D01*
X137094442Y-55305870D01*
X137038538Y-55036847D01*
X136946523Y-54777942D01*
X136820111Y-54533977D01*
X136661657Y-54309498D01*
X136474111Y-54108686D01*
X136260969Y-53935282D01*
X136026200Y-53792516D01*
X135774177Y-53683047D01*
X135509596Y-53608915D01*
X135509594Y-53608914D01*
X135509588Y-53608913D01*
X135237388Y-53571500D01*
X135237385Y-53571500D01*
X134962615Y-53571500D01*
X134962612Y-53571500D01*
X134690411Y-53608913D01*
X134690403Y-53608915D01*
X134690404Y-53608915D01*
X134425823Y-53683047D01*
X134425821Y-53683047D01*
X134425820Y-53683048D01*
X134173801Y-53792515D01*
X133939030Y-53935282D01*
X133725887Y-54108687D01*
X133538343Y-54309497D01*
X133379889Y-54533975D01*
X133253476Y-54777942D01*
X133161463Y-55036844D01*
X133105557Y-55305875D01*
X133086807Y-55579999D01*
X119012691Y-55579999D01*
X118993946Y-55305943D01*
X118938054Y-55036979D01*
X118846063Y-54778139D01*
X118719683Y-54534238D01*
X118589457Y-54349750D01*
X117359210Y-55579999D01*
X117359210Y-55580001D01*
X116640790Y-55580001D01*
X116640790Y-55579999D01*
X115410541Y-54349750D01*
X115280316Y-54534240D01*
X115153936Y-54778139D01*
X115061945Y-55036979D01*
X115006053Y-55305943D01*
X114987308Y-55580000D01*
X110013193Y-55580000D01*
X109994442Y-55305870D01*
X109938538Y-55036847D01*
X109846523Y-54777942D01*
X109720111Y-54533977D01*
X109561657Y-54309498D01*
X109374111Y-54108686D01*
X109230076Y-53991505D01*
X115770714Y-53991505D01*
X116999999Y-55220790D01*
X117000000Y-55220790D01*
X118229283Y-53991504D01*
X118160678Y-53935689D01*
X117925973Y-53792963D01*
X117674010Y-53683519D01*
X117409486Y-53609403D01*
X117137355Y-53572000D01*
X116862645Y-53572000D01*
X116590513Y-53609403D01*
X116325989Y-53683519D01*
X116074026Y-53792963D01*
X115839322Y-53935689D01*
X115770715Y-53991505D01*
X115770714Y-53991505D01*
X109230076Y-53991505D01*
X109160969Y-53935282D01*
X108926200Y-53792516D01*
X108674177Y-53683047D01*
X108409596Y-53608915D01*
X108409594Y-53608914D01*
X108409588Y-53608913D01*
X108137388Y-53571500D01*
X108137385Y-53571500D01*
X107862615Y-53571500D01*
X107862612Y-53571500D01*
X107590411Y-53608913D01*
X107590403Y-53608915D01*
X107590404Y-53608915D01*
X107325823Y-53683047D01*
X107325821Y-53683047D01*
X107325820Y-53683048D01*
X107073801Y-53792515D01*
X106839030Y-53935282D01*
X106625887Y-54108687D01*
X106438343Y-54309497D01*
X106279889Y-54533975D01*
X106153476Y-54777942D01*
X106061463Y-55036844D01*
X106005557Y-55305875D01*
X105986807Y-55580000D01*
X106005557Y-55854124D01*
X106005557Y-55854128D01*
X106005558Y-55854130D01*
X106061462Y-56123153D01*
X106061463Y-56123155D01*
X106153476Y-56382057D01*
X106279889Y-56626024D01*
X106409928Y-56810247D01*
X106438343Y-56850502D01*
X106625889Y-57051314D01*
X106839031Y-57224718D01*
X106990322Y-57316719D01*
X107073798Y-57367483D01*
X107165699Y-57407401D01*
X107205604Y-57434894D01*
X107232181Y-57475415D01*
X107241500Y-57522970D01*
X107241500Y-84533629D01*
X107231909Y-84581847D01*
X107204595Y-84622724D01*
X89539456Y-102287861D01*
X89497916Y-102315447D01*
X89448927Y-102324758D01*
X89400167Y-102314336D01*
X89374177Y-102303047D01*
X89109596Y-102228915D01*
X89109594Y-102228914D01*
X89109588Y-102228913D01*
X88837388Y-102191500D01*
X88837385Y-102191500D01*
X88562615Y-102191500D01*
X88562612Y-102191500D01*
X88290411Y-102228913D01*
X88290403Y-102228915D01*
X88290404Y-102228915D01*
X88025823Y-102303047D01*
X88025821Y-102303047D01*
X88025820Y-102303048D01*
X87773801Y-102412515D01*
X87539030Y-102555282D01*
X87325887Y-102728687D01*
X87138343Y-102929497D01*
X86979889Y-103153975D01*
X86853476Y-103397942D01*
X86761463Y-103656844D01*
X86705557Y-103925875D01*
X86686807Y-104199999D01*
X81713193Y-104199999D01*
X81694442Y-103925870D01*
X81638538Y-103656847D01*
X81580576Y-103493761D01*
X81576393Y-103423829D01*
X81610205Y-103362474D01*
X89190777Y-95781902D01*
X89204624Y-95769936D01*
X89224058Y-95755469D01*
X89256228Y-95717128D01*
X89263645Y-95709034D01*
X89267580Y-95705101D01*
X89287043Y-95680484D01*
X89289268Y-95677753D01*
X89338032Y-95619640D01*
X89338033Y-95619636D01*
X89338890Y-95618616D01*
X89349402Y-95602117D01*
X89381990Y-95532231D01*
X89383587Y-95528932D01*
X89396888Y-95502446D01*
X89417609Y-95461188D01*
X89417609Y-95461185D01*
X89418207Y-95459996D01*
X89424632Y-95441513D01*
X89440227Y-95365981D01*
X89441021Y-95362399D01*
X89458807Y-95287359D01*
X89460796Y-95267888D01*
X89460757Y-95266560D01*
X89460758Y-95266558D01*
X89458552Y-95190760D01*
X89458500Y-95187097D01*
X89458500Y-57522970D01*
X89467819Y-57475415D01*
X89494396Y-57434894D01*
X89534301Y-57407401D01*
X89626200Y-57367484D01*
X89860969Y-57224718D01*
X90074111Y-57051314D01*
X90261657Y-56850502D01*
X90420111Y-56626023D01*
X90546523Y-56382058D01*
X90638538Y-56123153D01*
X90694442Y-55854130D01*
X90713193Y-55580000D01*
X90694442Y-55305870D01*
X90638538Y-55036847D01*
X90546523Y-54777942D01*
X90420111Y-54533977D01*
X90261657Y-54309498D01*
X90074111Y-54108686D01*
X89860969Y-53935282D01*
X89626200Y-53792516D01*
X89374177Y-53683047D01*
X89109596Y-53608915D01*
X89109594Y-53608914D01*
X89109588Y-53608913D01*
X88837388Y-53571500D01*
X88837385Y-53571500D01*
X88562615Y-53571500D01*
X88562612Y-53571500D01*
X88290411Y-53608913D01*
X88290403Y-53608915D01*
X88290404Y-53608915D01*
X88025823Y-53683047D01*
X88025821Y-53683047D01*
X88025820Y-53683048D01*
X87773801Y-53792515D01*
X87539030Y-53935282D01*
X87325887Y-54108687D01*
X87138343Y-54309497D01*
X86979889Y-54533975D01*
X86853476Y-54777942D01*
X86761463Y-55036844D01*
X86705557Y-55305875D01*
X86686807Y-55580000D01*
X86705557Y-55854124D01*
X86705557Y-55854128D01*
X86705558Y-55854130D01*
X86761462Y-56123153D01*
X86761463Y-56123155D01*
X86853476Y-56382057D01*
X86979889Y-56626024D01*
X87109928Y-56810247D01*
X87138343Y-56850502D01*
X87325889Y-57051314D01*
X87539031Y-57224718D01*
X87690322Y-57316719D01*
X87773798Y-57367483D01*
X87865699Y-57407401D01*
X87905604Y-57434894D01*
X87932181Y-57475415D01*
X87941500Y-57522970D01*
X87941500Y-94833629D01*
X87931909Y-94881847D01*
X87904595Y-94922724D01*
X80539456Y-102287861D01*
X80497916Y-102315447D01*
X80448927Y-102324758D01*
X80400167Y-102314336D01*
X80374177Y-102303047D01*
X80109596Y-102228915D01*
X80109594Y-102228914D01*
X80109588Y-102228913D01*
X79837388Y-102191500D01*
X79837385Y-102191500D01*
X79562615Y-102191500D01*
X79562612Y-102191500D01*
X79290411Y-102228913D01*
X79290403Y-102228915D01*
X79290404Y-102228915D01*
X79025823Y-102303047D01*
X79025821Y-102303047D01*
X79025820Y-102303048D01*
X78773801Y-102412515D01*
X78539030Y-102555282D01*
X78325887Y-102728687D01*
X78138343Y-102929497D01*
X77979889Y-103153975D01*
X77853476Y-103397942D01*
X77761463Y-103656844D01*
X77705557Y-103925875D01*
X77686807Y-104199999D01*
X72110500Y-104199999D01*
X72110500Y-55580000D01*
X77686807Y-55580000D01*
X77705557Y-55854124D01*
X77705557Y-55854128D01*
X77705558Y-55854130D01*
X77761462Y-56123153D01*
X77761463Y-56123155D01*
X77853476Y-56382057D01*
X77979889Y-56626024D01*
X78109928Y-56810247D01*
X78138343Y-56850502D01*
X78325889Y-57051314D01*
X78539031Y-57224718D01*
X78773800Y-57367484D01*
X79025823Y-57476953D01*
X79290404Y-57551085D01*
X79290410Y-57551085D01*
X79290411Y-57551086D01*
X79562612Y-57588500D01*
X79562615Y-57588500D01*
X79837385Y-57588500D01*
X79837388Y-57588500D01*
X80056636Y-57558364D01*
X80109596Y-57551085D01*
X80374177Y-57476953D01*
X80626200Y-57367484D01*
X80860969Y-57224718D01*
X81074111Y-57051314D01*
X81261657Y-56850502D01*
X81420111Y-56626023D01*
X81546523Y-56382058D01*
X81638538Y-56123153D01*
X81694442Y-55854130D01*
X81713193Y-55580000D01*
X81694442Y-55305870D01*
X81638538Y-55036847D01*
X81546523Y-54777942D01*
X81420111Y-54533977D01*
X81261657Y-54309498D01*
X81074111Y-54108686D01*
X80860969Y-53935282D01*
X80626200Y-53792516D01*
X80374177Y-53683047D01*
X80109596Y-53608915D01*
X80109594Y-53608914D01*
X80109588Y-53608913D01*
X79837388Y-53571500D01*
X79837385Y-53571500D01*
X79562615Y-53571500D01*
X79562612Y-53571500D01*
X79290411Y-53608913D01*
X79290403Y-53608915D01*
X79290404Y-53608915D01*
X79025823Y-53683047D01*
X79025821Y-53683047D01*
X79025820Y-53683048D01*
X78773801Y-53792515D01*
X78539030Y-53935282D01*
X78325887Y-54108687D01*
X78138343Y-54309497D01*
X77979889Y-54533975D01*
X77853476Y-54777942D01*
X77761463Y-55036844D01*
X77705557Y-55305875D01*
X77686807Y-55580000D01*
X72110500Y-55580000D01*
X72110500Y-45264706D01*
X82444502Y-45264706D01*
X82455307Y-45274940D01*
X82740860Y-45492013D01*
X83048233Y-45676953D01*
X83373782Y-45827568D01*
X83713715Y-45942105D01*
X84064040Y-46019217D01*
X84420642Y-46058000D01*
X84779358Y-46058000D01*
X85135959Y-46019217D01*
X85486284Y-45942105D01*
X85826217Y-45827568D01*
X86151766Y-45676953D01*
X86459139Y-45492013D01*
X86744693Y-45274939D01*
X86755496Y-45264706D01*
X137444502Y-45264706D01*
X137455307Y-45274940D01*
X137740860Y-45492013D01*
X138048233Y-45676953D01*
X138373782Y-45827568D01*
X138713715Y-45942105D01*
X139064040Y-46019217D01*
X139420642Y-46058000D01*
X139779358Y-46058000D01*
X140135959Y-46019217D01*
X140486284Y-45942105D01*
X140826217Y-45827568D01*
X141151766Y-45676953D01*
X141459139Y-45492013D01*
X141744693Y-45274939D01*
X141755496Y-45264706D01*
X139600001Y-43109210D01*
X139599999Y-43109210D01*
X137444502Y-45264706D01*
X86755496Y-45264706D01*
X84600001Y-43109210D01*
X84599999Y-43109210D01*
X82444502Y-45264706D01*
X72110500Y-45264706D01*
X72110500Y-42750000D01*
X81287140Y-42750000D01*
X81306561Y-43108183D01*
X81364593Y-43462166D01*
X81460557Y-43807797D01*
X81593331Y-44141032D01*
X81761352Y-44457955D01*
X81962655Y-44754854D01*
X82088168Y-44902620D01*
X84240789Y-42750001D01*
X84959210Y-42750001D01*
X87111831Y-44902620D01*
X87237344Y-44754854D01*
X87438647Y-44457955D01*
X87606668Y-44141032D01*
X87739442Y-43807797D01*
X87835406Y-43462166D01*
X87893438Y-43108183D01*
X87912859Y-42750000D01*
X87912859Y-42749999D01*
X136287140Y-42749999D01*
X136306561Y-43108183D01*
X136364593Y-43462166D01*
X136460557Y-43807797D01*
X136593331Y-44141032D01*
X136761352Y-44457955D01*
X136962655Y-44754854D01*
X137088168Y-44902620D01*
X139240789Y-42750001D01*
X139959210Y-42750001D01*
X142111831Y-44902620D01*
X142237344Y-44754854D01*
X142438647Y-44457955D01*
X142606668Y-44141032D01*
X142739442Y-43807797D01*
X142835406Y-43462166D01*
X142893438Y-43108183D01*
X142912859Y-42749999D01*
X142893438Y-42391816D01*
X142835406Y-42037833D01*
X142739442Y-41692202D01*
X142606668Y-41358967D01*
X142438647Y-41042044D01*
X142237341Y-40745140D01*
X142111831Y-40597377D01*
X139959210Y-42749999D01*
X139959210Y-42750001D01*
X139240789Y-42750001D01*
X139240789Y-42749999D01*
X137088167Y-40597377D01*
X137088166Y-40597378D01*
X136962658Y-40745139D01*
X136761352Y-41042044D01*
X136593331Y-41358967D01*
X136460557Y-41692202D01*
X136364593Y-42037833D01*
X136306561Y-42391816D01*
X136287140Y-42749999D01*
X87912859Y-42749999D01*
X87893438Y-42391816D01*
X87835406Y-42037833D01*
X87739442Y-41692202D01*
X87606668Y-41358967D01*
X87438647Y-41042044D01*
X87237341Y-40745140D01*
X87111831Y-40597377D01*
X84959210Y-42749999D01*
X84959210Y-42750001D01*
X84240789Y-42750001D01*
X84240789Y-42749999D01*
X82088167Y-40597377D01*
X82088166Y-40597378D01*
X81962658Y-40745139D01*
X81761352Y-41042044D01*
X81593331Y-41358967D01*
X81460557Y-41692202D01*
X81364593Y-42037833D01*
X81306561Y-42391816D01*
X81287140Y-42750000D01*
X72110500Y-42750000D01*
X72110500Y-40235292D01*
X82444502Y-40235292D01*
X84599999Y-42390789D01*
X84600001Y-42390789D01*
X86755496Y-40235292D01*
X137444502Y-40235292D01*
X139599999Y-42390789D01*
X139600001Y-42390789D01*
X141755496Y-40235292D01*
X141744692Y-40225059D01*
X141459139Y-40007986D01*
X141151766Y-39823046D01*
X140826217Y-39672431D01*
X140486284Y-39557894D01*
X140135959Y-39480782D01*
X139779358Y-39442000D01*
X139420642Y-39442000D01*
X139064040Y-39480782D01*
X138713715Y-39557894D01*
X138373782Y-39672431D01*
X138048233Y-39823046D01*
X137740860Y-40007986D01*
X137455303Y-40225062D01*
X137444502Y-40235292D01*
X86755496Y-40235292D01*
X86744692Y-40225059D01*
X86459139Y-40007986D01*
X86151766Y-39823046D01*
X85826217Y-39672431D01*
X85486284Y-39557894D01*
X85135959Y-39480782D01*
X84779358Y-39442000D01*
X84420642Y-39442000D01*
X84064040Y-39480782D01*
X83713715Y-39557894D01*
X83373782Y-39672431D01*
X83048233Y-39823046D01*
X82740860Y-40007986D01*
X82455303Y-40225062D01*
X82444502Y-40235292D01*
X72110500Y-40235292D01*
X72110500Y-38886500D01*
X72127381Y-38823500D01*
X72173500Y-38777381D01*
X72236500Y-38760500D01*
X80647912Y-38760500D01*
X80652088Y-38760500D01*
X88647912Y-38760500D01*
X88652088Y-38760500D01*
X135597912Y-38760500D01*
X135602088Y-38760500D01*
X143597912Y-38760500D01*
X143602088Y-38760500D01*
X151963500Y-38760500D01*
X152026500Y-38777381D01*
G37*
G04 #@! TD.AperFunction*
M02*
