%TF.GenerationSoftware,KiCad,Pcbnew,7.0.1-0*%
%TF.CreationDate,2023-03-19T01:48:49-04:00*%
%TF.ProjectId,solar-cell-pcbs-usbUPDATING,736f6c61-722d-4636-956c-6c2d70636273,3*%
%TF.SameCoordinates,Original*%
%TF.FileFunction,Drillmap*%
%TF.FilePolarity,Positive*%
%FSLAX45Y45*%
G04 Gerber Fmt 4.5, Leading zero omitted, Abs format (unit mm)*
G04 Created by KiCad (PCBNEW 7.0.1-0) date 2023-03-19 01:48:49*
%MOMM*%
%LPD*%
G01*
G04 APERTURE LIST*
%ADD10C,0.100000*%
%ADD11C,0.200000*%
G04 APERTURE END LIST*
D10*
X14360000Y-3875000D02*
X15210000Y-3875000D01*
X8060000Y-14225000D02*
X8860000Y-14225000D01*
X13560000Y-14225000D02*
X8860000Y-14225000D01*
X8065000Y-3875000D02*
X8865000Y-3875000D01*
X13560000Y-3875000D02*
X14360000Y-3875000D01*
X15210000Y-3875000D02*
X15210000Y-14225000D01*
X8060000Y-14225000D02*
X7210000Y-14225000D01*
X14360000Y-14225000D02*
X15210000Y-14225000D01*
X13560000Y-14225000D02*
X14360000Y-14225000D01*
X8865000Y-3875000D02*
X13560000Y-3875000D01*
X8065000Y-3875000D02*
X7210000Y-3875000D01*
X7210000Y-14225000D02*
X7210000Y-3875000D01*
D11*
X7452619Y-14542524D02*
X7452619Y-14342524D01*
X7452619Y-14342524D02*
X7500238Y-14342524D01*
X7500238Y-14342524D02*
X7528809Y-14352048D01*
X7528809Y-14352048D02*
X7547857Y-14371095D01*
X7547857Y-14371095D02*
X7557381Y-14390143D01*
X7557381Y-14390143D02*
X7566905Y-14428238D01*
X7566905Y-14428238D02*
X7566905Y-14456809D01*
X7566905Y-14456809D02*
X7557381Y-14494905D01*
X7557381Y-14494905D02*
X7547857Y-14513952D01*
X7547857Y-14513952D02*
X7528809Y-14533000D01*
X7528809Y-14533000D02*
X7500238Y-14542524D01*
X7500238Y-14542524D02*
X7452619Y-14542524D01*
X7652619Y-14542524D02*
X7652619Y-14409190D01*
X7652619Y-14447286D02*
X7662143Y-14428238D01*
X7662143Y-14428238D02*
X7671667Y-14418714D01*
X7671667Y-14418714D02*
X7690714Y-14409190D01*
X7690714Y-14409190D02*
X7709762Y-14409190D01*
X7776428Y-14542524D02*
X7776428Y-14409190D01*
X7776428Y-14342524D02*
X7766905Y-14352048D01*
X7766905Y-14352048D02*
X7776428Y-14361571D01*
X7776428Y-14361571D02*
X7785952Y-14352048D01*
X7785952Y-14352048D02*
X7776428Y-14342524D01*
X7776428Y-14342524D02*
X7776428Y-14361571D01*
X7900238Y-14542524D02*
X7881190Y-14533000D01*
X7881190Y-14533000D02*
X7871667Y-14513952D01*
X7871667Y-14513952D02*
X7871667Y-14342524D01*
X8005000Y-14542524D02*
X7985952Y-14533000D01*
X7985952Y-14533000D02*
X7976428Y-14513952D01*
X7976428Y-14513952D02*
X7976428Y-14342524D01*
X8233571Y-14542524D02*
X8233571Y-14342524D01*
X8233571Y-14342524D02*
X8300238Y-14485381D01*
X8300238Y-14485381D02*
X8366905Y-14342524D01*
X8366905Y-14342524D02*
X8366905Y-14542524D01*
X8547857Y-14542524D02*
X8547857Y-14437762D01*
X8547857Y-14437762D02*
X8538333Y-14418714D01*
X8538333Y-14418714D02*
X8519286Y-14409190D01*
X8519286Y-14409190D02*
X8481190Y-14409190D01*
X8481190Y-14409190D02*
X8462143Y-14418714D01*
X8547857Y-14533000D02*
X8528810Y-14542524D01*
X8528810Y-14542524D02*
X8481190Y-14542524D01*
X8481190Y-14542524D02*
X8462143Y-14533000D01*
X8462143Y-14533000D02*
X8452619Y-14513952D01*
X8452619Y-14513952D02*
X8452619Y-14494905D01*
X8452619Y-14494905D02*
X8462143Y-14475857D01*
X8462143Y-14475857D02*
X8481190Y-14466333D01*
X8481190Y-14466333D02*
X8528810Y-14466333D01*
X8528810Y-14466333D02*
X8547857Y-14456809D01*
X8643095Y-14409190D02*
X8643095Y-14609190D01*
X8643095Y-14418714D02*
X8662143Y-14409190D01*
X8662143Y-14409190D02*
X8700238Y-14409190D01*
X8700238Y-14409190D02*
X8719286Y-14418714D01*
X8719286Y-14418714D02*
X8728810Y-14428238D01*
X8728810Y-14428238D02*
X8738333Y-14447286D01*
X8738333Y-14447286D02*
X8738333Y-14504428D01*
X8738333Y-14504428D02*
X8728810Y-14523476D01*
X8728810Y-14523476D02*
X8719286Y-14533000D01*
X8719286Y-14533000D02*
X8700238Y-14542524D01*
X8700238Y-14542524D02*
X8662143Y-14542524D01*
X8662143Y-14542524D02*
X8643095Y-14533000D01*
X8824048Y-14523476D02*
X8833571Y-14533000D01*
X8833571Y-14533000D02*
X8824048Y-14542524D01*
X8824048Y-14542524D02*
X8814524Y-14533000D01*
X8814524Y-14533000D02*
X8824048Y-14523476D01*
X8824048Y-14523476D02*
X8824048Y-14542524D01*
X8824048Y-14418714D02*
X8833571Y-14428238D01*
X8833571Y-14428238D02*
X8824048Y-14437762D01*
X8824048Y-14437762D02*
X8814524Y-14428238D01*
X8814524Y-14428238D02*
X8824048Y-14418714D01*
X8824048Y-14418714D02*
X8824048Y-14437762D01*
M02*
