G04 #@! TF.GenerationSoftware,KiCad,Pcbnew,(6.0.5-0)*
G04 #@! TF.CreationDate,2023-03-07T01:19:39-05:00*
G04 #@! TF.ProjectId,solar-cell-pcbs-usbUPDATING,736f6c61-722d-4636-956c-6c2d70636273,3*
G04 #@! TF.SameCoordinates,Original*
G04 #@! TF.FileFunction,Legend,Bot*
G04 #@! TF.FilePolarity,Positive*
%FSLAX46Y46*%
G04 Gerber Fmt 4.6, Leading zero omitted, Abs format (unit mm)*
G04 Created by KiCad (PCBNEW (6.0.5-0)) date 2023-03-07 01:19:39*
%MOMM*%
%LPD*%
G01*
G04 APERTURE LIST*
%ADD10C,0.150000*%
%ADD11C,0.300000*%
%ADD12C,0.120000*%
%ADD13C,5.600000*%
%ADD14C,3.000000*%
%ADD15R,1.100000X1.450000*%
%ADD16R,1.350000X2.899999*%
G04 APERTURE END LIST*
D10*
X91000952Y-125791428D02*
X90239047Y-125791428D01*
D11*
X88157142Y-108514285D02*
X90442857Y-108514285D01*
D10*
X92700952Y-125771428D02*
X91939047Y-125771428D01*
X92320000Y-126152380D02*
X92320000Y-125390476D01*
D11*
X116205142Y-108672285D02*
X118490857Y-108672285D01*
X78359142Y-59396285D02*
X80644857Y-59396285D01*
X79502000Y-60539142D02*
X79502000Y-58253428D01*
X145414857Y-59729714D02*
X143129142Y-59729714D01*
X87757142Y-59904285D02*
X90042857Y-59904285D01*
X141757142Y-108514285D02*
X144042857Y-108514285D01*
X107352285Y-107355142D02*
X107352285Y-109640857D01*
X108495142Y-108498000D02*
X106209428Y-108498000D01*
X132894285Y-109452857D02*
X132894285Y-107167142D01*
X134037142Y-108310000D02*
X131751428Y-108310000D01*
X79714285Y-109542857D02*
X79714285Y-107257142D01*
X80857142Y-108400000D02*
X78571428Y-108400000D01*
X134754285Y-60822857D02*
X134754285Y-58537142D01*
X135897142Y-59680000D02*
X133611428Y-59680000D01*
X118722857Y-59904285D02*
X116437142Y-59904285D01*
X107634285Y-60832857D02*
X107634285Y-58547142D01*
X108777142Y-59690000D02*
X106491428Y-59690000D01*
D12*
X86976008Y-120420000D02*
X85452008Y-119785000D01*
X95979991Y-116215040D02*
X95979991Y-120845000D01*
X95979991Y-120845000D02*
X93475041Y-120845000D01*
X87230008Y-120845000D02*
X87230008Y-116215040D01*
X85452008Y-119785000D02*
X85452008Y-121055000D01*
X91734961Y-120845000D02*
X91475040Y-120845000D01*
X85452008Y-121055000D02*
X86976008Y-120420000D01*
X89734960Y-120845000D02*
X87230008Y-120845000D01*
X88689018Y-112895000D02*
X94520981Y-112895000D01*
%LPC*%
D13*
X84600000Y-42750000D03*
D14*
X107768000Y-104348000D03*
X116768000Y-104348000D03*
X133300000Y-104200000D03*
X142300000Y-104200000D03*
D13*
X139600000Y-138250000D03*
D14*
X79700000Y-104200000D03*
X88700000Y-104200000D03*
X135100000Y-55580000D03*
X144100000Y-55580000D03*
D13*
X84600000Y-138250000D03*
D14*
X79700000Y-55580000D03*
X88700000Y-55580000D03*
D13*
X139600000Y-42750000D03*
D14*
X108000000Y-55580000D03*
X117000000Y-55580000D03*
D15*
X90605000Y-120420000D03*
X92605001Y-120420000D03*
D16*
X87710002Y-114445001D03*
X95499997Y-114445001D03*
M02*
