G04 #@! TF.GenerationSoftware,KiCad,Pcbnew,(6.0.5-0)*
G04 #@! TF.CreationDate,2023-03-07T01:19:38-05:00*
G04 #@! TF.ProjectId,solar-cell-pcbs-usbUPDATING,736f6c61-722d-4636-956c-6c2d70636273,3*
G04 #@! TF.SameCoordinates,Original*
G04 #@! TF.FileFunction,Copper,L1,Top*
G04 #@! TF.FilePolarity,Positive*
%FSLAX46Y46*%
G04 Gerber Fmt 4.6, Leading zero omitted, Abs format (unit mm)*
G04 Created by KiCad (PCBNEW (6.0.5-0)) date 2023-03-07 01:19:38*
%MOMM*%
%LPD*%
G01*
G04 APERTURE LIST*
G04 #@! TA.AperFunction,ComponentPad*
%ADD10C,5.600000*%
G04 #@! TD*
G04 #@! TA.AperFunction,ComponentPad*
%ADD11C,3.000000*%
G04 #@! TD*
G04 #@! TA.AperFunction,SMDPad,CuDef*
%ADD12R,1.700000X2.500000*%
G04 #@! TD*
G04 #@! TA.AperFunction,ViaPad*
%ADD13C,0.800000*%
G04 #@! TD*
G04 #@! TA.AperFunction,Conductor*
%ADD14C,0.500000*%
G04 #@! TD*
G04 APERTURE END LIST*
D10*
X84600000Y-42750000D03*
D11*
X107768000Y-104348000D03*
X116768000Y-104348000D03*
X133300000Y-104200000D03*
X142300000Y-104200000D03*
D12*
X98500000Y-114900000D03*
X98500000Y-110900000D03*
D10*
X139600000Y-138250000D03*
D11*
X79700000Y-104200000D03*
X88700000Y-104200000D03*
X135100000Y-55580000D03*
X144100000Y-55580000D03*
D12*
X98500000Y-124000000D03*
X98500000Y-128000000D03*
D10*
X84600000Y-138250000D03*
D11*
X79700000Y-55580000D03*
X88700000Y-55580000D03*
D10*
X139600000Y-42750000D03*
D11*
X108000000Y-55580000D03*
X117000000Y-55580000D03*
D13*
X146100000Y-104300000D03*
X145200000Y-106900000D03*
X144300000Y-106200000D03*
X142400000Y-101600000D03*
X120000000Y-58040000D03*
X144200000Y-102400000D03*
X120900000Y-53240000D03*
X141200000Y-101600000D03*
X117300000Y-58200000D03*
X118400000Y-52040000D03*
X120900000Y-55140000D03*
X116200000Y-58600000D03*
X118900000Y-53340000D03*
X89300000Y-118900000D03*
X88100000Y-120600000D03*
X114500000Y-55240000D03*
X115100000Y-53440000D03*
X142300000Y-106900000D03*
X120200000Y-56640000D03*
X88200000Y-121900000D03*
X119600000Y-55240000D03*
X89000000Y-121300000D03*
X145200000Y-105500000D03*
X120000000Y-54040000D03*
X88100000Y-119300000D03*
X144900000Y-104300000D03*
X115800000Y-51940000D03*
X140400000Y-106200000D03*
X119000000Y-57140000D03*
X88900000Y-119800000D03*
X117000000Y-52640000D03*
X118500000Y-58340000D03*
X139800000Y-104300000D03*
X145200000Y-103100000D03*
X114400000Y-56600000D03*
X89700000Y-122200000D03*
X143800000Y-107300000D03*
X119800000Y-52340000D03*
X145100000Y-101700000D03*
X143600000Y-101200000D03*
X146300000Y-105800000D03*
X92600000Y-124000000D03*
D14*
X135100000Y-93600000D02*
X135100000Y-55580000D01*
X124352000Y-104348000D02*
X135100000Y-93600000D01*
X116768000Y-104348000D02*
X124352000Y-104348000D01*
X107696000Y-104420000D02*
X107768000Y-104348000D01*
X107696000Y-119888000D02*
X107696000Y-104420000D01*
X98500000Y-128000000D02*
X99584000Y-128000000D01*
X99584000Y-128000000D02*
X107696000Y-119888000D01*
X79700000Y-68700000D02*
X79700000Y-55580000D01*
X79700000Y-68700000D02*
X98500000Y-87500000D01*
X98500000Y-87500000D02*
X98500000Y-110900000D01*
X133300000Y-104200000D02*
X144100000Y-93400000D01*
X144100000Y-93400000D02*
X144100000Y-55580000D01*
X92600000Y-124000000D02*
X98500000Y-124000000D01*
X92600000Y-124000000D02*
X98500000Y-118100000D01*
X98500000Y-118100000D02*
X98500000Y-114900000D01*
G04 #@! TA.AperFunction,Conductor*
G36*
X83983879Y-39278502D02*
G01*
X84030372Y-39332158D01*
X84040476Y-39402432D01*
X84010982Y-39467012D01*
X83951256Y-39505396D01*
X83942600Y-39507608D01*
X83723586Y-39555361D01*
X83717011Y-39557172D01*
X83383683Y-39668702D01*
X83377361Y-39671205D01*
X83058034Y-39818079D01*
X83051991Y-39821265D01*
X82750401Y-40001763D01*
X82744755Y-40005571D01*
X82464408Y-40217596D01*
X82459211Y-40221987D01*
X82457972Y-40223155D01*
X82449950Y-40236862D01*
X82449986Y-40237704D01*
X82455037Y-40245826D01*
X84587190Y-42377980D01*
X84601131Y-42385592D01*
X84602966Y-42385461D01*
X84609580Y-42381210D01*
X86742798Y-40247991D01*
X86750412Y-40234047D01*
X86750344Y-40233089D01*
X86745836Y-40226272D01*
X86744418Y-40225065D01*
X86464813Y-40012064D01*
X86459187Y-40008240D01*
X86158214Y-39826681D01*
X86152202Y-39823484D01*
X85833370Y-39675487D01*
X85827070Y-39672967D01*
X85494129Y-39560273D01*
X85487551Y-39558437D01*
X85257846Y-39507513D01*
X85195669Y-39473241D01*
X85161891Y-39410795D01*
X85167237Y-39340000D01*
X85210009Y-39283333D01*
X85276627Y-39258786D01*
X85285117Y-39258500D01*
X138915758Y-39258500D01*
X138983879Y-39278502D01*
X139030372Y-39332158D01*
X139040476Y-39402432D01*
X139010982Y-39467012D01*
X138951256Y-39505396D01*
X138942600Y-39507608D01*
X138723586Y-39555361D01*
X138717011Y-39557172D01*
X138383683Y-39668702D01*
X138377361Y-39671205D01*
X138058034Y-39818079D01*
X138051991Y-39821265D01*
X137750401Y-40001763D01*
X137744755Y-40005571D01*
X137464408Y-40217596D01*
X137459211Y-40221987D01*
X137457972Y-40223155D01*
X137449950Y-40236862D01*
X137449986Y-40237704D01*
X137455037Y-40245826D01*
X139587190Y-42377980D01*
X139601131Y-42385592D01*
X139602966Y-42385461D01*
X139609580Y-42381210D01*
X141742798Y-40247991D01*
X141750412Y-40234047D01*
X141750344Y-40233089D01*
X141745836Y-40226272D01*
X141744418Y-40225065D01*
X141464813Y-40012064D01*
X141459187Y-40008240D01*
X141158214Y-39826681D01*
X141152202Y-39823484D01*
X140833370Y-39675487D01*
X140827070Y-39672967D01*
X140494129Y-39560273D01*
X140487551Y-39558437D01*
X140257846Y-39507513D01*
X140195669Y-39473241D01*
X140161891Y-39410795D01*
X140167237Y-39340000D01*
X140210009Y-39283333D01*
X140276627Y-39258786D01*
X140285117Y-39258500D01*
X151465500Y-39258500D01*
X151533621Y-39278502D01*
X151580114Y-39332158D01*
X151591500Y-39384500D01*
X151591500Y-141615500D01*
X151571498Y-141683621D01*
X151517842Y-141730114D01*
X151465500Y-141741500D01*
X140283537Y-141741500D01*
X140215416Y-141721498D01*
X140168923Y-141667842D01*
X140158819Y-141597568D01*
X140188313Y-141532988D01*
X140248039Y-141494604D01*
X140257125Y-141492299D01*
X140465274Y-141447676D01*
X140471822Y-141445897D01*
X140805549Y-141335527D01*
X140811891Y-141333041D01*
X141131718Y-141187288D01*
X141137777Y-141184121D01*
X141439995Y-141004676D01*
X141445659Y-141000884D01*
X141726732Y-140789849D01*
X141731958Y-140785464D01*
X141741613Y-140776428D01*
X141749682Y-140762750D01*
X141749654Y-140762024D01*
X141744512Y-140753723D01*
X139612810Y-138622020D01*
X139598869Y-138614408D01*
X139597034Y-138614539D01*
X139590420Y-138618790D01*
X137456774Y-140752437D01*
X137449160Y-140766381D01*
X137449237Y-140767470D01*
X137451698Y-140771206D01*
X137725632Y-140981404D01*
X137731262Y-140985259D01*
X138031591Y-141167862D01*
X138037593Y-141171080D01*
X138355897Y-141320184D01*
X138362202Y-141322732D01*
X138694743Y-141436587D01*
X138701309Y-141438444D01*
X138941542Y-141492583D01*
X139003598Y-141527071D01*
X139037158Y-141589636D01*
X139031565Y-141660412D01*
X138988596Y-141716928D01*
X138921892Y-141741242D01*
X138913841Y-141741500D01*
X85283537Y-141741500D01*
X85215416Y-141721498D01*
X85168923Y-141667842D01*
X85158819Y-141597568D01*
X85188313Y-141532988D01*
X85248039Y-141494604D01*
X85257125Y-141492299D01*
X85465274Y-141447676D01*
X85471822Y-141445897D01*
X85805549Y-141335527D01*
X85811891Y-141333041D01*
X86131718Y-141187288D01*
X86137777Y-141184121D01*
X86439995Y-141004676D01*
X86445659Y-141000884D01*
X86726732Y-140789849D01*
X86731958Y-140785464D01*
X86741613Y-140776428D01*
X86749682Y-140762750D01*
X86749654Y-140762024D01*
X86744512Y-140753723D01*
X84612810Y-138622020D01*
X84598869Y-138614408D01*
X84597034Y-138614539D01*
X84590420Y-138618790D01*
X82456774Y-140752437D01*
X82449160Y-140766381D01*
X82449237Y-140767470D01*
X82451698Y-140771206D01*
X82725632Y-140981404D01*
X82731262Y-140985259D01*
X83031591Y-141167862D01*
X83037593Y-141171080D01*
X83355897Y-141320184D01*
X83362202Y-141322732D01*
X83694743Y-141436587D01*
X83701309Y-141438444D01*
X83941542Y-141492583D01*
X84003598Y-141527071D01*
X84037158Y-141589636D01*
X84031565Y-141660412D01*
X83988596Y-141716928D01*
X83921892Y-141741242D01*
X83913841Y-141741500D01*
X72734500Y-141741500D01*
X72666379Y-141721498D01*
X72619886Y-141667842D01*
X72608500Y-141615500D01*
X72608500Y-138241832D01*
X81287333Y-138241832D01*
X81305117Y-138592893D01*
X81305827Y-138599649D01*
X81361420Y-138946723D01*
X81362859Y-138953378D01*
X81455608Y-139292410D01*
X81457757Y-139298871D01*
X81586581Y-139625912D01*
X81589412Y-139632095D01*
X81752803Y-139943310D01*
X81756286Y-139949152D01*
X81952330Y-140240896D01*
X81956433Y-140246340D01*
X82076425Y-140388836D01*
X82089164Y-140397279D01*
X82099608Y-140391181D01*
X84227980Y-138262810D01*
X84234357Y-138251131D01*
X84964408Y-138251131D01*
X84964539Y-138252966D01*
X84968790Y-138259580D01*
X87099009Y-140389798D01*
X87112605Y-140397223D01*
X87122218Y-140390522D01*
X87222518Y-140273912D01*
X87226676Y-140268514D01*
X87425762Y-139978840D01*
X87429310Y-139973029D01*
X87595942Y-139663559D01*
X87598849Y-139657381D01*
X87731090Y-139331713D01*
X87733304Y-139325283D01*
X87829598Y-138987237D01*
X87831105Y-138980607D01*
X87890332Y-138634118D01*
X87891112Y-138627378D01*
X87912668Y-138274925D01*
X87912784Y-138271323D01*
X87912853Y-138251819D01*
X87912761Y-138248194D01*
X87912416Y-138241832D01*
X136287333Y-138241832D01*
X136305117Y-138592893D01*
X136305827Y-138599649D01*
X136361420Y-138946723D01*
X136362859Y-138953378D01*
X136455608Y-139292410D01*
X136457757Y-139298871D01*
X136586581Y-139625912D01*
X136589412Y-139632095D01*
X136752803Y-139943310D01*
X136756286Y-139949152D01*
X136952330Y-140240896D01*
X136956433Y-140246340D01*
X137076425Y-140388836D01*
X137089164Y-140397279D01*
X137099608Y-140391181D01*
X139227980Y-138262810D01*
X139234357Y-138251131D01*
X139964408Y-138251131D01*
X139964539Y-138252966D01*
X139968790Y-138259580D01*
X142099009Y-140389798D01*
X142112605Y-140397223D01*
X142122218Y-140390522D01*
X142222518Y-140273912D01*
X142226676Y-140268514D01*
X142425762Y-139978840D01*
X142429310Y-139973029D01*
X142595942Y-139663559D01*
X142598849Y-139657381D01*
X142731090Y-139331713D01*
X142733304Y-139325283D01*
X142829598Y-138987237D01*
X142831105Y-138980607D01*
X142890332Y-138634118D01*
X142891112Y-138627378D01*
X142912668Y-138274925D01*
X142912784Y-138271323D01*
X142912853Y-138251819D01*
X142912761Y-138248194D01*
X142893666Y-137895615D01*
X142892931Y-137888849D01*
X142836130Y-137541985D01*
X142834663Y-137535313D01*
X142740736Y-137196627D01*
X142738562Y-137190163D01*
X142608598Y-136863578D01*
X142605742Y-136857398D01*
X142441269Y-136546763D01*
X142437769Y-136540937D01*
X142240697Y-136249862D01*
X142236590Y-136244453D01*
X142123565Y-136111179D01*
X142110740Y-136102743D01*
X142100416Y-136108795D01*
X139972020Y-138237190D01*
X139964408Y-138251131D01*
X139234357Y-138251131D01*
X139235592Y-138248869D01*
X139235461Y-138247034D01*
X139231210Y-138240420D01*
X137100992Y-136110203D01*
X137087455Y-136102811D01*
X137077753Y-136109599D01*
X136970430Y-136235257D01*
X136966296Y-136240664D01*
X136768215Y-136531041D01*
X136764697Y-136536851D01*
X136599134Y-136846922D01*
X136596259Y-136853087D01*
X136465155Y-137179218D01*
X136462962Y-137185658D01*
X136367846Y-137524044D01*
X136366363Y-137530679D01*
X136308350Y-137877354D01*
X136307591Y-137884126D01*
X136287357Y-138235037D01*
X136287333Y-138241832D01*
X87912416Y-138241832D01*
X87893666Y-137895615D01*
X87892931Y-137888849D01*
X87836130Y-137541985D01*
X87834663Y-137535313D01*
X87740736Y-137196627D01*
X87738562Y-137190163D01*
X87608598Y-136863578D01*
X87605742Y-136857398D01*
X87441269Y-136546763D01*
X87437769Y-136540937D01*
X87240697Y-136249862D01*
X87236590Y-136244453D01*
X87123565Y-136111179D01*
X87110740Y-136102743D01*
X87100416Y-136108795D01*
X84972020Y-138237190D01*
X84964408Y-138251131D01*
X84234357Y-138251131D01*
X84235592Y-138248869D01*
X84235461Y-138247034D01*
X84231210Y-138240420D01*
X82100992Y-136110203D01*
X82087455Y-136102811D01*
X82077753Y-136109599D01*
X81970430Y-136235257D01*
X81966296Y-136240664D01*
X81768215Y-136531041D01*
X81764697Y-136536851D01*
X81599134Y-136846922D01*
X81596259Y-136853087D01*
X81465155Y-137179218D01*
X81462962Y-137185658D01*
X81367846Y-137524044D01*
X81366363Y-137530679D01*
X81308350Y-137877354D01*
X81307591Y-137884126D01*
X81287357Y-138235037D01*
X81287333Y-138241832D01*
X72608500Y-138241832D01*
X72608500Y-135736862D01*
X82449950Y-135736862D01*
X82449986Y-135737704D01*
X82455037Y-135745826D01*
X84587190Y-137877980D01*
X84601131Y-137885592D01*
X84602966Y-137885461D01*
X84609580Y-137881210D01*
X86742798Y-135747991D01*
X86748875Y-135736862D01*
X137449950Y-135736862D01*
X137449986Y-135737704D01*
X137455037Y-135745826D01*
X139587190Y-137877980D01*
X139601131Y-137885592D01*
X139602966Y-137885461D01*
X139609580Y-137881210D01*
X141742798Y-135747991D01*
X141750412Y-135734047D01*
X141750344Y-135733089D01*
X141745836Y-135726272D01*
X141744418Y-135725065D01*
X141464813Y-135512064D01*
X141459187Y-135508240D01*
X141158214Y-135326681D01*
X141152202Y-135323484D01*
X140833370Y-135175487D01*
X140827070Y-135172967D01*
X140494129Y-135060273D01*
X140487551Y-135058437D01*
X140144417Y-134982367D01*
X140137678Y-134981251D01*
X139788310Y-134942680D01*
X139781529Y-134942301D01*
X139430015Y-134941687D01*
X139423242Y-134942042D01*
X139073720Y-134979395D01*
X139067010Y-134980482D01*
X138723586Y-135055361D01*
X138717011Y-135057172D01*
X138383683Y-135168702D01*
X138377361Y-135171205D01*
X138058034Y-135318079D01*
X138051991Y-135321265D01*
X137750401Y-135501763D01*
X137744755Y-135505571D01*
X137464408Y-135717596D01*
X137459211Y-135721987D01*
X137457972Y-135723155D01*
X137449950Y-135736862D01*
X86748875Y-135736862D01*
X86750412Y-135734047D01*
X86750344Y-135733089D01*
X86745836Y-135726272D01*
X86744418Y-135725065D01*
X86464813Y-135512064D01*
X86459187Y-135508240D01*
X86158214Y-135326681D01*
X86152202Y-135323484D01*
X85833370Y-135175487D01*
X85827070Y-135172967D01*
X85494129Y-135060273D01*
X85487551Y-135058437D01*
X85144417Y-134982367D01*
X85137678Y-134981251D01*
X84788310Y-134942680D01*
X84781529Y-134942301D01*
X84430015Y-134941687D01*
X84423242Y-134942042D01*
X84073720Y-134979395D01*
X84067010Y-134980482D01*
X83723586Y-135055361D01*
X83717011Y-135057172D01*
X83383683Y-135168702D01*
X83377361Y-135171205D01*
X83058034Y-135318079D01*
X83051991Y-135321265D01*
X82750401Y-135501763D01*
X82744755Y-135505571D01*
X82464408Y-135717596D01*
X82459211Y-135721987D01*
X82457972Y-135723155D01*
X82449950Y-135736862D01*
X72608500Y-135736862D01*
X72608500Y-129298134D01*
X97141500Y-129298134D01*
X97148255Y-129360316D01*
X97199385Y-129496705D01*
X97286739Y-129613261D01*
X97403295Y-129700615D01*
X97539684Y-129751745D01*
X97601866Y-129758500D01*
X99398134Y-129758500D01*
X99460316Y-129751745D01*
X99596705Y-129700615D01*
X99713261Y-129613261D01*
X99800615Y-129496705D01*
X99851745Y-129360316D01*
X99858500Y-129298134D01*
X99858500Y-128793474D01*
X99878502Y-128725353D01*
X99925759Y-128682897D01*
X99925937Y-128682833D01*
X99986976Y-128642814D01*
X99990680Y-128640477D01*
X100053107Y-128602595D01*
X100061484Y-128595197D01*
X100061508Y-128595224D01*
X100064500Y-128592571D01*
X100067733Y-128589868D01*
X100073852Y-128585856D01*
X100127128Y-128529617D01*
X100129506Y-128527175D01*
X108184911Y-120471770D01*
X108199323Y-120459384D01*
X108210918Y-120450851D01*
X108210923Y-120450846D01*
X108216818Y-120446508D01*
X108221557Y-120440930D01*
X108221560Y-120440927D01*
X108251035Y-120406232D01*
X108257965Y-120398716D01*
X108263660Y-120393021D01*
X108281281Y-120370749D01*
X108284072Y-120367345D01*
X108326591Y-120317297D01*
X108326592Y-120317295D01*
X108331333Y-120311715D01*
X108334661Y-120305199D01*
X108338028Y-120300150D01*
X108341195Y-120295021D01*
X108345734Y-120289284D01*
X108376655Y-120223125D01*
X108378561Y-120219225D01*
X108411769Y-120154192D01*
X108413508Y-120147084D01*
X108415607Y-120141441D01*
X108417524Y-120135678D01*
X108420622Y-120129050D01*
X108435487Y-120057583D01*
X108436457Y-120053299D01*
X108452473Y-119987845D01*
X108453808Y-119982390D01*
X108454500Y-119971236D01*
X108454536Y-119971238D01*
X108454775Y-119967245D01*
X108455149Y-119963053D01*
X108456640Y-119955885D01*
X108454546Y-119878479D01*
X108454500Y-119875072D01*
X108454500Y-106321852D01*
X108474502Y-106253731D01*
X108532282Y-106205443D01*
X108603471Y-106175955D01*
X108663136Y-106151241D01*
X108899582Y-106013073D01*
X109115089Y-105844094D01*
X109133059Y-105825551D01*
X109297560Y-105655799D01*
X109305669Y-105647431D01*
X109308202Y-105643983D01*
X109308206Y-105643978D01*
X109465257Y-105430178D01*
X109467795Y-105426723D01*
X109473335Y-105416520D01*
X109596418Y-105189830D01*
X109596419Y-105189827D01*
X109598468Y-105186054D01*
X109676275Y-104980144D01*
X109693751Y-104933895D01*
X109693752Y-104933891D01*
X109695269Y-104929877D01*
X109743096Y-104721053D01*
X109755449Y-104667117D01*
X109755450Y-104667113D01*
X109756407Y-104662933D01*
X109765189Y-104564539D01*
X109780531Y-104392627D01*
X109780531Y-104392625D01*
X109780751Y-104390161D01*
X109781193Y-104348000D01*
X109779756Y-104326918D01*
X114754917Y-104326918D01*
X114770682Y-104600320D01*
X114771507Y-104604525D01*
X114771508Y-104604533D01*
X114782127Y-104658657D01*
X114823405Y-104869053D01*
X114824792Y-104873103D01*
X114824793Y-104873108D01*
X114906107Y-105110606D01*
X114912112Y-105128144D01*
X115035160Y-105372799D01*
X115037586Y-105376328D01*
X115037589Y-105376334D01*
X115187843Y-105594953D01*
X115190274Y-105598490D01*
X115193161Y-105601663D01*
X115193162Y-105601664D01*
X115351629Y-105775818D01*
X115374582Y-105801043D01*
X115584675Y-105976707D01*
X115588316Y-105978991D01*
X115813024Y-106119951D01*
X115813028Y-106119953D01*
X115816664Y-106122234D01*
X115911090Y-106164869D01*
X116062345Y-106233164D01*
X116062349Y-106233166D01*
X116066257Y-106234930D01*
X116070377Y-106236150D01*
X116070376Y-106236150D01*
X116324723Y-106311491D01*
X116324727Y-106311492D01*
X116328836Y-106312709D01*
X116333070Y-106313357D01*
X116333075Y-106313358D01*
X116595298Y-106353483D01*
X116595300Y-106353483D01*
X116599540Y-106354132D01*
X116738912Y-106356322D01*
X116869071Y-106358367D01*
X116869077Y-106358367D01*
X116873362Y-106358434D01*
X117145235Y-106325534D01*
X117410127Y-106256041D01*
X117414087Y-106254401D01*
X117414092Y-106254399D01*
X117598413Y-106178050D01*
X117663136Y-106151241D01*
X117899582Y-106013073D01*
X118115089Y-105844094D01*
X118133059Y-105825551D01*
X118297560Y-105655799D01*
X118305669Y-105647431D01*
X118308202Y-105643983D01*
X118308206Y-105643978D01*
X118465257Y-105430178D01*
X118467795Y-105426723D01*
X118473335Y-105416520D01*
X118596420Y-105189827D01*
X118596423Y-105189820D01*
X118598468Y-105186054D01*
X118599986Y-105182036D01*
X118600895Y-105180051D01*
X118647438Y-105126439D01*
X118715460Y-105106500D01*
X124284930Y-105106500D01*
X124303880Y-105107933D01*
X124318115Y-105110099D01*
X124318119Y-105110099D01*
X124325349Y-105111199D01*
X124332641Y-105110606D01*
X124332644Y-105110606D01*
X124378018Y-105106915D01*
X124388233Y-105106500D01*
X124396293Y-105106500D01*
X124409583Y-105104951D01*
X124424507Y-105103211D01*
X124428882Y-105102778D01*
X124494339Y-105097454D01*
X124494342Y-105097453D01*
X124501637Y-105096860D01*
X124508601Y-105094604D01*
X124514560Y-105093413D01*
X124520415Y-105092029D01*
X124527681Y-105091182D01*
X124596327Y-105066265D01*
X124600455Y-105064848D01*
X124662936Y-105044607D01*
X124662938Y-105044606D01*
X124669899Y-105042351D01*
X124676154Y-105038555D01*
X124681628Y-105036049D01*
X124687058Y-105033330D01*
X124693937Y-105030833D01*
X124754976Y-104990814D01*
X124758680Y-104988477D01*
X124821107Y-104950595D01*
X124829484Y-104943197D01*
X124829508Y-104943224D01*
X124832500Y-104940571D01*
X124835733Y-104937868D01*
X124841852Y-104933856D01*
X124895128Y-104877617D01*
X124897506Y-104875175D01*
X125593763Y-104178918D01*
X131286917Y-104178918D01*
X131302682Y-104452320D01*
X131303507Y-104456525D01*
X131303508Y-104456533D01*
X131324698Y-104564539D01*
X131355405Y-104721053D01*
X131356792Y-104725103D01*
X131356793Y-104725108D01*
X131428264Y-104933856D01*
X131444112Y-104980144D01*
X131487432Y-105066276D01*
X131549573Y-105189830D01*
X131567160Y-105224799D01*
X131569586Y-105228328D01*
X131569589Y-105228334D01*
X131703509Y-105423187D01*
X131722274Y-105450490D01*
X131725161Y-105453663D01*
X131725162Y-105453664D01*
X131903692Y-105649867D01*
X131906582Y-105653043D01*
X132116675Y-105828707D01*
X132120316Y-105830991D01*
X132345024Y-105971951D01*
X132345028Y-105971953D01*
X132348664Y-105974234D01*
X132416544Y-106004883D01*
X132594345Y-106085164D01*
X132594349Y-106085166D01*
X132598257Y-106086930D01*
X132602377Y-106088150D01*
X132602376Y-106088150D01*
X132856723Y-106163491D01*
X132856727Y-106163492D01*
X132860836Y-106164709D01*
X132865070Y-106165357D01*
X132865075Y-106165358D01*
X133127298Y-106205483D01*
X133127300Y-106205483D01*
X133131540Y-106206132D01*
X133270912Y-106208322D01*
X133401071Y-106210367D01*
X133401077Y-106210367D01*
X133405362Y-106210434D01*
X133677235Y-106177534D01*
X133942127Y-106108041D01*
X133946087Y-106106401D01*
X133946092Y-106106399D01*
X134068632Y-106055641D01*
X134195136Y-106003241D01*
X134431582Y-105865073D01*
X134527767Y-105789654D01*
X141075618Y-105789654D01*
X141082673Y-105799627D01*
X141113679Y-105825551D01*
X141120598Y-105830579D01*
X141345272Y-105971515D01*
X141352807Y-105975556D01*
X141594520Y-106084694D01*
X141602551Y-106087680D01*
X141856832Y-106163002D01*
X141865184Y-106164869D01*
X142127340Y-106204984D01*
X142135874Y-106205700D01*
X142401045Y-106209867D01*
X142409596Y-106209418D01*
X142672883Y-106177557D01*
X142681284Y-106175955D01*
X142937824Y-106108653D01*
X142945926Y-106105926D01*
X143190949Y-106004434D01*
X143198617Y-106000628D01*
X143427598Y-105866822D01*
X143434679Y-105862009D01*
X143514655Y-105799301D01*
X143523125Y-105787442D01*
X143516608Y-105775818D01*
X142312812Y-104572022D01*
X142298868Y-104564408D01*
X142297035Y-104564539D01*
X142290420Y-104568790D01*
X141082910Y-105776300D01*
X141075618Y-105789654D01*
X134527767Y-105789654D01*
X134647089Y-105696094D01*
X134688809Y-105653043D01*
X134834686Y-105502509D01*
X134837669Y-105499431D01*
X134840202Y-105495983D01*
X134840206Y-105495978D01*
X134997257Y-105282178D01*
X134999795Y-105278723D01*
X135001841Y-105274955D01*
X135128418Y-105041830D01*
X135128419Y-105041828D01*
X135130468Y-105038054D01*
X135227269Y-104781877D01*
X135288407Y-104514933D01*
X135294384Y-104447969D01*
X135312531Y-104244627D01*
X135312532Y-104244616D01*
X135312751Y-104242161D01*
X135313193Y-104200000D01*
X135312048Y-104183204D01*
X140287665Y-104183204D01*
X140302932Y-104447969D01*
X140304005Y-104456470D01*
X140355065Y-104716722D01*
X140357276Y-104724974D01*
X140443184Y-104975894D01*
X140446499Y-104983779D01*
X140565664Y-105220713D01*
X140570020Y-105228079D01*
X140699347Y-105416250D01*
X140709601Y-105424594D01*
X140723342Y-105417448D01*
X141927978Y-104212812D01*
X141934356Y-104201132D01*
X142664408Y-104201132D01*
X142664539Y-104202965D01*
X142668790Y-104209580D01*
X143875730Y-105416520D01*
X143887939Y-105423187D01*
X143899439Y-105414497D01*
X143996831Y-105281913D01*
X144001418Y-105274685D01*
X144127962Y-105041621D01*
X144131530Y-105033827D01*
X144225271Y-104785750D01*
X144227748Y-104777544D01*
X144286954Y-104519038D01*
X144288294Y-104510577D01*
X144312031Y-104244616D01*
X144312277Y-104239677D01*
X144312666Y-104202485D01*
X144312523Y-104197519D01*
X144294362Y-103931123D01*
X144293201Y-103922649D01*
X144239419Y-103662944D01*
X144237120Y-103654709D01*
X144148588Y-103404705D01*
X144145191Y-103396854D01*
X144023550Y-103161178D01*
X144019122Y-103153866D01*
X143900031Y-102984417D01*
X143889509Y-102976037D01*
X143876121Y-102983089D01*
X142672022Y-104187188D01*
X142664408Y-104201132D01*
X141934356Y-104201132D01*
X141935592Y-104198868D01*
X141935461Y-104197035D01*
X141931210Y-104190420D01*
X140723814Y-102983024D01*
X140711804Y-102976466D01*
X140700064Y-102985434D01*
X140591935Y-103135911D01*
X140587418Y-103143196D01*
X140463325Y-103377567D01*
X140459839Y-103385395D01*
X140368700Y-103634446D01*
X140366311Y-103642670D01*
X140309812Y-103901795D01*
X140308563Y-103910250D01*
X140287754Y-104174653D01*
X140287665Y-104183204D01*
X135312048Y-104183204D01*
X135304948Y-104079055D01*
X135294859Y-103931055D01*
X135294858Y-103931049D01*
X135294567Y-103926778D01*
X135239032Y-103658612D01*
X135237602Y-103654574D01*
X135237601Y-103654569D01*
X135180588Y-103493569D01*
X135176704Y-103422679D01*
X135210266Y-103362415D01*
X135960181Y-102612500D01*
X141076584Y-102612500D01*
X141082980Y-102623770D01*
X142287188Y-103827978D01*
X142301132Y-103835592D01*
X142302965Y-103835461D01*
X142309580Y-103831210D01*
X143516604Y-102624186D01*
X143523795Y-102611017D01*
X143516473Y-102600780D01*
X143469233Y-102562115D01*
X143462261Y-102557160D01*
X143236122Y-102418582D01*
X143228552Y-102414624D01*
X142985704Y-102308022D01*
X142977644Y-102305120D01*
X142722592Y-102232467D01*
X142714214Y-102230685D01*
X142451656Y-102193318D01*
X142443111Y-102192691D01*
X142177908Y-102191302D01*
X142169374Y-102191839D01*
X141906433Y-102226456D01*
X141898035Y-102228149D01*
X141642238Y-102298127D01*
X141634143Y-102300946D01*
X141390199Y-102404997D01*
X141382577Y-102408881D01*
X141155013Y-102545075D01*
X141147981Y-102549962D01*
X141085053Y-102600377D01*
X141076584Y-102612500D01*
X135960181Y-102612500D01*
X144588911Y-93983770D01*
X144603323Y-93971384D01*
X144614918Y-93962851D01*
X144614923Y-93962846D01*
X144620818Y-93958508D01*
X144625557Y-93952930D01*
X144625560Y-93952927D01*
X144655035Y-93918232D01*
X144661965Y-93910716D01*
X144667660Y-93905021D01*
X144685281Y-93882749D01*
X144688072Y-93879345D01*
X144730591Y-93829297D01*
X144730592Y-93829295D01*
X144735333Y-93823715D01*
X144738661Y-93817199D01*
X144742020Y-93812162D01*
X144745194Y-93807023D01*
X144749734Y-93801284D01*
X144780636Y-93735163D01*
X144782569Y-93731209D01*
X144786239Y-93724021D01*
X144815769Y-93666192D01*
X144817510Y-93659076D01*
X144819604Y-93653446D01*
X144821523Y-93647679D01*
X144824621Y-93641050D01*
X144839483Y-93569600D01*
X144840453Y-93565315D01*
X144856473Y-93499844D01*
X144857808Y-93494390D01*
X144858500Y-93483236D01*
X144858536Y-93483238D01*
X144858775Y-93479248D01*
X144859150Y-93475050D01*
X144860640Y-93467885D01*
X144858546Y-93390479D01*
X144858500Y-93387072D01*
X144858500Y-57524028D01*
X144878502Y-57455907D01*
X144936281Y-57407620D01*
X144995136Y-57383241D01*
X145231582Y-57245073D01*
X145447089Y-57076094D01*
X145488809Y-57033043D01*
X145634686Y-56882509D01*
X145637669Y-56879431D01*
X145640202Y-56875983D01*
X145640206Y-56875978D01*
X145797257Y-56662178D01*
X145799795Y-56658723D01*
X145801841Y-56654955D01*
X145928418Y-56421830D01*
X145928419Y-56421828D01*
X145930468Y-56418054D01*
X146027269Y-56161877D01*
X146088407Y-55894933D01*
X146094384Y-55827969D01*
X146112531Y-55624627D01*
X146112532Y-55624616D01*
X146112751Y-55622161D01*
X146113193Y-55580000D01*
X146111465Y-55554648D01*
X146094859Y-55311055D01*
X146094858Y-55311049D01*
X146094567Y-55306778D01*
X146039032Y-55038612D01*
X145947617Y-54780465D01*
X145822013Y-54537112D01*
X145812040Y-54522921D01*
X145667008Y-54316562D01*
X145664545Y-54313057D01*
X145478125Y-54112445D01*
X145474810Y-54109731D01*
X145474806Y-54109728D01*
X145269523Y-53941706D01*
X145266205Y-53938990D01*
X145032704Y-53795901D01*
X145028768Y-53794173D01*
X144785873Y-53687549D01*
X144785869Y-53687548D01*
X144781945Y-53685825D01*
X144518566Y-53610800D01*
X144514324Y-53610196D01*
X144514318Y-53610195D01*
X144313834Y-53581662D01*
X144247443Y-53572213D01*
X144103589Y-53571460D01*
X143977877Y-53570802D01*
X143977871Y-53570802D01*
X143973591Y-53570780D01*
X143969347Y-53571339D01*
X143969343Y-53571339D01*
X143850302Y-53587011D01*
X143702078Y-53606525D01*
X143697938Y-53607658D01*
X143697936Y-53607658D01*
X143625008Y-53627609D01*
X143437928Y-53678788D01*
X143433980Y-53680472D01*
X143189982Y-53784546D01*
X143189978Y-53784548D01*
X143186030Y-53786232D01*
X143166125Y-53798145D01*
X142954725Y-53924664D01*
X142954721Y-53924667D01*
X142951043Y-53926868D01*
X142737318Y-54098094D01*
X142548808Y-54296742D01*
X142389002Y-54519136D01*
X142260857Y-54761161D01*
X142259385Y-54765184D01*
X142259383Y-54765188D01*
X142252314Y-54784506D01*
X142166743Y-55018337D01*
X142108404Y-55285907D01*
X142086917Y-55558918D01*
X142102682Y-55832320D01*
X142103507Y-55836525D01*
X142103508Y-55836533D01*
X142124698Y-55944539D01*
X142155405Y-56101053D01*
X142156792Y-56105103D01*
X142156793Y-56105108D01*
X142177605Y-56165895D01*
X142244112Y-56360144D01*
X142367160Y-56604799D01*
X142369586Y-56608328D01*
X142369589Y-56608334D01*
X142498741Y-56796250D01*
X142522274Y-56830490D01*
X142706582Y-57033043D01*
X142916675Y-57208707D01*
X142920316Y-57210991D01*
X143145024Y-57351951D01*
X143145028Y-57351953D01*
X143148664Y-57354234D01*
X143267352Y-57407824D01*
X143321205Y-57454086D01*
X143341500Y-57522660D01*
X143341500Y-93033629D01*
X143321498Y-93101750D01*
X143304595Y-93122724D01*
X134139814Y-102287505D01*
X134077502Y-102321531D01*
X134000074Y-102313783D01*
X133981945Y-102305825D01*
X133718566Y-102230800D01*
X133714324Y-102230196D01*
X133714318Y-102230195D01*
X133513834Y-102201662D01*
X133447443Y-102192213D01*
X133303589Y-102191460D01*
X133177877Y-102190802D01*
X133177871Y-102190802D01*
X133173591Y-102190780D01*
X133169347Y-102191339D01*
X133169343Y-102191339D01*
X133050302Y-102207011D01*
X132902078Y-102226525D01*
X132897938Y-102227658D01*
X132897936Y-102227658D01*
X132825008Y-102247609D01*
X132637928Y-102298788D01*
X132633980Y-102300472D01*
X132389982Y-102404546D01*
X132389978Y-102404548D01*
X132386030Y-102406232D01*
X132303627Y-102455549D01*
X132154725Y-102544664D01*
X132154721Y-102544667D01*
X132151043Y-102546868D01*
X131937318Y-102718094D01*
X131920717Y-102735588D01*
X131783253Y-102880445D01*
X131748808Y-102916742D01*
X131589002Y-103139136D01*
X131460857Y-103381161D01*
X131459385Y-103385184D01*
X131459383Y-103385188D01*
X131384615Y-103589500D01*
X131366743Y-103638337D01*
X131308404Y-103905907D01*
X131286917Y-104178918D01*
X125593763Y-104178918D01*
X135588911Y-94183770D01*
X135603323Y-94171384D01*
X135614918Y-94162851D01*
X135614923Y-94162846D01*
X135620818Y-94158508D01*
X135625557Y-94152930D01*
X135625560Y-94152927D01*
X135655035Y-94118232D01*
X135661965Y-94110716D01*
X135667660Y-94105021D01*
X135685281Y-94082749D01*
X135688072Y-94079345D01*
X135730591Y-94029297D01*
X135730592Y-94029295D01*
X135735333Y-94023715D01*
X135738661Y-94017199D01*
X135742028Y-94012150D01*
X135745195Y-94007021D01*
X135749734Y-94001284D01*
X135780655Y-93935125D01*
X135782561Y-93931225D01*
X135789196Y-93918232D01*
X135815769Y-93866192D01*
X135817508Y-93859084D01*
X135819607Y-93853441D01*
X135821524Y-93847678D01*
X135824622Y-93841050D01*
X135839487Y-93769583D01*
X135840457Y-93765299D01*
X135847831Y-93735163D01*
X135857808Y-93694390D01*
X135858500Y-93683236D01*
X135858536Y-93683238D01*
X135858775Y-93679245D01*
X135859149Y-93675053D01*
X135860640Y-93667885D01*
X135858546Y-93590479D01*
X135858500Y-93587072D01*
X135858500Y-57524028D01*
X135878502Y-57455907D01*
X135936281Y-57407620D01*
X135995136Y-57383241D01*
X136231582Y-57245073D01*
X136447089Y-57076094D01*
X136488809Y-57033043D01*
X136634686Y-56882509D01*
X136637669Y-56879431D01*
X136640202Y-56875983D01*
X136640206Y-56875978D01*
X136797257Y-56662178D01*
X136799795Y-56658723D01*
X136801841Y-56654955D01*
X136928418Y-56421830D01*
X136928419Y-56421828D01*
X136930468Y-56418054D01*
X137027269Y-56161877D01*
X137088407Y-55894933D01*
X137094384Y-55827969D01*
X137112531Y-55624627D01*
X137112532Y-55624616D01*
X137112751Y-55622161D01*
X137113193Y-55580000D01*
X137111465Y-55554648D01*
X137094859Y-55311055D01*
X137094858Y-55311049D01*
X137094567Y-55306778D01*
X137039032Y-55038612D01*
X136947617Y-54780465D01*
X136822013Y-54537112D01*
X136812040Y-54522921D01*
X136667008Y-54316562D01*
X136664545Y-54313057D01*
X136478125Y-54112445D01*
X136474810Y-54109731D01*
X136474806Y-54109728D01*
X136269523Y-53941706D01*
X136266205Y-53938990D01*
X136032704Y-53795901D01*
X136028768Y-53794173D01*
X135785873Y-53687549D01*
X135785869Y-53687548D01*
X135781945Y-53685825D01*
X135518566Y-53610800D01*
X135514324Y-53610196D01*
X135514318Y-53610195D01*
X135313834Y-53581662D01*
X135247443Y-53572213D01*
X135103589Y-53571460D01*
X134977877Y-53570802D01*
X134977871Y-53570802D01*
X134973591Y-53570780D01*
X134969347Y-53571339D01*
X134969343Y-53571339D01*
X134850302Y-53587011D01*
X134702078Y-53606525D01*
X134697938Y-53607658D01*
X134697936Y-53607658D01*
X134625008Y-53627609D01*
X134437928Y-53678788D01*
X134433980Y-53680472D01*
X134189982Y-53784546D01*
X134189978Y-53784548D01*
X134186030Y-53786232D01*
X134166125Y-53798145D01*
X133954725Y-53924664D01*
X133954721Y-53924667D01*
X133951043Y-53926868D01*
X133737318Y-54098094D01*
X133548808Y-54296742D01*
X133389002Y-54519136D01*
X133260857Y-54761161D01*
X133259385Y-54765184D01*
X133259383Y-54765188D01*
X133252314Y-54784506D01*
X133166743Y-55018337D01*
X133108404Y-55285907D01*
X133086917Y-55558918D01*
X133102682Y-55832320D01*
X133103507Y-55836525D01*
X133103508Y-55836533D01*
X133124698Y-55944539D01*
X133155405Y-56101053D01*
X133156792Y-56105103D01*
X133156793Y-56105108D01*
X133177605Y-56165895D01*
X133244112Y-56360144D01*
X133367160Y-56604799D01*
X133369586Y-56608328D01*
X133369589Y-56608334D01*
X133498741Y-56796250D01*
X133522274Y-56830490D01*
X133706582Y-57033043D01*
X133916675Y-57208707D01*
X133920316Y-57210991D01*
X134145024Y-57351951D01*
X134145028Y-57351953D01*
X134148664Y-57354234D01*
X134267352Y-57407824D01*
X134321205Y-57454086D01*
X134341500Y-57522660D01*
X134341500Y-93233629D01*
X134321498Y-93301750D01*
X134304595Y-93322724D01*
X124074724Y-103552595D01*
X124012412Y-103586621D01*
X123985629Y-103589500D01*
X118713557Y-103589500D01*
X118645436Y-103569498D01*
X118601591Y-103521290D01*
X118491978Y-103308919D01*
X118491978Y-103308918D01*
X118490013Y-103305112D01*
X118480040Y-103290921D01*
X118376217Y-103143196D01*
X118332545Y-103081057D01*
X118235353Y-102976466D01*
X118149046Y-102883588D01*
X118149043Y-102883585D01*
X118146125Y-102880445D01*
X118142810Y-102877731D01*
X118142806Y-102877728D01*
X117947771Y-102718094D01*
X117934205Y-102706990D01*
X117700704Y-102563901D01*
X117696768Y-102562173D01*
X117453873Y-102455549D01*
X117453869Y-102455548D01*
X117449945Y-102453825D01*
X117186566Y-102378800D01*
X117182324Y-102378196D01*
X117182318Y-102378195D01*
X116972939Y-102348396D01*
X116915443Y-102340213D01*
X116771589Y-102339460D01*
X116645877Y-102338802D01*
X116645871Y-102338802D01*
X116641591Y-102338780D01*
X116637347Y-102339339D01*
X116637343Y-102339339D01*
X116568549Y-102348396D01*
X116370078Y-102374525D01*
X116365938Y-102375658D01*
X116365936Y-102375658D01*
X116293008Y-102395609D01*
X116105928Y-102446788D01*
X116101980Y-102448472D01*
X115857982Y-102552546D01*
X115857978Y-102552548D01*
X115854030Y-102554232D01*
X115834125Y-102566145D01*
X115622725Y-102692664D01*
X115622721Y-102692667D01*
X115619043Y-102694868D01*
X115405318Y-102866094D01*
X115216808Y-103064742D01*
X115057002Y-103287136D01*
X114928857Y-103529161D01*
X114927385Y-103533184D01*
X114927383Y-103533188D01*
X114907829Y-103586621D01*
X114834743Y-103786337D01*
X114776404Y-104053907D01*
X114754917Y-104326918D01*
X109779756Y-104326918D01*
X109773809Y-104239686D01*
X109762859Y-104079055D01*
X109762858Y-104079049D01*
X109762567Y-104074778D01*
X109707032Y-103806612D01*
X109615617Y-103548465D01*
X109490013Y-103305112D01*
X109480040Y-103290921D01*
X109376217Y-103143196D01*
X109332545Y-103081057D01*
X109235353Y-102976466D01*
X109149046Y-102883588D01*
X109149043Y-102883585D01*
X109146125Y-102880445D01*
X109142810Y-102877731D01*
X109142806Y-102877728D01*
X108947771Y-102718094D01*
X108934205Y-102706990D01*
X108700704Y-102563901D01*
X108696768Y-102562173D01*
X108453873Y-102455549D01*
X108453869Y-102455548D01*
X108449945Y-102453825D01*
X108186566Y-102378800D01*
X108182324Y-102378196D01*
X108182318Y-102378195D01*
X107972939Y-102348396D01*
X107915443Y-102340213D01*
X107771589Y-102339460D01*
X107645877Y-102338802D01*
X107645871Y-102338802D01*
X107641591Y-102338780D01*
X107637347Y-102339339D01*
X107637343Y-102339339D01*
X107568549Y-102348396D01*
X107370078Y-102374525D01*
X107365938Y-102375658D01*
X107365936Y-102375658D01*
X107293008Y-102395609D01*
X107105928Y-102446788D01*
X107101980Y-102448472D01*
X106857982Y-102552546D01*
X106857978Y-102552548D01*
X106854030Y-102554232D01*
X106834125Y-102566145D01*
X106622725Y-102692664D01*
X106622721Y-102692667D01*
X106619043Y-102694868D01*
X106405318Y-102866094D01*
X106216808Y-103064742D01*
X106057002Y-103287136D01*
X105928857Y-103529161D01*
X105927385Y-103533184D01*
X105927383Y-103533188D01*
X105907829Y-103586621D01*
X105834743Y-103786337D01*
X105776404Y-104053907D01*
X105754917Y-104326918D01*
X105770682Y-104600320D01*
X105771507Y-104604525D01*
X105771508Y-104604533D01*
X105782127Y-104658657D01*
X105823405Y-104869053D01*
X105824792Y-104873103D01*
X105824793Y-104873108D01*
X105906107Y-105110606D01*
X105912112Y-105128144D01*
X106035160Y-105372799D01*
X106037586Y-105376328D01*
X106037589Y-105376334D01*
X106187843Y-105594953D01*
X106190274Y-105598490D01*
X106193161Y-105601663D01*
X106193162Y-105601664D01*
X106351629Y-105775818D01*
X106374582Y-105801043D01*
X106584675Y-105976707D01*
X106588316Y-105978991D01*
X106813024Y-106119951D01*
X106813028Y-106119953D01*
X106816664Y-106122234D01*
X106820574Y-106123999D01*
X106820575Y-106124000D01*
X106863351Y-106143314D01*
X106917205Y-106189577D01*
X106937500Y-106258151D01*
X106937500Y-119521629D01*
X106917498Y-119589750D01*
X106900595Y-119610724D01*
X99991936Y-126519383D01*
X99929624Y-126553409D01*
X99858809Y-126548344D01*
X99801973Y-126505797D01*
X99800967Y-126504233D01*
X99800615Y-126503295D01*
X99713261Y-126386739D01*
X99596705Y-126299385D01*
X99460316Y-126248255D01*
X99398134Y-126241500D01*
X97601866Y-126241500D01*
X97539684Y-126248255D01*
X97403295Y-126299385D01*
X97286739Y-126386739D01*
X97199385Y-126503295D01*
X97148255Y-126639684D01*
X97141500Y-126701866D01*
X97141500Y-129298134D01*
X72608500Y-129298134D01*
X72608500Y-124000000D01*
X91686496Y-124000000D01*
X91706458Y-124189928D01*
X91765473Y-124371556D01*
X91860960Y-124536944D01*
X91988747Y-124678866D01*
X92087843Y-124750864D01*
X92137904Y-124787235D01*
X92143248Y-124791118D01*
X92149276Y-124793802D01*
X92149278Y-124793803D01*
X92311681Y-124866109D01*
X92317712Y-124868794D01*
X92391603Y-124884500D01*
X92498056Y-124907128D01*
X92498061Y-124907128D01*
X92504513Y-124908500D01*
X92695487Y-124908500D01*
X92701939Y-124907128D01*
X92701944Y-124907128D01*
X92808397Y-124884500D01*
X92882288Y-124868794D01*
X92888319Y-124866109D01*
X93050722Y-124793803D01*
X93050724Y-124793802D01*
X93056752Y-124791118D01*
X93062091Y-124787239D01*
X93062098Y-124787235D01*
X93068528Y-124782563D01*
X93142587Y-124758500D01*
X97015500Y-124758500D01*
X97083621Y-124778502D01*
X97130114Y-124832158D01*
X97141500Y-124884500D01*
X97141500Y-125298134D01*
X97148255Y-125360316D01*
X97199385Y-125496705D01*
X97286739Y-125613261D01*
X97403295Y-125700615D01*
X97539684Y-125751745D01*
X97601866Y-125758500D01*
X99398134Y-125758500D01*
X99460316Y-125751745D01*
X99596705Y-125700615D01*
X99713261Y-125613261D01*
X99800615Y-125496705D01*
X99851745Y-125360316D01*
X99858500Y-125298134D01*
X99858500Y-122701866D01*
X99851745Y-122639684D01*
X99800615Y-122503295D01*
X99713261Y-122386739D01*
X99596705Y-122299385D01*
X99460316Y-122248255D01*
X99398134Y-122241500D01*
X97601866Y-122241500D01*
X97539684Y-122248255D01*
X97403295Y-122299385D01*
X97286739Y-122386739D01*
X97199385Y-122503295D01*
X97148255Y-122639684D01*
X97141500Y-122701866D01*
X97141500Y-123115500D01*
X97121498Y-123183621D01*
X97067842Y-123230114D01*
X97015500Y-123241500D01*
X94735371Y-123241500D01*
X94667250Y-123221498D01*
X94620757Y-123167842D01*
X94610653Y-123097568D01*
X94640147Y-123032988D01*
X94646276Y-123026405D01*
X98988911Y-118683770D01*
X99003323Y-118671384D01*
X99014918Y-118662851D01*
X99014923Y-118662846D01*
X99020818Y-118658508D01*
X99025557Y-118652930D01*
X99025560Y-118652927D01*
X99055035Y-118618232D01*
X99061965Y-118610716D01*
X99067660Y-118605021D01*
X99085281Y-118582749D01*
X99088072Y-118579345D01*
X99130591Y-118529297D01*
X99130592Y-118529295D01*
X99135333Y-118523715D01*
X99138661Y-118517199D01*
X99142028Y-118512150D01*
X99145195Y-118507021D01*
X99149734Y-118501284D01*
X99180655Y-118435125D01*
X99182561Y-118431225D01*
X99215769Y-118366192D01*
X99217508Y-118359084D01*
X99219607Y-118353441D01*
X99221524Y-118347678D01*
X99224622Y-118341050D01*
X99239487Y-118269583D01*
X99240457Y-118265299D01*
X99256473Y-118199845D01*
X99257808Y-118194390D01*
X99258500Y-118183236D01*
X99258536Y-118183238D01*
X99258775Y-118179245D01*
X99259149Y-118175053D01*
X99260640Y-118167885D01*
X99258546Y-118090479D01*
X99258500Y-118087072D01*
X99258500Y-116784500D01*
X99278502Y-116716379D01*
X99332158Y-116669886D01*
X99384500Y-116658500D01*
X99398134Y-116658500D01*
X99460316Y-116651745D01*
X99596705Y-116600615D01*
X99713261Y-116513261D01*
X99800615Y-116396705D01*
X99851745Y-116260316D01*
X99858500Y-116198134D01*
X99858500Y-113601866D01*
X99851745Y-113539684D01*
X99800615Y-113403295D01*
X99713261Y-113286739D01*
X99596705Y-113199385D01*
X99460316Y-113148255D01*
X99398134Y-113141500D01*
X97601866Y-113141500D01*
X97539684Y-113148255D01*
X97403295Y-113199385D01*
X97286739Y-113286739D01*
X97199385Y-113403295D01*
X97148255Y-113539684D01*
X97141500Y-113601866D01*
X97141500Y-116198134D01*
X97148255Y-116260316D01*
X97199385Y-116396705D01*
X97286739Y-116513261D01*
X97403295Y-116600615D01*
X97539684Y-116651745D01*
X97601866Y-116658500D01*
X97615500Y-116658500D01*
X97683621Y-116678502D01*
X97730114Y-116732158D01*
X97741500Y-116784500D01*
X97741500Y-117733629D01*
X97721498Y-117801750D01*
X97704595Y-117822724D01*
X92443669Y-123083650D01*
X92380772Y-123117801D01*
X92324176Y-123129831D01*
X92324167Y-123129834D01*
X92317712Y-123131206D01*
X92311682Y-123133891D01*
X92311681Y-123133891D01*
X92149278Y-123206197D01*
X92149276Y-123206198D01*
X92143248Y-123208882D01*
X92137907Y-123212762D01*
X92137906Y-123212763D01*
X92114025Y-123230114D01*
X91988747Y-123321134D01*
X91860960Y-123463056D01*
X91765473Y-123628444D01*
X91706458Y-123810072D01*
X91686496Y-124000000D01*
X72608500Y-124000000D01*
X72608500Y-104178918D01*
X77686917Y-104178918D01*
X77702682Y-104452320D01*
X77703507Y-104456525D01*
X77703508Y-104456533D01*
X77724698Y-104564539D01*
X77755405Y-104721053D01*
X77756792Y-104725103D01*
X77756793Y-104725108D01*
X77828264Y-104933856D01*
X77844112Y-104980144D01*
X77887432Y-105066276D01*
X77949573Y-105189830D01*
X77967160Y-105224799D01*
X77969586Y-105228328D01*
X77969589Y-105228334D01*
X78103509Y-105423187D01*
X78122274Y-105450490D01*
X78125161Y-105453663D01*
X78125162Y-105453664D01*
X78303692Y-105649867D01*
X78306582Y-105653043D01*
X78516675Y-105828707D01*
X78520316Y-105830991D01*
X78745024Y-105971951D01*
X78745028Y-105971953D01*
X78748664Y-105974234D01*
X78816544Y-106004883D01*
X78994345Y-106085164D01*
X78994349Y-106085166D01*
X78998257Y-106086930D01*
X79002377Y-106088150D01*
X79002376Y-106088150D01*
X79256723Y-106163491D01*
X79256727Y-106163492D01*
X79260836Y-106164709D01*
X79265070Y-106165357D01*
X79265075Y-106165358D01*
X79527298Y-106205483D01*
X79527300Y-106205483D01*
X79531540Y-106206132D01*
X79670912Y-106208322D01*
X79801071Y-106210367D01*
X79801077Y-106210367D01*
X79805362Y-106210434D01*
X80077235Y-106177534D01*
X80342127Y-106108041D01*
X80346087Y-106106401D01*
X80346092Y-106106399D01*
X80468632Y-106055641D01*
X80595136Y-106003241D01*
X80831582Y-105865073D01*
X81047089Y-105696094D01*
X81088809Y-105653043D01*
X81234686Y-105502509D01*
X81237669Y-105499431D01*
X81240202Y-105495983D01*
X81240206Y-105495978D01*
X81397257Y-105282178D01*
X81399795Y-105278723D01*
X81401841Y-105274955D01*
X81528418Y-105041830D01*
X81528419Y-105041828D01*
X81530468Y-105038054D01*
X81627269Y-104781877D01*
X81688407Y-104514933D01*
X81694384Y-104447969D01*
X81712531Y-104244627D01*
X81712532Y-104244616D01*
X81712751Y-104242161D01*
X81713193Y-104200000D01*
X81711756Y-104178918D01*
X86686917Y-104178918D01*
X86702682Y-104452320D01*
X86703507Y-104456525D01*
X86703508Y-104456533D01*
X86724698Y-104564539D01*
X86755405Y-104721053D01*
X86756792Y-104725103D01*
X86756793Y-104725108D01*
X86828264Y-104933856D01*
X86844112Y-104980144D01*
X86887432Y-105066276D01*
X86949573Y-105189830D01*
X86967160Y-105224799D01*
X86969586Y-105228328D01*
X86969589Y-105228334D01*
X87103509Y-105423187D01*
X87122274Y-105450490D01*
X87125161Y-105453663D01*
X87125162Y-105453664D01*
X87303692Y-105649867D01*
X87306582Y-105653043D01*
X87516675Y-105828707D01*
X87520316Y-105830991D01*
X87745024Y-105971951D01*
X87745028Y-105971953D01*
X87748664Y-105974234D01*
X87816544Y-106004883D01*
X87994345Y-106085164D01*
X87994349Y-106085166D01*
X87998257Y-106086930D01*
X88002377Y-106088150D01*
X88002376Y-106088150D01*
X88256723Y-106163491D01*
X88256727Y-106163492D01*
X88260836Y-106164709D01*
X88265070Y-106165357D01*
X88265075Y-106165358D01*
X88527298Y-106205483D01*
X88527300Y-106205483D01*
X88531540Y-106206132D01*
X88670912Y-106208322D01*
X88801071Y-106210367D01*
X88801077Y-106210367D01*
X88805362Y-106210434D01*
X89077235Y-106177534D01*
X89342127Y-106108041D01*
X89346087Y-106106401D01*
X89346092Y-106106399D01*
X89468632Y-106055641D01*
X89595136Y-106003241D01*
X89831582Y-105865073D01*
X90047089Y-105696094D01*
X90088809Y-105653043D01*
X90234686Y-105502509D01*
X90237669Y-105499431D01*
X90240202Y-105495983D01*
X90240206Y-105495978D01*
X90397257Y-105282178D01*
X90399795Y-105278723D01*
X90401841Y-105274955D01*
X90528418Y-105041830D01*
X90528419Y-105041828D01*
X90530468Y-105038054D01*
X90627269Y-104781877D01*
X90688407Y-104514933D01*
X90694384Y-104447969D01*
X90712531Y-104244627D01*
X90712532Y-104244616D01*
X90712751Y-104242161D01*
X90713193Y-104200000D01*
X90704948Y-104079055D01*
X90694859Y-103931055D01*
X90694858Y-103931049D01*
X90694567Y-103926778D01*
X90639032Y-103658612D01*
X90547617Y-103400465D01*
X90422013Y-103157112D01*
X90412040Y-103142921D01*
X90267008Y-102936562D01*
X90264545Y-102933057D01*
X90078125Y-102732445D01*
X90074810Y-102729731D01*
X90074806Y-102729728D01*
X89916770Y-102600377D01*
X89866205Y-102558990D01*
X89632704Y-102415901D01*
X89628768Y-102414173D01*
X89385873Y-102307549D01*
X89385869Y-102307548D01*
X89381945Y-102305825D01*
X89118566Y-102230800D01*
X89114324Y-102230196D01*
X89114318Y-102230195D01*
X88913834Y-102201662D01*
X88847443Y-102192213D01*
X88703589Y-102191460D01*
X88577877Y-102190802D01*
X88577871Y-102190802D01*
X88573591Y-102190780D01*
X88569347Y-102191339D01*
X88569343Y-102191339D01*
X88450302Y-102207011D01*
X88302078Y-102226525D01*
X88297938Y-102227658D01*
X88297936Y-102227658D01*
X88225008Y-102247609D01*
X88037928Y-102298788D01*
X88033980Y-102300472D01*
X87789982Y-102404546D01*
X87789978Y-102404548D01*
X87786030Y-102406232D01*
X87703627Y-102455549D01*
X87554725Y-102544664D01*
X87554721Y-102544667D01*
X87551043Y-102546868D01*
X87337318Y-102718094D01*
X87320717Y-102735588D01*
X87183253Y-102880445D01*
X87148808Y-102916742D01*
X86989002Y-103139136D01*
X86860857Y-103381161D01*
X86859385Y-103385184D01*
X86859383Y-103385188D01*
X86784615Y-103589500D01*
X86766743Y-103638337D01*
X86708404Y-103905907D01*
X86686917Y-104178918D01*
X81711756Y-104178918D01*
X81704948Y-104079055D01*
X81694859Y-103931055D01*
X81694858Y-103931049D01*
X81694567Y-103926778D01*
X81639032Y-103658612D01*
X81547617Y-103400465D01*
X81422013Y-103157112D01*
X81412040Y-103142921D01*
X81267008Y-102936562D01*
X81264545Y-102933057D01*
X81078125Y-102732445D01*
X81074810Y-102729731D01*
X81074806Y-102729728D01*
X80916770Y-102600377D01*
X80866205Y-102558990D01*
X80632704Y-102415901D01*
X80628768Y-102414173D01*
X80385873Y-102307549D01*
X80385869Y-102307548D01*
X80381945Y-102305825D01*
X80118566Y-102230800D01*
X80114324Y-102230196D01*
X80114318Y-102230195D01*
X79913834Y-102201662D01*
X79847443Y-102192213D01*
X79703589Y-102191460D01*
X79577877Y-102190802D01*
X79577871Y-102190802D01*
X79573591Y-102190780D01*
X79569347Y-102191339D01*
X79569343Y-102191339D01*
X79450302Y-102207011D01*
X79302078Y-102226525D01*
X79297938Y-102227658D01*
X79297936Y-102227658D01*
X79225008Y-102247609D01*
X79037928Y-102298788D01*
X79033980Y-102300472D01*
X78789982Y-102404546D01*
X78789978Y-102404548D01*
X78786030Y-102406232D01*
X78703627Y-102455549D01*
X78554725Y-102544664D01*
X78554721Y-102544667D01*
X78551043Y-102546868D01*
X78337318Y-102718094D01*
X78320717Y-102735588D01*
X78183253Y-102880445D01*
X78148808Y-102916742D01*
X77989002Y-103139136D01*
X77860857Y-103381161D01*
X77859385Y-103385184D01*
X77859383Y-103385188D01*
X77784615Y-103589500D01*
X77766743Y-103638337D01*
X77708404Y-103905907D01*
X77686917Y-104178918D01*
X72608500Y-104178918D01*
X72608500Y-55558918D01*
X77686917Y-55558918D01*
X77702682Y-55832320D01*
X77703507Y-55836525D01*
X77703508Y-55836533D01*
X77724698Y-55944539D01*
X77755405Y-56101053D01*
X77756792Y-56105103D01*
X77756793Y-56105108D01*
X77777605Y-56165895D01*
X77844112Y-56360144D01*
X77967160Y-56604799D01*
X77969586Y-56608328D01*
X77969589Y-56608334D01*
X78098741Y-56796250D01*
X78122274Y-56830490D01*
X78306582Y-57033043D01*
X78516675Y-57208707D01*
X78520316Y-57210991D01*
X78745024Y-57351951D01*
X78745028Y-57351953D01*
X78748664Y-57354234D01*
X78867352Y-57407824D01*
X78921205Y-57454086D01*
X78941500Y-57522660D01*
X78941500Y-68632930D01*
X78940067Y-68651880D01*
X78936801Y-68673349D01*
X78937394Y-68680641D01*
X78937394Y-68680644D01*
X78941085Y-68726018D01*
X78941500Y-68736233D01*
X78941500Y-68744293D01*
X78941925Y-68747937D01*
X78944789Y-68772507D01*
X78945222Y-68776882D01*
X78951140Y-68849637D01*
X78953396Y-68856601D01*
X78954587Y-68862560D01*
X78955971Y-68868415D01*
X78956818Y-68875681D01*
X78981735Y-68944327D01*
X78983152Y-68948455D01*
X79005649Y-69017899D01*
X79009445Y-69024154D01*
X79011951Y-69029628D01*
X79014670Y-69035058D01*
X79017167Y-69041937D01*
X79021180Y-69048057D01*
X79021180Y-69048058D01*
X79057186Y-69102976D01*
X79059523Y-69106680D01*
X79097405Y-69169107D01*
X79101121Y-69173315D01*
X79101122Y-69173316D01*
X79104803Y-69177484D01*
X79104776Y-69177508D01*
X79107429Y-69180500D01*
X79110132Y-69183733D01*
X79114144Y-69189852D01*
X79119456Y-69194884D01*
X79170383Y-69243128D01*
X79172825Y-69245506D01*
X97704595Y-87777276D01*
X97738621Y-87839588D01*
X97741500Y-87866371D01*
X97741500Y-109015500D01*
X97721498Y-109083621D01*
X97667842Y-109130114D01*
X97615500Y-109141500D01*
X97601866Y-109141500D01*
X97539684Y-109148255D01*
X97403295Y-109199385D01*
X97286739Y-109286739D01*
X97199385Y-109403295D01*
X97148255Y-109539684D01*
X97141500Y-109601866D01*
X97141500Y-112198134D01*
X97148255Y-112260316D01*
X97199385Y-112396705D01*
X97286739Y-112513261D01*
X97403295Y-112600615D01*
X97539684Y-112651745D01*
X97601866Y-112658500D01*
X99398134Y-112658500D01*
X99460316Y-112651745D01*
X99596705Y-112600615D01*
X99713261Y-112513261D01*
X99800615Y-112396705D01*
X99851745Y-112260316D01*
X99858500Y-112198134D01*
X99858500Y-109601866D01*
X99851745Y-109539684D01*
X99800615Y-109403295D01*
X99713261Y-109286739D01*
X99596705Y-109199385D01*
X99460316Y-109148255D01*
X99398134Y-109141500D01*
X99384500Y-109141500D01*
X99316379Y-109121498D01*
X99269886Y-109067842D01*
X99258500Y-109015500D01*
X99258500Y-87567070D01*
X99259933Y-87548120D01*
X99262099Y-87533885D01*
X99262099Y-87533881D01*
X99263199Y-87526651D01*
X99258915Y-87473982D01*
X99258500Y-87463767D01*
X99258500Y-87455707D01*
X99255211Y-87427493D01*
X99254778Y-87423118D01*
X99249454Y-87357661D01*
X99249453Y-87357658D01*
X99248860Y-87350363D01*
X99246604Y-87343399D01*
X99245413Y-87337440D01*
X99244029Y-87331585D01*
X99243182Y-87324319D01*
X99218265Y-87255673D01*
X99216848Y-87251545D01*
X99196607Y-87189064D01*
X99196606Y-87189062D01*
X99194351Y-87182101D01*
X99190555Y-87175846D01*
X99188049Y-87170372D01*
X99185330Y-87164942D01*
X99182833Y-87158063D01*
X99142814Y-87097024D01*
X99140467Y-87093305D01*
X99102595Y-87030893D01*
X99095197Y-87022516D01*
X99095224Y-87022492D01*
X99092571Y-87019500D01*
X99089868Y-87016267D01*
X99085856Y-87010148D01*
X99029617Y-86956872D01*
X99027175Y-86954494D01*
X80495405Y-68422724D01*
X80461379Y-68360412D01*
X80458500Y-68333629D01*
X80458500Y-57524028D01*
X80478502Y-57455907D01*
X80536281Y-57407620D01*
X80595136Y-57383241D01*
X80831582Y-57245073D01*
X81047089Y-57076094D01*
X81088809Y-57033043D01*
X81234686Y-56882509D01*
X81237669Y-56879431D01*
X81240202Y-56875983D01*
X81240206Y-56875978D01*
X81397257Y-56662178D01*
X81399795Y-56658723D01*
X81401841Y-56654955D01*
X81528418Y-56421830D01*
X81528419Y-56421828D01*
X81530468Y-56418054D01*
X81627269Y-56161877D01*
X81688407Y-55894933D01*
X81694384Y-55827969D01*
X81712531Y-55624627D01*
X81712532Y-55624616D01*
X81712751Y-55622161D01*
X81713193Y-55580000D01*
X81711756Y-55558918D01*
X86686917Y-55558918D01*
X86702682Y-55832320D01*
X86703507Y-55836525D01*
X86703508Y-55836533D01*
X86724698Y-55944539D01*
X86755405Y-56101053D01*
X86756792Y-56105103D01*
X86756793Y-56105108D01*
X86777605Y-56165895D01*
X86844112Y-56360144D01*
X86967160Y-56604799D01*
X86969586Y-56608328D01*
X86969589Y-56608334D01*
X87098741Y-56796250D01*
X87122274Y-56830490D01*
X87306582Y-57033043D01*
X87516675Y-57208707D01*
X87520316Y-57210991D01*
X87745024Y-57351951D01*
X87745028Y-57351953D01*
X87748664Y-57354234D01*
X87816544Y-57384883D01*
X87994345Y-57465164D01*
X87994349Y-57465166D01*
X87998257Y-57466930D01*
X88002377Y-57468150D01*
X88002376Y-57468150D01*
X88256723Y-57543491D01*
X88256727Y-57543492D01*
X88260836Y-57544709D01*
X88265070Y-57545357D01*
X88265075Y-57545358D01*
X88527298Y-57585483D01*
X88527300Y-57585483D01*
X88531540Y-57586132D01*
X88670912Y-57588322D01*
X88801071Y-57590367D01*
X88801077Y-57590367D01*
X88805362Y-57590434D01*
X89077235Y-57557534D01*
X89342127Y-57488041D01*
X89346087Y-57486401D01*
X89346092Y-57486399D01*
X89468631Y-57435641D01*
X89595136Y-57383241D01*
X89831582Y-57245073D01*
X90047089Y-57076094D01*
X90088809Y-57033043D01*
X90234686Y-56882509D01*
X90237669Y-56879431D01*
X90240202Y-56875983D01*
X90240206Y-56875978D01*
X90397257Y-56662178D01*
X90399795Y-56658723D01*
X90401841Y-56654955D01*
X90528418Y-56421830D01*
X90528419Y-56421828D01*
X90530468Y-56418054D01*
X90627269Y-56161877D01*
X90688407Y-55894933D01*
X90694384Y-55827969D01*
X90712531Y-55624627D01*
X90712532Y-55624616D01*
X90712751Y-55622161D01*
X90713193Y-55580000D01*
X90711756Y-55558918D01*
X105986917Y-55558918D01*
X106002682Y-55832320D01*
X106003507Y-55836525D01*
X106003508Y-55836533D01*
X106024698Y-55944539D01*
X106055405Y-56101053D01*
X106056792Y-56105103D01*
X106056793Y-56105108D01*
X106077605Y-56165895D01*
X106144112Y-56360144D01*
X106267160Y-56604799D01*
X106269586Y-56608328D01*
X106269589Y-56608334D01*
X106398741Y-56796250D01*
X106422274Y-56830490D01*
X106606582Y-57033043D01*
X106816675Y-57208707D01*
X106820316Y-57210991D01*
X107045024Y-57351951D01*
X107045028Y-57351953D01*
X107048664Y-57354234D01*
X107116544Y-57384883D01*
X107294345Y-57465164D01*
X107294349Y-57465166D01*
X107298257Y-57466930D01*
X107302377Y-57468150D01*
X107302376Y-57468150D01*
X107556723Y-57543491D01*
X107556727Y-57543492D01*
X107560836Y-57544709D01*
X107565070Y-57545357D01*
X107565075Y-57545358D01*
X107827298Y-57585483D01*
X107827300Y-57585483D01*
X107831540Y-57586132D01*
X107970912Y-57588322D01*
X108101071Y-57590367D01*
X108101077Y-57590367D01*
X108105362Y-57590434D01*
X108377235Y-57557534D01*
X108642127Y-57488041D01*
X108646087Y-57486401D01*
X108646092Y-57486399D01*
X108768631Y-57435641D01*
X108895136Y-57383241D01*
X109131582Y-57245073D01*
X109227767Y-57169654D01*
X115775618Y-57169654D01*
X115782673Y-57179627D01*
X115813679Y-57205551D01*
X115820598Y-57210579D01*
X116045272Y-57351515D01*
X116052807Y-57355556D01*
X116294520Y-57464694D01*
X116302551Y-57467680D01*
X116556832Y-57543002D01*
X116565184Y-57544869D01*
X116827340Y-57584984D01*
X116835874Y-57585700D01*
X117101045Y-57589867D01*
X117109596Y-57589418D01*
X117372883Y-57557557D01*
X117381284Y-57555955D01*
X117637824Y-57488653D01*
X117645926Y-57485926D01*
X117890949Y-57384434D01*
X117898617Y-57380628D01*
X118127598Y-57246822D01*
X118134679Y-57242009D01*
X118214655Y-57179301D01*
X118223125Y-57167442D01*
X118216608Y-57155818D01*
X117012812Y-55952022D01*
X116998868Y-55944408D01*
X116997035Y-55944539D01*
X116990420Y-55948790D01*
X115782910Y-57156300D01*
X115775618Y-57169654D01*
X109227767Y-57169654D01*
X109347089Y-57076094D01*
X109388809Y-57033043D01*
X109534686Y-56882509D01*
X109537669Y-56879431D01*
X109540202Y-56875983D01*
X109540206Y-56875978D01*
X109697257Y-56662178D01*
X109699795Y-56658723D01*
X109701841Y-56654955D01*
X109828418Y-56421830D01*
X109828419Y-56421828D01*
X109830468Y-56418054D01*
X109927269Y-56161877D01*
X109988407Y-55894933D01*
X109994384Y-55827969D01*
X110012531Y-55624627D01*
X110012532Y-55624616D01*
X110012751Y-55622161D01*
X110013193Y-55580000D01*
X110012048Y-55563204D01*
X114987665Y-55563204D01*
X115002932Y-55827969D01*
X115004005Y-55836470D01*
X115055065Y-56096722D01*
X115057276Y-56104974D01*
X115143184Y-56355894D01*
X115146499Y-56363779D01*
X115265664Y-56600713D01*
X115270020Y-56608079D01*
X115399347Y-56796250D01*
X115409601Y-56804594D01*
X115423342Y-56797448D01*
X116627978Y-55592812D01*
X116634356Y-55581132D01*
X117364408Y-55581132D01*
X117364539Y-55582965D01*
X117368790Y-55589580D01*
X118575730Y-56796520D01*
X118587939Y-56803187D01*
X118599439Y-56794497D01*
X118696831Y-56661913D01*
X118701418Y-56654685D01*
X118827962Y-56421621D01*
X118831530Y-56413827D01*
X118925271Y-56165750D01*
X118927748Y-56157544D01*
X118986954Y-55899038D01*
X118988294Y-55890577D01*
X119012031Y-55624616D01*
X119012277Y-55619677D01*
X119012666Y-55582485D01*
X119012523Y-55577519D01*
X118994362Y-55311123D01*
X118993201Y-55302649D01*
X118939419Y-55042944D01*
X118937120Y-55034709D01*
X118848588Y-54784705D01*
X118845191Y-54776854D01*
X118723550Y-54541178D01*
X118719122Y-54533866D01*
X118600031Y-54364417D01*
X118589509Y-54356037D01*
X118576121Y-54363089D01*
X117372022Y-55567188D01*
X117364408Y-55581132D01*
X116634356Y-55581132D01*
X116635592Y-55578868D01*
X116635461Y-55577035D01*
X116631210Y-55570420D01*
X115423814Y-54363024D01*
X115411804Y-54356466D01*
X115400064Y-54365434D01*
X115291935Y-54515911D01*
X115287418Y-54523196D01*
X115163325Y-54757567D01*
X115159839Y-54765395D01*
X115068700Y-55014446D01*
X115066311Y-55022670D01*
X115009812Y-55281795D01*
X115008563Y-55290250D01*
X114987754Y-55554653D01*
X114987665Y-55563204D01*
X110012048Y-55563204D01*
X110011465Y-55554648D01*
X109994859Y-55311055D01*
X109994858Y-55311049D01*
X109994567Y-55306778D01*
X109939032Y-55038612D01*
X109847617Y-54780465D01*
X109722013Y-54537112D01*
X109712040Y-54522921D01*
X109567008Y-54316562D01*
X109564545Y-54313057D01*
X109378125Y-54112445D01*
X109374810Y-54109731D01*
X109374806Y-54109728D01*
X109231581Y-53992500D01*
X115776584Y-53992500D01*
X115782980Y-54003770D01*
X116987188Y-55207978D01*
X117001132Y-55215592D01*
X117002965Y-55215461D01*
X117009580Y-55211210D01*
X118216604Y-54004186D01*
X118223795Y-53991017D01*
X118216473Y-53980780D01*
X118169233Y-53942115D01*
X118162261Y-53937160D01*
X117936122Y-53798582D01*
X117928552Y-53794624D01*
X117685704Y-53688022D01*
X117677644Y-53685120D01*
X117422592Y-53612467D01*
X117414214Y-53610685D01*
X117151656Y-53573318D01*
X117143111Y-53572691D01*
X116877908Y-53571302D01*
X116869374Y-53571839D01*
X116606433Y-53606456D01*
X116598035Y-53608149D01*
X116342238Y-53678127D01*
X116334143Y-53680946D01*
X116090199Y-53784997D01*
X116082577Y-53788881D01*
X115855013Y-53925075D01*
X115847981Y-53929962D01*
X115785053Y-53980377D01*
X115776584Y-53992500D01*
X109231581Y-53992500D01*
X109169523Y-53941706D01*
X109166205Y-53938990D01*
X108932704Y-53795901D01*
X108928768Y-53794173D01*
X108685873Y-53687549D01*
X108685869Y-53687548D01*
X108681945Y-53685825D01*
X108418566Y-53610800D01*
X108414324Y-53610196D01*
X108414318Y-53610195D01*
X108213834Y-53581662D01*
X108147443Y-53572213D01*
X108003589Y-53571460D01*
X107877877Y-53570802D01*
X107877871Y-53570802D01*
X107873591Y-53570780D01*
X107869347Y-53571339D01*
X107869343Y-53571339D01*
X107750302Y-53587011D01*
X107602078Y-53606525D01*
X107597938Y-53607658D01*
X107597936Y-53607658D01*
X107525008Y-53627609D01*
X107337928Y-53678788D01*
X107333980Y-53680472D01*
X107089982Y-53784546D01*
X107089978Y-53784548D01*
X107086030Y-53786232D01*
X107066125Y-53798145D01*
X106854725Y-53924664D01*
X106854721Y-53924667D01*
X106851043Y-53926868D01*
X106637318Y-54098094D01*
X106448808Y-54296742D01*
X106289002Y-54519136D01*
X106160857Y-54761161D01*
X106159385Y-54765184D01*
X106159383Y-54765188D01*
X106152314Y-54784506D01*
X106066743Y-55018337D01*
X106008404Y-55285907D01*
X105986917Y-55558918D01*
X90711756Y-55558918D01*
X90711465Y-55554648D01*
X90694859Y-55311055D01*
X90694858Y-55311049D01*
X90694567Y-55306778D01*
X90639032Y-55038612D01*
X90547617Y-54780465D01*
X90422013Y-54537112D01*
X90412040Y-54522921D01*
X90267008Y-54316562D01*
X90264545Y-54313057D01*
X90078125Y-54112445D01*
X90074810Y-54109731D01*
X90074806Y-54109728D01*
X89869523Y-53941706D01*
X89866205Y-53938990D01*
X89632704Y-53795901D01*
X89628768Y-53794173D01*
X89385873Y-53687549D01*
X89385869Y-53687548D01*
X89381945Y-53685825D01*
X89118566Y-53610800D01*
X89114324Y-53610196D01*
X89114318Y-53610195D01*
X88913834Y-53581662D01*
X88847443Y-53572213D01*
X88703589Y-53571460D01*
X88577877Y-53570802D01*
X88577871Y-53570802D01*
X88573591Y-53570780D01*
X88569347Y-53571339D01*
X88569343Y-53571339D01*
X88450302Y-53587011D01*
X88302078Y-53606525D01*
X88297938Y-53607658D01*
X88297936Y-53607658D01*
X88225008Y-53627609D01*
X88037928Y-53678788D01*
X88033980Y-53680472D01*
X87789982Y-53784546D01*
X87789978Y-53784548D01*
X87786030Y-53786232D01*
X87766125Y-53798145D01*
X87554725Y-53924664D01*
X87554721Y-53924667D01*
X87551043Y-53926868D01*
X87337318Y-54098094D01*
X87148808Y-54296742D01*
X86989002Y-54519136D01*
X86860857Y-54761161D01*
X86859385Y-54765184D01*
X86859383Y-54765188D01*
X86852314Y-54784506D01*
X86766743Y-55018337D01*
X86708404Y-55285907D01*
X86686917Y-55558918D01*
X81711756Y-55558918D01*
X81711465Y-55554648D01*
X81694859Y-55311055D01*
X81694858Y-55311049D01*
X81694567Y-55306778D01*
X81639032Y-55038612D01*
X81547617Y-54780465D01*
X81422013Y-54537112D01*
X81412040Y-54522921D01*
X81267008Y-54316562D01*
X81264545Y-54313057D01*
X81078125Y-54112445D01*
X81074810Y-54109731D01*
X81074806Y-54109728D01*
X80869523Y-53941706D01*
X80866205Y-53938990D01*
X80632704Y-53795901D01*
X80628768Y-53794173D01*
X80385873Y-53687549D01*
X80385869Y-53687548D01*
X80381945Y-53685825D01*
X80118566Y-53610800D01*
X80114324Y-53610196D01*
X80114318Y-53610195D01*
X79913834Y-53581662D01*
X79847443Y-53572213D01*
X79703589Y-53571460D01*
X79577877Y-53570802D01*
X79577871Y-53570802D01*
X79573591Y-53570780D01*
X79569347Y-53571339D01*
X79569343Y-53571339D01*
X79450302Y-53587011D01*
X79302078Y-53606525D01*
X79297938Y-53607658D01*
X79297936Y-53607658D01*
X79225008Y-53627609D01*
X79037928Y-53678788D01*
X79033980Y-53680472D01*
X78789982Y-53784546D01*
X78789978Y-53784548D01*
X78786030Y-53786232D01*
X78766125Y-53798145D01*
X78554725Y-53924664D01*
X78554721Y-53924667D01*
X78551043Y-53926868D01*
X78337318Y-54098094D01*
X78148808Y-54296742D01*
X77989002Y-54519136D01*
X77860857Y-54761161D01*
X77859385Y-54765184D01*
X77859383Y-54765188D01*
X77852314Y-54784506D01*
X77766743Y-55018337D01*
X77708404Y-55285907D01*
X77686917Y-55558918D01*
X72608500Y-55558918D01*
X72608500Y-45266381D01*
X82449160Y-45266381D01*
X82449237Y-45267470D01*
X82451698Y-45271206D01*
X82725632Y-45481404D01*
X82731262Y-45485259D01*
X83031591Y-45667862D01*
X83037593Y-45671080D01*
X83355897Y-45820184D01*
X83362202Y-45822732D01*
X83694743Y-45936587D01*
X83701313Y-45938446D01*
X84044183Y-46015714D01*
X84050912Y-46016853D01*
X84400143Y-46056643D01*
X84406933Y-46057046D01*
X84758419Y-46058886D01*
X84765220Y-46058554D01*
X85114853Y-46022423D01*
X85121581Y-46021357D01*
X85465274Y-45947676D01*
X85471822Y-45945897D01*
X85805549Y-45835527D01*
X85811891Y-45833041D01*
X86131718Y-45687288D01*
X86137777Y-45684121D01*
X86439995Y-45504676D01*
X86445659Y-45500884D01*
X86726732Y-45289849D01*
X86731958Y-45285464D01*
X86741613Y-45276428D01*
X86747540Y-45266381D01*
X137449160Y-45266381D01*
X137449237Y-45267470D01*
X137451698Y-45271206D01*
X137725632Y-45481404D01*
X137731262Y-45485259D01*
X138031591Y-45667862D01*
X138037593Y-45671080D01*
X138355897Y-45820184D01*
X138362202Y-45822732D01*
X138694743Y-45936587D01*
X138701313Y-45938446D01*
X139044183Y-46015714D01*
X139050912Y-46016853D01*
X139400143Y-46056643D01*
X139406933Y-46057046D01*
X139758419Y-46058886D01*
X139765220Y-46058554D01*
X140114853Y-46022423D01*
X140121581Y-46021357D01*
X140465274Y-45947676D01*
X140471822Y-45945897D01*
X140805549Y-45835527D01*
X140811891Y-45833041D01*
X141131718Y-45687288D01*
X141137777Y-45684121D01*
X141439995Y-45504676D01*
X141445659Y-45500884D01*
X141726732Y-45289849D01*
X141731958Y-45285464D01*
X141741613Y-45276428D01*
X141749682Y-45262750D01*
X141749654Y-45262024D01*
X141744512Y-45253723D01*
X139612810Y-43122020D01*
X139598869Y-43114408D01*
X139597034Y-43114539D01*
X139590420Y-43118790D01*
X137456774Y-45252437D01*
X137449160Y-45266381D01*
X86747540Y-45266381D01*
X86749682Y-45262750D01*
X86749654Y-45262024D01*
X86744512Y-45253723D01*
X84612810Y-43122020D01*
X84598869Y-43114408D01*
X84597034Y-43114539D01*
X84590420Y-43118790D01*
X82456774Y-45252437D01*
X82449160Y-45266381D01*
X72608500Y-45266381D01*
X72608500Y-42741832D01*
X81287333Y-42741832D01*
X81305117Y-43092893D01*
X81305827Y-43099649D01*
X81361420Y-43446723D01*
X81362859Y-43453378D01*
X81455608Y-43792410D01*
X81457757Y-43798871D01*
X81586581Y-44125912D01*
X81589412Y-44132095D01*
X81752803Y-44443310D01*
X81756286Y-44449152D01*
X81952330Y-44740896D01*
X81956433Y-44746340D01*
X82076425Y-44888836D01*
X82089164Y-44897279D01*
X82099608Y-44891181D01*
X84227980Y-42762810D01*
X84234357Y-42751131D01*
X84964408Y-42751131D01*
X84964539Y-42752966D01*
X84968790Y-42759580D01*
X87099009Y-44889798D01*
X87112605Y-44897223D01*
X87122218Y-44890522D01*
X87222518Y-44773912D01*
X87226676Y-44768514D01*
X87425762Y-44478840D01*
X87429310Y-44473029D01*
X87595942Y-44163559D01*
X87598849Y-44157381D01*
X87731090Y-43831713D01*
X87733304Y-43825283D01*
X87829598Y-43487237D01*
X87831105Y-43480607D01*
X87890332Y-43134118D01*
X87891112Y-43127378D01*
X87912668Y-42774925D01*
X87912784Y-42771323D01*
X87912853Y-42751819D01*
X87912761Y-42748194D01*
X87912416Y-42741832D01*
X136287333Y-42741832D01*
X136305117Y-43092893D01*
X136305827Y-43099649D01*
X136361420Y-43446723D01*
X136362859Y-43453378D01*
X136455608Y-43792410D01*
X136457757Y-43798871D01*
X136586581Y-44125912D01*
X136589412Y-44132095D01*
X136752803Y-44443310D01*
X136756286Y-44449152D01*
X136952330Y-44740896D01*
X136956433Y-44746340D01*
X137076425Y-44888836D01*
X137089164Y-44897279D01*
X137099608Y-44891181D01*
X139227980Y-42762810D01*
X139234357Y-42751131D01*
X139964408Y-42751131D01*
X139964539Y-42752966D01*
X139968790Y-42759580D01*
X142099009Y-44889798D01*
X142112605Y-44897223D01*
X142122218Y-44890522D01*
X142222518Y-44773912D01*
X142226676Y-44768514D01*
X142425762Y-44478840D01*
X142429310Y-44473029D01*
X142595942Y-44163559D01*
X142598849Y-44157381D01*
X142731090Y-43831713D01*
X142733304Y-43825283D01*
X142829598Y-43487237D01*
X142831105Y-43480607D01*
X142890332Y-43134118D01*
X142891112Y-43127378D01*
X142912668Y-42774925D01*
X142912784Y-42771323D01*
X142912853Y-42751819D01*
X142912761Y-42748194D01*
X142893666Y-42395615D01*
X142892931Y-42388849D01*
X142836130Y-42041985D01*
X142834663Y-42035313D01*
X142740736Y-41696627D01*
X142738562Y-41690163D01*
X142608598Y-41363578D01*
X142605742Y-41357398D01*
X142441269Y-41046763D01*
X142437769Y-41040937D01*
X142240697Y-40749862D01*
X142236590Y-40744453D01*
X142123565Y-40611179D01*
X142110740Y-40602743D01*
X142100416Y-40608795D01*
X139972020Y-42737190D01*
X139964408Y-42751131D01*
X139234357Y-42751131D01*
X139235592Y-42748869D01*
X139235461Y-42747034D01*
X139231210Y-42740420D01*
X137100992Y-40610203D01*
X137087455Y-40602811D01*
X137077753Y-40609599D01*
X136970430Y-40735257D01*
X136966296Y-40740664D01*
X136768215Y-41031041D01*
X136764697Y-41036851D01*
X136599134Y-41346922D01*
X136596259Y-41353087D01*
X136465155Y-41679218D01*
X136462962Y-41685658D01*
X136367846Y-42024044D01*
X136366363Y-42030679D01*
X136308350Y-42377354D01*
X136307591Y-42384126D01*
X136287357Y-42735037D01*
X136287333Y-42741832D01*
X87912416Y-42741832D01*
X87893666Y-42395615D01*
X87892931Y-42388849D01*
X87836130Y-42041985D01*
X87834663Y-42035313D01*
X87740736Y-41696627D01*
X87738562Y-41690163D01*
X87608598Y-41363578D01*
X87605742Y-41357398D01*
X87441269Y-41046763D01*
X87437769Y-41040937D01*
X87240697Y-40749862D01*
X87236590Y-40744453D01*
X87123565Y-40611179D01*
X87110740Y-40602743D01*
X87100416Y-40608795D01*
X84972020Y-42737190D01*
X84964408Y-42751131D01*
X84234357Y-42751131D01*
X84235592Y-42748869D01*
X84235461Y-42747034D01*
X84231210Y-42740420D01*
X82100992Y-40610203D01*
X82087455Y-40602811D01*
X82077753Y-40609599D01*
X81970430Y-40735257D01*
X81966296Y-40740664D01*
X81768215Y-41031041D01*
X81764697Y-41036851D01*
X81599134Y-41346922D01*
X81596259Y-41353087D01*
X81465155Y-41679218D01*
X81462962Y-41685658D01*
X81367846Y-42024044D01*
X81366363Y-42030679D01*
X81308350Y-42377354D01*
X81307591Y-42384126D01*
X81287357Y-42735037D01*
X81287333Y-42741832D01*
X72608500Y-42741832D01*
X72608500Y-39384500D01*
X72628502Y-39316379D01*
X72682158Y-39269886D01*
X72734500Y-39258500D01*
X83915758Y-39258500D01*
X83983879Y-39278502D01*
G37*
G04 #@! TD.AperFunction*
M02*
