G04 #@! TF.GenerationSoftware,KiCad,Pcbnew,(6.0.5-0)*
G04 #@! TF.CreationDate,2023-03-07T01:16:04-05:00*
G04 #@! TF.ProjectId,solar-cell-pcbs-usb,736f6c61-722d-4636-956c-6c2d70636273,3*
G04 #@! TF.SameCoordinates,Original*
G04 #@! TF.FileFunction,Copper,L2,Bot*
G04 #@! TF.FilePolarity,Positive*
%FSLAX46Y46*%
G04 Gerber Fmt 4.6, Leading zero omitted, Abs format (unit mm)*
G04 Created by KiCad (PCBNEW (6.0.5-0)) date 2023-03-07 01:16:04*
%MOMM*%
%LPD*%
G01*
G04 APERTURE LIST*
G04 #@! TA.AperFunction,ComponentPad*
%ADD10C,5.600000*%
G04 #@! TD*
G04 #@! TA.AperFunction,ComponentPad*
%ADD11C,3.000000*%
G04 #@! TD*
G04 #@! TA.AperFunction,SMDPad,CuDef*
%ADD12R,1.100000X1.450000*%
G04 #@! TD*
G04 #@! TA.AperFunction,SMDPad,CuDef*
%ADD13R,1.350000X2.899999*%
G04 #@! TD*
G04 #@! TA.AperFunction,ViaPad*
%ADD14C,0.800000*%
G04 #@! TD*
G04 #@! TA.AperFunction,Conductor*
%ADD15C,0.500000*%
G04 #@! TD*
G04 APERTURE END LIST*
D10*
X84600000Y-42750000D03*
D11*
X79500000Y-104500000D03*
X88500000Y-104500000D03*
X135500000Y-104500000D03*
X144500000Y-104500000D03*
D10*
X139600000Y-138250000D03*
D11*
X107000000Y-75500000D03*
X116000000Y-75500000D03*
X107000000Y-111000000D03*
X116000000Y-111000000D03*
D10*
X84600000Y-138250000D03*
D11*
X79500000Y-68800000D03*
X88500000Y-68800000D03*
D10*
X139600000Y-42750000D03*
D11*
X135500000Y-68800000D03*
X144500000Y-68800000D03*
D12*
X90605000Y-120420000D03*
X92605001Y-120420000D03*
D13*
X87710002Y-114445001D03*
X95499997Y-114445001D03*
D14*
X147000000Y-66700000D03*
X144300000Y-71600000D03*
X147000000Y-70700000D03*
X141600000Y-104400000D03*
X142400000Y-106200000D03*
X88800000Y-119500000D03*
X142000000Y-69900000D03*
X142500000Y-102400000D03*
X147600000Y-68800000D03*
X145000000Y-65600000D03*
X143000000Y-65800000D03*
X144300000Y-107100000D03*
X147300000Y-104300000D03*
X146600000Y-106300000D03*
X89000000Y-121700000D03*
X90100000Y-122700000D03*
X88900000Y-122800000D03*
X144400000Y-101700000D03*
X146400000Y-102200000D03*
X142100000Y-67300000D03*
X92600000Y-124000000D03*
D15*
X92605001Y-123994999D02*
X92605001Y-120420000D01*
G04 #@! TA.AperFunction,Conductor*
G36*
X83983879Y-39278502D02*
G01*
X84030372Y-39332158D01*
X84040476Y-39402432D01*
X84010982Y-39467012D01*
X83951256Y-39505396D01*
X83942600Y-39507608D01*
X83723586Y-39555361D01*
X83717011Y-39557172D01*
X83383683Y-39668702D01*
X83377361Y-39671205D01*
X83058034Y-39818079D01*
X83051991Y-39821265D01*
X82750401Y-40001763D01*
X82744755Y-40005571D01*
X82464408Y-40217596D01*
X82459211Y-40221987D01*
X82457972Y-40223155D01*
X82449950Y-40236862D01*
X82449986Y-40237704D01*
X82455037Y-40245826D01*
X84587190Y-42377980D01*
X84601131Y-42385592D01*
X84602966Y-42385461D01*
X84609580Y-42381210D01*
X86742798Y-40247991D01*
X86750412Y-40234047D01*
X86750344Y-40233089D01*
X86745836Y-40226272D01*
X86744418Y-40225065D01*
X86464813Y-40012064D01*
X86459187Y-40008240D01*
X86158214Y-39826681D01*
X86152202Y-39823484D01*
X85833370Y-39675487D01*
X85827070Y-39672967D01*
X85494129Y-39560273D01*
X85487551Y-39558437D01*
X85257846Y-39507513D01*
X85195669Y-39473241D01*
X85161891Y-39410795D01*
X85167237Y-39340000D01*
X85210009Y-39283333D01*
X85276627Y-39258786D01*
X85285117Y-39258500D01*
X138915758Y-39258500D01*
X138983879Y-39278502D01*
X139030372Y-39332158D01*
X139040476Y-39402432D01*
X139010982Y-39467012D01*
X138951256Y-39505396D01*
X138942600Y-39507608D01*
X138723586Y-39555361D01*
X138717011Y-39557172D01*
X138383683Y-39668702D01*
X138377361Y-39671205D01*
X138058034Y-39818079D01*
X138051991Y-39821265D01*
X137750401Y-40001763D01*
X137744755Y-40005571D01*
X137464408Y-40217596D01*
X137459211Y-40221987D01*
X137457972Y-40223155D01*
X137449950Y-40236862D01*
X137449986Y-40237704D01*
X137455037Y-40245826D01*
X139587190Y-42377980D01*
X139601131Y-42385592D01*
X139602966Y-42385461D01*
X139609580Y-42381210D01*
X141742798Y-40247991D01*
X141750412Y-40234047D01*
X141750344Y-40233089D01*
X141745836Y-40226272D01*
X141744418Y-40225065D01*
X141464813Y-40012064D01*
X141459187Y-40008240D01*
X141158214Y-39826681D01*
X141152202Y-39823484D01*
X140833370Y-39675487D01*
X140827070Y-39672967D01*
X140494129Y-39560273D01*
X140487551Y-39558437D01*
X140257846Y-39507513D01*
X140195669Y-39473241D01*
X140161891Y-39410795D01*
X140167237Y-39340000D01*
X140210009Y-39283333D01*
X140276627Y-39258786D01*
X140285117Y-39258500D01*
X151465500Y-39258500D01*
X151533621Y-39278502D01*
X151580114Y-39332158D01*
X151591500Y-39384500D01*
X151591500Y-141615500D01*
X151571498Y-141683621D01*
X151517842Y-141730114D01*
X151465500Y-141741500D01*
X140283537Y-141741500D01*
X140215416Y-141721498D01*
X140168923Y-141667842D01*
X140158819Y-141597568D01*
X140188313Y-141532988D01*
X140248039Y-141494604D01*
X140257125Y-141492299D01*
X140465274Y-141447676D01*
X140471822Y-141445897D01*
X140805549Y-141335527D01*
X140811891Y-141333041D01*
X141131718Y-141187288D01*
X141137777Y-141184121D01*
X141439995Y-141004676D01*
X141445659Y-141000884D01*
X141726732Y-140789849D01*
X141731958Y-140785464D01*
X141741613Y-140776428D01*
X141749682Y-140762750D01*
X141749654Y-140762024D01*
X141744512Y-140753723D01*
X139612810Y-138622020D01*
X139598869Y-138614408D01*
X139597034Y-138614539D01*
X139590420Y-138618790D01*
X137456774Y-140752437D01*
X137449160Y-140766381D01*
X137449237Y-140767470D01*
X137451698Y-140771206D01*
X137725632Y-140981404D01*
X137731262Y-140985259D01*
X138031591Y-141167862D01*
X138037593Y-141171080D01*
X138355897Y-141320184D01*
X138362202Y-141322732D01*
X138694743Y-141436587D01*
X138701309Y-141438444D01*
X138941542Y-141492583D01*
X139003598Y-141527071D01*
X139037158Y-141589636D01*
X139031565Y-141660412D01*
X138988596Y-141716928D01*
X138921892Y-141741242D01*
X138913841Y-141741500D01*
X85283537Y-141741500D01*
X85215416Y-141721498D01*
X85168923Y-141667842D01*
X85158819Y-141597568D01*
X85188313Y-141532988D01*
X85248039Y-141494604D01*
X85257125Y-141492299D01*
X85465274Y-141447676D01*
X85471822Y-141445897D01*
X85805549Y-141335527D01*
X85811891Y-141333041D01*
X86131718Y-141187288D01*
X86137777Y-141184121D01*
X86439995Y-141004676D01*
X86445659Y-141000884D01*
X86726732Y-140789849D01*
X86731958Y-140785464D01*
X86741613Y-140776428D01*
X86749682Y-140762750D01*
X86749654Y-140762024D01*
X86744512Y-140753723D01*
X84612810Y-138622020D01*
X84598869Y-138614408D01*
X84597034Y-138614539D01*
X84590420Y-138618790D01*
X82456774Y-140752437D01*
X82449160Y-140766381D01*
X82449237Y-140767470D01*
X82451698Y-140771206D01*
X82725632Y-140981404D01*
X82731262Y-140985259D01*
X83031591Y-141167862D01*
X83037593Y-141171080D01*
X83355897Y-141320184D01*
X83362202Y-141322732D01*
X83694743Y-141436587D01*
X83701309Y-141438444D01*
X83941542Y-141492583D01*
X84003598Y-141527071D01*
X84037158Y-141589636D01*
X84031565Y-141660412D01*
X83988596Y-141716928D01*
X83921892Y-141741242D01*
X83913841Y-141741500D01*
X72734500Y-141741500D01*
X72666379Y-141721498D01*
X72619886Y-141667842D01*
X72608500Y-141615500D01*
X72608500Y-138241832D01*
X81287333Y-138241832D01*
X81305117Y-138592893D01*
X81305827Y-138599649D01*
X81361420Y-138946723D01*
X81362859Y-138953378D01*
X81455608Y-139292410D01*
X81457757Y-139298871D01*
X81586581Y-139625912D01*
X81589412Y-139632095D01*
X81752803Y-139943310D01*
X81756286Y-139949152D01*
X81952330Y-140240896D01*
X81956433Y-140246340D01*
X82076425Y-140388836D01*
X82089164Y-140397279D01*
X82099608Y-140391181D01*
X84227980Y-138262810D01*
X84234357Y-138251131D01*
X84964408Y-138251131D01*
X84964539Y-138252966D01*
X84968790Y-138259580D01*
X87099009Y-140389798D01*
X87112605Y-140397223D01*
X87122218Y-140390522D01*
X87222518Y-140273912D01*
X87226676Y-140268514D01*
X87425762Y-139978840D01*
X87429310Y-139973029D01*
X87595942Y-139663559D01*
X87598849Y-139657381D01*
X87731090Y-139331713D01*
X87733304Y-139325283D01*
X87829598Y-138987237D01*
X87831105Y-138980607D01*
X87890332Y-138634118D01*
X87891112Y-138627378D01*
X87912668Y-138274925D01*
X87912784Y-138271323D01*
X87912853Y-138251819D01*
X87912761Y-138248194D01*
X87912416Y-138241832D01*
X136287333Y-138241832D01*
X136305117Y-138592893D01*
X136305827Y-138599649D01*
X136361420Y-138946723D01*
X136362859Y-138953378D01*
X136455608Y-139292410D01*
X136457757Y-139298871D01*
X136586581Y-139625912D01*
X136589412Y-139632095D01*
X136752803Y-139943310D01*
X136756286Y-139949152D01*
X136952330Y-140240896D01*
X136956433Y-140246340D01*
X137076425Y-140388836D01*
X137089164Y-140397279D01*
X137099608Y-140391181D01*
X139227980Y-138262810D01*
X139234357Y-138251131D01*
X139964408Y-138251131D01*
X139964539Y-138252966D01*
X139968790Y-138259580D01*
X142099009Y-140389798D01*
X142112605Y-140397223D01*
X142122218Y-140390522D01*
X142222518Y-140273912D01*
X142226676Y-140268514D01*
X142425762Y-139978840D01*
X142429310Y-139973029D01*
X142595942Y-139663559D01*
X142598849Y-139657381D01*
X142731090Y-139331713D01*
X142733304Y-139325283D01*
X142829598Y-138987237D01*
X142831105Y-138980607D01*
X142890332Y-138634118D01*
X142891112Y-138627378D01*
X142912668Y-138274925D01*
X142912784Y-138271323D01*
X142912853Y-138251819D01*
X142912761Y-138248194D01*
X142893666Y-137895615D01*
X142892931Y-137888849D01*
X142836130Y-137541985D01*
X142834663Y-137535313D01*
X142740736Y-137196627D01*
X142738562Y-137190163D01*
X142608598Y-136863578D01*
X142605742Y-136857398D01*
X142441269Y-136546763D01*
X142437769Y-136540937D01*
X142240697Y-136249862D01*
X142236590Y-136244453D01*
X142123565Y-136111179D01*
X142110740Y-136102743D01*
X142100416Y-136108795D01*
X139972020Y-138237190D01*
X139964408Y-138251131D01*
X139234357Y-138251131D01*
X139235592Y-138248869D01*
X139235461Y-138247034D01*
X139231210Y-138240420D01*
X137100992Y-136110203D01*
X137087455Y-136102811D01*
X137077753Y-136109599D01*
X136970430Y-136235257D01*
X136966296Y-136240664D01*
X136768215Y-136531041D01*
X136764697Y-136536851D01*
X136599134Y-136846922D01*
X136596259Y-136853087D01*
X136465155Y-137179218D01*
X136462962Y-137185658D01*
X136367846Y-137524044D01*
X136366363Y-137530679D01*
X136308350Y-137877354D01*
X136307591Y-137884126D01*
X136287357Y-138235037D01*
X136287333Y-138241832D01*
X87912416Y-138241832D01*
X87893666Y-137895615D01*
X87892931Y-137888849D01*
X87836130Y-137541985D01*
X87834663Y-137535313D01*
X87740736Y-137196627D01*
X87738562Y-137190163D01*
X87608598Y-136863578D01*
X87605742Y-136857398D01*
X87441269Y-136546763D01*
X87437769Y-136540937D01*
X87240697Y-136249862D01*
X87236590Y-136244453D01*
X87123565Y-136111179D01*
X87110740Y-136102743D01*
X87100416Y-136108795D01*
X84972020Y-138237190D01*
X84964408Y-138251131D01*
X84234357Y-138251131D01*
X84235592Y-138248869D01*
X84235461Y-138247034D01*
X84231210Y-138240420D01*
X82100992Y-136110203D01*
X82087455Y-136102811D01*
X82077753Y-136109599D01*
X81970430Y-136235257D01*
X81966296Y-136240664D01*
X81768215Y-136531041D01*
X81764697Y-136536851D01*
X81599134Y-136846922D01*
X81596259Y-136853087D01*
X81465155Y-137179218D01*
X81462962Y-137185658D01*
X81367846Y-137524044D01*
X81366363Y-137530679D01*
X81308350Y-137877354D01*
X81307591Y-137884126D01*
X81287357Y-138235037D01*
X81287333Y-138241832D01*
X72608500Y-138241832D01*
X72608500Y-135736862D01*
X82449950Y-135736862D01*
X82449986Y-135737704D01*
X82455037Y-135745826D01*
X84587190Y-137877980D01*
X84601131Y-137885592D01*
X84602966Y-137885461D01*
X84609580Y-137881210D01*
X86742798Y-135747991D01*
X86748875Y-135736862D01*
X137449950Y-135736862D01*
X137449986Y-135737704D01*
X137455037Y-135745826D01*
X139587190Y-137877980D01*
X139601131Y-137885592D01*
X139602966Y-137885461D01*
X139609580Y-137881210D01*
X141742798Y-135747991D01*
X141750412Y-135734047D01*
X141750344Y-135733089D01*
X141745836Y-135726272D01*
X141744418Y-135725065D01*
X141464813Y-135512064D01*
X141459187Y-135508240D01*
X141158214Y-135326681D01*
X141152202Y-135323484D01*
X140833370Y-135175487D01*
X140827070Y-135172967D01*
X140494129Y-135060273D01*
X140487551Y-135058437D01*
X140144417Y-134982367D01*
X140137678Y-134981251D01*
X139788310Y-134942680D01*
X139781529Y-134942301D01*
X139430015Y-134941687D01*
X139423242Y-134942042D01*
X139073720Y-134979395D01*
X139067010Y-134980482D01*
X138723586Y-135055361D01*
X138717011Y-135057172D01*
X138383683Y-135168702D01*
X138377361Y-135171205D01*
X138058034Y-135318079D01*
X138051991Y-135321265D01*
X137750401Y-135501763D01*
X137744755Y-135505571D01*
X137464408Y-135717596D01*
X137459211Y-135721987D01*
X137457972Y-135723155D01*
X137449950Y-135736862D01*
X86748875Y-135736862D01*
X86750412Y-135734047D01*
X86750344Y-135733089D01*
X86745836Y-135726272D01*
X86744418Y-135725065D01*
X86464813Y-135512064D01*
X86459187Y-135508240D01*
X86158214Y-135326681D01*
X86152202Y-135323484D01*
X85833370Y-135175487D01*
X85827070Y-135172967D01*
X85494129Y-135060273D01*
X85487551Y-135058437D01*
X85144417Y-134982367D01*
X85137678Y-134981251D01*
X84788310Y-134942680D01*
X84781529Y-134942301D01*
X84430015Y-134941687D01*
X84423242Y-134942042D01*
X84073720Y-134979395D01*
X84067010Y-134980482D01*
X83723586Y-135055361D01*
X83717011Y-135057172D01*
X83383683Y-135168702D01*
X83377361Y-135171205D01*
X83058034Y-135318079D01*
X83051991Y-135321265D01*
X82750401Y-135501763D01*
X82744755Y-135505571D01*
X82464408Y-135717596D01*
X82459211Y-135721987D01*
X82457972Y-135723155D01*
X82449950Y-135736862D01*
X72608500Y-135736862D01*
X72608500Y-122800000D01*
X87986496Y-122800000D01*
X87987186Y-122806565D01*
X87996608Y-122896206D01*
X88006458Y-122989928D01*
X88065473Y-123171556D01*
X88160960Y-123336944D01*
X88165378Y-123341851D01*
X88165379Y-123341852D01*
X88282261Y-123471663D01*
X88288747Y-123478866D01*
X88443248Y-123591118D01*
X88449276Y-123593802D01*
X88449278Y-123593803D01*
X88541200Y-123634729D01*
X88617712Y-123668794D01*
X88711112Y-123688647D01*
X88798056Y-123707128D01*
X88798061Y-123707128D01*
X88804513Y-123708500D01*
X88995487Y-123708500D01*
X89001939Y-123707128D01*
X89001944Y-123707128D01*
X89088888Y-123688647D01*
X89182288Y-123668794D01*
X89258800Y-123634729D01*
X89350722Y-123593803D01*
X89350724Y-123593802D01*
X89356752Y-123591118D01*
X89494759Y-123490850D01*
X89561625Y-123466992D01*
X89630777Y-123483072D01*
X89632170Y-123483968D01*
X89632189Y-123483936D01*
X89637907Y-123487237D01*
X89643248Y-123491118D01*
X89649276Y-123493802D01*
X89649278Y-123493803D01*
X89741052Y-123534663D01*
X89817712Y-123568794D01*
X89904479Y-123587237D01*
X89998056Y-123607128D01*
X89998061Y-123607128D01*
X90004513Y-123608500D01*
X90195487Y-123608500D01*
X90201939Y-123607128D01*
X90201944Y-123607128D01*
X90295521Y-123587237D01*
X90382288Y-123568794D01*
X90458948Y-123534663D01*
X90550722Y-123493803D01*
X90550724Y-123493802D01*
X90556752Y-123491118D01*
X90567827Y-123483072D01*
X90643216Y-123428298D01*
X90711253Y-123378866D01*
X90839040Y-123236944D01*
X90934527Y-123071556D01*
X90993542Y-122889928D01*
X91013504Y-122700000D01*
X91004052Y-122610072D01*
X90994232Y-122516635D01*
X90994232Y-122516633D01*
X90993542Y-122510072D01*
X90934527Y-122328444D01*
X90839040Y-122163056D01*
X90761804Y-122077276D01*
X90715675Y-122026045D01*
X90715674Y-122026044D01*
X90711253Y-122021134D01*
X90556752Y-121908882D01*
X90550724Y-121906198D01*
X90550722Y-121906197D01*
X90398709Y-121838517D01*
X90344613Y-121792537D01*
X90323964Y-121724610D01*
X90343316Y-121656302D01*
X90349004Y-121648629D01*
X90351000Y-121639452D01*
X90351000Y-121634884D01*
X90859000Y-121634884D01*
X90863475Y-121650123D01*
X90864865Y-121651328D01*
X90872548Y-121652999D01*
X91199669Y-121652999D01*
X91206490Y-121652629D01*
X91257352Y-121647105D01*
X91272604Y-121643479D01*
X91393054Y-121598324D01*
X91408649Y-121589786D01*
X91510726Y-121513284D01*
X91515553Y-121508457D01*
X91577866Y-121474434D01*
X91648682Y-121479502D01*
X91690171Y-121506168D01*
X91691740Y-121508261D01*
X91796066Y-121586449D01*
X91838581Y-121643308D01*
X91846501Y-121687275D01*
X91846501Y-123454339D01*
X91829620Y-123517338D01*
X91765473Y-123628444D01*
X91706458Y-123810072D01*
X91686496Y-124000000D01*
X91706458Y-124189928D01*
X91765473Y-124371556D01*
X91860960Y-124536944D01*
X91988747Y-124678866D01*
X92143248Y-124791118D01*
X92149276Y-124793802D01*
X92149278Y-124793803D01*
X92311681Y-124866109D01*
X92317712Y-124868794D01*
X92411113Y-124888647D01*
X92498056Y-124907128D01*
X92498061Y-124907128D01*
X92504513Y-124908500D01*
X92695487Y-124908500D01*
X92701939Y-124907128D01*
X92701944Y-124907128D01*
X92788887Y-124888647D01*
X92882288Y-124868794D01*
X92888319Y-124866109D01*
X93050722Y-124793803D01*
X93050724Y-124793802D01*
X93056752Y-124791118D01*
X93211253Y-124678866D01*
X93339040Y-124536944D01*
X93434527Y-124371556D01*
X93493542Y-124189928D01*
X93513504Y-124000000D01*
X93493542Y-123810072D01*
X93434527Y-123628444D01*
X93380382Y-123534662D01*
X93363501Y-123471663D01*
X93363501Y-121687275D01*
X93383503Y-121619154D01*
X93413936Y-121586449D01*
X93518262Y-121508261D01*
X93605616Y-121391705D01*
X93656746Y-121255316D01*
X93663501Y-121193134D01*
X93663501Y-119646866D01*
X93656746Y-119584684D01*
X93605616Y-119448295D01*
X93518262Y-119331739D01*
X93401706Y-119244385D01*
X93265317Y-119193255D01*
X93203135Y-119186500D01*
X92006867Y-119186500D01*
X91944685Y-119193255D01*
X91808296Y-119244385D01*
X91691740Y-119331739D01*
X91690609Y-119333249D01*
X91631433Y-119365564D01*
X91560617Y-119360503D01*
X91515549Y-119331540D01*
X91510724Y-119326715D01*
X91408649Y-119250214D01*
X91393054Y-119241676D01*
X91272606Y-119196522D01*
X91257351Y-119192895D01*
X91206486Y-119187369D01*
X91199672Y-119187000D01*
X90877115Y-119187000D01*
X90861876Y-119191475D01*
X90860671Y-119192865D01*
X90859000Y-119200548D01*
X90859000Y-121634884D01*
X90351000Y-121634884D01*
X90351000Y-120692115D01*
X90346525Y-120676876D01*
X90345135Y-120675671D01*
X90337452Y-120674000D01*
X89565116Y-120674000D01*
X89549877Y-120678475D01*
X89548672Y-120679865D01*
X89547001Y-120687548D01*
X89547001Y-120755040D01*
X89526999Y-120823161D01*
X89473343Y-120869654D01*
X89403069Y-120879758D01*
X89369753Y-120870147D01*
X89288323Y-120833892D01*
X89288315Y-120833889D01*
X89282288Y-120831206D01*
X89188887Y-120811353D01*
X89101944Y-120792872D01*
X89101939Y-120792872D01*
X89095487Y-120791500D01*
X88904513Y-120791500D01*
X88898061Y-120792872D01*
X88898056Y-120792872D01*
X88811113Y-120811353D01*
X88717712Y-120831206D01*
X88711682Y-120833891D01*
X88711681Y-120833891D01*
X88549278Y-120906197D01*
X88549276Y-120906198D01*
X88543248Y-120908882D01*
X88388747Y-121021134D01*
X88260960Y-121163056D01*
X88165473Y-121328444D01*
X88106458Y-121510072D01*
X88105768Y-121516633D01*
X88105768Y-121516635D01*
X88092055Y-121647105D01*
X88086496Y-121700000D01*
X88087186Y-121706565D01*
X88101055Y-121838517D01*
X88106458Y-121889928D01*
X88165473Y-122071556D01*
X88185305Y-122105906D01*
X88202042Y-122174901D01*
X88178821Y-122241993D01*
X88169830Y-122253205D01*
X88160960Y-122263056D01*
X88065473Y-122428444D01*
X88006458Y-122610072D01*
X87986496Y-122800000D01*
X72608500Y-122800000D01*
X72608500Y-119500000D01*
X87886496Y-119500000D01*
X87887186Y-119506565D01*
X87895397Y-119584684D01*
X87906458Y-119689928D01*
X87965473Y-119871556D01*
X88060960Y-120036944D01*
X88065378Y-120041851D01*
X88065379Y-120041852D01*
X88171963Y-120160226D01*
X88188747Y-120178866D01*
X88343248Y-120291118D01*
X88349276Y-120293802D01*
X88349278Y-120293803D01*
X88511681Y-120366109D01*
X88517712Y-120368794D01*
X88611113Y-120388647D01*
X88698056Y-120407128D01*
X88698061Y-120407128D01*
X88704513Y-120408500D01*
X88895487Y-120408500D01*
X88901939Y-120407128D01*
X88901944Y-120407128D01*
X88988887Y-120388647D01*
X89082288Y-120368794D01*
X89088319Y-120366109D01*
X89250722Y-120293803D01*
X89250724Y-120293802D01*
X89256752Y-120291118D01*
X89411253Y-120178866D01*
X89412012Y-120179911D01*
X89469700Y-120152227D01*
X89521193Y-120158632D01*
X89521441Y-120157493D01*
X89534006Y-120160226D01*
X89540154Y-120160991D01*
X89541545Y-120161866D01*
X89560548Y-120166000D01*
X90332885Y-120166000D01*
X90348124Y-120161525D01*
X90349329Y-120160135D01*
X90351000Y-120152452D01*
X90351000Y-119205116D01*
X90346525Y-119189877D01*
X90345135Y-119188672D01*
X90337452Y-119187001D01*
X90010331Y-119187001D01*
X90003510Y-119187371D01*
X89952648Y-119192895D01*
X89937396Y-119196521D01*
X89810485Y-119244098D01*
X89739677Y-119249281D01*
X89677308Y-119215360D01*
X89646422Y-119165053D01*
X89636568Y-119134726D01*
X89634527Y-119128444D01*
X89539040Y-118963056D01*
X89411253Y-118821134D01*
X89256752Y-118708882D01*
X89250724Y-118706198D01*
X89250722Y-118706197D01*
X89088319Y-118633891D01*
X89088318Y-118633891D01*
X89082288Y-118631206D01*
X88988887Y-118611353D01*
X88901944Y-118592872D01*
X88901939Y-118592872D01*
X88895487Y-118591500D01*
X88704513Y-118591500D01*
X88698061Y-118592872D01*
X88698056Y-118592872D01*
X88611113Y-118611353D01*
X88517712Y-118631206D01*
X88511682Y-118633891D01*
X88511681Y-118633891D01*
X88349278Y-118706197D01*
X88349276Y-118706198D01*
X88343248Y-118708882D01*
X88188747Y-118821134D01*
X88060960Y-118963056D01*
X87965473Y-119128444D01*
X87906458Y-119310072D01*
X87905768Y-119316633D01*
X87905768Y-119316635D01*
X87892686Y-119441109D01*
X87886496Y-119500000D01*
X72608500Y-119500000D01*
X72608500Y-115943134D01*
X86526502Y-115943134D01*
X86533257Y-116005316D01*
X86584387Y-116141705D01*
X86671741Y-116258261D01*
X86788297Y-116345615D01*
X86924686Y-116396745D01*
X86986868Y-116403500D01*
X88433136Y-116403500D01*
X88495318Y-116396745D01*
X88631707Y-116345615D01*
X88748263Y-116258261D01*
X88835617Y-116141705D01*
X88886747Y-116005316D01*
X88893502Y-115943134D01*
X94316497Y-115943134D01*
X94323252Y-116005316D01*
X94374382Y-116141705D01*
X94461736Y-116258261D01*
X94578292Y-116345615D01*
X94714681Y-116396745D01*
X94776863Y-116403500D01*
X96223131Y-116403500D01*
X96285313Y-116396745D01*
X96421702Y-116345615D01*
X96538258Y-116258261D01*
X96625612Y-116141705D01*
X96676742Y-116005316D01*
X96683497Y-115943134D01*
X96683497Y-112946868D01*
X96676742Y-112884686D01*
X96625612Y-112748297D01*
X96538258Y-112631741D01*
X96421702Y-112544387D01*
X96285313Y-112493257D01*
X96223131Y-112486502D01*
X94776863Y-112486502D01*
X94714681Y-112493257D01*
X94578292Y-112544387D01*
X94461736Y-112631741D01*
X94374382Y-112748297D01*
X94323252Y-112884686D01*
X94316497Y-112946868D01*
X94316497Y-115943134D01*
X88893502Y-115943134D01*
X88893502Y-112946868D01*
X88886747Y-112884686D01*
X88835617Y-112748297D01*
X88748263Y-112631741D01*
X88631707Y-112544387D01*
X88495318Y-112493257D01*
X88433136Y-112486502D01*
X86986868Y-112486502D01*
X86924686Y-112493257D01*
X86788297Y-112544387D01*
X86671741Y-112631741D01*
X86584387Y-112748297D01*
X86533257Y-112884686D01*
X86526502Y-112946868D01*
X86526502Y-115943134D01*
X72608500Y-115943134D01*
X72608500Y-110978918D01*
X104986917Y-110978918D01*
X105002682Y-111252320D01*
X105003507Y-111256525D01*
X105003508Y-111256533D01*
X105014127Y-111310657D01*
X105055405Y-111521053D01*
X105056792Y-111525103D01*
X105056793Y-111525108D01*
X105077605Y-111585895D01*
X105144112Y-111780144D01*
X105267160Y-112024799D01*
X105269586Y-112028328D01*
X105269589Y-112028334D01*
X105419843Y-112246953D01*
X105422274Y-112250490D01*
X105606582Y-112453043D01*
X105816675Y-112628707D01*
X105820316Y-112630991D01*
X106045024Y-112771951D01*
X106045028Y-112771953D01*
X106048664Y-112774234D01*
X106116544Y-112804883D01*
X106294345Y-112885164D01*
X106294349Y-112885166D01*
X106298257Y-112886930D01*
X106302377Y-112888150D01*
X106302376Y-112888150D01*
X106556723Y-112963491D01*
X106556727Y-112963492D01*
X106560836Y-112964709D01*
X106565070Y-112965357D01*
X106565075Y-112965358D01*
X106827298Y-113005483D01*
X106827300Y-113005483D01*
X106831540Y-113006132D01*
X106970912Y-113008322D01*
X107101071Y-113010367D01*
X107101077Y-113010367D01*
X107105362Y-113010434D01*
X107377235Y-112977534D01*
X107642127Y-112908041D01*
X107646087Y-112906401D01*
X107646092Y-112906399D01*
X107768631Y-112855641D01*
X107895136Y-112803241D01*
X108131582Y-112665073D01*
X108347089Y-112496094D01*
X108356385Y-112486502D01*
X108534686Y-112302509D01*
X108537669Y-112299431D01*
X108540202Y-112295983D01*
X108540206Y-112295978D01*
X108697257Y-112082178D01*
X108699795Y-112078723D01*
X108727154Y-112028334D01*
X108828418Y-111841830D01*
X108828419Y-111841828D01*
X108830468Y-111838054D01*
X108927269Y-111581877D01*
X108988407Y-111314933D01*
X109012751Y-111042161D01*
X109013193Y-111000000D01*
X109011756Y-110978918D01*
X113986917Y-110978918D01*
X114002682Y-111252320D01*
X114003507Y-111256525D01*
X114003508Y-111256533D01*
X114014127Y-111310657D01*
X114055405Y-111521053D01*
X114056792Y-111525103D01*
X114056793Y-111525108D01*
X114077605Y-111585895D01*
X114144112Y-111780144D01*
X114267160Y-112024799D01*
X114269586Y-112028328D01*
X114269589Y-112028334D01*
X114419843Y-112246953D01*
X114422274Y-112250490D01*
X114606582Y-112453043D01*
X114816675Y-112628707D01*
X114820316Y-112630991D01*
X115045024Y-112771951D01*
X115045028Y-112771953D01*
X115048664Y-112774234D01*
X115116544Y-112804883D01*
X115294345Y-112885164D01*
X115294349Y-112885166D01*
X115298257Y-112886930D01*
X115302377Y-112888150D01*
X115302376Y-112888150D01*
X115556723Y-112963491D01*
X115556727Y-112963492D01*
X115560836Y-112964709D01*
X115565070Y-112965357D01*
X115565075Y-112965358D01*
X115827298Y-113005483D01*
X115827300Y-113005483D01*
X115831540Y-113006132D01*
X115970912Y-113008322D01*
X116101071Y-113010367D01*
X116101077Y-113010367D01*
X116105362Y-113010434D01*
X116377235Y-112977534D01*
X116642127Y-112908041D01*
X116646087Y-112906401D01*
X116646092Y-112906399D01*
X116768631Y-112855641D01*
X116895136Y-112803241D01*
X117131582Y-112665073D01*
X117347089Y-112496094D01*
X117356385Y-112486502D01*
X117534686Y-112302509D01*
X117537669Y-112299431D01*
X117540202Y-112295983D01*
X117540206Y-112295978D01*
X117697257Y-112082178D01*
X117699795Y-112078723D01*
X117727154Y-112028334D01*
X117828418Y-111841830D01*
X117828419Y-111841828D01*
X117830468Y-111838054D01*
X117927269Y-111581877D01*
X117988407Y-111314933D01*
X118012751Y-111042161D01*
X118013193Y-111000000D01*
X117994567Y-110726778D01*
X117939032Y-110458612D01*
X117847617Y-110200465D01*
X117722013Y-109957112D01*
X117712040Y-109942921D01*
X117567008Y-109736562D01*
X117564545Y-109733057D01*
X117378125Y-109532445D01*
X117374810Y-109529731D01*
X117374806Y-109529728D01*
X117169523Y-109361706D01*
X117166205Y-109358990D01*
X116932704Y-109215901D01*
X116928768Y-109214173D01*
X116685873Y-109107549D01*
X116685869Y-109107548D01*
X116681945Y-109105825D01*
X116418566Y-109030800D01*
X116414324Y-109030196D01*
X116414318Y-109030195D01*
X116213834Y-109001662D01*
X116147443Y-108992213D01*
X116003589Y-108991460D01*
X115877877Y-108990802D01*
X115877871Y-108990802D01*
X115873591Y-108990780D01*
X115869347Y-108991339D01*
X115869343Y-108991339D01*
X115750302Y-109007011D01*
X115602078Y-109026525D01*
X115597938Y-109027658D01*
X115597936Y-109027658D01*
X115525008Y-109047609D01*
X115337928Y-109098788D01*
X115333980Y-109100472D01*
X115089982Y-109204546D01*
X115089978Y-109204548D01*
X115086030Y-109206232D01*
X115066125Y-109218145D01*
X114854725Y-109344664D01*
X114854721Y-109344667D01*
X114851043Y-109346868D01*
X114637318Y-109518094D01*
X114448808Y-109716742D01*
X114289002Y-109939136D01*
X114160857Y-110181161D01*
X114159385Y-110185184D01*
X114159383Y-110185188D01*
X114152314Y-110204506D01*
X114066743Y-110438337D01*
X114008404Y-110705907D01*
X113986917Y-110978918D01*
X109011756Y-110978918D01*
X108994567Y-110726778D01*
X108939032Y-110458612D01*
X108847617Y-110200465D01*
X108722013Y-109957112D01*
X108712040Y-109942921D01*
X108567008Y-109736562D01*
X108564545Y-109733057D01*
X108378125Y-109532445D01*
X108374810Y-109529731D01*
X108374806Y-109529728D01*
X108169523Y-109361706D01*
X108166205Y-109358990D01*
X107932704Y-109215901D01*
X107928768Y-109214173D01*
X107685873Y-109107549D01*
X107685869Y-109107548D01*
X107681945Y-109105825D01*
X107418566Y-109030800D01*
X107414324Y-109030196D01*
X107414318Y-109030195D01*
X107213834Y-109001662D01*
X107147443Y-108992213D01*
X107003589Y-108991460D01*
X106877877Y-108990802D01*
X106877871Y-108990802D01*
X106873591Y-108990780D01*
X106869347Y-108991339D01*
X106869343Y-108991339D01*
X106750302Y-109007011D01*
X106602078Y-109026525D01*
X106597938Y-109027658D01*
X106597936Y-109027658D01*
X106525008Y-109047609D01*
X106337928Y-109098788D01*
X106333980Y-109100472D01*
X106089982Y-109204546D01*
X106089978Y-109204548D01*
X106086030Y-109206232D01*
X106066125Y-109218145D01*
X105854725Y-109344664D01*
X105854721Y-109344667D01*
X105851043Y-109346868D01*
X105637318Y-109518094D01*
X105448808Y-109716742D01*
X105289002Y-109939136D01*
X105160857Y-110181161D01*
X105159385Y-110185184D01*
X105159383Y-110185188D01*
X105152314Y-110204506D01*
X105066743Y-110438337D01*
X105008404Y-110705907D01*
X104986917Y-110978918D01*
X72608500Y-110978918D01*
X72608500Y-104478918D01*
X77486917Y-104478918D01*
X77502682Y-104752320D01*
X77503507Y-104756525D01*
X77503508Y-104756533D01*
X77519284Y-104836944D01*
X77555405Y-105021053D01*
X77556792Y-105025103D01*
X77556793Y-105025108D01*
X77642723Y-105276088D01*
X77644112Y-105280144D01*
X77671217Y-105334036D01*
X77761107Y-105512763D01*
X77767160Y-105524799D01*
X77769586Y-105528328D01*
X77769589Y-105528334D01*
X77862182Y-105663056D01*
X77922274Y-105750490D01*
X78106582Y-105953043D01*
X78316675Y-106128707D01*
X78320316Y-106130991D01*
X78545024Y-106271951D01*
X78545028Y-106271953D01*
X78548664Y-106274234D01*
X78616544Y-106304883D01*
X78794345Y-106385164D01*
X78794349Y-106385166D01*
X78798257Y-106386930D01*
X78857893Y-106404595D01*
X79056723Y-106463491D01*
X79056727Y-106463492D01*
X79060836Y-106464709D01*
X79065070Y-106465357D01*
X79065075Y-106465358D01*
X79327298Y-106505483D01*
X79327300Y-106505483D01*
X79331540Y-106506132D01*
X79470912Y-106508322D01*
X79601071Y-106510367D01*
X79601077Y-106510367D01*
X79605362Y-106510434D01*
X79877235Y-106477534D01*
X80142127Y-106408041D01*
X80146087Y-106406401D01*
X80146092Y-106406399D01*
X80381517Y-106308882D01*
X80395136Y-106303241D01*
X80631582Y-106165073D01*
X80847089Y-105996094D01*
X80888809Y-105953043D01*
X81034686Y-105802509D01*
X81037669Y-105799431D01*
X81040202Y-105795983D01*
X81040206Y-105795978D01*
X81197257Y-105582178D01*
X81199795Y-105578723D01*
X81227154Y-105528334D01*
X81328418Y-105341830D01*
X81328419Y-105341828D01*
X81330468Y-105338054D01*
X81387457Y-105187237D01*
X81425751Y-105085895D01*
X81425752Y-105085891D01*
X81427269Y-105081877D01*
X81460463Y-104936944D01*
X81487449Y-104819117D01*
X81487450Y-104819113D01*
X81488407Y-104814933D01*
X81491768Y-104777279D01*
X81512531Y-104544627D01*
X81512531Y-104544625D01*
X81512751Y-104542161D01*
X81513193Y-104500000D01*
X81512934Y-104496206D01*
X81511755Y-104478918D01*
X86486917Y-104478918D01*
X86502682Y-104752320D01*
X86503507Y-104756525D01*
X86503508Y-104756533D01*
X86519284Y-104836944D01*
X86555405Y-105021053D01*
X86556792Y-105025103D01*
X86556793Y-105025108D01*
X86642723Y-105276088D01*
X86644112Y-105280144D01*
X86671217Y-105334036D01*
X86761107Y-105512763D01*
X86767160Y-105524799D01*
X86769586Y-105528328D01*
X86769589Y-105528334D01*
X86862182Y-105663056D01*
X86922274Y-105750490D01*
X87106582Y-105953043D01*
X87316675Y-106128707D01*
X87320316Y-106130991D01*
X87545024Y-106271951D01*
X87545028Y-106271953D01*
X87548664Y-106274234D01*
X87616544Y-106304883D01*
X87794345Y-106385164D01*
X87794349Y-106385166D01*
X87798257Y-106386930D01*
X87857893Y-106404595D01*
X88056723Y-106463491D01*
X88056727Y-106463492D01*
X88060836Y-106464709D01*
X88065070Y-106465357D01*
X88065075Y-106465358D01*
X88327298Y-106505483D01*
X88327300Y-106505483D01*
X88331540Y-106506132D01*
X88470912Y-106508322D01*
X88601071Y-106510367D01*
X88601077Y-106510367D01*
X88605362Y-106510434D01*
X88877235Y-106477534D01*
X89142127Y-106408041D01*
X89146087Y-106406401D01*
X89146092Y-106406399D01*
X89381517Y-106308882D01*
X89395136Y-106303241D01*
X89631582Y-106165073D01*
X89847089Y-105996094D01*
X89888809Y-105953043D01*
X90034686Y-105802509D01*
X90037669Y-105799431D01*
X90040202Y-105795983D01*
X90040206Y-105795978D01*
X90197257Y-105582178D01*
X90199795Y-105578723D01*
X90227154Y-105528334D01*
X90328418Y-105341830D01*
X90328419Y-105341828D01*
X90330468Y-105338054D01*
X90387457Y-105187237D01*
X90425751Y-105085895D01*
X90425752Y-105085891D01*
X90427269Y-105081877D01*
X90460463Y-104936944D01*
X90487449Y-104819117D01*
X90487450Y-104819113D01*
X90488407Y-104814933D01*
X90491768Y-104777279D01*
X90512531Y-104544627D01*
X90512531Y-104544625D01*
X90512751Y-104542161D01*
X90513193Y-104500000D01*
X90512934Y-104496206D01*
X90511755Y-104478918D01*
X133486917Y-104478918D01*
X133502682Y-104752320D01*
X133503507Y-104756525D01*
X133503508Y-104756533D01*
X133519284Y-104836944D01*
X133555405Y-105021053D01*
X133556792Y-105025103D01*
X133556793Y-105025108D01*
X133642723Y-105276088D01*
X133644112Y-105280144D01*
X133671217Y-105334036D01*
X133761107Y-105512763D01*
X133767160Y-105524799D01*
X133769586Y-105528328D01*
X133769589Y-105528334D01*
X133862182Y-105663056D01*
X133922274Y-105750490D01*
X134106582Y-105953043D01*
X134316675Y-106128707D01*
X134320316Y-106130991D01*
X134545024Y-106271951D01*
X134545028Y-106271953D01*
X134548664Y-106274234D01*
X134616544Y-106304883D01*
X134794345Y-106385164D01*
X134794349Y-106385166D01*
X134798257Y-106386930D01*
X134857893Y-106404595D01*
X135056723Y-106463491D01*
X135056727Y-106463492D01*
X135060836Y-106464709D01*
X135065070Y-106465357D01*
X135065075Y-106465358D01*
X135327298Y-106505483D01*
X135327300Y-106505483D01*
X135331540Y-106506132D01*
X135470912Y-106508322D01*
X135601071Y-106510367D01*
X135601077Y-106510367D01*
X135605362Y-106510434D01*
X135877235Y-106477534D01*
X136142127Y-106408041D01*
X136146087Y-106406401D01*
X136146092Y-106406399D01*
X136381517Y-106308882D01*
X136395136Y-106303241D01*
X136631582Y-106165073D01*
X136847089Y-105996094D01*
X136888809Y-105953043D01*
X137034686Y-105802509D01*
X137037669Y-105799431D01*
X137040202Y-105795983D01*
X137040206Y-105795978D01*
X137197257Y-105582178D01*
X137199795Y-105578723D01*
X137227154Y-105528334D01*
X137328418Y-105341830D01*
X137328419Y-105341828D01*
X137330468Y-105338054D01*
X137387457Y-105187237D01*
X137425751Y-105085895D01*
X137425752Y-105085891D01*
X137427269Y-105081877D01*
X137460463Y-104936944D01*
X137487449Y-104819117D01*
X137487450Y-104819113D01*
X137488407Y-104814933D01*
X137491768Y-104777279D01*
X137512531Y-104544627D01*
X137512531Y-104544625D01*
X137512751Y-104542161D01*
X137513193Y-104500000D01*
X137512934Y-104496206D01*
X137506376Y-104400000D01*
X140686496Y-104400000D01*
X140687186Y-104406565D01*
X140701438Y-104542161D01*
X140706458Y-104589928D01*
X140765473Y-104771556D01*
X140860960Y-104936944D01*
X140865378Y-104941851D01*
X140865379Y-104941852D01*
X140868432Y-104945243D01*
X140988747Y-105078866D01*
X141143248Y-105191118D01*
X141149276Y-105193802D01*
X141149278Y-105193803D01*
X141230091Y-105229783D01*
X141317712Y-105268794D01*
X141389133Y-105283975D01*
X141498056Y-105307128D01*
X141498061Y-105307128D01*
X141504513Y-105308500D01*
X141695487Y-105308500D01*
X141695487Y-105310877D01*
X141754666Y-105321708D01*
X141806506Y-105370217D01*
X141823891Y-105439052D01*
X141801301Y-105506359D01*
X141788469Y-105520884D01*
X141788747Y-105521134D01*
X141660960Y-105663056D01*
X141603225Y-105763056D01*
X141580447Y-105802509D01*
X141565473Y-105828444D01*
X141506458Y-106010072D01*
X141505768Y-106016633D01*
X141505768Y-106016635D01*
X141495948Y-106110072D01*
X141486496Y-106200000D01*
X141487186Y-106206565D01*
X141497520Y-106304883D01*
X141506458Y-106389928D01*
X141565473Y-106571556D01*
X141660960Y-106736944D01*
X141788747Y-106878866D01*
X141887843Y-106950864D01*
X141926385Y-106978866D01*
X141943248Y-106991118D01*
X141949276Y-106993802D01*
X141949278Y-106993803D01*
X142111681Y-107066109D01*
X142117712Y-107068794D01*
X142204479Y-107087237D01*
X142298056Y-107107128D01*
X142298061Y-107107128D01*
X142304513Y-107108500D01*
X142495487Y-107108500D01*
X142501939Y-107107128D01*
X142501944Y-107107128D01*
X142595521Y-107087237D01*
X142682288Y-107068794D01*
X142688319Y-107066109D01*
X142850722Y-106993803D01*
X142850724Y-106993802D01*
X142856752Y-106991118D01*
X142873616Y-106978866D01*
X142912157Y-106950864D01*
X143011253Y-106878866D01*
X143139040Y-106736944D01*
X143234527Y-106571556D01*
X143293542Y-106389928D01*
X143299670Y-106331625D01*
X143326684Y-106265968D01*
X143384905Y-106225339D01*
X143455850Y-106222636D01*
X143491936Y-106238059D01*
X143545261Y-106271509D01*
X143552807Y-106275556D01*
X143585455Y-106290297D01*
X143639310Y-106336560D01*
X143659603Y-106404595D01*
X143639892Y-106472801D01*
X143627244Y-106489440D01*
X143560960Y-106563056D01*
X143465473Y-106728444D01*
X143406458Y-106910072D01*
X143405768Y-106916633D01*
X143405768Y-106916635D01*
X143398819Y-106982749D01*
X143386496Y-107100000D01*
X143406458Y-107289928D01*
X143465473Y-107471556D01*
X143560960Y-107636944D01*
X143688747Y-107778866D01*
X143843248Y-107891118D01*
X143849276Y-107893802D01*
X143849278Y-107893803D01*
X144011681Y-107966109D01*
X144017712Y-107968794D01*
X144111113Y-107988647D01*
X144198056Y-108007128D01*
X144198061Y-108007128D01*
X144204513Y-108008500D01*
X144395487Y-108008500D01*
X144401939Y-108007128D01*
X144401944Y-108007128D01*
X144488887Y-107988647D01*
X144582288Y-107968794D01*
X144588319Y-107966109D01*
X144750722Y-107893803D01*
X144750724Y-107893802D01*
X144756752Y-107891118D01*
X144911253Y-107778866D01*
X145039040Y-107636944D01*
X145134527Y-107471556D01*
X145193542Y-107289928D01*
X145213504Y-107100000D01*
X145201181Y-106982749D01*
X145194232Y-106916635D01*
X145194232Y-106916633D01*
X145193542Y-106910072D01*
X145134527Y-106728444D01*
X145057166Y-106594451D01*
X145040428Y-106525456D01*
X145063648Y-106458364D01*
X145119455Y-106414477D01*
X145134304Y-106409577D01*
X145137818Y-106408655D01*
X145145926Y-106405926D01*
X145390949Y-106304434D01*
X145398617Y-106300628D01*
X145501417Y-106240556D01*
X145570324Y-106223457D01*
X145637536Y-106246326D01*
X145681715Y-106301902D01*
X145690298Y-106336174D01*
X145705210Y-106478050D01*
X145706458Y-106489928D01*
X145765473Y-106671556D01*
X145860960Y-106836944D01*
X145988747Y-106978866D01*
X146143248Y-107091118D01*
X146149276Y-107093802D01*
X146149278Y-107093803D01*
X146311681Y-107166109D01*
X146317712Y-107168794D01*
X146411113Y-107188647D01*
X146498056Y-107207128D01*
X146498061Y-107207128D01*
X146504513Y-107208500D01*
X146695487Y-107208500D01*
X146701939Y-107207128D01*
X146701944Y-107207128D01*
X146788888Y-107188647D01*
X146882288Y-107168794D01*
X146888319Y-107166109D01*
X147050722Y-107093803D01*
X147050724Y-107093802D01*
X147056752Y-107091118D01*
X147211253Y-106978866D01*
X147339040Y-106836944D01*
X147434527Y-106671556D01*
X147493542Y-106489928D01*
X147494791Y-106478050D01*
X147512814Y-106306565D01*
X147513504Y-106300000D01*
X147499323Y-106165073D01*
X147494232Y-106116635D01*
X147494232Y-106116633D01*
X147493542Y-106110072D01*
X147434527Y-105928444D01*
X147339040Y-105763056D01*
X147330584Y-105753664D01*
X147215675Y-105626045D01*
X147215674Y-105626044D01*
X147211253Y-105621134D01*
X147078660Y-105524799D01*
X147062094Y-105512763D01*
X147062093Y-105512762D01*
X147056752Y-105508882D01*
X147050724Y-105506198D01*
X147050722Y-105506197D01*
X146888319Y-105433891D01*
X146888318Y-105433891D01*
X146882288Y-105431206D01*
X146788888Y-105411353D01*
X146701944Y-105392872D01*
X146701939Y-105392872D01*
X146695487Y-105391500D01*
X146504513Y-105391500D01*
X146502892Y-105391845D01*
X146434855Y-105379399D01*
X146383011Y-105330894D01*
X146365621Y-105262061D01*
X146373663Y-105222326D01*
X146425271Y-105085750D01*
X146427748Y-105077544D01*
X146444540Y-105004226D01*
X146479245Y-104942290D01*
X146541926Y-104908949D01*
X146612682Y-104914788D01*
X146660994Y-104948043D01*
X146688747Y-104978866D01*
X146787843Y-105050864D01*
X146835860Y-105085750D01*
X146843248Y-105091118D01*
X146849276Y-105093802D01*
X146849278Y-105093803D01*
X147011681Y-105166109D01*
X147017712Y-105168794D01*
X147104479Y-105187237D01*
X147198056Y-105207128D01*
X147198061Y-105207128D01*
X147204513Y-105208500D01*
X147395487Y-105208500D01*
X147401939Y-105207128D01*
X147401944Y-105207128D01*
X147495521Y-105187237D01*
X147582288Y-105168794D01*
X147588319Y-105166109D01*
X147750722Y-105093803D01*
X147750724Y-105093802D01*
X147756752Y-105091118D01*
X147764141Y-105085750D01*
X147812157Y-105050864D01*
X147911253Y-104978866D01*
X147968949Y-104914788D01*
X148034621Y-104841852D01*
X148034622Y-104841851D01*
X148039040Y-104836944D01*
X148134527Y-104671556D01*
X148193542Y-104489928D01*
X148194250Y-104483198D01*
X148212814Y-104306565D01*
X148213504Y-104300000D01*
X148203615Y-104205907D01*
X148194232Y-104116635D01*
X148194232Y-104116633D01*
X148193542Y-104110072D01*
X148134527Y-103928444D01*
X148039040Y-103763056D01*
X147986322Y-103704506D01*
X147915675Y-103626045D01*
X147915674Y-103626044D01*
X147911253Y-103621134D01*
X147756752Y-103508882D01*
X147750724Y-103506198D01*
X147750722Y-103506197D01*
X147588319Y-103433891D01*
X147588318Y-103433891D01*
X147582288Y-103431206D01*
X147488888Y-103411353D01*
X147401944Y-103392872D01*
X147401939Y-103392872D01*
X147395487Y-103391500D01*
X147204513Y-103391500D01*
X147198061Y-103392872D01*
X147198056Y-103392872D01*
X147111112Y-103411353D01*
X147017712Y-103431206D01*
X147011682Y-103433891D01*
X147011681Y-103433891D01*
X146849278Y-103506197D01*
X146849276Y-103506198D01*
X146843248Y-103508882D01*
X146688747Y-103621134D01*
X146565078Y-103758483D01*
X146504633Y-103795722D01*
X146433650Y-103794370D01*
X146374665Y-103754857D01*
X146352670Y-103716232D01*
X146348588Y-103704705D01*
X146345191Y-103696854D01*
X146223550Y-103461178D01*
X146219122Y-103453866D01*
X146103167Y-103288881D01*
X146080362Y-103221647D01*
X146097526Y-103152757D01*
X146149211Y-103104082D01*
X146219006Y-103091077D01*
X146232450Y-103093183D01*
X146283728Y-103104082D01*
X146304513Y-103108500D01*
X146495487Y-103108500D01*
X146501939Y-103107128D01*
X146501944Y-103107128D01*
X146616635Y-103082749D01*
X146682288Y-103068794D01*
X146688319Y-103066109D01*
X146850722Y-102993803D01*
X146850724Y-102993802D01*
X146856752Y-102991118D01*
X147011253Y-102878866D01*
X147026704Y-102861706D01*
X147134621Y-102741852D01*
X147134622Y-102741851D01*
X147139040Y-102736944D01*
X147234527Y-102571556D01*
X147293542Y-102389928D01*
X147313504Y-102200000D01*
X147295473Y-102028444D01*
X147294232Y-102016635D01*
X147294232Y-102016633D01*
X147293542Y-102010072D01*
X147234527Y-101828444D01*
X147139040Y-101663056D01*
X147022740Y-101533891D01*
X147015675Y-101526045D01*
X147015674Y-101526044D01*
X147011253Y-101521134D01*
X146856752Y-101408882D01*
X146850724Y-101406198D01*
X146850722Y-101406197D01*
X146688319Y-101333891D01*
X146688318Y-101333891D01*
X146682288Y-101331206D01*
X146588888Y-101311353D01*
X146501944Y-101292872D01*
X146501939Y-101292872D01*
X146495487Y-101291500D01*
X146304513Y-101291500D01*
X146298061Y-101292872D01*
X146298056Y-101292872D01*
X146211113Y-101311353D01*
X146117712Y-101331206D01*
X146111682Y-101333891D01*
X146111681Y-101333891D01*
X145949278Y-101406197D01*
X145949276Y-101406198D01*
X145943248Y-101408882D01*
X145788747Y-101521134D01*
X145784326Y-101526044D01*
X145784325Y-101526045D01*
X145777261Y-101533891D01*
X145660960Y-101663056D01*
X145565473Y-101828444D01*
X145545496Y-101889928D01*
X145543524Y-101895997D01*
X145503451Y-101954603D01*
X145472916Y-101967507D01*
X145484209Y-101977872D01*
X145502258Y-102046537D01*
X145501619Y-102056109D01*
X145492328Y-102144508D01*
X145486496Y-102200000D01*
X145506458Y-102389928D01*
X145508498Y-102396206D01*
X145555630Y-102541263D01*
X145557658Y-102612230D01*
X145520995Y-102673028D01*
X145457283Y-102704354D01*
X145385152Y-102695573D01*
X145185704Y-102608022D01*
X145177644Y-102605120D01*
X145077387Y-102576561D01*
X145017352Y-102538662D01*
X144987338Y-102474322D01*
X144996873Y-102403969D01*
X145018266Y-102371078D01*
X145139040Y-102236944D01*
X145234527Y-102071556D01*
X145256477Y-102004002D01*
X145296549Y-101945397D01*
X145327084Y-101932493D01*
X145315791Y-101922128D01*
X145297742Y-101853463D01*
X145298381Y-101843891D01*
X145312814Y-101706565D01*
X145312814Y-101706564D01*
X145313504Y-101700000D01*
X145303645Y-101606197D01*
X145294232Y-101516635D01*
X145294232Y-101516633D01*
X145293542Y-101510072D01*
X145234527Y-101328444D01*
X145213990Y-101292872D01*
X145142341Y-101168774D01*
X145139040Y-101163056D01*
X145011253Y-101021134D01*
X144856752Y-100908882D01*
X144850724Y-100906198D01*
X144850722Y-100906197D01*
X144688319Y-100833891D01*
X144688318Y-100833891D01*
X144682288Y-100831206D01*
X144588887Y-100811353D01*
X144501944Y-100792872D01*
X144501939Y-100792872D01*
X144495487Y-100791500D01*
X144304513Y-100791500D01*
X144298061Y-100792872D01*
X144298056Y-100792872D01*
X144211112Y-100811353D01*
X144117712Y-100831206D01*
X144111682Y-100833891D01*
X144111681Y-100833891D01*
X143949278Y-100906197D01*
X143949276Y-100906198D01*
X143943248Y-100908882D01*
X143788747Y-101021134D01*
X143660960Y-101163056D01*
X143657659Y-101168774D01*
X143586011Y-101292872D01*
X143565473Y-101328444D01*
X143506458Y-101510072D01*
X143505768Y-101516633D01*
X143505768Y-101516635D01*
X143496355Y-101606197D01*
X143486496Y-101700000D01*
X143499395Y-101822721D01*
X143500560Y-101833807D01*
X143487788Y-101903646D01*
X143439286Y-101955492D01*
X143370453Y-101972887D01*
X143303143Y-101950306D01*
X143266131Y-101909979D01*
X143262475Y-101903646D01*
X143239040Y-101863056D01*
X143230403Y-101853463D01*
X143115675Y-101726045D01*
X143115674Y-101726044D01*
X143111253Y-101721134D01*
X142956752Y-101608882D01*
X142950724Y-101606198D01*
X142950722Y-101606197D01*
X142788319Y-101533891D01*
X142788318Y-101533891D01*
X142782288Y-101531206D01*
X142682861Y-101510072D01*
X142601944Y-101492872D01*
X142601939Y-101492872D01*
X142595487Y-101491500D01*
X142404513Y-101491500D01*
X142398061Y-101492872D01*
X142398056Y-101492872D01*
X142317139Y-101510072D01*
X142217712Y-101531206D01*
X142211682Y-101533891D01*
X142211681Y-101533891D01*
X142049278Y-101606197D01*
X142049276Y-101606198D01*
X142043248Y-101608882D01*
X141888747Y-101721134D01*
X141884326Y-101726044D01*
X141884325Y-101726045D01*
X141769598Y-101853463D01*
X141760960Y-101863056D01*
X141665473Y-102028444D01*
X141606458Y-102210072D01*
X141605768Y-102216633D01*
X141605768Y-102216635D01*
X141589233Y-102373955D01*
X141586496Y-102400000D01*
X141587186Y-102406565D01*
X141605129Y-102577279D01*
X141606458Y-102589928D01*
X141665473Y-102771556D01*
X141760960Y-102936944D01*
X141765378Y-102941851D01*
X141765379Y-102941852D01*
X141879678Y-103068794D01*
X141888747Y-103078866D01*
X142043248Y-103191118D01*
X142049276Y-103193802D01*
X142049278Y-103193803D01*
X142130390Y-103229916D01*
X142217712Y-103268794D01*
X142311113Y-103288647D01*
X142398056Y-103307128D01*
X142398061Y-103307128D01*
X142404513Y-103308500D01*
X142595487Y-103308500D01*
X142601942Y-103307128D01*
X142601951Y-103307127D01*
X142628417Y-103301501D01*
X142699208Y-103306902D01*
X142755841Y-103349718D01*
X142780335Y-103416355D01*
X142765969Y-103483706D01*
X142663325Y-103677567D01*
X142659839Y-103685395D01*
X142588243Y-103881043D01*
X142546049Y-103938141D01*
X142479684Y-103963363D01*
X142410218Y-103948701D01*
X142360798Y-103900742D01*
X142342341Y-103868774D01*
X142339040Y-103863056D01*
X142211253Y-103721134D01*
X142080375Y-103626045D01*
X142062094Y-103612763D01*
X142062093Y-103612762D01*
X142056752Y-103608882D01*
X142050724Y-103606198D01*
X142050722Y-103606197D01*
X141888319Y-103533891D01*
X141888318Y-103533891D01*
X141882288Y-103531206D01*
X141788887Y-103511353D01*
X141701944Y-103492872D01*
X141701939Y-103492872D01*
X141695487Y-103491500D01*
X141504513Y-103491500D01*
X141498061Y-103492872D01*
X141498056Y-103492872D01*
X141411113Y-103511353D01*
X141317712Y-103531206D01*
X141311682Y-103533891D01*
X141311681Y-103533891D01*
X141149278Y-103606197D01*
X141149276Y-103606198D01*
X141143248Y-103608882D01*
X141137907Y-103612762D01*
X141137906Y-103612763D01*
X141119625Y-103626045D01*
X140988747Y-103721134D01*
X140860960Y-103863056D01*
X140765473Y-104028444D01*
X140706458Y-104210072D01*
X140705768Y-104216633D01*
X140705768Y-104216635D01*
X140697696Y-104293435D01*
X140686496Y-104400000D01*
X137506376Y-104400000D01*
X137494859Y-104231055D01*
X137494858Y-104231049D01*
X137494567Y-104226778D01*
X137492467Y-104216635D01*
X137439901Y-103962809D01*
X137439032Y-103958612D01*
X137347617Y-103700465D01*
X137222013Y-103457112D01*
X137212040Y-103442921D01*
X137112648Y-103301501D01*
X137064545Y-103233057D01*
X136932609Y-103091077D01*
X136881046Y-103035588D01*
X136881043Y-103035585D01*
X136878125Y-103032445D01*
X136874810Y-103029731D01*
X136874806Y-103029728D01*
X136695233Y-102882749D01*
X136666205Y-102858990D01*
X136432704Y-102715901D01*
X136428768Y-102714173D01*
X136185873Y-102607549D01*
X136185869Y-102607548D01*
X136181945Y-102605825D01*
X135918566Y-102530800D01*
X135914324Y-102530196D01*
X135914318Y-102530195D01*
X135713834Y-102501662D01*
X135647443Y-102492213D01*
X135503589Y-102491460D01*
X135377877Y-102490802D01*
X135377871Y-102490802D01*
X135373591Y-102490780D01*
X135369347Y-102491339D01*
X135369343Y-102491339D01*
X135250302Y-102507011D01*
X135102078Y-102526525D01*
X135097938Y-102527658D01*
X135097936Y-102527658D01*
X135057712Y-102538662D01*
X134837928Y-102598788D01*
X134833980Y-102600472D01*
X134589982Y-102704546D01*
X134589978Y-102704548D01*
X134586030Y-102706232D01*
X134476881Y-102771556D01*
X134354725Y-102844664D01*
X134354721Y-102844667D01*
X134351043Y-102846868D01*
X134137318Y-103018094D01*
X134052829Y-103107127D01*
X134009528Y-103152757D01*
X133948808Y-103216742D01*
X133789002Y-103439136D01*
X133660857Y-103681161D01*
X133659385Y-103685184D01*
X133659383Y-103685188D01*
X133633888Y-103754857D01*
X133566743Y-103938337D01*
X133508404Y-104205907D01*
X133486917Y-104478918D01*
X90511755Y-104478918D01*
X90494859Y-104231055D01*
X90494858Y-104231049D01*
X90494567Y-104226778D01*
X90492467Y-104216635D01*
X90439901Y-103962809D01*
X90439032Y-103958612D01*
X90347617Y-103700465D01*
X90222013Y-103457112D01*
X90212040Y-103442921D01*
X90112648Y-103301501D01*
X90064545Y-103233057D01*
X89932609Y-103091077D01*
X89881046Y-103035588D01*
X89881043Y-103035585D01*
X89878125Y-103032445D01*
X89874810Y-103029731D01*
X89874806Y-103029728D01*
X89695233Y-102882749D01*
X89666205Y-102858990D01*
X89432704Y-102715901D01*
X89428768Y-102714173D01*
X89185873Y-102607549D01*
X89185869Y-102607548D01*
X89181945Y-102605825D01*
X88918566Y-102530800D01*
X88914324Y-102530196D01*
X88914318Y-102530195D01*
X88713834Y-102501662D01*
X88647443Y-102492213D01*
X88503589Y-102491460D01*
X88377877Y-102490802D01*
X88377871Y-102490802D01*
X88373591Y-102490780D01*
X88369347Y-102491339D01*
X88369343Y-102491339D01*
X88250302Y-102507011D01*
X88102078Y-102526525D01*
X88097938Y-102527658D01*
X88097936Y-102527658D01*
X88057712Y-102538662D01*
X87837928Y-102598788D01*
X87833980Y-102600472D01*
X87589982Y-102704546D01*
X87589978Y-102704548D01*
X87586030Y-102706232D01*
X87476881Y-102771556D01*
X87354725Y-102844664D01*
X87354721Y-102844667D01*
X87351043Y-102846868D01*
X87137318Y-103018094D01*
X87052829Y-103107127D01*
X87009528Y-103152757D01*
X86948808Y-103216742D01*
X86789002Y-103439136D01*
X86660857Y-103681161D01*
X86659385Y-103685184D01*
X86659383Y-103685188D01*
X86633888Y-103754857D01*
X86566743Y-103938337D01*
X86508404Y-104205907D01*
X86486917Y-104478918D01*
X81511755Y-104478918D01*
X81494859Y-104231055D01*
X81494858Y-104231049D01*
X81494567Y-104226778D01*
X81492467Y-104216635D01*
X81439901Y-103962809D01*
X81439032Y-103958612D01*
X81347617Y-103700465D01*
X81222013Y-103457112D01*
X81212040Y-103442921D01*
X81112648Y-103301501D01*
X81064545Y-103233057D01*
X80932609Y-103091077D01*
X80881046Y-103035588D01*
X80881043Y-103035585D01*
X80878125Y-103032445D01*
X80874810Y-103029731D01*
X80874806Y-103029728D01*
X80695233Y-102882749D01*
X80666205Y-102858990D01*
X80432704Y-102715901D01*
X80428768Y-102714173D01*
X80185873Y-102607549D01*
X80185869Y-102607548D01*
X80181945Y-102605825D01*
X79918566Y-102530800D01*
X79914324Y-102530196D01*
X79914318Y-102530195D01*
X79713834Y-102501662D01*
X79647443Y-102492213D01*
X79503589Y-102491460D01*
X79377877Y-102490802D01*
X79377871Y-102490802D01*
X79373591Y-102490780D01*
X79369347Y-102491339D01*
X79369343Y-102491339D01*
X79250302Y-102507011D01*
X79102078Y-102526525D01*
X79097938Y-102527658D01*
X79097936Y-102527658D01*
X79057712Y-102538662D01*
X78837928Y-102598788D01*
X78833980Y-102600472D01*
X78589982Y-102704546D01*
X78589978Y-102704548D01*
X78586030Y-102706232D01*
X78476881Y-102771556D01*
X78354725Y-102844664D01*
X78354721Y-102844667D01*
X78351043Y-102846868D01*
X78137318Y-103018094D01*
X78052829Y-103107127D01*
X78009528Y-103152757D01*
X77948808Y-103216742D01*
X77789002Y-103439136D01*
X77660857Y-103681161D01*
X77659385Y-103685184D01*
X77659383Y-103685188D01*
X77633888Y-103754857D01*
X77566743Y-103938337D01*
X77508404Y-104205907D01*
X77486917Y-104478918D01*
X72608500Y-104478918D01*
X72608500Y-75478918D01*
X104986917Y-75478918D01*
X105002682Y-75752320D01*
X105003507Y-75756525D01*
X105003508Y-75756533D01*
X105014127Y-75810657D01*
X105055405Y-76021053D01*
X105056792Y-76025103D01*
X105056793Y-76025108D01*
X105077605Y-76085895D01*
X105144112Y-76280144D01*
X105267160Y-76524799D01*
X105269586Y-76528328D01*
X105269589Y-76528334D01*
X105419843Y-76746953D01*
X105422274Y-76750490D01*
X105606582Y-76953043D01*
X105816675Y-77128707D01*
X105820316Y-77130991D01*
X106045024Y-77271951D01*
X106045028Y-77271953D01*
X106048664Y-77274234D01*
X106116544Y-77304883D01*
X106294345Y-77385164D01*
X106294349Y-77385166D01*
X106298257Y-77386930D01*
X106302377Y-77388150D01*
X106302376Y-77388150D01*
X106556723Y-77463491D01*
X106556727Y-77463492D01*
X106560836Y-77464709D01*
X106565070Y-77465357D01*
X106565075Y-77465358D01*
X106827298Y-77505483D01*
X106827300Y-77505483D01*
X106831540Y-77506132D01*
X106970912Y-77508322D01*
X107101071Y-77510367D01*
X107101077Y-77510367D01*
X107105362Y-77510434D01*
X107377235Y-77477534D01*
X107642127Y-77408041D01*
X107646087Y-77406401D01*
X107646092Y-77406399D01*
X107768632Y-77355641D01*
X107895136Y-77303241D01*
X108131582Y-77165073D01*
X108347089Y-76996094D01*
X108388809Y-76953043D01*
X108534686Y-76802509D01*
X108537669Y-76799431D01*
X108540202Y-76795983D01*
X108540206Y-76795978D01*
X108697257Y-76582178D01*
X108699795Y-76578723D01*
X108727154Y-76528334D01*
X108828418Y-76341830D01*
X108828419Y-76341828D01*
X108830468Y-76338054D01*
X108927269Y-76081877D01*
X108988407Y-75814933D01*
X109012751Y-75542161D01*
X109013193Y-75500000D01*
X109011756Y-75478918D01*
X113986917Y-75478918D01*
X114002682Y-75752320D01*
X114003507Y-75756525D01*
X114003508Y-75756533D01*
X114014127Y-75810657D01*
X114055405Y-76021053D01*
X114056792Y-76025103D01*
X114056793Y-76025108D01*
X114077605Y-76085895D01*
X114144112Y-76280144D01*
X114267160Y-76524799D01*
X114269586Y-76528328D01*
X114269589Y-76528334D01*
X114419843Y-76746953D01*
X114422274Y-76750490D01*
X114606582Y-76953043D01*
X114816675Y-77128707D01*
X114820316Y-77130991D01*
X115045024Y-77271951D01*
X115045028Y-77271953D01*
X115048664Y-77274234D01*
X115116544Y-77304883D01*
X115294345Y-77385164D01*
X115294349Y-77385166D01*
X115298257Y-77386930D01*
X115302377Y-77388150D01*
X115302376Y-77388150D01*
X115556723Y-77463491D01*
X115556727Y-77463492D01*
X115560836Y-77464709D01*
X115565070Y-77465357D01*
X115565075Y-77465358D01*
X115827298Y-77505483D01*
X115827300Y-77505483D01*
X115831540Y-77506132D01*
X115970912Y-77508322D01*
X116101071Y-77510367D01*
X116101077Y-77510367D01*
X116105362Y-77510434D01*
X116377235Y-77477534D01*
X116642127Y-77408041D01*
X116646087Y-77406401D01*
X116646092Y-77406399D01*
X116768632Y-77355641D01*
X116895136Y-77303241D01*
X117131582Y-77165073D01*
X117347089Y-76996094D01*
X117388809Y-76953043D01*
X117534686Y-76802509D01*
X117537669Y-76799431D01*
X117540202Y-76795983D01*
X117540206Y-76795978D01*
X117697257Y-76582178D01*
X117699795Y-76578723D01*
X117727154Y-76528334D01*
X117828418Y-76341830D01*
X117828419Y-76341828D01*
X117830468Y-76338054D01*
X117927269Y-76081877D01*
X117988407Y-75814933D01*
X118012751Y-75542161D01*
X118013193Y-75500000D01*
X117994567Y-75226778D01*
X117939032Y-74958612D01*
X117847617Y-74700465D01*
X117722013Y-74457112D01*
X117712040Y-74442921D01*
X117567008Y-74236562D01*
X117564545Y-74233057D01*
X117378125Y-74032445D01*
X117374810Y-74029731D01*
X117374806Y-74029728D01*
X117169523Y-73861706D01*
X117166205Y-73858990D01*
X116932704Y-73715901D01*
X116928768Y-73714173D01*
X116685873Y-73607549D01*
X116685869Y-73607548D01*
X116681945Y-73605825D01*
X116418566Y-73530800D01*
X116414324Y-73530196D01*
X116414318Y-73530195D01*
X116213834Y-73501662D01*
X116147443Y-73492213D01*
X116003589Y-73491460D01*
X115877877Y-73490802D01*
X115877871Y-73490802D01*
X115873591Y-73490780D01*
X115869347Y-73491339D01*
X115869343Y-73491339D01*
X115750302Y-73507011D01*
X115602078Y-73526525D01*
X115597938Y-73527658D01*
X115597936Y-73527658D01*
X115525008Y-73547609D01*
X115337928Y-73598788D01*
X115333980Y-73600472D01*
X115089982Y-73704546D01*
X115089978Y-73704548D01*
X115086030Y-73706232D01*
X115066125Y-73718145D01*
X114854725Y-73844664D01*
X114854721Y-73844667D01*
X114851043Y-73846868D01*
X114637318Y-74018094D01*
X114448808Y-74216742D01*
X114289002Y-74439136D01*
X114160857Y-74681161D01*
X114159385Y-74685184D01*
X114159383Y-74685188D01*
X114152314Y-74704506D01*
X114066743Y-74938337D01*
X114008404Y-75205907D01*
X113986917Y-75478918D01*
X109011756Y-75478918D01*
X108994567Y-75226778D01*
X108939032Y-74958612D01*
X108847617Y-74700465D01*
X108722013Y-74457112D01*
X108712040Y-74442921D01*
X108567008Y-74236562D01*
X108564545Y-74233057D01*
X108378125Y-74032445D01*
X108374810Y-74029731D01*
X108374806Y-74029728D01*
X108169523Y-73861706D01*
X108166205Y-73858990D01*
X107932704Y-73715901D01*
X107928768Y-73714173D01*
X107685873Y-73607549D01*
X107685869Y-73607548D01*
X107681945Y-73605825D01*
X107418566Y-73530800D01*
X107414324Y-73530196D01*
X107414318Y-73530195D01*
X107213834Y-73501662D01*
X107147443Y-73492213D01*
X107003589Y-73491460D01*
X106877877Y-73490802D01*
X106877871Y-73490802D01*
X106873591Y-73490780D01*
X106869347Y-73491339D01*
X106869343Y-73491339D01*
X106750302Y-73507011D01*
X106602078Y-73526525D01*
X106597938Y-73527658D01*
X106597936Y-73527658D01*
X106525008Y-73547609D01*
X106337928Y-73598788D01*
X106333980Y-73600472D01*
X106089982Y-73704546D01*
X106089978Y-73704548D01*
X106086030Y-73706232D01*
X106066125Y-73718145D01*
X105854725Y-73844664D01*
X105854721Y-73844667D01*
X105851043Y-73846868D01*
X105637318Y-74018094D01*
X105448808Y-74216742D01*
X105289002Y-74439136D01*
X105160857Y-74681161D01*
X105159385Y-74685184D01*
X105159383Y-74685188D01*
X105152314Y-74704506D01*
X105066743Y-74938337D01*
X105008404Y-75205907D01*
X104986917Y-75478918D01*
X72608500Y-75478918D01*
X72608500Y-68778918D01*
X77486917Y-68778918D01*
X77502682Y-69052320D01*
X77503507Y-69056525D01*
X77503508Y-69056533D01*
X77524698Y-69164539D01*
X77555405Y-69321053D01*
X77556792Y-69325103D01*
X77556793Y-69325108D01*
X77626411Y-69528444D01*
X77644112Y-69580144D01*
X77767160Y-69824799D01*
X77769586Y-69828328D01*
X77769589Y-69828334D01*
X77902098Y-70021134D01*
X77922274Y-70050490D01*
X77925161Y-70053663D01*
X77925162Y-70053664D01*
X78029904Y-70168774D01*
X78106582Y-70253043D01*
X78109877Y-70255798D01*
X78109878Y-70255799D01*
X78125199Y-70268609D01*
X78316675Y-70428707D01*
X78320316Y-70430991D01*
X78545024Y-70571951D01*
X78545028Y-70571953D01*
X78548664Y-70574234D01*
X78616544Y-70604883D01*
X78794345Y-70685164D01*
X78794349Y-70685166D01*
X78798257Y-70686930D01*
X78802377Y-70688150D01*
X78802376Y-70688150D01*
X79056723Y-70763491D01*
X79056727Y-70763492D01*
X79060836Y-70764709D01*
X79065070Y-70765357D01*
X79065075Y-70765358D01*
X79327298Y-70805483D01*
X79327300Y-70805483D01*
X79331540Y-70806132D01*
X79470912Y-70808322D01*
X79601071Y-70810367D01*
X79601077Y-70810367D01*
X79605362Y-70810434D01*
X79877235Y-70777534D01*
X80142127Y-70708041D01*
X80146087Y-70706401D01*
X80146092Y-70706399D01*
X80268632Y-70655641D01*
X80395136Y-70603241D01*
X80572474Y-70499613D01*
X80627879Y-70467237D01*
X80627880Y-70467236D01*
X80631582Y-70465073D01*
X80847089Y-70296094D01*
X80888809Y-70253043D01*
X80994297Y-70144187D01*
X81037669Y-70099431D01*
X81040202Y-70095983D01*
X81040206Y-70095978D01*
X81183217Y-69901291D01*
X81199795Y-69878723D01*
X81227154Y-69828334D01*
X81328418Y-69641830D01*
X81328419Y-69641828D01*
X81330468Y-69638054D01*
X81392575Y-69473692D01*
X81425751Y-69385895D01*
X81425752Y-69385891D01*
X81427269Y-69381877D01*
X81488407Y-69114933D01*
X81488796Y-69110581D01*
X81512531Y-68844627D01*
X81512531Y-68844625D01*
X81512751Y-68842161D01*
X81513193Y-68800000D01*
X81513024Y-68797519D01*
X81511756Y-68778918D01*
X86486917Y-68778918D01*
X86502682Y-69052320D01*
X86503507Y-69056525D01*
X86503508Y-69056533D01*
X86524698Y-69164539D01*
X86555405Y-69321053D01*
X86556792Y-69325103D01*
X86556793Y-69325108D01*
X86626411Y-69528444D01*
X86644112Y-69580144D01*
X86767160Y-69824799D01*
X86769586Y-69828328D01*
X86769589Y-69828334D01*
X86902098Y-70021134D01*
X86922274Y-70050490D01*
X86925161Y-70053663D01*
X86925162Y-70053664D01*
X87029904Y-70168774D01*
X87106582Y-70253043D01*
X87109877Y-70255798D01*
X87109878Y-70255799D01*
X87125199Y-70268609D01*
X87316675Y-70428707D01*
X87320316Y-70430991D01*
X87545024Y-70571951D01*
X87545028Y-70571953D01*
X87548664Y-70574234D01*
X87616544Y-70604883D01*
X87794345Y-70685164D01*
X87794349Y-70685166D01*
X87798257Y-70686930D01*
X87802377Y-70688150D01*
X87802376Y-70688150D01*
X88056723Y-70763491D01*
X88056727Y-70763492D01*
X88060836Y-70764709D01*
X88065070Y-70765357D01*
X88065075Y-70765358D01*
X88327298Y-70805483D01*
X88327300Y-70805483D01*
X88331540Y-70806132D01*
X88470912Y-70808322D01*
X88601071Y-70810367D01*
X88601077Y-70810367D01*
X88605362Y-70810434D01*
X88877235Y-70777534D01*
X89142127Y-70708041D01*
X89146087Y-70706401D01*
X89146092Y-70706399D01*
X89268632Y-70655641D01*
X89395136Y-70603241D01*
X89572474Y-70499613D01*
X89627879Y-70467237D01*
X89627880Y-70467236D01*
X89631582Y-70465073D01*
X89847089Y-70296094D01*
X89888809Y-70253043D01*
X89994297Y-70144187D01*
X90037669Y-70099431D01*
X90040202Y-70095983D01*
X90040206Y-70095978D01*
X90183217Y-69901291D01*
X90199795Y-69878723D01*
X90227154Y-69828334D01*
X90328418Y-69641830D01*
X90328419Y-69641828D01*
X90330468Y-69638054D01*
X90392575Y-69473692D01*
X90425751Y-69385895D01*
X90425752Y-69385891D01*
X90427269Y-69381877D01*
X90488407Y-69114933D01*
X90488796Y-69110581D01*
X90512531Y-68844627D01*
X90512531Y-68844625D01*
X90512751Y-68842161D01*
X90513193Y-68800000D01*
X90513024Y-68797519D01*
X90494859Y-68531055D01*
X90494858Y-68531049D01*
X90494567Y-68526778D01*
X90439032Y-68258612D01*
X90347617Y-68000465D01*
X90222013Y-67757112D01*
X90212040Y-67742921D01*
X90094752Y-67576037D01*
X90064545Y-67533057D01*
X89994466Y-67457643D01*
X89881046Y-67335588D01*
X89881043Y-67335585D01*
X89878125Y-67332445D01*
X89874810Y-67329731D01*
X89874806Y-67329728D01*
X89669523Y-67161706D01*
X89666205Y-67158990D01*
X89432704Y-67015901D01*
X89428768Y-67014173D01*
X89185873Y-66907549D01*
X89185869Y-66907548D01*
X89181945Y-66905825D01*
X88918566Y-66830800D01*
X88914324Y-66830196D01*
X88914318Y-66830195D01*
X88713834Y-66801662D01*
X88647443Y-66792213D01*
X88503589Y-66791460D01*
X88377877Y-66790802D01*
X88377871Y-66790802D01*
X88373591Y-66790780D01*
X88369347Y-66791339D01*
X88369343Y-66791339D01*
X88250302Y-66807011D01*
X88102078Y-66826525D01*
X88097938Y-66827658D01*
X88097936Y-66827658D01*
X88025008Y-66847609D01*
X87837928Y-66898788D01*
X87833980Y-66900472D01*
X87589982Y-67004546D01*
X87589978Y-67004548D01*
X87586030Y-67006232D01*
X87476881Y-67071556D01*
X87354725Y-67144664D01*
X87354721Y-67144667D01*
X87351043Y-67146868D01*
X87137318Y-67318094D01*
X87075963Y-67382749D01*
X86974254Y-67489928D01*
X86948808Y-67516742D01*
X86789002Y-67739136D01*
X86660857Y-67981161D01*
X86659385Y-67985184D01*
X86659383Y-67985188D01*
X86593259Y-68165879D01*
X86566743Y-68238337D01*
X86508404Y-68505907D01*
X86486917Y-68778918D01*
X81511756Y-68778918D01*
X81494859Y-68531055D01*
X81494858Y-68531049D01*
X81494567Y-68526778D01*
X81439032Y-68258612D01*
X81347617Y-68000465D01*
X81222013Y-67757112D01*
X81212040Y-67742921D01*
X81094752Y-67576037D01*
X81064545Y-67533057D01*
X80994466Y-67457643D01*
X80881046Y-67335588D01*
X80881043Y-67335585D01*
X80878125Y-67332445D01*
X80874810Y-67329731D01*
X80874806Y-67329728D01*
X80669523Y-67161706D01*
X80666205Y-67158990D01*
X80432704Y-67015901D01*
X80428768Y-67014173D01*
X80185873Y-66907549D01*
X80185869Y-66907548D01*
X80181945Y-66905825D01*
X79918566Y-66830800D01*
X79914324Y-66830196D01*
X79914318Y-66830195D01*
X79713834Y-66801662D01*
X79647443Y-66792213D01*
X79503589Y-66791460D01*
X79377877Y-66790802D01*
X79377871Y-66790802D01*
X79373591Y-66790780D01*
X79369347Y-66791339D01*
X79369343Y-66791339D01*
X79250302Y-66807011D01*
X79102078Y-66826525D01*
X79097938Y-66827658D01*
X79097936Y-66827658D01*
X79025008Y-66847609D01*
X78837928Y-66898788D01*
X78833980Y-66900472D01*
X78589982Y-67004546D01*
X78589978Y-67004548D01*
X78586030Y-67006232D01*
X78476881Y-67071556D01*
X78354725Y-67144664D01*
X78354721Y-67144667D01*
X78351043Y-67146868D01*
X78137318Y-67318094D01*
X78075963Y-67382749D01*
X77974254Y-67489928D01*
X77948808Y-67516742D01*
X77789002Y-67739136D01*
X77660857Y-67981161D01*
X77659385Y-67985184D01*
X77659383Y-67985188D01*
X77593259Y-68165879D01*
X77566743Y-68238337D01*
X77508404Y-68505907D01*
X77486917Y-68778918D01*
X72608500Y-68778918D01*
X72608500Y-63469721D01*
X86491024Y-63469721D01*
X86499000Y-63497628D01*
X86502606Y-63514594D01*
X86506674Y-63543344D01*
X86510376Y-63551523D01*
X86517487Y-63567234D01*
X86523847Y-63584565D01*
X86531051Y-63609771D01*
X86546540Y-63634319D01*
X86554763Y-63649591D01*
X86566735Y-63676042D01*
X86583822Y-63695941D01*
X86594786Y-63710785D01*
X86603984Y-63725364D01*
X86603987Y-63725367D01*
X86608776Y-63732958D01*
X86615503Y-63738899D01*
X86615504Y-63738900D01*
X86630531Y-63752171D01*
X86642718Y-63764529D01*
X86661626Y-63786549D01*
X86669147Y-63791443D01*
X86669149Y-63791444D01*
X86683611Y-63800853D01*
X86698295Y-63812019D01*
X86717951Y-63829378D01*
X86726078Y-63833193D01*
X86726080Y-63833195D01*
X86744220Y-63841711D01*
X86759377Y-63850147D01*
X86783718Y-63865983D01*
X86808834Y-63873540D01*
X86826070Y-63880140D01*
X86841674Y-63887467D01*
X86841682Y-63887469D01*
X86849800Y-63891281D01*
X86878482Y-63895747D01*
X86895403Y-63899591D01*
X86914607Y-63905370D01*
X86914608Y-63905370D01*
X86923198Y-63907955D01*
X86954011Y-63908196D01*
X86957769Y-63908225D01*
X86958942Y-63908275D01*
X86960386Y-63908500D01*
X86992418Y-63908500D01*
X86993403Y-63908504D01*
X87063968Y-63909056D01*
X87063970Y-63909056D01*
X87068851Y-63909094D01*
X87070543Y-63908613D01*
X87072229Y-63908500D01*
X95365500Y-63908500D01*
X95433621Y-63928502D01*
X95480114Y-63982158D01*
X95491500Y-64034500D01*
X95491500Y-69991377D01*
X95491498Y-69992147D01*
X95491024Y-70069721D01*
X95493491Y-70078352D01*
X95499150Y-70098153D01*
X95502728Y-70114915D01*
X95506920Y-70144187D01*
X95510634Y-70152355D01*
X95510634Y-70152356D01*
X95517548Y-70167562D01*
X95523996Y-70185086D01*
X95531051Y-70209771D01*
X95535843Y-70217365D01*
X95535844Y-70217368D01*
X95546830Y-70234780D01*
X95554969Y-70249863D01*
X95567208Y-70276782D01*
X95583849Y-70296094D01*
X95583970Y-70296235D01*
X95595073Y-70311239D01*
X95608776Y-70332958D01*
X95615501Y-70338897D01*
X95615504Y-70338901D01*
X95630938Y-70352532D01*
X95642982Y-70364724D01*
X95656427Y-70380327D01*
X95656430Y-70380329D01*
X95662287Y-70387127D01*
X95669816Y-70392007D01*
X95669817Y-70392008D01*
X95683835Y-70401094D01*
X95698709Y-70412385D01*
X95711217Y-70423431D01*
X95717951Y-70429378D01*
X95744419Y-70441805D01*
X95744711Y-70441942D01*
X95759691Y-70450263D01*
X95776983Y-70461471D01*
X95776988Y-70461473D01*
X95784515Y-70466352D01*
X95793108Y-70468922D01*
X95793113Y-70468924D01*
X95809120Y-70473711D01*
X95826564Y-70480372D01*
X95841676Y-70487467D01*
X95841678Y-70487468D01*
X95849800Y-70491281D01*
X95858667Y-70492662D01*
X95858668Y-70492662D01*
X95868310Y-70494163D01*
X95879017Y-70495830D01*
X95895732Y-70499613D01*
X95915466Y-70505515D01*
X95915472Y-70505516D01*
X95924066Y-70508086D01*
X95933037Y-70508141D01*
X95933038Y-70508141D01*
X95943097Y-70508202D01*
X95958506Y-70508296D01*
X95959289Y-70508329D01*
X95960386Y-70508500D01*
X95991377Y-70508500D01*
X95992147Y-70508502D01*
X96065785Y-70508952D01*
X96065786Y-70508952D01*
X96069721Y-70508976D01*
X96071065Y-70508592D01*
X96072410Y-70508500D01*
X117941720Y-70508500D01*
X117962386Y-70510206D01*
X117982793Y-70513599D01*
X117988893Y-70513662D01*
X117990476Y-70513678D01*
X117990477Y-70513678D01*
X117995346Y-70513728D01*
X118000166Y-70513028D01*
X118000169Y-70513028D01*
X118001818Y-70512789D01*
X118012313Y-70511712D01*
X118212417Y-70499613D01*
X118289886Y-70494929D01*
X118580338Y-70442874D01*
X118862732Y-70357284D01*
X119133211Y-70239330D01*
X119388079Y-70090621D01*
X119623855Y-69913190D01*
X119706943Y-69833891D01*
X119834647Y-69712011D01*
X119834654Y-69712004D01*
X119837318Y-69709461D01*
X120025552Y-69482216D01*
X120027558Y-69479120D01*
X120183979Y-69237660D01*
X120183983Y-69237653D01*
X120185986Y-69234561D01*
X120214216Y-69177279D01*
X120314800Y-68973180D01*
X120314802Y-68973176D01*
X120316427Y-68969878D01*
X120384178Y-68778918D01*
X133486917Y-68778918D01*
X133502682Y-69052320D01*
X133503507Y-69056525D01*
X133503508Y-69056533D01*
X133524698Y-69164539D01*
X133555405Y-69321053D01*
X133556792Y-69325103D01*
X133556793Y-69325108D01*
X133626411Y-69528444D01*
X133644112Y-69580144D01*
X133767160Y-69824799D01*
X133769586Y-69828328D01*
X133769589Y-69828334D01*
X133902098Y-70021134D01*
X133922274Y-70050490D01*
X133925161Y-70053663D01*
X133925162Y-70053664D01*
X134029904Y-70168774D01*
X134106582Y-70253043D01*
X134109877Y-70255798D01*
X134109878Y-70255799D01*
X134125199Y-70268609D01*
X134316675Y-70428707D01*
X134320316Y-70430991D01*
X134545024Y-70571951D01*
X134545028Y-70571953D01*
X134548664Y-70574234D01*
X134616544Y-70604883D01*
X134794345Y-70685164D01*
X134794349Y-70685166D01*
X134798257Y-70686930D01*
X134802377Y-70688150D01*
X134802376Y-70688150D01*
X135056723Y-70763491D01*
X135056727Y-70763492D01*
X135060836Y-70764709D01*
X135065070Y-70765357D01*
X135065075Y-70765358D01*
X135327298Y-70805483D01*
X135327300Y-70805483D01*
X135331540Y-70806132D01*
X135470912Y-70808322D01*
X135601071Y-70810367D01*
X135601077Y-70810367D01*
X135605362Y-70810434D01*
X135877235Y-70777534D01*
X136142127Y-70708041D01*
X136146087Y-70706401D01*
X136146092Y-70706399D01*
X136268632Y-70655641D01*
X136395136Y-70603241D01*
X136572474Y-70499613D01*
X136627879Y-70467237D01*
X136627880Y-70467236D01*
X136631582Y-70465073D01*
X136847089Y-70296094D01*
X136888809Y-70253043D01*
X136994297Y-70144187D01*
X137037669Y-70099431D01*
X137040202Y-70095983D01*
X137040206Y-70095978D01*
X137183217Y-69901291D01*
X137184165Y-69900000D01*
X141086496Y-69900000D01*
X141087186Y-69906565D01*
X141102647Y-70053664D01*
X141106458Y-70089928D01*
X141165473Y-70271556D01*
X141168776Y-70277278D01*
X141168777Y-70277279D01*
X141183815Y-70303326D01*
X141260960Y-70436944D01*
X141265378Y-70441851D01*
X141265379Y-70441852D01*
X141332714Y-70516635D01*
X141388747Y-70578866D01*
X141487843Y-70650864D01*
X141537484Y-70686930D01*
X141543248Y-70691118D01*
X141549276Y-70693802D01*
X141549278Y-70693803D01*
X141711681Y-70766109D01*
X141717712Y-70768794D01*
X141811112Y-70788647D01*
X141898056Y-70807128D01*
X141898061Y-70807128D01*
X141904513Y-70808500D01*
X142095487Y-70808500D01*
X142101939Y-70807128D01*
X142101944Y-70807128D01*
X142188888Y-70788647D01*
X142282288Y-70768794D01*
X142288319Y-70766109D01*
X142450722Y-70693803D01*
X142450724Y-70693802D01*
X142456752Y-70691118D01*
X142462517Y-70686930D01*
X142512157Y-70650864D01*
X142611253Y-70578866D01*
X142667286Y-70516635D01*
X142734621Y-70441852D01*
X142734622Y-70441851D01*
X142739040Y-70436944D01*
X142766343Y-70389654D01*
X143275618Y-70389654D01*
X143282673Y-70399627D01*
X143313679Y-70425551D01*
X143320598Y-70430579D01*
X143545272Y-70571515D01*
X143552807Y-70575556D01*
X143732284Y-70656593D01*
X143786138Y-70702856D01*
X143806432Y-70770890D01*
X143786722Y-70839096D01*
X143754495Y-70873365D01*
X143688747Y-70921134D01*
X143560960Y-71063056D01*
X143465473Y-71228444D01*
X143406458Y-71410072D01*
X143386496Y-71600000D01*
X143406458Y-71789928D01*
X143465473Y-71971556D01*
X143560960Y-72136944D01*
X143688747Y-72278866D01*
X143843248Y-72391118D01*
X143849276Y-72393802D01*
X143849278Y-72393803D01*
X144011681Y-72466109D01*
X144017712Y-72468794D01*
X144111113Y-72488647D01*
X144198056Y-72507128D01*
X144198061Y-72507128D01*
X144204513Y-72508500D01*
X144395487Y-72508500D01*
X144401939Y-72507128D01*
X144401944Y-72507128D01*
X144488887Y-72488647D01*
X144582288Y-72468794D01*
X144588319Y-72466109D01*
X144750722Y-72393803D01*
X144750724Y-72393802D01*
X144756752Y-72391118D01*
X144911253Y-72278866D01*
X145039040Y-72136944D01*
X145134527Y-71971556D01*
X145193542Y-71789928D01*
X145213504Y-71600000D01*
X145193542Y-71410072D01*
X145134527Y-71228444D01*
X145039040Y-71063056D01*
X144938179Y-70951038D01*
X144907461Y-70887031D01*
X144916226Y-70816577D01*
X144961689Y-70762046D01*
X144999842Y-70744852D01*
X145137820Y-70708654D01*
X145145926Y-70705926D01*
X145390949Y-70604434D01*
X145398617Y-70600628D01*
X145627598Y-70466822D01*
X145634679Y-70462009D01*
X145714655Y-70399301D01*
X145723125Y-70387442D01*
X145716608Y-70375818D01*
X144512812Y-69172022D01*
X144498868Y-69164408D01*
X144497035Y-69164539D01*
X144490420Y-69168790D01*
X143282910Y-70376300D01*
X143275618Y-70389654D01*
X142766343Y-70389654D01*
X142816185Y-70303326D01*
X142831223Y-70277279D01*
X142831224Y-70277278D01*
X142834527Y-70271556D01*
X142893542Y-70089928D01*
X142894232Y-70083365D01*
X142895606Y-70076900D01*
X142897701Y-70077345D01*
X142920906Y-70020950D01*
X142930106Y-70010684D01*
X144139658Y-68801132D01*
X144864408Y-68801132D01*
X144864539Y-68802965D01*
X144868790Y-68809580D01*
X146075730Y-70016520D01*
X146089674Y-70024134D01*
X146115177Y-70022310D01*
X146184552Y-70037401D01*
X146234754Y-70087603D01*
X146249846Y-70156977D01*
X146233286Y-70210989D01*
X146175401Y-70311249D01*
X146165473Y-70328444D01*
X146106458Y-70510072D01*
X146105768Y-70516633D01*
X146105768Y-70516635D01*
X146098819Y-70582749D01*
X146086496Y-70700000D01*
X146087186Y-70706565D01*
X146098749Y-70816577D01*
X146106458Y-70889928D01*
X146165473Y-71071556D01*
X146260960Y-71236944D01*
X146388747Y-71378866D01*
X146543248Y-71491118D01*
X146549276Y-71493802D01*
X146549278Y-71493803D01*
X146711681Y-71566109D01*
X146717712Y-71568794D01*
X146811112Y-71588647D01*
X146898056Y-71607128D01*
X146898061Y-71607128D01*
X146904513Y-71608500D01*
X147095487Y-71608500D01*
X147101939Y-71607128D01*
X147101944Y-71607128D01*
X147188888Y-71588647D01*
X147282288Y-71568794D01*
X147288319Y-71566109D01*
X147450722Y-71493803D01*
X147450724Y-71493802D01*
X147456752Y-71491118D01*
X147611253Y-71378866D01*
X147739040Y-71236944D01*
X147834527Y-71071556D01*
X147893542Y-70889928D01*
X147901252Y-70816577D01*
X147912814Y-70706565D01*
X147913504Y-70700000D01*
X147901181Y-70582749D01*
X147894232Y-70516635D01*
X147894232Y-70516633D01*
X147893542Y-70510072D01*
X147834527Y-70328444D01*
X147824600Y-70311249D01*
X147761027Y-70201138D01*
X147739040Y-70163056D01*
X147733567Y-70156977D01*
X147615675Y-70026045D01*
X147615674Y-70026044D01*
X147611253Y-70021134D01*
X147494677Y-69936436D01*
X147451323Y-69880213D01*
X147445248Y-69809477D01*
X147478380Y-69746686D01*
X147540200Y-69711774D01*
X147568738Y-69708500D01*
X147695487Y-69708500D01*
X147701939Y-69707128D01*
X147701944Y-69707128D01*
X147788887Y-69688647D01*
X147882288Y-69668794D01*
X147888319Y-69666109D01*
X148050722Y-69593803D01*
X148050724Y-69593802D01*
X148056752Y-69591118D01*
X148066584Y-69583975D01*
X148150892Y-69522721D01*
X148211253Y-69478866D01*
X148262776Y-69421644D01*
X148334621Y-69341852D01*
X148334622Y-69341851D01*
X148339040Y-69336944D01*
X148434527Y-69171556D01*
X148493542Y-68989928D01*
X148495650Y-68969878D01*
X148512814Y-68806565D01*
X148513504Y-68800000D01*
X148510839Y-68774648D01*
X148494232Y-68616635D01*
X148494232Y-68616633D01*
X148493542Y-68610072D01*
X148434527Y-68428444D01*
X148339040Y-68263056D01*
X148331525Y-68254709D01*
X148215675Y-68126045D01*
X148215674Y-68126044D01*
X148211253Y-68121134D01*
X148056752Y-68008882D01*
X148050724Y-68006198D01*
X148050722Y-68006197D01*
X147888319Y-67933891D01*
X147888318Y-67933891D01*
X147882288Y-67931206D01*
X147788888Y-67911353D01*
X147701944Y-67892872D01*
X147701939Y-67892872D01*
X147695487Y-67891500D01*
X147504513Y-67891500D01*
X147498061Y-67892872D01*
X147498056Y-67892872D01*
X147411112Y-67911353D01*
X147317712Y-67931206D01*
X147311682Y-67933891D01*
X147311681Y-67933891D01*
X147149278Y-68006197D01*
X147149276Y-68006198D01*
X147143248Y-68008882D01*
X146988747Y-68121134D01*
X146984326Y-68126044D01*
X146984325Y-68126045D01*
X146868476Y-68254709D01*
X146860960Y-68263056D01*
X146765473Y-68428444D01*
X146738893Y-68510250D01*
X146734119Y-68524942D01*
X146694046Y-68583548D01*
X146628649Y-68611185D01*
X146558692Y-68599078D01*
X146506386Y-68551072D01*
X146490904Y-68511557D01*
X146439419Y-68262944D01*
X146437120Y-68254709D01*
X146348588Y-68004705D01*
X146345191Y-67996854D01*
X146223550Y-67761178D01*
X146219122Y-67753866D01*
X146100031Y-67584417D01*
X146089509Y-67576037D01*
X146076121Y-67583089D01*
X144872022Y-68787188D01*
X144864408Y-68801132D01*
X144139658Y-68801132D01*
X145716604Y-67224186D01*
X145723795Y-67211017D01*
X145716473Y-67200780D01*
X145669233Y-67162115D01*
X145662261Y-67157160D01*
X145436122Y-67018582D01*
X145428552Y-67014624D01*
X145185704Y-66908022D01*
X145177644Y-66905120D01*
X144922592Y-66832467D01*
X144914214Y-66830685D01*
X144651656Y-66793318D01*
X144643111Y-66792691D01*
X144377908Y-66791302D01*
X144369374Y-66791839D01*
X144106433Y-66826456D01*
X144098035Y-66828149D01*
X143842238Y-66898127D01*
X143834143Y-66900946D01*
X143590199Y-67004997D01*
X143582577Y-67008881D01*
X143355014Y-67145075D01*
X143347984Y-67149961D01*
X143204921Y-67264576D01*
X143139251Y-67291558D01*
X143069419Y-67278753D01*
X143017595Y-67230226D01*
X143000830Y-67179413D01*
X142994232Y-67116634D01*
X142994231Y-67116631D01*
X142993542Y-67110072D01*
X142934527Y-66928444D01*
X142920790Y-66904650D01*
X142917023Y-66898127D01*
X142916662Y-66897501D01*
X142899923Y-66828506D01*
X142923143Y-66761414D01*
X142978949Y-66717526D01*
X143025780Y-66708500D01*
X143095487Y-66708500D01*
X143101939Y-66707128D01*
X143101944Y-66707128D01*
X143135478Y-66700000D01*
X146086496Y-66700000D01*
X146087186Y-66706565D01*
X146096186Y-66792191D01*
X146106458Y-66889928D01*
X146165473Y-67071556D01*
X146260960Y-67236944D01*
X146265378Y-67241851D01*
X146265379Y-67241852D01*
X146311825Y-67293435D01*
X146388747Y-67378866D01*
X146543248Y-67491118D01*
X146549276Y-67493802D01*
X146549278Y-67493803D01*
X146630390Y-67529916D01*
X146717712Y-67568794D01*
X146811112Y-67588647D01*
X146898056Y-67607128D01*
X146898061Y-67607128D01*
X146904513Y-67608500D01*
X147095487Y-67608500D01*
X147101939Y-67607128D01*
X147101944Y-67607128D01*
X147188888Y-67588647D01*
X147282288Y-67568794D01*
X147369610Y-67529916D01*
X147450722Y-67493803D01*
X147450724Y-67493802D01*
X147456752Y-67491118D01*
X147611253Y-67378866D01*
X147688175Y-67293435D01*
X147734621Y-67241852D01*
X147734622Y-67241851D01*
X147739040Y-67236944D01*
X147834527Y-67071556D01*
X147893542Y-66889928D01*
X147903815Y-66792191D01*
X147912814Y-66706565D01*
X147913504Y-66700000D01*
X147893542Y-66510072D01*
X147834527Y-66328444D01*
X147739040Y-66163056D01*
X147611253Y-66021134D01*
X147456752Y-65908882D01*
X147450724Y-65906198D01*
X147450722Y-65906197D01*
X147288319Y-65833891D01*
X147288318Y-65833891D01*
X147282288Y-65831206D01*
X147166362Y-65806565D01*
X147101944Y-65792872D01*
X147101939Y-65792872D01*
X147095487Y-65791500D01*
X146904513Y-65791500D01*
X146898061Y-65792872D01*
X146898056Y-65792872D01*
X146833638Y-65806565D01*
X146717712Y-65831206D01*
X146711682Y-65833891D01*
X146711681Y-65833891D01*
X146549278Y-65906197D01*
X146549276Y-65906198D01*
X146543248Y-65908882D01*
X146388747Y-66021134D01*
X146260960Y-66163056D01*
X146165473Y-66328444D01*
X146106458Y-66510072D01*
X146086496Y-66700000D01*
X143135478Y-66700000D01*
X143188888Y-66688647D01*
X143282288Y-66668794D01*
X143288319Y-66666109D01*
X143450722Y-66593803D01*
X143450724Y-66593802D01*
X143456752Y-66591118D01*
X143611253Y-66478866D01*
X143620322Y-66468794D01*
X143734621Y-66341852D01*
X143734622Y-66341851D01*
X143739040Y-66336944D01*
X143834527Y-66171556D01*
X143893542Y-65989928D01*
X143894872Y-65977279D01*
X143899502Y-65933221D01*
X143926515Y-65867564D01*
X143984737Y-65826934D01*
X144055682Y-65824231D01*
X144116826Y-65860313D01*
X144144645Y-65907453D01*
X144165473Y-65971556D01*
X144260960Y-66136944D01*
X144265378Y-66141851D01*
X144265379Y-66141852D01*
X144319986Y-66202499D01*
X144388747Y-66278866D01*
X144487843Y-66350864D01*
X144531351Y-66382474D01*
X144543248Y-66391118D01*
X144549276Y-66393802D01*
X144549278Y-66393803D01*
X144639318Y-66433891D01*
X144717712Y-66468794D01*
X144783365Y-66482749D01*
X144898056Y-66507128D01*
X144898061Y-66507128D01*
X144904513Y-66508500D01*
X145095487Y-66508500D01*
X145101939Y-66507128D01*
X145101944Y-66507128D01*
X145216635Y-66482749D01*
X145282288Y-66468794D01*
X145360682Y-66433891D01*
X145450722Y-66393803D01*
X145450724Y-66393802D01*
X145456752Y-66391118D01*
X145468650Y-66382474D01*
X145512157Y-66350864D01*
X145611253Y-66278866D01*
X145680014Y-66202499D01*
X145734621Y-66141852D01*
X145734622Y-66141851D01*
X145739040Y-66136944D01*
X145834527Y-65971556D01*
X145893542Y-65789928D01*
X145913504Y-65600000D01*
X145895473Y-65428444D01*
X145894232Y-65416635D01*
X145894232Y-65416633D01*
X145893542Y-65410072D01*
X145834527Y-65228444D01*
X145739040Y-65063056D01*
X145622740Y-64933891D01*
X145615675Y-64926045D01*
X145615674Y-64926044D01*
X145611253Y-64921134D01*
X145456752Y-64808882D01*
X145450724Y-64806198D01*
X145450722Y-64806197D01*
X145288319Y-64733891D01*
X145288318Y-64733891D01*
X145282288Y-64731206D01*
X145188888Y-64711353D01*
X145101944Y-64692872D01*
X145101939Y-64692872D01*
X145095487Y-64691500D01*
X144904513Y-64691500D01*
X144898061Y-64692872D01*
X144898056Y-64692872D01*
X144811112Y-64711353D01*
X144717712Y-64731206D01*
X144711682Y-64733891D01*
X144711681Y-64733891D01*
X144549278Y-64806197D01*
X144549276Y-64806198D01*
X144543248Y-64808882D01*
X144388747Y-64921134D01*
X144384326Y-64926044D01*
X144384325Y-64926045D01*
X144377261Y-64933891D01*
X144260960Y-65063056D01*
X144165473Y-65228444D01*
X144106458Y-65410072D01*
X144105768Y-65416633D01*
X144105768Y-65416635D01*
X144100498Y-65466779D01*
X144073485Y-65532436D01*
X144015263Y-65573066D01*
X143944318Y-65575769D01*
X143883174Y-65539687D01*
X143855355Y-65492546D01*
X143836568Y-65434726D01*
X143834527Y-65428444D01*
X143739040Y-65263056D01*
X143611253Y-65121134D01*
X143456752Y-65008882D01*
X143450724Y-65006198D01*
X143450722Y-65006197D01*
X143288319Y-64933891D01*
X143288318Y-64933891D01*
X143282288Y-64931206D01*
X143188888Y-64911353D01*
X143101944Y-64892872D01*
X143101939Y-64892872D01*
X143095487Y-64891500D01*
X142904513Y-64891500D01*
X142898061Y-64892872D01*
X142898056Y-64892872D01*
X142811112Y-64911353D01*
X142717712Y-64931206D01*
X142711682Y-64933891D01*
X142711681Y-64933891D01*
X142549278Y-65006197D01*
X142549276Y-65006198D01*
X142543248Y-65008882D01*
X142388747Y-65121134D01*
X142260960Y-65263056D01*
X142165473Y-65428444D01*
X142106458Y-65610072D01*
X142086496Y-65800000D01*
X142087186Y-65806565D01*
X142105129Y-65977279D01*
X142106458Y-65989928D01*
X142165473Y-66171556D01*
X142168777Y-66177278D01*
X142168778Y-66177281D01*
X142183338Y-66202499D01*
X142200077Y-66271494D01*
X142176857Y-66338586D01*
X142121051Y-66382474D01*
X142074220Y-66391500D01*
X142004513Y-66391500D01*
X141998061Y-66392872D01*
X141998056Y-66392872D01*
X141911113Y-66411353D01*
X141817712Y-66431206D01*
X141811682Y-66433891D01*
X141811681Y-66433891D01*
X141649278Y-66506197D01*
X141649276Y-66506198D01*
X141643248Y-66508882D01*
X141488747Y-66621134D01*
X141360960Y-66763056D01*
X141302686Y-66863990D01*
X141279211Y-66904650D01*
X141265473Y-66928444D01*
X141206458Y-67110072D01*
X141205768Y-67116633D01*
X141205768Y-67116635D01*
X141190219Y-67264576D01*
X141186496Y-67300000D01*
X141187186Y-67306565D01*
X141189621Y-67329728D01*
X141206458Y-67489928D01*
X141265473Y-67671556D01*
X141360960Y-67836944D01*
X141488747Y-67978866D01*
X141643248Y-68091118D01*
X141649276Y-68093802D01*
X141649278Y-68093803D01*
X141811681Y-68166109D01*
X141817712Y-68168794D01*
X141911113Y-68188647D01*
X141998056Y-68207128D01*
X141998061Y-68207128D01*
X142004513Y-68208500D01*
X142195487Y-68208500D01*
X142201939Y-68207128D01*
X142201944Y-68207128D01*
X142375833Y-68170166D01*
X142375832Y-68170166D01*
X142382288Y-68168794D01*
X142388320Y-68166108D01*
X142389026Y-68165879D01*
X142459993Y-68163850D01*
X142520792Y-68200511D01*
X142552119Y-68264222D01*
X142551073Y-68312553D01*
X142509812Y-68501794D01*
X142508563Y-68510250D01*
X142487754Y-68774653D01*
X142487665Y-68783204D01*
X142495847Y-68925105D01*
X142479800Y-68994264D01*
X142428909Y-69043768D01*
X142359334Y-69057901D01*
X142318808Y-69047465D01*
X142288323Y-69033892D01*
X142288315Y-69033889D01*
X142282288Y-69031206D01*
X142188888Y-69011353D01*
X142101944Y-68992872D01*
X142101939Y-68992872D01*
X142095487Y-68991500D01*
X141904513Y-68991500D01*
X141898061Y-68992872D01*
X141898056Y-68992872D01*
X141811112Y-69011353D01*
X141717712Y-69031206D01*
X141711682Y-69033891D01*
X141711681Y-69033891D01*
X141549278Y-69106197D01*
X141549276Y-69106198D01*
X141543248Y-69108882D01*
X141537907Y-69112762D01*
X141537906Y-69112763D01*
X141529161Y-69119117D01*
X141388747Y-69221134D01*
X141384326Y-69226044D01*
X141384325Y-69226045D01*
X141298780Y-69321053D01*
X141260960Y-69363056D01*
X141165473Y-69528444D01*
X141106458Y-69710072D01*
X141086496Y-69900000D01*
X137184165Y-69900000D01*
X137199795Y-69878723D01*
X137227154Y-69828334D01*
X137328418Y-69641830D01*
X137328419Y-69641828D01*
X137330468Y-69638054D01*
X137392575Y-69473692D01*
X137425751Y-69385895D01*
X137425752Y-69385891D01*
X137427269Y-69381877D01*
X137488407Y-69114933D01*
X137488796Y-69110581D01*
X137512531Y-68844627D01*
X137512531Y-68844625D01*
X137512751Y-68842161D01*
X137513193Y-68800000D01*
X137513024Y-68797519D01*
X137494859Y-68531055D01*
X137494858Y-68531049D01*
X137494567Y-68526778D01*
X137439032Y-68258612D01*
X137347617Y-68000465D01*
X137222013Y-67757112D01*
X137212040Y-67742921D01*
X137094752Y-67576037D01*
X137064545Y-67533057D01*
X136994466Y-67457643D01*
X136881046Y-67335588D01*
X136881043Y-67335585D01*
X136878125Y-67332445D01*
X136874810Y-67329731D01*
X136874806Y-67329728D01*
X136669523Y-67161706D01*
X136666205Y-67158990D01*
X136432704Y-67015901D01*
X136428768Y-67014173D01*
X136185873Y-66907549D01*
X136185869Y-66907548D01*
X136181945Y-66905825D01*
X135918566Y-66830800D01*
X135914324Y-66830196D01*
X135914318Y-66830195D01*
X135713834Y-66801662D01*
X135647443Y-66792213D01*
X135503589Y-66791460D01*
X135377877Y-66790802D01*
X135377871Y-66790802D01*
X135373591Y-66790780D01*
X135369347Y-66791339D01*
X135369343Y-66791339D01*
X135250302Y-66807011D01*
X135102078Y-66826525D01*
X135097938Y-66827658D01*
X135097936Y-66827658D01*
X135025008Y-66847609D01*
X134837928Y-66898788D01*
X134833980Y-66900472D01*
X134589982Y-67004546D01*
X134589978Y-67004548D01*
X134586030Y-67006232D01*
X134476881Y-67071556D01*
X134354725Y-67144664D01*
X134354721Y-67144667D01*
X134351043Y-67146868D01*
X134137318Y-67318094D01*
X134075963Y-67382749D01*
X133974254Y-67489928D01*
X133948808Y-67516742D01*
X133789002Y-67739136D01*
X133660857Y-67981161D01*
X133659385Y-67985184D01*
X133659383Y-67985188D01*
X133593259Y-68165879D01*
X133566743Y-68238337D01*
X133508404Y-68505907D01*
X133486917Y-68778918D01*
X120384178Y-68778918D01*
X120415093Y-68691782D01*
X120433455Y-68611185D01*
X120479820Y-68407663D01*
X120480638Y-68404074D01*
X120508590Y-68143953D01*
X120510777Y-68130503D01*
X120512361Y-68123260D01*
X120512727Y-68117251D01*
X120512828Y-68115584D01*
X120512828Y-68115582D01*
X120513123Y-68110730D01*
X120509052Y-68067396D01*
X120508500Y-68055612D01*
X120508500Y-52064976D01*
X120509994Y-52045630D01*
X120512947Y-52026628D01*
X120512947Y-52026622D01*
X120513693Y-52021824D01*
X120513689Y-52009271D01*
X120512939Y-52004461D01*
X120512873Y-52003616D01*
X120511873Y-51994829D01*
X120503365Y-51876692D01*
X120491143Y-51706980D01*
X120433721Y-51409385D01*
X120430095Y-51398037D01*
X120342596Y-51124247D01*
X120341458Y-51120686D01*
X120215651Y-50844947D01*
X120058072Y-50586048D01*
X119998614Y-50510296D01*
X119941597Y-50437655D01*
X119870939Y-50347635D01*
X119868304Y-50344993D01*
X119868299Y-50344988D01*
X119659522Y-50135705D01*
X119659519Y-50135702D01*
X119656886Y-50133063D01*
X119418926Y-49945354D01*
X119160409Y-49787149D01*
X118884975Y-49660676D01*
X118881419Y-49659530D01*
X118600064Y-49568862D01*
X118600056Y-49568860D01*
X118596500Y-49567714D01*
X118299045Y-49509573D01*
X118295312Y-49509295D01*
X118295304Y-49509294D01*
X118028357Y-49489421D01*
X118014962Y-49487698D01*
X118009357Y-49486669D01*
X118002554Y-49486484D01*
X118001673Y-49486460D01*
X118001671Y-49486460D01*
X117996809Y-49486328D01*
X117991988Y-49486945D01*
X117964359Y-49490481D01*
X117948364Y-49491500D01*
X89048774Y-49491500D01*
X89029622Y-49490036D01*
X89014419Y-49487698D01*
X89005316Y-49486298D01*
X89000459Y-49486307D01*
X89000455Y-49486307D01*
X88999029Y-49486310D01*
X88992763Y-49486322D01*
X88987960Y-49487079D01*
X88985143Y-49487302D01*
X88980165Y-49487878D01*
X88690349Y-49509436D01*
X88392813Y-49568068D01*
X88104466Y-49661988D01*
X88101025Y-49663588D01*
X87835259Y-49787149D01*
X87829475Y-49789838D01*
X87571819Y-49949770D01*
X87568859Y-49952143D01*
X87568858Y-49952144D01*
X87338176Y-50137102D01*
X87338169Y-50137108D01*
X87335221Y-50139472D01*
X87332572Y-50142178D01*
X87332566Y-50142184D01*
X87232218Y-50244714D01*
X87123103Y-50356201D01*
X87120801Y-50359202D01*
X87120795Y-50359209D01*
X86992312Y-50526711D01*
X86938532Y-50596823D01*
X86784176Y-50857858D01*
X86662267Y-51135534D01*
X86661171Y-51139163D01*
X86583147Y-51397440D01*
X86574569Y-51425834D01*
X86573917Y-51429566D01*
X86525422Y-51706980D01*
X86522348Y-51724562D01*
X86522148Y-51728346D01*
X86522148Y-51728348D01*
X86507979Y-51996734D01*
X86506571Y-52009964D01*
X86506565Y-52010039D01*
X86505792Y-52014850D01*
X86505732Y-52027403D01*
X86506457Y-52032213D01*
X86506458Y-52032223D01*
X86509456Y-52052102D01*
X86510865Y-52071102D01*
X86491518Y-63388886D01*
X86491024Y-63469721D01*
X72608500Y-63469721D01*
X72608500Y-45266381D01*
X82449160Y-45266381D01*
X82449237Y-45267470D01*
X82451698Y-45271206D01*
X82725632Y-45481404D01*
X82731262Y-45485259D01*
X83031591Y-45667862D01*
X83037593Y-45671080D01*
X83355897Y-45820184D01*
X83362202Y-45822732D01*
X83694743Y-45936587D01*
X83701313Y-45938446D01*
X84044183Y-46015714D01*
X84050912Y-46016853D01*
X84400143Y-46056643D01*
X84406933Y-46057046D01*
X84758419Y-46058886D01*
X84765220Y-46058554D01*
X85114853Y-46022423D01*
X85121581Y-46021357D01*
X85465274Y-45947676D01*
X85471822Y-45945897D01*
X85805549Y-45835527D01*
X85811891Y-45833041D01*
X86131718Y-45687288D01*
X86137777Y-45684121D01*
X86439995Y-45504676D01*
X86445659Y-45500884D01*
X86726732Y-45289849D01*
X86731958Y-45285464D01*
X86741613Y-45276428D01*
X86747540Y-45266381D01*
X137449160Y-45266381D01*
X137449237Y-45267470D01*
X137451698Y-45271206D01*
X137725632Y-45481404D01*
X137731262Y-45485259D01*
X138031591Y-45667862D01*
X138037593Y-45671080D01*
X138355897Y-45820184D01*
X138362202Y-45822732D01*
X138694743Y-45936587D01*
X138701313Y-45938446D01*
X139044183Y-46015714D01*
X139050912Y-46016853D01*
X139400143Y-46056643D01*
X139406933Y-46057046D01*
X139758419Y-46058886D01*
X139765220Y-46058554D01*
X140114853Y-46022423D01*
X140121581Y-46021357D01*
X140465274Y-45947676D01*
X140471822Y-45945897D01*
X140805549Y-45835527D01*
X140811891Y-45833041D01*
X141131718Y-45687288D01*
X141137777Y-45684121D01*
X141439995Y-45504676D01*
X141445659Y-45500884D01*
X141726732Y-45289849D01*
X141731958Y-45285464D01*
X141741613Y-45276428D01*
X141749682Y-45262750D01*
X141749654Y-45262024D01*
X141744512Y-45253723D01*
X139612810Y-43122020D01*
X139598869Y-43114408D01*
X139597034Y-43114539D01*
X139590420Y-43118790D01*
X137456774Y-45252437D01*
X137449160Y-45266381D01*
X86747540Y-45266381D01*
X86749682Y-45262750D01*
X86749654Y-45262024D01*
X86744512Y-45253723D01*
X84612810Y-43122020D01*
X84598869Y-43114408D01*
X84597034Y-43114539D01*
X84590420Y-43118790D01*
X82456774Y-45252437D01*
X82449160Y-45266381D01*
X72608500Y-45266381D01*
X72608500Y-42741832D01*
X81287333Y-42741832D01*
X81305117Y-43092893D01*
X81305827Y-43099649D01*
X81361420Y-43446723D01*
X81362859Y-43453378D01*
X81455608Y-43792410D01*
X81457757Y-43798871D01*
X81586581Y-44125912D01*
X81589412Y-44132095D01*
X81752803Y-44443310D01*
X81756286Y-44449152D01*
X81952330Y-44740896D01*
X81956433Y-44746340D01*
X82076425Y-44888836D01*
X82089164Y-44897279D01*
X82099608Y-44891181D01*
X84227980Y-42762810D01*
X84234357Y-42751131D01*
X84964408Y-42751131D01*
X84964539Y-42752966D01*
X84968790Y-42759580D01*
X87099009Y-44889798D01*
X87112605Y-44897223D01*
X87122218Y-44890522D01*
X87222518Y-44773912D01*
X87226676Y-44768514D01*
X87425762Y-44478840D01*
X87429310Y-44473029D01*
X87595942Y-44163559D01*
X87598849Y-44157381D01*
X87731090Y-43831713D01*
X87733304Y-43825283D01*
X87829598Y-43487237D01*
X87831105Y-43480607D01*
X87890332Y-43134118D01*
X87891112Y-43127378D01*
X87912668Y-42774925D01*
X87912784Y-42771323D01*
X87912853Y-42751819D01*
X87912761Y-42748194D01*
X87912416Y-42741832D01*
X136287333Y-42741832D01*
X136305117Y-43092893D01*
X136305827Y-43099649D01*
X136361420Y-43446723D01*
X136362859Y-43453378D01*
X136455608Y-43792410D01*
X136457757Y-43798871D01*
X136586581Y-44125912D01*
X136589412Y-44132095D01*
X136752803Y-44443310D01*
X136756286Y-44449152D01*
X136952330Y-44740896D01*
X136956433Y-44746340D01*
X137076425Y-44888836D01*
X137089164Y-44897279D01*
X137099608Y-44891181D01*
X139227980Y-42762810D01*
X139234357Y-42751131D01*
X139964408Y-42751131D01*
X139964539Y-42752966D01*
X139968790Y-42759580D01*
X142099009Y-44889798D01*
X142112605Y-44897223D01*
X142122218Y-44890522D01*
X142222518Y-44773912D01*
X142226676Y-44768514D01*
X142425762Y-44478840D01*
X142429310Y-44473029D01*
X142595942Y-44163559D01*
X142598849Y-44157381D01*
X142731090Y-43831713D01*
X142733304Y-43825283D01*
X142829598Y-43487237D01*
X142831105Y-43480607D01*
X142890332Y-43134118D01*
X142891112Y-43127378D01*
X142912668Y-42774925D01*
X142912784Y-42771323D01*
X142912853Y-42751819D01*
X142912761Y-42748194D01*
X142893666Y-42395615D01*
X142892931Y-42388849D01*
X142836130Y-42041985D01*
X142834663Y-42035313D01*
X142740736Y-41696627D01*
X142738562Y-41690163D01*
X142608598Y-41363578D01*
X142605742Y-41357398D01*
X142441269Y-41046763D01*
X142437769Y-41040937D01*
X142240697Y-40749862D01*
X142236590Y-40744453D01*
X142123565Y-40611179D01*
X142110740Y-40602743D01*
X142100416Y-40608795D01*
X139972020Y-42737190D01*
X139964408Y-42751131D01*
X139234357Y-42751131D01*
X139235592Y-42748869D01*
X139235461Y-42747034D01*
X139231210Y-42740420D01*
X137100992Y-40610203D01*
X137087455Y-40602811D01*
X137077753Y-40609599D01*
X136970430Y-40735257D01*
X136966296Y-40740664D01*
X136768215Y-41031041D01*
X136764697Y-41036851D01*
X136599134Y-41346922D01*
X136596259Y-41353087D01*
X136465155Y-41679218D01*
X136462962Y-41685658D01*
X136367846Y-42024044D01*
X136366363Y-42030679D01*
X136308350Y-42377354D01*
X136307591Y-42384126D01*
X136287357Y-42735037D01*
X136287333Y-42741832D01*
X87912416Y-42741832D01*
X87893666Y-42395615D01*
X87892931Y-42388849D01*
X87836130Y-42041985D01*
X87834663Y-42035313D01*
X87740736Y-41696627D01*
X87738562Y-41690163D01*
X87608598Y-41363578D01*
X87605742Y-41357398D01*
X87441269Y-41046763D01*
X87437769Y-41040937D01*
X87240697Y-40749862D01*
X87236590Y-40744453D01*
X87123565Y-40611179D01*
X87110740Y-40602743D01*
X87100416Y-40608795D01*
X84972020Y-42737190D01*
X84964408Y-42751131D01*
X84234357Y-42751131D01*
X84235592Y-42748869D01*
X84235461Y-42747034D01*
X84231210Y-42740420D01*
X82100992Y-40610203D01*
X82087455Y-40602811D01*
X82077753Y-40609599D01*
X81970430Y-40735257D01*
X81966296Y-40740664D01*
X81768215Y-41031041D01*
X81764697Y-41036851D01*
X81599134Y-41346922D01*
X81596259Y-41353087D01*
X81465155Y-41679218D01*
X81462962Y-41685658D01*
X81367846Y-42024044D01*
X81366363Y-42030679D01*
X81308350Y-42377354D01*
X81307591Y-42384126D01*
X81287357Y-42735037D01*
X81287333Y-42741832D01*
X72608500Y-42741832D01*
X72608500Y-39384500D01*
X72628502Y-39316379D01*
X72682158Y-39269886D01*
X72734500Y-39258500D01*
X83915758Y-39258500D01*
X83983879Y-39278502D01*
G37*
G04 #@! TD.AperFunction*
M02*
