G04 #@! TF.GenerationSoftware,KiCad,Pcbnew,7.0.1-0*
G04 #@! TF.CreationDate,2023-03-19T01:56:14-04:00*
G04 #@! TF.ProjectId,solar-cell-pcbs-usb,736f6c61-722d-4636-956c-6c2d70636273,3*
G04 #@! TF.SameCoordinates,Original*
G04 #@! TF.FileFunction,Legend,Top*
G04 #@! TF.FilePolarity,Positive*
%FSLAX46Y46*%
G04 Gerber Fmt 4.6, Leading zero omitted, Abs format (unit mm)*
G04 Created by KiCad (PCBNEW 7.0.1-0) date 2023-03-19 01:56:14*
%MOMM*%
%LPD*%
G01*
G04 APERTURE LIST*
%ADD10C,0.300000*%
%ADD11C,0.120000*%
%ADD12C,0.100000*%
%ADD13C,5.600000*%
%ADD14C,3.000000*%
%ADD15R,1.700000X2.500000*%
G04 APERTURE END LIST*
D10*
X105457142Y-115145000D02*
X107742857Y-115145000D01*
X106599999Y-116287857D02*
X106599999Y-114002142D01*
X143957142Y-73145000D02*
X146242857Y-73145000D01*
X87557142Y-108745000D02*
X89842857Y-108745000D01*
X105857142Y-79745000D02*
X108142857Y-79745000D01*
X106999999Y-80887857D02*
X106999999Y-78602142D01*
X77857142Y-108645000D02*
X80142857Y-108645000D01*
X78999999Y-109787857D02*
X78999999Y-107502142D01*
X87957142Y-73145000D02*
X90242857Y-73145000D01*
X133957142Y-73045000D02*
X136242857Y-73045000D01*
X135099999Y-74187857D02*
X135099999Y-71902142D01*
X133957142Y-108645000D02*
X136242857Y-108645000D01*
X135099999Y-109787857D02*
X135099999Y-107502142D01*
X114957142Y-115045000D02*
X117242857Y-115045000D01*
X143937142Y-108855000D02*
X146222857Y-108855000D01*
X115437142Y-79855000D02*
X117722857Y-79855000D01*
X79445000Y-73842857D02*
X79445000Y-71557143D01*
X80587857Y-72700000D02*
X78302142Y-72700000D01*
X95000000Y-100000000D02*
X95000000Y-135000000D01*
X95000000Y-135000000D02*
X73000000Y-135000000D01*
X73000000Y-135000000D02*
X73000000Y-100000000D01*
X73000000Y-100000000D02*
X95000000Y-100000000D01*
X129000000Y-135000000D02*
X129000000Y-100000000D01*
X151000000Y-100000000D02*
X151000000Y-135000000D01*
X151000000Y-135000000D02*
X129000000Y-135000000D01*
X129000000Y-100000000D02*
X151000000Y-100000000D01*
D11*
X96350000Y-115375000D02*
X96350000Y-110625000D01*
X99250000Y-115375000D02*
X99250000Y-110625000D01*
X99250000Y-115375000D02*
X96350000Y-115375000D01*
X99250000Y-110625000D02*
X96350000Y-110625000D01*
X96987200Y-113431800D02*
X98536600Y-113431800D01*
D12*
X97774600Y-113304800D02*
X97165000Y-112492000D01*
X98511200Y-112492000D01*
X97774600Y-113304800D01*
G36*
X97774600Y-113304800D02*
G01*
X97165000Y-112492000D01*
X98511200Y-112492000D01*
X97774600Y-113304800D01*
G37*
D10*
X100500000Y-106000000D02*
X100500000Y-71000000D01*
X100500000Y-71000000D02*
X122500000Y-71000000D01*
X122500000Y-106000000D02*
X100500000Y-106000000D01*
X122500000Y-71000000D02*
X122500000Y-106000000D01*
X122500000Y-141500000D02*
X100500000Y-141500000D01*
X122500000Y-106500000D02*
X122500000Y-141500000D01*
X100500000Y-106500000D02*
X122500000Y-106500000D01*
X100500000Y-141500000D02*
X100500000Y-106500000D01*
D11*
X96987200Y-122431800D02*
X98536600Y-122431800D01*
X99250000Y-124375000D02*
X99250000Y-119625000D01*
X96350000Y-124375000D02*
X96350000Y-119625000D01*
X99250000Y-124375000D02*
X96350000Y-124375000D01*
X99250000Y-119625000D02*
X96350000Y-119625000D01*
D12*
X97774600Y-122304800D02*
X97165000Y-121492000D01*
X98511200Y-121492000D01*
X97774600Y-122304800D01*
G36*
X97774600Y-122304800D02*
G01*
X97165000Y-121492000D01*
X98511200Y-121492000D01*
X97774600Y-122304800D01*
G37*
D10*
X95000000Y-64300000D02*
X95000000Y-99300000D01*
X73000000Y-99300000D02*
X73000000Y-64300000D01*
X95000000Y-99300000D02*
X73000000Y-99300000D01*
X73000000Y-64300000D02*
X95000000Y-64300000D01*
X129000000Y-99300000D02*
X129000000Y-64300000D01*
X129000000Y-64300000D02*
X151000000Y-64300000D01*
X151000000Y-64300000D02*
X151000000Y-99300000D01*
X151000000Y-99300000D02*
X129000000Y-99300000D01*
%LPC*%
D13*
X84600000Y-42750000D03*
D14*
X79500000Y-104500000D03*
X88500000Y-104500000D03*
X144500000Y-104500000D03*
X135500000Y-104500000D03*
D15*
X97800000Y-115000000D03*
X97800000Y-111000000D03*
D13*
X139600000Y-138250000D03*
D14*
X107000000Y-75500000D03*
X116000000Y-75500000D03*
X107000000Y-111000000D03*
X116000000Y-111000000D03*
D15*
X97800000Y-124000000D03*
X97800000Y-120000000D03*
D13*
X84600000Y-138250000D03*
D14*
X79500000Y-68800000D03*
X88500000Y-68800000D03*
D13*
X139600000Y-42750000D03*
D14*
X135500000Y-68800000D03*
X144500000Y-68800000D03*
M02*
