G04 #@! TF.GenerationSoftware,KiCad,Pcbnew,(6.0.5-0)*
G04 #@! TF.CreationDate,2023-03-07T01:16:04-05:00*
G04 #@! TF.ProjectId,solar-cell-pcbs-usb,736f6c61-722d-4636-956c-6c2d70636273,3*
G04 #@! TF.SameCoordinates,Original*
G04 #@! TF.FileFunction,Legend,Bot*
G04 #@! TF.FilePolarity,Positive*
%FSLAX46Y46*%
G04 Gerber Fmt 4.6, Leading zero omitted, Abs format (unit mm)*
G04 Created by KiCad (PCBNEW (6.0.5-0)) date 2023-03-07 01:16:04*
%MOMM*%
%LPD*%
G01*
G04 APERTURE LIST*
%ADD10C,0.300000*%
%ADD11C,0.150000*%
%ADD12C,0.120000*%
%ADD13C,5.600000*%
%ADD14C,3.000000*%
%ADD15R,1.100000X1.450000*%
%ADD16R,1.350000X2.899999*%
G04 APERTURE END LIST*
D10*
X146242857Y-108814285D02*
X143957142Y-108814285D01*
D11*
X91000952Y-125791428D02*
X90239047Y-125791428D01*
D10*
X108142857Y-79814285D02*
X105857142Y-79814285D01*
X107000000Y-80957142D02*
X107000000Y-78671428D01*
X117642857Y-79814285D02*
X115357142Y-79814285D01*
X80242857Y-108614285D02*
X77957142Y-108614285D01*
X79100000Y-109757142D02*
X79100000Y-107471428D01*
X107742857Y-115114285D02*
X105457142Y-115114285D01*
X106600000Y-116257142D02*
X106600000Y-113971428D01*
X136242857Y-108614285D02*
X133957142Y-108614285D01*
X135100000Y-109757142D02*
X135100000Y-107471428D01*
D11*
X92700952Y-125771428D02*
X91939047Y-125771428D01*
X92320000Y-126152380D02*
X92320000Y-125390476D01*
D10*
X80542857Y-72814285D02*
X78257142Y-72814285D01*
X79400000Y-73957142D02*
X79400000Y-71671428D01*
X87557142Y-108685714D02*
X89842857Y-108685714D01*
X136242857Y-73014285D02*
X133957142Y-73014285D01*
X135100000Y-74157142D02*
X135100000Y-71871428D01*
X117242857Y-115014285D02*
X114957142Y-115014285D01*
X79084285Y-107507142D02*
X79084285Y-109792857D01*
X80227142Y-108650000D02*
X77941428Y-108650000D01*
X135094285Y-109752857D02*
X135094285Y-107467142D01*
X136237142Y-108610000D02*
X133951428Y-108610000D01*
X107014285Y-80842857D02*
X107014285Y-78557142D01*
X108157142Y-79700000D02*
X105871428Y-79700000D01*
X106654285Y-116242857D02*
X106654285Y-113957142D01*
X107797142Y-115100000D02*
X105511428Y-115100000D01*
X90242857Y-73124285D02*
X87957142Y-73124285D01*
X146222857Y-73124285D02*
X143937142Y-73124285D01*
X135134285Y-74052857D02*
X135134285Y-71767142D01*
X136277142Y-72910000D02*
X133991428Y-72910000D01*
D12*
X86976008Y-120420000D02*
X85452008Y-119785000D01*
X95979991Y-116215040D02*
X95979991Y-120845000D01*
X95979991Y-120845000D02*
X93475041Y-120845000D01*
X87230008Y-120845000D02*
X87230008Y-116215040D01*
X85452008Y-119785000D02*
X85452008Y-121055000D01*
X91734961Y-120845000D02*
X91475040Y-120845000D01*
X85452008Y-121055000D02*
X86976008Y-120420000D01*
X89734960Y-120845000D02*
X87230008Y-120845000D01*
X88689018Y-112895000D02*
X94520981Y-112895000D01*
%LPC*%
D13*
X84600000Y-42750000D03*
D14*
X79500000Y-104500000D03*
X88500000Y-104500000D03*
X135500000Y-104500000D03*
X144500000Y-104500000D03*
D13*
X139600000Y-138250000D03*
D14*
X107000000Y-75500000D03*
X116000000Y-75500000D03*
X107000000Y-111000000D03*
X116000000Y-111000000D03*
D13*
X84600000Y-138250000D03*
D14*
X79500000Y-68800000D03*
X88500000Y-68800000D03*
D13*
X139600000Y-42750000D03*
D14*
X135500000Y-68800000D03*
X144500000Y-68800000D03*
D15*
X90605000Y-120420000D03*
X92605001Y-120420000D03*
D16*
X87710002Y-114445001D03*
X95499997Y-114445001D03*
M02*
