G04 #@! TF.GenerationSoftware,KiCad,Pcbnew,7.0.1-0*
G04 #@! TF.CreationDate,2023-03-19T01:56:14-04:00*
G04 #@! TF.ProjectId,solar-cell-pcbs-usb,736f6c61-722d-4636-956c-6c2d70636273,3*
G04 #@! TF.SameCoordinates,Original*
G04 #@! TF.FileFunction,Copper,L2,Bot*
G04 #@! TF.FilePolarity,Positive*
%FSLAX46Y46*%
G04 Gerber Fmt 4.6, Leading zero omitted, Abs format (unit mm)*
G04 Created by KiCad (PCBNEW 7.0.1-0) date 2023-03-19 01:56:14*
%MOMM*%
%LPD*%
G01*
G04 APERTURE LIST*
G04 #@! TA.AperFunction,ComponentPad*
%ADD10C,5.600000*%
G04 #@! TD*
G04 #@! TA.AperFunction,ComponentPad*
%ADD11C,3.000000*%
G04 #@! TD*
G04 #@! TA.AperFunction,SMDPad,CuDef*
%ADD12R,1.100000X1.450000*%
G04 #@! TD*
G04 #@! TA.AperFunction,SMDPad,CuDef*
%ADD13R,1.350000X2.899999*%
G04 #@! TD*
G04 #@! TA.AperFunction,ViaPad*
%ADD14C,0.800000*%
G04 #@! TD*
G04 #@! TA.AperFunction,Conductor*
%ADD15C,0.500000*%
G04 #@! TD*
G04 APERTURE END LIST*
D10*
X84600000Y-42750000D03*
D11*
X79500000Y-104500000D03*
X88500000Y-104500000D03*
X144500000Y-104500000D03*
X135500000Y-104500000D03*
D10*
X139600000Y-138250000D03*
D11*
X107000000Y-75500000D03*
X116000000Y-75500000D03*
X107000000Y-111000000D03*
X116000000Y-111000000D03*
D10*
X84600000Y-138250000D03*
D11*
X79500000Y-68800000D03*
X88500000Y-68800000D03*
D10*
X139600000Y-42750000D03*
D11*
X135500000Y-68800000D03*
X144500000Y-68800000D03*
D12*
X90605000Y-120420000D03*
X92605001Y-120420000D03*
D13*
X87710002Y-114445001D03*
X95499997Y-114445001D03*
D14*
X147000000Y-66700000D03*
X144300000Y-71600000D03*
X147000000Y-70700000D03*
X141600000Y-104400000D03*
X88800000Y-119500000D03*
X142000000Y-69900000D03*
X142500000Y-102400000D03*
X147600000Y-68800000D03*
X145000000Y-65600000D03*
X143000000Y-65800000D03*
X147300000Y-104300000D03*
X146600000Y-106300000D03*
X89000000Y-121700000D03*
X90100000Y-122700000D03*
X88900000Y-122800000D03*
X144400000Y-101700000D03*
X146400000Y-102200000D03*
X142100000Y-67300000D03*
X92600000Y-124000000D03*
D15*
X92605001Y-123994999D02*
X92605001Y-120420000D01*
G04 #@! TA.AperFunction,Conductor*
G36*
X152036500Y-38767381D02*
G01*
X152082619Y-38813500D01*
X152099500Y-38876500D01*
X152099500Y-142123500D01*
X152082619Y-142186500D01*
X152036500Y-142232619D01*
X151973500Y-142249500D01*
X143600099Y-142249500D01*
X135600099Y-142249500D01*
X88600099Y-142249500D01*
X80600099Y-142249500D01*
X72226500Y-142249500D01*
X72163500Y-142232619D01*
X72117381Y-142186500D01*
X72100500Y-142123500D01*
X72100500Y-140764706D01*
X82444502Y-140764706D01*
X82455307Y-140774940D01*
X82740860Y-140992013D01*
X83048233Y-141176953D01*
X83373782Y-141327568D01*
X83713715Y-141442105D01*
X84064040Y-141519217D01*
X84420642Y-141558000D01*
X84779358Y-141558000D01*
X85135959Y-141519217D01*
X85486284Y-141442105D01*
X85826217Y-141327568D01*
X86151766Y-141176953D01*
X86459139Y-140992013D01*
X86744693Y-140774939D01*
X86755496Y-140764706D01*
X137444502Y-140764706D01*
X137455307Y-140774940D01*
X137740860Y-140992013D01*
X138048233Y-141176953D01*
X138373782Y-141327568D01*
X138713715Y-141442105D01*
X139064040Y-141519217D01*
X139420642Y-141558000D01*
X139779358Y-141558000D01*
X140135959Y-141519217D01*
X140486284Y-141442105D01*
X140826217Y-141327568D01*
X141151766Y-141176953D01*
X141459139Y-140992013D01*
X141744693Y-140774939D01*
X141755496Y-140764706D01*
X139600001Y-138609210D01*
X139599999Y-138609210D01*
X137444502Y-140764706D01*
X86755496Y-140764706D01*
X84600001Y-138609210D01*
X84599999Y-138609210D01*
X82444502Y-140764706D01*
X72100500Y-140764706D01*
X72100500Y-138249999D01*
X81287140Y-138249999D01*
X81306561Y-138608183D01*
X81364593Y-138962166D01*
X81460557Y-139307797D01*
X81593331Y-139641032D01*
X81761352Y-139957955D01*
X81962655Y-140254854D01*
X82088168Y-140402620D01*
X84240789Y-138250001D01*
X84959210Y-138250001D01*
X87111831Y-140402620D01*
X87237344Y-140254854D01*
X87438647Y-139957955D01*
X87606668Y-139641032D01*
X87739442Y-139307797D01*
X87835406Y-138962166D01*
X87893438Y-138608183D01*
X87912859Y-138250000D01*
X136287140Y-138250000D01*
X136306561Y-138608183D01*
X136364593Y-138962166D01*
X136460557Y-139307797D01*
X136593331Y-139641032D01*
X136761352Y-139957955D01*
X136962655Y-140254854D01*
X137088168Y-140402620D01*
X139240789Y-138250000D01*
X139959210Y-138250000D01*
X142111831Y-140402620D01*
X142237344Y-140254854D01*
X142438647Y-139957955D01*
X142606668Y-139641032D01*
X142739442Y-139307797D01*
X142835406Y-138962166D01*
X142893438Y-138608183D01*
X142912859Y-138250000D01*
X142893438Y-137891816D01*
X142835406Y-137537833D01*
X142739442Y-137192202D01*
X142606668Y-136858967D01*
X142438647Y-136542044D01*
X142237341Y-136245140D01*
X142111831Y-136097377D01*
X139959210Y-138249998D01*
X139959210Y-138250000D01*
X139240789Y-138250000D01*
X139240789Y-138249998D01*
X137088167Y-136097377D01*
X137088166Y-136097378D01*
X136962658Y-136245139D01*
X136761352Y-136542044D01*
X136593331Y-136858967D01*
X136460557Y-137192202D01*
X136364593Y-137537833D01*
X136306561Y-137891816D01*
X136287140Y-138250000D01*
X87912859Y-138250000D01*
X87912859Y-138249999D01*
X87893438Y-137891816D01*
X87835406Y-137537833D01*
X87739442Y-137192202D01*
X87606668Y-136858967D01*
X87438647Y-136542044D01*
X87237341Y-136245140D01*
X87111831Y-136097377D01*
X84959210Y-138249999D01*
X84959210Y-138250001D01*
X84240789Y-138250001D01*
X84240789Y-138249999D01*
X82088167Y-136097377D01*
X82088166Y-136097378D01*
X81962658Y-136245139D01*
X81761352Y-136542044D01*
X81593331Y-136858967D01*
X81460557Y-137192202D01*
X81364593Y-137537833D01*
X81306561Y-137891816D01*
X81287140Y-138249999D01*
X72100500Y-138249999D01*
X72100500Y-135735292D01*
X82444502Y-135735292D01*
X84599999Y-137890789D01*
X84600001Y-137890789D01*
X86755496Y-135735292D01*
X137444502Y-135735292D01*
X139599999Y-137890789D01*
X139600001Y-137890789D01*
X141755496Y-135735292D01*
X141744692Y-135725059D01*
X141459139Y-135507986D01*
X141151766Y-135323046D01*
X140826217Y-135172431D01*
X140486284Y-135057894D01*
X140135959Y-134980782D01*
X139779358Y-134942000D01*
X139420642Y-134942000D01*
X139064040Y-134980782D01*
X138713715Y-135057894D01*
X138373782Y-135172431D01*
X138048233Y-135323046D01*
X137740860Y-135507986D01*
X137455303Y-135725062D01*
X137444502Y-135735292D01*
X86755496Y-135735292D01*
X86744692Y-135725059D01*
X86459139Y-135507986D01*
X86151766Y-135323046D01*
X85826217Y-135172431D01*
X85486284Y-135057894D01*
X85135959Y-134980782D01*
X84779358Y-134942000D01*
X84420642Y-134942000D01*
X84064040Y-134980782D01*
X83713715Y-135057894D01*
X83373782Y-135172431D01*
X83048233Y-135323046D01*
X82740860Y-135507986D01*
X82455303Y-135725062D01*
X82444502Y-135735292D01*
X72100500Y-135735292D01*
X72100500Y-122800000D01*
X87986496Y-122800000D01*
X88006458Y-122989929D01*
X88065472Y-123171556D01*
X88160958Y-123336942D01*
X88160960Y-123336944D01*
X88288747Y-123478866D01*
X88443248Y-123591118D01*
X88617712Y-123668794D01*
X88804513Y-123708500D01*
X88995485Y-123708500D01*
X88995487Y-123708500D01*
X89182288Y-123668794D01*
X89356752Y-123591118D01*
X89494759Y-123490849D01*
X89542623Y-123469539D01*
X89595018Y-123469540D01*
X89642880Y-123490850D01*
X89643248Y-123491118D01*
X89817712Y-123568794D01*
X90004513Y-123608500D01*
X90195485Y-123608500D01*
X90195487Y-123608500D01*
X90382288Y-123568794D01*
X90556752Y-123491118D01*
X90711253Y-123378866D01*
X90839040Y-123236944D01*
X90934527Y-123071556D01*
X90993542Y-122889928D01*
X91013504Y-122700000D01*
X90993542Y-122510072D01*
X90934527Y-122328444D01*
X90934527Y-122328443D01*
X90839041Y-122163057D01*
X90711252Y-122021133D01*
X90556753Y-121908883D01*
X90556752Y-121908882D01*
X90404812Y-121841234D01*
X90357112Y-121804133D01*
X90332172Y-121749088D01*
X90335730Y-121688762D01*
X90351000Y-121663475D01*
X90351000Y-121653000D01*
X90859000Y-121653000D01*
X91203589Y-121653000D01*
X91264093Y-121646494D01*
X91400962Y-121595445D01*
X91529074Y-121499542D01*
X91577800Y-121477290D01*
X91631366Y-121477290D01*
X91680092Y-121499542D01*
X91796010Y-121586318D01*
X91833174Y-121630787D01*
X91846501Y-121687186D01*
X91846501Y-123454339D01*
X91829620Y-123517337D01*
X91799913Y-123568793D01*
X91765471Y-123628446D01*
X91706458Y-123810070D01*
X91686496Y-123999999D01*
X91706458Y-124189929D01*
X91765472Y-124371556D01*
X91860958Y-124536942D01*
X91860960Y-124536944D01*
X91988747Y-124678866D01*
X92143248Y-124791118D01*
X92317712Y-124868794D01*
X92504513Y-124908500D01*
X92695485Y-124908500D01*
X92695487Y-124908500D01*
X92882288Y-124868794D01*
X93056752Y-124791118D01*
X93211253Y-124678866D01*
X93339040Y-124536944D01*
X93434527Y-124371556D01*
X93493542Y-124189928D01*
X93513504Y-124000000D01*
X93493542Y-123810072D01*
X93434527Y-123628444D01*
X93400088Y-123568794D01*
X93380382Y-123534662D01*
X93363501Y-123471662D01*
X93363501Y-121687186D01*
X93376829Y-121630786D01*
X93413992Y-121586318D01*
X93518262Y-121508261D01*
X93605889Y-121391205D01*
X93605888Y-121391205D01*
X93605890Y-121391204D01*
X93656990Y-121254201D01*
X93663501Y-121193638D01*
X93663501Y-119646362D01*
X93656990Y-119585799D01*
X93605890Y-119448796D01*
X93541447Y-119362710D01*
X93518262Y-119331738D01*
X93401206Y-119244111D01*
X93332703Y-119218561D01*
X93264202Y-119193011D01*
X93203639Y-119186500D01*
X92006363Y-119186500D01*
X91945800Y-119193011D01*
X91808795Y-119244111D01*
X91680093Y-119340457D01*
X91631368Y-119362709D01*
X91577801Y-119362710D01*
X91529075Y-119340458D01*
X91400960Y-119244553D01*
X91264093Y-119193505D01*
X91203589Y-119187000D01*
X90859000Y-119187000D01*
X90859000Y-121653000D01*
X90351000Y-121653000D01*
X90351000Y-120674000D01*
X89547000Y-120674000D01*
X89547000Y-120755040D01*
X89531731Y-120815162D01*
X89489625Y-120860712D01*
X89430886Y-120880652D01*
X89369752Y-120870147D01*
X89282290Y-120831207D01*
X89282288Y-120831206D01*
X89095487Y-120791500D01*
X88904513Y-120791500D01*
X88793193Y-120815162D01*
X88717711Y-120831206D01*
X88543246Y-120908883D01*
X88388747Y-121021133D01*
X88260958Y-121163057D01*
X88165472Y-121328443D01*
X88106458Y-121510070D01*
X88086496Y-121700000D01*
X88106458Y-121889929D01*
X88165472Y-122071554D01*
X88185304Y-122105905D01*
X88201494Y-122155732D01*
X88196018Y-122207837D01*
X88169824Y-122253210D01*
X88160960Y-122263054D01*
X88065472Y-122428444D01*
X88006458Y-122610070D01*
X87986496Y-122800000D01*
X72100500Y-122800000D01*
X72100500Y-119500000D01*
X87886496Y-119500000D01*
X87906458Y-119689929D01*
X87965472Y-119871556D01*
X88060958Y-120036942D01*
X88060960Y-120036944D01*
X88188747Y-120178866D01*
X88343248Y-120291118D01*
X88517712Y-120368794D01*
X88704513Y-120408500D01*
X88895485Y-120408500D01*
X88895487Y-120408500D01*
X89082288Y-120368794D01*
X89256752Y-120291118D01*
X89410269Y-120179580D01*
X89464616Y-120157069D01*
X89523263Y-120161685D01*
X89530304Y-120166000D01*
X90351000Y-120166000D01*
X90351000Y-119187000D01*
X90006411Y-119187000D01*
X89945906Y-119193505D01*
X89810262Y-119244097D01*
X89743562Y-119249985D01*
X89683264Y-119220871D01*
X89646398Y-119164979D01*
X89634527Y-119128444D01*
X89539040Y-118963056D01*
X89411253Y-118821134D01*
X89256752Y-118708882D01*
X89082288Y-118631206D01*
X88895487Y-118591500D01*
X88704513Y-118591500D01*
X88579979Y-118617970D01*
X88517711Y-118631206D01*
X88343246Y-118708883D01*
X88188747Y-118821133D01*
X88060958Y-118963057D01*
X87965472Y-119128443D01*
X87906458Y-119310070D01*
X87886496Y-119500000D01*
X72100500Y-119500000D01*
X72100500Y-115943639D01*
X86526502Y-115943639D01*
X86533013Y-116004201D01*
X86584113Y-116141206D01*
X86671740Y-116258262D01*
X86788796Y-116345889D01*
X86788797Y-116345889D01*
X86788798Y-116345890D01*
X86925801Y-116396990D01*
X86986364Y-116403501D01*
X88433640Y-116403501D01*
X88494203Y-116396990D01*
X88631206Y-116345890D01*
X88748263Y-116258262D01*
X88835891Y-116141205D01*
X88886991Y-116004202D01*
X88893502Y-115943639D01*
X94316497Y-115943639D01*
X94323008Y-116004201D01*
X94374108Y-116141206D01*
X94461735Y-116258262D01*
X94578791Y-116345889D01*
X94578792Y-116345889D01*
X94578793Y-116345890D01*
X94715796Y-116396990D01*
X94776359Y-116403501D01*
X96223635Y-116403501D01*
X96284198Y-116396990D01*
X96421201Y-116345890D01*
X96538258Y-116258262D01*
X96625886Y-116141205D01*
X96676986Y-116004202D01*
X96683497Y-115943639D01*
X96683497Y-112946363D01*
X96676986Y-112885800D01*
X96625886Y-112748797D01*
X96625885Y-112748795D01*
X96538258Y-112631739D01*
X96421202Y-112544112D01*
X96352699Y-112518562D01*
X96284198Y-112493012D01*
X96223635Y-112486501D01*
X94776359Y-112486501D01*
X94715796Y-112493012D01*
X94578791Y-112544112D01*
X94461735Y-112631739D01*
X94374108Y-112748795D01*
X94323008Y-112885800D01*
X94316497Y-112946363D01*
X94316497Y-115943639D01*
X88893502Y-115943639D01*
X88893502Y-112946363D01*
X88886991Y-112885800D01*
X88835891Y-112748797D01*
X88835890Y-112748795D01*
X88748263Y-112631739D01*
X88631207Y-112544112D01*
X88562704Y-112518562D01*
X88494203Y-112493012D01*
X88433640Y-112486501D01*
X86986364Y-112486501D01*
X86925801Y-112493012D01*
X86788796Y-112544112D01*
X86671740Y-112631739D01*
X86584113Y-112748795D01*
X86533013Y-112885800D01*
X86526502Y-112946363D01*
X86526502Y-115943639D01*
X72100500Y-115943639D01*
X72100500Y-111000000D01*
X104986807Y-111000000D01*
X105005557Y-111274124D01*
X105005557Y-111274128D01*
X105005558Y-111274130D01*
X105061462Y-111543153D01*
X105061463Y-111543155D01*
X105153476Y-111802057D01*
X105279889Y-112046024D01*
X105438342Y-112270501D01*
X105438343Y-112270502D01*
X105625889Y-112471314D01*
X105839031Y-112644718D01*
X106073800Y-112787484D01*
X106325823Y-112896953D01*
X106590404Y-112971085D01*
X106590410Y-112971085D01*
X106590411Y-112971086D01*
X106862612Y-113008500D01*
X106862615Y-113008500D01*
X107137385Y-113008500D01*
X107137388Y-113008500D01*
X107356636Y-112978364D01*
X107409596Y-112971085D01*
X107674177Y-112896953D01*
X107926200Y-112787484D01*
X108160969Y-112644718D01*
X108374111Y-112471314D01*
X108561657Y-112270502D01*
X108720111Y-112046023D01*
X108846523Y-111802058D01*
X108938538Y-111543153D01*
X108994442Y-111274130D01*
X109013193Y-111000000D01*
X113986807Y-111000000D01*
X114005557Y-111274124D01*
X114005557Y-111274128D01*
X114005558Y-111274130D01*
X114061462Y-111543153D01*
X114061463Y-111543155D01*
X114153476Y-111802057D01*
X114279889Y-112046024D01*
X114438342Y-112270501D01*
X114438343Y-112270502D01*
X114625889Y-112471314D01*
X114839031Y-112644718D01*
X115073800Y-112787484D01*
X115325823Y-112896953D01*
X115590404Y-112971085D01*
X115590410Y-112971085D01*
X115590411Y-112971086D01*
X115862612Y-113008500D01*
X115862615Y-113008500D01*
X116137385Y-113008500D01*
X116137388Y-113008500D01*
X116356636Y-112978364D01*
X116409596Y-112971085D01*
X116674177Y-112896953D01*
X116926200Y-112787484D01*
X117160969Y-112644718D01*
X117374111Y-112471314D01*
X117561657Y-112270502D01*
X117720111Y-112046023D01*
X117846523Y-111802058D01*
X117938538Y-111543153D01*
X117994442Y-111274130D01*
X118013193Y-111000000D01*
X117994442Y-110725870D01*
X117938538Y-110456847D01*
X117846523Y-110197942D01*
X117720111Y-109953977D01*
X117561657Y-109729498D01*
X117374111Y-109528686D01*
X117160969Y-109355282D01*
X116926200Y-109212516D01*
X116674177Y-109103047D01*
X116409596Y-109028915D01*
X116409594Y-109028914D01*
X116409588Y-109028913D01*
X116137388Y-108991500D01*
X116137385Y-108991500D01*
X115862615Y-108991500D01*
X115862612Y-108991500D01*
X115590411Y-109028913D01*
X115590403Y-109028915D01*
X115590404Y-109028915D01*
X115325823Y-109103047D01*
X115325821Y-109103047D01*
X115325820Y-109103048D01*
X115073801Y-109212515D01*
X114839030Y-109355282D01*
X114625887Y-109528687D01*
X114438343Y-109729497D01*
X114279889Y-109953975D01*
X114153476Y-110197942D01*
X114061463Y-110456844D01*
X114005557Y-110725875D01*
X113986807Y-111000000D01*
X109013193Y-111000000D01*
X108994442Y-110725870D01*
X108938538Y-110456847D01*
X108846523Y-110197942D01*
X108720111Y-109953977D01*
X108561657Y-109729498D01*
X108374111Y-109528686D01*
X108160969Y-109355282D01*
X107926200Y-109212516D01*
X107674177Y-109103047D01*
X107409596Y-109028915D01*
X107409594Y-109028914D01*
X107409588Y-109028913D01*
X107137388Y-108991500D01*
X107137385Y-108991500D01*
X106862615Y-108991500D01*
X106862612Y-108991500D01*
X106590411Y-109028913D01*
X106590403Y-109028915D01*
X106590404Y-109028915D01*
X106325823Y-109103047D01*
X106325821Y-109103047D01*
X106325820Y-109103048D01*
X106073801Y-109212515D01*
X105839030Y-109355282D01*
X105625887Y-109528687D01*
X105438343Y-109729497D01*
X105279889Y-109953975D01*
X105153476Y-110197942D01*
X105061463Y-110456844D01*
X105005557Y-110725875D01*
X104986807Y-111000000D01*
X72100500Y-111000000D01*
X72100500Y-104500000D01*
X77486807Y-104500000D01*
X77505557Y-104774124D01*
X77505557Y-104774128D01*
X77505558Y-104774130D01*
X77561462Y-105043153D01*
X77574155Y-105078867D01*
X77653476Y-105302057D01*
X77779889Y-105546024D01*
X77909929Y-105730248D01*
X77938343Y-105770502D01*
X78125889Y-105971314D01*
X78339031Y-106144718D01*
X78573800Y-106287484D01*
X78825823Y-106396953D01*
X79090404Y-106471085D01*
X79090410Y-106471085D01*
X79090411Y-106471086D01*
X79362612Y-106508500D01*
X79362615Y-106508500D01*
X79637385Y-106508500D01*
X79637388Y-106508500D01*
X79856636Y-106478364D01*
X79909596Y-106471085D01*
X80174177Y-106396953D01*
X80426200Y-106287484D01*
X80660969Y-106144718D01*
X80874111Y-105971314D01*
X81061657Y-105770502D01*
X81220111Y-105546023D01*
X81346523Y-105302058D01*
X81438538Y-105043153D01*
X81494442Y-104774130D01*
X81513193Y-104500000D01*
X86486807Y-104500000D01*
X86505557Y-104774124D01*
X86505557Y-104774128D01*
X86505558Y-104774130D01*
X86561462Y-105043153D01*
X86574155Y-105078867D01*
X86653476Y-105302057D01*
X86779889Y-105546024D01*
X86909929Y-105730248D01*
X86938343Y-105770502D01*
X87125889Y-105971314D01*
X87339031Y-106144718D01*
X87573800Y-106287484D01*
X87825823Y-106396953D01*
X88090404Y-106471085D01*
X88090410Y-106471085D01*
X88090411Y-106471086D01*
X88362612Y-106508500D01*
X88362615Y-106508500D01*
X88637385Y-106508500D01*
X88637388Y-106508500D01*
X88856636Y-106478364D01*
X88909596Y-106471085D01*
X89174177Y-106396953D01*
X89426200Y-106287484D01*
X89660969Y-106144718D01*
X89874111Y-105971314D01*
X90061657Y-105770502D01*
X90220111Y-105546023D01*
X90346523Y-105302058D01*
X90438538Y-105043153D01*
X90494442Y-104774130D01*
X90513193Y-104500000D01*
X90513193Y-104499999D01*
X133486807Y-104499999D01*
X133505557Y-104774124D01*
X133505557Y-104774128D01*
X133505558Y-104774130D01*
X133561462Y-105043153D01*
X133574155Y-105078867D01*
X133653476Y-105302057D01*
X133779889Y-105546024D01*
X133909929Y-105730248D01*
X133938343Y-105770502D01*
X134125889Y-105971314D01*
X134339031Y-106144718D01*
X134573800Y-106287484D01*
X134825823Y-106396953D01*
X135090404Y-106471085D01*
X135090410Y-106471085D01*
X135090411Y-106471086D01*
X135362612Y-106508500D01*
X135362615Y-106508500D01*
X135637385Y-106508500D01*
X135637388Y-106508500D01*
X135856636Y-106478364D01*
X135909596Y-106471085D01*
X136174177Y-106396953D01*
X136426200Y-106287484D01*
X136660969Y-106144718D01*
X136874111Y-105971314D01*
X137061657Y-105770502D01*
X137220111Y-105546023D01*
X137346523Y-105302058D01*
X137438538Y-105043153D01*
X137494442Y-104774130D01*
X137513193Y-104500000D01*
X137506353Y-104400000D01*
X140686496Y-104400000D01*
X140706458Y-104589929D01*
X140765472Y-104771556D01*
X140860958Y-104936942D01*
X140916996Y-104999178D01*
X140988747Y-105078866D01*
X141143248Y-105191118D01*
X141317712Y-105268794D01*
X141504513Y-105308500D01*
X141695485Y-105308500D01*
X141695487Y-105308500D01*
X141882288Y-105268794D01*
X142056752Y-105191118D01*
X142211253Y-105078866D01*
X142335835Y-104940502D01*
X142393820Y-104903963D01*
X142462356Y-104903183D01*
X142521161Y-104938394D01*
X142552833Y-104999178D01*
X142561942Y-105043014D01*
X142653936Y-105301860D01*
X142780318Y-105545765D01*
X142910540Y-105730248D01*
X142910541Y-105730248D01*
X144410905Y-104229885D01*
X144467389Y-104197273D01*
X144532611Y-104197273D01*
X144589095Y-104229885D01*
X144770114Y-104410904D01*
X144802726Y-104467388D01*
X144802726Y-104532610D01*
X144770114Y-104589094D01*
X143270715Y-106088492D01*
X143270715Y-106088494D01*
X143339321Y-106144310D01*
X143574026Y-106287036D01*
X143825989Y-106396480D01*
X144090513Y-106470596D01*
X144362645Y-106508000D01*
X144637355Y-106508000D01*
X144909486Y-106470596D01*
X145174010Y-106396480D01*
X145425971Y-106287037D01*
X145499580Y-106242274D01*
X145559599Y-106224048D01*
X145620969Y-106237019D01*
X145668480Y-106277972D01*
X145690359Y-106336759D01*
X145706458Y-106489929D01*
X145765472Y-106671556D01*
X145860958Y-106836942D01*
X145860960Y-106836944D01*
X145988747Y-106978866D01*
X146143248Y-107091118D01*
X146317712Y-107168794D01*
X146504513Y-107208500D01*
X146695485Y-107208500D01*
X146695487Y-107208500D01*
X146882288Y-107168794D01*
X147056752Y-107091118D01*
X147211253Y-106978866D01*
X147339040Y-106836944D01*
X147434527Y-106671556D01*
X147493542Y-106489928D01*
X147513504Y-106300000D01*
X147493542Y-106110072D01*
X147462931Y-106015862D01*
X147434527Y-105928443D01*
X147339041Y-105763057D01*
X147211252Y-105621133D01*
X147056753Y-105508883D01*
X147056752Y-105508882D01*
X146882288Y-105431206D01*
X146695487Y-105391500D01*
X146504513Y-105391500D01*
X146492707Y-105391500D01*
X146434739Y-105377374D01*
X146389769Y-105338162D01*
X146367881Y-105282657D01*
X146373982Y-105223305D01*
X146438056Y-105043017D01*
X146445297Y-105008169D01*
X146476968Y-104947383D01*
X146535773Y-104912170D01*
X146604310Y-104912950D01*
X146662297Y-104949491D01*
X146688747Y-104978866D01*
X146843248Y-105091118D01*
X147017712Y-105168794D01*
X147204513Y-105208500D01*
X147395485Y-105208500D01*
X147395487Y-105208500D01*
X147582288Y-105168794D01*
X147756752Y-105091118D01*
X147911253Y-104978866D01*
X148039040Y-104836944D01*
X148134527Y-104671556D01*
X148193542Y-104489928D01*
X148213504Y-104300000D01*
X148193542Y-104110072D01*
X148162931Y-104015862D01*
X148134527Y-103928443D01*
X148039041Y-103763057D01*
X147911252Y-103621133D01*
X147756753Y-103508883D01*
X147756752Y-103508882D01*
X147582288Y-103431206D01*
X147395487Y-103391500D01*
X147204513Y-103391500D01*
X147098274Y-103414082D01*
X147017711Y-103431206D01*
X146843246Y-103508883D01*
X146688747Y-103621133D01*
X146564952Y-103758622D01*
X146511069Y-103793875D01*
X146446805Y-103797904D01*
X146388941Y-103769655D01*
X146352591Y-103716505D01*
X146346064Y-103698141D01*
X146219683Y-103454238D01*
X146103073Y-103289039D01*
X146081169Y-103233420D01*
X146087363Y-103173966D01*
X146120262Y-103124057D01*
X146172459Y-103094926D01*
X146232208Y-103093131D01*
X146269351Y-103101026D01*
X146304512Y-103108500D01*
X146304513Y-103108500D01*
X146495485Y-103108500D01*
X146495487Y-103108500D01*
X146682288Y-103068794D01*
X146856752Y-102991118D01*
X147011253Y-102878866D01*
X147139040Y-102736944D01*
X147234527Y-102571556D01*
X147293542Y-102389928D01*
X147313504Y-102200000D01*
X147293542Y-102010072D01*
X147257981Y-101900626D01*
X147234527Y-101828443D01*
X147139041Y-101663057D01*
X147011252Y-101521133D01*
X146856753Y-101408883D01*
X146856752Y-101408882D01*
X146682288Y-101331206D01*
X146495487Y-101291500D01*
X146304513Y-101291500D01*
X146179978Y-101317970D01*
X146117711Y-101331206D01*
X145943246Y-101408883D01*
X145788747Y-101521133D01*
X145660958Y-101663057D01*
X145565473Y-101828442D01*
X145543522Y-101896000D01*
X145511215Y-101947700D01*
X145473890Y-101969248D01*
X145493135Y-101995737D01*
X145501619Y-102056105D01*
X145499996Y-102071556D01*
X145486496Y-102199999D01*
X145506458Y-102389929D01*
X145555500Y-102540864D01*
X145560349Y-102597980D01*
X145539393Y-102651333D01*
X145496970Y-102689881D01*
X145441860Y-102705648D01*
X145385468Y-102695369D01*
X145174003Y-102603516D01*
X145077995Y-102576616D01*
X145023301Y-102544789D01*
X144990977Y-102490386D01*
X144989177Y-102427131D01*
X145018352Y-102370981D01*
X145139040Y-102236944D01*
X145234527Y-102071556D01*
X145256477Y-102004000D01*
X145288783Y-101952300D01*
X145326107Y-101930750D01*
X145306863Y-101904262D01*
X145298379Y-101843897D01*
X145313504Y-101700000D01*
X145293542Y-101510072D01*
X145260663Y-101408882D01*
X145234527Y-101328443D01*
X145139041Y-101163057D01*
X145011252Y-101021133D01*
X144856753Y-100908883D01*
X144856752Y-100908882D01*
X144682288Y-100831206D01*
X144495487Y-100791500D01*
X144304513Y-100791500D01*
X144179979Y-100817970D01*
X144117711Y-100831206D01*
X143943246Y-100908883D01*
X143788747Y-101021133D01*
X143660958Y-101163057D01*
X143565472Y-101328443D01*
X143506458Y-101510070D01*
X143486496Y-101700000D01*
X143500560Y-101833807D01*
X143489258Y-101900626D01*
X143444977Y-101951926D01*
X143380526Y-101972867D01*
X143314549Y-101957393D01*
X143266131Y-101909978D01*
X143239041Y-101863057D01*
X143111252Y-101721133D01*
X142956753Y-101608883D01*
X142956752Y-101608882D01*
X142782288Y-101531206D01*
X142595487Y-101491500D01*
X142404513Y-101491500D01*
X142279979Y-101517970D01*
X142217711Y-101531206D01*
X142043246Y-101608883D01*
X141888747Y-101721133D01*
X141760958Y-101863057D01*
X141665472Y-102028443D01*
X141606458Y-102210070D01*
X141586496Y-102400000D01*
X141606458Y-102589929D01*
X141665472Y-102771556D01*
X141760958Y-102936942D01*
X141760960Y-102936944D01*
X141888747Y-103078866D01*
X142043248Y-103191118D01*
X142217712Y-103268794D01*
X142404513Y-103308500D01*
X142595487Y-103308500D01*
X142595488Y-103308500D01*
X142627375Y-103301722D01*
X142697385Y-103306830D01*
X142753797Y-103348606D01*
X142779102Y-103414082D01*
X142765446Y-103482937D01*
X142653936Y-103698139D01*
X142589065Y-103880669D01*
X142547611Y-103937999D01*
X142481797Y-103963952D01*
X142412371Y-103950347D01*
X142361221Y-103901474D01*
X142339041Y-103863057D01*
X142211252Y-103721133D01*
X142056753Y-103608883D01*
X142056752Y-103608882D01*
X141882288Y-103531206D01*
X141695487Y-103491500D01*
X141504513Y-103491500D01*
X141379978Y-103517970D01*
X141317711Y-103531206D01*
X141143246Y-103608883D01*
X140988747Y-103721133D01*
X140860958Y-103863057D01*
X140765472Y-104028443D01*
X140706458Y-104210070D01*
X140686496Y-104400000D01*
X137506353Y-104400000D01*
X137494442Y-104225870D01*
X137438538Y-103956847D01*
X137346523Y-103697942D01*
X137220111Y-103453977D01*
X137061657Y-103229498D01*
X136874111Y-103028686D01*
X136660969Y-102855282D01*
X136426200Y-102712516D01*
X136410388Y-102705648D01*
X136186731Y-102608500D01*
X136174177Y-102603047D01*
X135909596Y-102528915D01*
X135909594Y-102528914D01*
X135909588Y-102528913D01*
X135637388Y-102491500D01*
X135637385Y-102491500D01*
X135362615Y-102491500D01*
X135362612Y-102491500D01*
X135090411Y-102528913D01*
X135090403Y-102528915D01*
X135090404Y-102528915D01*
X134825823Y-102603047D01*
X134825821Y-102603047D01*
X134825820Y-102603048D01*
X134573801Y-102712515D01*
X134339030Y-102855282D01*
X134125887Y-103028687D01*
X133938343Y-103229497D01*
X133779889Y-103453975D01*
X133653476Y-103697942D01*
X133561463Y-103956844D01*
X133505557Y-104225875D01*
X133486807Y-104499999D01*
X90513193Y-104499999D01*
X90494442Y-104225870D01*
X90438538Y-103956847D01*
X90346523Y-103697942D01*
X90220111Y-103453977D01*
X90061657Y-103229498D01*
X89874111Y-103028686D01*
X89660969Y-102855282D01*
X89426200Y-102712516D01*
X89410388Y-102705648D01*
X89186731Y-102608500D01*
X89174177Y-102603047D01*
X88909596Y-102528915D01*
X88909594Y-102528914D01*
X88909588Y-102528913D01*
X88637388Y-102491500D01*
X88637385Y-102491500D01*
X88362615Y-102491500D01*
X88362612Y-102491500D01*
X88090411Y-102528913D01*
X88090403Y-102528915D01*
X88090404Y-102528915D01*
X87825823Y-102603047D01*
X87825821Y-102603047D01*
X87825820Y-102603048D01*
X87573801Y-102712515D01*
X87339030Y-102855282D01*
X87125887Y-103028687D01*
X86938343Y-103229497D01*
X86779889Y-103453975D01*
X86653476Y-103697942D01*
X86561463Y-103956844D01*
X86505557Y-104225875D01*
X86486807Y-104500000D01*
X81513193Y-104500000D01*
X81494442Y-104225870D01*
X81438538Y-103956847D01*
X81346523Y-103697942D01*
X81220111Y-103453977D01*
X81061657Y-103229498D01*
X80874111Y-103028686D01*
X80660969Y-102855282D01*
X80426200Y-102712516D01*
X80410388Y-102705648D01*
X80186731Y-102608500D01*
X80174177Y-102603047D01*
X79909596Y-102528915D01*
X79909594Y-102528914D01*
X79909588Y-102528913D01*
X79637388Y-102491500D01*
X79637385Y-102491500D01*
X79362615Y-102491500D01*
X79362612Y-102491500D01*
X79090411Y-102528913D01*
X79090403Y-102528915D01*
X79090404Y-102528915D01*
X78825823Y-102603047D01*
X78825821Y-102603047D01*
X78825820Y-102603048D01*
X78573801Y-102712515D01*
X78339030Y-102855282D01*
X78125887Y-103028687D01*
X77938343Y-103229497D01*
X77779889Y-103453975D01*
X77653476Y-103697942D01*
X77561463Y-103956844D01*
X77505557Y-104225875D01*
X77486807Y-104500000D01*
X72100500Y-104500000D01*
X72100500Y-75500000D01*
X104986807Y-75500000D01*
X105005557Y-75774124D01*
X105005557Y-75774128D01*
X105005558Y-75774130D01*
X105061462Y-76043153D01*
X105061463Y-76043155D01*
X105153476Y-76302057D01*
X105279889Y-76546024D01*
X105438343Y-76770502D01*
X105625889Y-76971314D01*
X105839031Y-77144718D01*
X106073800Y-77287484D01*
X106325823Y-77396953D01*
X106590404Y-77471085D01*
X106590410Y-77471085D01*
X106590411Y-77471086D01*
X106862612Y-77508500D01*
X106862615Y-77508500D01*
X107137385Y-77508500D01*
X107137388Y-77508500D01*
X107356636Y-77478364D01*
X107409596Y-77471085D01*
X107674177Y-77396953D01*
X107926200Y-77287484D01*
X108160969Y-77144718D01*
X108374111Y-76971314D01*
X108561657Y-76770502D01*
X108720111Y-76546023D01*
X108846523Y-76302058D01*
X108938538Y-76043153D01*
X108994442Y-75774130D01*
X109013193Y-75500000D01*
X113986807Y-75500000D01*
X114005557Y-75774124D01*
X114005557Y-75774128D01*
X114005558Y-75774130D01*
X114061462Y-76043153D01*
X114061463Y-76043155D01*
X114153476Y-76302057D01*
X114279889Y-76546024D01*
X114438343Y-76770502D01*
X114625889Y-76971314D01*
X114839031Y-77144718D01*
X115073800Y-77287484D01*
X115325823Y-77396953D01*
X115590404Y-77471085D01*
X115590410Y-77471085D01*
X115590411Y-77471086D01*
X115862612Y-77508500D01*
X115862615Y-77508500D01*
X116137385Y-77508500D01*
X116137388Y-77508500D01*
X116356636Y-77478364D01*
X116409596Y-77471085D01*
X116674177Y-77396953D01*
X116926200Y-77287484D01*
X117160969Y-77144718D01*
X117374111Y-76971314D01*
X117561657Y-76770502D01*
X117720111Y-76546023D01*
X117846523Y-76302058D01*
X117938538Y-76043153D01*
X117994442Y-75774130D01*
X118013193Y-75500000D01*
X117994442Y-75225870D01*
X117938538Y-74956847D01*
X117846523Y-74697942D01*
X117720111Y-74453977D01*
X117561657Y-74229498D01*
X117374111Y-74028686D01*
X117160969Y-73855282D01*
X116926200Y-73712516D01*
X116674177Y-73603047D01*
X116409596Y-73528915D01*
X116409594Y-73528914D01*
X116409588Y-73528913D01*
X116137388Y-73491500D01*
X116137385Y-73491500D01*
X115862615Y-73491500D01*
X115862612Y-73491500D01*
X115590411Y-73528913D01*
X115590403Y-73528915D01*
X115590404Y-73528915D01*
X115325823Y-73603047D01*
X115325821Y-73603047D01*
X115325820Y-73603048D01*
X115073801Y-73712515D01*
X114839030Y-73855282D01*
X114625887Y-74028687D01*
X114438343Y-74229497D01*
X114279889Y-74453975D01*
X114153476Y-74697942D01*
X114061463Y-74956844D01*
X114005557Y-75225875D01*
X113986807Y-75500000D01*
X109013193Y-75500000D01*
X108994442Y-75225870D01*
X108938538Y-74956847D01*
X108846523Y-74697942D01*
X108720111Y-74453977D01*
X108561657Y-74229498D01*
X108374111Y-74028686D01*
X108160969Y-73855282D01*
X107926200Y-73712516D01*
X107674177Y-73603047D01*
X107409596Y-73528915D01*
X107409594Y-73528914D01*
X107409588Y-73528913D01*
X107137388Y-73491500D01*
X107137385Y-73491500D01*
X106862615Y-73491500D01*
X106862612Y-73491500D01*
X106590411Y-73528913D01*
X106590403Y-73528915D01*
X106590404Y-73528915D01*
X106325823Y-73603047D01*
X106325821Y-73603047D01*
X106325820Y-73603048D01*
X106073801Y-73712515D01*
X105839030Y-73855282D01*
X105625887Y-74028687D01*
X105438343Y-74229497D01*
X105279889Y-74453975D01*
X105153476Y-74697942D01*
X105061463Y-74956844D01*
X105005557Y-75225875D01*
X104986807Y-75500000D01*
X72100500Y-75500000D01*
X72100500Y-68800000D01*
X77486807Y-68800000D01*
X77505557Y-69074124D01*
X77505557Y-69074128D01*
X77505558Y-69074130D01*
X77561462Y-69343153D01*
X77568536Y-69363056D01*
X77653476Y-69602057D01*
X77779889Y-69846024D01*
X77888959Y-70000541D01*
X77938343Y-70070502D01*
X78125889Y-70271314D01*
X78339031Y-70444718D01*
X78573800Y-70587484D01*
X78825823Y-70696953D01*
X79090404Y-70771085D01*
X79090410Y-70771085D01*
X79090411Y-70771086D01*
X79362612Y-70808500D01*
X79362615Y-70808500D01*
X79637385Y-70808500D01*
X79637388Y-70808500D01*
X79862313Y-70777584D01*
X79909596Y-70771085D01*
X80174177Y-70696953D01*
X80426200Y-70587484D01*
X80660969Y-70444718D01*
X80874111Y-70271314D01*
X81061657Y-70070502D01*
X81220111Y-69846023D01*
X81346523Y-69602058D01*
X81438538Y-69343153D01*
X81494442Y-69074130D01*
X81513193Y-68800000D01*
X86486807Y-68800000D01*
X86505557Y-69074124D01*
X86505557Y-69074128D01*
X86505558Y-69074130D01*
X86561462Y-69343153D01*
X86568536Y-69363056D01*
X86653476Y-69602057D01*
X86779889Y-69846024D01*
X86888959Y-70000541D01*
X86938343Y-70070502D01*
X87125889Y-70271314D01*
X87339031Y-70444718D01*
X87573800Y-70587484D01*
X87825823Y-70696953D01*
X88090404Y-70771085D01*
X88090410Y-70771085D01*
X88090411Y-70771086D01*
X88362612Y-70808500D01*
X88362615Y-70808500D01*
X88637385Y-70808500D01*
X88637388Y-70808500D01*
X88862313Y-70777584D01*
X88909596Y-70771085D01*
X89174177Y-70696953D01*
X89426200Y-70587484D01*
X89660969Y-70444718D01*
X89874111Y-70271314D01*
X90061657Y-70070502D01*
X90220111Y-69846023D01*
X90346523Y-69602058D01*
X90438538Y-69343153D01*
X90494442Y-69074130D01*
X90513193Y-68800000D01*
X90494442Y-68525870D01*
X90438538Y-68256847D01*
X90346523Y-67997942D01*
X90220111Y-67753977D01*
X90061657Y-67529498D01*
X89874111Y-67328686D01*
X89660969Y-67155282D01*
X89426200Y-67012516D01*
X89174177Y-66903047D01*
X88909596Y-66828915D01*
X88909594Y-66828914D01*
X88909588Y-66828913D01*
X88637388Y-66791500D01*
X88637385Y-66791500D01*
X88362615Y-66791500D01*
X88362612Y-66791500D01*
X88090411Y-66828913D01*
X88090403Y-66828915D01*
X88090404Y-66828915D01*
X87825823Y-66903047D01*
X87825821Y-66903047D01*
X87825820Y-66903048D01*
X87573801Y-67012515D01*
X87339030Y-67155282D01*
X87125887Y-67328687D01*
X86938343Y-67529497D01*
X86779889Y-67753975D01*
X86653476Y-67997942D01*
X86576941Y-68213293D01*
X86561462Y-68256847D01*
X86523238Y-68440790D01*
X86505557Y-68525875D01*
X86486807Y-68800000D01*
X81513193Y-68800000D01*
X81494442Y-68525870D01*
X81438538Y-68256847D01*
X81346523Y-67997942D01*
X81220111Y-67753977D01*
X81061657Y-67529498D01*
X80874111Y-67328686D01*
X80660969Y-67155282D01*
X80426200Y-67012516D01*
X80174177Y-66903047D01*
X79909596Y-66828915D01*
X79909594Y-66828914D01*
X79909588Y-66828913D01*
X79637388Y-66791500D01*
X79637385Y-66791500D01*
X79362615Y-66791500D01*
X79362612Y-66791500D01*
X79090411Y-66828913D01*
X79090403Y-66828915D01*
X79090404Y-66828915D01*
X78825823Y-66903047D01*
X78825821Y-66903047D01*
X78825820Y-66903048D01*
X78573801Y-67012515D01*
X78339030Y-67155282D01*
X78125887Y-67328687D01*
X77938343Y-67529497D01*
X77779889Y-67753975D01*
X77653476Y-67997942D01*
X77576941Y-68213293D01*
X77561462Y-68256847D01*
X77523238Y-68440790D01*
X77505557Y-68525875D01*
X77486807Y-68800000D01*
X72100500Y-68800000D01*
X72100500Y-63376134D01*
X86999400Y-63376134D01*
X86999459Y-63399999D01*
X86999459Y-63400000D01*
X86999472Y-63400032D01*
X86999516Y-63400256D01*
X86999558Y-63400240D01*
X86999615Y-63400381D01*
X86999619Y-63400385D01*
X86999996Y-63400540D01*
X86999999Y-63400541D01*
X87000001Y-63400540D01*
X87024236Y-63400635D01*
X87024926Y-63400500D01*
X95873500Y-63400500D01*
X95936500Y-63417381D01*
X95982619Y-63463500D01*
X95999500Y-63526500D01*
X95999500Y-69974842D01*
X95999459Y-69975048D01*
X95999459Y-70000000D01*
X95999500Y-70000099D01*
X95999617Y-70000383D01*
X96000000Y-70000541D01*
X96000002Y-70000539D01*
X96025014Y-70000524D01*
X96025014Y-70000528D01*
X96025158Y-70000500D01*
X117941743Y-70000500D01*
X117942264Y-70000603D01*
X117993861Y-70000501D01*
X117994274Y-70000500D01*
X117994362Y-70000500D01*
X118019470Y-70000500D01*
X118019930Y-70000405D01*
X118122003Y-70000158D01*
X118375179Y-69967416D01*
X118622189Y-69902947D01*
X118622190Y-69902946D01*
X118622192Y-69902946D01*
X118669969Y-69883752D01*
X118859074Y-69807784D01*
X119082036Y-69683453D01*
X119287501Y-69531946D01*
X119472176Y-69355692D01*
X119633101Y-69157516D01*
X119767695Y-68940596D01*
X119831946Y-68799999D01*
X133486807Y-68799999D01*
X133505557Y-69074124D01*
X133505557Y-69074128D01*
X133505558Y-69074130D01*
X133561462Y-69343153D01*
X133568536Y-69363056D01*
X133653476Y-69602057D01*
X133779889Y-69846024D01*
X133888959Y-70000541D01*
X133938343Y-70070502D01*
X134125889Y-70271314D01*
X134339031Y-70444718D01*
X134573800Y-70587484D01*
X134825823Y-70696953D01*
X135090404Y-70771085D01*
X135090410Y-70771085D01*
X135090411Y-70771086D01*
X135362612Y-70808500D01*
X135362615Y-70808500D01*
X135637385Y-70808500D01*
X135637388Y-70808500D01*
X135862313Y-70777584D01*
X135909596Y-70771085D01*
X136174177Y-70696953D01*
X136426200Y-70587484D01*
X136660969Y-70444718D01*
X136874111Y-70271314D01*
X137061657Y-70070502D01*
X137182010Y-69900000D01*
X141086496Y-69900000D01*
X141090099Y-69934277D01*
X141106458Y-70089929D01*
X141165472Y-70271556D01*
X141260958Y-70436942D01*
X141267592Y-70444310D01*
X141388747Y-70578866D01*
X141543248Y-70691118D01*
X141717712Y-70768794D01*
X141904513Y-70808500D01*
X142095485Y-70808500D01*
X142095487Y-70808500D01*
X142282288Y-70768794D01*
X142456752Y-70691118D01*
X142611253Y-70578866D01*
X142739040Y-70436944D01*
X142767013Y-70388494D01*
X143270715Y-70388494D01*
X143339321Y-70444310D01*
X143574028Y-70587037D01*
X143731320Y-70655359D01*
X143782550Y-70696172D01*
X143806370Y-70757186D01*
X143796346Y-70821914D01*
X143755184Y-70872863D01*
X143688748Y-70921131D01*
X143560958Y-71063057D01*
X143465472Y-71228443D01*
X143406458Y-71410070D01*
X143386496Y-71599999D01*
X143406458Y-71789929D01*
X143465472Y-71971556D01*
X143560958Y-72136942D01*
X143560960Y-72136944D01*
X143688747Y-72278866D01*
X143843248Y-72391118D01*
X144017712Y-72468794D01*
X144204513Y-72508500D01*
X144395485Y-72508500D01*
X144395487Y-72508500D01*
X144582288Y-72468794D01*
X144756752Y-72391118D01*
X144911253Y-72278866D01*
X145039040Y-72136944D01*
X145134527Y-71971556D01*
X145193542Y-71789928D01*
X145213504Y-71600000D01*
X145193542Y-71410072D01*
X145134527Y-71228444D01*
X145134527Y-71228443D01*
X145039041Y-71063057D01*
X144938500Y-70951395D01*
X144909323Y-70895241D01*
X144911123Y-70831986D01*
X144943447Y-70777584D01*
X144998142Y-70745756D01*
X145174008Y-70696480D01*
X145425970Y-70587038D01*
X145660681Y-70444307D01*
X145729283Y-70388493D01*
X145729283Y-70388492D01*
X144500001Y-69159210D01*
X144499999Y-69159210D01*
X143270715Y-70388492D01*
X143270715Y-70388494D01*
X142767013Y-70388494D01*
X142834527Y-70271556D01*
X142893542Y-70089928D01*
X142893890Y-70086611D01*
X142905472Y-70045539D01*
X142930105Y-70010684D01*
X144140789Y-68800001D01*
X144859210Y-68800001D01*
X146089457Y-70030247D01*
X146109931Y-70028496D01*
X146176563Y-70041111D01*
X146227006Y-70086438D01*
X146246645Y-70151348D01*
X146229793Y-70217037D01*
X146165472Y-70328443D01*
X146106458Y-70510070D01*
X146086496Y-70700000D01*
X146106458Y-70889929D01*
X146165472Y-71071556D01*
X146260958Y-71236942D01*
X146260960Y-71236944D01*
X146388747Y-71378866D01*
X146543248Y-71491118D01*
X146717712Y-71568794D01*
X146904513Y-71608500D01*
X147095485Y-71608500D01*
X147095487Y-71608500D01*
X147282288Y-71568794D01*
X147456752Y-71491118D01*
X147611253Y-71378866D01*
X147739040Y-71236944D01*
X147834527Y-71071556D01*
X147893542Y-70889928D01*
X147913504Y-70700000D01*
X147893542Y-70510072D01*
X147834527Y-70328444D01*
X147834527Y-70328443D01*
X147739041Y-70163057D01*
X147611252Y-70021133D01*
X147494677Y-69936436D01*
X147454730Y-69888148D01*
X147442987Y-69826588D01*
X147462353Y-69766986D01*
X147508037Y-69724085D01*
X147568738Y-69708500D01*
X147695485Y-69708500D01*
X147695487Y-69708500D01*
X147882288Y-69668794D01*
X148056752Y-69591118D01*
X148211253Y-69478866D01*
X148339040Y-69336944D01*
X148434527Y-69171556D01*
X148493542Y-68989928D01*
X148513504Y-68800000D01*
X148493542Y-68610072D01*
X148446299Y-68464673D01*
X148434527Y-68428443D01*
X148339041Y-68263057D01*
X148211252Y-68121133D01*
X148134002Y-68065008D01*
X148056752Y-68008882D01*
X147882288Y-67931206D01*
X147695487Y-67891500D01*
X147504513Y-67891500D01*
X147379979Y-67917970D01*
X147317711Y-67931206D01*
X147143246Y-68008883D01*
X146988747Y-68121133D01*
X146860958Y-68263057D01*
X146765473Y-68428442D01*
X146734151Y-68524841D01*
X146698543Y-68579617D01*
X146640290Y-68609198D01*
X146575054Y-68605630D01*
X146520375Y-68569873D01*
X146490953Y-68511539D01*
X146438055Y-68256980D01*
X146346063Y-67998139D01*
X146219683Y-67754238D01*
X146089457Y-67569750D01*
X144859210Y-68799999D01*
X144859210Y-68800001D01*
X144140789Y-68800001D01*
X144500000Y-68440790D01*
X145729283Y-67211505D01*
X145729283Y-67211504D01*
X145660678Y-67155689D01*
X145425973Y-67012963D01*
X145174010Y-66903519D01*
X144909486Y-66829403D01*
X144637355Y-66792000D01*
X144362645Y-66792000D01*
X144090513Y-66829403D01*
X143825989Y-66903519D01*
X143574026Y-67012963D01*
X143339322Y-67155689D01*
X143205700Y-67264399D01*
X143144476Y-67291324D01*
X143078097Y-67283123D01*
X143025268Y-67242105D01*
X143000873Y-67179831D01*
X142993542Y-67110072D01*
X142934527Y-66928444D01*
X142934527Y-66928443D01*
X142916662Y-66897500D01*
X142899781Y-66834500D01*
X142916662Y-66771500D01*
X142962781Y-66725381D01*
X143025781Y-66708500D01*
X143095485Y-66708500D01*
X143095487Y-66708500D01*
X143135476Y-66700000D01*
X146086496Y-66700000D01*
X146106458Y-66889929D01*
X146165472Y-67071556D01*
X146260958Y-67236942D01*
X146302540Y-67283123D01*
X146388747Y-67378866D01*
X146543248Y-67491118D01*
X146717712Y-67568794D01*
X146904513Y-67608500D01*
X147095485Y-67608500D01*
X147095487Y-67608500D01*
X147282288Y-67568794D01*
X147456752Y-67491118D01*
X147611253Y-67378866D01*
X147739040Y-67236944D01*
X147834527Y-67071556D01*
X147893542Y-66889928D01*
X147913504Y-66700000D01*
X147893542Y-66510072D01*
X147837288Y-66336942D01*
X147834527Y-66328443D01*
X147739041Y-66163057D01*
X147611252Y-66021133D01*
X147456753Y-65908883D01*
X147456752Y-65908882D01*
X147282288Y-65831206D01*
X147095487Y-65791500D01*
X146904513Y-65791500D01*
X146779979Y-65817970D01*
X146717711Y-65831206D01*
X146543246Y-65908883D01*
X146388747Y-66021133D01*
X146260958Y-66163057D01*
X146165472Y-66328443D01*
X146106458Y-66510070D01*
X146086496Y-66700000D01*
X143135476Y-66700000D01*
X143282288Y-66668794D01*
X143456752Y-66591118D01*
X143611253Y-66478866D01*
X143739040Y-66336944D01*
X143834527Y-66171556D01*
X143893542Y-65989928D01*
X143899502Y-65933215D01*
X143924448Y-65870210D01*
X143978426Y-65829237D01*
X144045823Y-65822153D01*
X144107142Y-65851007D01*
X144144644Y-65907452D01*
X144165473Y-65971557D01*
X144260958Y-66136942D01*
X144260960Y-66136944D01*
X144388747Y-66278866D01*
X144543248Y-66391118D01*
X144717712Y-66468794D01*
X144904513Y-66508500D01*
X145095485Y-66508500D01*
X145095487Y-66508500D01*
X145282288Y-66468794D01*
X145456752Y-66391118D01*
X145611253Y-66278866D01*
X145739040Y-66136944D01*
X145834527Y-65971556D01*
X145893542Y-65789928D01*
X145913504Y-65600000D01*
X145893542Y-65410072D01*
X145834527Y-65228444D01*
X145834527Y-65228443D01*
X145739041Y-65063057D01*
X145611252Y-64921133D01*
X145456753Y-64808883D01*
X145456752Y-64808882D01*
X145282288Y-64731206D01*
X145095487Y-64691500D01*
X144904513Y-64691500D01*
X144779979Y-64717970D01*
X144717711Y-64731206D01*
X144543246Y-64808883D01*
X144388747Y-64921133D01*
X144260958Y-65063057D01*
X144165472Y-65228443D01*
X144106458Y-65410070D01*
X144100498Y-65466781D01*
X144075550Y-65529790D01*
X144021571Y-65570762D01*
X143954175Y-65577845D01*
X143892857Y-65548991D01*
X143855355Y-65492546D01*
X143834527Y-65428443D01*
X143739041Y-65263057D01*
X143611252Y-65121133D01*
X143456753Y-65008883D01*
X143456752Y-65008882D01*
X143282288Y-64931206D01*
X143095487Y-64891500D01*
X142904513Y-64891500D01*
X142779979Y-64917970D01*
X142717711Y-64931206D01*
X142543246Y-65008883D01*
X142388747Y-65121133D01*
X142260958Y-65263057D01*
X142165472Y-65428443D01*
X142106458Y-65610070D01*
X142086496Y-65800000D01*
X142106458Y-65989929D01*
X142165472Y-66171556D01*
X142183338Y-66202500D01*
X142200219Y-66265500D01*
X142183338Y-66328500D01*
X142137219Y-66374619D01*
X142074219Y-66391500D01*
X142004513Y-66391500D01*
X141879978Y-66417970D01*
X141817711Y-66431206D01*
X141643246Y-66508883D01*
X141488747Y-66621133D01*
X141360958Y-66763057D01*
X141265472Y-66928443D01*
X141206458Y-67110070D01*
X141186496Y-67299999D01*
X141206458Y-67489929D01*
X141265472Y-67671556D01*
X141360958Y-67836942D01*
X141360960Y-67836944D01*
X141488747Y-67978866D01*
X141643248Y-68091118D01*
X141817712Y-68168794D01*
X142004513Y-68208500D01*
X142195485Y-68208500D01*
X142195487Y-68208500D01*
X142382288Y-68168794D01*
X142382290Y-68168793D01*
X142395242Y-68166040D01*
X142395821Y-68168765D01*
X142443352Y-68161842D01*
X142506124Y-68188679D01*
X142545686Y-68244315D01*
X142550424Y-68312419D01*
X142506053Y-68525942D01*
X142487308Y-68800000D01*
X142495773Y-68923765D01*
X142483731Y-68986737D01*
X142442259Y-69035631D01*
X142382097Y-69057787D01*
X142318819Y-69047470D01*
X142282291Y-69031207D01*
X142282289Y-69031206D01*
X142282288Y-69031206D01*
X142095487Y-68991500D01*
X141904513Y-68991500D01*
X141779979Y-69017970D01*
X141717711Y-69031206D01*
X141543246Y-69108883D01*
X141388747Y-69221133D01*
X141260958Y-69363057D01*
X141165472Y-69528443D01*
X141106458Y-69710070D01*
X141091278Y-69854498D01*
X141086496Y-69900000D01*
X137182010Y-69900000D01*
X137220111Y-69846023D01*
X137346523Y-69602058D01*
X137438538Y-69343153D01*
X137494442Y-69074130D01*
X137513193Y-68800000D01*
X137494442Y-68525870D01*
X137438538Y-68256847D01*
X137346523Y-67997942D01*
X137220111Y-67753977D01*
X137061657Y-67529498D01*
X136874111Y-67328686D01*
X136660969Y-67155282D01*
X136426200Y-67012516D01*
X136174177Y-66903047D01*
X135909596Y-66828915D01*
X135909594Y-66828914D01*
X135909588Y-66828913D01*
X135637388Y-66791500D01*
X135637385Y-66791500D01*
X135362615Y-66791500D01*
X135362612Y-66791500D01*
X135090411Y-66828913D01*
X135090403Y-66828915D01*
X135090404Y-66828915D01*
X134825823Y-66903047D01*
X134825821Y-66903047D01*
X134825820Y-66903048D01*
X134573801Y-67012515D01*
X134339030Y-67155282D01*
X134125887Y-67328687D01*
X133938343Y-67529497D01*
X133779889Y-67753975D01*
X133653476Y-67997942D01*
X133576941Y-68213293D01*
X133561462Y-68256847D01*
X133523238Y-68440790D01*
X133505557Y-68525875D01*
X133486807Y-68799999D01*
X119831946Y-68799999D01*
X119873803Y-68708407D01*
X119949722Y-68464673D01*
X119994236Y-68213299D01*
X119999280Y-68110596D01*
X120000500Y-68105674D01*
X120000500Y-68088941D01*
X120000658Y-68082636D01*
X120002449Y-68046872D01*
X120000500Y-68036447D01*
X120000500Y-52067959D01*
X120001090Y-52064965D01*
X120000509Y-52016454D01*
X120000500Y-52014943D01*
X120000500Y-51992832D01*
X120000154Y-51991164D01*
X119998794Y-51884224D01*
X119961799Y-51623856D01*
X119891716Y-51370384D01*
X119831283Y-51226792D01*
X119789704Y-51127995D01*
X119657445Y-50900691D01*
X119657444Y-50900689D01*
X119497125Y-50692224D01*
X119404946Y-50599822D01*
X119311389Y-50506038D01*
X119103318Y-50345220D01*
X118876332Y-50212411D01*
X118634194Y-50109814D01*
X118380888Y-50039117D01*
X118120612Y-50001492D01*
X118055085Y-50000499D01*
X118008693Y-49999795D01*
X118006954Y-49999500D01*
X117990045Y-49999500D01*
X117988278Y-49999488D01*
X117940418Y-49998816D01*
X117936954Y-49999500D01*
X89052174Y-49999500D01*
X89048710Y-49998817D01*
X88868860Y-50001302D01*
X88609301Y-50039052D01*
X88356853Y-50110219D01*
X88115792Y-50213596D01*
X87890215Y-50347425D01*
X87683947Y-50509439D01*
X87500480Y-50696892D01*
X87342943Y-50906592D01*
X87213991Y-51135001D01*
X87115821Y-51378227D01*
X87050099Y-51632145D01*
X87017937Y-51892457D01*
X87018941Y-52022938D01*
X87018945Y-52024122D01*
X86999541Y-63375412D01*
X86999400Y-63376134D01*
X72100500Y-63376134D01*
X72100500Y-45264706D01*
X82444502Y-45264706D01*
X82455307Y-45274940D01*
X82740860Y-45492013D01*
X83048233Y-45676953D01*
X83373782Y-45827568D01*
X83713715Y-45942105D01*
X84064040Y-46019217D01*
X84420642Y-46058000D01*
X84779358Y-46058000D01*
X85135959Y-46019217D01*
X85486284Y-45942105D01*
X85826217Y-45827568D01*
X86151766Y-45676953D01*
X86459139Y-45492013D01*
X86744693Y-45274939D01*
X86755496Y-45264706D01*
X137444502Y-45264706D01*
X137455307Y-45274940D01*
X137740860Y-45492013D01*
X138048233Y-45676953D01*
X138373782Y-45827568D01*
X138713715Y-45942105D01*
X139064040Y-46019217D01*
X139420642Y-46058000D01*
X139779358Y-46058000D01*
X140135959Y-46019217D01*
X140486284Y-45942105D01*
X140826217Y-45827568D01*
X141151766Y-45676953D01*
X141459139Y-45492013D01*
X141744693Y-45274939D01*
X141755496Y-45264706D01*
X139600001Y-43109210D01*
X139599999Y-43109210D01*
X137444502Y-45264706D01*
X86755496Y-45264706D01*
X84600001Y-43109210D01*
X84599999Y-43109210D01*
X82444502Y-45264706D01*
X72100500Y-45264706D01*
X72100500Y-42750000D01*
X81287140Y-42750000D01*
X81306561Y-43108183D01*
X81364593Y-43462166D01*
X81460557Y-43807797D01*
X81593331Y-44141032D01*
X81761352Y-44457955D01*
X81962655Y-44754854D01*
X82088168Y-44902620D01*
X84240789Y-42750001D01*
X84959210Y-42750001D01*
X87111831Y-44902620D01*
X87237344Y-44754854D01*
X87438647Y-44457955D01*
X87606668Y-44141032D01*
X87739442Y-43807797D01*
X87835406Y-43462166D01*
X87893438Y-43108183D01*
X87912859Y-42750000D01*
X87912859Y-42749999D01*
X136287140Y-42749999D01*
X136306561Y-43108183D01*
X136364593Y-43462166D01*
X136460557Y-43807797D01*
X136593331Y-44141032D01*
X136761352Y-44457955D01*
X136962655Y-44754854D01*
X137088168Y-44902620D01*
X139240789Y-42750001D01*
X139959210Y-42750001D01*
X142111831Y-44902620D01*
X142237344Y-44754854D01*
X142438647Y-44457955D01*
X142606668Y-44141032D01*
X142739442Y-43807797D01*
X142835406Y-43462166D01*
X142893438Y-43108183D01*
X142912859Y-42749999D01*
X142893438Y-42391816D01*
X142835406Y-42037833D01*
X142739442Y-41692202D01*
X142606668Y-41358967D01*
X142438647Y-41042044D01*
X142237341Y-40745140D01*
X142111831Y-40597377D01*
X139959210Y-42749999D01*
X139959210Y-42750001D01*
X139240789Y-42750001D01*
X139240789Y-42749999D01*
X137088167Y-40597377D01*
X137088166Y-40597378D01*
X136962658Y-40745139D01*
X136761352Y-41042044D01*
X136593331Y-41358967D01*
X136460557Y-41692202D01*
X136364593Y-42037833D01*
X136306561Y-42391816D01*
X136287140Y-42749999D01*
X87912859Y-42749999D01*
X87893438Y-42391816D01*
X87835406Y-42037833D01*
X87739442Y-41692202D01*
X87606668Y-41358967D01*
X87438647Y-41042044D01*
X87237341Y-40745140D01*
X87111831Y-40597377D01*
X84959210Y-42749999D01*
X84959210Y-42750001D01*
X84240789Y-42750001D01*
X84240789Y-42749999D01*
X82088167Y-40597377D01*
X82088166Y-40597378D01*
X81962658Y-40745139D01*
X81761352Y-41042044D01*
X81593331Y-41358967D01*
X81460557Y-41692202D01*
X81364593Y-42037833D01*
X81306561Y-42391816D01*
X81287140Y-42750000D01*
X72100500Y-42750000D01*
X72100500Y-40235292D01*
X82444502Y-40235292D01*
X84599999Y-42390789D01*
X84600001Y-42390789D01*
X86755496Y-40235292D01*
X137444502Y-40235292D01*
X139599999Y-42390789D01*
X139600001Y-42390789D01*
X141755496Y-40235292D01*
X141744692Y-40225059D01*
X141459139Y-40007986D01*
X141151766Y-39823046D01*
X140826217Y-39672431D01*
X140486284Y-39557894D01*
X140135959Y-39480782D01*
X139779358Y-39442000D01*
X139420642Y-39442000D01*
X139064040Y-39480782D01*
X138713715Y-39557894D01*
X138373782Y-39672431D01*
X138048233Y-39823046D01*
X137740860Y-40007986D01*
X137455303Y-40225062D01*
X137444502Y-40235292D01*
X86755496Y-40235292D01*
X86744692Y-40225059D01*
X86459139Y-40007986D01*
X86151766Y-39823046D01*
X85826217Y-39672431D01*
X85486284Y-39557894D01*
X85135959Y-39480782D01*
X84779358Y-39442000D01*
X84420642Y-39442000D01*
X84064040Y-39480782D01*
X83713715Y-39557894D01*
X83373782Y-39672431D01*
X83048233Y-39823046D01*
X82740860Y-40007986D01*
X82455303Y-40225062D01*
X82444502Y-40235292D01*
X72100500Y-40235292D01*
X72100500Y-38876500D01*
X72117381Y-38813500D01*
X72163500Y-38767381D01*
X72226500Y-38750500D01*
X80649901Y-38750500D01*
X80650099Y-38750500D01*
X88649901Y-38750500D01*
X88650099Y-38750500D01*
X135599901Y-38750500D01*
X135600099Y-38750500D01*
X143599901Y-38750500D01*
X143600099Y-38750500D01*
X151973500Y-38750500D01*
X152036500Y-38767381D01*
G37*
G04 #@! TD.AperFunction*
M02*
