M48
; DRILL file {KiCad (6.0.5-0)} date Tuesday, March 07, 2023 at 01:16:25 AM
; FORMAT={-:-/ absolute / metric / decimal}
; #@! TF.CreationDate,2023-03-07T01:16:25-05:00
; #@! TF.GenerationSoftware,Kicad,Pcbnew,(6.0.5-0)
; #@! TF.FileFunction,Plated,1,2,PTH
FMAT,2
METRIC
; #@! TA.AperFunction,Plated,PTH,ViaDrill
T1C0.400
; #@! TA.AperFunction,Plated,PTH,ComponentDrill
T2C2.000
; #@! TA.AperFunction,Plated,PTH,ComponentDrill
T3C3.200
%
G90
G05
T1
X88.8Y-119.5
X88.9Y-122.8
X89.0Y-121.7
X90.1Y-122.7
X92.6Y-124.0
X141.6Y-104.4
X142.0Y-69.9
X142.1Y-67.3
X142.4Y-106.2
X142.5Y-102.4
X143.0Y-65.8
X144.3Y-71.6
X144.3Y-107.1
X144.4Y-101.7
X145.0Y-65.6
X146.4Y-102.2
X146.6Y-106.3
X147.0Y-66.7
X147.0Y-70.7
X147.3Y-104.3
X147.6Y-68.8
T2
X79.5Y-68.8
X79.5Y-104.5
X88.5Y-68.8
X88.5Y-104.5
X107.0Y-75.5
X107.0Y-111.0
X116.0Y-75.5
X116.0Y-111.0
X135.5Y-68.8
X135.5Y-104.5
X144.5Y-68.8
X144.5Y-104.5
T3
X84.6Y-42.75
X84.6Y-138.25
X139.6Y-42.75
X139.6Y-138.25
T0
M30
