G04 #@! TF.GenerationSoftware,KiCad,Pcbnew,(6.0.5-0)*
G04 #@! TF.CreationDate,2023-03-07T01:16:04-05:00*
G04 #@! TF.ProjectId,solar-cell-pcbs-usb,736f6c61-722d-4636-956c-6c2d70636273,3*
G04 #@! TF.SameCoordinates,Original*
G04 #@! TF.FileFunction,Legend,Top*
G04 #@! TF.FilePolarity,Positive*
%FSLAX46Y46*%
G04 Gerber Fmt 4.6, Leading zero omitted, Abs format (unit mm)*
G04 Created by KiCad (PCBNEW (6.0.5-0)) date 2023-03-07 01:16:04*
%MOMM*%
%LPD*%
G01*
G04 APERTURE LIST*
%ADD10C,0.300000*%
%ADD11C,0.120000*%
%ADD12C,0.100000*%
%ADD13C,5.600000*%
%ADD14C,3.000000*%
%ADD15R,1.700000X2.500000*%
G04 APERTURE END LIST*
D10*
X105457142Y-115114285D02*
X107742857Y-115114285D01*
X106600000Y-116257142D02*
X106600000Y-113971428D01*
X143957142Y-73114285D02*
X146242857Y-73114285D01*
X87557142Y-108714285D02*
X89842857Y-108714285D01*
X105857142Y-79714285D02*
X108142857Y-79714285D01*
X107000000Y-80857142D02*
X107000000Y-78571428D01*
X77857142Y-108614285D02*
X80142857Y-108614285D01*
X79000000Y-109757142D02*
X79000000Y-107471428D01*
X87957142Y-73114285D02*
X90242857Y-73114285D01*
X133957142Y-73014285D02*
X136242857Y-73014285D01*
X135100000Y-74157142D02*
X135100000Y-71871428D01*
X133957142Y-108614285D02*
X136242857Y-108614285D01*
X135100000Y-109757142D02*
X135100000Y-107471428D01*
X114957142Y-115014285D02*
X117242857Y-115014285D01*
X143937142Y-108824285D02*
X146222857Y-108824285D01*
X115437142Y-79824285D02*
X117722857Y-79824285D01*
X79414285Y-73842857D02*
X79414285Y-71557142D01*
X80557142Y-72700000D02*
X78271428Y-72700000D01*
X95000000Y-100000000D02*
X95000000Y-135000000D01*
X95000000Y-135000000D02*
X73000000Y-135000000D01*
X73000000Y-135000000D02*
X73000000Y-100000000D01*
X73000000Y-100000000D02*
X95000000Y-100000000D01*
X129000000Y-100000000D02*
X151000000Y-100000000D01*
X151000000Y-135000000D02*
X129000000Y-135000000D01*
X151000000Y-100000000D02*
X151000000Y-135000000D01*
X129000000Y-135000000D02*
X129000000Y-100000000D01*
D11*
X96350000Y-115375000D02*
X96350000Y-110625000D01*
X99250000Y-115375000D02*
X99250000Y-110625000D01*
X99250000Y-115375000D02*
X96350000Y-115375000D01*
X99250000Y-110625000D02*
X96350000Y-110625000D01*
X96987200Y-113431800D02*
X98536600Y-113431800D01*
G36*
X97774600Y-113304800D02*
G01*
X97165000Y-112492000D01*
X98511200Y-112492000D01*
X97774600Y-113304800D01*
G37*
D12*
X97774600Y-113304800D02*
X97165000Y-112492000D01*
X98511200Y-112492000D01*
X97774600Y-113304800D01*
D10*
X100500000Y-106000000D02*
X100500000Y-71000000D01*
X100500000Y-71000000D02*
X122500000Y-71000000D01*
X122500000Y-106000000D02*
X100500000Y-106000000D01*
X122500000Y-71000000D02*
X122500000Y-106000000D01*
X122500000Y-141500000D02*
X100500000Y-141500000D01*
X122500000Y-106500000D02*
X122500000Y-141500000D01*
X100500000Y-106500000D02*
X122500000Y-106500000D01*
X100500000Y-141500000D02*
X100500000Y-106500000D01*
D11*
X96987200Y-122431800D02*
X98536600Y-122431800D01*
X99250000Y-124375000D02*
X99250000Y-119625000D01*
X96350000Y-124375000D02*
X96350000Y-119625000D01*
X99250000Y-124375000D02*
X96350000Y-124375000D01*
X99250000Y-119625000D02*
X96350000Y-119625000D01*
G36*
X97774600Y-122304800D02*
G01*
X97165000Y-121492000D01*
X98511200Y-121492000D01*
X97774600Y-122304800D01*
G37*
D12*
X97774600Y-122304800D02*
X97165000Y-121492000D01*
X98511200Y-121492000D01*
X97774600Y-122304800D01*
D10*
X95000000Y-64300000D02*
X95000000Y-99300000D01*
X73000000Y-99300000D02*
X73000000Y-64300000D01*
X95000000Y-99300000D02*
X73000000Y-99300000D01*
X73000000Y-64300000D02*
X95000000Y-64300000D01*
X129000000Y-99300000D02*
X129000000Y-64300000D01*
X129000000Y-64300000D02*
X151000000Y-64300000D01*
X151000000Y-64300000D02*
X151000000Y-99300000D01*
X151000000Y-99300000D02*
X129000000Y-99300000D01*
%LPC*%
D13*
X84600000Y-42750000D03*
D14*
X79500000Y-104500000D03*
X88500000Y-104500000D03*
X135500000Y-104500000D03*
X144500000Y-104500000D03*
D15*
X97800000Y-115000000D03*
X97800000Y-111000000D03*
D13*
X139600000Y-138250000D03*
D14*
X107000000Y-75500000D03*
X116000000Y-75500000D03*
X107000000Y-111000000D03*
X116000000Y-111000000D03*
D15*
X97800000Y-124000000D03*
X97800000Y-120000000D03*
D13*
X84600000Y-138250000D03*
D14*
X79500000Y-68800000D03*
X88500000Y-68800000D03*
D13*
X139600000Y-42750000D03*
D14*
X135500000Y-68800000D03*
X144500000Y-68800000D03*
M02*
