%FSLAX45Y45*%
G04 Gerber Fmt 4.5, Leading zero omitted, Abs format (unit mm)*
G04 Created by KiCad (PCBNEW (6.0.5-0)) date 2022-12-26 00:14:26*
%MOMM*%
%LPD*%
G01*
G04 APERTURE LIST*
%TA.AperFunction,Profile*%
%ADD10C,0.100000*%
%TD*%
%ADD11C,0.200000*%
%ADD12C,0.100000*%
%ADD13C,0.150000*%
%ADD14C,0.320000*%
G04 APERTURE END LIST*
D10*
X14360000Y-3875000D02*
X15210000Y-3875000D01*
X8060000Y-14225000D02*
X8860000Y-14225000D01*
X13560000Y-14225000D02*
X8860000Y-14225000D01*
X8065000Y-3875000D02*
X8865000Y-3875000D01*
X13560000Y-3875000D02*
X14360000Y-3875000D01*
X15210000Y-3875000D02*
X15210000Y-14225000D01*
X8060000Y-14225000D02*
X7210000Y-14225000D01*
X14360000Y-14225000D02*
X15210000Y-14225000D01*
X13560000Y-14225000D02*
X14360000Y-14225000D01*
X8865000Y-3875000D02*
X13560000Y-3875000D01*
X8065000Y-3875000D02*
X7210000Y-3875000D01*
X7210000Y-14225000D02*
X7210000Y-3875000D01*
D11*
D12*
X7545000Y-5275000D02*
X7645000Y-5375000D01*
X7645000Y-5275000D02*
X7545000Y-5375000D01*
X7550000Y-4765000D02*
X7650000Y-4865000D01*
X7650000Y-4765000D02*
X7550000Y-4865000D01*
D13*
X8335000Y-6830000D02*
G75*
G03*
X8335000Y-6830000I-75000J0D01*
G01*
X8335000Y-11270000D02*
G75*
G03*
X8335000Y-11270000I-75000J0D01*
G01*
D14*
X8460000Y-4115000D02*
X8460000Y-4435000D01*
X8300000Y-4275000D02*
X8620000Y-4275000D01*
X8460000Y-13665000D02*
X8460000Y-13985000D01*
X8300000Y-13825000D02*
X8620000Y-13825000D01*
X9835000Y-4115000D02*
X9835000Y-4435000D01*
X9675000Y-4275000D02*
X9995000Y-4275000D01*
X9835000Y-13665000D02*
X9835000Y-13985000D01*
X9675000Y-13825000D02*
X9995000Y-13825000D01*
X12585000Y-4115000D02*
X12585000Y-4435000D01*
X12425000Y-4275000D02*
X12745000Y-4275000D01*
X12585000Y-13665000D02*
X12585000Y-13985000D01*
X12425000Y-13825000D02*
X12745000Y-13825000D01*
X13960000Y-4115000D02*
X13960000Y-4435000D01*
X13800000Y-4275000D02*
X14120000Y-4275000D01*
X13960000Y-13665000D02*
X13960000Y-13985000D01*
X13800000Y-13825000D02*
X14120000Y-13825000D01*
D11*
X7462619Y-14540476D02*
X7462619Y-14340476D01*
X7510238Y-14340476D01*
X7538809Y-14350000D01*
X7557857Y-14369048D01*
X7567381Y-14388095D01*
X7576905Y-14426190D01*
X7576905Y-14454762D01*
X7567381Y-14492857D01*
X7557857Y-14511905D01*
X7538809Y-14530952D01*
X7510238Y-14540476D01*
X7462619Y-14540476D01*
X7662619Y-14540476D02*
X7662619Y-14407143D01*
X7662619Y-14445238D02*
X7672143Y-14426190D01*
X7681667Y-14416667D01*
X7700714Y-14407143D01*
X7719762Y-14407143D01*
X7786428Y-14540476D02*
X7786428Y-14407143D01*
X7786428Y-14340476D02*
X7776905Y-14350000D01*
X7786428Y-14359524D01*
X7795952Y-14350000D01*
X7786428Y-14340476D01*
X7786428Y-14359524D01*
X7910238Y-14540476D02*
X7891190Y-14530952D01*
X7881667Y-14511905D01*
X7881667Y-14340476D01*
X8015000Y-14540476D02*
X7995952Y-14530952D01*
X7986428Y-14511905D01*
X7986428Y-14340476D01*
X8243571Y-14540476D02*
X8243571Y-14340476D01*
X8310238Y-14483333D01*
X8376905Y-14340476D01*
X8376905Y-14540476D01*
X8557857Y-14540476D02*
X8557857Y-14435714D01*
X8548333Y-14416667D01*
X8529286Y-14407143D01*
X8491190Y-14407143D01*
X8472143Y-14416667D01*
X8557857Y-14530952D02*
X8538810Y-14540476D01*
X8491190Y-14540476D01*
X8472143Y-14530952D01*
X8462619Y-14511905D01*
X8462619Y-14492857D01*
X8472143Y-14473809D01*
X8491190Y-14464286D01*
X8538810Y-14464286D01*
X8557857Y-14454762D01*
X8653095Y-14407143D02*
X8653095Y-14607143D01*
X8653095Y-14416667D02*
X8672143Y-14407143D01*
X8710238Y-14407143D01*
X8729286Y-14416667D01*
X8738810Y-14426190D01*
X8748333Y-14445238D01*
X8748333Y-14502381D01*
X8738810Y-14521428D01*
X8729286Y-14530952D01*
X8710238Y-14540476D01*
X8672143Y-14540476D01*
X8653095Y-14530952D01*
X8834048Y-14521428D02*
X8843571Y-14530952D01*
X8834048Y-14540476D01*
X8824524Y-14530952D01*
X8834048Y-14521428D01*
X8834048Y-14540476D01*
X8834048Y-14416667D02*
X8843571Y-14426190D01*
X8834048Y-14435714D01*
X8824524Y-14426190D01*
X8834048Y-14416667D01*
X8834048Y-14435714D01*
D12*
X7105000Y-14820000D02*
X7205000Y-14920000D01*
X7205000Y-14820000D02*
X7105000Y-14920000D01*
D11*
X7567381Y-14960476D02*
X7453095Y-14960476D01*
X7510238Y-14960476D02*
X7510238Y-14760476D01*
X7491190Y-14789048D01*
X7472143Y-14808095D01*
X7453095Y-14817619D01*
X7653095Y-14941428D02*
X7662619Y-14950952D01*
X7653095Y-14960476D01*
X7643571Y-14950952D01*
X7653095Y-14941428D01*
X7653095Y-14960476D01*
X7786428Y-14760476D02*
X7805476Y-14760476D01*
X7824524Y-14770000D01*
X7834048Y-14779524D01*
X7843571Y-14798571D01*
X7853095Y-14836667D01*
X7853095Y-14884286D01*
X7843571Y-14922381D01*
X7834048Y-14941428D01*
X7824524Y-14950952D01*
X7805476Y-14960476D01*
X7786428Y-14960476D01*
X7767381Y-14950952D01*
X7757857Y-14941428D01*
X7748333Y-14922381D01*
X7738809Y-14884286D01*
X7738809Y-14836667D01*
X7748333Y-14798571D01*
X7757857Y-14779524D01*
X7767381Y-14770000D01*
X7786428Y-14760476D01*
X7976905Y-14760476D02*
X7995952Y-14760476D01*
X8015000Y-14770000D01*
X8024524Y-14779524D01*
X8034048Y-14798571D01*
X8043571Y-14836667D01*
X8043571Y-14884286D01*
X8034048Y-14922381D01*
X8024524Y-14941428D01*
X8015000Y-14950952D01*
X7995952Y-14960476D01*
X7976905Y-14960476D01*
X7957857Y-14950952D01*
X7948333Y-14941428D01*
X7938809Y-14922381D01*
X7929286Y-14884286D01*
X7929286Y-14836667D01*
X7938809Y-14798571D01*
X7948333Y-14779524D01*
X7957857Y-14770000D01*
X7976905Y-14760476D01*
X8167381Y-14760476D02*
X8186428Y-14760476D01*
X8205476Y-14770000D01*
X8215000Y-14779524D01*
X8224524Y-14798571D01*
X8234048Y-14836667D01*
X8234048Y-14884286D01*
X8224524Y-14922381D01*
X8215000Y-14941428D01*
X8205476Y-14950952D01*
X8186428Y-14960476D01*
X8167381Y-14960476D01*
X8148333Y-14950952D01*
X8138809Y-14941428D01*
X8129286Y-14922381D01*
X8119762Y-14884286D01*
X8119762Y-14836667D01*
X8129286Y-14798571D01*
X8138809Y-14779524D01*
X8148333Y-14770000D01*
X8167381Y-14760476D01*
X8319762Y-14960476D02*
X8319762Y-14827143D01*
X8319762Y-14846190D02*
X8329286Y-14836667D01*
X8348333Y-14827143D01*
X8376905Y-14827143D01*
X8395952Y-14836667D01*
X8405476Y-14855714D01*
X8405476Y-14960476D01*
X8405476Y-14855714D02*
X8415000Y-14836667D01*
X8434048Y-14827143D01*
X8462619Y-14827143D01*
X8481667Y-14836667D01*
X8491190Y-14855714D01*
X8491190Y-14960476D01*
X8586429Y-14960476D02*
X8586429Y-14827143D01*
X8586429Y-14846190D02*
X8595952Y-14836667D01*
X8615000Y-14827143D01*
X8643571Y-14827143D01*
X8662619Y-14836667D01*
X8672143Y-14855714D01*
X8672143Y-14960476D01*
X8672143Y-14855714D02*
X8681667Y-14836667D01*
X8700714Y-14827143D01*
X8729286Y-14827143D01*
X8748333Y-14836667D01*
X8757857Y-14855714D01*
X8757857Y-14960476D01*
X9148333Y-14750952D02*
X8976905Y-15008095D01*
X9405476Y-14760476D02*
X9424524Y-14760476D01*
X9443571Y-14770000D01*
X9453095Y-14779524D01*
X9462619Y-14798571D01*
X9472143Y-14836667D01*
X9472143Y-14884286D01*
X9462619Y-14922381D01*
X9453095Y-14941428D01*
X9443571Y-14950952D01*
X9424524Y-14960476D01*
X9405476Y-14960476D01*
X9386429Y-14950952D01*
X9376905Y-14941428D01*
X9367381Y-14922381D01*
X9357857Y-14884286D01*
X9357857Y-14836667D01*
X9367381Y-14798571D01*
X9376905Y-14779524D01*
X9386429Y-14770000D01*
X9405476Y-14760476D01*
X9557857Y-14941428D02*
X9567381Y-14950952D01*
X9557857Y-14960476D01*
X9548333Y-14950952D01*
X9557857Y-14941428D01*
X9557857Y-14960476D01*
X9691190Y-14760476D02*
X9710238Y-14760476D01*
X9729286Y-14770000D01*
X9738810Y-14779524D01*
X9748333Y-14798571D01*
X9757857Y-14836667D01*
X9757857Y-14884286D01*
X9748333Y-14922381D01*
X9738810Y-14941428D01*
X9729286Y-14950952D01*
X9710238Y-14960476D01*
X9691190Y-14960476D01*
X9672143Y-14950952D01*
X9662619Y-14941428D01*
X9653095Y-14922381D01*
X9643571Y-14884286D01*
X9643571Y-14836667D01*
X9653095Y-14798571D01*
X9662619Y-14779524D01*
X9672143Y-14770000D01*
X9691190Y-14760476D01*
X9824524Y-14760476D02*
X9948333Y-14760476D01*
X9881667Y-14836667D01*
X9910238Y-14836667D01*
X9929286Y-14846190D01*
X9938810Y-14855714D01*
X9948333Y-14874762D01*
X9948333Y-14922381D01*
X9938810Y-14941428D01*
X9929286Y-14950952D01*
X9910238Y-14960476D01*
X9853095Y-14960476D01*
X9834048Y-14950952D01*
X9824524Y-14941428D01*
X10043571Y-14960476D02*
X10081667Y-14960476D01*
X10100714Y-14950952D01*
X10110238Y-14941428D01*
X10129286Y-14912857D01*
X10138810Y-14874762D01*
X10138810Y-14798571D01*
X10129286Y-14779524D01*
X10119762Y-14770000D01*
X10100714Y-14760476D01*
X10062619Y-14760476D01*
X10043571Y-14770000D01*
X10034048Y-14779524D01*
X10024524Y-14798571D01*
X10024524Y-14846190D01*
X10034048Y-14865238D01*
X10043571Y-14874762D01*
X10062619Y-14884286D01*
X10100714Y-14884286D01*
X10119762Y-14874762D01*
X10129286Y-14865238D01*
X10138810Y-14846190D01*
X10310238Y-14827143D02*
X10310238Y-14960476D01*
X10262619Y-14750952D02*
X10215000Y-14893809D01*
X10338810Y-14893809D01*
X10405476Y-14760476D02*
X10405476Y-14798571D01*
X10481667Y-14760476D02*
X10481667Y-14798571D01*
X10776905Y-15036667D02*
X10767381Y-15027143D01*
X10748333Y-14998571D01*
X10738810Y-14979524D01*
X10729286Y-14950952D01*
X10719762Y-14903333D01*
X10719762Y-14865238D01*
X10729286Y-14817619D01*
X10738810Y-14789048D01*
X10748333Y-14770000D01*
X10767381Y-14741428D01*
X10776905Y-14731905D01*
X10843571Y-14779524D02*
X10853095Y-14770000D01*
X10872143Y-14760476D01*
X10919762Y-14760476D01*
X10938810Y-14770000D01*
X10948333Y-14779524D01*
X10957857Y-14798571D01*
X10957857Y-14817619D01*
X10948333Y-14846190D01*
X10834048Y-14960476D01*
X10957857Y-14960476D01*
X11195952Y-14960476D02*
X11195952Y-14760476D01*
X11281667Y-14960476D02*
X11281667Y-14855714D01*
X11272143Y-14836667D01*
X11253095Y-14827143D01*
X11224524Y-14827143D01*
X11205476Y-14836667D01*
X11195952Y-14846190D01*
X11405476Y-14960476D02*
X11386428Y-14950952D01*
X11376905Y-14941428D01*
X11367381Y-14922381D01*
X11367381Y-14865238D01*
X11376905Y-14846190D01*
X11386428Y-14836667D01*
X11405476Y-14827143D01*
X11434048Y-14827143D01*
X11453095Y-14836667D01*
X11462619Y-14846190D01*
X11472143Y-14865238D01*
X11472143Y-14922381D01*
X11462619Y-14941428D01*
X11453095Y-14950952D01*
X11434048Y-14960476D01*
X11405476Y-14960476D01*
X11586428Y-14960476D02*
X11567381Y-14950952D01*
X11557857Y-14931905D01*
X11557857Y-14760476D01*
X11738809Y-14950952D02*
X11719762Y-14960476D01*
X11681667Y-14960476D01*
X11662619Y-14950952D01*
X11653095Y-14931905D01*
X11653095Y-14855714D01*
X11662619Y-14836667D01*
X11681667Y-14827143D01*
X11719762Y-14827143D01*
X11738809Y-14836667D01*
X11748333Y-14855714D01*
X11748333Y-14874762D01*
X11653095Y-14893809D01*
X11824524Y-14950952D02*
X11843571Y-14960476D01*
X11881667Y-14960476D01*
X11900714Y-14950952D01*
X11910238Y-14931905D01*
X11910238Y-14922381D01*
X11900714Y-14903333D01*
X11881667Y-14893809D01*
X11853095Y-14893809D01*
X11834048Y-14884286D01*
X11824524Y-14865238D01*
X11824524Y-14855714D01*
X11834048Y-14836667D01*
X11853095Y-14827143D01*
X11881667Y-14827143D01*
X11900714Y-14836667D01*
X11976905Y-15036667D02*
X11986428Y-15027143D01*
X12005476Y-14998571D01*
X12015000Y-14979524D01*
X12024524Y-14950952D01*
X12034048Y-14903333D01*
X12034048Y-14865238D01*
X12024524Y-14817619D01*
X12015000Y-14789048D01*
X12005476Y-14770000D01*
X11986428Y-14741428D01*
X11976905Y-14731905D01*
D13*
X7205000Y-15134000D02*
G75*
G03*
X7205000Y-15134000I-75000J0D01*
G01*
D11*
X7567381Y-15224476D02*
X7453095Y-15224476D01*
X7510238Y-15224476D02*
X7510238Y-15024476D01*
X7491190Y-15053048D01*
X7472143Y-15072095D01*
X7453095Y-15081619D01*
X7653095Y-15205428D02*
X7662619Y-15214952D01*
X7653095Y-15224476D01*
X7643571Y-15214952D01*
X7653095Y-15205428D01*
X7653095Y-15224476D01*
X7843571Y-15024476D02*
X7748333Y-15024476D01*
X7738809Y-15119714D01*
X7748333Y-15110190D01*
X7767381Y-15100667D01*
X7815000Y-15100667D01*
X7834048Y-15110190D01*
X7843571Y-15119714D01*
X7853095Y-15138762D01*
X7853095Y-15186381D01*
X7843571Y-15205428D01*
X7834048Y-15214952D01*
X7815000Y-15224476D01*
X7767381Y-15224476D01*
X7748333Y-15214952D01*
X7738809Y-15205428D01*
X7976905Y-15024476D02*
X7995952Y-15024476D01*
X8015000Y-15034000D01*
X8024524Y-15043524D01*
X8034048Y-15062571D01*
X8043571Y-15100667D01*
X8043571Y-15148286D01*
X8034048Y-15186381D01*
X8024524Y-15205428D01*
X8015000Y-15214952D01*
X7995952Y-15224476D01*
X7976905Y-15224476D01*
X7957857Y-15214952D01*
X7948333Y-15205428D01*
X7938809Y-15186381D01*
X7929286Y-15148286D01*
X7929286Y-15100667D01*
X7938809Y-15062571D01*
X7948333Y-15043524D01*
X7957857Y-15034000D01*
X7976905Y-15024476D01*
X8167381Y-15024476D02*
X8186428Y-15024476D01*
X8205476Y-15034000D01*
X8215000Y-15043524D01*
X8224524Y-15062571D01*
X8234048Y-15100667D01*
X8234048Y-15148286D01*
X8224524Y-15186381D01*
X8215000Y-15205428D01*
X8205476Y-15214952D01*
X8186428Y-15224476D01*
X8167381Y-15224476D01*
X8148333Y-15214952D01*
X8138809Y-15205428D01*
X8129286Y-15186381D01*
X8119762Y-15148286D01*
X8119762Y-15100667D01*
X8129286Y-15062571D01*
X8138809Y-15043524D01*
X8148333Y-15034000D01*
X8167381Y-15024476D01*
X8319762Y-15224476D02*
X8319762Y-15091143D01*
X8319762Y-15110190D02*
X8329286Y-15100667D01*
X8348333Y-15091143D01*
X8376905Y-15091143D01*
X8395952Y-15100667D01*
X8405476Y-15119714D01*
X8405476Y-15224476D01*
X8405476Y-15119714D02*
X8415000Y-15100667D01*
X8434048Y-15091143D01*
X8462619Y-15091143D01*
X8481667Y-15100667D01*
X8491190Y-15119714D01*
X8491190Y-15224476D01*
X8586429Y-15224476D02*
X8586429Y-15091143D01*
X8586429Y-15110190D02*
X8595952Y-15100667D01*
X8615000Y-15091143D01*
X8643571Y-15091143D01*
X8662619Y-15100667D01*
X8672143Y-15119714D01*
X8672143Y-15224476D01*
X8672143Y-15119714D02*
X8681667Y-15100667D01*
X8700714Y-15091143D01*
X8729286Y-15091143D01*
X8748333Y-15100667D01*
X8757857Y-15119714D01*
X8757857Y-15224476D01*
X9148333Y-15014952D02*
X8976905Y-15272095D01*
X9405476Y-15024476D02*
X9424524Y-15024476D01*
X9443571Y-15034000D01*
X9453095Y-15043524D01*
X9462619Y-15062571D01*
X9472143Y-15100667D01*
X9472143Y-15148286D01*
X9462619Y-15186381D01*
X9453095Y-15205428D01*
X9443571Y-15214952D01*
X9424524Y-15224476D01*
X9405476Y-15224476D01*
X9386429Y-15214952D01*
X9376905Y-15205428D01*
X9367381Y-15186381D01*
X9357857Y-15148286D01*
X9357857Y-15100667D01*
X9367381Y-15062571D01*
X9376905Y-15043524D01*
X9386429Y-15034000D01*
X9405476Y-15024476D01*
X9557857Y-15205428D02*
X9567381Y-15214952D01*
X9557857Y-15224476D01*
X9548333Y-15214952D01*
X9557857Y-15205428D01*
X9557857Y-15224476D01*
X9691190Y-15024476D02*
X9710238Y-15024476D01*
X9729286Y-15034000D01*
X9738810Y-15043524D01*
X9748333Y-15062571D01*
X9757857Y-15100667D01*
X9757857Y-15148286D01*
X9748333Y-15186381D01*
X9738810Y-15205428D01*
X9729286Y-15214952D01*
X9710238Y-15224476D01*
X9691190Y-15224476D01*
X9672143Y-15214952D01*
X9662619Y-15205428D01*
X9653095Y-15186381D01*
X9643571Y-15148286D01*
X9643571Y-15100667D01*
X9653095Y-15062571D01*
X9662619Y-15043524D01*
X9672143Y-15034000D01*
X9691190Y-15024476D01*
X9938810Y-15024476D02*
X9843571Y-15024476D01*
X9834048Y-15119714D01*
X9843571Y-15110190D01*
X9862619Y-15100667D01*
X9910238Y-15100667D01*
X9929286Y-15110190D01*
X9938810Y-15119714D01*
X9948333Y-15138762D01*
X9948333Y-15186381D01*
X9938810Y-15205428D01*
X9929286Y-15214952D01*
X9910238Y-15224476D01*
X9862619Y-15224476D01*
X9843571Y-15214952D01*
X9834048Y-15205428D01*
X10043571Y-15224476D02*
X10081667Y-15224476D01*
X10100714Y-15214952D01*
X10110238Y-15205428D01*
X10129286Y-15176857D01*
X10138810Y-15138762D01*
X10138810Y-15062571D01*
X10129286Y-15043524D01*
X10119762Y-15034000D01*
X10100714Y-15024476D01*
X10062619Y-15024476D01*
X10043571Y-15034000D01*
X10034048Y-15043524D01*
X10024524Y-15062571D01*
X10024524Y-15110190D01*
X10034048Y-15129238D01*
X10043571Y-15138762D01*
X10062619Y-15148286D01*
X10100714Y-15148286D01*
X10119762Y-15138762D01*
X10129286Y-15129238D01*
X10138810Y-15110190D01*
X10329286Y-15224476D02*
X10215000Y-15224476D01*
X10272143Y-15224476D02*
X10272143Y-15024476D01*
X10253095Y-15053048D01*
X10234048Y-15072095D01*
X10215000Y-15081619D01*
X10405476Y-15024476D02*
X10405476Y-15062571D01*
X10481667Y-15024476D02*
X10481667Y-15062571D01*
X10776905Y-15300667D02*
X10767381Y-15291143D01*
X10748333Y-15262571D01*
X10738810Y-15243524D01*
X10729286Y-15214952D01*
X10719762Y-15167333D01*
X10719762Y-15129238D01*
X10729286Y-15081619D01*
X10738810Y-15053048D01*
X10748333Y-15034000D01*
X10767381Y-15005428D01*
X10776905Y-14995905D01*
X10843571Y-15043524D02*
X10853095Y-15034000D01*
X10872143Y-15024476D01*
X10919762Y-15024476D01*
X10938810Y-15034000D01*
X10948333Y-15043524D01*
X10957857Y-15062571D01*
X10957857Y-15081619D01*
X10948333Y-15110190D01*
X10834048Y-15224476D01*
X10957857Y-15224476D01*
X11195952Y-15224476D02*
X11195952Y-15024476D01*
X11281667Y-15224476D02*
X11281667Y-15119714D01*
X11272143Y-15100667D01*
X11253095Y-15091143D01*
X11224524Y-15091143D01*
X11205476Y-15100667D01*
X11195952Y-15110190D01*
X11405476Y-15224476D02*
X11386428Y-15214952D01*
X11376905Y-15205428D01*
X11367381Y-15186381D01*
X11367381Y-15129238D01*
X11376905Y-15110190D01*
X11386428Y-15100667D01*
X11405476Y-15091143D01*
X11434048Y-15091143D01*
X11453095Y-15100667D01*
X11462619Y-15110190D01*
X11472143Y-15129238D01*
X11472143Y-15186381D01*
X11462619Y-15205428D01*
X11453095Y-15214952D01*
X11434048Y-15224476D01*
X11405476Y-15224476D01*
X11586428Y-15224476D02*
X11567381Y-15214952D01*
X11557857Y-15195905D01*
X11557857Y-15024476D01*
X11738809Y-15214952D02*
X11719762Y-15224476D01*
X11681667Y-15224476D01*
X11662619Y-15214952D01*
X11653095Y-15195905D01*
X11653095Y-15119714D01*
X11662619Y-15100667D01*
X11681667Y-15091143D01*
X11719762Y-15091143D01*
X11738809Y-15100667D01*
X11748333Y-15119714D01*
X11748333Y-15138762D01*
X11653095Y-15157809D01*
X11824524Y-15214952D02*
X11843571Y-15224476D01*
X11881667Y-15224476D01*
X11900714Y-15214952D01*
X11910238Y-15195905D01*
X11910238Y-15186381D01*
X11900714Y-15167333D01*
X11881667Y-15157809D01*
X11853095Y-15157809D01*
X11834048Y-15148286D01*
X11824524Y-15129238D01*
X11824524Y-15119714D01*
X11834048Y-15100667D01*
X11853095Y-15091143D01*
X11881667Y-15091143D01*
X11900714Y-15100667D01*
X11976905Y-15300667D02*
X11986428Y-15291143D01*
X12005476Y-15262571D01*
X12015000Y-15243524D01*
X12024524Y-15214952D01*
X12034048Y-15167333D01*
X12034048Y-15129238D01*
X12024524Y-15081619D01*
X12015000Y-15053048D01*
X12005476Y-15034000D01*
X11986428Y-15005428D01*
X11976905Y-14995905D01*
X7105000Y-15304000D02*
X7105000Y-15504000D01*
X7005000Y-15404000D02*
X7205000Y-15404000D01*
X7443571Y-15294476D02*
X7567381Y-15294476D01*
X7500714Y-15370667D01*
X7529286Y-15370667D01*
X7548333Y-15380190D01*
X7557857Y-15389714D01*
X7567381Y-15408762D01*
X7567381Y-15456381D01*
X7557857Y-15475428D01*
X7548333Y-15484952D01*
X7529286Y-15494476D01*
X7472143Y-15494476D01*
X7453095Y-15484952D01*
X7443571Y-15475428D01*
X7653095Y-15475428D02*
X7662619Y-15484952D01*
X7653095Y-15494476D01*
X7643571Y-15484952D01*
X7653095Y-15475428D01*
X7653095Y-15494476D01*
X7738809Y-15313524D02*
X7748333Y-15304000D01*
X7767381Y-15294476D01*
X7815000Y-15294476D01*
X7834048Y-15304000D01*
X7843571Y-15313524D01*
X7853095Y-15332571D01*
X7853095Y-15351619D01*
X7843571Y-15380190D01*
X7729286Y-15494476D01*
X7853095Y-15494476D01*
X7976905Y-15294476D02*
X7995952Y-15294476D01*
X8015000Y-15304000D01*
X8024524Y-15313524D01*
X8034048Y-15332571D01*
X8043571Y-15370667D01*
X8043571Y-15418286D01*
X8034048Y-15456381D01*
X8024524Y-15475428D01*
X8015000Y-15484952D01*
X7995952Y-15494476D01*
X7976905Y-15494476D01*
X7957857Y-15484952D01*
X7948333Y-15475428D01*
X7938809Y-15456381D01*
X7929286Y-15418286D01*
X7929286Y-15370667D01*
X7938809Y-15332571D01*
X7948333Y-15313524D01*
X7957857Y-15304000D01*
X7976905Y-15294476D01*
X8167381Y-15294476D02*
X8186428Y-15294476D01*
X8205476Y-15304000D01*
X8215000Y-15313524D01*
X8224524Y-15332571D01*
X8234048Y-15370667D01*
X8234048Y-15418286D01*
X8224524Y-15456381D01*
X8215000Y-15475428D01*
X8205476Y-15484952D01*
X8186428Y-15494476D01*
X8167381Y-15494476D01*
X8148333Y-15484952D01*
X8138809Y-15475428D01*
X8129286Y-15456381D01*
X8119762Y-15418286D01*
X8119762Y-15370667D01*
X8129286Y-15332571D01*
X8138809Y-15313524D01*
X8148333Y-15304000D01*
X8167381Y-15294476D01*
X8319762Y-15494476D02*
X8319762Y-15361143D01*
X8319762Y-15380190D02*
X8329286Y-15370667D01*
X8348333Y-15361143D01*
X8376905Y-15361143D01*
X8395952Y-15370667D01*
X8405476Y-15389714D01*
X8405476Y-15494476D01*
X8405476Y-15389714D02*
X8415000Y-15370667D01*
X8434048Y-15361143D01*
X8462619Y-15361143D01*
X8481667Y-15370667D01*
X8491190Y-15389714D01*
X8491190Y-15494476D01*
X8586429Y-15494476D02*
X8586429Y-15361143D01*
X8586429Y-15380190D02*
X8595952Y-15370667D01*
X8615000Y-15361143D01*
X8643571Y-15361143D01*
X8662619Y-15370667D01*
X8672143Y-15389714D01*
X8672143Y-15494476D01*
X8672143Y-15389714D02*
X8681667Y-15370667D01*
X8700714Y-15361143D01*
X8729286Y-15361143D01*
X8748333Y-15370667D01*
X8757857Y-15389714D01*
X8757857Y-15494476D01*
X9148333Y-15284952D02*
X8976905Y-15542095D01*
X9405476Y-15294476D02*
X9424524Y-15294476D01*
X9443571Y-15304000D01*
X9453095Y-15313524D01*
X9462619Y-15332571D01*
X9472143Y-15370667D01*
X9472143Y-15418286D01*
X9462619Y-15456381D01*
X9453095Y-15475428D01*
X9443571Y-15484952D01*
X9424524Y-15494476D01*
X9405476Y-15494476D01*
X9386429Y-15484952D01*
X9376905Y-15475428D01*
X9367381Y-15456381D01*
X9357857Y-15418286D01*
X9357857Y-15370667D01*
X9367381Y-15332571D01*
X9376905Y-15313524D01*
X9386429Y-15304000D01*
X9405476Y-15294476D01*
X9557857Y-15475428D02*
X9567381Y-15484952D01*
X9557857Y-15494476D01*
X9548333Y-15484952D01*
X9557857Y-15475428D01*
X9557857Y-15494476D01*
X9757857Y-15494476D02*
X9643571Y-15494476D01*
X9700714Y-15494476D02*
X9700714Y-15294476D01*
X9681667Y-15323048D01*
X9662619Y-15342095D01*
X9643571Y-15351619D01*
X9834048Y-15313524D02*
X9843571Y-15304000D01*
X9862619Y-15294476D01*
X9910238Y-15294476D01*
X9929286Y-15304000D01*
X9938810Y-15313524D01*
X9948333Y-15332571D01*
X9948333Y-15351619D01*
X9938810Y-15380190D01*
X9824524Y-15494476D01*
X9948333Y-15494476D01*
X10119762Y-15294476D02*
X10081667Y-15294476D01*
X10062619Y-15304000D01*
X10053095Y-15313524D01*
X10034048Y-15342095D01*
X10024524Y-15380190D01*
X10024524Y-15456381D01*
X10034048Y-15475428D01*
X10043571Y-15484952D01*
X10062619Y-15494476D01*
X10100714Y-15494476D01*
X10119762Y-15484952D01*
X10129286Y-15475428D01*
X10138810Y-15456381D01*
X10138810Y-15408762D01*
X10129286Y-15389714D01*
X10119762Y-15380190D01*
X10100714Y-15370667D01*
X10062619Y-15370667D01*
X10043571Y-15380190D01*
X10034048Y-15389714D01*
X10024524Y-15408762D01*
X10262619Y-15294476D02*
X10281667Y-15294476D01*
X10300714Y-15304000D01*
X10310238Y-15313524D01*
X10319762Y-15332571D01*
X10329286Y-15370667D01*
X10329286Y-15418286D01*
X10319762Y-15456381D01*
X10310238Y-15475428D01*
X10300714Y-15484952D01*
X10281667Y-15494476D01*
X10262619Y-15494476D01*
X10243571Y-15484952D01*
X10234048Y-15475428D01*
X10224524Y-15456381D01*
X10215000Y-15418286D01*
X10215000Y-15370667D01*
X10224524Y-15332571D01*
X10234048Y-15313524D01*
X10243571Y-15304000D01*
X10262619Y-15294476D01*
X10405476Y-15294476D02*
X10405476Y-15332571D01*
X10481667Y-15294476D02*
X10481667Y-15332571D01*
X10776905Y-15570667D02*
X10767381Y-15561143D01*
X10748333Y-15532571D01*
X10738810Y-15513524D01*
X10729286Y-15484952D01*
X10719762Y-15437333D01*
X10719762Y-15399238D01*
X10729286Y-15351619D01*
X10738810Y-15323048D01*
X10748333Y-15304000D01*
X10767381Y-15275428D01*
X10776905Y-15265905D01*
X10881667Y-15380190D02*
X10862619Y-15370667D01*
X10853095Y-15361143D01*
X10843571Y-15342095D01*
X10843571Y-15332571D01*
X10853095Y-15313524D01*
X10862619Y-15304000D01*
X10881667Y-15294476D01*
X10919762Y-15294476D01*
X10938810Y-15304000D01*
X10948333Y-15313524D01*
X10957857Y-15332571D01*
X10957857Y-15342095D01*
X10948333Y-15361143D01*
X10938810Y-15370667D01*
X10919762Y-15380190D01*
X10881667Y-15380190D01*
X10862619Y-15389714D01*
X10853095Y-15399238D01*
X10843571Y-15418286D01*
X10843571Y-15456381D01*
X10853095Y-15475428D01*
X10862619Y-15484952D01*
X10881667Y-15494476D01*
X10919762Y-15494476D01*
X10938810Y-15484952D01*
X10948333Y-15475428D01*
X10957857Y-15456381D01*
X10957857Y-15418286D01*
X10948333Y-15399238D01*
X10938810Y-15389714D01*
X10919762Y-15380190D01*
X11195952Y-15494476D02*
X11195952Y-15294476D01*
X11281667Y-15494476D02*
X11281667Y-15389714D01*
X11272143Y-15370667D01*
X11253095Y-15361143D01*
X11224524Y-15361143D01*
X11205476Y-15370667D01*
X11195952Y-15380190D01*
X11405476Y-15494476D02*
X11386428Y-15484952D01*
X11376905Y-15475428D01*
X11367381Y-15456381D01*
X11367381Y-15399238D01*
X11376905Y-15380190D01*
X11386428Y-15370667D01*
X11405476Y-15361143D01*
X11434048Y-15361143D01*
X11453095Y-15370667D01*
X11462619Y-15380190D01*
X11472143Y-15399238D01*
X11472143Y-15456381D01*
X11462619Y-15475428D01*
X11453095Y-15484952D01*
X11434048Y-15494476D01*
X11405476Y-15494476D01*
X11586428Y-15494476D02*
X11567381Y-15484952D01*
X11557857Y-15465905D01*
X11557857Y-15294476D01*
X11738809Y-15484952D02*
X11719762Y-15494476D01*
X11681667Y-15494476D01*
X11662619Y-15484952D01*
X11653095Y-15465905D01*
X11653095Y-15389714D01*
X11662619Y-15370667D01*
X11681667Y-15361143D01*
X11719762Y-15361143D01*
X11738809Y-15370667D01*
X11748333Y-15389714D01*
X11748333Y-15408762D01*
X11653095Y-15427809D01*
X11824524Y-15484952D02*
X11843571Y-15494476D01*
X11881667Y-15494476D01*
X11900714Y-15484952D01*
X11910238Y-15465905D01*
X11910238Y-15456381D01*
X11900714Y-15437333D01*
X11881667Y-15427809D01*
X11853095Y-15427809D01*
X11834048Y-15418286D01*
X11824524Y-15399238D01*
X11824524Y-15389714D01*
X11834048Y-15370667D01*
X11853095Y-15361143D01*
X11881667Y-15361143D01*
X11900714Y-15370667D01*
X11976905Y-15570667D02*
X11986428Y-15561143D01*
X12005476Y-15532571D01*
X12015000Y-15513524D01*
X12024524Y-15484952D01*
X12034048Y-15437333D01*
X12034048Y-15399238D01*
X12024524Y-15351619D01*
X12015000Y-15323048D01*
X12005476Y-15304000D01*
X11986428Y-15275428D01*
X11976905Y-15265905D01*
M02*
