G04 #@! TF.GenerationSoftware,KiCad,Pcbnew,(6.0.5-0)*
G04 #@! TF.CreationDate,2022-12-26T00:11:25-05:00*
G04 #@! TF.ProjectId,solar-cell-pcbs-usb,736f6c61-722d-4636-956c-6c2d70636273,2*
G04 #@! TF.SameCoordinates,Original*
G04 #@! TF.FileFunction,Legend,Top*
G04 #@! TF.FilePolarity,Positive*
%FSLAX46Y46*%
G04 Gerber Fmt 4.6, Leading zero omitted, Abs format (unit mm)*
G04 Created by KiCad (PCBNEW (6.0.5-0)) date 2022-12-26 00:11:25*
%MOMM*%
%LPD*%
G01*
G04 APERTURE LIST*
%ADD10C,0.200000*%
%ADD11C,0.300000*%
%ADD12C,0.150000*%
%ADD13C,0.120000*%
%ADD14C,2.000000*%
%ADD15C,5.600000*%
%ADD16C,3.000000*%
G04 APERTURE END LIST*
D10*
X79600000Y-46000000D02*
X144600000Y-46000000D01*
X79600000Y-135000000D02*
X144600000Y-135000000D01*
X79600000Y-135000000D02*
X79600000Y-46000000D01*
X144600000Y-46000000D02*
X144600000Y-135000000D01*
D11*
X107557142Y-132607142D02*
X107771428Y-132678571D01*
X108128571Y-132678571D01*
X108271428Y-132607142D01*
X108342857Y-132535714D01*
X108414285Y-132392857D01*
X108414285Y-132250000D01*
X108342857Y-132107142D01*
X108271428Y-132035714D01*
X108128571Y-131964285D01*
X107842857Y-131892857D01*
X107700000Y-131821428D01*
X107628571Y-131750000D01*
X107557142Y-131607142D01*
X107557142Y-131464285D01*
X107628571Y-131321428D01*
X107700000Y-131250000D01*
X107842857Y-131178571D01*
X108200000Y-131178571D01*
X108414285Y-131250000D01*
X109271428Y-132678571D02*
X109128571Y-132607142D01*
X109057142Y-132535714D01*
X108985714Y-132392857D01*
X108985714Y-131964285D01*
X109057142Y-131821428D01*
X109128571Y-131750000D01*
X109271428Y-131678571D01*
X109485714Y-131678571D01*
X109628571Y-131750000D01*
X109700000Y-131821428D01*
X109771428Y-131964285D01*
X109771428Y-132392857D01*
X109700000Y-132535714D01*
X109628571Y-132607142D01*
X109485714Y-132678571D01*
X109271428Y-132678571D01*
X110628571Y-132678571D02*
X110485714Y-132607142D01*
X110414285Y-132464285D01*
X110414285Y-131178571D01*
X111842857Y-132678571D02*
X111842857Y-131892857D01*
X111771428Y-131750000D01*
X111628571Y-131678571D01*
X111342857Y-131678571D01*
X111200000Y-131750000D01*
X111842857Y-132607142D02*
X111700000Y-132678571D01*
X111342857Y-132678571D01*
X111200000Y-132607142D01*
X111128571Y-132464285D01*
X111128571Y-132321428D01*
X111200000Y-132178571D01*
X111342857Y-132107142D01*
X111700000Y-132107142D01*
X111842857Y-132035714D01*
X112557142Y-132678571D02*
X112557142Y-131678571D01*
X112557142Y-131964285D02*
X112628571Y-131821428D01*
X112700000Y-131750000D01*
X112842857Y-131678571D01*
X112985714Y-131678571D01*
X115485714Y-132535714D02*
X115414285Y-132607142D01*
X115200000Y-132678571D01*
X115057142Y-132678571D01*
X114842857Y-132607142D01*
X114700000Y-132464285D01*
X114628571Y-132321428D01*
X114557142Y-132035714D01*
X114557142Y-131821428D01*
X114628571Y-131535714D01*
X114700000Y-131392857D01*
X114842857Y-131250000D01*
X115057142Y-131178571D01*
X115200000Y-131178571D01*
X115414285Y-131250000D01*
X115485714Y-131321428D01*
X116700000Y-132607142D02*
X116557142Y-132678571D01*
X116271428Y-132678571D01*
X116128571Y-132607142D01*
X116057142Y-132464285D01*
X116057142Y-131892857D01*
X116128571Y-131750000D01*
X116271428Y-131678571D01*
X116557142Y-131678571D01*
X116700000Y-131750000D01*
X116771428Y-131892857D01*
X116771428Y-132035714D01*
X116057142Y-132178571D01*
X117628571Y-132678571D02*
X117485714Y-132607142D01*
X117414285Y-132464285D01*
X117414285Y-131178571D01*
X118414285Y-132678571D02*
X118271428Y-132607142D01*
X118200000Y-132464285D01*
X118200000Y-131178571D01*
D12*
X72645238Y-51795238D02*
X72597619Y-51938095D01*
X72597619Y-52176190D01*
X72645238Y-52271428D01*
X72692857Y-52319047D01*
X72788095Y-52366666D01*
X72883333Y-52366666D01*
X72978571Y-52319047D01*
X73026190Y-52271428D01*
X73073809Y-52176190D01*
X73121428Y-51985714D01*
X73169047Y-51890476D01*
X73216666Y-51842857D01*
X73311904Y-51795238D01*
X73407142Y-51795238D01*
X73502380Y-51842857D01*
X73550000Y-51890476D01*
X73597619Y-51985714D01*
X73597619Y-52223809D01*
X73550000Y-52366666D01*
X72692857Y-53366666D02*
X72645238Y-53319047D01*
X72597619Y-53176190D01*
X72597619Y-53080952D01*
X72645238Y-52938095D01*
X72740476Y-52842857D01*
X72835714Y-52795238D01*
X73026190Y-52747619D01*
X73169047Y-52747619D01*
X73359523Y-52795238D01*
X73454761Y-52842857D01*
X73550000Y-52938095D01*
X73597619Y-53080952D01*
X73597619Y-53176190D01*
X73550000Y-53319047D01*
X73502380Y-53366666D01*
X72978571Y-53795238D02*
X72978571Y-54557142D01*
X72597619Y-54176190D02*
X73359523Y-54176190D01*
X86404761Y-114104761D02*
X86452380Y-113961904D01*
X86452380Y-113723809D01*
X86404761Y-113628571D01*
X86357142Y-113580952D01*
X86261904Y-113533333D01*
X86166666Y-113533333D01*
X86071428Y-113580952D01*
X86023809Y-113628571D01*
X85976190Y-113723809D01*
X85928571Y-113914285D01*
X85880952Y-114009523D01*
X85833333Y-114057142D01*
X85738095Y-114104761D01*
X85642857Y-114104761D01*
X85547619Y-114057142D01*
X85500000Y-114009523D01*
X85452380Y-113914285D01*
X85452380Y-113676190D01*
X85500000Y-113533333D01*
X86357142Y-112533333D02*
X86404761Y-112580952D01*
X86452380Y-112723809D01*
X86452380Y-112819047D01*
X86404761Y-112961904D01*
X86309523Y-113057142D01*
X86214285Y-113104761D01*
X86023809Y-113152380D01*
X85880952Y-113152380D01*
X85690476Y-113104761D01*
X85595238Y-113057142D01*
X85500000Y-112961904D01*
X85452380Y-112819047D01*
X85452380Y-112723809D01*
X85500000Y-112580952D01*
X85547619Y-112533333D01*
X86071428Y-112104761D02*
X86071428Y-111342857D01*
X86452380Y-111723809D02*
X85690476Y-111723809D01*
X72595238Y-46845238D02*
X72547619Y-46988095D01*
X72547619Y-47226190D01*
X72595238Y-47321428D01*
X72642857Y-47369047D01*
X72738095Y-47416666D01*
X72833333Y-47416666D01*
X72928571Y-47369047D01*
X72976190Y-47321428D01*
X73023809Y-47226190D01*
X73071428Y-47035714D01*
X73119047Y-46940476D01*
X73166666Y-46892857D01*
X73261904Y-46845238D01*
X73357142Y-46845238D01*
X73452380Y-46892857D01*
X73500000Y-46940476D01*
X73547619Y-47035714D01*
X73547619Y-47273809D01*
X73500000Y-47416666D01*
X72642857Y-48416666D02*
X72595238Y-48369047D01*
X72547619Y-48226190D01*
X72547619Y-48130952D01*
X72595238Y-47988095D01*
X72690476Y-47892857D01*
X72785714Y-47845238D01*
X72976190Y-47797619D01*
X73119047Y-47797619D01*
X73309523Y-47845238D01*
X73404761Y-47892857D01*
X73500000Y-47988095D01*
X73547619Y-48130952D01*
X73547619Y-48226190D01*
X73500000Y-48369047D01*
X73452380Y-48416666D01*
X72928571Y-48845238D02*
X72928571Y-49607142D01*
X86404761Y-69679761D02*
X86452380Y-69536904D01*
X86452380Y-69298809D01*
X86404761Y-69203571D01*
X86357142Y-69155952D01*
X86261904Y-69108333D01*
X86166666Y-69108333D01*
X86071428Y-69155952D01*
X86023809Y-69203571D01*
X85976190Y-69298809D01*
X85928571Y-69489285D01*
X85880952Y-69584523D01*
X85833333Y-69632142D01*
X85738095Y-69679761D01*
X85642857Y-69679761D01*
X85547619Y-69632142D01*
X85500000Y-69584523D01*
X85452380Y-69489285D01*
X85452380Y-69251190D01*
X85500000Y-69108333D01*
X86357142Y-68108333D02*
X86404761Y-68155952D01*
X86452380Y-68298809D01*
X86452380Y-68394047D01*
X86404761Y-68536904D01*
X86309523Y-68632142D01*
X86214285Y-68679761D01*
X86023809Y-68727380D01*
X85880952Y-68727380D01*
X85690476Y-68679761D01*
X85595238Y-68632142D01*
X85500000Y-68536904D01*
X85452380Y-68394047D01*
X85452380Y-68298809D01*
X85500000Y-68155952D01*
X85547619Y-68108333D01*
X86071428Y-67679761D02*
X86071428Y-66917857D01*
D13*
X77500000Y-53250000D02*
G75*
G03*
X77500000Y-53250000I-1500000J0D01*
G01*
X84350000Y-112700000D02*
G75*
G03*
X84350000Y-112700000I-1750000J0D01*
G01*
X77500000Y-48250000D02*
G75*
G03*
X77500000Y-48250000I-1500000J0D01*
G01*
X84350000Y-68300000D02*
G75*
G03*
X84350000Y-68300000I-1750000J0D01*
G01*
%LPC*%
D14*
X75950000Y-53250000D03*
D15*
X98350000Y-138250000D03*
X84600000Y-42750000D03*
D16*
X82600000Y-112700000D03*
D15*
X139600000Y-138250000D03*
X84600000Y-138250000D03*
X125850000Y-42750000D03*
D14*
X76000000Y-48150000D03*
D16*
X82600000Y-68300000D03*
D15*
X139600000Y-42750000D03*
X98350000Y-42750000D03*
X125850000Y-138250000D03*
M02*
