G04 #@! TF.GenerationSoftware,KiCad,Pcbnew,(6.0.5-0)*
G04 #@! TF.CreationDate,2023-03-07T01:18:02-05:00*
G04 #@! TF.ProjectId,new-solar-cell-burn-wire,6e65772d-736f-46c6-9172-2d63656c6c2d,2*
G04 #@! TF.SameCoordinates,Original*
G04 #@! TF.FileFunction,Profile,NP*
%FSLAX46Y46*%
G04 Gerber Fmt 4.6, Leading zero omitted, Abs format (unit mm)*
G04 Created by KiCad (PCBNEW (6.0.5-0)) date 2023-03-07 01:18:02*
%MOMM*%
%LPD*%
G01*
G04 APERTURE LIST*
G04 #@! TA.AperFunction,Profile*
%ADD10C,0.100000*%
G04 #@! TD*
G04 APERTURE END LIST*
D10*
X135600000Y-142250000D02*
X88600000Y-142250000D01*
X143600000Y-46750000D02*
X143600000Y-49161299D01*
X152100000Y-50100000D02*
X152100000Y-134250000D01*
X80605672Y-130150362D02*
G75*
G03*
X79669331Y-129250000I-936572J-36938D01*
G01*
X135600000Y-142250000D02*
X135600000Y-135900000D01*
X87000000Y-46750000D02*
G75*
G03*
X88650000Y-45100000I0J1650000D01*
G01*
X143600035Y-49161297D02*
G75*
G03*
X144549464Y-50100000I990965J52797D01*
G01*
X137250000Y-134250000D02*
G75*
G03*
X135600000Y-135900000I0J-1650000D01*
G01*
X152100000Y-134250000D02*
X137250000Y-134250000D01*
X88600000Y-135900000D02*
X88600000Y-142250000D01*
X135600000Y-45100000D02*
X135600000Y-38750000D01*
X72100000Y-46750000D02*
X87000000Y-46750000D01*
X88600000Y-135900000D02*
G75*
G03*
X86950000Y-134250000I-1650000J0D01*
G01*
X79669331Y-129250000D02*
X72200000Y-129300000D01*
X86950000Y-134250000D02*
X80600000Y-134250000D01*
X80600000Y-134250000D02*
X80605727Y-130150360D01*
X135600000Y-45100000D02*
G75*
G03*
X137250000Y-46750000I1650000J0D01*
G01*
X88650000Y-38750000D02*
X135600000Y-38750000D01*
X72200000Y-129300000D02*
X72100000Y-46750000D01*
X152100000Y-50100000D02*
X144549464Y-50100000D01*
X88650000Y-38750000D02*
X88650000Y-45100000D01*
X137250000Y-46750000D02*
X143600000Y-46750000D01*
M02*
