G04 #@! TF.GenerationSoftware,KiCad,Pcbnew,7.0.1-0*
G04 #@! TF.CreationDate,2023-03-19T01:45:58-04:00*
G04 #@! TF.ProjectId,new-solar-cell-burn-wire,6e65772d-736f-46c6-9172-2d63656c6c2d,2*
G04 #@! TF.SameCoordinates,Original*
G04 #@! TF.FileFunction,Legend,Bot*
G04 #@! TF.FilePolarity,Positive*
%FSLAX46Y46*%
G04 Gerber Fmt 4.6, Leading zero omitted, Abs format (unit mm)*
G04 Created by KiCad (PCBNEW 7.0.1-0) date 2023-03-19 01:45:58*
%MOMM*%
%LPD*%
G01*
G04 APERTURE LIST*
%ADD10C,0.300000*%
%ADD11C,0.120000*%
%ADD12C,3.000000*%
%ADD13C,5.600000*%
%ADD14R,1.100000X1.450000*%
%ADD15R,1.350000X2.899999*%
G04 APERTURE END LIST*
D10*
X143542857Y-86645000D02*
X141257143Y-86645000D01*
X142400000Y-87787857D02*
X142400000Y-85502142D01*
X81045000Y-106557142D02*
X81045000Y-108842857D01*
X142555000Y-97642857D02*
X142555000Y-95357143D01*
X87657142Y-94755000D02*
X89942857Y-94755000D01*
X88799999Y-93612142D02*
X88799999Y-95897857D01*
X91378571Y-120652500D02*
X92521429Y-120652500D01*
X94571428Y-120672500D02*
X93428571Y-120672500D01*
X93999999Y-121243928D02*
X93999999Y-120101071D01*
X89045000Y-83257142D02*
X89045000Y-85542857D01*
X79957142Y-116555000D02*
X82242857Y-116555000D01*
X81099999Y-115412142D02*
X81099999Y-117697857D01*
X105447142Y-55065000D02*
X107732857Y-55065000D01*
X106589999Y-56207857D02*
X106589999Y-53922142D01*
X106835000Y-66122857D02*
X106835000Y-63837143D01*
X123467142Y-126425000D02*
X125752857Y-126425000D01*
X124609999Y-127567857D02*
X124609999Y-125282142D01*
X124855000Y-117162857D02*
X124855000Y-114877143D01*
X142635000Y-75122857D02*
X142635000Y-72837143D01*
X141247142Y-64065000D02*
X143532857Y-64065000D01*
X142389999Y-65207857D02*
X142389999Y-62922142D01*
D11*
X88371008Y-118550000D02*
X86847008Y-117915000D01*
X97374991Y-114345040D02*
X97374991Y-118975000D01*
X97374991Y-118975000D02*
X94870041Y-118975000D01*
X88625008Y-118975000D02*
X88625008Y-114345040D01*
X86847008Y-117915000D02*
X86847008Y-119185000D01*
X93129961Y-118975000D02*
X92870040Y-118975000D01*
X86847008Y-119185000D02*
X88371008Y-118550000D01*
X91129960Y-118975000D02*
X88625008Y-118975000D01*
X90084018Y-111025000D02*
X95915981Y-111025000D01*
%LPC*%
D12*
X84700000Y-116600000D03*
X84700000Y-107600000D03*
X110700000Y-55400000D03*
X110700000Y-64400000D03*
D13*
X125850000Y-42750000D03*
D12*
X84700000Y-94000000D03*
X84700000Y-85000000D03*
D13*
X98350000Y-42750000D03*
D12*
X146500000Y-87000000D03*
X146500000Y-96000000D03*
D13*
X98350000Y-138250000D03*
X125850000Y-138250000D03*
D12*
X120500000Y-125600000D03*
X120500000Y-116600000D03*
X146500000Y-64400000D03*
X146500000Y-73400000D03*
D14*
X92000000Y-118550000D03*
X94000001Y-118550000D03*
D15*
X89105002Y-112575001D03*
X96894997Y-112575001D03*
M02*
