%TF.GenerationSoftware,KiCad,Pcbnew,7.0.1-0*%
%TF.CreationDate,2023-03-19T01:46:27-04:00*%
%TF.ProjectId,new-solar-cell-burn-wire,6e65772d-736f-46c6-9172-2d63656c6c2d,2*%
%TF.SameCoordinates,Original*%
%TF.FileFunction,Drillmap*%
%TF.FilePolarity,Positive*%
%FSLAX45Y45*%
G04 Gerber Fmt 4.5, Leading zero omitted, Abs format (unit mm)*
G04 Created by KiCad (PCBNEW 7.0.1-0) date 2023-03-19 01:46:27*
%MOMM*%
%LPD*%
G01*
G04 APERTURE LIST*
%ADD10C,0.100000*%
%ADD11C,0.200000*%
%ADD12C,0.040000*%
%ADD13C,0.320000*%
G04 APERTURE END LIST*
D10*
X13560000Y-14225000D02*
X8860000Y-14225000D01*
X14360000Y-4675000D02*
X14360000Y-4916130D01*
X15210000Y-5010000D02*
X15210000Y-13425000D01*
X8060567Y-13015036D02*
G75*
G03*
X7966933Y-12925000I-93657J-3694D01*
G01*
X13560000Y-14225000D02*
X13560000Y-13590000D01*
X8700000Y-4675000D02*
G75*
G03*
X8865000Y-4510000I0J165000D01*
G01*
X14360004Y-4916130D02*
G75*
G03*
X14454946Y-5010000I99096J5280D01*
G01*
X13725000Y-13425000D02*
G75*
G03*
X13560000Y-13590000I0J-165000D01*
G01*
X15210000Y-13425000D02*
X13725000Y-13425000D01*
X8860000Y-13590000D02*
X8860000Y-14225000D01*
X13560000Y-4510000D02*
X13560000Y-3875000D01*
X7210000Y-4675000D02*
X8700000Y-4675000D01*
X8860000Y-13590000D02*
G75*
G03*
X8695000Y-13425000I-165000J0D01*
G01*
X7966933Y-12925000D02*
X7220000Y-12930000D01*
X8695000Y-13425000D02*
X8060000Y-13425000D01*
X8060000Y-13425000D02*
X8060573Y-13015036D01*
X13560000Y-4510000D02*
G75*
G03*
X13725000Y-4675000I165000J0D01*
G01*
X8865000Y-3875000D02*
X13560000Y-3875000D01*
X7220000Y-12930000D02*
X7210000Y-4675000D01*
X15210000Y-5010000D02*
X14454946Y-5010000D01*
X8865000Y-3875000D02*
X8865000Y-4510000D01*
X13725000Y-4675000D02*
X14360000Y-4675000D01*
D11*
D12*
X9715000Y-11835000D02*
X9755000Y-11875000D01*
X9755000Y-11835000D02*
X9715000Y-11875000D01*
X10710000Y-6700000D02*
X10750000Y-6740000D01*
X10750000Y-6700000D02*
X10710000Y-6740000D01*
X10750000Y-6420000D02*
X10790000Y-6460000D01*
X10790000Y-6420000D02*
X10750000Y-6460000D01*
X10780000Y-6580000D02*
X10820000Y-6620000D01*
X10820000Y-6580000D02*
X10780000Y-6620000D01*
X10850000Y-6830000D02*
X10890000Y-6870000D01*
X10890000Y-6830000D02*
X10850000Y-6870000D01*
X10890000Y-6700000D02*
X10930000Y-6740000D01*
X10930000Y-6700000D02*
X10890000Y-6740000D01*
X11030000Y-6860000D02*
X11070000Y-6900000D01*
X11070000Y-6860000D02*
X11030000Y-6900000D01*
X11060000Y-6720000D02*
X11100000Y-6760000D01*
X11100000Y-6720000D02*
X11060000Y-6760000D01*
X11180000Y-6830000D02*
X11220000Y-6870000D01*
X11220000Y-6830000D02*
X11180000Y-6870000D01*
X11220000Y-6660000D02*
X11260000Y-6700000D01*
X11260000Y-6660000D02*
X11220000Y-6700000D01*
X11310000Y-6540000D02*
X11350000Y-6580000D01*
X11350000Y-6540000D02*
X11310000Y-6580000D01*
X11320000Y-6750000D02*
X11360000Y-6790000D01*
X11360000Y-6750000D02*
X11320000Y-6790000D01*
X11330000Y-6400000D02*
X11370000Y-6440000D01*
X11370000Y-6400000D02*
X11330000Y-6440000D01*
X11420000Y-6590000D02*
X11460000Y-6630000D01*
X11460000Y-6590000D02*
X11420000Y-6630000D01*
X14260000Y-7180000D02*
X14300000Y-7220000D01*
X14300000Y-7180000D02*
X14260000Y-7220000D01*
X14290000Y-7070000D02*
X14330000Y-7110000D01*
X14330000Y-7070000D02*
X14290000Y-7110000D01*
X14320000Y-7500000D02*
X14360000Y-7540000D01*
X14360000Y-7500000D02*
X14320000Y-7540000D01*
X14370000Y-7230000D02*
X14410000Y-7270000D01*
X14410000Y-7230000D02*
X14370000Y-7270000D01*
X14370000Y-7390000D02*
X14410000Y-7430000D01*
X14410000Y-7390000D02*
X14370000Y-7430000D01*
X14400000Y-6980000D02*
X14440000Y-7020000D01*
X14440000Y-6980000D02*
X14400000Y-7020000D01*
X14400000Y-7110000D02*
X14440000Y-7150000D01*
X14440000Y-7110000D02*
X14400000Y-7150000D01*
X14400000Y-7610000D02*
X14440000Y-7650000D01*
X14440000Y-7610000D02*
X14400000Y-7650000D01*
X14450000Y-7520000D02*
X14490000Y-7560000D01*
X14490000Y-7520000D02*
X14450000Y-7560000D01*
X14510000Y-7050000D02*
X14550000Y-7090000D01*
X14550000Y-7050000D02*
X14510000Y-7090000D01*
X14520000Y-7660000D02*
X14560000Y-7700000D01*
X14560000Y-7660000D02*
X14520000Y-7700000D01*
X14590000Y-7570000D02*
X14630000Y-7610000D01*
X14630000Y-7570000D02*
X14590000Y-7610000D01*
D11*
X8570000Y-8500000D02*
G75*
G03*
X8570000Y-8500000I-100000J0D01*
G01*
X8570000Y-9400000D02*
G75*
G03*
X8570000Y-9400000I-100000J0D01*
G01*
X8570000Y-10760000D02*
G75*
G03*
X8570000Y-10760000I-100000J0D01*
G01*
X8570000Y-11660000D02*
G75*
G03*
X8570000Y-11660000I-100000J0D01*
G01*
X11170000Y-5540000D02*
G75*
G03*
X11170000Y-5540000I-100000J0D01*
G01*
X11170000Y-6440000D02*
G75*
G03*
X11170000Y-6440000I-100000J0D01*
G01*
X12150000Y-11660000D02*
G75*
G03*
X12150000Y-11660000I-100000J0D01*
G01*
X12150000Y-12560000D02*
G75*
G03*
X12150000Y-12560000I-100000J0D01*
G01*
X14750000Y-6440000D02*
G75*
G03*
X14750000Y-6440000I-100000J0D01*
G01*
X14750000Y-7340000D02*
G75*
G03*
X14750000Y-7340000I-100000J0D01*
G01*
X14750000Y-8700000D02*
G75*
G03*
X14750000Y-8700000I-100000J0D01*
G01*
X14750000Y-9600000D02*
G75*
G03*
X14750000Y-9600000I-100000J0D01*
G01*
D13*
X9835000Y-4115000D02*
X9835000Y-4435000D01*
X9675000Y-4275000D02*
X9995000Y-4275000D01*
X9835000Y-13665000D02*
X9835000Y-13985000D01*
X9675000Y-13825000D02*
X9995000Y-13825000D01*
X12585000Y-4115000D02*
X12585000Y-4435000D01*
X12425000Y-4275000D02*
X12745000Y-4275000D01*
X12585000Y-13665000D02*
X12585000Y-13985000D01*
X12425000Y-13825000D02*
X12745000Y-13825000D01*
D11*
X7452619Y-14542524D02*
X7452619Y-14342524D01*
X7452619Y-14342524D02*
X7500238Y-14342524D01*
X7500238Y-14342524D02*
X7528809Y-14352048D01*
X7528809Y-14352048D02*
X7547857Y-14371095D01*
X7547857Y-14371095D02*
X7557381Y-14390143D01*
X7557381Y-14390143D02*
X7566905Y-14428238D01*
X7566905Y-14428238D02*
X7566905Y-14456809D01*
X7566905Y-14456809D02*
X7557381Y-14494905D01*
X7557381Y-14494905D02*
X7547857Y-14513952D01*
X7547857Y-14513952D02*
X7528809Y-14533000D01*
X7528809Y-14533000D02*
X7500238Y-14542524D01*
X7500238Y-14542524D02*
X7452619Y-14542524D01*
X7652619Y-14542524D02*
X7652619Y-14409190D01*
X7652619Y-14447286D02*
X7662143Y-14428238D01*
X7662143Y-14428238D02*
X7671667Y-14418714D01*
X7671667Y-14418714D02*
X7690714Y-14409190D01*
X7690714Y-14409190D02*
X7709762Y-14409190D01*
X7776428Y-14542524D02*
X7776428Y-14409190D01*
X7776428Y-14342524D02*
X7766905Y-14352048D01*
X7766905Y-14352048D02*
X7776428Y-14361571D01*
X7776428Y-14361571D02*
X7785952Y-14352048D01*
X7785952Y-14352048D02*
X7776428Y-14342524D01*
X7776428Y-14342524D02*
X7776428Y-14361571D01*
X7900238Y-14542524D02*
X7881190Y-14533000D01*
X7881190Y-14533000D02*
X7871667Y-14513952D01*
X7871667Y-14513952D02*
X7871667Y-14342524D01*
X8005000Y-14542524D02*
X7985952Y-14533000D01*
X7985952Y-14533000D02*
X7976428Y-14513952D01*
X7976428Y-14513952D02*
X7976428Y-14342524D01*
X8233571Y-14542524D02*
X8233571Y-14342524D01*
X8233571Y-14342524D02*
X8300238Y-14485381D01*
X8300238Y-14485381D02*
X8366905Y-14342524D01*
X8366905Y-14342524D02*
X8366905Y-14542524D01*
X8547857Y-14542524D02*
X8547857Y-14437762D01*
X8547857Y-14437762D02*
X8538333Y-14418714D01*
X8538333Y-14418714D02*
X8519286Y-14409190D01*
X8519286Y-14409190D02*
X8481190Y-14409190D01*
X8481190Y-14409190D02*
X8462143Y-14418714D01*
X8547857Y-14533000D02*
X8528810Y-14542524D01*
X8528810Y-14542524D02*
X8481190Y-14542524D01*
X8481190Y-14542524D02*
X8462143Y-14533000D01*
X8462143Y-14533000D02*
X8452619Y-14513952D01*
X8452619Y-14513952D02*
X8452619Y-14494905D01*
X8452619Y-14494905D02*
X8462143Y-14475857D01*
X8462143Y-14475857D02*
X8481190Y-14466333D01*
X8481190Y-14466333D02*
X8528810Y-14466333D01*
X8528810Y-14466333D02*
X8547857Y-14456809D01*
X8643095Y-14409190D02*
X8643095Y-14609190D01*
X8643095Y-14418714D02*
X8662143Y-14409190D01*
X8662143Y-14409190D02*
X8700238Y-14409190D01*
X8700238Y-14409190D02*
X8719286Y-14418714D01*
X8719286Y-14418714D02*
X8728810Y-14428238D01*
X8728810Y-14428238D02*
X8738333Y-14447286D01*
X8738333Y-14447286D02*
X8738333Y-14504428D01*
X8738333Y-14504428D02*
X8728810Y-14523476D01*
X8728810Y-14523476D02*
X8719286Y-14533000D01*
X8719286Y-14533000D02*
X8700238Y-14542524D01*
X8700238Y-14542524D02*
X8662143Y-14542524D01*
X8662143Y-14542524D02*
X8643095Y-14533000D01*
X8824048Y-14523476D02*
X8833571Y-14533000D01*
X8833571Y-14533000D02*
X8824048Y-14542524D01*
X8824048Y-14542524D02*
X8814524Y-14533000D01*
X8814524Y-14533000D02*
X8824048Y-14523476D01*
X8824048Y-14523476D02*
X8824048Y-14542524D01*
X8824048Y-14418714D02*
X8833571Y-14428238D01*
X8833571Y-14428238D02*
X8824048Y-14437762D01*
X8824048Y-14437762D02*
X8814524Y-14428238D01*
X8814524Y-14428238D02*
X8824048Y-14418714D01*
X8824048Y-14418714D02*
X8824048Y-14437762D01*
D12*
X7165000Y-14850000D02*
X7205000Y-14890000D01*
X7205000Y-14850000D02*
X7165000Y-14890000D01*
D11*
X7490714Y-14762524D02*
X7509762Y-14762524D01*
X7509762Y-14762524D02*
X7528809Y-14772048D01*
X7528809Y-14772048D02*
X7538333Y-14781571D01*
X7538333Y-14781571D02*
X7547857Y-14800619D01*
X7547857Y-14800619D02*
X7557381Y-14838714D01*
X7557381Y-14838714D02*
X7557381Y-14886333D01*
X7557381Y-14886333D02*
X7547857Y-14924428D01*
X7547857Y-14924428D02*
X7538333Y-14943476D01*
X7538333Y-14943476D02*
X7528809Y-14953000D01*
X7528809Y-14953000D02*
X7509762Y-14962524D01*
X7509762Y-14962524D02*
X7490714Y-14962524D01*
X7490714Y-14962524D02*
X7471667Y-14953000D01*
X7471667Y-14953000D02*
X7462143Y-14943476D01*
X7462143Y-14943476D02*
X7452619Y-14924428D01*
X7452619Y-14924428D02*
X7443095Y-14886333D01*
X7443095Y-14886333D02*
X7443095Y-14838714D01*
X7443095Y-14838714D02*
X7452619Y-14800619D01*
X7452619Y-14800619D02*
X7462143Y-14781571D01*
X7462143Y-14781571D02*
X7471667Y-14772048D01*
X7471667Y-14772048D02*
X7490714Y-14762524D01*
X7643095Y-14943476D02*
X7652619Y-14953000D01*
X7652619Y-14953000D02*
X7643095Y-14962524D01*
X7643095Y-14962524D02*
X7633571Y-14953000D01*
X7633571Y-14953000D02*
X7643095Y-14943476D01*
X7643095Y-14943476D02*
X7643095Y-14962524D01*
X7824048Y-14829190D02*
X7824048Y-14962524D01*
X7776428Y-14753000D02*
X7728809Y-14895857D01*
X7728809Y-14895857D02*
X7852619Y-14895857D01*
X7966905Y-14762524D02*
X7985952Y-14762524D01*
X7985952Y-14762524D02*
X8005000Y-14772048D01*
X8005000Y-14772048D02*
X8014524Y-14781571D01*
X8014524Y-14781571D02*
X8024048Y-14800619D01*
X8024048Y-14800619D02*
X8033571Y-14838714D01*
X8033571Y-14838714D02*
X8033571Y-14886333D01*
X8033571Y-14886333D02*
X8024048Y-14924428D01*
X8024048Y-14924428D02*
X8014524Y-14943476D01*
X8014524Y-14943476D02*
X8005000Y-14953000D01*
X8005000Y-14953000D02*
X7985952Y-14962524D01*
X7985952Y-14962524D02*
X7966905Y-14962524D01*
X7966905Y-14962524D02*
X7947857Y-14953000D01*
X7947857Y-14953000D02*
X7938333Y-14943476D01*
X7938333Y-14943476D02*
X7928809Y-14924428D01*
X7928809Y-14924428D02*
X7919286Y-14886333D01*
X7919286Y-14886333D02*
X7919286Y-14838714D01*
X7919286Y-14838714D02*
X7928809Y-14800619D01*
X7928809Y-14800619D02*
X7938333Y-14781571D01*
X7938333Y-14781571D02*
X7947857Y-14772048D01*
X7947857Y-14772048D02*
X7966905Y-14762524D01*
X8157381Y-14762524D02*
X8176429Y-14762524D01*
X8176429Y-14762524D02*
X8195476Y-14772048D01*
X8195476Y-14772048D02*
X8205000Y-14781571D01*
X8205000Y-14781571D02*
X8214524Y-14800619D01*
X8214524Y-14800619D02*
X8224048Y-14838714D01*
X8224048Y-14838714D02*
X8224048Y-14886333D01*
X8224048Y-14886333D02*
X8214524Y-14924428D01*
X8214524Y-14924428D02*
X8205000Y-14943476D01*
X8205000Y-14943476D02*
X8195476Y-14953000D01*
X8195476Y-14953000D02*
X8176429Y-14962524D01*
X8176429Y-14962524D02*
X8157381Y-14962524D01*
X8157381Y-14962524D02*
X8138333Y-14953000D01*
X8138333Y-14953000D02*
X8128809Y-14943476D01*
X8128809Y-14943476D02*
X8119286Y-14924428D01*
X8119286Y-14924428D02*
X8109762Y-14886333D01*
X8109762Y-14886333D02*
X8109762Y-14838714D01*
X8109762Y-14838714D02*
X8119286Y-14800619D01*
X8119286Y-14800619D02*
X8128809Y-14781571D01*
X8128809Y-14781571D02*
X8138333Y-14772048D01*
X8138333Y-14772048D02*
X8157381Y-14762524D01*
X8309762Y-14962524D02*
X8309762Y-14829190D01*
X8309762Y-14848238D02*
X8319286Y-14838714D01*
X8319286Y-14838714D02*
X8338333Y-14829190D01*
X8338333Y-14829190D02*
X8366905Y-14829190D01*
X8366905Y-14829190D02*
X8385952Y-14838714D01*
X8385952Y-14838714D02*
X8395476Y-14857762D01*
X8395476Y-14857762D02*
X8395476Y-14962524D01*
X8395476Y-14857762D02*
X8405000Y-14838714D01*
X8405000Y-14838714D02*
X8424048Y-14829190D01*
X8424048Y-14829190D02*
X8452619Y-14829190D01*
X8452619Y-14829190D02*
X8471667Y-14838714D01*
X8471667Y-14838714D02*
X8481191Y-14857762D01*
X8481191Y-14857762D02*
X8481191Y-14962524D01*
X8576429Y-14962524D02*
X8576429Y-14829190D01*
X8576429Y-14848238D02*
X8585952Y-14838714D01*
X8585952Y-14838714D02*
X8605000Y-14829190D01*
X8605000Y-14829190D02*
X8633572Y-14829190D01*
X8633572Y-14829190D02*
X8652619Y-14838714D01*
X8652619Y-14838714D02*
X8662143Y-14857762D01*
X8662143Y-14857762D02*
X8662143Y-14962524D01*
X8662143Y-14857762D02*
X8671667Y-14838714D01*
X8671667Y-14838714D02*
X8690714Y-14829190D01*
X8690714Y-14829190D02*
X8719286Y-14829190D01*
X8719286Y-14829190D02*
X8738333Y-14838714D01*
X8738333Y-14838714D02*
X8747857Y-14857762D01*
X8747857Y-14857762D02*
X8747857Y-14962524D01*
X9138333Y-14753000D02*
X8966905Y-15010143D01*
X9395476Y-14762524D02*
X9414524Y-14762524D01*
X9414524Y-14762524D02*
X9433572Y-14772048D01*
X9433572Y-14772048D02*
X9443095Y-14781571D01*
X9443095Y-14781571D02*
X9452619Y-14800619D01*
X9452619Y-14800619D02*
X9462143Y-14838714D01*
X9462143Y-14838714D02*
X9462143Y-14886333D01*
X9462143Y-14886333D02*
X9452619Y-14924428D01*
X9452619Y-14924428D02*
X9443095Y-14943476D01*
X9443095Y-14943476D02*
X9433572Y-14953000D01*
X9433572Y-14953000D02*
X9414524Y-14962524D01*
X9414524Y-14962524D02*
X9395476Y-14962524D01*
X9395476Y-14962524D02*
X9376429Y-14953000D01*
X9376429Y-14953000D02*
X9366905Y-14943476D01*
X9366905Y-14943476D02*
X9357381Y-14924428D01*
X9357381Y-14924428D02*
X9347857Y-14886333D01*
X9347857Y-14886333D02*
X9347857Y-14838714D01*
X9347857Y-14838714D02*
X9357381Y-14800619D01*
X9357381Y-14800619D02*
X9366905Y-14781571D01*
X9366905Y-14781571D02*
X9376429Y-14772048D01*
X9376429Y-14772048D02*
X9395476Y-14762524D01*
X9547857Y-14943476D02*
X9557381Y-14953000D01*
X9557381Y-14953000D02*
X9547857Y-14962524D01*
X9547857Y-14962524D02*
X9538334Y-14953000D01*
X9538334Y-14953000D02*
X9547857Y-14943476D01*
X9547857Y-14943476D02*
X9547857Y-14962524D01*
X9681191Y-14762524D02*
X9700238Y-14762524D01*
X9700238Y-14762524D02*
X9719286Y-14772048D01*
X9719286Y-14772048D02*
X9728810Y-14781571D01*
X9728810Y-14781571D02*
X9738334Y-14800619D01*
X9738334Y-14800619D02*
X9747857Y-14838714D01*
X9747857Y-14838714D02*
X9747857Y-14886333D01*
X9747857Y-14886333D02*
X9738334Y-14924428D01*
X9738334Y-14924428D02*
X9728810Y-14943476D01*
X9728810Y-14943476D02*
X9719286Y-14953000D01*
X9719286Y-14953000D02*
X9700238Y-14962524D01*
X9700238Y-14962524D02*
X9681191Y-14962524D01*
X9681191Y-14962524D02*
X9662143Y-14953000D01*
X9662143Y-14953000D02*
X9652619Y-14943476D01*
X9652619Y-14943476D02*
X9643095Y-14924428D01*
X9643095Y-14924428D02*
X9633572Y-14886333D01*
X9633572Y-14886333D02*
X9633572Y-14838714D01*
X9633572Y-14838714D02*
X9643095Y-14800619D01*
X9643095Y-14800619D02*
X9652619Y-14781571D01*
X9652619Y-14781571D02*
X9662143Y-14772048D01*
X9662143Y-14772048D02*
X9681191Y-14762524D01*
X9938334Y-14962524D02*
X9824048Y-14962524D01*
X9881191Y-14962524D02*
X9881191Y-14762524D01*
X9881191Y-14762524D02*
X9862143Y-14791095D01*
X9862143Y-14791095D02*
X9843095Y-14810143D01*
X9843095Y-14810143D02*
X9824048Y-14819667D01*
X10119286Y-14762524D02*
X10024048Y-14762524D01*
X10024048Y-14762524D02*
X10014524Y-14857762D01*
X10014524Y-14857762D02*
X10024048Y-14848238D01*
X10024048Y-14848238D02*
X10043095Y-14838714D01*
X10043095Y-14838714D02*
X10090715Y-14838714D01*
X10090715Y-14838714D02*
X10109762Y-14848238D01*
X10109762Y-14848238D02*
X10119286Y-14857762D01*
X10119286Y-14857762D02*
X10128810Y-14876809D01*
X10128810Y-14876809D02*
X10128810Y-14924428D01*
X10128810Y-14924428D02*
X10119286Y-14943476D01*
X10119286Y-14943476D02*
X10109762Y-14953000D01*
X10109762Y-14953000D02*
X10090715Y-14962524D01*
X10090715Y-14962524D02*
X10043095Y-14962524D01*
X10043095Y-14962524D02*
X10024048Y-14953000D01*
X10024048Y-14953000D02*
X10014524Y-14943476D01*
X10195476Y-14762524D02*
X10328810Y-14762524D01*
X10328810Y-14762524D02*
X10243095Y-14962524D01*
X10395476Y-14762524D02*
X10395476Y-14800619D01*
X10471667Y-14762524D02*
X10471667Y-14800619D01*
X10766905Y-15038714D02*
X10757381Y-15029190D01*
X10757381Y-15029190D02*
X10738334Y-15000619D01*
X10738334Y-15000619D02*
X10728810Y-14981571D01*
X10728810Y-14981571D02*
X10719286Y-14953000D01*
X10719286Y-14953000D02*
X10709762Y-14905381D01*
X10709762Y-14905381D02*
X10709762Y-14867286D01*
X10709762Y-14867286D02*
X10719286Y-14819667D01*
X10719286Y-14819667D02*
X10728810Y-14791095D01*
X10728810Y-14791095D02*
X10738334Y-14772048D01*
X10738334Y-14772048D02*
X10757381Y-14743476D01*
X10757381Y-14743476D02*
X10766905Y-14733952D01*
X10833572Y-14781571D02*
X10843096Y-14772048D01*
X10843096Y-14772048D02*
X10862143Y-14762524D01*
X10862143Y-14762524D02*
X10909762Y-14762524D01*
X10909762Y-14762524D02*
X10928810Y-14772048D01*
X10928810Y-14772048D02*
X10938334Y-14781571D01*
X10938334Y-14781571D02*
X10947857Y-14800619D01*
X10947857Y-14800619D02*
X10947857Y-14819667D01*
X10947857Y-14819667D02*
X10938334Y-14848238D01*
X10938334Y-14848238D02*
X10824048Y-14962524D01*
X10824048Y-14962524D02*
X10947857Y-14962524D01*
X11119286Y-14762524D02*
X11081191Y-14762524D01*
X11081191Y-14762524D02*
X11062143Y-14772048D01*
X11062143Y-14772048D02*
X11052619Y-14781571D01*
X11052619Y-14781571D02*
X11033572Y-14810143D01*
X11033572Y-14810143D02*
X11024048Y-14848238D01*
X11024048Y-14848238D02*
X11024048Y-14924428D01*
X11024048Y-14924428D02*
X11033572Y-14943476D01*
X11033572Y-14943476D02*
X11043096Y-14953000D01*
X11043096Y-14953000D02*
X11062143Y-14962524D01*
X11062143Y-14962524D02*
X11100238Y-14962524D01*
X11100238Y-14962524D02*
X11119286Y-14953000D01*
X11119286Y-14953000D02*
X11128810Y-14943476D01*
X11128810Y-14943476D02*
X11138334Y-14924428D01*
X11138334Y-14924428D02*
X11138334Y-14876809D01*
X11138334Y-14876809D02*
X11128810Y-14857762D01*
X11128810Y-14857762D02*
X11119286Y-14848238D01*
X11119286Y-14848238D02*
X11100238Y-14838714D01*
X11100238Y-14838714D02*
X11062143Y-14838714D01*
X11062143Y-14838714D02*
X11043096Y-14848238D01*
X11043096Y-14848238D02*
X11033572Y-14857762D01*
X11033572Y-14857762D02*
X11024048Y-14876809D01*
X11376429Y-14962524D02*
X11376429Y-14762524D01*
X11462143Y-14962524D02*
X11462143Y-14857762D01*
X11462143Y-14857762D02*
X11452619Y-14838714D01*
X11452619Y-14838714D02*
X11433572Y-14829190D01*
X11433572Y-14829190D02*
X11405000Y-14829190D01*
X11405000Y-14829190D02*
X11385953Y-14838714D01*
X11385953Y-14838714D02*
X11376429Y-14848238D01*
X11585953Y-14962524D02*
X11566905Y-14953000D01*
X11566905Y-14953000D02*
X11557381Y-14943476D01*
X11557381Y-14943476D02*
X11547857Y-14924428D01*
X11547857Y-14924428D02*
X11547857Y-14867286D01*
X11547857Y-14867286D02*
X11557381Y-14848238D01*
X11557381Y-14848238D02*
X11566905Y-14838714D01*
X11566905Y-14838714D02*
X11585953Y-14829190D01*
X11585953Y-14829190D02*
X11614524Y-14829190D01*
X11614524Y-14829190D02*
X11633572Y-14838714D01*
X11633572Y-14838714D02*
X11643096Y-14848238D01*
X11643096Y-14848238D02*
X11652619Y-14867286D01*
X11652619Y-14867286D02*
X11652619Y-14924428D01*
X11652619Y-14924428D02*
X11643096Y-14943476D01*
X11643096Y-14943476D02*
X11633572Y-14953000D01*
X11633572Y-14953000D02*
X11614524Y-14962524D01*
X11614524Y-14962524D02*
X11585953Y-14962524D01*
X11766905Y-14962524D02*
X11747857Y-14953000D01*
X11747857Y-14953000D02*
X11738334Y-14933952D01*
X11738334Y-14933952D02*
X11738334Y-14762524D01*
X11919286Y-14953000D02*
X11900238Y-14962524D01*
X11900238Y-14962524D02*
X11862143Y-14962524D01*
X11862143Y-14962524D02*
X11843096Y-14953000D01*
X11843096Y-14953000D02*
X11833572Y-14933952D01*
X11833572Y-14933952D02*
X11833572Y-14857762D01*
X11833572Y-14857762D02*
X11843096Y-14838714D01*
X11843096Y-14838714D02*
X11862143Y-14829190D01*
X11862143Y-14829190D02*
X11900238Y-14829190D01*
X11900238Y-14829190D02*
X11919286Y-14838714D01*
X11919286Y-14838714D02*
X11928810Y-14857762D01*
X11928810Y-14857762D02*
X11928810Y-14876809D01*
X11928810Y-14876809D02*
X11833572Y-14895857D01*
X12005000Y-14953000D02*
X12024048Y-14962524D01*
X12024048Y-14962524D02*
X12062143Y-14962524D01*
X12062143Y-14962524D02*
X12081191Y-14953000D01*
X12081191Y-14953000D02*
X12090715Y-14933952D01*
X12090715Y-14933952D02*
X12090715Y-14924428D01*
X12090715Y-14924428D02*
X12081191Y-14905381D01*
X12081191Y-14905381D02*
X12062143Y-14895857D01*
X12062143Y-14895857D02*
X12033572Y-14895857D01*
X12033572Y-14895857D02*
X12014524Y-14886333D01*
X12014524Y-14886333D02*
X12005000Y-14867286D01*
X12005000Y-14867286D02*
X12005000Y-14857762D01*
X12005000Y-14857762D02*
X12014524Y-14838714D01*
X12014524Y-14838714D02*
X12033572Y-14829190D01*
X12033572Y-14829190D02*
X12062143Y-14829190D01*
X12062143Y-14829190D02*
X12081191Y-14838714D01*
X12157381Y-15038714D02*
X12166905Y-15029190D01*
X12166905Y-15029190D02*
X12185953Y-15000619D01*
X12185953Y-15000619D02*
X12195477Y-14981571D01*
X12195477Y-14981571D02*
X12205000Y-14953000D01*
X12205000Y-14953000D02*
X12214524Y-14905381D01*
X12214524Y-14905381D02*
X12214524Y-14867286D01*
X12214524Y-14867286D02*
X12205000Y-14819667D01*
X12205000Y-14819667D02*
X12195477Y-14791095D01*
X12195477Y-14791095D02*
X12185953Y-14772048D01*
X12185953Y-14772048D02*
X12166905Y-14743476D01*
X12166905Y-14743476D02*
X12157381Y-14733952D01*
X7205000Y-15134000D02*
G75*
G03*
X7205000Y-15134000I-100000J0D01*
G01*
X7443095Y-15045571D02*
X7452619Y-15036048D01*
X7452619Y-15036048D02*
X7471667Y-15026524D01*
X7471667Y-15026524D02*
X7519286Y-15026524D01*
X7519286Y-15026524D02*
X7538333Y-15036048D01*
X7538333Y-15036048D02*
X7547857Y-15045571D01*
X7547857Y-15045571D02*
X7557381Y-15064619D01*
X7557381Y-15064619D02*
X7557381Y-15083667D01*
X7557381Y-15083667D02*
X7547857Y-15112238D01*
X7547857Y-15112238D02*
X7433571Y-15226524D01*
X7433571Y-15226524D02*
X7557381Y-15226524D01*
X7643095Y-15207476D02*
X7652619Y-15217000D01*
X7652619Y-15217000D02*
X7643095Y-15226524D01*
X7643095Y-15226524D02*
X7633571Y-15217000D01*
X7633571Y-15217000D02*
X7643095Y-15207476D01*
X7643095Y-15207476D02*
X7643095Y-15226524D01*
X7776428Y-15026524D02*
X7795476Y-15026524D01*
X7795476Y-15026524D02*
X7814524Y-15036048D01*
X7814524Y-15036048D02*
X7824048Y-15045571D01*
X7824048Y-15045571D02*
X7833571Y-15064619D01*
X7833571Y-15064619D02*
X7843095Y-15102714D01*
X7843095Y-15102714D02*
X7843095Y-15150333D01*
X7843095Y-15150333D02*
X7833571Y-15188428D01*
X7833571Y-15188428D02*
X7824048Y-15207476D01*
X7824048Y-15207476D02*
X7814524Y-15217000D01*
X7814524Y-15217000D02*
X7795476Y-15226524D01*
X7795476Y-15226524D02*
X7776428Y-15226524D01*
X7776428Y-15226524D02*
X7757381Y-15217000D01*
X7757381Y-15217000D02*
X7747857Y-15207476D01*
X7747857Y-15207476D02*
X7738333Y-15188428D01*
X7738333Y-15188428D02*
X7728809Y-15150333D01*
X7728809Y-15150333D02*
X7728809Y-15102714D01*
X7728809Y-15102714D02*
X7738333Y-15064619D01*
X7738333Y-15064619D02*
X7747857Y-15045571D01*
X7747857Y-15045571D02*
X7757381Y-15036048D01*
X7757381Y-15036048D02*
X7776428Y-15026524D01*
X7966905Y-15026524D02*
X7985952Y-15026524D01*
X7985952Y-15026524D02*
X8005000Y-15036048D01*
X8005000Y-15036048D02*
X8014524Y-15045571D01*
X8014524Y-15045571D02*
X8024048Y-15064619D01*
X8024048Y-15064619D02*
X8033571Y-15102714D01*
X8033571Y-15102714D02*
X8033571Y-15150333D01*
X8033571Y-15150333D02*
X8024048Y-15188428D01*
X8024048Y-15188428D02*
X8014524Y-15207476D01*
X8014524Y-15207476D02*
X8005000Y-15217000D01*
X8005000Y-15217000D02*
X7985952Y-15226524D01*
X7985952Y-15226524D02*
X7966905Y-15226524D01*
X7966905Y-15226524D02*
X7947857Y-15217000D01*
X7947857Y-15217000D02*
X7938333Y-15207476D01*
X7938333Y-15207476D02*
X7928809Y-15188428D01*
X7928809Y-15188428D02*
X7919286Y-15150333D01*
X7919286Y-15150333D02*
X7919286Y-15102714D01*
X7919286Y-15102714D02*
X7928809Y-15064619D01*
X7928809Y-15064619D02*
X7938333Y-15045571D01*
X7938333Y-15045571D02*
X7947857Y-15036048D01*
X7947857Y-15036048D02*
X7966905Y-15026524D01*
X8157381Y-15026524D02*
X8176429Y-15026524D01*
X8176429Y-15026524D02*
X8195476Y-15036048D01*
X8195476Y-15036048D02*
X8205000Y-15045571D01*
X8205000Y-15045571D02*
X8214524Y-15064619D01*
X8214524Y-15064619D02*
X8224048Y-15102714D01*
X8224048Y-15102714D02*
X8224048Y-15150333D01*
X8224048Y-15150333D02*
X8214524Y-15188428D01*
X8214524Y-15188428D02*
X8205000Y-15207476D01*
X8205000Y-15207476D02*
X8195476Y-15217000D01*
X8195476Y-15217000D02*
X8176429Y-15226524D01*
X8176429Y-15226524D02*
X8157381Y-15226524D01*
X8157381Y-15226524D02*
X8138333Y-15217000D01*
X8138333Y-15217000D02*
X8128809Y-15207476D01*
X8128809Y-15207476D02*
X8119286Y-15188428D01*
X8119286Y-15188428D02*
X8109762Y-15150333D01*
X8109762Y-15150333D02*
X8109762Y-15102714D01*
X8109762Y-15102714D02*
X8119286Y-15064619D01*
X8119286Y-15064619D02*
X8128809Y-15045571D01*
X8128809Y-15045571D02*
X8138333Y-15036048D01*
X8138333Y-15036048D02*
X8157381Y-15026524D01*
X8309762Y-15226524D02*
X8309762Y-15093190D01*
X8309762Y-15112238D02*
X8319286Y-15102714D01*
X8319286Y-15102714D02*
X8338333Y-15093190D01*
X8338333Y-15093190D02*
X8366905Y-15093190D01*
X8366905Y-15093190D02*
X8385952Y-15102714D01*
X8385952Y-15102714D02*
X8395476Y-15121762D01*
X8395476Y-15121762D02*
X8395476Y-15226524D01*
X8395476Y-15121762D02*
X8405000Y-15102714D01*
X8405000Y-15102714D02*
X8424048Y-15093190D01*
X8424048Y-15093190D02*
X8452619Y-15093190D01*
X8452619Y-15093190D02*
X8471667Y-15102714D01*
X8471667Y-15102714D02*
X8481191Y-15121762D01*
X8481191Y-15121762D02*
X8481191Y-15226524D01*
X8576429Y-15226524D02*
X8576429Y-15093190D01*
X8576429Y-15112238D02*
X8585952Y-15102714D01*
X8585952Y-15102714D02*
X8605000Y-15093190D01*
X8605000Y-15093190D02*
X8633572Y-15093190D01*
X8633572Y-15093190D02*
X8652619Y-15102714D01*
X8652619Y-15102714D02*
X8662143Y-15121762D01*
X8662143Y-15121762D02*
X8662143Y-15226524D01*
X8662143Y-15121762D02*
X8671667Y-15102714D01*
X8671667Y-15102714D02*
X8690714Y-15093190D01*
X8690714Y-15093190D02*
X8719286Y-15093190D01*
X8719286Y-15093190D02*
X8738333Y-15102714D01*
X8738333Y-15102714D02*
X8747857Y-15121762D01*
X8747857Y-15121762D02*
X8747857Y-15226524D01*
X9138333Y-15017000D02*
X8966905Y-15274143D01*
X9395476Y-15026524D02*
X9414524Y-15026524D01*
X9414524Y-15026524D02*
X9433572Y-15036048D01*
X9433572Y-15036048D02*
X9443095Y-15045571D01*
X9443095Y-15045571D02*
X9452619Y-15064619D01*
X9452619Y-15064619D02*
X9462143Y-15102714D01*
X9462143Y-15102714D02*
X9462143Y-15150333D01*
X9462143Y-15150333D02*
X9452619Y-15188428D01*
X9452619Y-15188428D02*
X9443095Y-15207476D01*
X9443095Y-15207476D02*
X9433572Y-15217000D01*
X9433572Y-15217000D02*
X9414524Y-15226524D01*
X9414524Y-15226524D02*
X9395476Y-15226524D01*
X9395476Y-15226524D02*
X9376429Y-15217000D01*
X9376429Y-15217000D02*
X9366905Y-15207476D01*
X9366905Y-15207476D02*
X9357381Y-15188428D01*
X9357381Y-15188428D02*
X9347857Y-15150333D01*
X9347857Y-15150333D02*
X9347857Y-15102714D01*
X9347857Y-15102714D02*
X9357381Y-15064619D01*
X9357381Y-15064619D02*
X9366905Y-15045571D01*
X9366905Y-15045571D02*
X9376429Y-15036048D01*
X9376429Y-15036048D02*
X9395476Y-15026524D01*
X9547857Y-15207476D02*
X9557381Y-15217000D01*
X9557381Y-15217000D02*
X9547857Y-15226524D01*
X9547857Y-15226524D02*
X9538334Y-15217000D01*
X9538334Y-15217000D02*
X9547857Y-15207476D01*
X9547857Y-15207476D02*
X9547857Y-15226524D01*
X9681191Y-15026524D02*
X9700238Y-15026524D01*
X9700238Y-15026524D02*
X9719286Y-15036048D01*
X9719286Y-15036048D02*
X9728810Y-15045571D01*
X9728810Y-15045571D02*
X9738334Y-15064619D01*
X9738334Y-15064619D02*
X9747857Y-15102714D01*
X9747857Y-15102714D02*
X9747857Y-15150333D01*
X9747857Y-15150333D02*
X9738334Y-15188428D01*
X9738334Y-15188428D02*
X9728810Y-15207476D01*
X9728810Y-15207476D02*
X9719286Y-15217000D01*
X9719286Y-15217000D02*
X9700238Y-15226524D01*
X9700238Y-15226524D02*
X9681191Y-15226524D01*
X9681191Y-15226524D02*
X9662143Y-15217000D01*
X9662143Y-15217000D02*
X9652619Y-15207476D01*
X9652619Y-15207476D02*
X9643095Y-15188428D01*
X9643095Y-15188428D02*
X9633572Y-15150333D01*
X9633572Y-15150333D02*
X9633572Y-15102714D01*
X9633572Y-15102714D02*
X9643095Y-15064619D01*
X9643095Y-15064619D02*
X9652619Y-15045571D01*
X9652619Y-15045571D02*
X9662143Y-15036048D01*
X9662143Y-15036048D02*
X9681191Y-15026524D01*
X9814524Y-15026524D02*
X9947857Y-15026524D01*
X9947857Y-15026524D02*
X9862143Y-15226524D01*
X10052619Y-15112238D02*
X10033572Y-15102714D01*
X10033572Y-15102714D02*
X10024048Y-15093190D01*
X10024048Y-15093190D02*
X10014524Y-15074143D01*
X10014524Y-15074143D02*
X10014524Y-15064619D01*
X10014524Y-15064619D02*
X10024048Y-15045571D01*
X10024048Y-15045571D02*
X10033572Y-15036048D01*
X10033572Y-15036048D02*
X10052619Y-15026524D01*
X10052619Y-15026524D02*
X10090715Y-15026524D01*
X10090715Y-15026524D02*
X10109762Y-15036048D01*
X10109762Y-15036048D02*
X10119286Y-15045571D01*
X10119286Y-15045571D02*
X10128810Y-15064619D01*
X10128810Y-15064619D02*
X10128810Y-15074143D01*
X10128810Y-15074143D02*
X10119286Y-15093190D01*
X10119286Y-15093190D02*
X10109762Y-15102714D01*
X10109762Y-15102714D02*
X10090715Y-15112238D01*
X10090715Y-15112238D02*
X10052619Y-15112238D01*
X10052619Y-15112238D02*
X10033572Y-15121762D01*
X10033572Y-15121762D02*
X10024048Y-15131286D01*
X10024048Y-15131286D02*
X10014524Y-15150333D01*
X10014524Y-15150333D02*
X10014524Y-15188428D01*
X10014524Y-15188428D02*
X10024048Y-15207476D01*
X10024048Y-15207476D02*
X10033572Y-15217000D01*
X10033572Y-15217000D02*
X10052619Y-15226524D01*
X10052619Y-15226524D02*
X10090715Y-15226524D01*
X10090715Y-15226524D02*
X10109762Y-15217000D01*
X10109762Y-15217000D02*
X10119286Y-15207476D01*
X10119286Y-15207476D02*
X10128810Y-15188428D01*
X10128810Y-15188428D02*
X10128810Y-15150333D01*
X10128810Y-15150333D02*
X10119286Y-15131286D01*
X10119286Y-15131286D02*
X10109762Y-15121762D01*
X10109762Y-15121762D02*
X10090715Y-15112238D01*
X10195476Y-15026524D02*
X10328810Y-15026524D01*
X10328810Y-15026524D02*
X10243095Y-15226524D01*
X10395476Y-15026524D02*
X10395476Y-15064619D01*
X10471667Y-15026524D02*
X10471667Y-15064619D01*
X10766905Y-15302714D02*
X10757381Y-15293190D01*
X10757381Y-15293190D02*
X10738334Y-15264619D01*
X10738334Y-15264619D02*
X10728810Y-15245571D01*
X10728810Y-15245571D02*
X10719286Y-15217000D01*
X10719286Y-15217000D02*
X10709762Y-15169381D01*
X10709762Y-15169381D02*
X10709762Y-15131286D01*
X10709762Y-15131286D02*
X10719286Y-15083667D01*
X10719286Y-15083667D02*
X10728810Y-15055095D01*
X10728810Y-15055095D02*
X10738334Y-15036048D01*
X10738334Y-15036048D02*
X10757381Y-15007476D01*
X10757381Y-15007476D02*
X10766905Y-14997952D01*
X10947857Y-15226524D02*
X10833572Y-15226524D01*
X10890715Y-15226524D02*
X10890715Y-15026524D01*
X10890715Y-15026524D02*
X10871667Y-15055095D01*
X10871667Y-15055095D02*
X10852619Y-15074143D01*
X10852619Y-15074143D02*
X10833572Y-15083667D01*
X11024048Y-15045571D02*
X11033572Y-15036048D01*
X11033572Y-15036048D02*
X11052619Y-15026524D01*
X11052619Y-15026524D02*
X11100238Y-15026524D01*
X11100238Y-15026524D02*
X11119286Y-15036048D01*
X11119286Y-15036048D02*
X11128810Y-15045571D01*
X11128810Y-15045571D02*
X11138334Y-15064619D01*
X11138334Y-15064619D02*
X11138334Y-15083667D01*
X11138334Y-15083667D02*
X11128810Y-15112238D01*
X11128810Y-15112238D02*
X11014524Y-15226524D01*
X11014524Y-15226524D02*
X11138334Y-15226524D01*
X11376429Y-15226524D02*
X11376429Y-15026524D01*
X11462143Y-15226524D02*
X11462143Y-15121762D01*
X11462143Y-15121762D02*
X11452619Y-15102714D01*
X11452619Y-15102714D02*
X11433572Y-15093190D01*
X11433572Y-15093190D02*
X11405000Y-15093190D01*
X11405000Y-15093190D02*
X11385953Y-15102714D01*
X11385953Y-15102714D02*
X11376429Y-15112238D01*
X11585953Y-15226524D02*
X11566905Y-15217000D01*
X11566905Y-15217000D02*
X11557381Y-15207476D01*
X11557381Y-15207476D02*
X11547857Y-15188428D01*
X11547857Y-15188428D02*
X11547857Y-15131286D01*
X11547857Y-15131286D02*
X11557381Y-15112238D01*
X11557381Y-15112238D02*
X11566905Y-15102714D01*
X11566905Y-15102714D02*
X11585953Y-15093190D01*
X11585953Y-15093190D02*
X11614524Y-15093190D01*
X11614524Y-15093190D02*
X11633572Y-15102714D01*
X11633572Y-15102714D02*
X11643096Y-15112238D01*
X11643096Y-15112238D02*
X11652619Y-15131286D01*
X11652619Y-15131286D02*
X11652619Y-15188428D01*
X11652619Y-15188428D02*
X11643096Y-15207476D01*
X11643096Y-15207476D02*
X11633572Y-15217000D01*
X11633572Y-15217000D02*
X11614524Y-15226524D01*
X11614524Y-15226524D02*
X11585953Y-15226524D01*
X11766905Y-15226524D02*
X11747857Y-15217000D01*
X11747857Y-15217000D02*
X11738334Y-15197952D01*
X11738334Y-15197952D02*
X11738334Y-15026524D01*
X11919286Y-15217000D02*
X11900238Y-15226524D01*
X11900238Y-15226524D02*
X11862143Y-15226524D01*
X11862143Y-15226524D02*
X11843096Y-15217000D01*
X11843096Y-15217000D02*
X11833572Y-15197952D01*
X11833572Y-15197952D02*
X11833572Y-15121762D01*
X11833572Y-15121762D02*
X11843096Y-15102714D01*
X11843096Y-15102714D02*
X11862143Y-15093190D01*
X11862143Y-15093190D02*
X11900238Y-15093190D01*
X11900238Y-15093190D02*
X11919286Y-15102714D01*
X11919286Y-15102714D02*
X11928810Y-15121762D01*
X11928810Y-15121762D02*
X11928810Y-15140809D01*
X11928810Y-15140809D02*
X11833572Y-15159857D01*
X12005000Y-15217000D02*
X12024048Y-15226524D01*
X12024048Y-15226524D02*
X12062143Y-15226524D01*
X12062143Y-15226524D02*
X12081191Y-15217000D01*
X12081191Y-15217000D02*
X12090715Y-15197952D01*
X12090715Y-15197952D02*
X12090715Y-15188428D01*
X12090715Y-15188428D02*
X12081191Y-15169381D01*
X12081191Y-15169381D02*
X12062143Y-15159857D01*
X12062143Y-15159857D02*
X12033572Y-15159857D01*
X12033572Y-15159857D02*
X12014524Y-15150333D01*
X12014524Y-15150333D02*
X12005000Y-15131286D01*
X12005000Y-15131286D02*
X12005000Y-15121762D01*
X12005000Y-15121762D02*
X12014524Y-15102714D01*
X12014524Y-15102714D02*
X12033572Y-15093190D01*
X12033572Y-15093190D02*
X12062143Y-15093190D01*
X12062143Y-15093190D02*
X12081191Y-15102714D01*
X12157381Y-15302714D02*
X12166905Y-15293190D01*
X12166905Y-15293190D02*
X12185953Y-15264619D01*
X12185953Y-15264619D02*
X12195477Y-15245571D01*
X12195477Y-15245571D02*
X12205000Y-15217000D01*
X12205000Y-15217000D02*
X12214524Y-15169381D01*
X12214524Y-15169381D02*
X12214524Y-15131286D01*
X12214524Y-15131286D02*
X12205000Y-15083667D01*
X12205000Y-15083667D02*
X12195477Y-15055095D01*
X12195477Y-15055095D02*
X12185953Y-15036048D01*
X12185953Y-15036048D02*
X12166905Y-15007476D01*
X12166905Y-15007476D02*
X12157381Y-14997952D01*
X7105000Y-15354000D02*
X7105000Y-15554000D01*
X7005000Y-15454000D02*
X7205000Y-15454000D01*
X7433571Y-15346524D02*
X7557381Y-15346524D01*
X7557381Y-15346524D02*
X7490714Y-15422714D01*
X7490714Y-15422714D02*
X7519286Y-15422714D01*
X7519286Y-15422714D02*
X7538333Y-15432238D01*
X7538333Y-15432238D02*
X7547857Y-15441762D01*
X7547857Y-15441762D02*
X7557381Y-15460809D01*
X7557381Y-15460809D02*
X7557381Y-15508428D01*
X7557381Y-15508428D02*
X7547857Y-15527476D01*
X7547857Y-15527476D02*
X7538333Y-15537000D01*
X7538333Y-15537000D02*
X7519286Y-15546524D01*
X7519286Y-15546524D02*
X7462143Y-15546524D01*
X7462143Y-15546524D02*
X7443095Y-15537000D01*
X7443095Y-15537000D02*
X7433571Y-15527476D01*
X7643095Y-15527476D02*
X7652619Y-15537000D01*
X7652619Y-15537000D02*
X7643095Y-15546524D01*
X7643095Y-15546524D02*
X7633571Y-15537000D01*
X7633571Y-15537000D02*
X7643095Y-15527476D01*
X7643095Y-15527476D02*
X7643095Y-15546524D01*
X7728809Y-15365571D02*
X7738333Y-15356048D01*
X7738333Y-15356048D02*
X7757381Y-15346524D01*
X7757381Y-15346524D02*
X7805000Y-15346524D01*
X7805000Y-15346524D02*
X7824048Y-15356048D01*
X7824048Y-15356048D02*
X7833571Y-15365571D01*
X7833571Y-15365571D02*
X7843095Y-15384619D01*
X7843095Y-15384619D02*
X7843095Y-15403667D01*
X7843095Y-15403667D02*
X7833571Y-15432238D01*
X7833571Y-15432238D02*
X7719286Y-15546524D01*
X7719286Y-15546524D02*
X7843095Y-15546524D01*
X7966905Y-15346524D02*
X7985952Y-15346524D01*
X7985952Y-15346524D02*
X8005000Y-15356048D01*
X8005000Y-15356048D02*
X8014524Y-15365571D01*
X8014524Y-15365571D02*
X8024048Y-15384619D01*
X8024048Y-15384619D02*
X8033571Y-15422714D01*
X8033571Y-15422714D02*
X8033571Y-15470333D01*
X8033571Y-15470333D02*
X8024048Y-15508428D01*
X8024048Y-15508428D02*
X8014524Y-15527476D01*
X8014524Y-15527476D02*
X8005000Y-15537000D01*
X8005000Y-15537000D02*
X7985952Y-15546524D01*
X7985952Y-15546524D02*
X7966905Y-15546524D01*
X7966905Y-15546524D02*
X7947857Y-15537000D01*
X7947857Y-15537000D02*
X7938333Y-15527476D01*
X7938333Y-15527476D02*
X7928809Y-15508428D01*
X7928809Y-15508428D02*
X7919286Y-15470333D01*
X7919286Y-15470333D02*
X7919286Y-15422714D01*
X7919286Y-15422714D02*
X7928809Y-15384619D01*
X7928809Y-15384619D02*
X7938333Y-15365571D01*
X7938333Y-15365571D02*
X7947857Y-15356048D01*
X7947857Y-15356048D02*
X7966905Y-15346524D01*
X8157381Y-15346524D02*
X8176429Y-15346524D01*
X8176429Y-15346524D02*
X8195476Y-15356048D01*
X8195476Y-15356048D02*
X8205000Y-15365571D01*
X8205000Y-15365571D02*
X8214524Y-15384619D01*
X8214524Y-15384619D02*
X8224048Y-15422714D01*
X8224048Y-15422714D02*
X8224048Y-15470333D01*
X8224048Y-15470333D02*
X8214524Y-15508428D01*
X8214524Y-15508428D02*
X8205000Y-15527476D01*
X8205000Y-15527476D02*
X8195476Y-15537000D01*
X8195476Y-15537000D02*
X8176429Y-15546524D01*
X8176429Y-15546524D02*
X8157381Y-15546524D01*
X8157381Y-15546524D02*
X8138333Y-15537000D01*
X8138333Y-15537000D02*
X8128809Y-15527476D01*
X8128809Y-15527476D02*
X8119286Y-15508428D01*
X8119286Y-15508428D02*
X8109762Y-15470333D01*
X8109762Y-15470333D02*
X8109762Y-15422714D01*
X8109762Y-15422714D02*
X8119286Y-15384619D01*
X8119286Y-15384619D02*
X8128809Y-15365571D01*
X8128809Y-15365571D02*
X8138333Y-15356048D01*
X8138333Y-15356048D02*
X8157381Y-15346524D01*
X8309762Y-15546524D02*
X8309762Y-15413190D01*
X8309762Y-15432238D02*
X8319286Y-15422714D01*
X8319286Y-15422714D02*
X8338333Y-15413190D01*
X8338333Y-15413190D02*
X8366905Y-15413190D01*
X8366905Y-15413190D02*
X8385952Y-15422714D01*
X8385952Y-15422714D02*
X8395476Y-15441762D01*
X8395476Y-15441762D02*
X8395476Y-15546524D01*
X8395476Y-15441762D02*
X8405000Y-15422714D01*
X8405000Y-15422714D02*
X8424048Y-15413190D01*
X8424048Y-15413190D02*
X8452619Y-15413190D01*
X8452619Y-15413190D02*
X8471667Y-15422714D01*
X8471667Y-15422714D02*
X8481191Y-15441762D01*
X8481191Y-15441762D02*
X8481191Y-15546524D01*
X8576429Y-15546524D02*
X8576429Y-15413190D01*
X8576429Y-15432238D02*
X8585952Y-15422714D01*
X8585952Y-15422714D02*
X8605000Y-15413190D01*
X8605000Y-15413190D02*
X8633572Y-15413190D01*
X8633572Y-15413190D02*
X8652619Y-15422714D01*
X8652619Y-15422714D02*
X8662143Y-15441762D01*
X8662143Y-15441762D02*
X8662143Y-15546524D01*
X8662143Y-15441762D02*
X8671667Y-15422714D01*
X8671667Y-15422714D02*
X8690714Y-15413190D01*
X8690714Y-15413190D02*
X8719286Y-15413190D01*
X8719286Y-15413190D02*
X8738333Y-15422714D01*
X8738333Y-15422714D02*
X8747857Y-15441762D01*
X8747857Y-15441762D02*
X8747857Y-15546524D01*
X9138333Y-15337000D02*
X8966905Y-15594143D01*
X9395476Y-15346524D02*
X9414524Y-15346524D01*
X9414524Y-15346524D02*
X9433572Y-15356048D01*
X9433572Y-15356048D02*
X9443095Y-15365571D01*
X9443095Y-15365571D02*
X9452619Y-15384619D01*
X9452619Y-15384619D02*
X9462143Y-15422714D01*
X9462143Y-15422714D02*
X9462143Y-15470333D01*
X9462143Y-15470333D02*
X9452619Y-15508428D01*
X9452619Y-15508428D02*
X9443095Y-15527476D01*
X9443095Y-15527476D02*
X9433572Y-15537000D01*
X9433572Y-15537000D02*
X9414524Y-15546524D01*
X9414524Y-15546524D02*
X9395476Y-15546524D01*
X9395476Y-15546524D02*
X9376429Y-15537000D01*
X9376429Y-15537000D02*
X9366905Y-15527476D01*
X9366905Y-15527476D02*
X9357381Y-15508428D01*
X9357381Y-15508428D02*
X9347857Y-15470333D01*
X9347857Y-15470333D02*
X9347857Y-15422714D01*
X9347857Y-15422714D02*
X9357381Y-15384619D01*
X9357381Y-15384619D02*
X9366905Y-15365571D01*
X9366905Y-15365571D02*
X9376429Y-15356048D01*
X9376429Y-15356048D02*
X9395476Y-15346524D01*
X9547857Y-15527476D02*
X9557381Y-15537000D01*
X9557381Y-15537000D02*
X9547857Y-15546524D01*
X9547857Y-15546524D02*
X9538334Y-15537000D01*
X9538334Y-15537000D02*
X9547857Y-15527476D01*
X9547857Y-15527476D02*
X9547857Y-15546524D01*
X9747857Y-15546524D02*
X9633572Y-15546524D01*
X9690714Y-15546524D02*
X9690714Y-15346524D01*
X9690714Y-15346524D02*
X9671667Y-15375095D01*
X9671667Y-15375095D02*
X9652619Y-15394143D01*
X9652619Y-15394143D02*
X9633572Y-15403667D01*
X9824048Y-15365571D02*
X9833572Y-15356048D01*
X9833572Y-15356048D02*
X9852619Y-15346524D01*
X9852619Y-15346524D02*
X9900238Y-15346524D01*
X9900238Y-15346524D02*
X9919286Y-15356048D01*
X9919286Y-15356048D02*
X9928810Y-15365571D01*
X9928810Y-15365571D02*
X9938334Y-15384619D01*
X9938334Y-15384619D02*
X9938334Y-15403667D01*
X9938334Y-15403667D02*
X9928810Y-15432238D01*
X9928810Y-15432238D02*
X9814524Y-15546524D01*
X9814524Y-15546524D02*
X9938334Y-15546524D01*
X10109762Y-15346524D02*
X10071667Y-15346524D01*
X10071667Y-15346524D02*
X10052619Y-15356048D01*
X10052619Y-15356048D02*
X10043095Y-15365571D01*
X10043095Y-15365571D02*
X10024048Y-15394143D01*
X10024048Y-15394143D02*
X10014524Y-15432238D01*
X10014524Y-15432238D02*
X10014524Y-15508428D01*
X10014524Y-15508428D02*
X10024048Y-15527476D01*
X10024048Y-15527476D02*
X10033572Y-15537000D01*
X10033572Y-15537000D02*
X10052619Y-15546524D01*
X10052619Y-15546524D02*
X10090715Y-15546524D01*
X10090715Y-15546524D02*
X10109762Y-15537000D01*
X10109762Y-15537000D02*
X10119286Y-15527476D01*
X10119286Y-15527476D02*
X10128810Y-15508428D01*
X10128810Y-15508428D02*
X10128810Y-15460809D01*
X10128810Y-15460809D02*
X10119286Y-15441762D01*
X10119286Y-15441762D02*
X10109762Y-15432238D01*
X10109762Y-15432238D02*
X10090715Y-15422714D01*
X10090715Y-15422714D02*
X10052619Y-15422714D01*
X10052619Y-15422714D02*
X10033572Y-15432238D01*
X10033572Y-15432238D02*
X10024048Y-15441762D01*
X10024048Y-15441762D02*
X10014524Y-15460809D01*
X10252619Y-15346524D02*
X10271667Y-15346524D01*
X10271667Y-15346524D02*
X10290715Y-15356048D01*
X10290715Y-15356048D02*
X10300238Y-15365571D01*
X10300238Y-15365571D02*
X10309762Y-15384619D01*
X10309762Y-15384619D02*
X10319286Y-15422714D01*
X10319286Y-15422714D02*
X10319286Y-15470333D01*
X10319286Y-15470333D02*
X10309762Y-15508428D01*
X10309762Y-15508428D02*
X10300238Y-15527476D01*
X10300238Y-15527476D02*
X10290715Y-15537000D01*
X10290715Y-15537000D02*
X10271667Y-15546524D01*
X10271667Y-15546524D02*
X10252619Y-15546524D01*
X10252619Y-15546524D02*
X10233572Y-15537000D01*
X10233572Y-15537000D02*
X10224048Y-15527476D01*
X10224048Y-15527476D02*
X10214524Y-15508428D01*
X10214524Y-15508428D02*
X10205000Y-15470333D01*
X10205000Y-15470333D02*
X10205000Y-15422714D01*
X10205000Y-15422714D02*
X10214524Y-15384619D01*
X10214524Y-15384619D02*
X10224048Y-15365571D01*
X10224048Y-15365571D02*
X10233572Y-15356048D01*
X10233572Y-15356048D02*
X10252619Y-15346524D01*
X10395476Y-15346524D02*
X10395476Y-15384619D01*
X10471667Y-15346524D02*
X10471667Y-15384619D01*
X10766905Y-15622714D02*
X10757381Y-15613190D01*
X10757381Y-15613190D02*
X10738334Y-15584619D01*
X10738334Y-15584619D02*
X10728810Y-15565571D01*
X10728810Y-15565571D02*
X10719286Y-15537000D01*
X10719286Y-15537000D02*
X10709762Y-15489381D01*
X10709762Y-15489381D02*
X10709762Y-15451286D01*
X10709762Y-15451286D02*
X10719286Y-15403667D01*
X10719286Y-15403667D02*
X10728810Y-15375095D01*
X10728810Y-15375095D02*
X10738334Y-15356048D01*
X10738334Y-15356048D02*
X10757381Y-15327476D01*
X10757381Y-15327476D02*
X10766905Y-15317952D01*
X10928810Y-15413190D02*
X10928810Y-15546524D01*
X10881191Y-15337000D02*
X10833572Y-15479857D01*
X10833572Y-15479857D02*
X10957381Y-15479857D01*
X11185953Y-15546524D02*
X11185953Y-15346524D01*
X11271667Y-15546524D02*
X11271667Y-15441762D01*
X11271667Y-15441762D02*
X11262143Y-15422714D01*
X11262143Y-15422714D02*
X11243096Y-15413190D01*
X11243096Y-15413190D02*
X11214524Y-15413190D01*
X11214524Y-15413190D02*
X11195476Y-15422714D01*
X11195476Y-15422714D02*
X11185953Y-15432238D01*
X11395476Y-15546524D02*
X11376429Y-15537000D01*
X11376429Y-15537000D02*
X11366905Y-15527476D01*
X11366905Y-15527476D02*
X11357381Y-15508428D01*
X11357381Y-15508428D02*
X11357381Y-15451286D01*
X11357381Y-15451286D02*
X11366905Y-15432238D01*
X11366905Y-15432238D02*
X11376429Y-15422714D01*
X11376429Y-15422714D02*
X11395476Y-15413190D01*
X11395476Y-15413190D02*
X11424048Y-15413190D01*
X11424048Y-15413190D02*
X11443096Y-15422714D01*
X11443096Y-15422714D02*
X11452619Y-15432238D01*
X11452619Y-15432238D02*
X11462143Y-15451286D01*
X11462143Y-15451286D02*
X11462143Y-15508428D01*
X11462143Y-15508428D02*
X11452619Y-15527476D01*
X11452619Y-15527476D02*
X11443096Y-15537000D01*
X11443096Y-15537000D02*
X11424048Y-15546524D01*
X11424048Y-15546524D02*
X11395476Y-15546524D01*
X11576429Y-15546524D02*
X11557381Y-15537000D01*
X11557381Y-15537000D02*
X11547857Y-15517952D01*
X11547857Y-15517952D02*
X11547857Y-15346524D01*
X11728810Y-15537000D02*
X11709762Y-15546524D01*
X11709762Y-15546524D02*
X11671667Y-15546524D01*
X11671667Y-15546524D02*
X11652619Y-15537000D01*
X11652619Y-15537000D02*
X11643096Y-15517952D01*
X11643096Y-15517952D02*
X11643096Y-15441762D01*
X11643096Y-15441762D02*
X11652619Y-15422714D01*
X11652619Y-15422714D02*
X11671667Y-15413190D01*
X11671667Y-15413190D02*
X11709762Y-15413190D01*
X11709762Y-15413190D02*
X11728810Y-15422714D01*
X11728810Y-15422714D02*
X11738334Y-15441762D01*
X11738334Y-15441762D02*
X11738334Y-15460809D01*
X11738334Y-15460809D02*
X11643096Y-15479857D01*
X11814524Y-15537000D02*
X11833572Y-15546524D01*
X11833572Y-15546524D02*
X11871667Y-15546524D01*
X11871667Y-15546524D02*
X11890715Y-15537000D01*
X11890715Y-15537000D02*
X11900238Y-15517952D01*
X11900238Y-15517952D02*
X11900238Y-15508428D01*
X11900238Y-15508428D02*
X11890715Y-15489381D01*
X11890715Y-15489381D02*
X11871667Y-15479857D01*
X11871667Y-15479857D02*
X11843096Y-15479857D01*
X11843096Y-15479857D02*
X11824048Y-15470333D01*
X11824048Y-15470333D02*
X11814524Y-15451286D01*
X11814524Y-15451286D02*
X11814524Y-15441762D01*
X11814524Y-15441762D02*
X11824048Y-15422714D01*
X11824048Y-15422714D02*
X11843096Y-15413190D01*
X11843096Y-15413190D02*
X11871667Y-15413190D01*
X11871667Y-15413190D02*
X11890715Y-15422714D01*
X11966905Y-15622714D02*
X11976429Y-15613190D01*
X11976429Y-15613190D02*
X11995477Y-15584619D01*
X11995477Y-15584619D02*
X12005000Y-15565571D01*
X12005000Y-15565571D02*
X12014524Y-15537000D01*
X12014524Y-15537000D02*
X12024048Y-15489381D01*
X12024048Y-15489381D02*
X12024048Y-15451286D01*
X12024048Y-15451286D02*
X12014524Y-15403667D01*
X12014524Y-15403667D02*
X12005000Y-15375095D01*
X12005000Y-15375095D02*
X11995477Y-15356048D01*
X11995477Y-15356048D02*
X11976429Y-15327476D01*
X11976429Y-15327476D02*
X11966905Y-15317952D01*
M02*
