G04 #@! TF.GenerationSoftware,KiCad,Pcbnew,(6.0.5-0)*
G04 #@! TF.CreationDate,2023-03-07T01:18:01-05:00*
G04 #@! TF.ProjectId,new-solar-cell-burn-wire,6e65772d-736f-46c6-9172-2d63656c6c2d,2*
G04 #@! TF.SameCoordinates,Original*
G04 #@! TF.FileFunction,Copper,L1,Top*
G04 #@! TF.FilePolarity,Positive*
%FSLAX46Y46*%
G04 Gerber Fmt 4.6, Leading zero omitted, Abs format (unit mm)*
G04 Created by KiCad (PCBNEW (6.0.5-0)) date 2023-03-07 01:18:01*
%MOMM*%
%LPD*%
G01*
G04 APERTURE LIST*
G04 #@! TA.AperFunction,ComponentPad*
%ADD10C,3.000000*%
G04 #@! TD*
G04 #@! TA.AperFunction,ComponentPad*
%ADD11C,5.600000*%
G04 #@! TD*
G04 #@! TA.AperFunction,SMDPad,CuDef*
%ADD12R,2.500000X1.700000*%
G04 #@! TD*
G04 #@! TA.AperFunction,ViaPad*
%ADD13C,0.800000*%
G04 #@! TD*
G04 #@! TA.AperFunction,Conductor*
%ADD14C,0.500000*%
G04 #@! TD*
G04 APERTURE END LIST*
D10*
X84700000Y-116600000D03*
X84700000Y-107600000D03*
X110700000Y-55400000D03*
X110700000Y-64400000D03*
D11*
X125850000Y-42750000D03*
D10*
X84700000Y-94000000D03*
X84700000Y-85000000D03*
D11*
X98350000Y-42750000D03*
D10*
X146500000Y-87000000D03*
X146500000Y-96000000D03*
D11*
X98350000Y-138250000D03*
X125850000Y-138250000D03*
D10*
X120500000Y-125600000D03*
X120500000Y-116600000D03*
X146500000Y-64400000D03*
X146500000Y-73400000D03*
D12*
X94000000Y-127000000D03*
X90000000Y-127000000D03*
X102000000Y-127000000D03*
X106000000Y-127000000D03*
D13*
X114400000Y-66100000D03*
X113500000Y-64200000D03*
X145400000Y-76800000D03*
X144200000Y-70000000D03*
X108000000Y-66000000D03*
X144200000Y-76300000D03*
X110800000Y-67400000D03*
X144200000Y-71300000D03*
X143400000Y-75200000D03*
X107300000Y-67200000D03*
X143900000Y-74100000D03*
X144700000Y-75400000D03*
X108700000Y-68500000D03*
X107700000Y-64400000D03*
X113400000Y-67700000D03*
X109100000Y-67200000D03*
X143900000Y-72500000D03*
X143100000Y-70900000D03*
X113300000Y-65600000D03*
X145300000Y-70700000D03*
X142800000Y-72000000D03*
X110500000Y-68800000D03*
X112000000Y-68500000D03*
X112400000Y-66800000D03*
X146100000Y-75900000D03*
X97350000Y-118550000D03*
D14*
X84700000Y-94000000D02*
X84700000Y-107600000D01*
X84700000Y-121700000D02*
X84700000Y-116600000D01*
X90000000Y-127000000D02*
X84700000Y-121700000D01*
X106000000Y-127000000D02*
X119100000Y-127000000D01*
X119100000Y-127000000D02*
X120500000Y-125600000D01*
X110700000Y-55400000D02*
X84700000Y-81400000D01*
X84700000Y-81400000D02*
X84700000Y-85000000D01*
X146500000Y-90600000D02*
X120500000Y-116600000D01*
X146500000Y-87000000D02*
X146500000Y-90600000D01*
X146500000Y-64400000D02*
X149700000Y-67600000D01*
X149700000Y-67600000D02*
X149700000Y-92800000D01*
X149700000Y-92800000D02*
X146500000Y-96000000D01*
X94000000Y-127000000D02*
X94000000Y-121900000D01*
X102000000Y-123200000D02*
X97350000Y-118550000D01*
X102000000Y-127000000D02*
X102000000Y-123200000D01*
X94000000Y-121900000D02*
X97350000Y-118550000D01*
G04 #@! TA.AperFunction,Conductor*
G36*
X97733879Y-39278502D02*
G01*
X97780372Y-39332158D01*
X97790476Y-39402432D01*
X97760982Y-39467012D01*
X97701256Y-39505396D01*
X97692600Y-39507608D01*
X97473586Y-39555361D01*
X97467011Y-39557172D01*
X97133683Y-39668702D01*
X97127361Y-39671205D01*
X96808034Y-39818079D01*
X96801991Y-39821265D01*
X96500401Y-40001763D01*
X96494755Y-40005571D01*
X96214408Y-40217596D01*
X96209211Y-40221987D01*
X96207972Y-40223155D01*
X96199950Y-40236862D01*
X96199986Y-40237704D01*
X96205037Y-40245826D01*
X98337190Y-42377980D01*
X98351131Y-42385592D01*
X98352966Y-42385461D01*
X98359580Y-42381210D01*
X100492798Y-40247991D01*
X100500412Y-40234047D01*
X100500344Y-40233089D01*
X100495836Y-40226272D01*
X100494418Y-40225065D01*
X100214813Y-40012064D01*
X100209187Y-40008240D01*
X99908214Y-39826681D01*
X99902202Y-39823484D01*
X99583370Y-39675487D01*
X99577070Y-39672967D01*
X99244129Y-39560273D01*
X99237551Y-39558437D01*
X99007846Y-39507513D01*
X98945669Y-39473241D01*
X98911891Y-39410795D01*
X98917237Y-39340000D01*
X98960009Y-39283333D01*
X99026627Y-39258786D01*
X99035117Y-39258500D01*
X125165758Y-39258500D01*
X125233879Y-39278502D01*
X125280372Y-39332158D01*
X125290476Y-39402432D01*
X125260982Y-39467012D01*
X125201256Y-39505396D01*
X125192600Y-39507608D01*
X124973586Y-39555361D01*
X124967011Y-39557172D01*
X124633683Y-39668702D01*
X124627361Y-39671205D01*
X124308034Y-39818079D01*
X124301991Y-39821265D01*
X124000401Y-40001763D01*
X123994755Y-40005571D01*
X123714408Y-40217596D01*
X123709211Y-40221987D01*
X123707972Y-40223155D01*
X123699950Y-40236862D01*
X123699986Y-40237704D01*
X123705037Y-40245826D01*
X125837190Y-42377980D01*
X125851131Y-42385592D01*
X125852966Y-42385461D01*
X125859580Y-42381210D01*
X127992798Y-40247991D01*
X128000412Y-40234047D01*
X128000344Y-40233089D01*
X127995836Y-40226272D01*
X127994418Y-40225065D01*
X127714813Y-40012064D01*
X127709187Y-40008240D01*
X127408214Y-39826681D01*
X127402202Y-39823484D01*
X127083370Y-39675487D01*
X127077070Y-39672967D01*
X126744129Y-39560273D01*
X126737551Y-39558437D01*
X126507846Y-39507513D01*
X126445669Y-39473241D01*
X126411891Y-39410795D01*
X126417237Y-39340000D01*
X126460009Y-39283333D01*
X126526627Y-39258786D01*
X126535117Y-39258500D01*
X134965500Y-39258500D01*
X135033621Y-39278502D01*
X135080114Y-39332158D01*
X135091500Y-39384500D01*
X135091500Y-45050633D01*
X135090000Y-45070018D01*
X135087690Y-45084851D01*
X135087690Y-45084855D01*
X135086309Y-45093724D01*
X135087474Y-45102631D01*
X135087470Y-45102927D01*
X135088185Y-45110417D01*
X135103322Y-45360654D01*
X135150392Y-45617507D01*
X135228079Y-45866814D01*
X135335250Y-46104938D01*
X135337219Y-46108195D01*
X135337221Y-46108199D01*
X135424665Y-46252848D01*
X135470343Y-46328409D01*
X135472684Y-46331397D01*
X135472686Y-46331400D01*
X135562998Y-46446674D01*
X135631387Y-46533966D01*
X135816034Y-46718613D01*
X135819034Y-46720963D01*
X135819037Y-46720966D01*
X135945089Y-46819721D01*
X136021591Y-46879657D01*
X136024845Y-46881624D01*
X136241801Y-47012779D01*
X136241805Y-47012781D01*
X136245062Y-47014750D01*
X136364124Y-47068335D01*
X136479710Y-47120357D01*
X136479716Y-47120359D01*
X136483186Y-47121921D01*
X136732493Y-47199608D01*
X136989346Y-47246678D01*
X136993140Y-47246908D01*
X136993144Y-47246908D01*
X137213220Y-47260221D01*
X137226509Y-47261736D01*
X137232649Y-47262769D01*
X137232652Y-47262769D01*
X137237448Y-47263576D01*
X137243826Y-47263654D01*
X137245140Y-47263670D01*
X137245143Y-47263670D01*
X137250000Y-47263729D01*
X137277624Y-47259773D01*
X137295486Y-47258500D01*
X142965500Y-47258500D01*
X143033621Y-47278502D01*
X143080114Y-47332158D01*
X143091500Y-47384500D01*
X143091500Y-49124909D01*
X143090690Y-49139172D01*
X143086484Y-49176089D01*
X143086999Y-49188631D01*
X143087944Y-49193403D01*
X143087944Y-49193405D01*
X143089700Y-49202274D01*
X143091084Y-49210779D01*
X143116353Y-49408652D01*
X143117611Y-49413117D01*
X143117612Y-49413123D01*
X143149145Y-49525061D01*
X143176513Y-49622214D01*
X143178418Y-49626455D01*
X143178419Y-49626458D01*
X143190972Y-49654406D01*
X143267421Y-49824610D01*
X143269926Y-49828520D01*
X143269930Y-49828528D01*
X143331033Y-49923915D01*
X143387099Y-50011439D01*
X143532948Y-50178641D01*
X143536479Y-50181651D01*
X143536484Y-50181656D01*
X143617372Y-50250611D01*
X143701796Y-50322581D01*
X143889973Y-50440129D01*
X143894232Y-50441984D01*
X144089117Y-50526872D01*
X144089121Y-50526873D01*
X144093388Y-50528732D01*
X144228400Y-50565114D01*
X144303129Y-50585252D01*
X144303132Y-50585253D01*
X144307620Y-50586462D01*
X144312239Y-50586999D01*
X144312241Y-50586999D01*
X144396607Y-50596799D01*
X144488673Y-50607495D01*
X144500220Y-50609383D01*
X144510658Y-50611592D01*
X144510662Y-50611592D01*
X144515427Y-50612601D01*
X144527962Y-50613279D01*
X144532797Y-50612792D01*
X144532799Y-50612792D01*
X144569118Y-50609134D01*
X144581744Y-50608500D01*
X151465500Y-50608500D01*
X151533621Y-50628502D01*
X151580114Y-50682158D01*
X151591500Y-50734500D01*
X151591500Y-133615500D01*
X151571498Y-133683621D01*
X151517842Y-133730114D01*
X151465500Y-133741500D01*
X137303250Y-133741500D01*
X137282345Y-133739754D01*
X137267344Y-133737230D01*
X137267341Y-133737230D01*
X137262552Y-133736424D01*
X137256313Y-133736348D01*
X137254860Y-133736330D01*
X137254857Y-133736330D01*
X137250000Y-133736271D01*
X137245190Y-133736960D01*
X137245188Y-133736960D01*
X137242000Y-133737417D01*
X137239580Y-133737763D01*
X137229332Y-133738805D01*
X136993144Y-133753092D01*
X136993140Y-133753093D01*
X136989346Y-133753322D01*
X136732493Y-133800392D01*
X136483186Y-133878079D01*
X136479716Y-133879641D01*
X136479710Y-133879643D01*
X136364124Y-133931664D01*
X136245062Y-133985250D01*
X136241805Y-133987219D01*
X136241801Y-133987221D01*
X136078321Y-134086049D01*
X136021591Y-134120343D01*
X136018603Y-134122684D01*
X136018600Y-134122686D01*
X135869367Y-134239603D01*
X135816034Y-134281387D01*
X135631387Y-134466034D01*
X135629037Y-134469034D01*
X135629034Y-134469037D01*
X135479487Y-134659920D01*
X135470343Y-134671591D01*
X135468376Y-134674845D01*
X135416746Y-134760252D01*
X135335250Y-134895062D01*
X135295957Y-134982367D01*
X135260895Y-135060273D01*
X135228079Y-135133186D01*
X135150392Y-135382493D01*
X135103322Y-135639346D01*
X135103093Y-135643140D01*
X135103092Y-135643144D01*
X135089325Y-135870735D01*
X135088056Y-135882505D01*
X135086309Y-135893724D01*
X135087473Y-135902626D01*
X135087473Y-135902628D01*
X135090436Y-135925283D01*
X135091500Y-135941621D01*
X135091500Y-141615500D01*
X135071498Y-141683621D01*
X135017842Y-141730114D01*
X134965500Y-141741500D01*
X126533537Y-141741500D01*
X126465416Y-141721498D01*
X126418923Y-141667842D01*
X126408819Y-141597568D01*
X126438313Y-141532988D01*
X126498039Y-141494604D01*
X126507125Y-141492299D01*
X126715274Y-141447676D01*
X126721822Y-141445897D01*
X127055549Y-141335527D01*
X127061891Y-141333041D01*
X127381718Y-141187288D01*
X127387777Y-141184121D01*
X127689995Y-141004676D01*
X127695659Y-141000884D01*
X127976732Y-140789849D01*
X127981958Y-140785464D01*
X127991613Y-140776428D01*
X127999682Y-140762750D01*
X127999654Y-140762024D01*
X127994512Y-140753723D01*
X125862810Y-138622020D01*
X125848869Y-138614408D01*
X125847034Y-138614539D01*
X125840420Y-138618790D01*
X123706774Y-140752437D01*
X123699160Y-140766381D01*
X123699237Y-140767470D01*
X123701698Y-140771206D01*
X123975632Y-140981404D01*
X123981262Y-140985259D01*
X124281591Y-141167862D01*
X124287593Y-141171080D01*
X124605897Y-141320184D01*
X124612202Y-141322732D01*
X124944743Y-141436587D01*
X124951309Y-141438444D01*
X125191542Y-141492583D01*
X125253598Y-141527071D01*
X125287158Y-141589636D01*
X125281565Y-141660412D01*
X125238596Y-141716928D01*
X125171892Y-141741242D01*
X125163841Y-141741500D01*
X99033537Y-141741500D01*
X98965416Y-141721498D01*
X98918923Y-141667842D01*
X98908819Y-141597568D01*
X98938313Y-141532988D01*
X98998039Y-141494604D01*
X99007125Y-141492299D01*
X99215274Y-141447676D01*
X99221822Y-141445897D01*
X99555549Y-141335527D01*
X99561891Y-141333041D01*
X99881718Y-141187288D01*
X99887777Y-141184121D01*
X100189995Y-141004676D01*
X100195659Y-141000884D01*
X100476732Y-140789849D01*
X100481958Y-140785464D01*
X100491613Y-140776428D01*
X100499682Y-140762750D01*
X100499654Y-140762024D01*
X100494512Y-140753723D01*
X98362810Y-138622020D01*
X98348869Y-138614408D01*
X98347034Y-138614539D01*
X98340420Y-138618790D01*
X96206774Y-140752437D01*
X96199160Y-140766381D01*
X96199237Y-140767470D01*
X96201698Y-140771206D01*
X96475632Y-140981404D01*
X96481262Y-140985259D01*
X96781591Y-141167862D01*
X96787593Y-141171080D01*
X97105897Y-141320184D01*
X97112202Y-141322732D01*
X97444743Y-141436587D01*
X97451309Y-141438444D01*
X97691542Y-141492583D01*
X97753598Y-141527071D01*
X97787158Y-141589636D01*
X97781565Y-141660412D01*
X97738596Y-141716928D01*
X97671892Y-141741242D01*
X97663841Y-141741500D01*
X89234500Y-141741500D01*
X89166379Y-141721498D01*
X89119886Y-141667842D01*
X89108500Y-141615500D01*
X89108500Y-138241832D01*
X95037333Y-138241832D01*
X95055117Y-138592893D01*
X95055827Y-138599649D01*
X95111420Y-138946723D01*
X95112859Y-138953378D01*
X95205608Y-139292410D01*
X95207757Y-139298871D01*
X95336581Y-139625912D01*
X95339412Y-139632095D01*
X95502803Y-139943310D01*
X95506286Y-139949152D01*
X95702330Y-140240896D01*
X95706433Y-140246340D01*
X95826425Y-140388836D01*
X95839164Y-140397279D01*
X95849608Y-140391181D01*
X97977980Y-138262810D01*
X97984357Y-138251131D01*
X98714408Y-138251131D01*
X98714539Y-138252966D01*
X98718790Y-138259580D01*
X100849009Y-140389798D01*
X100862605Y-140397223D01*
X100872218Y-140390522D01*
X100972518Y-140273912D01*
X100976676Y-140268514D01*
X101175762Y-139978840D01*
X101179310Y-139973029D01*
X101345942Y-139663559D01*
X101348849Y-139657381D01*
X101481090Y-139331713D01*
X101483304Y-139325283D01*
X101579598Y-138987237D01*
X101581105Y-138980607D01*
X101640332Y-138634118D01*
X101641112Y-138627378D01*
X101662668Y-138274925D01*
X101662784Y-138271323D01*
X101662853Y-138251819D01*
X101662761Y-138248194D01*
X101662416Y-138241832D01*
X122537333Y-138241832D01*
X122555117Y-138592893D01*
X122555827Y-138599649D01*
X122611420Y-138946723D01*
X122612859Y-138953378D01*
X122705608Y-139292410D01*
X122707757Y-139298871D01*
X122836581Y-139625912D01*
X122839412Y-139632095D01*
X123002803Y-139943310D01*
X123006286Y-139949152D01*
X123202330Y-140240896D01*
X123206433Y-140246340D01*
X123326425Y-140388836D01*
X123339164Y-140397279D01*
X123349608Y-140391181D01*
X125477980Y-138262810D01*
X125484357Y-138251131D01*
X126214408Y-138251131D01*
X126214539Y-138252966D01*
X126218790Y-138259580D01*
X128349009Y-140389798D01*
X128362605Y-140397223D01*
X128372218Y-140390522D01*
X128472518Y-140273912D01*
X128476676Y-140268514D01*
X128675762Y-139978840D01*
X128679310Y-139973029D01*
X128845942Y-139663559D01*
X128848849Y-139657381D01*
X128981090Y-139331713D01*
X128983304Y-139325283D01*
X129079598Y-138987237D01*
X129081105Y-138980607D01*
X129140332Y-138634118D01*
X129141112Y-138627378D01*
X129162668Y-138274925D01*
X129162784Y-138271323D01*
X129162853Y-138251819D01*
X129162761Y-138248194D01*
X129143666Y-137895615D01*
X129142931Y-137888849D01*
X129086130Y-137541985D01*
X129084663Y-137535313D01*
X128990736Y-137196627D01*
X128988562Y-137190163D01*
X128858598Y-136863578D01*
X128855742Y-136857398D01*
X128691269Y-136546763D01*
X128687769Y-136540937D01*
X128490697Y-136249862D01*
X128486590Y-136244453D01*
X128373565Y-136111179D01*
X128360740Y-136102743D01*
X128350416Y-136108795D01*
X126222020Y-138237190D01*
X126214408Y-138251131D01*
X125484357Y-138251131D01*
X125485592Y-138248869D01*
X125485461Y-138247034D01*
X125481210Y-138240420D01*
X123350992Y-136110203D01*
X123337455Y-136102811D01*
X123327753Y-136109599D01*
X123220430Y-136235257D01*
X123216296Y-136240664D01*
X123018215Y-136531041D01*
X123014697Y-136536851D01*
X122849134Y-136846922D01*
X122846259Y-136853087D01*
X122715155Y-137179218D01*
X122712962Y-137185658D01*
X122617846Y-137524044D01*
X122616363Y-137530679D01*
X122558350Y-137877354D01*
X122557591Y-137884126D01*
X122537357Y-138235037D01*
X122537333Y-138241832D01*
X101662416Y-138241832D01*
X101643666Y-137895615D01*
X101642931Y-137888849D01*
X101586130Y-137541985D01*
X101584663Y-137535313D01*
X101490736Y-137196627D01*
X101488562Y-137190163D01*
X101358598Y-136863578D01*
X101355742Y-136857398D01*
X101191269Y-136546763D01*
X101187769Y-136540937D01*
X100990697Y-136249862D01*
X100986590Y-136244453D01*
X100873565Y-136111179D01*
X100860740Y-136102743D01*
X100850416Y-136108795D01*
X98722020Y-138237190D01*
X98714408Y-138251131D01*
X97984357Y-138251131D01*
X97985592Y-138248869D01*
X97985461Y-138247034D01*
X97981210Y-138240420D01*
X95850992Y-136110203D01*
X95837455Y-136102811D01*
X95827753Y-136109599D01*
X95720430Y-136235257D01*
X95716296Y-136240664D01*
X95518215Y-136531041D01*
X95514697Y-136536851D01*
X95349134Y-136846922D01*
X95346259Y-136853087D01*
X95215155Y-137179218D01*
X95212962Y-137185658D01*
X95117846Y-137524044D01*
X95116363Y-137530679D01*
X95058350Y-137877354D01*
X95057591Y-137884126D01*
X95037357Y-138235037D01*
X95037333Y-138241832D01*
X89108500Y-138241832D01*
X89108500Y-135953250D01*
X89110246Y-135932345D01*
X89112770Y-135917344D01*
X89112770Y-135917341D01*
X89113576Y-135912552D01*
X89113729Y-135900000D01*
X89112237Y-135889580D01*
X89111195Y-135879332D01*
X89102577Y-135736862D01*
X96199950Y-135736862D01*
X96199986Y-135737704D01*
X96205037Y-135745826D01*
X98337190Y-137877980D01*
X98351131Y-137885592D01*
X98352966Y-137885461D01*
X98359580Y-137881210D01*
X100492798Y-135747991D01*
X100498875Y-135736862D01*
X123699950Y-135736862D01*
X123699986Y-135737704D01*
X123705037Y-135745826D01*
X125837190Y-137877980D01*
X125851131Y-137885592D01*
X125852966Y-137885461D01*
X125859580Y-137881210D01*
X127992798Y-135747991D01*
X128000412Y-135734047D01*
X128000344Y-135733089D01*
X127995836Y-135726272D01*
X127994418Y-135725065D01*
X127714813Y-135512064D01*
X127709187Y-135508240D01*
X127408214Y-135326681D01*
X127402202Y-135323484D01*
X127083370Y-135175487D01*
X127077070Y-135172967D01*
X126744129Y-135060273D01*
X126737551Y-135058437D01*
X126394417Y-134982367D01*
X126387678Y-134981251D01*
X126038310Y-134942680D01*
X126031529Y-134942301D01*
X125680015Y-134941687D01*
X125673242Y-134942042D01*
X125323720Y-134979395D01*
X125317010Y-134980482D01*
X124973586Y-135055361D01*
X124967011Y-135057172D01*
X124633683Y-135168702D01*
X124627361Y-135171205D01*
X124308034Y-135318079D01*
X124301991Y-135321265D01*
X124000401Y-135501763D01*
X123994755Y-135505571D01*
X123714408Y-135717596D01*
X123709211Y-135721987D01*
X123707972Y-135723155D01*
X123699950Y-135736862D01*
X100498875Y-135736862D01*
X100500412Y-135734047D01*
X100500344Y-135733089D01*
X100495836Y-135726272D01*
X100494418Y-135725065D01*
X100214813Y-135512064D01*
X100209187Y-135508240D01*
X99908214Y-135326681D01*
X99902202Y-135323484D01*
X99583370Y-135175487D01*
X99577070Y-135172967D01*
X99244129Y-135060273D01*
X99237551Y-135058437D01*
X98894417Y-134982367D01*
X98887678Y-134981251D01*
X98538310Y-134942680D01*
X98531529Y-134942301D01*
X98180015Y-134941687D01*
X98173242Y-134942042D01*
X97823720Y-134979395D01*
X97817010Y-134980482D01*
X97473586Y-135055361D01*
X97467011Y-135057172D01*
X97133683Y-135168702D01*
X97127361Y-135171205D01*
X96808034Y-135318079D01*
X96801991Y-135321265D01*
X96500401Y-135501763D01*
X96494755Y-135505571D01*
X96214408Y-135717596D01*
X96209211Y-135721987D01*
X96207972Y-135723155D01*
X96199950Y-135736862D01*
X89102577Y-135736862D01*
X89096908Y-135643144D01*
X89096907Y-135643140D01*
X89096678Y-135639346D01*
X89049608Y-135382493D01*
X88971921Y-135133186D01*
X88939106Y-135060273D01*
X88904043Y-134982367D01*
X88864750Y-134895062D01*
X88783255Y-134760252D01*
X88731624Y-134674845D01*
X88729657Y-134671591D01*
X88720514Y-134659920D01*
X88570966Y-134469037D01*
X88570963Y-134469034D01*
X88568613Y-134466034D01*
X88383966Y-134281387D01*
X88330633Y-134239603D01*
X88181400Y-134122686D01*
X88181397Y-134122684D01*
X88178409Y-134120343D01*
X88121679Y-134086049D01*
X87958199Y-133987221D01*
X87958195Y-133987219D01*
X87954938Y-133985250D01*
X87835876Y-133931664D01*
X87720290Y-133879643D01*
X87720284Y-133879641D01*
X87716814Y-133878079D01*
X87467507Y-133800392D01*
X87210654Y-133753322D01*
X87206860Y-133753092D01*
X87206856Y-133753092D01*
X86986780Y-133739779D01*
X86973491Y-133738264D01*
X86967351Y-133737231D01*
X86967348Y-133737231D01*
X86962552Y-133736424D01*
X86956174Y-133736346D01*
X86954860Y-133736330D01*
X86954857Y-133736330D01*
X86950000Y-133736271D01*
X86925679Y-133739754D01*
X86922376Y-133740227D01*
X86904514Y-133741500D01*
X81235387Y-133741500D01*
X81167266Y-133721498D01*
X81120773Y-133667842D01*
X81109387Y-133615324D01*
X81114171Y-130191375D01*
X81115190Y-130175560D01*
X81118780Y-130147501D01*
X81119399Y-130142663D01*
X81119057Y-130130115D01*
X81116982Y-130118819D01*
X81115758Y-130110647D01*
X81092923Y-129914645D01*
X81092920Y-129914630D01*
X81092362Y-129909840D01*
X81033394Y-129696016D01*
X81006241Y-129635569D01*
X80944483Y-129498090D01*
X80944482Y-129498089D01*
X80942505Y-129493687D01*
X80821821Y-129307588D01*
X80674166Y-129142072D01*
X80502994Y-129001011D01*
X80312311Y-128887708D01*
X80185746Y-128836711D01*
X80111051Y-128806614D01*
X80111047Y-128806613D01*
X80106578Y-128804812D01*
X80101881Y-128803713D01*
X80101879Y-128803712D01*
X79895305Y-128755363D01*
X79895304Y-128755363D01*
X79890609Y-128754264D01*
X79885809Y-128753895D01*
X79885805Y-128753894D01*
X79811672Y-128748189D01*
X79707148Y-128740146D01*
X79695887Y-128738766D01*
X79682010Y-128736427D01*
X79677138Y-128736366D01*
X79677133Y-128736366D01*
X79675872Y-128736351D01*
X79669458Y-128736271D01*
X79664639Y-128736960D01*
X79664638Y-128736960D01*
X79639623Y-128740536D01*
X79622635Y-128741801D01*
X74865874Y-128773643D01*
X72834571Y-128787241D01*
X72766318Y-128767696D01*
X72719467Y-128714352D01*
X72707728Y-128661397D01*
X72693091Y-116578918D01*
X82686917Y-116578918D01*
X82702682Y-116852320D01*
X82703507Y-116856525D01*
X82703508Y-116856533D01*
X82714127Y-116910657D01*
X82755405Y-117121053D01*
X82756792Y-117125103D01*
X82756793Y-117125108D01*
X82777605Y-117185895D01*
X82844112Y-117380144D01*
X82967160Y-117624799D01*
X82969586Y-117628328D01*
X82969589Y-117628334D01*
X83119843Y-117846953D01*
X83122274Y-117850490D01*
X83306582Y-118053043D01*
X83516675Y-118228707D01*
X83520316Y-118230991D01*
X83745024Y-118371951D01*
X83745028Y-118371953D01*
X83748664Y-118374234D01*
X83867352Y-118427824D01*
X83921205Y-118474086D01*
X83941500Y-118542660D01*
X83941500Y-121632930D01*
X83940067Y-121651880D01*
X83937902Y-121666113D01*
X83936801Y-121673349D01*
X83937394Y-121680641D01*
X83937394Y-121680644D01*
X83941085Y-121726018D01*
X83941500Y-121736233D01*
X83941500Y-121744293D01*
X83941925Y-121747937D01*
X83944789Y-121772507D01*
X83945222Y-121776882D01*
X83949715Y-121832115D01*
X83951140Y-121849637D01*
X83953396Y-121856601D01*
X83954587Y-121862560D01*
X83955971Y-121868415D01*
X83956818Y-121875681D01*
X83981735Y-121944327D01*
X83983152Y-121948455D01*
X84005649Y-122017899D01*
X84009445Y-122024154D01*
X84011951Y-122029628D01*
X84014670Y-122035058D01*
X84017167Y-122041937D01*
X84021180Y-122048057D01*
X84021180Y-122048058D01*
X84057186Y-122102976D01*
X84059523Y-122106680D01*
X84097405Y-122169107D01*
X84101121Y-122173315D01*
X84101122Y-122173316D01*
X84104803Y-122177484D01*
X84104776Y-122177508D01*
X84107429Y-122180500D01*
X84110132Y-122183733D01*
X84114144Y-122189852D01*
X84119456Y-122194884D01*
X84170383Y-122243128D01*
X84172825Y-122245506D01*
X88204595Y-126277276D01*
X88238621Y-126339588D01*
X88241500Y-126366371D01*
X88241500Y-127898134D01*
X88248255Y-127960316D01*
X88299385Y-128096705D01*
X88386739Y-128213261D01*
X88503295Y-128300615D01*
X88639684Y-128351745D01*
X88701866Y-128358500D01*
X91298134Y-128358500D01*
X91360316Y-128351745D01*
X91496705Y-128300615D01*
X91613261Y-128213261D01*
X91700615Y-128096705D01*
X91751745Y-127960316D01*
X91758500Y-127898134D01*
X92241500Y-127898134D01*
X92248255Y-127960316D01*
X92299385Y-128096705D01*
X92386739Y-128213261D01*
X92503295Y-128300615D01*
X92639684Y-128351745D01*
X92701866Y-128358500D01*
X95298134Y-128358500D01*
X95360316Y-128351745D01*
X95496705Y-128300615D01*
X95613261Y-128213261D01*
X95700615Y-128096705D01*
X95751745Y-127960316D01*
X95758500Y-127898134D01*
X95758500Y-126101866D01*
X95751745Y-126039684D01*
X95700615Y-125903295D01*
X95613261Y-125786739D01*
X95496705Y-125699385D01*
X95360316Y-125648255D01*
X95298134Y-125641500D01*
X94884500Y-125641500D01*
X94816379Y-125621498D01*
X94769886Y-125567842D01*
X94758500Y-125515500D01*
X94758500Y-122266371D01*
X94778502Y-122198250D01*
X94795405Y-122177276D01*
X97260905Y-119711776D01*
X97323217Y-119677750D01*
X97394032Y-119682815D01*
X97439095Y-119711776D01*
X101204595Y-123477276D01*
X101238621Y-123539588D01*
X101241500Y-123566371D01*
X101241500Y-125515500D01*
X101221498Y-125583621D01*
X101167842Y-125630114D01*
X101115500Y-125641500D01*
X100701866Y-125641500D01*
X100639684Y-125648255D01*
X100503295Y-125699385D01*
X100386739Y-125786739D01*
X100299385Y-125903295D01*
X100248255Y-126039684D01*
X100241500Y-126101866D01*
X100241500Y-127898134D01*
X100248255Y-127960316D01*
X100299385Y-128096705D01*
X100386739Y-128213261D01*
X100503295Y-128300615D01*
X100639684Y-128351745D01*
X100701866Y-128358500D01*
X103298134Y-128358500D01*
X103360316Y-128351745D01*
X103496705Y-128300615D01*
X103613261Y-128213261D01*
X103700615Y-128096705D01*
X103751745Y-127960316D01*
X103758500Y-127898134D01*
X104241500Y-127898134D01*
X104248255Y-127960316D01*
X104299385Y-128096705D01*
X104386739Y-128213261D01*
X104503295Y-128300615D01*
X104639684Y-128351745D01*
X104701866Y-128358500D01*
X107298134Y-128358500D01*
X107360316Y-128351745D01*
X107496705Y-128300615D01*
X107613261Y-128213261D01*
X107700615Y-128096705D01*
X107751745Y-127960316D01*
X107758500Y-127898134D01*
X107758500Y-127884500D01*
X107778502Y-127816379D01*
X107832158Y-127769886D01*
X107884500Y-127758500D01*
X119032930Y-127758500D01*
X119051880Y-127759933D01*
X119066115Y-127762099D01*
X119066119Y-127762099D01*
X119073349Y-127763199D01*
X119080641Y-127762606D01*
X119080644Y-127762606D01*
X119126018Y-127758915D01*
X119136233Y-127758500D01*
X119144293Y-127758500D01*
X119157583Y-127756951D01*
X119172507Y-127755211D01*
X119176882Y-127754778D01*
X119242339Y-127749454D01*
X119242342Y-127749453D01*
X119249637Y-127748860D01*
X119256601Y-127746604D01*
X119262560Y-127745413D01*
X119268415Y-127744029D01*
X119275681Y-127743182D01*
X119344327Y-127718265D01*
X119348455Y-127716848D01*
X119410936Y-127696607D01*
X119410938Y-127696606D01*
X119417899Y-127694351D01*
X119424154Y-127690555D01*
X119429628Y-127688049D01*
X119435058Y-127685330D01*
X119441937Y-127682833D01*
X119502976Y-127642814D01*
X119506680Y-127640477D01*
X119569107Y-127602595D01*
X119577484Y-127595197D01*
X119577508Y-127595224D01*
X119580500Y-127592571D01*
X119583733Y-127589868D01*
X119589852Y-127585856D01*
X119643128Y-127529617D01*
X119645506Y-127527175D01*
X119659278Y-127513403D01*
X119721590Y-127479377D01*
X119792293Y-127484400D01*
X119794339Y-127485161D01*
X119798257Y-127486930D01*
X119802379Y-127488151D01*
X120056723Y-127563491D01*
X120056727Y-127563492D01*
X120060836Y-127564709D01*
X120065070Y-127565357D01*
X120065075Y-127565358D01*
X120327298Y-127605483D01*
X120327300Y-127605483D01*
X120331540Y-127606132D01*
X120470912Y-127608322D01*
X120601071Y-127610367D01*
X120601077Y-127610367D01*
X120605362Y-127610434D01*
X120877235Y-127577534D01*
X121142127Y-127508041D01*
X121146087Y-127506401D01*
X121146092Y-127506399D01*
X121277583Y-127451933D01*
X121395136Y-127403241D01*
X121631582Y-127265073D01*
X121847089Y-127096094D01*
X122037669Y-126899431D01*
X122040202Y-126895983D01*
X122040206Y-126895978D01*
X122197257Y-126682178D01*
X122199795Y-126678723D01*
X122330468Y-126438054D01*
X122391221Y-126277276D01*
X122425751Y-126185895D01*
X122425752Y-126185891D01*
X122427269Y-126181877D01*
X122488407Y-125914933D01*
X122512751Y-125642161D01*
X122513193Y-125600000D01*
X122513024Y-125597519D01*
X122494859Y-125331055D01*
X122494858Y-125331049D01*
X122494567Y-125326778D01*
X122439032Y-125058612D01*
X122347617Y-124800465D01*
X122222013Y-124557112D01*
X122212040Y-124542921D01*
X122067008Y-124336562D01*
X122064545Y-124333057D01*
X121878125Y-124132445D01*
X121874810Y-124129731D01*
X121874806Y-124129728D01*
X121669523Y-123961706D01*
X121666205Y-123958990D01*
X121432704Y-123815901D01*
X121428768Y-123814173D01*
X121185873Y-123707549D01*
X121185869Y-123707548D01*
X121181945Y-123705825D01*
X120918566Y-123630800D01*
X120914324Y-123630196D01*
X120914318Y-123630195D01*
X120713834Y-123601662D01*
X120647443Y-123592213D01*
X120503589Y-123591460D01*
X120377877Y-123590802D01*
X120377871Y-123590802D01*
X120373591Y-123590780D01*
X120369347Y-123591339D01*
X120369343Y-123591339D01*
X120250302Y-123607011D01*
X120102078Y-123626525D01*
X120097938Y-123627658D01*
X120097936Y-123627658D01*
X120025008Y-123647609D01*
X119837928Y-123698788D01*
X119833980Y-123700472D01*
X119589982Y-123804546D01*
X119589978Y-123804548D01*
X119586030Y-123806232D01*
X119566125Y-123818145D01*
X119354725Y-123944664D01*
X119354721Y-123944667D01*
X119351043Y-123946868D01*
X119137318Y-124118094D01*
X118948808Y-124316742D01*
X118789002Y-124539136D01*
X118660857Y-124781161D01*
X118659385Y-124785184D01*
X118659383Y-124785188D01*
X118652314Y-124804506D01*
X118566743Y-125038337D01*
X118508404Y-125305907D01*
X118486917Y-125578918D01*
X118502682Y-125852320D01*
X118503509Y-125856534D01*
X118503509Y-125856536D01*
X118549556Y-126091243D01*
X118543043Y-126161940D01*
X118499341Y-126217893D01*
X118425913Y-126241500D01*
X107884500Y-126241500D01*
X107816379Y-126221498D01*
X107769886Y-126167842D01*
X107758500Y-126115500D01*
X107758500Y-126101866D01*
X107751745Y-126039684D01*
X107700615Y-125903295D01*
X107613261Y-125786739D01*
X107496705Y-125699385D01*
X107360316Y-125648255D01*
X107298134Y-125641500D01*
X104701866Y-125641500D01*
X104639684Y-125648255D01*
X104503295Y-125699385D01*
X104386739Y-125786739D01*
X104299385Y-125903295D01*
X104248255Y-126039684D01*
X104241500Y-126101866D01*
X104241500Y-127898134D01*
X103758500Y-127898134D01*
X103758500Y-126101866D01*
X103751745Y-126039684D01*
X103700615Y-125903295D01*
X103613261Y-125786739D01*
X103496705Y-125699385D01*
X103360316Y-125648255D01*
X103298134Y-125641500D01*
X102884500Y-125641500D01*
X102816379Y-125621498D01*
X102769886Y-125567842D01*
X102758500Y-125515500D01*
X102758500Y-123267070D01*
X102759933Y-123248120D01*
X102762099Y-123233885D01*
X102762099Y-123233881D01*
X102763199Y-123226651D01*
X102758915Y-123173982D01*
X102758500Y-123163767D01*
X102758500Y-123155707D01*
X102755211Y-123127493D01*
X102754778Y-123123118D01*
X102749454Y-123057661D01*
X102749453Y-123057658D01*
X102748860Y-123050363D01*
X102746604Y-123043399D01*
X102745413Y-123037440D01*
X102744029Y-123031585D01*
X102743182Y-123024319D01*
X102718265Y-122955673D01*
X102716848Y-122951545D01*
X102696607Y-122889064D01*
X102696606Y-122889062D01*
X102694351Y-122882101D01*
X102690555Y-122875846D01*
X102688049Y-122870372D01*
X102685330Y-122864942D01*
X102682833Y-122858063D01*
X102642814Y-122797024D01*
X102640467Y-122793305D01*
X102602595Y-122730893D01*
X102595197Y-122722516D01*
X102595224Y-122722492D01*
X102592571Y-122719500D01*
X102589868Y-122716267D01*
X102585856Y-122710148D01*
X102529617Y-122656872D01*
X102527175Y-122654494D01*
X98270125Y-118397444D01*
X98239387Y-118347285D01*
X98200859Y-118228707D01*
X98184527Y-118178444D01*
X98089040Y-118013056D01*
X97961253Y-117871134D01*
X97806752Y-117758882D01*
X97800724Y-117756198D01*
X97800722Y-117756197D01*
X97638319Y-117683891D01*
X97638318Y-117683891D01*
X97632288Y-117681206D01*
X97538888Y-117661353D01*
X97451944Y-117642872D01*
X97451939Y-117642872D01*
X97445487Y-117641500D01*
X97254513Y-117641500D01*
X97248061Y-117642872D01*
X97248056Y-117642872D01*
X97161112Y-117661353D01*
X97067712Y-117681206D01*
X97061682Y-117683891D01*
X97061681Y-117683891D01*
X96899278Y-117756197D01*
X96899276Y-117756198D01*
X96893248Y-117758882D01*
X96738747Y-117871134D01*
X96610960Y-118013056D01*
X96515473Y-118178444D01*
X96499142Y-118228707D01*
X96460613Y-118347285D01*
X96429875Y-118397444D01*
X93511089Y-121316230D01*
X93496677Y-121328616D01*
X93485082Y-121337149D01*
X93485077Y-121337154D01*
X93479182Y-121341492D01*
X93474443Y-121347070D01*
X93474440Y-121347073D01*
X93444965Y-121381768D01*
X93438035Y-121389284D01*
X93432340Y-121394979D01*
X93430060Y-121397861D01*
X93414719Y-121417251D01*
X93411928Y-121420655D01*
X93369409Y-121470703D01*
X93364667Y-121476285D01*
X93361339Y-121482801D01*
X93357972Y-121487850D01*
X93354805Y-121492979D01*
X93350266Y-121498716D01*
X93319345Y-121564875D01*
X93317442Y-121568769D01*
X93284231Y-121633808D01*
X93282492Y-121640916D01*
X93280393Y-121646559D01*
X93278476Y-121652322D01*
X93275378Y-121658950D01*
X93273888Y-121666112D01*
X93273888Y-121666113D01*
X93260514Y-121730412D01*
X93259544Y-121734696D01*
X93242192Y-121805610D01*
X93241500Y-121816764D01*
X93241464Y-121816762D01*
X93241225Y-121820755D01*
X93240851Y-121824947D01*
X93239360Y-121832115D01*
X93239558Y-121839432D01*
X93241454Y-121909521D01*
X93241500Y-121912928D01*
X93241500Y-125515500D01*
X93221498Y-125583621D01*
X93167842Y-125630114D01*
X93115500Y-125641500D01*
X92701866Y-125641500D01*
X92639684Y-125648255D01*
X92503295Y-125699385D01*
X92386739Y-125786739D01*
X92299385Y-125903295D01*
X92248255Y-126039684D01*
X92241500Y-126101866D01*
X92241500Y-127898134D01*
X91758500Y-127898134D01*
X91758500Y-126101866D01*
X91751745Y-126039684D01*
X91700615Y-125903295D01*
X91613261Y-125786739D01*
X91496705Y-125699385D01*
X91360316Y-125648255D01*
X91298134Y-125641500D01*
X89766371Y-125641500D01*
X89698250Y-125621498D01*
X89677276Y-125604595D01*
X85495405Y-121422724D01*
X85461379Y-121360412D01*
X85458500Y-121333629D01*
X85458500Y-118544028D01*
X85478502Y-118475907D01*
X85536281Y-118427620D01*
X85595136Y-118403241D01*
X85831582Y-118265073D01*
X86047089Y-118096094D01*
X86088809Y-118053043D01*
X86234686Y-117902509D01*
X86237669Y-117899431D01*
X86240202Y-117895983D01*
X86240206Y-117895978D01*
X86397257Y-117682178D01*
X86399795Y-117678723D01*
X86427154Y-117628334D01*
X86528418Y-117441830D01*
X86528419Y-117441828D01*
X86530468Y-117438054D01*
X86627269Y-117181877D01*
X86688407Y-116914933D01*
X86712751Y-116642161D01*
X86713193Y-116600000D01*
X86711756Y-116578918D01*
X118486917Y-116578918D01*
X118502682Y-116852320D01*
X118503507Y-116856525D01*
X118503508Y-116856533D01*
X118514127Y-116910657D01*
X118555405Y-117121053D01*
X118556792Y-117125103D01*
X118556793Y-117125108D01*
X118577605Y-117185895D01*
X118644112Y-117380144D01*
X118767160Y-117624799D01*
X118769586Y-117628328D01*
X118769589Y-117628334D01*
X118919843Y-117846953D01*
X118922274Y-117850490D01*
X119106582Y-118053043D01*
X119316675Y-118228707D01*
X119320316Y-118230991D01*
X119545024Y-118371951D01*
X119545028Y-118371953D01*
X119548664Y-118374234D01*
X119616544Y-118404883D01*
X119794345Y-118485164D01*
X119794349Y-118485166D01*
X119798257Y-118486930D01*
X119802377Y-118488150D01*
X119802376Y-118488150D01*
X120056723Y-118563491D01*
X120056727Y-118563492D01*
X120060836Y-118564709D01*
X120065070Y-118565357D01*
X120065075Y-118565358D01*
X120327298Y-118605483D01*
X120327300Y-118605483D01*
X120331540Y-118606132D01*
X120470912Y-118608322D01*
X120601071Y-118610367D01*
X120601077Y-118610367D01*
X120605362Y-118610434D01*
X120877235Y-118577534D01*
X121142127Y-118508041D01*
X121146087Y-118506401D01*
X121146092Y-118506399D01*
X121268632Y-118455641D01*
X121395136Y-118403241D01*
X121631582Y-118265073D01*
X121847089Y-118096094D01*
X121888809Y-118053043D01*
X122034686Y-117902509D01*
X122037669Y-117899431D01*
X122040202Y-117895983D01*
X122040206Y-117895978D01*
X122197257Y-117682178D01*
X122199795Y-117678723D01*
X122227154Y-117628334D01*
X122328418Y-117441830D01*
X122328419Y-117441828D01*
X122330468Y-117438054D01*
X122427269Y-117181877D01*
X122488407Y-116914933D01*
X122512751Y-116642161D01*
X122513193Y-116600000D01*
X122494567Y-116326778D01*
X122439032Y-116058612D01*
X122437602Y-116054574D01*
X122437601Y-116054569D01*
X122380588Y-115893569D01*
X122376704Y-115822679D01*
X122410266Y-115762415D01*
X142193763Y-95978918D01*
X144486917Y-95978918D01*
X144502682Y-96252320D01*
X144503507Y-96256525D01*
X144503508Y-96256533D01*
X144514127Y-96310657D01*
X144555405Y-96521053D01*
X144556792Y-96525103D01*
X144556793Y-96525108D01*
X144577605Y-96585895D01*
X144644112Y-96780144D01*
X144767160Y-97024799D01*
X144769586Y-97028328D01*
X144769589Y-97028334D01*
X144919843Y-97246953D01*
X144922274Y-97250490D01*
X145106582Y-97453043D01*
X145316675Y-97628707D01*
X145320316Y-97630991D01*
X145545024Y-97771951D01*
X145545028Y-97771953D01*
X145548664Y-97774234D01*
X145616544Y-97804883D01*
X145794345Y-97885164D01*
X145794349Y-97885166D01*
X145798257Y-97886930D01*
X145802377Y-97888150D01*
X145802376Y-97888150D01*
X146056723Y-97963491D01*
X146056727Y-97963492D01*
X146060836Y-97964709D01*
X146065070Y-97965357D01*
X146065075Y-97965358D01*
X146327298Y-98005483D01*
X146327300Y-98005483D01*
X146331540Y-98006132D01*
X146470912Y-98008322D01*
X146601071Y-98010367D01*
X146601077Y-98010367D01*
X146605362Y-98010434D01*
X146877235Y-97977534D01*
X147142127Y-97908041D01*
X147146087Y-97906401D01*
X147146092Y-97906399D01*
X147268631Y-97855641D01*
X147395136Y-97803241D01*
X147631582Y-97665073D01*
X147847089Y-97496094D01*
X147888809Y-97453043D01*
X148034686Y-97302509D01*
X148037669Y-97299431D01*
X148040202Y-97295983D01*
X148040206Y-97295978D01*
X148197257Y-97082178D01*
X148199795Y-97078723D01*
X148227154Y-97028334D01*
X148328418Y-96841830D01*
X148328419Y-96841828D01*
X148330468Y-96838054D01*
X148427269Y-96581877D01*
X148488407Y-96314933D01*
X148512751Y-96042161D01*
X148513193Y-96000000D01*
X148509284Y-95942660D01*
X148494859Y-95731055D01*
X148494858Y-95731049D01*
X148494567Y-95726778D01*
X148439032Y-95458612D01*
X148437604Y-95454578D01*
X148437601Y-95454569D01*
X148380588Y-95293569D01*
X148376704Y-95222679D01*
X148410266Y-95162415D01*
X150188911Y-93383770D01*
X150203323Y-93371384D01*
X150214918Y-93362851D01*
X150214923Y-93362846D01*
X150220818Y-93358508D01*
X150225557Y-93352930D01*
X150225560Y-93352927D01*
X150255035Y-93318232D01*
X150261965Y-93310716D01*
X150267660Y-93305021D01*
X150285281Y-93282749D01*
X150288072Y-93279345D01*
X150330591Y-93229297D01*
X150330592Y-93229295D01*
X150335333Y-93223715D01*
X150338661Y-93217199D01*
X150342028Y-93212150D01*
X150345195Y-93207021D01*
X150349734Y-93201284D01*
X150380655Y-93135125D01*
X150382561Y-93131225D01*
X150415769Y-93066192D01*
X150417508Y-93059084D01*
X150419607Y-93053441D01*
X150421524Y-93047678D01*
X150424622Y-93041050D01*
X150439487Y-92969583D01*
X150440457Y-92965299D01*
X150456473Y-92899845D01*
X150457808Y-92894390D01*
X150458500Y-92883236D01*
X150458536Y-92883238D01*
X150458775Y-92879245D01*
X150459149Y-92875053D01*
X150460640Y-92867885D01*
X150458546Y-92790479D01*
X150458500Y-92787072D01*
X150458500Y-67667063D01*
X150459933Y-67648114D01*
X150462097Y-67633886D01*
X150463198Y-67626651D01*
X150458915Y-67573990D01*
X150458500Y-67563777D01*
X150458500Y-67555707D01*
X150458078Y-67552087D01*
X150458077Y-67552069D01*
X150455208Y-67527461D01*
X150454775Y-67523086D01*
X150449454Y-67457661D01*
X150449453Y-67457658D01*
X150448860Y-67450363D01*
X150446604Y-67443399D01*
X150445413Y-67437440D01*
X150444029Y-67431585D01*
X150443182Y-67424319D01*
X150418265Y-67355673D01*
X150416848Y-67351545D01*
X150396607Y-67289064D01*
X150396606Y-67289062D01*
X150394351Y-67282101D01*
X150390555Y-67275846D01*
X150388049Y-67270372D01*
X150385330Y-67264942D01*
X150382833Y-67258063D01*
X150342809Y-67197016D01*
X150340472Y-67193312D01*
X150305509Y-67135693D01*
X150305505Y-67135688D01*
X150302595Y-67130892D01*
X150295197Y-67122516D01*
X150295223Y-67122493D01*
X150292574Y-67119503D01*
X150289866Y-67116264D01*
X150285856Y-67110148D01*
X150280549Y-67105121D01*
X150280546Y-67105117D01*
X150229617Y-67056872D01*
X150227175Y-67054494D01*
X148410009Y-65237328D01*
X148375983Y-65175016D01*
X148381238Y-65103695D01*
X148425751Y-64985895D01*
X148425752Y-64985891D01*
X148427269Y-64981877D01*
X148488407Y-64714933D01*
X148494384Y-64647969D01*
X148512531Y-64444627D01*
X148512532Y-64444616D01*
X148512751Y-64442161D01*
X148513193Y-64400000D01*
X148511465Y-64374648D01*
X148494859Y-64131055D01*
X148494858Y-64131049D01*
X148494567Y-64126778D01*
X148439032Y-63858612D01*
X148347617Y-63600465D01*
X148222013Y-63357112D01*
X148212040Y-63342921D01*
X148067008Y-63136562D01*
X148064545Y-63133057D01*
X147878125Y-62932445D01*
X147874810Y-62929731D01*
X147874806Y-62929728D01*
X147669523Y-62761706D01*
X147666205Y-62758990D01*
X147432704Y-62615901D01*
X147428768Y-62614173D01*
X147185873Y-62507549D01*
X147185869Y-62507548D01*
X147181945Y-62505825D01*
X146918566Y-62430800D01*
X146914324Y-62430196D01*
X146914318Y-62430195D01*
X146713834Y-62401662D01*
X146647443Y-62392213D01*
X146503589Y-62391460D01*
X146377877Y-62390802D01*
X146377871Y-62390802D01*
X146373591Y-62390780D01*
X146369347Y-62391339D01*
X146369343Y-62391339D01*
X146250302Y-62407011D01*
X146102078Y-62426525D01*
X146097938Y-62427658D01*
X146097936Y-62427658D01*
X146025008Y-62447609D01*
X145837928Y-62498788D01*
X145833980Y-62500472D01*
X145589982Y-62604546D01*
X145589978Y-62604548D01*
X145586030Y-62606232D01*
X145566125Y-62618145D01*
X145354725Y-62744664D01*
X145354721Y-62744667D01*
X145351043Y-62746868D01*
X145137318Y-62918094D01*
X144948808Y-63116742D01*
X144789002Y-63339136D01*
X144660857Y-63581161D01*
X144659385Y-63585184D01*
X144659383Y-63585188D01*
X144652314Y-63604506D01*
X144566743Y-63838337D01*
X144508404Y-64105907D01*
X144486917Y-64378918D01*
X144502682Y-64652320D01*
X144503507Y-64656525D01*
X144503508Y-64656533D01*
X144524698Y-64764539D01*
X144555405Y-64921053D01*
X144556792Y-64925103D01*
X144556793Y-64925108D01*
X144642356Y-65175016D01*
X144644112Y-65180144D01*
X144767160Y-65424799D01*
X144769586Y-65428328D01*
X144769589Y-65428334D01*
X144898741Y-65616250D01*
X144922274Y-65650490D01*
X145106582Y-65853043D01*
X145316675Y-66028707D01*
X145320316Y-66030991D01*
X145545024Y-66171951D01*
X145545028Y-66171953D01*
X145548664Y-66174234D01*
X145673461Y-66230582D01*
X145794345Y-66285164D01*
X145794349Y-66285166D01*
X145798257Y-66286930D01*
X145802377Y-66288150D01*
X145802376Y-66288150D01*
X146056723Y-66363491D01*
X146056727Y-66363492D01*
X146060836Y-66364709D01*
X146065070Y-66365357D01*
X146065075Y-66365358D01*
X146327298Y-66405483D01*
X146327300Y-66405483D01*
X146331540Y-66406132D01*
X146470912Y-66408322D01*
X146601071Y-66410367D01*
X146601077Y-66410367D01*
X146605362Y-66410434D01*
X146877235Y-66377534D01*
X147142127Y-66308041D01*
X147146096Y-66306397D01*
X147146099Y-66306396D01*
X147200981Y-66283663D01*
X147271571Y-66276073D01*
X147338295Y-66310976D01*
X148904595Y-67877276D01*
X148938621Y-67939588D01*
X148941500Y-67966371D01*
X148941500Y-92433629D01*
X148921498Y-92501750D01*
X148904595Y-92522724D01*
X147339814Y-94087505D01*
X147277502Y-94121531D01*
X147200074Y-94113783D01*
X147181945Y-94105825D01*
X146918566Y-94030800D01*
X146914324Y-94030196D01*
X146914318Y-94030195D01*
X146713834Y-94001662D01*
X146647443Y-93992213D01*
X146503589Y-93991460D01*
X146377877Y-93990802D01*
X146377871Y-93990802D01*
X146373591Y-93990780D01*
X146369347Y-93991339D01*
X146369343Y-93991339D01*
X146303557Y-94000000D01*
X146102078Y-94026525D01*
X146097938Y-94027658D01*
X146097936Y-94027658D01*
X146053969Y-94039686D01*
X145837928Y-94098788D01*
X145833980Y-94100472D01*
X145589982Y-94204546D01*
X145589978Y-94204548D01*
X145586030Y-94206232D01*
X145516187Y-94248032D01*
X145354725Y-94344664D01*
X145354721Y-94344667D01*
X145351043Y-94346868D01*
X145137318Y-94518094D01*
X144948808Y-94716742D01*
X144789002Y-94939136D01*
X144660857Y-95181161D01*
X144659385Y-95185184D01*
X144659383Y-95185188D01*
X144617576Y-95299431D01*
X144566743Y-95438337D01*
X144508404Y-95705907D01*
X144486917Y-95978918D01*
X142193763Y-95978918D01*
X146988911Y-91183770D01*
X147003323Y-91171384D01*
X147014918Y-91162851D01*
X147014923Y-91162846D01*
X147020818Y-91158508D01*
X147025557Y-91152930D01*
X147025560Y-91152927D01*
X147055035Y-91118232D01*
X147061965Y-91110716D01*
X147067661Y-91105020D01*
X147069924Y-91102159D01*
X147069929Y-91102154D01*
X147085285Y-91082744D01*
X147088074Y-91079342D01*
X147130596Y-91029291D01*
X147130597Y-91029290D01*
X147135333Y-91023715D01*
X147138661Y-91017198D01*
X147142027Y-91012150D01*
X147145190Y-91007028D01*
X147149735Y-91001284D01*
X147180664Y-90935105D01*
X147182563Y-90931221D01*
X147215769Y-90866192D01*
X147217510Y-90859077D01*
X147219613Y-90853422D01*
X147221522Y-90847683D01*
X147224622Y-90841050D01*
X147239491Y-90769565D01*
X147240461Y-90765282D01*
X147256473Y-90699844D01*
X147257808Y-90694390D01*
X147258500Y-90683236D01*
X147258535Y-90683238D01*
X147258775Y-90679266D01*
X147259152Y-90675045D01*
X147260641Y-90667885D01*
X147258546Y-90590458D01*
X147258500Y-90587050D01*
X147258500Y-88944028D01*
X147278502Y-88875907D01*
X147336281Y-88827620D01*
X147395136Y-88803241D01*
X147631582Y-88665073D01*
X147847089Y-88496094D01*
X147888809Y-88453043D01*
X148034686Y-88302509D01*
X148037669Y-88299431D01*
X148040202Y-88295983D01*
X148040206Y-88295978D01*
X148197257Y-88082178D01*
X148199795Y-88078723D01*
X148227154Y-88028334D01*
X148328418Y-87841830D01*
X148328419Y-87841828D01*
X148330468Y-87838054D01*
X148427269Y-87581877D01*
X148488407Y-87314933D01*
X148512751Y-87042161D01*
X148513193Y-87000000D01*
X148511697Y-86978050D01*
X148494859Y-86731055D01*
X148494858Y-86731049D01*
X148494567Y-86726778D01*
X148439032Y-86458612D01*
X148347617Y-86200465D01*
X148222013Y-85957112D01*
X148212040Y-85942921D01*
X148135514Y-85834036D01*
X148064545Y-85733057D01*
X147924060Y-85581877D01*
X147881046Y-85535588D01*
X147881043Y-85535585D01*
X147878125Y-85532445D01*
X147874810Y-85529731D01*
X147874806Y-85529728D01*
X147669523Y-85361706D01*
X147666205Y-85358990D01*
X147432704Y-85215901D01*
X147428768Y-85214173D01*
X147185873Y-85107549D01*
X147185869Y-85107548D01*
X147181945Y-85105825D01*
X146918566Y-85030800D01*
X146914324Y-85030196D01*
X146914318Y-85030195D01*
X146713834Y-85001662D01*
X146647443Y-84992213D01*
X146503589Y-84991460D01*
X146377877Y-84990802D01*
X146377871Y-84990802D01*
X146373591Y-84990780D01*
X146369347Y-84991339D01*
X146369343Y-84991339D01*
X146303557Y-85000000D01*
X146102078Y-85026525D01*
X146097938Y-85027658D01*
X146097936Y-85027658D01*
X146053969Y-85039686D01*
X145837928Y-85098788D01*
X145833980Y-85100472D01*
X145589982Y-85204546D01*
X145589978Y-85204548D01*
X145586030Y-85206232D01*
X145566125Y-85218145D01*
X145354725Y-85344664D01*
X145354721Y-85344667D01*
X145351043Y-85346868D01*
X145137318Y-85518094D01*
X144948808Y-85716742D01*
X144789002Y-85939136D01*
X144660857Y-86181161D01*
X144659385Y-86185184D01*
X144659383Y-86185188D01*
X144617576Y-86299431D01*
X144566743Y-86438337D01*
X144508404Y-86705907D01*
X144508068Y-86710177D01*
X144492625Y-86906399D01*
X144486917Y-86978918D01*
X144502682Y-87252320D01*
X144503507Y-87256525D01*
X144503508Y-87256533D01*
X144514127Y-87310657D01*
X144555405Y-87521053D01*
X144556792Y-87525103D01*
X144556793Y-87525108D01*
X144577605Y-87585895D01*
X144644112Y-87780144D01*
X144767160Y-88024799D01*
X144769586Y-88028328D01*
X144769589Y-88028334D01*
X144919843Y-88246953D01*
X144922274Y-88250490D01*
X145106582Y-88453043D01*
X145316675Y-88628707D01*
X145320316Y-88630991D01*
X145545024Y-88771951D01*
X145545028Y-88771953D01*
X145548664Y-88774234D01*
X145667352Y-88827824D01*
X145721205Y-88874086D01*
X145741500Y-88942660D01*
X145741500Y-90233629D01*
X145721498Y-90301750D01*
X145704595Y-90322724D01*
X121339814Y-114687505D01*
X121277502Y-114721531D01*
X121200074Y-114713783D01*
X121181945Y-114705825D01*
X120918566Y-114630800D01*
X120914324Y-114630196D01*
X120914318Y-114630195D01*
X120713834Y-114601662D01*
X120647443Y-114592213D01*
X120503589Y-114591460D01*
X120377877Y-114590802D01*
X120377871Y-114590802D01*
X120373591Y-114590780D01*
X120369347Y-114591339D01*
X120369343Y-114591339D01*
X120250302Y-114607011D01*
X120102078Y-114626525D01*
X120097938Y-114627658D01*
X120097936Y-114627658D01*
X120025008Y-114647609D01*
X119837928Y-114698788D01*
X119833980Y-114700472D01*
X119589982Y-114804546D01*
X119589978Y-114804548D01*
X119586030Y-114806232D01*
X119566125Y-114818145D01*
X119354725Y-114944664D01*
X119354721Y-114944667D01*
X119351043Y-114946868D01*
X119137318Y-115118094D01*
X118948808Y-115316742D01*
X118789002Y-115539136D01*
X118660857Y-115781161D01*
X118659385Y-115785184D01*
X118659383Y-115785188D01*
X118652314Y-115804506D01*
X118566743Y-116038337D01*
X118508404Y-116305907D01*
X118486917Y-116578918D01*
X86711756Y-116578918D01*
X86694567Y-116326778D01*
X86639032Y-116058612D01*
X86547617Y-115800465D01*
X86422013Y-115557112D01*
X86412040Y-115542921D01*
X86267008Y-115336562D01*
X86264545Y-115333057D01*
X86078125Y-115132445D01*
X86074810Y-115129731D01*
X86074806Y-115129728D01*
X85869523Y-114961706D01*
X85866205Y-114958990D01*
X85632704Y-114815901D01*
X85628768Y-114814173D01*
X85385873Y-114707549D01*
X85385869Y-114707548D01*
X85381945Y-114705825D01*
X85118566Y-114630800D01*
X85114324Y-114630196D01*
X85114318Y-114630195D01*
X84913834Y-114601662D01*
X84847443Y-114592213D01*
X84703589Y-114591460D01*
X84577877Y-114590802D01*
X84577871Y-114590802D01*
X84573591Y-114590780D01*
X84569347Y-114591339D01*
X84569343Y-114591339D01*
X84450302Y-114607011D01*
X84302078Y-114626525D01*
X84297938Y-114627658D01*
X84297936Y-114627658D01*
X84225008Y-114647609D01*
X84037928Y-114698788D01*
X84033980Y-114700472D01*
X83789982Y-114804546D01*
X83789978Y-114804548D01*
X83786030Y-114806232D01*
X83766125Y-114818145D01*
X83554725Y-114944664D01*
X83554721Y-114944667D01*
X83551043Y-114946868D01*
X83337318Y-115118094D01*
X83148808Y-115316742D01*
X82989002Y-115539136D01*
X82860857Y-115781161D01*
X82859385Y-115785184D01*
X82859383Y-115785188D01*
X82852314Y-115804506D01*
X82766743Y-116038337D01*
X82708404Y-116305907D01*
X82686917Y-116578918D01*
X72693091Y-116578918D01*
X72682189Y-107578918D01*
X82686917Y-107578918D01*
X82702682Y-107852320D01*
X82703507Y-107856525D01*
X82703508Y-107856533D01*
X82714127Y-107910657D01*
X82755405Y-108121053D01*
X82756792Y-108125103D01*
X82756793Y-108125108D01*
X82777605Y-108185895D01*
X82844112Y-108380144D01*
X82967160Y-108624799D01*
X82969586Y-108628328D01*
X82969589Y-108628334D01*
X83119843Y-108846953D01*
X83122274Y-108850490D01*
X83306582Y-109053043D01*
X83516675Y-109228707D01*
X83520316Y-109230991D01*
X83745024Y-109371951D01*
X83745028Y-109371953D01*
X83748664Y-109374234D01*
X83816544Y-109404883D01*
X83994345Y-109485164D01*
X83994349Y-109485166D01*
X83998257Y-109486930D01*
X84002377Y-109488150D01*
X84002376Y-109488150D01*
X84256723Y-109563491D01*
X84256727Y-109563492D01*
X84260836Y-109564709D01*
X84265070Y-109565357D01*
X84265075Y-109565358D01*
X84527298Y-109605483D01*
X84527300Y-109605483D01*
X84531540Y-109606132D01*
X84670912Y-109608322D01*
X84801071Y-109610367D01*
X84801077Y-109610367D01*
X84805362Y-109610434D01*
X85077235Y-109577534D01*
X85342127Y-109508041D01*
X85346087Y-109506401D01*
X85346092Y-109506399D01*
X85468632Y-109455641D01*
X85595136Y-109403241D01*
X85831582Y-109265073D01*
X86047089Y-109096094D01*
X86088809Y-109053043D01*
X86234686Y-108902509D01*
X86237669Y-108899431D01*
X86240202Y-108895983D01*
X86240206Y-108895978D01*
X86397257Y-108682178D01*
X86399795Y-108678723D01*
X86427154Y-108628334D01*
X86528418Y-108441830D01*
X86528419Y-108441828D01*
X86530468Y-108438054D01*
X86627269Y-108181877D01*
X86688407Y-107914933D01*
X86712751Y-107642161D01*
X86713193Y-107600000D01*
X86694567Y-107326778D01*
X86639032Y-107058612D01*
X86547617Y-106800465D01*
X86422013Y-106557112D01*
X86412040Y-106542921D01*
X86267008Y-106336562D01*
X86264545Y-106333057D01*
X86078125Y-106132445D01*
X86074810Y-106129731D01*
X86074806Y-106129728D01*
X85869523Y-105961706D01*
X85866205Y-105958990D01*
X85632704Y-105815901D01*
X85628768Y-105814173D01*
X85533854Y-105772508D01*
X85479518Y-105726812D01*
X85458500Y-105657135D01*
X85458500Y-95944028D01*
X85478502Y-95875907D01*
X85536281Y-95827620D01*
X85595136Y-95803241D01*
X85831582Y-95665073D01*
X86047089Y-95496094D01*
X86079345Y-95462809D01*
X86234686Y-95302509D01*
X86237669Y-95299431D01*
X86240202Y-95295983D01*
X86240206Y-95295978D01*
X86397257Y-95082178D01*
X86399795Y-95078723D01*
X86427154Y-95028334D01*
X86528418Y-94841830D01*
X86528419Y-94841828D01*
X86530468Y-94838054D01*
X86627269Y-94581877D01*
X86688407Y-94314933D01*
X86697912Y-94208439D01*
X86712531Y-94044627D01*
X86712531Y-94044625D01*
X86712751Y-94042161D01*
X86713193Y-94000000D01*
X86713024Y-93997519D01*
X86694859Y-93731055D01*
X86694858Y-93731049D01*
X86694567Y-93726778D01*
X86639032Y-93458612D01*
X86547617Y-93200465D01*
X86422013Y-92957112D01*
X86412040Y-92942921D01*
X86267008Y-92736562D01*
X86264545Y-92733057D01*
X86078125Y-92532445D01*
X86074810Y-92529731D01*
X86074806Y-92529728D01*
X85869523Y-92361706D01*
X85866205Y-92358990D01*
X85632704Y-92215901D01*
X85628768Y-92214173D01*
X85385873Y-92107549D01*
X85385869Y-92107548D01*
X85381945Y-92105825D01*
X85118566Y-92030800D01*
X85114324Y-92030196D01*
X85114318Y-92030195D01*
X84913834Y-92001662D01*
X84847443Y-91992213D01*
X84703589Y-91991460D01*
X84577877Y-91990802D01*
X84577871Y-91990802D01*
X84573591Y-91990780D01*
X84569347Y-91991339D01*
X84569343Y-91991339D01*
X84450302Y-92007011D01*
X84302078Y-92026525D01*
X84297938Y-92027658D01*
X84297936Y-92027658D01*
X84225008Y-92047609D01*
X84037928Y-92098788D01*
X84033980Y-92100472D01*
X83789982Y-92204546D01*
X83789978Y-92204548D01*
X83786030Y-92206232D01*
X83766125Y-92218145D01*
X83554725Y-92344664D01*
X83554721Y-92344667D01*
X83551043Y-92346868D01*
X83337318Y-92518094D01*
X83148808Y-92716742D01*
X82989002Y-92939136D01*
X82860857Y-93181161D01*
X82859385Y-93185184D01*
X82859383Y-93185188D01*
X82789180Y-93377026D01*
X82766743Y-93438337D01*
X82708404Y-93705907D01*
X82686917Y-93978918D01*
X82702682Y-94252320D01*
X82703507Y-94256525D01*
X82703508Y-94256533D01*
X82733917Y-94411526D01*
X82755405Y-94521053D01*
X82756792Y-94525103D01*
X82756793Y-94525108D01*
X82823596Y-94720222D01*
X82844112Y-94780144D01*
X82967160Y-95024799D01*
X82969586Y-95028328D01*
X82969589Y-95028334D01*
X83061741Y-95162415D01*
X83122274Y-95250490D01*
X83306582Y-95453043D01*
X83516675Y-95628707D01*
X83520316Y-95630991D01*
X83745024Y-95771951D01*
X83745028Y-95771953D01*
X83748664Y-95774234D01*
X83867352Y-95827824D01*
X83921205Y-95874086D01*
X83941500Y-95942660D01*
X83941500Y-105656679D01*
X83921498Y-105724800D01*
X83864935Y-105772576D01*
X83789982Y-105804546D01*
X83789978Y-105804548D01*
X83786030Y-105806232D01*
X83766125Y-105818145D01*
X83554725Y-105944664D01*
X83554721Y-105944667D01*
X83551043Y-105946868D01*
X83337318Y-106118094D01*
X83148808Y-106316742D01*
X82989002Y-106539136D01*
X82860857Y-106781161D01*
X82859385Y-106785184D01*
X82859383Y-106785188D01*
X82852314Y-106804506D01*
X82766743Y-107038337D01*
X82708404Y-107305907D01*
X82686917Y-107578918D01*
X72682189Y-107578918D01*
X72654811Y-84978918D01*
X82686917Y-84978918D01*
X82702682Y-85252320D01*
X82703507Y-85256525D01*
X82703508Y-85256533D01*
X82733917Y-85411526D01*
X82755405Y-85521053D01*
X82756792Y-85525103D01*
X82756793Y-85525108D01*
X82823596Y-85720222D01*
X82844112Y-85780144D01*
X82967160Y-86024799D01*
X82969586Y-86028328D01*
X82969589Y-86028334D01*
X83090670Y-86204506D01*
X83122274Y-86250490D01*
X83306582Y-86453043D01*
X83516675Y-86628707D01*
X83520316Y-86630991D01*
X83745024Y-86771951D01*
X83745028Y-86771953D01*
X83748664Y-86774234D01*
X83816544Y-86804883D01*
X83994345Y-86885164D01*
X83994349Y-86885166D01*
X83998257Y-86886930D01*
X84002377Y-86888150D01*
X84002376Y-86888150D01*
X84256723Y-86963491D01*
X84256727Y-86963492D01*
X84260836Y-86964709D01*
X84265070Y-86965357D01*
X84265075Y-86965358D01*
X84527298Y-87005483D01*
X84527300Y-87005483D01*
X84531540Y-87006132D01*
X84670912Y-87008322D01*
X84801071Y-87010367D01*
X84801077Y-87010367D01*
X84805362Y-87010434D01*
X85077235Y-86977534D01*
X85342127Y-86908041D01*
X85346087Y-86906401D01*
X85346092Y-86906399D01*
X85468631Y-86855641D01*
X85595136Y-86803241D01*
X85831582Y-86665073D01*
X86047089Y-86496094D01*
X86079345Y-86462809D01*
X86234686Y-86302509D01*
X86237669Y-86299431D01*
X86240202Y-86295983D01*
X86240206Y-86295978D01*
X86397257Y-86082178D01*
X86399795Y-86078723D01*
X86427154Y-86028334D01*
X86528418Y-85841830D01*
X86528419Y-85841828D01*
X86530468Y-85838054D01*
X86627269Y-85581877D01*
X86678317Y-85358990D01*
X86687449Y-85319117D01*
X86687450Y-85319113D01*
X86688407Y-85314933D01*
X86697246Y-85215901D01*
X86712531Y-85044627D01*
X86712531Y-85044625D01*
X86712751Y-85042161D01*
X86713193Y-85000000D01*
X86713024Y-84997519D01*
X86694859Y-84731055D01*
X86694858Y-84731049D01*
X86694567Y-84726778D01*
X86639032Y-84458612D01*
X86547617Y-84200465D01*
X86422013Y-83957112D01*
X86412040Y-83942921D01*
X86267008Y-83736562D01*
X86264545Y-83733057D01*
X86078125Y-83532445D01*
X86074810Y-83529731D01*
X86074806Y-83529728D01*
X85869523Y-83361706D01*
X85866205Y-83358990D01*
X85632704Y-83215901D01*
X85628768Y-83214173D01*
X85533854Y-83172508D01*
X85479518Y-83126812D01*
X85458500Y-83057135D01*
X85458500Y-81766371D01*
X85478502Y-81698250D01*
X85495405Y-81677276D01*
X92183027Y-74989654D01*
X145275618Y-74989654D01*
X145282673Y-74999627D01*
X145313679Y-75025551D01*
X145320598Y-75030579D01*
X145545272Y-75171515D01*
X145552807Y-75175556D01*
X145794520Y-75284694D01*
X145802551Y-75287680D01*
X146056832Y-75363002D01*
X146065184Y-75364869D01*
X146327340Y-75404984D01*
X146335874Y-75405700D01*
X146601045Y-75409867D01*
X146609596Y-75409418D01*
X146872883Y-75377557D01*
X146881284Y-75375955D01*
X147137824Y-75308653D01*
X147145926Y-75305926D01*
X147390949Y-75204434D01*
X147398617Y-75200628D01*
X147627598Y-75066822D01*
X147634679Y-75062009D01*
X147714655Y-74999301D01*
X147723125Y-74987442D01*
X147716608Y-74975818D01*
X146512812Y-73772022D01*
X146498868Y-73764408D01*
X146497035Y-73764539D01*
X146490420Y-73768790D01*
X145282910Y-74976300D01*
X145275618Y-74989654D01*
X92183027Y-74989654D01*
X93789477Y-73383204D01*
X144487665Y-73383204D01*
X144502932Y-73647969D01*
X144504005Y-73656470D01*
X144555065Y-73916722D01*
X144557276Y-73924974D01*
X144643184Y-74175894D01*
X144646499Y-74183779D01*
X144765664Y-74420713D01*
X144770020Y-74428079D01*
X144899347Y-74616250D01*
X144909601Y-74624594D01*
X144923342Y-74617448D01*
X146127978Y-73412812D01*
X146134356Y-73401132D01*
X146864408Y-73401132D01*
X146864539Y-73402965D01*
X146868790Y-73409580D01*
X148075730Y-74616520D01*
X148087939Y-74623187D01*
X148099439Y-74614497D01*
X148196831Y-74481913D01*
X148201418Y-74474685D01*
X148327962Y-74241621D01*
X148331530Y-74233827D01*
X148425271Y-73985750D01*
X148427748Y-73977544D01*
X148486954Y-73719038D01*
X148488294Y-73710577D01*
X148512031Y-73444616D01*
X148512277Y-73439677D01*
X148512666Y-73402485D01*
X148512523Y-73397519D01*
X148494362Y-73131123D01*
X148493201Y-73122649D01*
X148439419Y-72862944D01*
X148437120Y-72854709D01*
X148348588Y-72604705D01*
X148345191Y-72596854D01*
X148223550Y-72361178D01*
X148219122Y-72353866D01*
X148100031Y-72184417D01*
X148089509Y-72176037D01*
X148076121Y-72183089D01*
X146872022Y-73387188D01*
X146864408Y-73401132D01*
X146134356Y-73401132D01*
X146135592Y-73398868D01*
X146135461Y-73397035D01*
X146131210Y-73390420D01*
X144923814Y-72183024D01*
X144911804Y-72176466D01*
X144900064Y-72185434D01*
X144791935Y-72335911D01*
X144787418Y-72343196D01*
X144663325Y-72577567D01*
X144659839Y-72585395D01*
X144568700Y-72834446D01*
X144566311Y-72842670D01*
X144509812Y-73101795D01*
X144508563Y-73110250D01*
X144487754Y-73374653D01*
X144487665Y-73383204D01*
X93789477Y-73383204D01*
X95360181Y-71812500D01*
X145276584Y-71812500D01*
X145282980Y-71823770D01*
X146487188Y-73027978D01*
X146501132Y-73035592D01*
X146502965Y-73035461D01*
X146509580Y-73031210D01*
X147716604Y-71824186D01*
X147723795Y-71811017D01*
X147716473Y-71800780D01*
X147669233Y-71762115D01*
X147662261Y-71757160D01*
X147436122Y-71618582D01*
X147428552Y-71614624D01*
X147185704Y-71508022D01*
X147177644Y-71505120D01*
X146922592Y-71432467D01*
X146914214Y-71430685D01*
X146651656Y-71393318D01*
X146643111Y-71392691D01*
X146377908Y-71391302D01*
X146369374Y-71391839D01*
X146106433Y-71426456D01*
X146098035Y-71428149D01*
X145842238Y-71498127D01*
X145834143Y-71500946D01*
X145590199Y-71604997D01*
X145582577Y-71608881D01*
X145355013Y-71745075D01*
X145347981Y-71749962D01*
X145285053Y-71800377D01*
X145276584Y-71812500D01*
X95360181Y-71812500D01*
X101183027Y-65989654D01*
X109475618Y-65989654D01*
X109482673Y-65999627D01*
X109513679Y-66025551D01*
X109520598Y-66030579D01*
X109745272Y-66171515D01*
X109752807Y-66175556D01*
X109994520Y-66284694D01*
X110002551Y-66287680D01*
X110256832Y-66363002D01*
X110265184Y-66364869D01*
X110527340Y-66404984D01*
X110535874Y-66405700D01*
X110801045Y-66409867D01*
X110809596Y-66409418D01*
X111072883Y-66377557D01*
X111081284Y-66375955D01*
X111337824Y-66308653D01*
X111345926Y-66305926D01*
X111590949Y-66204434D01*
X111598617Y-66200628D01*
X111827598Y-66066822D01*
X111834679Y-66062009D01*
X111914655Y-65999301D01*
X111923125Y-65987442D01*
X111916608Y-65975818D01*
X110712812Y-64772022D01*
X110698868Y-64764408D01*
X110697035Y-64764539D01*
X110690420Y-64768790D01*
X109482910Y-65976300D01*
X109475618Y-65989654D01*
X101183027Y-65989654D01*
X102789477Y-64383204D01*
X108687665Y-64383204D01*
X108702932Y-64647969D01*
X108704005Y-64656470D01*
X108755065Y-64916722D01*
X108757276Y-64924974D01*
X108843184Y-65175894D01*
X108846499Y-65183779D01*
X108965664Y-65420713D01*
X108970020Y-65428079D01*
X109099347Y-65616250D01*
X109109601Y-65624594D01*
X109123342Y-65617448D01*
X110327978Y-64412812D01*
X110334356Y-64401132D01*
X111064408Y-64401132D01*
X111064539Y-64402965D01*
X111068790Y-64409580D01*
X112275730Y-65616520D01*
X112287939Y-65623187D01*
X112299439Y-65614497D01*
X112396831Y-65481913D01*
X112401418Y-65474685D01*
X112527962Y-65241621D01*
X112531530Y-65233827D01*
X112625271Y-64985750D01*
X112627748Y-64977544D01*
X112686954Y-64719038D01*
X112688294Y-64710577D01*
X112712031Y-64444616D01*
X112712277Y-64439677D01*
X112712666Y-64402485D01*
X112712523Y-64397519D01*
X112694362Y-64131123D01*
X112693201Y-64122649D01*
X112639419Y-63862944D01*
X112637120Y-63854709D01*
X112548588Y-63604705D01*
X112545191Y-63596854D01*
X112423550Y-63361178D01*
X112419122Y-63353866D01*
X112300031Y-63184417D01*
X112289509Y-63176037D01*
X112276121Y-63183089D01*
X111072022Y-64387188D01*
X111064408Y-64401132D01*
X110334356Y-64401132D01*
X110335592Y-64398868D01*
X110335461Y-64397035D01*
X110331210Y-64390420D01*
X109123814Y-63183024D01*
X109111804Y-63176466D01*
X109100064Y-63185434D01*
X108991935Y-63335911D01*
X108987418Y-63343196D01*
X108863325Y-63577567D01*
X108859839Y-63585395D01*
X108768700Y-63834446D01*
X108766311Y-63842670D01*
X108709812Y-64101795D01*
X108708563Y-64110250D01*
X108687754Y-64374653D01*
X108687665Y-64383204D01*
X102789477Y-64383204D01*
X104360181Y-62812500D01*
X109476584Y-62812500D01*
X109482980Y-62823770D01*
X110687188Y-64027978D01*
X110701132Y-64035592D01*
X110702965Y-64035461D01*
X110709580Y-64031210D01*
X111916604Y-62824186D01*
X111923795Y-62811017D01*
X111916473Y-62800780D01*
X111869233Y-62762115D01*
X111862261Y-62757160D01*
X111636122Y-62618582D01*
X111628552Y-62614624D01*
X111385704Y-62508022D01*
X111377644Y-62505120D01*
X111122592Y-62432467D01*
X111114214Y-62430685D01*
X110851656Y-62393318D01*
X110843111Y-62392691D01*
X110577908Y-62391302D01*
X110569374Y-62391839D01*
X110306433Y-62426456D01*
X110298035Y-62428149D01*
X110042238Y-62498127D01*
X110034143Y-62500946D01*
X109790199Y-62604997D01*
X109782577Y-62608881D01*
X109555013Y-62745075D01*
X109547981Y-62749962D01*
X109485053Y-62800377D01*
X109476584Y-62812500D01*
X104360181Y-62812500D01*
X109859278Y-57313403D01*
X109921590Y-57279377D01*
X109992293Y-57284400D01*
X109994339Y-57285161D01*
X109998257Y-57286930D01*
X110002379Y-57288151D01*
X110256723Y-57363491D01*
X110256727Y-57363492D01*
X110260836Y-57364709D01*
X110265070Y-57365357D01*
X110265075Y-57365358D01*
X110527298Y-57405483D01*
X110527300Y-57405483D01*
X110531540Y-57406132D01*
X110670912Y-57408322D01*
X110801071Y-57410367D01*
X110801077Y-57410367D01*
X110805362Y-57410434D01*
X111077235Y-57377534D01*
X111342127Y-57308041D01*
X111346087Y-57306401D01*
X111346092Y-57306399D01*
X111477583Y-57251933D01*
X111595136Y-57203241D01*
X111831582Y-57065073D01*
X112047089Y-56896094D01*
X112237669Y-56699431D01*
X112240202Y-56695983D01*
X112240206Y-56695978D01*
X112397257Y-56482178D01*
X112399795Y-56478723D01*
X112530468Y-56238054D01*
X112627269Y-55981877D01*
X112688407Y-55714933D01*
X112712751Y-55442161D01*
X112713193Y-55400000D01*
X112694567Y-55126778D01*
X112639032Y-54858612D01*
X112547617Y-54600465D01*
X112422013Y-54357112D01*
X112412040Y-54342921D01*
X112267008Y-54136562D01*
X112264545Y-54133057D01*
X112078125Y-53932445D01*
X112074810Y-53929731D01*
X112074806Y-53929728D01*
X111869523Y-53761706D01*
X111866205Y-53758990D01*
X111632704Y-53615901D01*
X111628768Y-53614173D01*
X111385873Y-53507549D01*
X111385869Y-53507548D01*
X111381945Y-53505825D01*
X111118566Y-53430800D01*
X111114324Y-53430196D01*
X111114318Y-53430195D01*
X110913834Y-53401662D01*
X110847443Y-53392213D01*
X110703589Y-53391460D01*
X110577877Y-53390802D01*
X110577871Y-53390802D01*
X110573591Y-53390780D01*
X110569347Y-53391339D01*
X110569343Y-53391339D01*
X110450302Y-53407011D01*
X110302078Y-53426525D01*
X110297938Y-53427658D01*
X110297936Y-53427658D01*
X110225008Y-53447609D01*
X110037928Y-53498788D01*
X110033980Y-53500472D01*
X109789982Y-53604546D01*
X109789978Y-53604548D01*
X109786030Y-53606232D01*
X109766125Y-53618145D01*
X109554725Y-53744664D01*
X109554721Y-53744667D01*
X109551043Y-53746868D01*
X109337318Y-53918094D01*
X109148808Y-54116742D01*
X108989002Y-54339136D01*
X108860857Y-54581161D01*
X108859385Y-54585184D01*
X108859383Y-54585188D01*
X108852314Y-54604506D01*
X108766743Y-54838337D01*
X108708404Y-55105907D01*
X108686917Y-55378918D01*
X108702682Y-55652320D01*
X108703507Y-55656525D01*
X108703508Y-55656533D01*
X108714127Y-55710657D01*
X108755405Y-55921053D01*
X108756792Y-55925103D01*
X108756793Y-55925108D01*
X108819440Y-56108082D01*
X108822582Y-56179009D01*
X108789328Y-56237991D01*
X84211089Y-80816230D01*
X84196677Y-80828616D01*
X84185082Y-80837149D01*
X84185077Y-80837154D01*
X84179182Y-80841492D01*
X84174443Y-80847070D01*
X84174440Y-80847073D01*
X84144965Y-80881768D01*
X84138035Y-80889284D01*
X84132340Y-80894979D01*
X84130060Y-80897861D01*
X84114719Y-80917251D01*
X84111928Y-80920655D01*
X84069409Y-80970703D01*
X84064667Y-80976285D01*
X84061339Y-80982801D01*
X84057972Y-80987850D01*
X84054805Y-80992979D01*
X84050266Y-80998716D01*
X84019345Y-81064875D01*
X84017442Y-81068769D01*
X83984231Y-81133808D01*
X83982492Y-81140916D01*
X83980393Y-81146559D01*
X83978476Y-81152322D01*
X83975378Y-81158950D01*
X83973888Y-81166112D01*
X83973888Y-81166113D01*
X83960514Y-81230412D01*
X83959544Y-81234696D01*
X83942192Y-81305610D01*
X83941500Y-81316764D01*
X83941464Y-81316762D01*
X83941225Y-81320755D01*
X83940851Y-81324947D01*
X83939360Y-81332115D01*
X83939558Y-81339432D01*
X83941454Y-81409521D01*
X83941500Y-81412928D01*
X83941500Y-83056679D01*
X83921498Y-83124800D01*
X83864935Y-83172576D01*
X83789982Y-83204546D01*
X83789978Y-83204548D01*
X83786030Y-83206232D01*
X83766125Y-83218145D01*
X83554725Y-83344664D01*
X83554721Y-83344667D01*
X83551043Y-83346868D01*
X83337318Y-83518094D01*
X83148808Y-83716742D01*
X82989002Y-83939136D01*
X82860857Y-84181161D01*
X82859385Y-84185184D01*
X82859383Y-84185188D01*
X82852314Y-84204506D01*
X82766743Y-84438337D01*
X82708404Y-84705907D01*
X82686917Y-84978918D01*
X72654811Y-84978918D01*
X72609269Y-47384653D01*
X72629189Y-47316508D01*
X72682788Y-47269950D01*
X72735269Y-47258500D01*
X86946750Y-47258500D01*
X86967655Y-47260246D01*
X86982656Y-47262770D01*
X86982659Y-47262770D01*
X86987448Y-47263576D01*
X86993687Y-47263652D01*
X86995140Y-47263670D01*
X86995143Y-47263670D01*
X87000000Y-47263729D01*
X87004810Y-47263040D01*
X87004812Y-47263040D01*
X87008000Y-47262583D01*
X87010420Y-47262237D01*
X87020668Y-47261195D01*
X87256856Y-47246908D01*
X87256860Y-47246907D01*
X87260654Y-47246678D01*
X87517507Y-47199608D01*
X87766814Y-47121921D01*
X87770284Y-47120359D01*
X87770290Y-47120357D01*
X87885876Y-47068336D01*
X88004938Y-47014750D01*
X88008195Y-47012781D01*
X88008199Y-47012779D01*
X88225155Y-46881624D01*
X88228409Y-46879657D01*
X88304912Y-46819721D01*
X88430963Y-46720966D01*
X88430966Y-46720963D01*
X88433966Y-46718613D01*
X88618613Y-46533966D01*
X88687002Y-46446674D01*
X88777314Y-46331400D01*
X88777316Y-46331397D01*
X88779657Y-46328409D01*
X88825335Y-46252848D01*
X88912779Y-46108199D01*
X88912781Y-46108195D01*
X88914750Y-46104938D01*
X89021921Y-45866814D01*
X89099608Y-45617507D01*
X89146678Y-45360654D01*
X89150961Y-45289849D01*
X89152381Y-45266381D01*
X96199160Y-45266381D01*
X96199237Y-45267470D01*
X96201698Y-45271206D01*
X96475632Y-45481404D01*
X96481262Y-45485259D01*
X96781591Y-45667862D01*
X96787593Y-45671080D01*
X97105897Y-45820184D01*
X97112202Y-45822732D01*
X97444743Y-45936587D01*
X97451313Y-45938446D01*
X97794183Y-46015714D01*
X97800912Y-46016853D01*
X98150143Y-46056643D01*
X98156933Y-46057046D01*
X98508419Y-46058886D01*
X98515220Y-46058554D01*
X98864853Y-46022423D01*
X98871581Y-46021357D01*
X99215274Y-45947676D01*
X99221822Y-45945897D01*
X99555549Y-45835527D01*
X99561891Y-45833041D01*
X99881718Y-45687288D01*
X99887777Y-45684121D01*
X100189995Y-45504676D01*
X100195659Y-45500884D01*
X100476732Y-45289849D01*
X100481958Y-45285464D01*
X100491613Y-45276428D01*
X100497540Y-45266381D01*
X123699160Y-45266381D01*
X123699237Y-45267470D01*
X123701698Y-45271206D01*
X123975632Y-45481404D01*
X123981262Y-45485259D01*
X124281591Y-45667862D01*
X124287593Y-45671080D01*
X124605897Y-45820184D01*
X124612202Y-45822732D01*
X124944743Y-45936587D01*
X124951313Y-45938446D01*
X125294183Y-46015714D01*
X125300912Y-46016853D01*
X125650143Y-46056643D01*
X125656933Y-46057046D01*
X126008419Y-46058886D01*
X126015220Y-46058554D01*
X126364853Y-46022423D01*
X126371581Y-46021357D01*
X126715274Y-45947676D01*
X126721822Y-45945897D01*
X127055549Y-45835527D01*
X127061891Y-45833041D01*
X127381718Y-45687288D01*
X127387777Y-45684121D01*
X127689995Y-45504676D01*
X127695659Y-45500884D01*
X127976732Y-45289849D01*
X127981958Y-45285464D01*
X127991613Y-45276428D01*
X127999682Y-45262750D01*
X127999654Y-45262024D01*
X127994512Y-45253723D01*
X125862810Y-43122020D01*
X125848869Y-43114408D01*
X125847034Y-43114539D01*
X125840420Y-43118790D01*
X123706774Y-45252437D01*
X123699160Y-45266381D01*
X100497540Y-45266381D01*
X100499682Y-45262750D01*
X100499654Y-45262024D01*
X100494512Y-45253723D01*
X98362810Y-43122020D01*
X98348869Y-43114408D01*
X98347034Y-43114539D01*
X98340420Y-43118790D01*
X96206774Y-45252437D01*
X96199160Y-45266381D01*
X89152381Y-45266381D01*
X89160221Y-45136780D01*
X89161736Y-45123491D01*
X89162769Y-45117351D01*
X89162769Y-45117348D01*
X89163576Y-45112552D01*
X89163729Y-45100000D01*
X89159773Y-45072376D01*
X89158500Y-45054514D01*
X89158500Y-42741832D01*
X95037333Y-42741832D01*
X95055117Y-43092893D01*
X95055827Y-43099649D01*
X95111420Y-43446723D01*
X95112859Y-43453378D01*
X95205608Y-43792410D01*
X95207757Y-43798871D01*
X95336581Y-44125912D01*
X95339412Y-44132095D01*
X95502803Y-44443310D01*
X95506286Y-44449152D01*
X95702330Y-44740896D01*
X95706433Y-44746340D01*
X95826425Y-44888836D01*
X95839164Y-44897279D01*
X95849608Y-44891181D01*
X97977980Y-42762810D01*
X97984357Y-42751131D01*
X98714408Y-42751131D01*
X98714539Y-42752966D01*
X98718790Y-42759580D01*
X100849009Y-44889798D01*
X100862605Y-44897223D01*
X100872218Y-44890522D01*
X100972518Y-44773912D01*
X100976676Y-44768514D01*
X101175762Y-44478840D01*
X101179310Y-44473029D01*
X101345942Y-44163559D01*
X101348849Y-44157381D01*
X101481090Y-43831713D01*
X101483304Y-43825283D01*
X101579598Y-43487237D01*
X101581105Y-43480607D01*
X101640332Y-43134118D01*
X101641112Y-43127378D01*
X101662668Y-42774925D01*
X101662784Y-42771323D01*
X101662853Y-42751819D01*
X101662761Y-42748194D01*
X101662416Y-42741832D01*
X122537333Y-42741832D01*
X122555117Y-43092893D01*
X122555827Y-43099649D01*
X122611420Y-43446723D01*
X122612859Y-43453378D01*
X122705608Y-43792410D01*
X122707757Y-43798871D01*
X122836581Y-44125912D01*
X122839412Y-44132095D01*
X123002803Y-44443310D01*
X123006286Y-44449152D01*
X123202330Y-44740896D01*
X123206433Y-44746340D01*
X123326425Y-44888836D01*
X123339164Y-44897279D01*
X123349608Y-44891181D01*
X125477980Y-42762810D01*
X125484357Y-42751131D01*
X126214408Y-42751131D01*
X126214539Y-42752966D01*
X126218790Y-42759580D01*
X128349009Y-44889798D01*
X128362605Y-44897223D01*
X128372218Y-44890522D01*
X128472518Y-44773912D01*
X128476676Y-44768514D01*
X128675762Y-44478840D01*
X128679310Y-44473029D01*
X128845942Y-44163559D01*
X128848849Y-44157381D01*
X128981090Y-43831713D01*
X128983304Y-43825283D01*
X129079598Y-43487237D01*
X129081105Y-43480607D01*
X129140332Y-43134118D01*
X129141112Y-43127378D01*
X129162668Y-42774925D01*
X129162784Y-42771323D01*
X129162853Y-42751819D01*
X129162761Y-42748194D01*
X129143666Y-42395615D01*
X129142931Y-42388849D01*
X129086130Y-42041985D01*
X129084663Y-42035313D01*
X128990736Y-41696627D01*
X128988562Y-41690163D01*
X128858598Y-41363578D01*
X128855742Y-41357398D01*
X128691269Y-41046763D01*
X128687769Y-41040937D01*
X128490697Y-40749862D01*
X128486590Y-40744453D01*
X128373565Y-40611179D01*
X128360740Y-40602743D01*
X128350416Y-40608795D01*
X126222020Y-42737190D01*
X126214408Y-42751131D01*
X125484357Y-42751131D01*
X125485592Y-42748869D01*
X125485461Y-42747034D01*
X125481210Y-42740420D01*
X123350992Y-40610203D01*
X123337455Y-40602811D01*
X123327753Y-40609599D01*
X123220430Y-40735257D01*
X123216296Y-40740664D01*
X123018215Y-41031041D01*
X123014697Y-41036851D01*
X122849134Y-41346922D01*
X122846259Y-41353087D01*
X122715155Y-41679218D01*
X122712962Y-41685658D01*
X122617846Y-42024044D01*
X122616363Y-42030679D01*
X122558350Y-42377354D01*
X122557591Y-42384126D01*
X122537357Y-42735037D01*
X122537333Y-42741832D01*
X101662416Y-42741832D01*
X101643666Y-42395615D01*
X101642931Y-42388849D01*
X101586130Y-42041985D01*
X101584663Y-42035313D01*
X101490736Y-41696627D01*
X101488562Y-41690163D01*
X101358598Y-41363578D01*
X101355742Y-41357398D01*
X101191269Y-41046763D01*
X101187769Y-41040937D01*
X100990697Y-40749862D01*
X100986590Y-40744453D01*
X100873565Y-40611179D01*
X100860740Y-40602743D01*
X100850416Y-40608795D01*
X98722020Y-42737190D01*
X98714408Y-42751131D01*
X97984357Y-42751131D01*
X97985592Y-42748869D01*
X97985461Y-42747034D01*
X97981210Y-42740420D01*
X95850992Y-40610203D01*
X95837455Y-40602811D01*
X95827753Y-40609599D01*
X95720430Y-40735257D01*
X95716296Y-40740664D01*
X95518215Y-41031041D01*
X95514697Y-41036851D01*
X95349134Y-41346922D01*
X95346259Y-41353087D01*
X95215155Y-41679218D01*
X95212962Y-41685658D01*
X95117846Y-42024044D01*
X95116363Y-42030679D01*
X95058350Y-42377354D01*
X95057591Y-42384126D01*
X95037357Y-42735037D01*
X95037333Y-42741832D01*
X89158500Y-42741832D01*
X89158500Y-39384500D01*
X89178502Y-39316379D01*
X89232158Y-39269886D01*
X89284500Y-39258500D01*
X97665758Y-39258500D01*
X97733879Y-39278502D01*
G37*
G04 #@! TD.AperFunction*
M02*
