G04 #@! TF.GenerationSoftware,KiCad,Pcbnew,(6.0.5-0)*
G04 #@! TF.CreationDate,2023-03-07T01:18:02-05:00*
G04 #@! TF.ProjectId,new-solar-cell-burn-wire,6e65772d-736f-46c6-9172-2d63656c6c2d,2*
G04 #@! TF.SameCoordinates,Original*
G04 #@! TF.FileFunction,Legend,Top*
G04 #@! TF.FilePolarity,Positive*
%FSLAX46Y46*%
G04 Gerber Fmt 4.6, Leading zero omitted, Abs format (unit mm)*
G04 Created by KiCad (PCBNEW (6.0.5-0)) date 2023-03-07 01:18:02*
%MOMM*%
%LPD*%
G01*
G04 APERTURE LIST*
%ADD10C,0.300000*%
%ADD11C,0.120000*%
%ADD12C,0.100000*%
%ADD13C,3.000000*%
%ADD14C,5.600000*%
%ADD15R,2.500000X1.700000*%
G04 APERTURE END LIST*
D10*
X141257142Y-64114285D02*
X143542857Y-64114285D01*
X142400000Y-65257142D02*
X142400000Y-62971428D01*
X123457142Y-126514285D02*
X125742857Y-126514285D01*
X124600000Y-127657142D02*
X124600000Y-125371428D01*
X142614285Y-75142857D02*
X142614285Y-72857142D01*
X124814285Y-117242857D02*
X124814285Y-114957142D01*
X105457142Y-55014285D02*
X107742857Y-55014285D01*
X106600000Y-56157142D02*
X106600000Y-53871428D01*
X106814285Y-66142857D02*
X106814285Y-63857142D01*
X88614285Y-108142857D02*
X88614285Y-105857142D01*
X87557142Y-117214285D02*
X89842857Y-117214285D01*
X88700000Y-118357142D02*
X88700000Y-116071428D01*
X87667142Y-94794285D02*
X89952857Y-94794285D01*
X88810000Y-95937142D02*
X88810000Y-93651428D01*
X89024285Y-85562857D02*
X89024285Y-83277142D01*
X142604285Y-97722857D02*
X142604285Y-95437142D01*
X141247142Y-86634285D02*
X143532857Y-86634285D01*
X142390000Y-87777142D02*
X142390000Y-85491428D01*
X115200000Y-123100000D02*
X80200000Y-123100000D01*
X80200000Y-123100000D02*
X80200000Y-101100000D01*
X80200000Y-101100000D02*
X115200000Y-101100000D01*
X115200000Y-101100000D02*
X115200000Y-123100000D01*
X115200000Y-48900000D02*
X115200000Y-70900000D01*
X80200000Y-70900000D02*
X80200000Y-48900000D01*
X115200000Y-70900000D02*
X80200000Y-70900000D01*
X80200000Y-48900000D02*
X115200000Y-48900000D01*
X115200000Y-100500000D02*
X80200000Y-100500000D01*
X80200000Y-100500000D02*
X80200000Y-78500000D01*
X115200000Y-78500000D02*
X115200000Y-100500000D01*
X80200000Y-78500000D02*
X115200000Y-78500000D01*
X151000000Y-102500000D02*
X116000000Y-102500000D01*
X151000000Y-80500000D02*
X151000000Y-102500000D01*
X116000000Y-102500000D02*
X116000000Y-80500000D01*
X116000000Y-80500000D02*
X151000000Y-80500000D01*
X116000000Y-110100000D02*
X151000000Y-110100000D01*
X151000000Y-110100000D02*
X151000000Y-132100000D01*
X116000000Y-132100000D02*
X116000000Y-110100000D01*
X151000000Y-132100000D02*
X116000000Y-132100000D01*
X151000000Y-79900000D02*
X116000000Y-79900000D01*
X151000000Y-57900000D02*
X151000000Y-79900000D01*
X116000000Y-79900000D02*
X116000000Y-57900000D01*
X116000000Y-57900000D02*
X151000000Y-57900000D01*
D11*
X89625000Y-125550000D02*
X89625000Y-128450000D01*
X92431800Y-127812800D02*
X92431800Y-126263400D01*
X94375000Y-125550000D02*
X94375000Y-128450000D01*
X94375000Y-128450000D02*
X89625000Y-128450000D01*
X94375000Y-125550000D02*
X89625000Y-125550000D01*
G36*
X92304800Y-127025400D02*
G01*
X91492000Y-127635000D01*
X91492000Y-126288800D01*
X92304800Y-127025400D01*
G37*
D12*
X92304800Y-127025400D02*
X91492000Y-127635000D01*
X91492000Y-126288800D01*
X92304800Y-127025400D01*
D11*
X101625000Y-125550000D02*
X106375000Y-125550000D01*
X101625000Y-128450000D02*
X101625000Y-125550000D01*
X101625000Y-128450000D02*
X106375000Y-128450000D01*
X106375000Y-128450000D02*
X106375000Y-125550000D01*
X103568200Y-126187200D02*
X103568200Y-127736600D01*
G36*
X104508000Y-127711200D02*
G01*
X103695200Y-126974600D01*
X104508000Y-126365000D01*
X104508000Y-127711200D01*
G37*
D12*
X104508000Y-127711200D02*
X103695200Y-126974600D01*
X104508000Y-126365000D01*
X104508000Y-127711200D01*
%LPC*%
D13*
X84700000Y-116600000D03*
X84700000Y-107600000D03*
X110700000Y-55400000D03*
X110700000Y-64400000D03*
D14*
X125850000Y-42750000D03*
D13*
X84700000Y-94000000D03*
X84700000Y-85000000D03*
D14*
X98350000Y-42750000D03*
D13*
X146500000Y-87000000D03*
X146500000Y-96000000D03*
D14*
X98350000Y-138250000D03*
X125850000Y-138250000D03*
D13*
X120500000Y-125600000D03*
X120500000Y-116600000D03*
X146500000Y-64400000D03*
X146500000Y-73400000D03*
D15*
X94000000Y-127000000D03*
X90000000Y-127000000D03*
X102000000Y-127000000D03*
X106000000Y-127000000D03*
M02*
