M48
; DRILL file {KiCad 7.0.1-0} date 2023 March 19, Sunday 01:46:27
; FORMAT={-:-/ absolute / metric / decimal}
; #@! TF.CreationDate,2023-03-19T01:46:27-04:00
; #@! TF.GenerationSoftware,Kicad,Pcbnew,7.0.1-0
; #@! TF.FileFunction,Plated,1,2,PTH
FMAT,2
METRIC
; #@! TA.AperFunction,Plated,PTH,ViaDrill
T1C0.400
; #@! TA.AperFunction,Plated,PTH,ComponentDrill
T2C2.000
; #@! TA.AperFunction,Plated,PTH,ComponentDrill
T3C3.200
%
G90
G05
T1
X97.35Y-118.55
X107.3Y-67.2
X107.7Y-64.4
X108.0Y-66.0
X108.7Y-68.5
X109.1Y-67.2
X110.5Y-68.8
X110.8Y-67.4
X112.0Y-68.5
X112.4Y-66.8
X113.3Y-65.6
X113.4Y-67.7
X113.5Y-64.2
X114.4Y-66.1
X142.8Y-72.0
X143.1Y-70.9
X143.4Y-75.2
X143.9Y-72.5
X143.9Y-74.1
X144.2Y-70.0
X144.2Y-71.3
X144.2Y-76.3
X144.7Y-75.4
X145.3Y-70.7
X145.4Y-76.8
X146.1Y-75.9
T2
X84.7Y-85.0
X84.7Y-94.0
X84.7Y-107.6
X84.7Y-116.6
X110.7Y-55.4
X110.7Y-64.4
X120.5Y-116.6
X120.5Y-125.6
X146.5Y-64.4
X146.5Y-73.4
X146.5Y-87.0
X146.5Y-96.0
T3
X98.35Y-42.75
X98.35Y-138.25
X125.85Y-42.75
X125.85Y-138.25
T0
M30
