G04 #@! TF.GenerationSoftware,KiCad,Pcbnew,(6.0.5-0)*
G04 #@! TF.CreationDate,2023-01-03T07:13:37-05:00*
G04 #@! TF.ProjectId,new-solar-cell-burn-wire,6e65772d-736f-46c6-9172-2d63656c6c2d,2*
G04 #@! TF.SameCoordinates,Original*
G04 #@! TF.FileFunction,Copper,L1,Top*
G04 #@! TF.FilePolarity,Positive*
%FSLAX46Y46*%
G04 Gerber Fmt 4.6, Leading zero omitted, Abs format (unit mm)*
G04 Created by KiCad (PCBNEW (6.0.5-0)) date 2023-01-03 07:13:37*
%MOMM*%
%LPD*%
G01*
G04 APERTURE LIST*
G04 #@! TA.AperFunction,ComponentPad*
%ADD10C,3.000000*%
G04 #@! TD*
G04 #@! TA.AperFunction,ComponentPad*
%ADD11R,2.000000X2.000000*%
G04 #@! TD*
G04 #@! TA.AperFunction,ComponentPad*
%ADD12C,5.600000*%
G04 #@! TD*
G04 #@! TA.AperFunction,SMDPad,CuDef*
%ADD13R,1.700000X2.500000*%
G04 #@! TD*
G04 #@! TA.AperFunction,SMDPad,CuDef*
%ADD14R,2.500000X1.700000*%
G04 #@! TD*
G04 #@! TA.AperFunction,ViaPad*
%ADD15C,0.800000*%
G04 #@! TD*
G04 #@! TA.AperFunction,Conductor*
%ADD16C,0.500000*%
G04 #@! TD*
G04 APERTURE END LIST*
D10*
X84700000Y-116600000D03*
X84700000Y-107600000D03*
X110700000Y-55400000D03*
X110700000Y-64400000D03*
D11*
X146800000Y-106200000D03*
X86100000Y-126300000D03*
X138500000Y-54500000D03*
X82400000Y-74600000D03*
D12*
X125850000Y-42750000D03*
D10*
X84700000Y-94000000D03*
X84700000Y-85000000D03*
D11*
X88200000Y-74600000D03*
D12*
X98350000Y-42750000D03*
D10*
X146500000Y-87000000D03*
X146500000Y-96000000D03*
D11*
X94100000Y-126300000D03*
D12*
X98350000Y-138250000D03*
X125850000Y-138250000D03*
D11*
X130500000Y-54500000D03*
D10*
X120500000Y-125600000D03*
X120500000Y-116600000D03*
X146500000Y-64400000D03*
X146500000Y-73400000D03*
D13*
X76100000Y-112600000D03*
X76100000Y-116600000D03*
D11*
X141000000Y-106200000D03*
D14*
X118400000Y-106200000D03*
X122400000Y-106200000D03*
D15*
X81900000Y-128875000D03*
X114400000Y-66100000D03*
X113500000Y-64200000D03*
X136800000Y-106175000D03*
X81900000Y-123950000D03*
X140700000Y-51925000D03*
X138800000Y-106175000D03*
X145400000Y-76800000D03*
X90400000Y-72300000D03*
X141200000Y-108700000D03*
X90400000Y-74775000D03*
X144200000Y-70000000D03*
X108000000Y-66000000D03*
X83900000Y-123900000D03*
X144200000Y-76300000D03*
X110800000Y-67400000D03*
X144200000Y-71300000D03*
X143400000Y-75200000D03*
X83900000Y-126350000D03*
X83900000Y-128875000D03*
X92400000Y-77225000D03*
X107300000Y-67200000D03*
X142700000Y-51925000D03*
X143900000Y-74100000D03*
X136800000Y-108675000D03*
X144700000Y-75400000D03*
X108700000Y-68500000D03*
X88000000Y-77275000D03*
X107700000Y-64400000D03*
X113400000Y-67700000D03*
X92400000Y-72300000D03*
X142700000Y-56850000D03*
X109100000Y-67200000D03*
X138800000Y-108675000D03*
X92400000Y-74800000D03*
X143900000Y-72500000D03*
X138300000Y-56900000D03*
X143100000Y-70900000D03*
X90400000Y-77275000D03*
X113300000Y-65600000D03*
X138300000Y-51900000D03*
X140700000Y-56900000D03*
X145300000Y-70700000D03*
X142800000Y-72000000D03*
X138800000Y-103700000D03*
X81900000Y-126375000D03*
X86300000Y-128900000D03*
X86300000Y-123900000D03*
X142700000Y-54425000D03*
X141200000Y-103700000D03*
X88000000Y-72275000D03*
X140700000Y-54425000D03*
X110500000Y-68800000D03*
X112000000Y-68500000D03*
X112400000Y-66800000D03*
X146100000Y-75900000D03*
X97350000Y-118550000D03*
D16*
X84700000Y-94000000D02*
X84700000Y-107600000D01*
X84700000Y-116600000D02*
X76100000Y-116600000D01*
X117000000Y-122100000D02*
X120500000Y-125600000D01*
X117000000Y-111600000D02*
X117000000Y-122100000D01*
X122400000Y-106200000D02*
X117000000Y-111600000D01*
X92400000Y-55400000D02*
X110700000Y-55400000D01*
X78100000Y-78400000D02*
X78100000Y-69700000D01*
X84700000Y-85000000D02*
X78100000Y-78400000D01*
X78100000Y-69700000D02*
X92400000Y-55400000D01*
X146500000Y-90600000D02*
X120500000Y-116600000D01*
X146500000Y-87000000D02*
X146500000Y-90600000D01*
X146500000Y-64400000D02*
X149700000Y-67600000D01*
X149700000Y-67600000D02*
X149700000Y-92800000D01*
X149700000Y-92800000D02*
X146500000Y-96000000D01*
X111500000Y-121700000D02*
X114200000Y-119000000D01*
X100500000Y-121700000D02*
X111500000Y-121700000D01*
X97350000Y-118550000D02*
X100500000Y-121700000D01*
X97350000Y-118550000D02*
X91400000Y-112600000D01*
X114200000Y-110400000D02*
X118400000Y-106200000D01*
X91400000Y-112600000D02*
X76100000Y-112600000D01*
X114200000Y-119000000D02*
X114200000Y-110400000D01*
G04 #@! TA.AperFunction,Conductor*
G36*
X97733879Y-39278502D02*
G01*
X97780372Y-39332158D01*
X97790476Y-39402432D01*
X97760982Y-39467012D01*
X97701256Y-39505396D01*
X97692600Y-39507608D01*
X97473586Y-39555361D01*
X97467011Y-39557172D01*
X97133683Y-39668702D01*
X97127361Y-39671205D01*
X96808034Y-39818079D01*
X96801991Y-39821265D01*
X96500401Y-40001763D01*
X96494755Y-40005571D01*
X96214408Y-40217596D01*
X96209211Y-40221987D01*
X96207972Y-40223155D01*
X96199950Y-40236862D01*
X96199986Y-40237704D01*
X96205037Y-40245826D01*
X98337190Y-42377980D01*
X98351131Y-42385592D01*
X98352966Y-42385461D01*
X98359580Y-42381210D01*
X100492798Y-40247991D01*
X100500412Y-40234047D01*
X100500344Y-40233089D01*
X100495836Y-40226272D01*
X100494418Y-40225065D01*
X100214813Y-40012064D01*
X100209187Y-40008240D01*
X99908214Y-39826681D01*
X99902202Y-39823484D01*
X99583370Y-39675487D01*
X99577070Y-39672967D01*
X99244129Y-39560273D01*
X99237551Y-39558437D01*
X99007846Y-39507513D01*
X98945669Y-39473241D01*
X98911891Y-39410795D01*
X98917237Y-39340000D01*
X98960009Y-39283333D01*
X99026627Y-39258786D01*
X99035117Y-39258500D01*
X125165758Y-39258500D01*
X125233879Y-39278502D01*
X125280372Y-39332158D01*
X125290476Y-39402432D01*
X125260982Y-39467012D01*
X125201256Y-39505396D01*
X125192600Y-39507608D01*
X124973586Y-39555361D01*
X124967011Y-39557172D01*
X124633683Y-39668702D01*
X124627361Y-39671205D01*
X124308034Y-39818079D01*
X124301991Y-39821265D01*
X124000401Y-40001763D01*
X123994755Y-40005571D01*
X123714408Y-40217596D01*
X123709211Y-40221987D01*
X123707972Y-40223155D01*
X123699950Y-40236862D01*
X123699986Y-40237704D01*
X123705037Y-40245826D01*
X125837190Y-42377980D01*
X125851131Y-42385592D01*
X125852966Y-42385461D01*
X125859580Y-42381210D01*
X127992798Y-40247991D01*
X128000412Y-40234047D01*
X128000344Y-40233089D01*
X127995836Y-40226272D01*
X127994418Y-40225065D01*
X127714813Y-40012064D01*
X127709187Y-40008240D01*
X127408214Y-39826681D01*
X127402202Y-39823484D01*
X127083370Y-39675487D01*
X127077070Y-39672967D01*
X126744129Y-39560273D01*
X126737551Y-39558437D01*
X126507846Y-39507513D01*
X126445669Y-39473241D01*
X126411891Y-39410795D01*
X126417237Y-39340000D01*
X126460009Y-39283333D01*
X126526627Y-39258786D01*
X126535117Y-39258500D01*
X134965500Y-39258500D01*
X135033621Y-39278502D01*
X135080114Y-39332158D01*
X135091500Y-39384500D01*
X135091500Y-45050633D01*
X135090000Y-45070018D01*
X135087690Y-45084851D01*
X135087690Y-45084855D01*
X135086309Y-45093724D01*
X135087474Y-45102631D01*
X135087470Y-45102927D01*
X135088185Y-45110417D01*
X135103322Y-45360654D01*
X135150392Y-45617507D01*
X135228079Y-45866814D01*
X135335250Y-46104938D01*
X135337219Y-46108195D01*
X135337221Y-46108199D01*
X135418055Y-46241914D01*
X135470343Y-46328409D01*
X135472684Y-46331397D01*
X135472686Y-46331400D01*
X135562998Y-46446674D01*
X135631387Y-46533966D01*
X135816034Y-46718613D01*
X135819034Y-46720963D01*
X135819037Y-46720966D01*
X135945089Y-46819721D01*
X136021591Y-46879657D01*
X136024845Y-46881624D01*
X136241801Y-47012779D01*
X136241805Y-47012781D01*
X136245062Y-47014750D01*
X136364124Y-47068335D01*
X136479710Y-47120357D01*
X136479716Y-47120359D01*
X136483186Y-47121921D01*
X136732493Y-47199608D01*
X136989346Y-47246678D01*
X136993140Y-47246908D01*
X136993144Y-47246908D01*
X137213220Y-47260221D01*
X137226509Y-47261736D01*
X137232649Y-47262769D01*
X137232652Y-47262769D01*
X137237448Y-47263576D01*
X137243826Y-47263654D01*
X137245140Y-47263670D01*
X137245143Y-47263670D01*
X137250000Y-47263729D01*
X137277624Y-47259773D01*
X137295486Y-47258500D01*
X142965500Y-47258500D01*
X143033621Y-47278502D01*
X143080114Y-47332158D01*
X143091500Y-47384500D01*
X143091500Y-49124909D01*
X143090690Y-49139172D01*
X143086484Y-49176089D01*
X143086999Y-49188631D01*
X143087944Y-49193403D01*
X143087944Y-49193405D01*
X143089700Y-49202274D01*
X143091084Y-49210779D01*
X143116353Y-49408652D01*
X143117611Y-49413117D01*
X143117612Y-49413123D01*
X143149145Y-49525061D01*
X143176513Y-49622214D01*
X143178418Y-49626455D01*
X143178419Y-49626458D01*
X143190972Y-49654406D01*
X143267421Y-49824610D01*
X143269926Y-49828520D01*
X143269930Y-49828528D01*
X143331033Y-49923915D01*
X143387099Y-50011439D01*
X143532948Y-50178641D01*
X143536479Y-50181651D01*
X143536484Y-50181656D01*
X143617372Y-50250611D01*
X143701796Y-50322581D01*
X143889973Y-50440129D01*
X143894232Y-50441984D01*
X144089117Y-50526872D01*
X144089121Y-50526873D01*
X144093388Y-50528732D01*
X144228400Y-50565114D01*
X144303129Y-50585252D01*
X144303132Y-50585253D01*
X144307620Y-50586462D01*
X144312239Y-50586999D01*
X144312241Y-50586999D01*
X144396607Y-50596799D01*
X144488673Y-50607495D01*
X144500220Y-50609383D01*
X144510658Y-50611592D01*
X144510662Y-50611592D01*
X144515427Y-50612601D01*
X144527962Y-50613279D01*
X144532797Y-50612792D01*
X144532799Y-50612792D01*
X144569118Y-50609134D01*
X144581744Y-50608500D01*
X148465500Y-50608500D01*
X148533621Y-50628502D01*
X148580114Y-50682158D01*
X148591500Y-50734500D01*
X148591500Y-53091377D01*
X148591498Y-53092147D01*
X148591024Y-53169721D01*
X148593491Y-53178352D01*
X148599150Y-53198153D01*
X148602728Y-53214915D01*
X148606920Y-53244187D01*
X148610634Y-53252355D01*
X148610634Y-53252356D01*
X148617548Y-53267562D01*
X148623996Y-53285086D01*
X148631051Y-53309771D01*
X148635843Y-53317365D01*
X148635844Y-53317368D01*
X148646830Y-53334780D01*
X148654969Y-53349863D01*
X148667208Y-53376782D01*
X148673069Y-53383584D01*
X148683970Y-53396235D01*
X148695073Y-53411239D01*
X148708776Y-53432958D01*
X148715501Y-53438897D01*
X148715504Y-53438901D01*
X148730938Y-53452532D01*
X148742982Y-53464724D01*
X148756427Y-53480327D01*
X148756430Y-53480329D01*
X148762287Y-53487127D01*
X148769816Y-53492007D01*
X148769817Y-53492008D01*
X148783835Y-53501094D01*
X148798709Y-53512385D01*
X148811217Y-53523431D01*
X148817951Y-53529378D01*
X148844711Y-53541942D01*
X148859691Y-53550263D01*
X148876983Y-53561471D01*
X148876988Y-53561473D01*
X148884515Y-53566352D01*
X148893108Y-53568922D01*
X148893113Y-53568924D01*
X148909120Y-53573711D01*
X148926564Y-53580372D01*
X148941676Y-53587467D01*
X148941678Y-53587468D01*
X148949800Y-53591281D01*
X148958667Y-53592662D01*
X148958668Y-53592662D01*
X148968310Y-53594163D01*
X148979017Y-53595830D01*
X148995732Y-53599613D01*
X149015466Y-53605515D01*
X149015472Y-53605516D01*
X149024066Y-53608086D01*
X149033037Y-53608141D01*
X149033038Y-53608141D01*
X149043097Y-53608202D01*
X149058506Y-53608296D01*
X149059289Y-53608329D01*
X149060386Y-53608500D01*
X149091377Y-53608500D01*
X149092147Y-53608502D01*
X149165785Y-53608952D01*
X149165786Y-53608952D01*
X149169721Y-53608976D01*
X149171065Y-53608592D01*
X149172410Y-53608500D01*
X151465500Y-53608500D01*
X151533621Y-53628502D01*
X151580114Y-53682158D01*
X151591500Y-53734500D01*
X151591500Y-133615500D01*
X151571498Y-133683621D01*
X151517842Y-133730114D01*
X151465500Y-133741500D01*
X137303250Y-133741500D01*
X137282345Y-133739754D01*
X137267344Y-133737230D01*
X137267341Y-133737230D01*
X137262552Y-133736424D01*
X137256313Y-133736348D01*
X137254860Y-133736330D01*
X137254857Y-133736330D01*
X137250000Y-133736271D01*
X137245190Y-133736960D01*
X137245188Y-133736960D01*
X137242000Y-133737417D01*
X137239580Y-133737763D01*
X137229332Y-133738805D01*
X136993144Y-133753092D01*
X136993140Y-133753093D01*
X136989346Y-133753322D01*
X136732493Y-133800392D01*
X136483186Y-133878079D01*
X136479716Y-133879641D01*
X136479710Y-133879643D01*
X136364124Y-133931664D01*
X136245062Y-133985250D01*
X136241805Y-133987219D01*
X136241801Y-133987221D01*
X136078321Y-134086049D01*
X136021591Y-134120343D01*
X136018603Y-134122684D01*
X136018600Y-134122686D01*
X135869367Y-134239603D01*
X135816034Y-134281387D01*
X135631387Y-134466034D01*
X135629037Y-134469034D01*
X135629034Y-134469037D01*
X135479487Y-134659920D01*
X135470343Y-134671591D01*
X135468376Y-134674845D01*
X135416746Y-134760252D01*
X135335250Y-134895062D01*
X135295957Y-134982367D01*
X135260895Y-135060273D01*
X135228079Y-135133186D01*
X135150392Y-135382493D01*
X135103322Y-135639346D01*
X135103093Y-135643140D01*
X135103092Y-135643144D01*
X135089325Y-135870735D01*
X135088056Y-135882505D01*
X135086309Y-135893724D01*
X135087473Y-135902626D01*
X135087473Y-135902628D01*
X135090436Y-135925283D01*
X135091500Y-135941621D01*
X135091500Y-141615500D01*
X135071498Y-141683621D01*
X135017842Y-141730114D01*
X134965500Y-141741500D01*
X126533537Y-141741500D01*
X126465416Y-141721498D01*
X126418923Y-141667842D01*
X126408819Y-141597568D01*
X126438313Y-141532988D01*
X126498039Y-141494604D01*
X126507125Y-141492299D01*
X126715274Y-141447676D01*
X126721822Y-141445897D01*
X127055549Y-141335527D01*
X127061891Y-141333041D01*
X127381718Y-141187288D01*
X127387777Y-141184121D01*
X127689995Y-141004676D01*
X127695659Y-141000884D01*
X127976732Y-140789849D01*
X127981958Y-140785464D01*
X127991613Y-140776428D01*
X127999682Y-140762750D01*
X127999654Y-140762024D01*
X127994512Y-140753723D01*
X125862810Y-138622020D01*
X125848869Y-138614408D01*
X125847034Y-138614539D01*
X125840420Y-138618790D01*
X123706774Y-140752437D01*
X123699160Y-140766381D01*
X123699237Y-140767470D01*
X123701698Y-140771206D01*
X123975632Y-140981404D01*
X123981262Y-140985259D01*
X124281591Y-141167862D01*
X124287593Y-141171080D01*
X124605897Y-141320184D01*
X124612202Y-141322732D01*
X124944743Y-141436587D01*
X124951309Y-141438444D01*
X125191542Y-141492583D01*
X125253598Y-141527071D01*
X125287158Y-141589636D01*
X125281565Y-141660412D01*
X125238596Y-141716928D01*
X125171892Y-141741242D01*
X125163841Y-141741500D01*
X99033537Y-141741500D01*
X98965416Y-141721498D01*
X98918923Y-141667842D01*
X98908819Y-141597568D01*
X98938313Y-141532988D01*
X98998039Y-141494604D01*
X99007125Y-141492299D01*
X99215274Y-141447676D01*
X99221822Y-141445897D01*
X99555549Y-141335527D01*
X99561891Y-141333041D01*
X99881718Y-141187288D01*
X99887777Y-141184121D01*
X100189995Y-141004676D01*
X100195659Y-141000884D01*
X100476732Y-140789849D01*
X100481958Y-140785464D01*
X100491613Y-140776428D01*
X100499682Y-140762750D01*
X100499654Y-140762024D01*
X100494512Y-140753723D01*
X98362810Y-138622020D01*
X98348869Y-138614408D01*
X98347034Y-138614539D01*
X98340420Y-138618790D01*
X96206774Y-140752437D01*
X96199160Y-140766381D01*
X96199237Y-140767470D01*
X96201698Y-140771206D01*
X96475632Y-140981404D01*
X96481262Y-140985259D01*
X96781591Y-141167862D01*
X96787593Y-141171080D01*
X97105897Y-141320184D01*
X97112202Y-141322732D01*
X97444743Y-141436587D01*
X97451309Y-141438444D01*
X97691542Y-141492583D01*
X97753598Y-141527071D01*
X97787158Y-141589636D01*
X97781565Y-141660412D01*
X97738596Y-141716928D01*
X97671892Y-141741242D01*
X97663841Y-141741500D01*
X89234500Y-141741500D01*
X89166379Y-141721498D01*
X89119886Y-141667842D01*
X89108500Y-141615500D01*
X89108500Y-138241832D01*
X95037333Y-138241832D01*
X95055117Y-138592893D01*
X95055827Y-138599649D01*
X95111420Y-138946723D01*
X95112859Y-138953378D01*
X95205608Y-139292410D01*
X95207757Y-139298871D01*
X95336581Y-139625912D01*
X95339412Y-139632095D01*
X95502803Y-139943310D01*
X95506286Y-139949152D01*
X95702330Y-140240896D01*
X95706433Y-140246340D01*
X95826425Y-140388836D01*
X95839164Y-140397279D01*
X95849608Y-140391181D01*
X97977980Y-138262810D01*
X97984357Y-138251131D01*
X98714408Y-138251131D01*
X98714539Y-138252966D01*
X98718790Y-138259580D01*
X100849009Y-140389798D01*
X100862605Y-140397223D01*
X100872218Y-140390522D01*
X100972518Y-140273912D01*
X100976676Y-140268514D01*
X101175762Y-139978840D01*
X101179310Y-139973029D01*
X101345942Y-139663559D01*
X101348849Y-139657381D01*
X101481090Y-139331713D01*
X101483304Y-139325283D01*
X101579598Y-138987237D01*
X101581105Y-138980607D01*
X101640332Y-138634118D01*
X101641112Y-138627378D01*
X101662668Y-138274925D01*
X101662784Y-138271323D01*
X101662853Y-138251819D01*
X101662761Y-138248194D01*
X101662416Y-138241832D01*
X122537333Y-138241832D01*
X122555117Y-138592893D01*
X122555827Y-138599649D01*
X122611420Y-138946723D01*
X122612859Y-138953378D01*
X122705608Y-139292410D01*
X122707757Y-139298871D01*
X122836581Y-139625912D01*
X122839412Y-139632095D01*
X123002803Y-139943310D01*
X123006286Y-139949152D01*
X123202330Y-140240896D01*
X123206433Y-140246340D01*
X123326425Y-140388836D01*
X123339164Y-140397279D01*
X123349608Y-140391181D01*
X125477980Y-138262810D01*
X125484357Y-138251131D01*
X126214408Y-138251131D01*
X126214539Y-138252966D01*
X126218790Y-138259580D01*
X128349009Y-140389798D01*
X128362605Y-140397223D01*
X128372218Y-140390522D01*
X128472518Y-140273912D01*
X128476676Y-140268514D01*
X128675762Y-139978840D01*
X128679310Y-139973029D01*
X128845942Y-139663559D01*
X128848849Y-139657381D01*
X128981090Y-139331713D01*
X128983304Y-139325283D01*
X129079598Y-138987237D01*
X129081105Y-138980607D01*
X129140332Y-138634118D01*
X129141112Y-138627378D01*
X129162668Y-138274925D01*
X129162784Y-138271323D01*
X129162853Y-138251819D01*
X129162761Y-138248194D01*
X129143666Y-137895615D01*
X129142931Y-137888849D01*
X129086130Y-137541985D01*
X129084663Y-137535313D01*
X128990736Y-137196627D01*
X128988562Y-137190163D01*
X128858598Y-136863578D01*
X128855742Y-136857398D01*
X128691269Y-136546763D01*
X128687769Y-136540937D01*
X128490697Y-136249862D01*
X128486590Y-136244453D01*
X128373565Y-136111179D01*
X128360740Y-136102743D01*
X128350416Y-136108795D01*
X126222020Y-138237190D01*
X126214408Y-138251131D01*
X125484357Y-138251131D01*
X125485592Y-138248869D01*
X125485461Y-138247034D01*
X125481210Y-138240420D01*
X123350992Y-136110203D01*
X123337455Y-136102811D01*
X123327753Y-136109599D01*
X123220430Y-136235257D01*
X123216296Y-136240664D01*
X123018215Y-136531041D01*
X123014697Y-136536851D01*
X122849134Y-136846922D01*
X122846259Y-136853087D01*
X122715155Y-137179218D01*
X122712962Y-137185658D01*
X122617846Y-137524044D01*
X122616363Y-137530679D01*
X122558350Y-137877354D01*
X122557591Y-137884126D01*
X122537357Y-138235037D01*
X122537333Y-138241832D01*
X101662416Y-138241832D01*
X101643666Y-137895615D01*
X101642931Y-137888849D01*
X101586130Y-137541985D01*
X101584663Y-137535313D01*
X101490736Y-137196627D01*
X101488562Y-137190163D01*
X101358598Y-136863578D01*
X101355742Y-136857398D01*
X101191269Y-136546763D01*
X101187769Y-136540937D01*
X100990697Y-136249862D01*
X100986590Y-136244453D01*
X100873565Y-136111179D01*
X100860740Y-136102743D01*
X100850416Y-136108795D01*
X98722020Y-138237190D01*
X98714408Y-138251131D01*
X97984357Y-138251131D01*
X97985592Y-138248869D01*
X97985461Y-138247034D01*
X97981210Y-138240420D01*
X95850992Y-136110203D01*
X95837455Y-136102811D01*
X95827753Y-136109599D01*
X95720430Y-136235257D01*
X95716296Y-136240664D01*
X95518215Y-136531041D01*
X95514697Y-136536851D01*
X95349134Y-136846922D01*
X95346259Y-136853087D01*
X95215155Y-137179218D01*
X95212962Y-137185658D01*
X95117846Y-137524044D01*
X95116363Y-137530679D01*
X95058350Y-137877354D01*
X95057591Y-137884126D01*
X95037357Y-138235037D01*
X95037333Y-138241832D01*
X89108500Y-138241832D01*
X89108500Y-135953250D01*
X89110246Y-135932345D01*
X89112770Y-135917344D01*
X89112770Y-135917341D01*
X89113576Y-135912552D01*
X89113729Y-135900000D01*
X89112237Y-135889580D01*
X89111195Y-135879332D01*
X89102577Y-135736862D01*
X96199950Y-135736862D01*
X96199986Y-135737704D01*
X96205037Y-135745826D01*
X98337190Y-137877980D01*
X98351131Y-137885592D01*
X98352966Y-137885461D01*
X98359580Y-137881210D01*
X100492798Y-135747991D01*
X100498875Y-135736862D01*
X123699950Y-135736862D01*
X123699986Y-135737704D01*
X123705037Y-135745826D01*
X125837190Y-137877980D01*
X125851131Y-137885592D01*
X125852966Y-137885461D01*
X125859580Y-137881210D01*
X127992798Y-135747991D01*
X128000412Y-135734047D01*
X128000344Y-135733089D01*
X127995836Y-135726272D01*
X127994418Y-135725065D01*
X127714813Y-135512064D01*
X127709187Y-135508240D01*
X127408214Y-135326681D01*
X127402202Y-135323484D01*
X127083370Y-135175487D01*
X127077070Y-135172967D01*
X126744129Y-135060273D01*
X126737551Y-135058437D01*
X126394417Y-134982367D01*
X126387678Y-134981251D01*
X126038310Y-134942680D01*
X126031529Y-134942301D01*
X125680015Y-134941687D01*
X125673242Y-134942042D01*
X125323720Y-134979395D01*
X125317010Y-134980482D01*
X124973586Y-135055361D01*
X124967011Y-135057172D01*
X124633683Y-135168702D01*
X124627361Y-135171205D01*
X124308034Y-135318079D01*
X124301991Y-135321265D01*
X124000401Y-135501763D01*
X123994755Y-135505571D01*
X123714408Y-135717596D01*
X123709211Y-135721987D01*
X123707972Y-135723155D01*
X123699950Y-135736862D01*
X100498875Y-135736862D01*
X100500412Y-135734047D01*
X100500344Y-135733089D01*
X100495836Y-135726272D01*
X100494418Y-135725065D01*
X100214813Y-135512064D01*
X100209187Y-135508240D01*
X99908214Y-135326681D01*
X99902202Y-135323484D01*
X99583370Y-135175487D01*
X99577070Y-135172967D01*
X99244129Y-135060273D01*
X99237551Y-135058437D01*
X98894417Y-134982367D01*
X98887678Y-134981251D01*
X98538310Y-134942680D01*
X98531529Y-134942301D01*
X98180015Y-134941687D01*
X98173242Y-134942042D01*
X97823720Y-134979395D01*
X97817010Y-134980482D01*
X97473586Y-135055361D01*
X97467011Y-135057172D01*
X97133683Y-135168702D01*
X97127361Y-135171205D01*
X96808034Y-135318079D01*
X96801991Y-135321265D01*
X96500401Y-135501763D01*
X96494755Y-135505571D01*
X96214408Y-135717596D01*
X96209211Y-135721987D01*
X96207972Y-135723155D01*
X96199950Y-135736862D01*
X89102577Y-135736862D01*
X89096908Y-135643144D01*
X89096907Y-135643140D01*
X89096678Y-135639346D01*
X89049608Y-135382493D01*
X88971921Y-135133186D01*
X88939106Y-135060273D01*
X88904043Y-134982367D01*
X88864750Y-134895062D01*
X88783255Y-134760252D01*
X88731624Y-134674845D01*
X88729657Y-134671591D01*
X88720514Y-134659920D01*
X88570966Y-134469037D01*
X88570963Y-134469034D01*
X88568613Y-134466034D01*
X88383966Y-134281387D01*
X88330633Y-134239603D01*
X88181400Y-134122686D01*
X88181397Y-134122684D01*
X88178409Y-134120343D01*
X88121679Y-134086049D01*
X87958199Y-133987221D01*
X87958195Y-133987219D01*
X87954938Y-133985250D01*
X87835876Y-133931664D01*
X87720290Y-133879643D01*
X87720284Y-133879641D01*
X87716814Y-133878079D01*
X87467507Y-133800392D01*
X87210654Y-133753322D01*
X87206860Y-133753092D01*
X87206856Y-133753092D01*
X86986780Y-133739779D01*
X86973491Y-133738264D01*
X86967351Y-133737231D01*
X86967348Y-133737231D01*
X86962552Y-133736424D01*
X86956174Y-133736346D01*
X86954860Y-133736330D01*
X86954857Y-133736330D01*
X86950000Y-133736271D01*
X86925679Y-133739754D01*
X86922376Y-133740227D01*
X86904514Y-133741500D01*
X81235387Y-133741500D01*
X81167266Y-133721498D01*
X81120773Y-133667842D01*
X81109387Y-133615324D01*
X81114171Y-130191375D01*
X81115190Y-130175560D01*
X81118780Y-130147501D01*
X81119399Y-130142663D01*
X81119057Y-130130115D01*
X81116982Y-130118819D01*
X81115758Y-130110647D01*
X81092923Y-129914645D01*
X81092920Y-129914630D01*
X81092362Y-129909840D01*
X81033394Y-129696016D01*
X80992729Y-129605490D01*
X80944483Y-129498090D01*
X80944482Y-129498089D01*
X80942505Y-129493687D01*
X80821821Y-129307588D01*
X80674166Y-129142072D01*
X80502994Y-129001011D01*
X80312311Y-128887708D01*
X80185746Y-128836711D01*
X80111051Y-128806614D01*
X80111047Y-128806613D01*
X80106578Y-128804812D01*
X80101881Y-128803713D01*
X80101879Y-128803712D01*
X79895305Y-128755363D01*
X79895304Y-128755363D01*
X79890609Y-128754264D01*
X79885809Y-128753895D01*
X79885805Y-128753894D01*
X79811672Y-128748189D01*
X79707148Y-128740146D01*
X79695887Y-128738766D01*
X79682010Y-128736427D01*
X79677138Y-128736366D01*
X79677133Y-128736366D01*
X79675854Y-128736350D01*
X79669458Y-128736271D01*
X79664641Y-128736960D01*
X79664634Y-128736960D01*
X79638192Y-128740740D01*
X79621773Y-128742000D01*
X77896424Y-128761302D01*
X75835909Y-128784354D01*
X75767569Y-128765115D01*
X75720479Y-128711983D01*
X75708500Y-128658362D01*
X75708500Y-127344669D01*
X84592001Y-127344669D01*
X84592371Y-127351490D01*
X84597895Y-127402352D01*
X84601521Y-127417604D01*
X84646676Y-127538054D01*
X84655214Y-127553649D01*
X84731715Y-127655724D01*
X84744276Y-127668285D01*
X84846351Y-127744786D01*
X84861946Y-127753324D01*
X84982394Y-127798478D01*
X84997649Y-127802105D01*
X85048514Y-127807631D01*
X85055328Y-127808000D01*
X85827885Y-127808000D01*
X85843124Y-127803525D01*
X85844329Y-127802135D01*
X85846000Y-127794452D01*
X85846000Y-127789884D01*
X86354000Y-127789884D01*
X86358475Y-127805123D01*
X86359865Y-127806328D01*
X86367548Y-127807999D01*
X87144669Y-127807999D01*
X87151490Y-127807629D01*
X87202352Y-127802105D01*
X87217604Y-127798479D01*
X87338054Y-127753324D01*
X87353649Y-127744786D01*
X87455724Y-127668285D01*
X87468285Y-127655724D01*
X87544786Y-127553649D01*
X87553324Y-127538054D01*
X87598478Y-127417606D01*
X87602105Y-127402351D01*
X87607631Y-127351486D01*
X87607813Y-127348134D01*
X92591500Y-127348134D01*
X92598255Y-127410316D01*
X92649385Y-127546705D01*
X92736739Y-127663261D01*
X92853295Y-127750615D01*
X92989684Y-127801745D01*
X93051866Y-127808500D01*
X95148134Y-127808500D01*
X95210316Y-127801745D01*
X95346705Y-127750615D01*
X95463261Y-127663261D01*
X95550615Y-127546705D01*
X95601745Y-127410316D01*
X95608500Y-127348134D01*
X95608500Y-125251866D01*
X95601745Y-125189684D01*
X95550615Y-125053295D01*
X95463261Y-124936739D01*
X95346705Y-124849385D01*
X95210316Y-124798255D01*
X95148134Y-124791500D01*
X93051866Y-124791500D01*
X92989684Y-124798255D01*
X92853295Y-124849385D01*
X92736739Y-124936739D01*
X92649385Y-125053295D01*
X92598255Y-125189684D01*
X92591500Y-125251866D01*
X92591500Y-127348134D01*
X87607813Y-127348134D01*
X87608000Y-127344672D01*
X87608000Y-126572115D01*
X87603525Y-126556876D01*
X87602135Y-126555671D01*
X87594452Y-126554000D01*
X86372115Y-126554000D01*
X86356876Y-126558475D01*
X86355671Y-126559865D01*
X86354000Y-126567548D01*
X86354000Y-127789884D01*
X85846000Y-127789884D01*
X85846000Y-126572115D01*
X85841525Y-126556876D01*
X85840135Y-126555671D01*
X85832452Y-126554000D01*
X84610116Y-126554000D01*
X84594877Y-126558475D01*
X84593672Y-126559865D01*
X84592001Y-126567548D01*
X84592001Y-127344669D01*
X75708500Y-127344669D01*
X75708500Y-126308623D01*
X75708502Y-126307853D01*
X75708921Y-126239254D01*
X75708976Y-126230279D01*
X75700850Y-126201847D01*
X75697272Y-126185085D01*
X75694352Y-126164698D01*
X75693080Y-126155813D01*
X75682451Y-126132436D01*
X75676004Y-126114913D01*
X75671416Y-126098862D01*
X75668949Y-126090229D01*
X75664156Y-126082632D01*
X75653170Y-126065220D01*
X75645030Y-126050135D01*
X75642390Y-126044329D01*
X75634914Y-126027885D01*
X84592000Y-126027885D01*
X84596475Y-126043124D01*
X84597865Y-126044329D01*
X84605548Y-126046000D01*
X85827885Y-126046000D01*
X85843124Y-126041525D01*
X85844329Y-126040135D01*
X85846000Y-126032452D01*
X85846000Y-126027885D01*
X86354000Y-126027885D01*
X86358475Y-126043124D01*
X86359865Y-126044329D01*
X86367548Y-126046000D01*
X87589884Y-126046000D01*
X87605123Y-126041525D01*
X87606328Y-126040135D01*
X87607999Y-126032452D01*
X87607999Y-125255331D01*
X87607629Y-125248510D01*
X87602105Y-125197648D01*
X87598479Y-125182396D01*
X87553324Y-125061946D01*
X87544786Y-125046351D01*
X87468285Y-124944276D01*
X87455724Y-124931715D01*
X87353649Y-124855214D01*
X87338054Y-124846676D01*
X87217606Y-124801522D01*
X87202351Y-124797895D01*
X87151486Y-124792369D01*
X87144672Y-124792000D01*
X86372115Y-124792000D01*
X86356876Y-124796475D01*
X86355671Y-124797865D01*
X86354000Y-124805548D01*
X86354000Y-126027885D01*
X85846000Y-126027885D01*
X85846000Y-124810116D01*
X85841525Y-124794877D01*
X85840135Y-124793672D01*
X85832452Y-124792001D01*
X85055331Y-124792001D01*
X85048510Y-124792371D01*
X84997648Y-124797895D01*
X84982396Y-124801521D01*
X84861946Y-124846676D01*
X84846351Y-124855214D01*
X84744276Y-124931715D01*
X84731715Y-124944276D01*
X84655214Y-125046351D01*
X84646676Y-125061946D01*
X84601522Y-125182394D01*
X84597895Y-125197649D01*
X84592369Y-125248514D01*
X84592000Y-125255328D01*
X84592000Y-126027885D01*
X75634914Y-126027885D01*
X75632792Y-126023218D01*
X75616030Y-126003765D01*
X75604927Y-125988761D01*
X75591224Y-125967042D01*
X75584499Y-125961103D01*
X75584496Y-125961099D01*
X75569062Y-125947468D01*
X75557018Y-125935276D01*
X75543573Y-125919673D01*
X75543570Y-125919671D01*
X75537713Y-125912873D01*
X75516165Y-125898906D01*
X75501291Y-125887615D01*
X75488783Y-125876569D01*
X75488782Y-125876568D01*
X75482049Y-125870622D01*
X75455287Y-125858057D01*
X75440309Y-125849737D01*
X75423017Y-125838529D01*
X75423012Y-125838527D01*
X75415485Y-125833648D01*
X75406892Y-125831078D01*
X75406887Y-125831076D01*
X75390880Y-125826289D01*
X75373436Y-125819628D01*
X75358324Y-125812533D01*
X75358322Y-125812532D01*
X75350200Y-125808719D01*
X75341333Y-125807338D01*
X75341332Y-125807338D01*
X75331690Y-125805837D01*
X75320983Y-125804170D01*
X75304268Y-125800387D01*
X75284534Y-125794485D01*
X75284528Y-125794484D01*
X75275934Y-125791914D01*
X75266963Y-125791859D01*
X75266962Y-125791859D01*
X75256903Y-125791798D01*
X75241494Y-125791704D01*
X75240711Y-125791671D01*
X75239614Y-125791500D01*
X75208623Y-125791500D01*
X75207853Y-125791498D01*
X75134215Y-125791048D01*
X75134214Y-125791048D01*
X75130279Y-125791024D01*
X75128935Y-125791408D01*
X75127590Y-125791500D01*
X72833703Y-125791500D01*
X72765582Y-125771498D01*
X72719089Y-125717842D01*
X72707703Y-125665658D01*
X72697939Y-117898134D01*
X74741500Y-117898134D01*
X74748255Y-117960316D01*
X74799385Y-118096705D01*
X74886739Y-118213261D01*
X75003295Y-118300615D01*
X75139684Y-118351745D01*
X75201866Y-118358500D01*
X76998134Y-118358500D01*
X77060316Y-118351745D01*
X77196705Y-118300615D01*
X77313261Y-118213261D01*
X77400615Y-118096705D01*
X77451745Y-117960316D01*
X77458500Y-117898134D01*
X77458500Y-117484500D01*
X77478502Y-117416379D01*
X77532158Y-117369886D01*
X77584500Y-117358500D01*
X82755559Y-117358500D01*
X82823680Y-117378502D01*
X82868123Y-117427885D01*
X82967160Y-117624799D01*
X82969586Y-117628328D01*
X82969589Y-117628334D01*
X83119843Y-117846953D01*
X83122274Y-117850490D01*
X83306582Y-118053043D01*
X83309877Y-118055798D01*
X83309878Y-118055799D01*
X83354382Y-118093010D01*
X83516675Y-118228707D01*
X83520316Y-118230991D01*
X83745024Y-118371951D01*
X83745028Y-118371953D01*
X83748664Y-118374234D01*
X83816544Y-118404883D01*
X83994345Y-118485164D01*
X83994349Y-118485166D01*
X83998257Y-118486930D01*
X84002377Y-118488150D01*
X84002376Y-118488150D01*
X84256723Y-118563491D01*
X84256727Y-118563492D01*
X84260836Y-118564709D01*
X84265070Y-118565357D01*
X84265075Y-118565358D01*
X84527298Y-118605483D01*
X84527300Y-118605483D01*
X84531540Y-118606132D01*
X84670912Y-118608322D01*
X84801071Y-118610367D01*
X84801077Y-118610367D01*
X84805362Y-118610434D01*
X85077235Y-118577534D01*
X85342127Y-118508041D01*
X85346087Y-118506401D01*
X85346092Y-118506399D01*
X85468632Y-118455641D01*
X85595136Y-118403241D01*
X85831582Y-118265073D01*
X86047089Y-118096094D01*
X86088809Y-118053043D01*
X86234686Y-117902509D01*
X86237669Y-117899431D01*
X86240202Y-117895983D01*
X86240206Y-117895978D01*
X86397257Y-117682178D01*
X86399795Y-117678723D01*
X86405725Y-117667801D01*
X86528418Y-117441830D01*
X86528419Y-117441828D01*
X86530468Y-117438054D01*
X86627269Y-117181877D01*
X86688407Y-116914933D01*
X86712751Y-116642161D01*
X86713193Y-116600000D01*
X86694567Y-116326778D01*
X86639032Y-116058612D01*
X86547617Y-115800465D01*
X86422013Y-115557112D01*
X86412040Y-115542921D01*
X86267008Y-115336562D01*
X86264545Y-115333057D01*
X86078125Y-115132445D01*
X86074810Y-115129731D01*
X86074806Y-115129728D01*
X85908880Y-114993919D01*
X85866205Y-114958990D01*
X85632704Y-114815901D01*
X85628768Y-114814173D01*
X85385873Y-114707549D01*
X85385869Y-114707548D01*
X85381945Y-114705825D01*
X85118566Y-114630800D01*
X85114324Y-114630196D01*
X85114318Y-114630195D01*
X84913834Y-114601662D01*
X84847443Y-114592213D01*
X84703589Y-114591460D01*
X84577877Y-114590802D01*
X84577871Y-114590802D01*
X84573591Y-114590780D01*
X84569347Y-114591339D01*
X84569343Y-114591339D01*
X84450302Y-114607011D01*
X84302078Y-114626525D01*
X84297938Y-114627658D01*
X84297936Y-114627658D01*
X84225008Y-114647609D01*
X84037928Y-114698788D01*
X84033980Y-114700472D01*
X83789982Y-114804546D01*
X83789978Y-114804548D01*
X83786030Y-114806232D01*
X83711179Y-114851029D01*
X83554725Y-114944664D01*
X83554721Y-114944667D01*
X83551043Y-114946868D01*
X83337318Y-115118094D01*
X83148808Y-115316742D01*
X82989002Y-115539136D01*
X82870783Y-115762415D01*
X82864406Y-115774459D01*
X82814853Y-115825302D01*
X82753051Y-115841500D01*
X77584500Y-115841500D01*
X77516379Y-115821498D01*
X77469886Y-115767842D01*
X77458500Y-115715500D01*
X77458500Y-115301866D01*
X77451745Y-115239684D01*
X77400615Y-115103295D01*
X77313261Y-114986739D01*
X77196705Y-114899385D01*
X77060316Y-114848255D01*
X76998134Y-114841500D01*
X75201866Y-114841500D01*
X75139684Y-114848255D01*
X75003295Y-114899385D01*
X74886739Y-114986739D01*
X74799385Y-115103295D01*
X74748255Y-115239684D01*
X74741500Y-115301866D01*
X74741500Y-117898134D01*
X72697939Y-117898134D01*
X72692911Y-113898134D01*
X74741500Y-113898134D01*
X74748255Y-113960316D01*
X74799385Y-114096705D01*
X74886739Y-114213261D01*
X75003295Y-114300615D01*
X75139684Y-114351745D01*
X75201866Y-114358500D01*
X76998134Y-114358500D01*
X77060316Y-114351745D01*
X77196705Y-114300615D01*
X77313261Y-114213261D01*
X77400615Y-114096705D01*
X77451745Y-113960316D01*
X77458500Y-113898134D01*
X77458500Y-113484500D01*
X77478502Y-113416379D01*
X77532158Y-113369886D01*
X77584500Y-113358500D01*
X91033629Y-113358500D01*
X91101750Y-113378502D01*
X91122724Y-113395405D01*
X96429875Y-118702556D01*
X96460613Y-118752714D01*
X96515473Y-118921556D01*
X96610960Y-119086944D01*
X96615378Y-119091851D01*
X96615379Y-119091852D01*
X96734325Y-119223955D01*
X96738747Y-119228866D01*
X96790122Y-119266192D01*
X96885004Y-119335128D01*
X96893248Y-119341118D01*
X96899276Y-119343802D01*
X96899278Y-119343803D01*
X97051985Y-119411792D01*
X97067712Y-119418794D01*
X97074167Y-119420166D01*
X97074176Y-119420169D01*
X97130772Y-119432199D01*
X97193669Y-119466350D01*
X99916230Y-122188911D01*
X99928616Y-122203323D01*
X99937149Y-122214918D01*
X99937154Y-122214923D01*
X99941492Y-122220818D01*
X99947070Y-122225557D01*
X99947073Y-122225560D01*
X99981768Y-122255035D01*
X99989284Y-122261965D01*
X99994980Y-122267661D01*
X99997841Y-122269924D01*
X99997846Y-122269929D01*
X100017266Y-122285293D01*
X100020667Y-122288082D01*
X100076285Y-122335333D01*
X100082798Y-122338659D01*
X100087837Y-122342020D01*
X100092979Y-122345196D01*
X100098716Y-122349734D01*
X100164875Y-122380655D01*
X100168769Y-122382558D01*
X100233808Y-122415769D01*
X100240917Y-122417508D01*
X100246551Y-122419604D01*
X100252321Y-122421523D01*
X100258950Y-122424622D01*
X100266113Y-122426112D01*
X100266116Y-122426113D01*
X100316830Y-122436661D01*
X100330435Y-122439491D01*
X100334701Y-122440457D01*
X100405610Y-122457808D01*
X100411212Y-122458156D01*
X100411215Y-122458156D01*
X100416764Y-122458500D01*
X100416762Y-122458535D01*
X100420734Y-122458775D01*
X100424955Y-122459152D01*
X100432115Y-122460641D01*
X100509542Y-122458546D01*
X100512950Y-122458500D01*
X111432930Y-122458500D01*
X111451880Y-122459933D01*
X111466115Y-122462099D01*
X111466119Y-122462099D01*
X111473349Y-122463199D01*
X111480641Y-122462606D01*
X111480644Y-122462606D01*
X111526018Y-122458915D01*
X111536233Y-122458500D01*
X111544293Y-122458500D01*
X111561680Y-122456473D01*
X111572507Y-122455211D01*
X111576882Y-122454778D01*
X111642339Y-122449454D01*
X111642342Y-122449453D01*
X111649637Y-122448860D01*
X111656601Y-122446604D01*
X111662560Y-122445413D01*
X111668415Y-122444029D01*
X111675681Y-122443182D01*
X111744327Y-122418265D01*
X111748455Y-122416848D01*
X111810936Y-122396607D01*
X111810938Y-122396606D01*
X111817899Y-122394351D01*
X111824154Y-122390555D01*
X111829628Y-122388049D01*
X111835058Y-122385330D01*
X111841937Y-122382833D01*
X111848058Y-122378820D01*
X111902976Y-122342814D01*
X111906680Y-122340477D01*
X111969107Y-122302595D01*
X111977484Y-122295197D01*
X111977508Y-122295224D01*
X111980500Y-122292571D01*
X111983733Y-122289868D01*
X111989852Y-122285856D01*
X112043128Y-122229617D01*
X112045506Y-122227175D01*
X114688911Y-119583770D01*
X114703323Y-119571384D01*
X114714918Y-119562851D01*
X114714923Y-119562846D01*
X114720818Y-119558508D01*
X114725557Y-119552930D01*
X114725560Y-119552927D01*
X114755035Y-119518232D01*
X114761965Y-119510716D01*
X114767661Y-119505020D01*
X114769924Y-119502159D01*
X114769929Y-119502154D01*
X114785285Y-119482744D01*
X114788074Y-119479342D01*
X114830596Y-119429291D01*
X114830597Y-119429290D01*
X114835333Y-119423715D01*
X114838661Y-119417198D01*
X114842027Y-119412150D01*
X114845190Y-119407028D01*
X114849735Y-119401284D01*
X114880664Y-119335105D01*
X114882563Y-119331221D01*
X114915769Y-119266192D01*
X114917510Y-119259077D01*
X114919613Y-119253422D01*
X114921522Y-119247683D01*
X114924622Y-119241050D01*
X114939491Y-119169565D01*
X114940461Y-119165282D01*
X114956473Y-119099844D01*
X114957808Y-119094390D01*
X114958500Y-119083236D01*
X114958535Y-119083238D01*
X114958775Y-119079266D01*
X114959152Y-119075045D01*
X114960641Y-119067885D01*
X114958546Y-118990458D01*
X114958500Y-118987050D01*
X114958500Y-110766371D01*
X114978502Y-110698250D01*
X114995405Y-110677276D01*
X118077276Y-107595405D01*
X118139588Y-107561379D01*
X118166371Y-107558500D01*
X119664629Y-107558500D01*
X119732750Y-107578502D01*
X119779243Y-107632158D01*
X119789347Y-107702432D01*
X119759853Y-107767012D01*
X119753724Y-107773595D01*
X116511089Y-111016230D01*
X116496677Y-111028616D01*
X116485082Y-111037149D01*
X116485077Y-111037154D01*
X116479182Y-111041492D01*
X116474443Y-111047070D01*
X116474440Y-111047073D01*
X116444965Y-111081768D01*
X116438035Y-111089284D01*
X116432340Y-111094979D01*
X116430060Y-111097861D01*
X116414719Y-111117251D01*
X116411928Y-111120655D01*
X116369409Y-111170703D01*
X116364667Y-111176285D01*
X116361339Y-111182801D01*
X116357972Y-111187850D01*
X116354805Y-111192979D01*
X116350266Y-111198716D01*
X116319345Y-111264875D01*
X116317442Y-111268769D01*
X116284231Y-111333808D01*
X116282492Y-111340916D01*
X116280393Y-111346559D01*
X116278476Y-111352322D01*
X116275378Y-111358950D01*
X116273888Y-111366112D01*
X116273888Y-111366113D01*
X116260514Y-111430412D01*
X116259544Y-111434696D01*
X116242192Y-111505610D01*
X116241500Y-111516764D01*
X116241464Y-111516762D01*
X116241225Y-111520755D01*
X116240851Y-111524947D01*
X116239360Y-111532115D01*
X116239558Y-111539432D01*
X116241454Y-111609521D01*
X116241500Y-111612928D01*
X116241500Y-122032930D01*
X116240067Y-122051880D01*
X116236801Y-122073349D01*
X116237394Y-122080641D01*
X116237394Y-122080644D01*
X116241085Y-122126018D01*
X116241500Y-122136233D01*
X116241500Y-122144293D01*
X116241925Y-122147937D01*
X116244789Y-122172507D01*
X116245222Y-122176882D01*
X116249512Y-122229617D01*
X116251140Y-122249637D01*
X116253396Y-122256601D01*
X116254587Y-122262560D01*
X116255971Y-122268415D01*
X116256818Y-122275681D01*
X116281735Y-122344327D01*
X116283152Y-122348455D01*
X116305649Y-122417899D01*
X116309445Y-122424154D01*
X116311951Y-122429628D01*
X116314670Y-122435058D01*
X116317167Y-122441937D01*
X116321180Y-122448057D01*
X116321180Y-122448058D01*
X116357186Y-122502976D01*
X116359523Y-122506680D01*
X116397405Y-122569107D01*
X116401121Y-122573315D01*
X116401122Y-122573316D01*
X116404803Y-122577484D01*
X116404776Y-122577508D01*
X116407429Y-122580500D01*
X116410132Y-122583733D01*
X116414144Y-122589852D01*
X116419456Y-122594884D01*
X116470383Y-122643128D01*
X116472825Y-122645506D01*
X118589955Y-124762636D01*
X118623981Y-124824948D01*
X118619186Y-124895032D01*
X118566743Y-125038337D01*
X118508404Y-125305907D01*
X118486917Y-125578918D01*
X118502682Y-125852320D01*
X118503507Y-125856525D01*
X118503508Y-125856533D01*
X118531003Y-125996674D01*
X118555405Y-126121053D01*
X118556792Y-126125103D01*
X118556793Y-126125108D01*
X118640543Y-126369721D01*
X118644112Y-126380144D01*
X118705636Y-126502472D01*
X118756498Y-126603599D01*
X118767160Y-126624799D01*
X118769586Y-126628328D01*
X118769589Y-126628334D01*
X118919843Y-126846953D01*
X118922274Y-126850490D01*
X119106582Y-127053043D01*
X119316675Y-127228707D01*
X119320316Y-127230991D01*
X119545024Y-127371951D01*
X119545028Y-127371953D01*
X119548664Y-127374234D01*
X119673460Y-127430582D01*
X119794345Y-127485164D01*
X119794349Y-127485166D01*
X119798257Y-127486930D01*
X119802377Y-127488150D01*
X119802376Y-127488150D01*
X120056723Y-127563491D01*
X120056727Y-127563492D01*
X120060836Y-127564709D01*
X120065070Y-127565357D01*
X120065075Y-127565358D01*
X120327298Y-127605483D01*
X120327300Y-127605483D01*
X120331540Y-127606132D01*
X120470912Y-127608322D01*
X120601071Y-127610367D01*
X120601077Y-127610367D01*
X120605362Y-127610434D01*
X120877235Y-127577534D01*
X121142127Y-127508041D01*
X121146087Y-127506401D01*
X121146092Y-127506399D01*
X121268632Y-127455641D01*
X121395136Y-127403241D01*
X121631582Y-127265073D01*
X121847089Y-127096094D01*
X121888809Y-127053043D01*
X122034686Y-126902509D01*
X122037669Y-126899431D01*
X122040202Y-126895983D01*
X122040206Y-126895978D01*
X122197257Y-126682178D01*
X122199795Y-126678723D01*
X122210813Y-126658431D01*
X122328418Y-126441830D01*
X122328419Y-126441828D01*
X122330468Y-126438054D01*
X122405588Y-126239254D01*
X122425751Y-126185895D01*
X122425752Y-126185891D01*
X122427269Y-126181877D01*
X122463607Y-126023218D01*
X122487449Y-125919117D01*
X122487450Y-125919113D01*
X122488407Y-125914933D01*
X122489027Y-125907992D01*
X122512531Y-125644627D01*
X122512531Y-125644625D01*
X122512751Y-125642161D01*
X122513193Y-125600000D01*
X122494567Y-125326778D01*
X122439032Y-125058612D01*
X122347617Y-124800465D01*
X122222013Y-124557112D01*
X122064545Y-124333057D01*
X121878125Y-124132445D01*
X121874810Y-124129731D01*
X121874806Y-124129728D01*
X121669523Y-123961706D01*
X121666205Y-123958990D01*
X121432704Y-123815901D01*
X121203195Y-123715153D01*
X121185873Y-123707549D01*
X121185869Y-123707548D01*
X121181945Y-123705825D01*
X120918566Y-123630800D01*
X120914324Y-123630196D01*
X120914318Y-123630195D01*
X120713834Y-123601662D01*
X120647443Y-123592213D01*
X120503589Y-123591460D01*
X120377877Y-123590802D01*
X120377871Y-123590802D01*
X120373591Y-123590780D01*
X120369347Y-123591339D01*
X120369343Y-123591339D01*
X120250302Y-123607011D01*
X120102078Y-123626525D01*
X120097938Y-123627658D01*
X120097936Y-123627658D01*
X120025008Y-123647609D01*
X119837928Y-123698788D01*
X119799561Y-123715153D01*
X119729056Y-123723482D01*
X119661032Y-123688351D01*
X117795405Y-121822724D01*
X117761379Y-121760412D01*
X117758500Y-121733629D01*
X117758500Y-116578918D01*
X118486917Y-116578918D01*
X118502682Y-116852320D01*
X118503507Y-116856525D01*
X118503508Y-116856533D01*
X118514127Y-116910657D01*
X118555405Y-117121053D01*
X118556792Y-117125103D01*
X118556793Y-117125108D01*
X118640600Y-117369886D01*
X118644112Y-117380144D01*
X118767160Y-117624799D01*
X118769586Y-117628328D01*
X118769589Y-117628334D01*
X118919843Y-117846953D01*
X118922274Y-117850490D01*
X119106582Y-118053043D01*
X119109877Y-118055798D01*
X119109878Y-118055799D01*
X119154382Y-118093010D01*
X119316675Y-118228707D01*
X119320316Y-118230991D01*
X119545024Y-118371951D01*
X119545028Y-118371953D01*
X119548664Y-118374234D01*
X119616544Y-118404883D01*
X119794345Y-118485164D01*
X119794349Y-118485166D01*
X119798257Y-118486930D01*
X119802377Y-118488150D01*
X119802376Y-118488150D01*
X120056723Y-118563491D01*
X120056727Y-118563492D01*
X120060836Y-118564709D01*
X120065070Y-118565357D01*
X120065075Y-118565358D01*
X120327298Y-118605483D01*
X120327300Y-118605483D01*
X120331540Y-118606132D01*
X120470912Y-118608322D01*
X120601071Y-118610367D01*
X120601077Y-118610367D01*
X120605362Y-118610434D01*
X120877235Y-118577534D01*
X121142127Y-118508041D01*
X121146087Y-118506401D01*
X121146092Y-118506399D01*
X121268632Y-118455641D01*
X121395136Y-118403241D01*
X121631582Y-118265073D01*
X121847089Y-118096094D01*
X121888809Y-118053043D01*
X122034686Y-117902509D01*
X122037669Y-117899431D01*
X122040202Y-117895983D01*
X122040206Y-117895978D01*
X122197257Y-117682178D01*
X122199795Y-117678723D01*
X122205725Y-117667801D01*
X122328418Y-117441830D01*
X122328419Y-117441828D01*
X122330468Y-117438054D01*
X122427269Y-117181877D01*
X122488407Y-116914933D01*
X122512751Y-116642161D01*
X122513193Y-116600000D01*
X122494567Y-116326778D01*
X122439032Y-116058612D01*
X122437602Y-116054574D01*
X122437601Y-116054569D01*
X122380588Y-115893569D01*
X122376704Y-115822679D01*
X122410266Y-115762415D01*
X130928012Y-107244669D01*
X139492001Y-107244669D01*
X139492371Y-107251490D01*
X139497895Y-107302352D01*
X139501521Y-107317604D01*
X139546676Y-107438054D01*
X139555214Y-107453649D01*
X139631715Y-107555724D01*
X139644276Y-107568285D01*
X139746351Y-107644786D01*
X139761946Y-107653324D01*
X139882394Y-107698478D01*
X139897649Y-107702105D01*
X139948514Y-107707631D01*
X139955328Y-107708000D01*
X140727885Y-107708000D01*
X140743124Y-107703525D01*
X140744329Y-107702135D01*
X140746000Y-107694452D01*
X140746000Y-107689884D01*
X141254000Y-107689884D01*
X141258475Y-107705123D01*
X141259865Y-107706328D01*
X141267548Y-107707999D01*
X142044669Y-107707999D01*
X142051490Y-107707629D01*
X142102352Y-107702105D01*
X142117604Y-107698479D01*
X142238054Y-107653324D01*
X142253649Y-107644786D01*
X142355724Y-107568285D01*
X142368285Y-107555724D01*
X142444786Y-107453649D01*
X142453324Y-107438054D01*
X142498478Y-107317606D01*
X142502105Y-107302351D01*
X142507631Y-107251486D01*
X142507813Y-107248134D01*
X145291500Y-107248134D01*
X145298255Y-107310316D01*
X145349385Y-107446705D01*
X145436739Y-107563261D01*
X145553295Y-107650615D01*
X145689684Y-107701745D01*
X145751866Y-107708500D01*
X147848134Y-107708500D01*
X147910316Y-107701745D01*
X148046705Y-107650615D01*
X148163261Y-107563261D01*
X148250615Y-107446705D01*
X148301745Y-107310316D01*
X148308500Y-107248134D01*
X148308500Y-105151866D01*
X148301745Y-105089684D01*
X148250615Y-104953295D01*
X148163261Y-104836739D01*
X148046705Y-104749385D01*
X147910316Y-104698255D01*
X147848134Y-104691500D01*
X145751866Y-104691500D01*
X145689684Y-104698255D01*
X145553295Y-104749385D01*
X145436739Y-104836739D01*
X145349385Y-104953295D01*
X145298255Y-105089684D01*
X145291500Y-105151866D01*
X145291500Y-107248134D01*
X142507813Y-107248134D01*
X142508000Y-107244672D01*
X142508000Y-106472115D01*
X142503525Y-106456876D01*
X142502135Y-106455671D01*
X142494452Y-106454000D01*
X141272115Y-106454000D01*
X141256876Y-106458475D01*
X141255671Y-106459865D01*
X141254000Y-106467548D01*
X141254000Y-107689884D01*
X140746000Y-107689884D01*
X140746000Y-106472115D01*
X140741525Y-106456876D01*
X140740135Y-106455671D01*
X140732452Y-106454000D01*
X139510116Y-106454000D01*
X139494877Y-106458475D01*
X139493672Y-106459865D01*
X139492001Y-106467548D01*
X139492001Y-107244669D01*
X130928012Y-107244669D01*
X132244796Y-105927885D01*
X139492000Y-105927885D01*
X139496475Y-105943124D01*
X139497865Y-105944329D01*
X139505548Y-105946000D01*
X140727885Y-105946000D01*
X140743124Y-105941525D01*
X140744329Y-105940135D01*
X140746000Y-105932452D01*
X140746000Y-105927885D01*
X141254000Y-105927885D01*
X141258475Y-105943124D01*
X141259865Y-105944329D01*
X141267548Y-105946000D01*
X142489884Y-105946000D01*
X142505123Y-105941525D01*
X142506328Y-105940135D01*
X142507999Y-105932452D01*
X142507999Y-105155331D01*
X142507629Y-105148510D01*
X142502105Y-105097648D01*
X142498479Y-105082396D01*
X142453324Y-104961946D01*
X142444786Y-104946351D01*
X142368285Y-104844276D01*
X142355724Y-104831715D01*
X142253649Y-104755214D01*
X142238054Y-104746676D01*
X142117606Y-104701522D01*
X142102351Y-104697895D01*
X142051486Y-104692369D01*
X142044672Y-104692000D01*
X141272115Y-104692000D01*
X141256876Y-104696475D01*
X141255671Y-104697865D01*
X141254000Y-104705548D01*
X141254000Y-105927885D01*
X140746000Y-105927885D01*
X140746000Y-104710116D01*
X140741525Y-104694877D01*
X140740135Y-104693672D01*
X140732452Y-104692001D01*
X139955331Y-104692001D01*
X139948510Y-104692371D01*
X139897648Y-104697895D01*
X139882396Y-104701521D01*
X139761946Y-104746676D01*
X139746351Y-104755214D01*
X139644276Y-104831715D01*
X139631715Y-104844276D01*
X139555214Y-104946351D01*
X139546676Y-104961946D01*
X139501522Y-105082394D01*
X139497895Y-105097649D01*
X139492369Y-105148514D01*
X139492000Y-105155328D01*
X139492000Y-105927885D01*
X132244796Y-105927885D01*
X142193763Y-95978918D01*
X144486917Y-95978918D01*
X144502682Y-96252320D01*
X144503507Y-96256525D01*
X144503508Y-96256533D01*
X144514127Y-96310657D01*
X144555405Y-96521053D01*
X144556792Y-96525103D01*
X144556793Y-96525108D01*
X144577605Y-96585895D01*
X144644112Y-96780144D01*
X144767160Y-97024799D01*
X144769586Y-97028328D01*
X144769589Y-97028334D01*
X144919843Y-97246953D01*
X144922274Y-97250490D01*
X145106582Y-97453043D01*
X145316675Y-97628707D01*
X145320316Y-97630991D01*
X145545024Y-97771951D01*
X145545028Y-97771953D01*
X145548664Y-97774234D01*
X145616544Y-97804883D01*
X145794345Y-97885164D01*
X145794349Y-97885166D01*
X145798257Y-97886930D01*
X145802377Y-97888150D01*
X145802376Y-97888150D01*
X146056723Y-97963491D01*
X146056727Y-97963492D01*
X146060836Y-97964709D01*
X146065070Y-97965357D01*
X146065075Y-97965358D01*
X146327298Y-98005483D01*
X146327300Y-98005483D01*
X146331540Y-98006132D01*
X146470912Y-98008322D01*
X146601071Y-98010367D01*
X146601077Y-98010367D01*
X146605362Y-98010434D01*
X146877235Y-97977534D01*
X147142127Y-97908041D01*
X147146087Y-97906401D01*
X147146092Y-97906399D01*
X147268631Y-97855641D01*
X147395136Y-97803241D01*
X147631582Y-97665073D01*
X147847089Y-97496094D01*
X147888809Y-97453043D01*
X148034686Y-97302509D01*
X148037669Y-97299431D01*
X148040202Y-97295983D01*
X148040206Y-97295978D01*
X148197257Y-97082178D01*
X148199795Y-97078723D01*
X148227154Y-97028334D01*
X148328418Y-96841830D01*
X148328419Y-96841828D01*
X148330468Y-96838054D01*
X148427269Y-96581877D01*
X148488407Y-96314933D01*
X148512751Y-96042161D01*
X148513193Y-96000000D01*
X148509284Y-95942660D01*
X148494859Y-95731055D01*
X148494858Y-95731049D01*
X148494567Y-95726778D01*
X148439032Y-95458612D01*
X148437604Y-95454578D01*
X148437601Y-95454569D01*
X148380588Y-95293569D01*
X148376704Y-95222679D01*
X148410266Y-95162415D01*
X150188911Y-93383770D01*
X150203323Y-93371384D01*
X150214918Y-93362851D01*
X150214923Y-93362846D01*
X150220818Y-93358508D01*
X150225557Y-93352930D01*
X150225560Y-93352927D01*
X150255035Y-93318232D01*
X150261965Y-93310716D01*
X150267660Y-93305021D01*
X150285281Y-93282749D01*
X150288072Y-93279345D01*
X150330591Y-93229297D01*
X150330592Y-93229295D01*
X150335333Y-93223715D01*
X150338661Y-93217199D01*
X150342028Y-93212150D01*
X150345195Y-93207021D01*
X150349734Y-93201284D01*
X150380655Y-93135125D01*
X150382561Y-93131225D01*
X150415769Y-93066192D01*
X150417508Y-93059084D01*
X150419607Y-93053441D01*
X150421524Y-93047678D01*
X150424622Y-93041050D01*
X150439487Y-92969583D01*
X150440457Y-92965299D01*
X150456473Y-92899845D01*
X150457808Y-92894390D01*
X150458500Y-92883236D01*
X150458536Y-92883238D01*
X150458775Y-92879245D01*
X150459149Y-92875053D01*
X150460640Y-92867885D01*
X150458546Y-92790479D01*
X150458500Y-92787072D01*
X150458500Y-67667063D01*
X150459933Y-67648114D01*
X150462097Y-67633886D01*
X150463198Y-67626651D01*
X150458915Y-67573990D01*
X150458500Y-67563777D01*
X150458500Y-67555707D01*
X150458078Y-67552087D01*
X150458077Y-67552069D01*
X150455208Y-67527461D01*
X150454775Y-67523086D01*
X150449454Y-67457661D01*
X150449453Y-67457658D01*
X150448860Y-67450363D01*
X150446604Y-67443399D01*
X150445413Y-67437440D01*
X150444029Y-67431585D01*
X150443182Y-67424319D01*
X150418265Y-67355673D01*
X150416848Y-67351545D01*
X150396607Y-67289064D01*
X150396606Y-67289062D01*
X150394351Y-67282101D01*
X150390555Y-67275846D01*
X150388049Y-67270372D01*
X150385330Y-67264942D01*
X150382833Y-67258063D01*
X150342809Y-67197016D01*
X150340472Y-67193312D01*
X150305509Y-67135693D01*
X150305505Y-67135688D01*
X150302595Y-67130892D01*
X150295197Y-67122516D01*
X150295223Y-67122493D01*
X150292574Y-67119503D01*
X150289866Y-67116264D01*
X150285856Y-67110148D01*
X150280549Y-67105121D01*
X150280546Y-67105117D01*
X150229617Y-67056872D01*
X150227175Y-67054494D01*
X148410009Y-65237328D01*
X148375983Y-65175016D01*
X148381238Y-65103695D01*
X148425751Y-64985895D01*
X148425752Y-64985891D01*
X148427269Y-64981877D01*
X148488407Y-64714933D01*
X148494384Y-64647969D01*
X148512531Y-64444627D01*
X148512532Y-64444616D01*
X148512751Y-64442161D01*
X148513193Y-64400000D01*
X148511465Y-64374648D01*
X148494859Y-64131055D01*
X148494858Y-64131049D01*
X148494567Y-64126778D01*
X148439032Y-63858612D01*
X148347617Y-63600465D01*
X148222013Y-63357112D01*
X148212040Y-63342921D01*
X148067008Y-63136562D01*
X148064545Y-63133057D01*
X147878125Y-62932445D01*
X147874810Y-62929731D01*
X147874806Y-62929728D01*
X147669523Y-62761706D01*
X147666205Y-62758990D01*
X147432704Y-62615901D01*
X147428768Y-62614173D01*
X147185873Y-62507549D01*
X147185869Y-62507548D01*
X147181945Y-62505825D01*
X146918566Y-62430800D01*
X146914324Y-62430196D01*
X146914318Y-62430195D01*
X146713834Y-62401662D01*
X146647443Y-62392213D01*
X146503589Y-62391460D01*
X146377877Y-62390802D01*
X146377871Y-62390802D01*
X146373591Y-62390780D01*
X146369347Y-62391339D01*
X146369343Y-62391339D01*
X146250302Y-62407011D01*
X146102078Y-62426525D01*
X146097938Y-62427658D01*
X146097936Y-62427658D01*
X146025008Y-62447609D01*
X145837928Y-62498788D01*
X145833980Y-62500472D01*
X145589982Y-62604546D01*
X145589978Y-62604548D01*
X145586030Y-62606232D01*
X145566125Y-62618145D01*
X145354725Y-62744664D01*
X145354721Y-62744667D01*
X145351043Y-62746868D01*
X145137318Y-62918094D01*
X144948808Y-63116742D01*
X144789002Y-63339136D01*
X144660857Y-63581161D01*
X144659385Y-63585184D01*
X144659383Y-63585188D01*
X144652314Y-63604506D01*
X144566743Y-63838337D01*
X144508404Y-64105907D01*
X144486917Y-64378918D01*
X144502682Y-64652320D01*
X144503507Y-64656525D01*
X144503508Y-64656533D01*
X144524698Y-64764539D01*
X144555405Y-64921053D01*
X144556792Y-64925103D01*
X144556793Y-64925108D01*
X144642356Y-65175016D01*
X144644112Y-65180144D01*
X144767160Y-65424799D01*
X144769586Y-65428328D01*
X144769589Y-65428334D01*
X144898741Y-65616250D01*
X144922274Y-65650490D01*
X145106582Y-65853043D01*
X145316675Y-66028707D01*
X145320316Y-66030991D01*
X145545024Y-66171951D01*
X145545028Y-66171953D01*
X145548664Y-66174234D01*
X145673461Y-66230582D01*
X145794345Y-66285164D01*
X145794349Y-66285166D01*
X145798257Y-66286930D01*
X145802377Y-66288150D01*
X145802376Y-66288150D01*
X146056723Y-66363491D01*
X146056727Y-66363492D01*
X146060836Y-66364709D01*
X146065070Y-66365357D01*
X146065075Y-66365358D01*
X146327298Y-66405483D01*
X146327300Y-66405483D01*
X146331540Y-66406132D01*
X146470912Y-66408322D01*
X146601071Y-66410367D01*
X146601077Y-66410367D01*
X146605362Y-66410434D01*
X146877235Y-66377534D01*
X147142127Y-66308041D01*
X147146096Y-66306397D01*
X147146099Y-66306396D01*
X147200981Y-66283663D01*
X147271571Y-66276073D01*
X147338295Y-66310976D01*
X148904595Y-67877276D01*
X148938621Y-67939588D01*
X148941500Y-67966371D01*
X148941500Y-92433629D01*
X148921498Y-92501750D01*
X148904595Y-92522724D01*
X147339814Y-94087505D01*
X147277502Y-94121531D01*
X147200074Y-94113783D01*
X147181945Y-94105825D01*
X146918566Y-94030800D01*
X146914324Y-94030196D01*
X146914318Y-94030195D01*
X146713834Y-94001662D01*
X146647443Y-93992213D01*
X146503589Y-93991460D01*
X146377877Y-93990802D01*
X146377871Y-93990802D01*
X146373591Y-93990780D01*
X146369347Y-93991339D01*
X146369343Y-93991339D01*
X146303557Y-94000000D01*
X146102078Y-94026525D01*
X146097938Y-94027658D01*
X146097936Y-94027658D01*
X146053969Y-94039686D01*
X145837928Y-94098788D01*
X145833980Y-94100472D01*
X145589982Y-94204546D01*
X145589978Y-94204548D01*
X145586030Y-94206232D01*
X145516187Y-94248032D01*
X145354725Y-94344664D01*
X145354721Y-94344667D01*
X145351043Y-94346868D01*
X145137318Y-94518094D01*
X144948808Y-94716742D01*
X144789002Y-94939136D01*
X144660857Y-95181161D01*
X144659385Y-95185184D01*
X144659383Y-95185188D01*
X144617576Y-95299431D01*
X144566743Y-95438337D01*
X144508404Y-95705907D01*
X144486917Y-95978918D01*
X142193763Y-95978918D01*
X146988911Y-91183770D01*
X147003323Y-91171384D01*
X147014918Y-91162851D01*
X147014923Y-91162846D01*
X147020818Y-91158508D01*
X147025557Y-91152930D01*
X147025560Y-91152927D01*
X147055035Y-91118232D01*
X147061965Y-91110716D01*
X147067661Y-91105020D01*
X147069924Y-91102159D01*
X147069929Y-91102154D01*
X147085285Y-91082744D01*
X147088074Y-91079342D01*
X147130596Y-91029291D01*
X147130597Y-91029290D01*
X147135333Y-91023715D01*
X147138661Y-91017198D01*
X147142027Y-91012150D01*
X147145190Y-91007028D01*
X147149735Y-91001284D01*
X147180664Y-90935105D01*
X147182563Y-90931221D01*
X147215769Y-90866192D01*
X147217510Y-90859077D01*
X147219613Y-90853422D01*
X147221522Y-90847683D01*
X147224622Y-90841050D01*
X147239491Y-90769565D01*
X147240461Y-90765282D01*
X147256473Y-90699844D01*
X147257808Y-90694390D01*
X147258500Y-90683236D01*
X147258535Y-90683238D01*
X147258775Y-90679266D01*
X147259152Y-90675045D01*
X147260641Y-90667885D01*
X147258546Y-90590458D01*
X147258500Y-90587050D01*
X147258500Y-88944028D01*
X147278502Y-88875907D01*
X147336281Y-88827620D01*
X147395136Y-88803241D01*
X147631582Y-88665073D01*
X147847089Y-88496094D01*
X147888809Y-88453043D01*
X148034686Y-88302509D01*
X148037669Y-88299431D01*
X148040202Y-88295983D01*
X148040206Y-88295978D01*
X148197257Y-88082178D01*
X148199795Y-88078723D01*
X148227154Y-88028334D01*
X148328418Y-87841830D01*
X148328419Y-87841828D01*
X148330468Y-87838054D01*
X148427269Y-87581877D01*
X148488407Y-87314933D01*
X148512751Y-87042161D01*
X148513193Y-87000000D01*
X148511697Y-86978050D01*
X148494859Y-86731055D01*
X148494858Y-86731049D01*
X148494567Y-86726778D01*
X148439032Y-86458612D01*
X148347617Y-86200465D01*
X148222013Y-85957112D01*
X148212040Y-85942921D01*
X148135514Y-85834036D01*
X148064545Y-85733057D01*
X147924060Y-85581877D01*
X147881046Y-85535588D01*
X147881043Y-85535585D01*
X147878125Y-85532445D01*
X147874810Y-85529731D01*
X147874806Y-85529728D01*
X147669523Y-85361706D01*
X147666205Y-85358990D01*
X147432704Y-85215901D01*
X147428768Y-85214173D01*
X147185873Y-85107549D01*
X147185869Y-85107548D01*
X147181945Y-85105825D01*
X146918566Y-85030800D01*
X146914324Y-85030196D01*
X146914318Y-85030195D01*
X146713834Y-85001662D01*
X146647443Y-84992213D01*
X146503589Y-84991460D01*
X146377877Y-84990802D01*
X146377871Y-84990802D01*
X146373591Y-84990780D01*
X146369347Y-84991339D01*
X146369343Y-84991339D01*
X146303557Y-85000000D01*
X146102078Y-85026525D01*
X146097938Y-85027658D01*
X146097936Y-85027658D01*
X146053969Y-85039686D01*
X145837928Y-85098788D01*
X145833980Y-85100472D01*
X145589982Y-85204546D01*
X145589978Y-85204548D01*
X145586030Y-85206232D01*
X145566125Y-85218145D01*
X145354725Y-85344664D01*
X145354721Y-85344667D01*
X145351043Y-85346868D01*
X145137318Y-85518094D01*
X144948808Y-85716742D01*
X144789002Y-85939136D01*
X144660857Y-86181161D01*
X144659385Y-86185184D01*
X144659383Y-86185188D01*
X144617576Y-86299431D01*
X144566743Y-86438337D01*
X144508404Y-86705907D01*
X144508068Y-86710177D01*
X144492625Y-86906399D01*
X144486917Y-86978918D01*
X144502682Y-87252320D01*
X144503507Y-87256525D01*
X144503508Y-87256533D01*
X144514127Y-87310657D01*
X144555405Y-87521053D01*
X144556792Y-87525103D01*
X144556793Y-87525108D01*
X144577605Y-87585895D01*
X144644112Y-87780144D01*
X144767160Y-88024799D01*
X144769586Y-88028328D01*
X144769589Y-88028334D01*
X144919843Y-88246953D01*
X144922274Y-88250490D01*
X145106582Y-88453043D01*
X145316675Y-88628707D01*
X145320316Y-88630991D01*
X145545024Y-88771951D01*
X145545028Y-88771953D01*
X145548664Y-88774234D01*
X145667352Y-88827824D01*
X145721205Y-88874086D01*
X145741500Y-88942660D01*
X145741500Y-90233629D01*
X145721498Y-90301750D01*
X145704595Y-90322724D01*
X121339814Y-114687505D01*
X121277502Y-114721531D01*
X121200074Y-114713783D01*
X121181945Y-114705825D01*
X120918566Y-114630800D01*
X120914324Y-114630196D01*
X120914318Y-114630195D01*
X120713834Y-114601662D01*
X120647443Y-114592213D01*
X120503589Y-114591460D01*
X120377877Y-114590802D01*
X120377871Y-114590802D01*
X120373591Y-114590780D01*
X120369347Y-114591339D01*
X120369343Y-114591339D01*
X120250302Y-114607011D01*
X120102078Y-114626525D01*
X120097938Y-114627658D01*
X120097936Y-114627658D01*
X120025008Y-114647609D01*
X119837928Y-114698788D01*
X119833980Y-114700472D01*
X119589982Y-114804546D01*
X119589978Y-114804548D01*
X119586030Y-114806232D01*
X119511179Y-114851029D01*
X119354725Y-114944664D01*
X119354721Y-114944667D01*
X119351043Y-114946868D01*
X119137318Y-115118094D01*
X118948808Y-115316742D01*
X118789002Y-115539136D01*
X118660857Y-115781161D01*
X118659385Y-115785184D01*
X118659383Y-115785188D01*
X118638776Y-115841500D01*
X118566743Y-116038337D01*
X118508404Y-116305907D01*
X118486917Y-116578918D01*
X117758500Y-116578918D01*
X117758500Y-111966371D01*
X117778502Y-111898250D01*
X117795405Y-111877276D01*
X122077276Y-107595405D01*
X122139588Y-107561379D01*
X122166371Y-107558500D01*
X123698134Y-107558500D01*
X123760316Y-107551745D01*
X123896705Y-107500615D01*
X124013261Y-107413261D01*
X124100615Y-107296705D01*
X124151745Y-107160316D01*
X124158500Y-107098134D01*
X124158500Y-105301866D01*
X124151745Y-105239684D01*
X124100615Y-105103295D01*
X124013261Y-104986739D01*
X123896705Y-104899385D01*
X123760316Y-104848255D01*
X123698134Y-104841500D01*
X121101866Y-104841500D01*
X121039684Y-104848255D01*
X120903295Y-104899385D01*
X120786739Y-104986739D01*
X120699385Y-105103295D01*
X120648255Y-105239684D01*
X120641500Y-105301866D01*
X120641500Y-106833629D01*
X120621498Y-106901750D01*
X120604595Y-106922724D01*
X120373595Y-107153724D01*
X120311283Y-107187750D01*
X120240468Y-107182685D01*
X120183632Y-107140138D01*
X120158821Y-107073618D01*
X120158500Y-107064629D01*
X120158500Y-105301866D01*
X120151745Y-105239684D01*
X120100615Y-105103295D01*
X120013261Y-104986739D01*
X119896705Y-104899385D01*
X119760316Y-104848255D01*
X119698134Y-104841500D01*
X117101866Y-104841500D01*
X117039684Y-104848255D01*
X116903295Y-104899385D01*
X116786739Y-104986739D01*
X116699385Y-105103295D01*
X116648255Y-105239684D01*
X116641500Y-105301866D01*
X116641500Y-106833629D01*
X116621498Y-106901750D01*
X116604595Y-106922724D01*
X113711089Y-109816230D01*
X113696677Y-109828616D01*
X113685082Y-109837149D01*
X113685077Y-109837154D01*
X113679182Y-109841492D01*
X113674443Y-109847070D01*
X113674440Y-109847073D01*
X113644965Y-109881768D01*
X113638035Y-109889284D01*
X113632340Y-109894979D01*
X113630060Y-109897861D01*
X113614719Y-109917251D01*
X113611928Y-109920655D01*
X113569409Y-109970703D01*
X113564667Y-109976285D01*
X113561339Y-109982801D01*
X113557972Y-109987850D01*
X113554805Y-109992979D01*
X113550266Y-109998716D01*
X113519345Y-110064875D01*
X113517442Y-110068769D01*
X113484231Y-110133808D01*
X113482492Y-110140916D01*
X113480393Y-110146559D01*
X113478476Y-110152322D01*
X113475378Y-110158950D01*
X113473888Y-110166112D01*
X113473888Y-110166113D01*
X113460514Y-110230412D01*
X113459544Y-110234696D01*
X113442192Y-110305610D01*
X113441500Y-110316764D01*
X113441464Y-110316762D01*
X113441225Y-110320755D01*
X113440851Y-110324947D01*
X113439360Y-110332115D01*
X113439558Y-110339432D01*
X113441454Y-110409521D01*
X113441500Y-110412928D01*
X113441500Y-118633629D01*
X113421498Y-118701750D01*
X113404595Y-118722724D01*
X111222724Y-120904595D01*
X111160412Y-120938621D01*
X111133629Y-120941500D01*
X100866371Y-120941500D01*
X100798250Y-120921498D01*
X100777276Y-120904595D01*
X98270125Y-118397444D01*
X98239387Y-118347285D01*
X98200859Y-118228707D01*
X98184527Y-118178444D01*
X98089040Y-118013056D01*
X97961253Y-117871134D01*
X97806752Y-117758882D01*
X97800724Y-117756198D01*
X97800722Y-117756197D01*
X97638319Y-117683891D01*
X97638318Y-117683891D01*
X97632288Y-117681206D01*
X97625833Y-117679834D01*
X97625824Y-117679831D01*
X97569228Y-117667801D01*
X97506331Y-117633650D01*
X91983770Y-112111089D01*
X91971384Y-112096677D01*
X91962851Y-112085082D01*
X91962846Y-112085077D01*
X91958508Y-112079182D01*
X91952930Y-112074443D01*
X91952927Y-112074440D01*
X91918232Y-112044965D01*
X91910716Y-112038035D01*
X91905021Y-112032340D01*
X91898880Y-112027482D01*
X91882749Y-112014719D01*
X91879345Y-112011928D01*
X91829297Y-111969409D01*
X91829295Y-111969408D01*
X91823715Y-111964667D01*
X91817199Y-111961339D01*
X91812150Y-111957972D01*
X91807021Y-111954805D01*
X91801284Y-111950266D01*
X91735125Y-111919345D01*
X91731225Y-111917439D01*
X91724845Y-111914181D01*
X91666192Y-111884231D01*
X91659084Y-111882492D01*
X91653441Y-111880393D01*
X91647678Y-111878476D01*
X91641050Y-111875378D01*
X91569583Y-111860513D01*
X91565299Y-111859543D01*
X91494390Y-111842192D01*
X91488788Y-111841844D01*
X91488785Y-111841844D01*
X91483236Y-111841500D01*
X91483238Y-111841464D01*
X91479245Y-111841225D01*
X91475053Y-111840851D01*
X91467885Y-111839360D01*
X91401675Y-111841151D01*
X91390479Y-111841454D01*
X91387072Y-111841500D01*
X77584500Y-111841500D01*
X77516379Y-111821498D01*
X77469886Y-111767842D01*
X77458500Y-111715500D01*
X77458500Y-111301866D01*
X77451745Y-111239684D01*
X77400615Y-111103295D01*
X77313261Y-110986739D01*
X77196705Y-110899385D01*
X77060316Y-110848255D01*
X76998134Y-110841500D01*
X75201866Y-110841500D01*
X75139684Y-110848255D01*
X75003295Y-110899385D01*
X74886739Y-110986739D01*
X74799385Y-111103295D01*
X74748255Y-111239684D01*
X74741500Y-111301866D01*
X74741500Y-113898134D01*
X72692911Y-113898134D01*
X72684967Y-107578918D01*
X82686917Y-107578918D01*
X82702682Y-107852320D01*
X82703507Y-107856525D01*
X82703508Y-107856533D01*
X82714127Y-107910657D01*
X82755405Y-108121053D01*
X82756792Y-108125103D01*
X82756793Y-108125108D01*
X82777605Y-108185895D01*
X82844112Y-108380144D01*
X82967160Y-108624799D01*
X82969586Y-108628328D01*
X82969589Y-108628334D01*
X83119843Y-108846953D01*
X83122274Y-108850490D01*
X83306582Y-109053043D01*
X83516675Y-109228707D01*
X83520316Y-109230991D01*
X83745024Y-109371951D01*
X83745028Y-109371953D01*
X83748664Y-109374234D01*
X83816544Y-109404883D01*
X83994345Y-109485164D01*
X83994349Y-109485166D01*
X83998257Y-109486930D01*
X84002377Y-109488150D01*
X84002376Y-109488150D01*
X84256723Y-109563491D01*
X84256727Y-109563492D01*
X84260836Y-109564709D01*
X84265070Y-109565357D01*
X84265075Y-109565358D01*
X84527298Y-109605483D01*
X84527300Y-109605483D01*
X84531540Y-109606132D01*
X84670912Y-109608322D01*
X84801071Y-109610367D01*
X84801077Y-109610367D01*
X84805362Y-109610434D01*
X85077235Y-109577534D01*
X85342127Y-109508041D01*
X85346087Y-109506401D01*
X85346092Y-109506399D01*
X85468632Y-109455641D01*
X85595136Y-109403241D01*
X85831582Y-109265073D01*
X86047089Y-109096094D01*
X86088809Y-109053043D01*
X86234686Y-108902509D01*
X86237669Y-108899431D01*
X86240202Y-108895983D01*
X86240206Y-108895978D01*
X86397257Y-108682178D01*
X86399795Y-108678723D01*
X86427154Y-108628334D01*
X86528418Y-108441830D01*
X86528419Y-108441828D01*
X86530468Y-108438054D01*
X86627269Y-108181877D01*
X86688407Y-107914933D01*
X86701609Y-107767012D01*
X86712531Y-107644627D01*
X86712531Y-107644625D01*
X86712751Y-107642161D01*
X86713193Y-107600000D01*
X86711756Y-107578918D01*
X86694859Y-107331055D01*
X86694858Y-107331049D01*
X86694567Y-107326778D01*
X86689509Y-107302351D01*
X86665775Y-107187750D01*
X86639032Y-107058612D01*
X86547617Y-106800465D01*
X86422013Y-106557112D01*
X86412040Y-106542921D01*
X86267008Y-106336562D01*
X86264545Y-106333057D01*
X86078125Y-106132445D01*
X86074810Y-106129731D01*
X86074806Y-106129728D01*
X85869523Y-105961706D01*
X85866205Y-105958990D01*
X85632704Y-105815901D01*
X85628768Y-105814173D01*
X85533854Y-105772508D01*
X85479518Y-105726812D01*
X85458500Y-105657135D01*
X85458500Y-95944028D01*
X85478502Y-95875907D01*
X85536281Y-95827620D01*
X85595136Y-95803241D01*
X85831582Y-95665073D01*
X86047089Y-95496094D01*
X86079345Y-95462809D01*
X86234686Y-95302509D01*
X86237669Y-95299431D01*
X86240202Y-95295983D01*
X86240206Y-95295978D01*
X86397257Y-95082178D01*
X86399795Y-95078723D01*
X86427154Y-95028334D01*
X86528418Y-94841830D01*
X86528419Y-94841828D01*
X86530468Y-94838054D01*
X86627269Y-94581877D01*
X86688407Y-94314933D01*
X86697912Y-94208439D01*
X86712531Y-94044627D01*
X86712531Y-94044625D01*
X86712751Y-94042161D01*
X86713193Y-94000000D01*
X86713024Y-93997519D01*
X86694859Y-93731055D01*
X86694858Y-93731049D01*
X86694567Y-93726778D01*
X86639032Y-93458612D01*
X86547617Y-93200465D01*
X86422013Y-92957112D01*
X86412040Y-92942921D01*
X86267008Y-92736562D01*
X86264545Y-92733057D01*
X86078125Y-92532445D01*
X86074810Y-92529731D01*
X86074806Y-92529728D01*
X85869523Y-92361706D01*
X85866205Y-92358990D01*
X85632704Y-92215901D01*
X85628768Y-92214173D01*
X85385873Y-92107549D01*
X85385869Y-92107548D01*
X85381945Y-92105825D01*
X85118566Y-92030800D01*
X85114324Y-92030196D01*
X85114318Y-92030195D01*
X84913834Y-92001662D01*
X84847443Y-91992213D01*
X84703589Y-91991460D01*
X84577877Y-91990802D01*
X84577871Y-91990802D01*
X84573591Y-91990780D01*
X84569347Y-91991339D01*
X84569343Y-91991339D01*
X84450302Y-92007011D01*
X84302078Y-92026525D01*
X84297938Y-92027658D01*
X84297936Y-92027658D01*
X84225008Y-92047609D01*
X84037928Y-92098788D01*
X84033980Y-92100472D01*
X83789982Y-92204546D01*
X83789978Y-92204548D01*
X83786030Y-92206232D01*
X83766125Y-92218145D01*
X83554725Y-92344664D01*
X83554721Y-92344667D01*
X83551043Y-92346868D01*
X83337318Y-92518094D01*
X83148808Y-92716742D01*
X82989002Y-92939136D01*
X82860857Y-93181161D01*
X82859385Y-93185184D01*
X82859383Y-93185188D01*
X82789180Y-93377026D01*
X82766743Y-93438337D01*
X82708404Y-93705907D01*
X82686917Y-93978918D01*
X82702682Y-94252320D01*
X82703507Y-94256525D01*
X82703508Y-94256533D01*
X82733917Y-94411526D01*
X82755405Y-94521053D01*
X82756792Y-94525103D01*
X82756793Y-94525108D01*
X82823596Y-94720222D01*
X82844112Y-94780144D01*
X82967160Y-95024799D01*
X82969586Y-95028328D01*
X82969589Y-95028334D01*
X83061741Y-95162415D01*
X83122274Y-95250490D01*
X83306582Y-95453043D01*
X83516675Y-95628707D01*
X83520316Y-95630991D01*
X83745024Y-95771951D01*
X83745028Y-95771953D01*
X83748664Y-95774234D01*
X83867352Y-95827824D01*
X83921205Y-95874086D01*
X83941500Y-95942660D01*
X83941500Y-105656679D01*
X83921498Y-105724800D01*
X83864935Y-105772576D01*
X83789982Y-105804546D01*
X83789978Y-105804548D01*
X83786030Y-105806232D01*
X83766125Y-105818145D01*
X83554725Y-105944664D01*
X83554721Y-105944667D01*
X83551043Y-105946868D01*
X83337318Y-106118094D01*
X83148808Y-106316742D01*
X82989002Y-106539136D01*
X82860857Y-106781161D01*
X82859385Y-106785184D01*
X82859383Y-106785188D01*
X82852314Y-106804506D01*
X82766743Y-107038337D01*
X82708404Y-107305907D01*
X82686917Y-107578918D01*
X72684967Y-107578918D01*
X72648254Y-78373349D01*
X77336801Y-78373349D01*
X77337394Y-78380641D01*
X77337394Y-78380644D01*
X77341085Y-78426018D01*
X77341500Y-78436233D01*
X77341500Y-78444293D01*
X77341925Y-78447937D01*
X77344789Y-78472507D01*
X77345222Y-78476882D01*
X77351140Y-78549637D01*
X77353396Y-78556601D01*
X77354587Y-78562560D01*
X77355971Y-78568415D01*
X77356818Y-78575681D01*
X77381735Y-78644327D01*
X77383152Y-78648455D01*
X77405649Y-78717899D01*
X77409445Y-78724154D01*
X77411951Y-78729628D01*
X77414670Y-78735058D01*
X77417167Y-78741937D01*
X77421180Y-78748057D01*
X77421180Y-78748058D01*
X77457186Y-78802976D01*
X77459523Y-78806680D01*
X77497405Y-78869107D01*
X77501121Y-78873315D01*
X77501122Y-78873316D01*
X77504803Y-78877484D01*
X77504776Y-78877508D01*
X77507429Y-78880500D01*
X77510132Y-78883733D01*
X77514144Y-78889852D01*
X77519456Y-78894884D01*
X77570383Y-78943128D01*
X77572825Y-78945506D01*
X82789955Y-84162636D01*
X82823981Y-84224948D01*
X82819186Y-84295032D01*
X82766743Y-84438337D01*
X82708404Y-84705907D01*
X82686917Y-84978918D01*
X82702682Y-85252320D01*
X82703507Y-85256525D01*
X82703508Y-85256533D01*
X82733917Y-85411526D01*
X82755405Y-85521053D01*
X82756792Y-85525103D01*
X82756793Y-85525108D01*
X82823596Y-85720222D01*
X82844112Y-85780144D01*
X82967160Y-86024799D01*
X82969586Y-86028328D01*
X82969589Y-86028334D01*
X83090670Y-86204506D01*
X83122274Y-86250490D01*
X83306582Y-86453043D01*
X83516675Y-86628707D01*
X83520316Y-86630991D01*
X83745024Y-86771951D01*
X83745028Y-86771953D01*
X83748664Y-86774234D01*
X83816544Y-86804883D01*
X83994345Y-86885164D01*
X83994349Y-86885166D01*
X83998257Y-86886930D01*
X84002377Y-86888150D01*
X84002376Y-86888150D01*
X84256723Y-86963491D01*
X84256727Y-86963492D01*
X84260836Y-86964709D01*
X84265070Y-86965357D01*
X84265075Y-86965358D01*
X84527298Y-87005483D01*
X84527300Y-87005483D01*
X84531540Y-87006132D01*
X84670912Y-87008322D01*
X84801071Y-87010367D01*
X84801077Y-87010367D01*
X84805362Y-87010434D01*
X85077235Y-86977534D01*
X85342127Y-86908041D01*
X85346087Y-86906401D01*
X85346092Y-86906399D01*
X85468631Y-86855641D01*
X85595136Y-86803241D01*
X85831582Y-86665073D01*
X86047089Y-86496094D01*
X86079345Y-86462809D01*
X86234686Y-86302509D01*
X86237669Y-86299431D01*
X86240202Y-86295983D01*
X86240206Y-86295978D01*
X86397257Y-86082178D01*
X86399795Y-86078723D01*
X86427154Y-86028334D01*
X86528418Y-85841830D01*
X86528419Y-85841828D01*
X86530468Y-85838054D01*
X86627269Y-85581877D01*
X86678317Y-85358990D01*
X86687449Y-85319117D01*
X86687450Y-85319113D01*
X86688407Y-85314933D01*
X86697246Y-85215901D01*
X86712531Y-85044627D01*
X86712531Y-85044625D01*
X86712751Y-85042161D01*
X86713193Y-85000000D01*
X86713024Y-84997519D01*
X86694859Y-84731055D01*
X86694858Y-84731049D01*
X86694567Y-84726778D01*
X86639032Y-84458612D01*
X86547617Y-84200465D01*
X86422013Y-83957112D01*
X86264545Y-83733057D01*
X86078125Y-83532445D01*
X86074810Y-83529731D01*
X86074806Y-83529728D01*
X85869523Y-83361706D01*
X85866205Y-83358990D01*
X85632704Y-83215901D01*
X85403195Y-83115153D01*
X85385873Y-83107549D01*
X85385869Y-83107548D01*
X85381945Y-83105825D01*
X85118566Y-83030800D01*
X85114324Y-83030196D01*
X85114318Y-83030195D01*
X84913834Y-83001662D01*
X84847443Y-82992213D01*
X84703589Y-82991460D01*
X84577877Y-82990802D01*
X84577871Y-82990802D01*
X84573591Y-82990780D01*
X84569347Y-82991339D01*
X84569343Y-82991339D01*
X84450302Y-83007011D01*
X84302078Y-83026525D01*
X84297938Y-83027658D01*
X84297936Y-83027658D01*
X84225008Y-83047609D01*
X84037928Y-83098788D01*
X83999561Y-83115153D01*
X83929056Y-83123482D01*
X83861032Y-83088351D01*
X78895405Y-78122724D01*
X78861379Y-78060412D01*
X78858500Y-78033629D01*
X78858500Y-75648134D01*
X80891500Y-75648134D01*
X80898255Y-75710316D01*
X80949385Y-75846705D01*
X81036739Y-75963261D01*
X81153295Y-76050615D01*
X81289684Y-76101745D01*
X81351866Y-76108500D01*
X83448134Y-76108500D01*
X83510316Y-76101745D01*
X83646705Y-76050615D01*
X83763261Y-75963261D01*
X83850615Y-75846705D01*
X83901745Y-75710316D01*
X83908500Y-75648134D01*
X83908500Y-75644669D01*
X86692001Y-75644669D01*
X86692371Y-75651490D01*
X86697895Y-75702352D01*
X86701521Y-75717604D01*
X86746676Y-75838054D01*
X86755214Y-75853649D01*
X86831715Y-75955724D01*
X86844276Y-75968285D01*
X86946351Y-76044786D01*
X86961946Y-76053324D01*
X87082394Y-76098478D01*
X87097649Y-76102105D01*
X87148514Y-76107631D01*
X87155328Y-76108000D01*
X87927885Y-76108000D01*
X87943124Y-76103525D01*
X87944329Y-76102135D01*
X87946000Y-76094452D01*
X87946000Y-76089884D01*
X88454000Y-76089884D01*
X88458475Y-76105123D01*
X88459865Y-76106328D01*
X88467548Y-76107999D01*
X89244669Y-76107999D01*
X89251490Y-76107629D01*
X89302352Y-76102105D01*
X89317604Y-76098479D01*
X89438054Y-76053324D01*
X89453649Y-76044786D01*
X89555724Y-75968285D01*
X89568285Y-75955724D01*
X89644786Y-75853649D01*
X89653324Y-75838054D01*
X89698478Y-75717606D01*
X89702105Y-75702351D01*
X89707631Y-75651486D01*
X89708000Y-75644672D01*
X89708000Y-74989654D01*
X145275618Y-74989654D01*
X145282673Y-74999627D01*
X145313679Y-75025551D01*
X145320598Y-75030579D01*
X145545272Y-75171515D01*
X145552807Y-75175556D01*
X145794520Y-75284694D01*
X145802551Y-75287680D01*
X146056832Y-75363002D01*
X146065184Y-75364869D01*
X146327340Y-75404984D01*
X146335874Y-75405700D01*
X146601045Y-75409867D01*
X146609596Y-75409418D01*
X146872883Y-75377557D01*
X146881284Y-75375955D01*
X147137824Y-75308653D01*
X147145926Y-75305926D01*
X147390949Y-75204434D01*
X147398617Y-75200628D01*
X147627598Y-75066822D01*
X147634679Y-75062009D01*
X147714655Y-74999301D01*
X147723125Y-74987442D01*
X147716608Y-74975818D01*
X146512812Y-73772022D01*
X146498868Y-73764408D01*
X146497035Y-73764539D01*
X146490420Y-73768790D01*
X145282910Y-74976300D01*
X145275618Y-74989654D01*
X89708000Y-74989654D01*
X89708000Y-74872115D01*
X89703525Y-74856876D01*
X89702135Y-74855671D01*
X89694452Y-74854000D01*
X88472115Y-74854000D01*
X88456876Y-74858475D01*
X88455671Y-74859865D01*
X88454000Y-74867548D01*
X88454000Y-76089884D01*
X87946000Y-76089884D01*
X87946000Y-74872115D01*
X87941525Y-74856876D01*
X87940135Y-74855671D01*
X87932452Y-74854000D01*
X86710116Y-74854000D01*
X86694877Y-74858475D01*
X86693672Y-74859865D01*
X86692001Y-74867548D01*
X86692001Y-75644669D01*
X83908500Y-75644669D01*
X83908500Y-74327885D01*
X86692000Y-74327885D01*
X86696475Y-74343124D01*
X86697865Y-74344329D01*
X86705548Y-74346000D01*
X87927885Y-74346000D01*
X87943124Y-74341525D01*
X87944329Y-74340135D01*
X87946000Y-74332452D01*
X87946000Y-74327885D01*
X88454000Y-74327885D01*
X88458475Y-74343124D01*
X88459865Y-74344329D01*
X88467548Y-74346000D01*
X89689884Y-74346000D01*
X89705123Y-74341525D01*
X89706328Y-74340135D01*
X89707999Y-74332452D01*
X89707999Y-73555331D01*
X89707629Y-73548510D01*
X89702105Y-73497648D01*
X89698479Y-73482396D01*
X89661293Y-73383204D01*
X144487665Y-73383204D01*
X144502932Y-73647969D01*
X144504005Y-73656470D01*
X144555065Y-73916722D01*
X144557276Y-73924974D01*
X144643184Y-74175894D01*
X144646499Y-74183779D01*
X144765664Y-74420713D01*
X144770020Y-74428079D01*
X144899347Y-74616250D01*
X144909601Y-74624594D01*
X144923342Y-74617448D01*
X146127978Y-73412812D01*
X146134356Y-73401132D01*
X146864408Y-73401132D01*
X146864539Y-73402965D01*
X146868790Y-73409580D01*
X148075730Y-74616520D01*
X148087939Y-74623187D01*
X148099439Y-74614497D01*
X148196831Y-74481913D01*
X148201418Y-74474685D01*
X148327962Y-74241621D01*
X148331530Y-74233827D01*
X148425271Y-73985750D01*
X148427748Y-73977544D01*
X148486954Y-73719038D01*
X148488294Y-73710577D01*
X148512031Y-73444616D01*
X148512277Y-73439677D01*
X148512666Y-73402485D01*
X148512523Y-73397519D01*
X148494362Y-73131123D01*
X148493201Y-73122649D01*
X148439419Y-72862944D01*
X148437120Y-72854709D01*
X148348588Y-72604705D01*
X148345191Y-72596854D01*
X148223550Y-72361178D01*
X148219122Y-72353866D01*
X148100031Y-72184417D01*
X148089509Y-72176037D01*
X148076121Y-72183089D01*
X146872022Y-73387188D01*
X146864408Y-73401132D01*
X146134356Y-73401132D01*
X146135592Y-73398868D01*
X146135461Y-73397035D01*
X146131210Y-73390420D01*
X144923814Y-72183024D01*
X144911804Y-72176466D01*
X144900064Y-72185434D01*
X144791935Y-72335911D01*
X144787418Y-72343196D01*
X144663325Y-72577567D01*
X144659839Y-72585395D01*
X144568700Y-72834446D01*
X144566311Y-72842670D01*
X144509812Y-73101795D01*
X144508563Y-73110250D01*
X144487754Y-73374653D01*
X144487665Y-73383204D01*
X89661293Y-73383204D01*
X89653324Y-73361946D01*
X89644786Y-73346351D01*
X89568285Y-73244276D01*
X89555724Y-73231715D01*
X89453649Y-73155214D01*
X89438054Y-73146676D01*
X89317606Y-73101522D01*
X89302351Y-73097895D01*
X89251486Y-73092369D01*
X89244672Y-73092000D01*
X88472115Y-73092000D01*
X88456876Y-73096475D01*
X88455671Y-73097865D01*
X88454000Y-73105548D01*
X88454000Y-74327885D01*
X87946000Y-74327885D01*
X87946000Y-73110116D01*
X87941525Y-73094877D01*
X87940135Y-73093672D01*
X87932452Y-73092001D01*
X87155331Y-73092001D01*
X87148510Y-73092371D01*
X87097648Y-73097895D01*
X87082396Y-73101521D01*
X86961946Y-73146676D01*
X86946351Y-73155214D01*
X86844276Y-73231715D01*
X86831715Y-73244276D01*
X86755214Y-73346351D01*
X86746676Y-73361946D01*
X86701522Y-73482394D01*
X86697895Y-73497649D01*
X86692369Y-73548514D01*
X86692000Y-73555328D01*
X86692000Y-74327885D01*
X83908500Y-74327885D01*
X83908500Y-73551866D01*
X83901745Y-73489684D01*
X83850615Y-73353295D01*
X83763261Y-73236739D01*
X83646705Y-73149385D01*
X83510316Y-73098255D01*
X83448134Y-73091500D01*
X81351866Y-73091500D01*
X81289684Y-73098255D01*
X81153295Y-73149385D01*
X81036739Y-73236739D01*
X80949385Y-73353295D01*
X80898255Y-73489684D01*
X80891500Y-73551866D01*
X80891500Y-75648134D01*
X78858500Y-75648134D01*
X78858500Y-71812500D01*
X145276584Y-71812500D01*
X145282980Y-71823770D01*
X146487188Y-73027978D01*
X146501132Y-73035592D01*
X146502965Y-73035461D01*
X146509580Y-73031210D01*
X147716604Y-71824186D01*
X147723795Y-71811017D01*
X147716473Y-71800780D01*
X147669233Y-71762115D01*
X147662261Y-71757160D01*
X147436122Y-71618582D01*
X147428552Y-71614624D01*
X147185704Y-71508022D01*
X147177644Y-71505120D01*
X146922592Y-71432467D01*
X146914214Y-71430685D01*
X146651656Y-71393318D01*
X146643111Y-71392691D01*
X146377908Y-71391302D01*
X146369374Y-71391839D01*
X146106433Y-71426456D01*
X146098035Y-71428149D01*
X145842238Y-71498127D01*
X145834143Y-71500946D01*
X145590199Y-71604997D01*
X145582577Y-71608881D01*
X145355013Y-71745075D01*
X145347981Y-71749962D01*
X145285053Y-71800377D01*
X145276584Y-71812500D01*
X78858500Y-71812500D01*
X78858500Y-70066371D01*
X78878502Y-69998250D01*
X78895405Y-69977276D01*
X82883027Y-65989654D01*
X109475618Y-65989654D01*
X109482673Y-65999627D01*
X109513679Y-66025551D01*
X109520598Y-66030579D01*
X109745272Y-66171515D01*
X109752807Y-66175556D01*
X109994520Y-66284694D01*
X110002551Y-66287680D01*
X110256832Y-66363002D01*
X110265184Y-66364869D01*
X110527340Y-66404984D01*
X110535874Y-66405700D01*
X110801045Y-66409867D01*
X110809596Y-66409418D01*
X111072883Y-66377557D01*
X111081284Y-66375955D01*
X111337824Y-66308653D01*
X111345926Y-66305926D01*
X111590949Y-66204434D01*
X111598617Y-66200628D01*
X111827598Y-66066822D01*
X111834679Y-66062009D01*
X111914655Y-65999301D01*
X111923125Y-65987442D01*
X111916608Y-65975818D01*
X110712812Y-64772022D01*
X110698868Y-64764408D01*
X110697035Y-64764539D01*
X110690420Y-64768790D01*
X109482910Y-65976300D01*
X109475618Y-65989654D01*
X82883027Y-65989654D01*
X84489477Y-64383204D01*
X108687665Y-64383204D01*
X108702932Y-64647969D01*
X108704005Y-64656470D01*
X108755065Y-64916722D01*
X108757276Y-64924974D01*
X108843184Y-65175894D01*
X108846499Y-65183779D01*
X108965664Y-65420713D01*
X108970020Y-65428079D01*
X109099347Y-65616250D01*
X109109601Y-65624594D01*
X109123342Y-65617448D01*
X110327978Y-64412812D01*
X110334356Y-64401132D01*
X111064408Y-64401132D01*
X111064539Y-64402965D01*
X111068790Y-64409580D01*
X112275730Y-65616520D01*
X112287939Y-65623187D01*
X112299439Y-65614497D01*
X112396831Y-65481913D01*
X112401418Y-65474685D01*
X112527962Y-65241621D01*
X112531530Y-65233827D01*
X112625271Y-64985750D01*
X112627748Y-64977544D01*
X112686954Y-64719038D01*
X112688294Y-64710577D01*
X112712031Y-64444616D01*
X112712277Y-64439677D01*
X112712666Y-64402485D01*
X112712523Y-64397519D01*
X112694362Y-64131123D01*
X112693201Y-64122649D01*
X112639419Y-63862944D01*
X112637120Y-63854709D01*
X112548588Y-63604705D01*
X112545191Y-63596854D01*
X112423550Y-63361178D01*
X112419122Y-63353866D01*
X112300031Y-63184417D01*
X112289509Y-63176037D01*
X112276121Y-63183089D01*
X111072022Y-64387188D01*
X111064408Y-64401132D01*
X110334356Y-64401132D01*
X110335592Y-64398868D01*
X110335461Y-64397035D01*
X110331210Y-64390420D01*
X109123814Y-63183024D01*
X109111804Y-63176466D01*
X109100064Y-63185434D01*
X108991935Y-63335911D01*
X108987418Y-63343196D01*
X108863325Y-63577567D01*
X108859839Y-63585395D01*
X108768700Y-63834446D01*
X108766311Y-63842670D01*
X108709812Y-64101795D01*
X108708563Y-64110250D01*
X108687754Y-64374653D01*
X108687665Y-64383204D01*
X84489477Y-64383204D01*
X86060181Y-62812500D01*
X109476584Y-62812500D01*
X109482980Y-62823770D01*
X110687188Y-64027978D01*
X110701132Y-64035592D01*
X110702965Y-64035461D01*
X110709580Y-64031210D01*
X111916604Y-62824186D01*
X111923795Y-62811017D01*
X111916473Y-62800780D01*
X111869233Y-62762115D01*
X111862261Y-62757160D01*
X111636122Y-62618582D01*
X111628552Y-62614624D01*
X111385704Y-62508022D01*
X111377644Y-62505120D01*
X111122592Y-62432467D01*
X111114214Y-62430685D01*
X110851656Y-62393318D01*
X110843111Y-62392691D01*
X110577908Y-62391302D01*
X110569374Y-62391839D01*
X110306433Y-62426456D01*
X110298035Y-62428149D01*
X110042238Y-62498127D01*
X110034143Y-62500946D01*
X109790199Y-62604997D01*
X109782577Y-62608881D01*
X109555013Y-62745075D01*
X109547981Y-62749962D01*
X109485053Y-62800377D01*
X109476584Y-62812500D01*
X86060181Y-62812500D01*
X92677276Y-56195405D01*
X92739588Y-56161379D01*
X92766371Y-56158500D01*
X108755559Y-56158500D01*
X108823680Y-56178502D01*
X108868123Y-56227885D01*
X108967160Y-56424799D01*
X108969586Y-56428328D01*
X108969589Y-56428334D01*
X109119843Y-56646953D01*
X109122274Y-56650490D01*
X109306582Y-56853043D01*
X109516675Y-57028707D01*
X109520316Y-57030991D01*
X109745024Y-57171951D01*
X109745028Y-57171953D01*
X109748664Y-57174234D01*
X109816544Y-57204883D01*
X109994345Y-57285164D01*
X109994349Y-57285166D01*
X109998257Y-57286930D01*
X110002377Y-57288150D01*
X110002376Y-57288150D01*
X110256723Y-57363491D01*
X110256727Y-57363492D01*
X110260836Y-57364709D01*
X110265070Y-57365357D01*
X110265075Y-57365358D01*
X110527298Y-57405483D01*
X110527300Y-57405483D01*
X110531540Y-57406132D01*
X110670912Y-57408322D01*
X110801071Y-57410367D01*
X110801077Y-57410367D01*
X110805362Y-57410434D01*
X111077235Y-57377534D01*
X111342127Y-57308041D01*
X111346087Y-57306401D01*
X111346092Y-57306399D01*
X111468632Y-57255641D01*
X111595136Y-57203241D01*
X111831582Y-57065073D01*
X112047089Y-56896094D01*
X112088809Y-56853043D01*
X112234686Y-56702509D01*
X112237669Y-56699431D01*
X112240202Y-56695983D01*
X112240206Y-56695978D01*
X112397257Y-56482178D01*
X112399795Y-56478723D01*
X112427154Y-56428334D01*
X112528418Y-56241830D01*
X112528419Y-56241828D01*
X112530468Y-56238054D01*
X112617209Y-56008500D01*
X112625751Y-55985895D01*
X112625752Y-55985891D01*
X112627269Y-55981877D01*
X112656162Y-55855724D01*
X112687449Y-55719117D01*
X112687450Y-55719113D01*
X112688407Y-55714933D01*
X112697084Y-55617715D01*
X112703294Y-55548134D01*
X128991500Y-55548134D01*
X128998255Y-55610316D01*
X129049385Y-55746705D01*
X129136739Y-55863261D01*
X129253295Y-55950615D01*
X129389684Y-56001745D01*
X129451866Y-56008500D01*
X131548134Y-56008500D01*
X131610316Y-56001745D01*
X131746705Y-55950615D01*
X131863261Y-55863261D01*
X131950615Y-55746705D01*
X132001745Y-55610316D01*
X132008500Y-55548134D01*
X132008500Y-55544669D01*
X136992001Y-55544669D01*
X136992371Y-55551490D01*
X136997895Y-55602352D01*
X137001521Y-55617604D01*
X137046676Y-55738054D01*
X137055214Y-55753649D01*
X137131715Y-55855724D01*
X137144276Y-55868285D01*
X137246351Y-55944786D01*
X137261946Y-55953324D01*
X137382394Y-55998478D01*
X137397649Y-56002105D01*
X137448514Y-56007631D01*
X137455328Y-56008000D01*
X138227885Y-56008000D01*
X138243124Y-56003525D01*
X138244329Y-56002135D01*
X138246000Y-55994452D01*
X138246000Y-55989884D01*
X138754000Y-55989884D01*
X138758475Y-56005123D01*
X138759865Y-56006328D01*
X138767548Y-56007999D01*
X139544669Y-56007999D01*
X139551490Y-56007629D01*
X139602352Y-56002105D01*
X139617604Y-55998479D01*
X139738054Y-55953324D01*
X139753649Y-55944786D01*
X139855724Y-55868285D01*
X139868285Y-55855724D01*
X139944786Y-55753649D01*
X139953324Y-55738054D01*
X139998478Y-55617606D01*
X140002105Y-55602351D01*
X140007631Y-55551486D01*
X140008000Y-55544672D01*
X140008000Y-54772115D01*
X140003525Y-54756876D01*
X140002135Y-54755671D01*
X139994452Y-54754000D01*
X138772115Y-54754000D01*
X138756876Y-54758475D01*
X138755671Y-54759865D01*
X138754000Y-54767548D01*
X138754000Y-55989884D01*
X138246000Y-55989884D01*
X138246000Y-54772115D01*
X138241525Y-54756876D01*
X138240135Y-54755671D01*
X138232452Y-54754000D01*
X137010116Y-54754000D01*
X136994877Y-54758475D01*
X136993672Y-54759865D01*
X136992001Y-54767548D01*
X136992001Y-55544669D01*
X132008500Y-55544669D01*
X132008500Y-54227885D01*
X136992000Y-54227885D01*
X136996475Y-54243124D01*
X136997865Y-54244329D01*
X137005548Y-54246000D01*
X138227885Y-54246000D01*
X138243124Y-54241525D01*
X138244329Y-54240135D01*
X138246000Y-54232452D01*
X138246000Y-54227885D01*
X138754000Y-54227885D01*
X138758475Y-54243124D01*
X138759865Y-54244329D01*
X138767548Y-54246000D01*
X139989884Y-54246000D01*
X140005123Y-54241525D01*
X140006328Y-54240135D01*
X140007999Y-54232452D01*
X140007999Y-53455331D01*
X140007629Y-53448510D01*
X140002105Y-53397648D01*
X139998479Y-53382396D01*
X139953324Y-53261946D01*
X139944786Y-53246351D01*
X139868285Y-53144276D01*
X139855724Y-53131715D01*
X139753649Y-53055214D01*
X139738054Y-53046676D01*
X139617606Y-53001522D01*
X139602351Y-52997895D01*
X139551486Y-52992369D01*
X139544672Y-52992000D01*
X138772115Y-52992000D01*
X138756876Y-52996475D01*
X138755671Y-52997865D01*
X138754000Y-53005548D01*
X138754000Y-54227885D01*
X138246000Y-54227885D01*
X138246000Y-53010116D01*
X138241525Y-52994877D01*
X138240135Y-52993672D01*
X138232452Y-52992001D01*
X137455331Y-52992001D01*
X137448510Y-52992371D01*
X137397648Y-52997895D01*
X137382396Y-53001521D01*
X137261946Y-53046676D01*
X137246351Y-53055214D01*
X137144276Y-53131715D01*
X137131715Y-53144276D01*
X137055214Y-53246351D01*
X137046676Y-53261946D01*
X137001522Y-53382394D01*
X136997895Y-53397649D01*
X136992369Y-53448514D01*
X136992000Y-53455328D01*
X136992000Y-54227885D01*
X132008500Y-54227885D01*
X132008500Y-53451866D01*
X132001745Y-53389684D01*
X131950615Y-53253295D01*
X131863261Y-53136739D01*
X131746705Y-53049385D01*
X131610316Y-52998255D01*
X131548134Y-52991500D01*
X129451866Y-52991500D01*
X129389684Y-52998255D01*
X129253295Y-53049385D01*
X129136739Y-53136739D01*
X129049385Y-53253295D01*
X128998255Y-53389684D01*
X128991500Y-53451866D01*
X128991500Y-55548134D01*
X112703294Y-55548134D01*
X112712531Y-55444627D01*
X112712531Y-55444625D01*
X112712751Y-55442161D01*
X112713193Y-55400000D01*
X112694567Y-55126778D01*
X112639032Y-54858612D01*
X112547617Y-54600465D01*
X112422013Y-54357112D01*
X112412040Y-54342921D01*
X112267008Y-54136562D01*
X112264545Y-54133057D01*
X112078125Y-53932445D01*
X112074810Y-53929731D01*
X112074806Y-53929728D01*
X111869523Y-53761706D01*
X111866205Y-53758990D01*
X111632704Y-53615901D01*
X111628768Y-53614173D01*
X111385873Y-53507549D01*
X111385869Y-53507548D01*
X111381945Y-53505825D01*
X111118566Y-53430800D01*
X111114324Y-53430196D01*
X111114318Y-53430195D01*
X110913834Y-53401662D01*
X110847443Y-53392213D01*
X110703589Y-53391460D01*
X110577877Y-53390802D01*
X110577871Y-53390802D01*
X110573591Y-53390780D01*
X110569347Y-53391339D01*
X110569343Y-53391339D01*
X110450302Y-53407011D01*
X110302078Y-53426525D01*
X110297938Y-53427658D01*
X110297936Y-53427658D01*
X110278563Y-53432958D01*
X110037928Y-53498788D01*
X110033980Y-53500472D01*
X109789982Y-53604546D01*
X109789978Y-53604548D01*
X109786030Y-53606232D01*
X109667414Y-53677222D01*
X109554725Y-53744664D01*
X109554721Y-53744667D01*
X109551043Y-53746868D01*
X109337318Y-53918094D01*
X109148808Y-54116742D01*
X108989002Y-54339136D01*
X108986998Y-54342921D01*
X108864406Y-54574459D01*
X108814853Y-54625302D01*
X108753051Y-54641500D01*
X92467070Y-54641500D01*
X92448120Y-54640067D01*
X92433885Y-54637901D01*
X92433881Y-54637901D01*
X92426651Y-54636801D01*
X92419359Y-54637394D01*
X92419356Y-54637394D01*
X92373982Y-54641085D01*
X92363767Y-54641500D01*
X92355707Y-54641500D01*
X92352073Y-54641924D01*
X92352067Y-54641924D01*
X92339042Y-54643443D01*
X92327480Y-54644791D01*
X92323132Y-54645221D01*
X92250364Y-54651140D01*
X92243403Y-54653395D01*
X92237463Y-54654582D01*
X92231588Y-54655971D01*
X92224319Y-54656818D01*
X92155670Y-54681736D01*
X92151542Y-54683153D01*
X92089064Y-54703393D01*
X92089062Y-54703394D01*
X92082101Y-54705649D01*
X92075846Y-54709445D01*
X92070372Y-54711951D01*
X92064942Y-54714670D01*
X92058063Y-54717167D01*
X92051943Y-54721180D01*
X92051942Y-54721180D01*
X91997024Y-54757186D01*
X91993320Y-54759523D01*
X91930893Y-54797405D01*
X91922516Y-54804803D01*
X91922492Y-54804776D01*
X91919500Y-54807429D01*
X91916267Y-54810132D01*
X91910148Y-54814144D01*
X91905116Y-54819456D01*
X91856872Y-54870383D01*
X91854494Y-54872825D01*
X77611089Y-69116230D01*
X77596677Y-69128616D01*
X77585082Y-69137149D01*
X77585077Y-69137154D01*
X77579182Y-69141492D01*
X77574443Y-69147070D01*
X77574440Y-69147073D01*
X77544965Y-69181768D01*
X77538035Y-69189284D01*
X77532340Y-69194979D01*
X77530060Y-69197861D01*
X77514719Y-69217251D01*
X77511928Y-69220655D01*
X77469409Y-69270703D01*
X77464667Y-69276285D01*
X77461339Y-69282801D01*
X77457972Y-69287850D01*
X77454805Y-69292979D01*
X77450266Y-69298716D01*
X77419345Y-69364875D01*
X77417442Y-69368769D01*
X77384231Y-69433808D01*
X77382492Y-69440916D01*
X77380393Y-69446559D01*
X77378476Y-69452322D01*
X77375378Y-69458950D01*
X77373888Y-69466112D01*
X77373888Y-69466113D01*
X77360514Y-69530412D01*
X77359544Y-69534696D01*
X77342192Y-69605610D01*
X77341500Y-69616764D01*
X77341464Y-69616762D01*
X77341225Y-69620755D01*
X77340851Y-69624947D01*
X77339360Y-69632115D01*
X77339558Y-69639432D01*
X77341454Y-69709521D01*
X77341500Y-69712928D01*
X77341500Y-78332930D01*
X77340067Y-78351880D01*
X77336801Y-78373349D01*
X72648254Y-78373349D01*
X72609299Y-47384658D01*
X72629216Y-47316513D01*
X72682813Y-47269952D01*
X72735299Y-47258500D01*
X86946750Y-47258500D01*
X86967655Y-47260246D01*
X86982656Y-47262770D01*
X86982659Y-47262770D01*
X86987448Y-47263576D01*
X86993687Y-47263652D01*
X86995140Y-47263670D01*
X86995143Y-47263670D01*
X87000000Y-47263729D01*
X87004810Y-47263040D01*
X87004812Y-47263040D01*
X87008000Y-47262583D01*
X87010420Y-47262237D01*
X87020668Y-47261195D01*
X87256856Y-47246908D01*
X87256860Y-47246907D01*
X87260654Y-47246678D01*
X87517507Y-47199608D01*
X87766814Y-47121921D01*
X87770284Y-47120359D01*
X87770290Y-47120357D01*
X87885876Y-47068336D01*
X88004938Y-47014750D01*
X88008195Y-47012781D01*
X88008199Y-47012779D01*
X88225155Y-46881624D01*
X88228409Y-46879657D01*
X88304912Y-46819721D01*
X88430963Y-46720966D01*
X88430966Y-46720963D01*
X88433966Y-46718613D01*
X88618613Y-46533966D01*
X88687002Y-46446674D01*
X88777314Y-46331400D01*
X88777316Y-46331397D01*
X88779657Y-46328409D01*
X88831945Y-46241914D01*
X88912779Y-46108199D01*
X88912781Y-46108195D01*
X88914750Y-46104938D01*
X89021921Y-45866814D01*
X89099608Y-45617507D01*
X89146678Y-45360654D01*
X89150961Y-45289849D01*
X89152381Y-45266381D01*
X96199160Y-45266381D01*
X96199237Y-45267470D01*
X96201698Y-45271206D01*
X96475632Y-45481404D01*
X96481262Y-45485259D01*
X96781591Y-45667862D01*
X96787593Y-45671080D01*
X97105897Y-45820184D01*
X97112202Y-45822732D01*
X97444743Y-45936587D01*
X97451313Y-45938446D01*
X97794183Y-46015714D01*
X97800912Y-46016853D01*
X98150143Y-46056643D01*
X98156933Y-46057046D01*
X98508419Y-46058886D01*
X98515220Y-46058554D01*
X98864853Y-46022423D01*
X98871581Y-46021357D01*
X99215274Y-45947676D01*
X99221822Y-45945897D01*
X99555549Y-45835527D01*
X99561891Y-45833041D01*
X99881718Y-45687288D01*
X99887777Y-45684121D01*
X100189995Y-45504676D01*
X100195659Y-45500884D01*
X100476732Y-45289849D01*
X100481958Y-45285464D01*
X100491613Y-45276428D01*
X100497540Y-45266381D01*
X123699160Y-45266381D01*
X123699237Y-45267470D01*
X123701698Y-45271206D01*
X123975632Y-45481404D01*
X123981262Y-45485259D01*
X124281591Y-45667862D01*
X124287593Y-45671080D01*
X124605897Y-45820184D01*
X124612202Y-45822732D01*
X124944743Y-45936587D01*
X124951313Y-45938446D01*
X125294183Y-46015714D01*
X125300912Y-46016853D01*
X125650143Y-46056643D01*
X125656933Y-46057046D01*
X126008419Y-46058886D01*
X126015220Y-46058554D01*
X126364853Y-46022423D01*
X126371581Y-46021357D01*
X126715274Y-45947676D01*
X126721822Y-45945897D01*
X127055549Y-45835527D01*
X127061891Y-45833041D01*
X127381718Y-45687288D01*
X127387777Y-45684121D01*
X127689995Y-45504676D01*
X127695659Y-45500884D01*
X127976732Y-45289849D01*
X127981958Y-45285464D01*
X127991613Y-45276428D01*
X127999682Y-45262750D01*
X127999654Y-45262024D01*
X127994512Y-45253723D01*
X125862810Y-43122020D01*
X125848869Y-43114408D01*
X125847034Y-43114539D01*
X125840420Y-43118790D01*
X123706774Y-45252437D01*
X123699160Y-45266381D01*
X100497540Y-45266381D01*
X100499682Y-45262750D01*
X100499654Y-45262024D01*
X100494512Y-45253723D01*
X98362810Y-43122020D01*
X98348869Y-43114408D01*
X98347034Y-43114539D01*
X98340420Y-43118790D01*
X96206774Y-45252437D01*
X96199160Y-45266381D01*
X89152381Y-45266381D01*
X89160221Y-45136780D01*
X89161736Y-45123491D01*
X89162769Y-45117351D01*
X89162769Y-45117348D01*
X89163576Y-45112552D01*
X89163729Y-45100000D01*
X89159773Y-45072376D01*
X89158500Y-45054514D01*
X89158500Y-42741832D01*
X95037333Y-42741832D01*
X95055117Y-43092893D01*
X95055827Y-43099649D01*
X95111420Y-43446723D01*
X95112859Y-43453378D01*
X95205608Y-43792410D01*
X95207757Y-43798871D01*
X95336581Y-44125912D01*
X95339412Y-44132095D01*
X95502803Y-44443310D01*
X95506286Y-44449152D01*
X95702330Y-44740896D01*
X95706433Y-44746340D01*
X95826425Y-44888836D01*
X95839164Y-44897279D01*
X95849608Y-44891181D01*
X97977980Y-42762810D01*
X97984357Y-42751131D01*
X98714408Y-42751131D01*
X98714539Y-42752966D01*
X98718790Y-42759580D01*
X100849009Y-44889798D01*
X100862605Y-44897223D01*
X100872218Y-44890522D01*
X100972518Y-44773912D01*
X100976676Y-44768514D01*
X101175762Y-44478840D01*
X101179310Y-44473029D01*
X101345942Y-44163559D01*
X101348849Y-44157381D01*
X101481090Y-43831713D01*
X101483304Y-43825283D01*
X101579598Y-43487237D01*
X101581105Y-43480607D01*
X101640332Y-43134118D01*
X101641112Y-43127378D01*
X101662668Y-42774925D01*
X101662784Y-42771323D01*
X101662853Y-42751819D01*
X101662761Y-42748194D01*
X101662416Y-42741832D01*
X122537333Y-42741832D01*
X122555117Y-43092893D01*
X122555827Y-43099649D01*
X122611420Y-43446723D01*
X122612859Y-43453378D01*
X122705608Y-43792410D01*
X122707757Y-43798871D01*
X122836581Y-44125912D01*
X122839412Y-44132095D01*
X123002803Y-44443310D01*
X123006286Y-44449152D01*
X123202330Y-44740896D01*
X123206433Y-44746340D01*
X123326425Y-44888836D01*
X123339164Y-44897279D01*
X123349608Y-44891181D01*
X125477980Y-42762810D01*
X125484357Y-42751131D01*
X126214408Y-42751131D01*
X126214539Y-42752966D01*
X126218790Y-42759580D01*
X128349009Y-44889798D01*
X128362605Y-44897223D01*
X128372218Y-44890522D01*
X128472518Y-44773912D01*
X128476676Y-44768514D01*
X128675762Y-44478840D01*
X128679310Y-44473029D01*
X128845942Y-44163559D01*
X128848849Y-44157381D01*
X128981090Y-43831713D01*
X128983304Y-43825283D01*
X129079598Y-43487237D01*
X129081105Y-43480607D01*
X129140332Y-43134118D01*
X129141112Y-43127378D01*
X129162668Y-42774925D01*
X129162784Y-42771323D01*
X129162853Y-42751819D01*
X129162761Y-42748194D01*
X129143666Y-42395615D01*
X129142931Y-42388849D01*
X129086130Y-42041985D01*
X129084663Y-42035313D01*
X128990736Y-41696627D01*
X128988562Y-41690163D01*
X128858598Y-41363578D01*
X128855742Y-41357398D01*
X128691269Y-41046763D01*
X128687769Y-41040937D01*
X128490697Y-40749862D01*
X128486590Y-40744453D01*
X128373565Y-40611179D01*
X128360740Y-40602743D01*
X128350416Y-40608795D01*
X126222020Y-42737190D01*
X126214408Y-42751131D01*
X125484357Y-42751131D01*
X125485592Y-42748869D01*
X125485461Y-42747034D01*
X125481210Y-42740420D01*
X123350992Y-40610203D01*
X123337455Y-40602811D01*
X123327753Y-40609599D01*
X123220430Y-40735257D01*
X123216296Y-40740664D01*
X123018215Y-41031041D01*
X123014697Y-41036851D01*
X122849134Y-41346922D01*
X122846259Y-41353087D01*
X122715155Y-41679218D01*
X122712962Y-41685658D01*
X122617846Y-42024044D01*
X122616363Y-42030679D01*
X122558350Y-42377354D01*
X122557591Y-42384126D01*
X122537357Y-42735037D01*
X122537333Y-42741832D01*
X101662416Y-42741832D01*
X101643666Y-42395615D01*
X101642931Y-42388849D01*
X101586130Y-42041985D01*
X101584663Y-42035313D01*
X101490736Y-41696627D01*
X101488562Y-41690163D01*
X101358598Y-41363578D01*
X101355742Y-41357398D01*
X101191269Y-41046763D01*
X101187769Y-41040937D01*
X100990697Y-40749862D01*
X100986590Y-40744453D01*
X100873565Y-40611179D01*
X100860740Y-40602743D01*
X100850416Y-40608795D01*
X98722020Y-42737190D01*
X98714408Y-42751131D01*
X97984357Y-42751131D01*
X97985592Y-42748869D01*
X97985461Y-42747034D01*
X97981210Y-42740420D01*
X95850992Y-40610203D01*
X95837455Y-40602811D01*
X95827753Y-40609599D01*
X95720430Y-40735257D01*
X95716296Y-40740664D01*
X95518215Y-41031041D01*
X95514697Y-41036851D01*
X95349134Y-41346922D01*
X95346259Y-41353087D01*
X95215155Y-41679218D01*
X95212962Y-41685658D01*
X95117846Y-42024044D01*
X95116363Y-42030679D01*
X95058350Y-42377354D01*
X95057591Y-42384126D01*
X95037357Y-42735037D01*
X95037333Y-42741832D01*
X89158500Y-42741832D01*
X89158500Y-39384500D01*
X89178502Y-39316379D01*
X89232158Y-39269886D01*
X89284500Y-39258500D01*
X97665758Y-39258500D01*
X97733879Y-39278502D01*
G37*
G04 #@! TD.AperFunction*
M02*
