G04 #@! TF.GenerationSoftware,KiCad,Pcbnew,7.0.1-0*
G04 #@! TF.CreationDate,2023-03-19T01:45:58-04:00*
G04 #@! TF.ProjectId,new-solar-cell-burn-wire,6e65772d-736f-46c6-9172-2d63656c6c2d,2*
G04 #@! TF.SameCoordinates,Original*
G04 #@! TF.FileFunction,Copper,L1,Top*
G04 #@! TF.FilePolarity,Positive*
%FSLAX46Y46*%
G04 Gerber Fmt 4.6, Leading zero omitted, Abs format (unit mm)*
G04 Created by KiCad (PCBNEW 7.0.1-0) date 2023-03-19 01:45:58*
%MOMM*%
%LPD*%
G01*
G04 APERTURE LIST*
G04 #@! TA.AperFunction,ComponentPad*
%ADD10C,3.000000*%
G04 #@! TD*
G04 #@! TA.AperFunction,ComponentPad*
%ADD11C,5.600000*%
G04 #@! TD*
G04 #@! TA.AperFunction,SMDPad,CuDef*
%ADD12R,2.500000X1.700000*%
G04 #@! TD*
G04 #@! TA.AperFunction,ViaPad*
%ADD13C,0.800000*%
G04 #@! TD*
G04 #@! TA.AperFunction,Conductor*
%ADD14C,0.500000*%
G04 #@! TD*
G04 APERTURE END LIST*
D10*
X84700000Y-116600000D03*
X84700000Y-107600000D03*
X110700000Y-55400000D03*
X110700000Y-64400000D03*
D11*
X125850000Y-42750000D03*
D10*
X84700000Y-94000000D03*
X84700000Y-85000000D03*
D11*
X98350000Y-42750000D03*
D10*
X146500000Y-87000000D03*
X146500000Y-96000000D03*
D11*
X98350000Y-138250000D03*
X125850000Y-138250000D03*
D10*
X120500000Y-125600000D03*
X120500000Y-116600000D03*
X146500000Y-64400000D03*
X146500000Y-73400000D03*
D12*
X94000000Y-127000000D03*
X90000000Y-127000000D03*
X102000000Y-127000000D03*
X106000000Y-127000000D03*
D13*
X114400000Y-66100000D03*
X113500000Y-64200000D03*
X145400000Y-76800000D03*
X144200000Y-70000000D03*
X108000000Y-66000000D03*
X144200000Y-76300000D03*
X110800000Y-67400000D03*
X144200000Y-71300000D03*
X143400000Y-75200000D03*
X107300000Y-67200000D03*
X143900000Y-74100000D03*
X144700000Y-75400000D03*
X108700000Y-68500000D03*
X107700000Y-64400000D03*
X113400000Y-67700000D03*
X109100000Y-67200000D03*
X143900000Y-72500000D03*
X143100000Y-70900000D03*
X113300000Y-65600000D03*
X145300000Y-70700000D03*
X142800000Y-72000000D03*
X110500000Y-68800000D03*
X112000000Y-68500000D03*
X112400000Y-66800000D03*
X146100000Y-75900000D03*
X97350000Y-118550000D03*
D14*
X84700000Y-94000000D02*
X84700000Y-107600000D01*
X84700000Y-121700000D02*
X84700000Y-116600000D01*
X90000000Y-127000000D02*
X84700000Y-121700000D01*
X106000000Y-127000000D02*
X119100000Y-127000000D01*
X119100000Y-127000000D02*
X120500000Y-125600000D01*
X110700000Y-55400000D02*
X84700000Y-81400000D01*
X84700000Y-81400000D02*
X84700000Y-85000000D01*
X146500000Y-90600000D02*
X120500000Y-116600000D01*
X146500000Y-87000000D02*
X146500000Y-90600000D01*
X146500000Y-64400000D02*
X149700000Y-67600000D01*
X149700000Y-67600000D02*
X149700000Y-92800000D01*
X149700000Y-92800000D02*
X146500000Y-96000000D01*
X94000000Y-127000000D02*
X94000000Y-121900000D01*
X102000000Y-123200000D02*
X97350000Y-118550000D01*
X102000000Y-127000000D02*
X102000000Y-123200000D01*
X94000000Y-121900000D02*
X97350000Y-118550000D01*
G04 #@! TA.AperFunction,Conductor*
G36*
X135536500Y-38767381D02*
G01*
X135582619Y-38813500D01*
X135599500Y-38876500D01*
X135599500Y-45099500D01*
X135599500Y-45100000D01*
X135599500Y-45218046D01*
X135633099Y-45451735D01*
X135699614Y-45678264D01*
X135797691Y-45893021D01*
X135925332Y-46091634D01*
X136079939Y-46270061D01*
X136258366Y-46424668D01*
X136456979Y-46552309D01*
X136671736Y-46650386D01*
X136898265Y-46716901D01*
X137131954Y-46750500D01*
X137249901Y-46750500D01*
X137250000Y-46750500D01*
X137250500Y-46750500D01*
X143473500Y-46750500D01*
X143536500Y-46767381D01*
X143582619Y-46813500D01*
X143599500Y-46876500D01*
X143599500Y-49111987D01*
X143597432Y-49123049D01*
X143599316Y-49157903D01*
X143599500Y-49164704D01*
X143599500Y-49177261D01*
X143600660Y-49182491D01*
X143604407Y-49253033D01*
X143647654Y-49431537D01*
X143722908Y-49599083D01*
X143722909Y-49599084D01*
X143827618Y-49749985D01*
X143958229Y-49879120D01*
X144110310Y-49982108D01*
X144278700Y-50055455D01*
X144457687Y-50096671D01*
X144526898Y-50099558D01*
X144531142Y-50100500D01*
X144546931Y-50100500D01*
X144551969Y-50100601D01*
X144590165Y-50102129D01*
X144598868Y-50100500D01*
X151973500Y-50100500D01*
X152036500Y-50117381D01*
X152082619Y-50163500D01*
X152099500Y-50226500D01*
X152099500Y-134123500D01*
X152082619Y-134186500D01*
X152036500Y-134232619D01*
X151973500Y-134249500D01*
X137250500Y-134249500D01*
X137250000Y-134249500D01*
X137131954Y-134249500D01*
X136898265Y-134283099D01*
X136898263Y-134283099D01*
X136898260Y-134283100D01*
X136671738Y-134349613D01*
X136456978Y-134447691D01*
X136258365Y-134575332D01*
X136079939Y-134729939D01*
X135925332Y-134908365D01*
X135797691Y-135106978D01*
X135699613Y-135321738D01*
X135633100Y-135548260D01*
X135599500Y-135781956D01*
X135599500Y-142123500D01*
X135582619Y-142186500D01*
X135536500Y-142232619D01*
X135473500Y-142249500D01*
X88726500Y-142249500D01*
X88663500Y-142232619D01*
X88617381Y-142186500D01*
X88600500Y-142123500D01*
X88600500Y-140764706D01*
X96194502Y-140764706D01*
X96205307Y-140774940D01*
X96490860Y-140992013D01*
X96798233Y-141176953D01*
X97123782Y-141327568D01*
X97463715Y-141442105D01*
X97814040Y-141519217D01*
X98170642Y-141558000D01*
X98529358Y-141558000D01*
X98885959Y-141519217D01*
X99236284Y-141442105D01*
X99576217Y-141327568D01*
X99901766Y-141176953D01*
X100209139Y-140992013D01*
X100494693Y-140774939D01*
X100505496Y-140764706D01*
X123694502Y-140764706D01*
X123705307Y-140774940D01*
X123990860Y-140992013D01*
X124298233Y-141176953D01*
X124623782Y-141327568D01*
X124963715Y-141442105D01*
X125314040Y-141519217D01*
X125670642Y-141558000D01*
X126029358Y-141558000D01*
X126385959Y-141519217D01*
X126736284Y-141442105D01*
X127076217Y-141327568D01*
X127401766Y-141176953D01*
X127709139Y-140992013D01*
X127994693Y-140774939D01*
X128005496Y-140764706D01*
X125850001Y-138609210D01*
X125849999Y-138609210D01*
X123694502Y-140764706D01*
X100505496Y-140764706D01*
X98350001Y-138609210D01*
X98349999Y-138609210D01*
X96194502Y-140764706D01*
X88600500Y-140764706D01*
X88600500Y-138249999D01*
X95037140Y-138249999D01*
X95056561Y-138608183D01*
X95114593Y-138962166D01*
X95210557Y-139307797D01*
X95343331Y-139641032D01*
X95511352Y-139957955D01*
X95712655Y-140254854D01*
X95838168Y-140402620D01*
X97990789Y-138250001D01*
X98709210Y-138250001D01*
X100861831Y-140402620D01*
X100987344Y-140254854D01*
X101188647Y-139957955D01*
X101356668Y-139641032D01*
X101489442Y-139307797D01*
X101585406Y-138962166D01*
X101643438Y-138608183D01*
X101662859Y-138249999D01*
X122537140Y-138249999D01*
X122556561Y-138608183D01*
X122614593Y-138962166D01*
X122710557Y-139307797D01*
X122843331Y-139641032D01*
X123011352Y-139957955D01*
X123212655Y-140254854D01*
X123338168Y-140402620D01*
X125490789Y-138250001D01*
X126209210Y-138250001D01*
X128361831Y-140402620D01*
X128487344Y-140254854D01*
X128688647Y-139957955D01*
X128856668Y-139641032D01*
X128989442Y-139307797D01*
X129085406Y-138962166D01*
X129143438Y-138608183D01*
X129162859Y-138249999D01*
X129143438Y-137891816D01*
X129085406Y-137537833D01*
X128989442Y-137192202D01*
X128856668Y-136858967D01*
X128688647Y-136542044D01*
X128487341Y-136245140D01*
X128361831Y-136097377D01*
X126209210Y-138249999D01*
X126209210Y-138250001D01*
X125490789Y-138250001D01*
X125490789Y-138249999D01*
X123338167Y-136097377D01*
X123338166Y-136097378D01*
X123212658Y-136245139D01*
X123011352Y-136542044D01*
X122843331Y-136858967D01*
X122710557Y-137192202D01*
X122614593Y-137537833D01*
X122556561Y-137891816D01*
X122537140Y-138249999D01*
X101662859Y-138249999D01*
X101643438Y-137891816D01*
X101585406Y-137537833D01*
X101489442Y-137192202D01*
X101356668Y-136858967D01*
X101188647Y-136542044D01*
X100987341Y-136245140D01*
X100861831Y-136097377D01*
X98709210Y-138249999D01*
X98709210Y-138250001D01*
X97990789Y-138250001D01*
X97990789Y-138249999D01*
X95838167Y-136097377D01*
X95838166Y-136097378D01*
X95712658Y-136245139D01*
X95511352Y-136542044D01*
X95343331Y-136858967D01*
X95210557Y-137192202D01*
X95114593Y-137537833D01*
X95056561Y-137891816D01*
X95037140Y-138249999D01*
X88600500Y-138249999D01*
X88600500Y-135781956D01*
X88593791Y-135735292D01*
X96194502Y-135735292D01*
X98349999Y-137890789D01*
X98350001Y-137890789D01*
X100505496Y-135735292D01*
X123694502Y-135735292D01*
X125849999Y-137890789D01*
X125850001Y-137890789D01*
X128005496Y-135735292D01*
X127994692Y-135725059D01*
X127709139Y-135507986D01*
X127401766Y-135323046D01*
X127076217Y-135172431D01*
X126736284Y-135057894D01*
X126385959Y-134980782D01*
X126029358Y-134942000D01*
X125670642Y-134942000D01*
X125314040Y-134980782D01*
X124963715Y-135057894D01*
X124623782Y-135172431D01*
X124298233Y-135323046D01*
X123990860Y-135507986D01*
X123705303Y-135725062D01*
X123694502Y-135735292D01*
X100505496Y-135735292D01*
X100494692Y-135725059D01*
X100209139Y-135507986D01*
X99901766Y-135323046D01*
X99576217Y-135172431D01*
X99236284Y-135057894D01*
X98885959Y-134980782D01*
X98529358Y-134942000D01*
X98170642Y-134942000D01*
X97814040Y-134980782D01*
X97463715Y-135057894D01*
X97123782Y-135172431D01*
X96798233Y-135323046D01*
X96490860Y-135507986D01*
X96205303Y-135725062D01*
X96194502Y-135735292D01*
X88593791Y-135735292D01*
X88592320Y-135725062D01*
X88566901Y-135548265D01*
X88500386Y-135321736D01*
X88402309Y-135106979D01*
X88274668Y-134908366D01*
X88120061Y-134729939D01*
X87941634Y-134575332D01*
X87743021Y-134447691D01*
X87528264Y-134349614D01*
X87528261Y-134349613D01*
X87301739Y-134283100D01*
X87301737Y-134283099D01*
X87301735Y-134283099D01*
X87068046Y-134249500D01*
X87068044Y-134249500D01*
X80726677Y-134249500D01*
X80663626Y-134232590D01*
X80617499Y-134186398D01*
X80600677Y-134123324D01*
X80606155Y-130201552D01*
X80607843Y-130192896D01*
X80606318Y-130152734D01*
X80606227Y-130147950D01*
X80606227Y-130132270D01*
X80605274Y-130127899D01*
X80602580Y-130060400D01*
X80561395Y-129885146D01*
X80487625Y-129720926D01*
X80383964Y-129573738D01*
X80254196Y-129448956D01*
X80179869Y-129400850D01*
X80103061Y-129351137D01*
X79936075Y-129283854D01*
X79759346Y-129249566D01*
X79683838Y-129249510D01*
X79682948Y-129249408D01*
X79669724Y-129249497D01*
X79668878Y-129249500D01*
X79618843Y-129249500D01*
X79617130Y-129249849D01*
X72327188Y-129298647D01*
X72263877Y-129282074D01*
X72217418Y-129235981D01*
X72200345Y-129172804D01*
X72185114Y-116599999D01*
X82686807Y-116599999D01*
X82705557Y-116874124D01*
X82705557Y-116874128D01*
X82705558Y-116874130D01*
X82761462Y-117143153D01*
X82761463Y-117143155D01*
X82853476Y-117402057D01*
X82979889Y-117646024D01*
X83138343Y-117870502D01*
X83271480Y-118013057D01*
X83325889Y-118071314D01*
X83539031Y-118244718D01*
X83690322Y-118336719D01*
X83773798Y-118387483D01*
X83865699Y-118427401D01*
X83905604Y-118454894D01*
X83932181Y-118495415D01*
X83941500Y-118542970D01*
X83941500Y-121635559D01*
X83940170Y-121653820D01*
X83936659Y-121677788D01*
X83941021Y-121727647D01*
X83941500Y-121738628D01*
X83941500Y-121744184D01*
X83945135Y-121775290D01*
X83945507Y-121778932D01*
X83952228Y-121855744D01*
X83956469Y-121874873D01*
X83982846Y-121947342D01*
X83984049Y-121950804D01*
X84008304Y-122024000D01*
X84016837Y-122041627D01*
X84059232Y-122106084D01*
X84061171Y-122109127D01*
X84100970Y-122173651D01*
X84101674Y-122174792D01*
X84114038Y-122189967D01*
X84170155Y-122242911D01*
X84172784Y-122245465D01*
X88204595Y-126277276D01*
X88231909Y-126318153D01*
X88241500Y-126366371D01*
X88241500Y-127898638D01*
X88248011Y-127959200D01*
X88299111Y-128096205D01*
X88386738Y-128213261D01*
X88503794Y-128300888D01*
X88503795Y-128300888D01*
X88503796Y-128300889D01*
X88640799Y-128351989D01*
X88701362Y-128358500D01*
X91298638Y-128358500D01*
X91359201Y-128351989D01*
X91496204Y-128300889D01*
X91613261Y-128213261D01*
X91700889Y-128096204D01*
X91751989Y-127959201D01*
X91758500Y-127898638D01*
X92241500Y-127898638D01*
X92248011Y-127959200D01*
X92299111Y-128096205D01*
X92386738Y-128213261D01*
X92503794Y-128300888D01*
X92503795Y-128300888D01*
X92503796Y-128300889D01*
X92640799Y-128351989D01*
X92701362Y-128358500D01*
X95298638Y-128358500D01*
X95359201Y-128351989D01*
X95496204Y-128300889D01*
X95613261Y-128213261D01*
X95700889Y-128096204D01*
X95751989Y-127959201D01*
X95758500Y-127898638D01*
X95758500Y-126101362D01*
X95751989Y-126040799D01*
X95700889Y-125903796D01*
X95700888Y-125903794D01*
X95613261Y-125786738D01*
X95496205Y-125699111D01*
X95427702Y-125673561D01*
X95359201Y-125648011D01*
X95298638Y-125641500D01*
X94884500Y-125641500D01*
X94821500Y-125624619D01*
X94775381Y-125578500D01*
X94758500Y-125515500D01*
X94758500Y-122266371D01*
X94768091Y-122218153D01*
X94795405Y-122177276D01*
X97260905Y-119711776D01*
X97317389Y-119679164D01*
X97382611Y-119679164D01*
X97439095Y-119711776D01*
X101204595Y-123477276D01*
X101231909Y-123518153D01*
X101241500Y-123566371D01*
X101241500Y-125515500D01*
X101224619Y-125578500D01*
X101178500Y-125624619D01*
X101115500Y-125641500D01*
X100701362Y-125641500D01*
X100640799Y-125648011D01*
X100503794Y-125699111D01*
X100386738Y-125786738D01*
X100299111Y-125903794D01*
X100248011Y-126040799D01*
X100241500Y-126101362D01*
X100241500Y-127898638D01*
X100248011Y-127959200D01*
X100299111Y-128096205D01*
X100386738Y-128213261D01*
X100503794Y-128300888D01*
X100503795Y-128300888D01*
X100503796Y-128300889D01*
X100640799Y-128351989D01*
X100701362Y-128358500D01*
X103298638Y-128358500D01*
X103359201Y-128351989D01*
X103496204Y-128300889D01*
X103613261Y-128213261D01*
X103700889Y-128096204D01*
X103751989Y-127959201D01*
X103758500Y-127898638D01*
X104241500Y-127898638D01*
X104248011Y-127959200D01*
X104299111Y-128096205D01*
X104386738Y-128213261D01*
X104503794Y-128300888D01*
X104503795Y-128300888D01*
X104503796Y-128300889D01*
X104640799Y-128351989D01*
X104701362Y-128358500D01*
X107298638Y-128358500D01*
X107359201Y-128351989D01*
X107496204Y-128300889D01*
X107613261Y-128213261D01*
X107700889Y-128096204D01*
X107751989Y-127959201D01*
X107758500Y-127898638D01*
X107758500Y-127884500D01*
X107775381Y-127821500D01*
X107821500Y-127775381D01*
X107884500Y-127758500D01*
X119035559Y-127758500D01*
X119053820Y-127759830D01*
X119077789Y-127763341D01*
X119124253Y-127759275D01*
X119127647Y-127758979D01*
X119138628Y-127758500D01*
X119144177Y-127758500D01*
X119144180Y-127758500D01*
X119175301Y-127754861D01*
X119178889Y-127754495D01*
X119254426Y-127747887D01*
X119254430Y-127747885D01*
X119255751Y-127747770D01*
X119274856Y-127743535D01*
X119276106Y-127743079D01*
X119276113Y-127743079D01*
X119347400Y-127717132D01*
X119350769Y-127715961D01*
X119422738Y-127692114D01*
X119422739Y-127692112D01*
X119424007Y-127691693D01*
X119441613Y-127683169D01*
X119442725Y-127682437D01*
X119442732Y-127682435D01*
X119506138Y-127640730D01*
X119509161Y-127638806D01*
X119573651Y-127599030D01*
X119573652Y-127599028D01*
X119574788Y-127598328D01*
X119589959Y-127585970D01*
X119590871Y-127585002D01*
X119590874Y-127585001D01*
X119642929Y-127529824D01*
X119645448Y-127527231D01*
X119660543Y-127512136D01*
X119702081Y-127484552D01*
X119751070Y-127475241D01*
X119799832Y-127485663D01*
X119825823Y-127496953D01*
X120090404Y-127571085D01*
X120090410Y-127571085D01*
X120090411Y-127571086D01*
X120362612Y-127608500D01*
X120362615Y-127608500D01*
X120637385Y-127608500D01*
X120637388Y-127608500D01*
X120856636Y-127578364D01*
X120909596Y-127571085D01*
X121174177Y-127496953D01*
X121426200Y-127387484D01*
X121660969Y-127244718D01*
X121874111Y-127071314D01*
X122061657Y-126870502D01*
X122220111Y-126646023D01*
X122346523Y-126402058D01*
X122438538Y-126143153D01*
X122494442Y-125874130D01*
X122513193Y-125600000D01*
X122494442Y-125325870D01*
X122438538Y-125056847D01*
X122346523Y-124797942D01*
X122220111Y-124553977D01*
X122061657Y-124329498D01*
X121874111Y-124128686D01*
X121660969Y-123955282D01*
X121426200Y-123812516D01*
X121174177Y-123703047D01*
X120909596Y-123628915D01*
X120909594Y-123628914D01*
X120909588Y-123628913D01*
X120637388Y-123591500D01*
X120637385Y-123591500D01*
X120362615Y-123591500D01*
X120362612Y-123591500D01*
X120090411Y-123628913D01*
X120090403Y-123628915D01*
X120090404Y-123628915D01*
X119825823Y-123703047D01*
X119825821Y-123703047D01*
X119825820Y-123703048D01*
X119573801Y-123812515D01*
X119339030Y-123955282D01*
X119125887Y-124128687D01*
X118938343Y-124329497D01*
X118779889Y-124553975D01*
X118653476Y-124797942D01*
X118561463Y-125056844D01*
X118505557Y-125325875D01*
X118486807Y-125599999D01*
X118505557Y-125874124D01*
X118505557Y-125874128D01*
X118505558Y-125874130D01*
X118550388Y-126089866D01*
X118549441Y-126145332D01*
X118524764Y-126195017D01*
X118481139Y-126229287D01*
X118427024Y-126241500D01*
X107884500Y-126241500D01*
X107821500Y-126224619D01*
X107775381Y-126178500D01*
X107758500Y-126115500D01*
X107758500Y-126101362D01*
X107757264Y-126089864D01*
X107751989Y-126040799D01*
X107700889Y-125903796D01*
X107700888Y-125903794D01*
X107613261Y-125786738D01*
X107496205Y-125699111D01*
X107427702Y-125673561D01*
X107359201Y-125648011D01*
X107298638Y-125641500D01*
X104701362Y-125641500D01*
X104640799Y-125648011D01*
X104503794Y-125699111D01*
X104386738Y-125786738D01*
X104299111Y-125903794D01*
X104248011Y-126040799D01*
X104241500Y-126101362D01*
X104241500Y-127898638D01*
X103758500Y-127898638D01*
X103758500Y-126101362D01*
X103751989Y-126040799D01*
X103700889Y-125903796D01*
X103700888Y-125903794D01*
X103613261Y-125786738D01*
X103496205Y-125699111D01*
X103427702Y-125673561D01*
X103359201Y-125648011D01*
X103298638Y-125641500D01*
X102884500Y-125641500D01*
X102821500Y-125624619D01*
X102775381Y-125578500D01*
X102758500Y-125515500D01*
X102758500Y-123264441D01*
X102759830Y-123246180D01*
X102760067Y-123244556D01*
X102763341Y-123222211D01*
X102758979Y-123172353D01*
X102758500Y-123161372D01*
X102758500Y-123155823D01*
X102754865Y-123124730D01*
X102754492Y-123121079D01*
X102747770Y-123044241D01*
X102743539Y-123025151D01*
X102743079Y-123023887D01*
X102717130Y-122952593D01*
X102715973Y-122949263D01*
X102692114Y-122877262D01*
X102692113Y-122877261D01*
X102691693Y-122875992D01*
X102683170Y-122858386D01*
X102682435Y-122857268D01*
X102640756Y-122793900D01*
X102638812Y-122790846D01*
X102598330Y-122725213D01*
X102585964Y-122710034D01*
X102529825Y-122657069D01*
X102527197Y-122654516D01*
X98270126Y-118397445D01*
X98239388Y-118347286D01*
X98184527Y-118178444D01*
X98089041Y-118013057D01*
X97961252Y-117871133D01*
X97806753Y-117758883D01*
X97806752Y-117758882D01*
X97632288Y-117681206D01*
X97445487Y-117641500D01*
X97254513Y-117641500D01*
X97129979Y-117667970D01*
X97067711Y-117681206D01*
X96893246Y-117758883D01*
X96738747Y-117871133D01*
X96610958Y-118013057D01*
X96515473Y-118178443D01*
X96460612Y-118347285D01*
X96429874Y-118397443D01*
X93509225Y-121318092D01*
X93495377Y-121330061D01*
X93475941Y-121344531D01*
X93443771Y-121382869D01*
X93436357Y-121390961D01*
X93432422Y-121394895D01*
X93412997Y-121419461D01*
X93410688Y-121422294D01*
X93361119Y-121481369D01*
X93350589Y-121497899D01*
X93317995Y-121567794D01*
X93316401Y-121571087D01*
X93281795Y-121639997D01*
X93275363Y-121658500D01*
X93259759Y-121734064D01*
X93258967Y-121737637D01*
X93241192Y-121812640D01*
X93239202Y-121832114D01*
X93241447Y-121909259D01*
X93241500Y-121912923D01*
X93241500Y-125515500D01*
X93224619Y-125578500D01*
X93178500Y-125624619D01*
X93115500Y-125641500D01*
X92701362Y-125641500D01*
X92640799Y-125648011D01*
X92503794Y-125699111D01*
X92386738Y-125786738D01*
X92299111Y-125903794D01*
X92248011Y-126040799D01*
X92241500Y-126101362D01*
X92241500Y-127898638D01*
X91758500Y-127898638D01*
X91758500Y-126101362D01*
X91751989Y-126040799D01*
X91700889Y-125903796D01*
X91700888Y-125903794D01*
X91613261Y-125786738D01*
X91496205Y-125699111D01*
X91427702Y-125673561D01*
X91359201Y-125648011D01*
X91298638Y-125641500D01*
X89766371Y-125641500D01*
X89718153Y-125631909D01*
X89677276Y-125604595D01*
X85495405Y-121422724D01*
X85468091Y-121381847D01*
X85458500Y-121333629D01*
X85458500Y-118542970D01*
X85467819Y-118495415D01*
X85494396Y-118454894D01*
X85534301Y-118427401D01*
X85626200Y-118387484D01*
X85860969Y-118244718D01*
X86074111Y-118071314D01*
X86261657Y-117870502D01*
X86420111Y-117646023D01*
X86546523Y-117402058D01*
X86638538Y-117143153D01*
X86694442Y-116874130D01*
X86713193Y-116600000D01*
X86713193Y-116599999D01*
X118486807Y-116599999D01*
X118505557Y-116874124D01*
X118505557Y-116874128D01*
X118505558Y-116874130D01*
X118561462Y-117143153D01*
X118561463Y-117143155D01*
X118653476Y-117402057D01*
X118779889Y-117646024D01*
X118938343Y-117870502D01*
X119071480Y-118013057D01*
X119125889Y-118071314D01*
X119339031Y-118244718D01*
X119573800Y-118387484D01*
X119825823Y-118496953D01*
X120090404Y-118571085D01*
X120090410Y-118571085D01*
X120090411Y-118571086D01*
X120362612Y-118608500D01*
X120362615Y-118608500D01*
X120637385Y-118608500D01*
X120637388Y-118608500D01*
X120856636Y-118578364D01*
X120909596Y-118571085D01*
X121174177Y-118496953D01*
X121426200Y-118387484D01*
X121660969Y-118244718D01*
X121874111Y-118071314D01*
X122061657Y-117870502D01*
X122220111Y-117646023D01*
X122346523Y-117402058D01*
X122438538Y-117143153D01*
X122494442Y-116874130D01*
X122513193Y-116600000D01*
X122494442Y-116325870D01*
X122438538Y-116056847D01*
X122380576Y-115893761D01*
X122376393Y-115823829D01*
X122410205Y-115762474D01*
X142172680Y-95999999D01*
X144486807Y-95999999D01*
X144505557Y-96274124D01*
X144505557Y-96274128D01*
X144505558Y-96274130D01*
X144561462Y-96543153D01*
X144561463Y-96543155D01*
X144653476Y-96802057D01*
X144779889Y-97046024D01*
X144938342Y-97270501D01*
X144938343Y-97270502D01*
X145125889Y-97471314D01*
X145339031Y-97644718D01*
X145573800Y-97787484D01*
X145825823Y-97896953D01*
X146090404Y-97971085D01*
X146090410Y-97971085D01*
X146090411Y-97971086D01*
X146362612Y-98008500D01*
X146362615Y-98008500D01*
X146637385Y-98008500D01*
X146637388Y-98008500D01*
X146856636Y-97978364D01*
X146909596Y-97971085D01*
X147174177Y-97896953D01*
X147426200Y-97787484D01*
X147660969Y-97644718D01*
X147874111Y-97471314D01*
X148061657Y-97270502D01*
X148220111Y-97046023D01*
X148346523Y-96802058D01*
X148438538Y-96543153D01*
X148494442Y-96274130D01*
X148513193Y-96000000D01*
X148494442Y-95725870D01*
X148438538Y-95456847D01*
X148380576Y-95293761D01*
X148376393Y-95223829D01*
X148410205Y-95162474D01*
X150190777Y-93381902D01*
X150204624Y-93369936D01*
X150224058Y-93355469D01*
X150256228Y-93317128D01*
X150263645Y-93309034D01*
X150267580Y-93305101D01*
X150287043Y-93280484D01*
X150289268Y-93277753D01*
X150338032Y-93219640D01*
X150338034Y-93219634D01*
X150338892Y-93218613D01*
X150349403Y-93202114D01*
X150349965Y-93200908D01*
X150349967Y-93200906D01*
X150382022Y-93132159D01*
X150383572Y-93128958D01*
X150417609Y-93061188D01*
X150417610Y-93061183D01*
X150418207Y-93059995D01*
X150424631Y-93041517D01*
X150424901Y-93040209D01*
X150424902Y-93040207D01*
X150440251Y-92965866D01*
X150441001Y-92962484D01*
X150458500Y-92888656D01*
X150458500Y-92888651D01*
X150458807Y-92887356D01*
X150460796Y-92867888D01*
X150460757Y-92866560D01*
X150460758Y-92866558D01*
X150458553Y-92790776D01*
X150458500Y-92787112D01*
X150458500Y-67664441D01*
X150459830Y-67646180D01*
X150460067Y-67644556D01*
X150463341Y-67622211D01*
X150458979Y-67572353D01*
X150458500Y-67561372D01*
X150458500Y-67555823D01*
X150454865Y-67524730D01*
X150454492Y-67521079D01*
X150447887Y-67445573D01*
X150447886Y-67445570D01*
X150447770Y-67444242D01*
X150443537Y-67425147D01*
X150443079Y-67423889D01*
X150443079Y-67423887D01*
X150417137Y-67352611D01*
X150415977Y-67349277D01*
X150392114Y-67277261D01*
X150392111Y-67277256D01*
X150391691Y-67275988D01*
X150383170Y-67258386D01*
X150340776Y-67193928D01*
X150338808Y-67190839D01*
X150298326Y-67125209D01*
X150285964Y-67110034D01*
X150229825Y-67057069D01*
X150227197Y-67054516D01*
X148410207Y-65237526D01*
X148376393Y-65176169D01*
X148380576Y-65106238D01*
X148438538Y-64943153D01*
X148494442Y-64674130D01*
X148513193Y-64400000D01*
X148494442Y-64125870D01*
X148438538Y-63856847D01*
X148346523Y-63597942D01*
X148220111Y-63353977D01*
X148061657Y-63129498D01*
X147874111Y-62928686D01*
X147660969Y-62755282D01*
X147426200Y-62612516D01*
X147174177Y-62503047D01*
X146909596Y-62428915D01*
X146909594Y-62428914D01*
X146909588Y-62428913D01*
X146637388Y-62391500D01*
X146637385Y-62391500D01*
X146362615Y-62391500D01*
X146362612Y-62391500D01*
X146090411Y-62428913D01*
X146090403Y-62428915D01*
X146090404Y-62428915D01*
X145825823Y-62503047D01*
X145825821Y-62503047D01*
X145825820Y-62503048D01*
X145573801Y-62612515D01*
X145339030Y-62755282D01*
X145125887Y-62928687D01*
X144938343Y-63129497D01*
X144779889Y-63353975D01*
X144653476Y-63597942D01*
X144561463Y-63856844D01*
X144505557Y-64125875D01*
X144486807Y-64399999D01*
X144505557Y-64674124D01*
X144505557Y-64674128D01*
X144505558Y-64674130D01*
X144561462Y-64943153D01*
X144561463Y-64943155D01*
X144653476Y-65202057D01*
X144779889Y-65446024D01*
X144909928Y-65630247D01*
X144938343Y-65670502D01*
X145125889Y-65871314D01*
X145339031Y-66044718D01*
X145573800Y-66187484D01*
X145825823Y-66296953D01*
X146090404Y-66371085D01*
X146090410Y-66371085D01*
X146090411Y-66371086D01*
X146362612Y-66408500D01*
X146362615Y-66408500D01*
X146637385Y-66408500D01*
X146637388Y-66408500D01*
X146909590Y-66371086D01*
X146909591Y-66371085D01*
X146909596Y-66371085D01*
X147174177Y-66296953D01*
X147200163Y-66285665D01*
X147248926Y-66275241D01*
X147297916Y-66284551D01*
X147339457Y-66312138D01*
X148904595Y-67877276D01*
X148931909Y-67918153D01*
X148941500Y-67966371D01*
X148941500Y-92433629D01*
X148931909Y-92481847D01*
X148904597Y-92522721D01*
X147701448Y-93725870D01*
X147339456Y-94087862D01*
X147297916Y-94115447D01*
X147248927Y-94124758D01*
X147200167Y-94114336D01*
X147174177Y-94103047D01*
X146909596Y-94028915D01*
X146909594Y-94028914D01*
X146909588Y-94028913D01*
X146637388Y-93991500D01*
X146637385Y-93991500D01*
X146362615Y-93991500D01*
X146362612Y-93991500D01*
X146090411Y-94028913D01*
X146090403Y-94028915D01*
X146090404Y-94028915D01*
X145825823Y-94103047D01*
X145825821Y-94103047D01*
X145825820Y-94103048D01*
X145573801Y-94212515D01*
X145339030Y-94355282D01*
X145125887Y-94528687D01*
X144938343Y-94729497D01*
X144779889Y-94953975D01*
X144653476Y-95197942D01*
X144561463Y-95456844D01*
X144505557Y-95725875D01*
X144486807Y-95999999D01*
X142172680Y-95999999D01*
X146990777Y-91181902D01*
X147004624Y-91169936D01*
X147024058Y-91155469D01*
X147056226Y-91117131D01*
X147063642Y-91109037D01*
X147067581Y-91105100D01*
X147087012Y-91080523D01*
X147089286Y-91077731D01*
X147138032Y-91019640D01*
X147138033Y-91019636D01*
X147138890Y-91018616D01*
X147149402Y-91002117D01*
X147153155Y-90994068D01*
X147182036Y-90932131D01*
X147183544Y-90929015D01*
X147217609Y-90861188D01*
X147217610Y-90861179D01*
X147218212Y-90859983D01*
X147224634Y-90841509D01*
X147240238Y-90765935D01*
X147241022Y-90762397D01*
X147258500Y-90688656D01*
X147258500Y-90688654D01*
X147258808Y-90687355D01*
X147260797Y-90667885D01*
X147260758Y-90666560D01*
X147260759Y-90666558D01*
X147258553Y-90590741D01*
X147258500Y-90587077D01*
X147258500Y-88942970D01*
X147267819Y-88895415D01*
X147294396Y-88854894D01*
X147334301Y-88827401D01*
X147426200Y-88787484D01*
X147660969Y-88644718D01*
X147874111Y-88471314D01*
X148061657Y-88270502D01*
X148220111Y-88046023D01*
X148346523Y-87802058D01*
X148438538Y-87543153D01*
X148494442Y-87274130D01*
X148513193Y-87000000D01*
X148494442Y-86725870D01*
X148438538Y-86456847D01*
X148346523Y-86197942D01*
X148220111Y-85953977D01*
X148061657Y-85729498D01*
X147874111Y-85528686D01*
X147660969Y-85355282D01*
X147426200Y-85212516D01*
X147174177Y-85103047D01*
X146909596Y-85028915D01*
X146909594Y-85028914D01*
X146909588Y-85028913D01*
X146637388Y-84991500D01*
X146637385Y-84991500D01*
X146362615Y-84991500D01*
X146362612Y-84991500D01*
X146090411Y-85028913D01*
X146090403Y-85028915D01*
X146090404Y-85028915D01*
X145825823Y-85103047D01*
X145825821Y-85103047D01*
X145825820Y-85103048D01*
X145573801Y-85212515D01*
X145339030Y-85355282D01*
X145125887Y-85528687D01*
X144938343Y-85729497D01*
X144779889Y-85953975D01*
X144653476Y-86197942D01*
X144561463Y-86456844D01*
X144505557Y-86725875D01*
X144486807Y-86999999D01*
X144505557Y-87274124D01*
X144505557Y-87274128D01*
X144505558Y-87274130D01*
X144561462Y-87543153D01*
X144561463Y-87543155D01*
X144653476Y-87802057D01*
X144779889Y-88046024D01*
X144938343Y-88270502D01*
X145125889Y-88471314D01*
X145339031Y-88644718D01*
X145490322Y-88736719D01*
X145573798Y-88787483D01*
X145665699Y-88827401D01*
X145705604Y-88854894D01*
X145732181Y-88895415D01*
X145741500Y-88942970D01*
X145741500Y-90233629D01*
X145731909Y-90281847D01*
X145704595Y-90322724D01*
X121339456Y-114687861D01*
X121297916Y-114715447D01*
X121248927Y-114724758D01*
X121200167Y-114714336D01*
X121174177Y-114703047D01*
X120909596Y-114628915D01*
X120909594Y-114628914D01*
X120909588Y-114628913D01*
X120637388Y-114591500D01*
X120637385Y-114591500D01*
X120362615Y-114591500D01*
X120362612Y-114591500D01*
X120090411Y-114628913D01*
X120090403Y-114628915D01*
X120090404Y-114628915D01*
X119825823Y-114703047D01*
X119825821Y-114703047D01*
X119825820Y-114703048D01*
X119573801Y-114812515D01*
X119339030Y-114955282D01*
X119125887Y-115128687D01*
X118938343Y-115329497D01*
X118779889Y-115553975D01*
X118653476Y-115797942D01*
X118561463Y-116056844D01*
X118505557Y-116325875D01*
X118486807Y-116599999D01*
X86713193Y-116599999D01*
X86694442Y-116325870D01*
X86638538Y-116056847D01*
X86546523Y-115797942D01*
X86420111Y-115553977D01*
X86261657Y-115329498D01*
X86074111Y-115128686D01*
X85860969Y-114955282D01*
X85626200Y-114812516D01*
X85374177Y-114703047D01*
X85109596Y-114628915D01*
X85109594Y-114628914D01*
X85109588Y-114628913D01*
X84837388Y-114591500D01*
X84837385Y-114591500D01*
X84562615Y-114591500D01*
X84562612Y-114591500D01*
X84290411Y-114628913D01*
X84290403Y-114628915D01*
X84290404Y-114628915D01*
X84025823Y-114703047D01*
X84025821Y-114703047D01*
X84025820Y-114703048D01*
X83773801Y-114812515D01*
X83539030Y-114955282D01*
X83325887Y-115128687D01*
X83138343Y-115329497D01*
X82979889Y-115553975D01*
X82853476Y-115797942D01*
X82761463Y-116056844D01*
X82705557Y-116325875D01*
X82686807Y-116599999D01*
X72185114Y-116599999D01*
X72174212Y-107599999D01*
X82686807Y-107599999D01*
X82705557Y-107874124D01*
X82705557Y-107874128D01*
X82705558Y-107874130D01*
X82761462Y-108143153D01*
X82761463Y-108143155D01*
X82853476Y-108402057D01*
X82979889Y-108646024D01*
X83138343Y-108870502D01*
X83325889Y-109071314D01*
X83539031Y-109244718D01*
X83773800Y-109387484D01*
X84025823Y-109496953D01*
X84290404Y-109571085D01*
X84290410Y-109571085D01*
X84290411Y-109571086D01*
X84562612Y-109608500D01*
X84562615Y-109608500D01*
X84837385Y-109608500D01*
X84837388Y-109608500D01*
X85056636Y-109578364D01*
X85109596Y-109571085D01*
X85374177Y-109496953D01*
X85626200Y-109387484D01*
X85860969Y-109244718D01*
X86074111Y-109071314D01*
X86261657Y-108870502D01*
X86420111Y-108646023D01*
X86546523Y-108402058D01*
X86638538Y-108143153D01*
X86694442Y-107874130D01*
X86713193Y-107600000D01*
X86694442Y-107325870D01*
X86638538Y-107056847D01*
X86546523Y-106797942D01*
X86420111Y-106553977D01*
X86261657Y-106329498D01*
X86074111Y-106128686D01*
X85860969Y-105955282D01*
X85626201Y-105812516D01*
X85534301Y-105772599D01*
X85494396Y-105745106D01*
X85467819Y-105704585D01*
X85458500Y-105657030D01*
X85458500Y-95942970D01*
X85467819Y-95895415D01*
X85494396Y-95854894D01*
X85534301Y-95827401D01*
X85626200Y-95787484D01*
X85860969Y-95644718D01*
X86074111Y-95471314D01*
X86261657Y-95270502D01*
X86420111Y-95046023D01*
X86546523Y-94802058D01*
X86638538Y-94543153D01*
X86694442Y-94274130D01*
X86713193Y-94000000D01*
X86694442Y-93725870D01*
X86638538Y-93456847D01*
X86546523Y-93197942D01*
X86420111Y-92953977D01*
X86261657Y-92729498D01*
X86074111Y-92528686D01*
X85860969Y-92355282D01*
X85626200Y-92212516D01*
X85374177Y-92103047D01*
X85109596Y-92028915D01*
X85109594Y-92028914D01*
X85109588Y-92028913D01*
X84837388Y-91991500D01*
X84837385Y-91991500D01*
X84562615Y-91991500D01*
X84562612Y-91991500D01*
X84290411Y-92028913D01*
X84290403Y-92028915D01*
X84290404Y-92028915D01*
X84025823Y-92103047D01*
X84025821Y-92103047D01*
X84025820Y-92103048D01*
X83773801Y-92212515D01*
X83539030Y-92355282D01*
X83325887Y-92528687D01*
X83138343Y-92729497D01*
X82979889Y-92953975D01*
X82853476Y-93197942D01*
X82761463Y-93456844D01*
X82705557Y-93725875D01*
X82686807Y-93999999D01*
X82705557Y-94274124D01*
X82705557Y-94274128D01*
X82705558Y-94274130D01*
X82761462Y-94543153D01*
X82761463Y-94543155D01*
X82853476Y-94802057D01*
X82979889Y-95046024D01*
X83062087Y-95162472D01*
X83138343Y-95270502D01*
X83325889Y-95471314D01*
X83539031Y-95644718D01*
X83672480Y-95725870D01*
X83773798Y-95787483D01*
X83865699Y-95827401D01*
X83905604Y-95854894D01*
X83932181Y-95895415D01*
X83941500Y-95942970D01*
X83941500Y-105657030D01*
X83932181Y-105704585D01*
X83905604Y-105745106D01*
X83865699Y-105772599D01*
X83773798Y-105812516D01*
X83539030Y-105955282D01*
X83325887Y-106128687D01*
X83138343Y-106329497D01*
X82979889Y-106553975D01*
X82853476Y-106797942D01*
X82761463Y-107056844D01*
X82705557Y-107325875D01*
X82686807Y-107599999D01*
X72174212Y-107599999D01*
X72146835Y-84999999D01*
X82686807Y-84999999D01*
X82705557Y-85274124D01*
X82705557Y-85274128D01*
X82705558Y-85274130D01*
X82761462Y-85543153D01*
X82761463Y-85543155D01*
X82853476Y-85802057D01*
X82979889Y-86046024D01*
X83087125Y-86197942D01*
X83138343Y-86270502D01*
X83325889Y-86471314D01*
X83539031Y-86644718D01*
X83773800Y-86787484D01*
X84025823Y-86896953D01*
X84290404Y-86971085D01*
X84290410Y-86971085D01*
X84290411Y-86971086D01*
X84562612Y-87008500D01*
X84562615Y-87008500D01*
X84837385Y-87008500D01*
X84837388Y-87008500D01*
X85056636Y-86978364D01*
X85109596Y-86971085D01*
X85374177Y-86896953D01*
X85626200Y-86787484D01*
X85860969Y-86644718D01*
X86074111Y-86471314D01*
X86261657Y-86270502D01*
X86420111Y-86046023D01*
X86546523Y-85802058D01*
X86638538Y-85543153D01*
X86694442Y-85274130D01*
X86713193Y-85000000D01*
X86694442Y-84725870D01*
X86638538Y-84456847D01*
X86546523Y-84197942D01*
X86420111Y-83953977D01*
X86261657Y-83729498D01*
X86074111Y-83528686D01*
X85860969Y-83355282D01*
X85626201Y-83212516D01*
X85534301Y-83172599D01*
X85494396Y-83145106D01*
X85467819Y-83104585D01*
X85458500Y-83057030D01*
X85458500Y-81766371D01*
X85468091Y-81718153D01*
X85495405Y-81677276D01*
X86354589Y-80818092D01*
X92184186Y-74988494D01*
X145270715Y-74988494D01*
X145339321Y-75044310D01*
X145574026Y-75187036D01*
X145825989Y-75296480D01*
X146090513Y-75370596D01*
X146362645Y-75408000D01*
X146637355Y-75408000D01*
X146909486Y-75370596D01*
X147174010Y-75296480D01*
X147425970Y-75187038D01*
X147660681Y-75044307D01*
X147729283Y-74988493D01*
X147729283Y-74988492D01*
X146500001Y-73759210D01*
X146499999Y-73759210D01*
X145270715Y-74988492D01*
X145270715Y-74988494D01*
X92184186Y-74988494D01*
X93772680Y-73400000D01*
X144487308Y-73400000D01*
X144506053Y-73674056D01*
X144561945Y-73943020D01*
X144653936Y-74201860D01*
X144780318Y-74445765D01*
X144910540Y-74630248D01*
X144910541Y-74630248D01*
X146140790Y-73400001D01*
X146859210Y-73400001D01*
X148089457Y-74630247D01*
X148219683Y-74445761D01*
X148346063Y-74201860D01*
X148438054Y-73943020D01*
X148493946Y-73674056D01*
X148512691Y-73400000D01*
X148493946Y-73125943D01*
X148438054Y-72856979D01*
X148346063Y-72598139D01*
X148219683Y-72354238D01*
X148089457Y-72169750D01*
X146859210Y-73399999D01*
X146859210Y-73400001D01*
X146140790Y-73400001D01*
X146140790Y-73399999D01*
X144910541Y-72169750D01*
X144780316Y-72354240D01*
X144653936Y-72598139D01*
X144561945Y-72856979D01*
X144506053Y-73125943D01*
X144487308Y-73400000D01*
X93772680Y-73400000D01*
X95361175Y-71811505D01*
X145270714Y-71811505D01*
X146499999Y-73040790D01*
X146500000Y-73040790D01*
X147729283Y-71811504D01*
X147660678Y-71755689D01*
X147425973Y-71612963D01*
X147174010Y-71503519D01*
X146909486Y-71429403D01*
X146637355Y-71392000D01*
X146362645Y-71392000D01*
X146090513Y-71429403D01*
X145825989Y-71503519D01*
X145574026Y-71612963D01*
X145339322Y-71755689D01*
X145270715Y-71811505D01*
X145270714Y-71811505D01*
X95361175Y-71811505D01*
X101184186Y-65988494D01*
X109470715Y-65988494D01*
X109539321Y-66044310D01*
X109774026Y-66187036D01*
X110025989Y-66296480D01*
X110290513Y-66370596D01*
X110562645Y-66408000D01*
X110837355Y-66408000D01*
X111109486Y-66370596D01*
X111374010Y-66296480D01*
X111625970Y-66187038D01*
X111860681Y-66044307D01*
X111929283Y-65988493D01*
X111929283Y-65988492D01*
X110700001Y-64759210D01*
X110699999Y-64759210D01*
X109470715Y-65988492D01*
X109470715Y-65988494D01*
X101184186Y-65988494D01*
X102772680Y-64400000D01*
X108687308Y-64400000D01*
X108706053Y-64674056D01*
X108761945Y-64943020D01*
X108853936Y-65201860D01*
X108980318Y-65445765D01*
X109110540Y-65630248D01*
X109110541Y-65630248D01*
X110340790Y-64400001D01*
X111059210Y-64400001D01*
X112289457Y-65630247D01*
X112419683Y-65445761D01*
X112546063Y-65201860D01*
X112638054Y-64943020D01*
X112693946Y-64674056D01*
X112712691Y-64400000D01*
X112693946Y-64125943D01*
X112638054Y-63856979D01*
X112546063Y-63598139D01*
X112419683Y-63354238D01*
X112289457Y-63169750D01*
X111059210Y-64399999D01*
X111059210Y-64400001D01*
X110340790Y-64400001D01*
X110340790Y-64399999D01*
X109110541Y-63169750D01*
X108980316Y-63354240D01*
X108853936Y-63598139D01*
X108761945Y-63856979D01*
X108706053Y-64125943D01*
X108687308Y-64400000D01*
X102772680Y-64400000D01*
X104361175Y-62811505D01*
X109470714Y-62811505D01*
X110699999Y-64040790D01*
X110700000Y-64040790D01*
X111929283Y-62811504D01*
X111860678Y-62755689D01*
X111625973Y-62612963D01*
X111374010Y-62503519D01*
X111109486Y-62429403D01*
X110837355Y-62392000D01*
X110562645Y-62392000D01*
X110290513Y-62429403D01*
X110025989Y-62503519D01*
X109774026Y-62612963D01*
X109539322Y-62755689D01*
X109470715Y-62811505D01*
X109470714Y-62811505D01*
X104361175Y-62811505D01*
X109860543Y-57312136D01*
X109902081Y-57284552D01*
X109951070Y-57275241D01*
X109999832Y-57285663D01*
X110025823Y-57296953D01*
X110290404Y-57371085D01*
X110290410Y-57371085D01*
X110290411Y-57371086D01*
X110562612Y-57408500D01*
X110562615Y-57408500D01*
X110837385Y-57408500D01*
X110837388Y-57408500D01*
X111056636Y-57378364D01*
X111109596Y-57371085D01*
X111374177Y-57296953D01*
X111626200Y-57187484D01*
X111860969Y-57044718D01*
X112074111Y-56871314D01*
X112261657Y-56670502D01*
X112420111Y-56446023D01*
X112546523Y-56202058D01*
X112638538Y-55943153D01*
X112694442Y-55674130D01*
X112713193Y-55400000D01*
X112694442Y-55125870D01*
X112638538Y-54856847D01*
X112546523Y-54597942D01*
X112420111Y-54353977D01*
X112261657Y-54129498D01*
X112074111Y-53928686D01*
X111860969Y-53755282D01*
X111626200Y-53612516D01*
X111374177Y-53503047D01*
X111109596Y-53428915D01*
X111109594Y-53428914D01*
X111109588Y-53428913D01*
X110837388Y-53391500D01*
X110837385Y-53391500D01*
X110562615Y-53391500D01*
X110562612Y-53391500D01*
X110290411Y-53428913D01*
X110290403Y-53428915D01*
X110290404Y-53428915D01*
X110025823Y-53503047D01*
X110025821Y-53503047D01*
X110025820Y-53503048D01*
X109773801Y-53612515D01*
X109539030Y-53755282D01*
X109325887Y-53928687D01*
X109138343Y-54129497D01*
X108979889Y-54353975D01*
X108853476Y-54597942D01*
X108761463Y-54856844D01*
X108705557Y-55125875D01*
X108686807Y-55400000D01*
X108705557Y-55674124D01*
X108761463Y-55943158D01*
X108819421Y-56106237D01*
X108823605Y-56176169D01*
X108789791Y-56237526D01*
X84209225Y-80818092D01*
X84195377Y-80830061D01*
X84175941Y-80844531D01*
X84143771Y-80882869D01*
X84136357Y-80890961D01*
X84132422Y-80894895D01*
X84112997Y-80919461D01*
X84110688Y-80922294D01*
X84061119Y-80981369D01*
X84050589Y-80997899D01*
X84017995Y-81067794D01*
X84016401Y-81071087D01*
X83981795Y-81139997D01*
X83975363Y-81158500D01*
X83959759Y-81234064D01*
X83958967Y-81237637D01*
X83941192Y-81312640D01*
X83939202Y-81332114D01*
X83941447Y-81409259D01*
X83941500Y-81412923D01*
X83941500Y-83057030D01*
X83932181Y-83104585D01*
X83905604Y-83145106D01*
X83865699Y-83172599D01*
X83773798Y-83212516D01*
X83539030Y-83355282D01*
X83325887Y-83528687D01*
X83138343Y-83729497D01*
X82979889Y-83953975D01*
X82853476Y-84197942D01*
X82761463Y-84456844D01*
X82705557Y-84725875D01*
X82686807Y-84999999D01*
X72146835Y-84999999D01*
X72119494Y-62429403D01*
X72100654Y-46876653D01*
X72117484Y-46813588D01*
X72163610Y-46767406D01*
X72226654Y-46750500D01*
X87118044Y-46750500D01*
X87118046Y-46750500D01*
X87351735Y-46716901D01*
X87578264Y-46650386D01*
X87793021Y-46552309D01*
X87991634Y-46424668D01*
X88170061Y-46270061D01*
X88324668Y-46091634D01*
X88452309Y-45893021D01*
X88550386Y-45678264D01*
X88616901Y-45451735D01*
X88643791Y-45264706D01*
X96194502Y-45264706D01*
X96205307Y-45274940D01*
X96490860Y-45492013D01*
X96798233Y-45676953D01*
X97123782Y-45827568D01*
X97463715Y-45942105D01*
X97814040Y-46019217D01*
X98170642Y-46058000D01*
X98529358Y-46058000D01*
X98885959Y-46019217D01*
X99236284Y-45942105D01*
X99576217Y-45827568D01*
X99901766Y-45676953D01*
X100209139Y-45492013D01*
X100494693Y-45274939D01*
X100505496Y-45264706D01*
X123694502Y-45264706D01*
X123705307Y-45274940D01*
X123990860Y-45492013D01*
X124298233Y-45676953D01*
X124623782Y-45827568D01*
X124963715Y-45942105D01*
X125314040Y-46019217D01*
X125670642Y-46058000D01*
X126029358Y-46058000D01*
X126385959Y-46019217D01*
X126736284Y-45942105D01*
X127076217Y-45827568D01*
X127401766Y-45676953D01*
X127709139Y-45492013D01*
X127994693Y-45274939D01*
X128005496Y-45264706D01*
X125850001Y-43109210D01*
X125849999Y-43109210D01*
X123694502Y-45264706D01*
X100505496Y-45264706D01*
X98350001Y-43109210D01*
X98349999Y-43109210D01*
X96194502Y-45264706D01*
X88643791Y-45264706D01*
X88650500Y-45218046D01*
X88650500Y-45100000D01*
X88650500Y-45099500D01*
X88650500Y-42750000D01*
X95037140Y-42750000D01*
X95056561Y-43108183D01*
X95114593Y-43462166D01*
X95210557Y-43807797D01*
X95343331Y-44141032D01*
X95511352Y-44457955D01*
X95712655Y-44754854D01*
X95838168Y-44902620D01*
X97990789Y-42750001D01*
X98709210Y-42750001D01*
X100861831Y-44902620D01*
X100987344Y-44754854D01*
X101188647Y-44457955D01*
X101356668Y-44141032D01*
X101489442Y-43807797D01*
X101585406Y-43462166D01*
X101643438Y-43108183D01*
X101662859Y-42750000D01*
X122537140Y-42750000D01*
X122556561Y-43108183D01*
X122614593Y-43462166D01*
X122710557Y-43807797D01*
X122843331Y-44141032D01*
X123011352Y-44457955D01*
X123212655Y-44754854D01*
X123338168Y-44902620D01*
X125490789Y-42750001D01*
X126209210Y-42750001D01*
X128361831Y-44902620D01*
X128487344Y-44754854D01*
X128688647Y-44457955D01*
X128856668Y-44141032D01*
X128989442Y-43807797D01*
X129085406Y-43462166D01*
X129143438Y-43108183D01*
X129162859Y-42750000D01*
X129143438Y-42391816D01*
X129085406Y-42037833D01*
X128989442Y-41692202D01*
X128856668Y-41358967D01*
X128688647Y-41042044D01*
X128487341Y-40745140D01*
X128361831Y-40597377D01*
X126209210Y-42749999D01*
X126209210Y-42750001D01*
X125490789Y-42750001D01*
X125490789Y-42749999D01*
X123338167Y-40597377D01*
X123338166Y-40597378D01*
X123212658Y-40745139D01*
X123011352Y-41042044D01*
X122843331Y-41358967D01*
X122710557Y-41692202D01*
X122614593Y-42037833D01*
X122556561Y-42391816D01*
X122537140Y-42750000D01*
X101662859Y-42750000D01*
X101643438Y-42391816D01*
X101585406Y-42037833D01*
X101489442Y-41692202D01*
X101356668Y-41358967D01*
X101188647Y-41042044D01*
X100987341Y-40745140D01*
X100861831Y-40597377D01*
X98709210Y-42749999D01*
X98709210Y-42750001D01*
X97990789Y-42750001D01*
X97990789Y-42749999D01*
X95838167Y-40597377D01*
X95838166Y-40597378D01*
X95712658Y-40745139D01*
X95511352Y-41042044D01*
X95343331Y-41358967D01*
X95210557Y-41692202D01*
X95114593Y-42037833D01*
X95056561Y-42391816D01*
X95037140Y-42750000D01*
X88650500Y-42750000D01*
X88650500Y-40235292D01*
X96194502Y-40235292D01*
X98349999Y-42390789D01*
X98350001Y-42390789D01*
X100505496Y-40235292D01*
X123694502Y-40235292D01*
X125849999Y-42390789D01*
X125850001Y-42390789D01*
X128005496Y-40235292D01*
X127994692Y-40225059D01*
X127709139Y-40007986D01*
X127401766Y-39823046D01*
X127076217Y-39672431D01*
X126736284Y-39557894D01*
X126385959Y-39480782D01*
X126029358Y-39442000D01*
X125670642Y-39442000D01*
X125314040Y-39480782D01*
X124963715Y-39557894D01*
X124623782Y-39672431D01*
X124298233Y-39823046D01*
X123990860Y-40007986D01*
X123705303Y-40225062D01*
X123694502Y-40235292D01*
X100505496Y-40235292D01*
X100494692Y-40225059D01*
X100209139Y-40007986D01*
X99901766Y-39823046D01*
X99576217Y-39672431D01*
X99236284Y-39557894D01*
X98885959Y-39480782D01*
X98529358Y-39442000D01*
X98170642Y-39442000D01*
X97814040Y-39480782D01*
X97463715Y-39557894D01*
X97123782Y-39672431D01*
X96798233Y-39823046D01*
X96490860Y-40007986D01*
X96205303Y-40225062D01*
X96194502Y-40235292D01*
X88650500Y-40235292D01*
X88650500Y-38876500D01*
X88667381Y-38813500D01*
X88713500Y-38767381D01*
X88776500Y-38750500D01*
X135473500Y-38750500D01*
X135536500Y-38767381D01*
G37*
G04 #@! TD.AperFunction*
M02*
