%FSLAX45Y45*%
G04 Gerber Fmt 4.5, Leading zero omitted, Abs format (unit mm)*
G04 Created by KiCad (PCBNEW (6.0.5-0)) date 2023-01-12 14:04:50*
%MOMM*%
%LPD*%
G01*
G04 APERTURE LIST*
%TA.AperFunction,Profile*%
%ADD10C,0.150000*%
%TD*%
%ADD11C,0.200000*%
%ADD12C,0.065000*%
G04 APERTURE END LIST*
D10*
X10033610Y-5248910D02*
G75*
G03*
X9833610Y-5448910I0J-200000D01*
G01*
X9833610Y-14637410D02*
G75*
G03*
X10033610Y-14837410I200000J0D01*
G01*
X18650610Y-14837410D02*
G75*
G03*
X18850610Y-14637410I0J200000D01*
G01*
X15427610Y-5249910D02*
X15300610Y-5338810D01*
X14221110Y-5338810D02*
X14093110Y-5248910D01*
X14093110Y-5248910D02*
X10033610Y-5248910D01*
X18850610Y-14637410D02*
X18850610Y-5448910D01*
X18850610Y-5448910D02*
G75*
G03*
X18650610Y-5248910I-200000J0D01*
G01*
X18650610Y-5248910D02*
X15427610Y-5249910D01*
X9833610Y-5448910D02*
X9833610Y-14637410D01*
X10033610Y-14837410D02*
X18650610Y-14837410D01*
X15300610Y-5338810D02*
X14221110Y-5338810D01*
D11*
D12*
X14434160Y-5876180D02*
X14499160Y-5941180D01*
X14499160Y-5876180D02*
X14434160Y-5941180D01*
X15012160Y-5876180D02*
X15077160Y-5941180D01*
X15077160Y-5876180D02*
X15012160Y-5941180D01*
D11*
X10083729Y-15155386D02*
X10083729Y-14955386D01*
X10131348Y-14955386D01*
X10159920Y-14964910D01*
X10178967Y-14983958D01*
X10188491Y-15003005D01*
X10198015Y-15041100D01*
X10198015Y-15069672D01*
X10188491Y-15107767D01*
X10178967Y-15126815D01*
X10159920Y-15145862D01*
X10131348Y-15155386D01*
X10083729Y-15155386D01*
X10283729Y-15155386D02*
X10283729Y-15022053D01*
X10283729Y-15060148D02*
X10293253Y-15041100D01*
X10302777Y-15031577D01*
X10321824Y-15022053D01*
X10340872Y-15022053D01*
X10407539Y-15155386D02*
X10407539Y-15022053D01*
X10407539Y-14955386D02*
X10398015Y-14964910D01*
X10407539Y-14974434D01*
X10417062Y-14964910D01*
X10407539Y-14955386D01*
X10407539Y-14974434D01*
X10531348Y-15155386D02*
X10512300Y-15145862D01*
X10502777Y-15126815D01*
X10502777Y-14955386D01*
X10636110Y-15155386D02*
X10617062Y-15145862D01*
X10607539Y-15126815D01*
X10607539Y-14955386D01*
X10864681Y-15155386D02*
X10864681Y-14955386D01*
X10931348Y-15098243D01*
X10998015Y-14955386D01*
X10998015Y-15155386D01*
X11178967Y-15155386D02*
X11178967Y-15050624D01*
X11169443Y-15031577D01*
X11150396Y-15022053D01*
X11112300Y-15022053D01*
X11093253Y-15031577D01*
X11178967Y-15145862D02*
X11159920Y-15155386D01*
X11112300Y-15155386D01*
X11093253Y-15145862D01*
X11083729Y-15126815D01*
X11083729Y-15107767D01*
X11093253Y-15088719D01*
X11112300Y-15079196D01*
X11159920Y-15079196D01*
X11178967Y-15069672D01*
X11274205Y-15022053D02*
X11274205Y-15222053D01*
X11274205Y-15031577D02*
X11293253Y-15022053D01*
X11331348Y-15022053D01*
X11350396Y-15031577D01*
X11359919Y-15041100D01*
X11369443Y-15060148D01*
X11369443Y-15117291D01*
X11359919Y-15136338D01*
X11350396Y-15145862D01*
X11331348Y-15155386D01*
X11293253Y-15155386D01*
X11274205Y-15145862D01*
X11455158Y-15136338D02*
X11464681Y-15145862D01*
X11455158Y-15155386D01*
X11445634Y-15145862D01*
X11455158Y-15136338D01*
X11455158Y-15155386D01*
X11455158Y-15031577D02*
X11464681Y-15041100D01*
X11455158Y-15050624D01*
X11445634Y-15041100D01*
X11455158Y-15031577D01*
X11455158Y-15050624D01*
D12*
X9761110Y-15452410D02*
X9826110Y-15517410D01*
X9826110Y-15452410D02*
X9761110Y-15517410D01*
D11*
X10121824Y-15375386D02*
X10140872Y-15375386D01*
X10159920Y-15384910D01*
X10169443Y-15394434D01*
X10178967Y-15413481D01*
X10188491Y-15451577D01*
X10188491Y-15499196D01*
X10178967Y-15537291D01*
X10169443Y-15556338D01*
X10159920Y-15565862D01*
X10140872Y-15575386D01*
X10121824Y-15575386D01*
X10102777Y-15565862D01*
X10093253Y-15556338D01*
X10083729Y-15537291D01*
X10074205Y-15499196D01*
X10074205Y-15451577D01*
X10083729Y-15413481D01*
X10093253Y-15394434D01*
X10102777Y-15384910D01*
X10121824Y-15375386D01*
X10274205Y-15556338D02*
X10283729Y-15565862D01*
X10274205Y-15575386D01*
X10264681Y-15565862D01*
X10274205Y-15556338D01*
X10274205Y-15575386D01*
X10455158Y-15375386D02*
X10417062Y-15375386D01*
X10398015Y-15384910D01*
X10388491Y-15394434D01*
X10369443Y-15423005D01*
X10359920Y-15461100D01*
X10359920Y-15537291D01*
X10369443Y-15556338D01*
X10378967Y-15565862D01*
X10398015Y-15575386D01*
X10436110Y-15575386D01*
X10455158Y-15565862D01*
X10464681Y-15556338D01*
X10474205Y-15537291D01*
X10474205Y-15489672D01*
X10464681Y-15470624D01*
X10455158Y-15461100D01*
X10436110Y-15451577D01*
X10398015Y-15451577D01*
X10378967Y-15461100D01*
X10369443Y-15470624D01*
X10359920Y-15489672D01*
X10655158Y-15375386D02*
X10559920Y-15375386D01*
X10550396Y-15470624D01*
X10559920Y-15461100D01*
X10578967Y-15451577D01*
X10626586Y-15451577D01*
X10645634Y-15461100D01*
X10655158Y-15470624D01*
X10664681Y-15489672D01*
X10664681Y-15537291D01*
X10655158Y-15556338D01*
X10645634Y-15565862D01*
X10626586Y-15575386D01*
X10578967Y-15575386D01*
X10559920Y-15565862D01*
X10550396Y-15556338D01*
X10788491Y-15375386D02*
X10807539Y-15375386D01*
X10826586Y-15384910D01*
X10836110Y-15394434D01*
X10845634Y-15413481D01*
X10855158Y-15451577D01*
X10855158Y-15499196D01*
X10845634Y-15537291D01*
X10836110Y-15556338D01*
X10826586Y-15565862D01*
X10807539Y-15575386D01*
X10788491Y-15575386D01*
X10769443Y-15565862D01*
X10759920Y-15556338D01*
X10750396Y-15537291D01*
X10740872Y-15499196D01*
X10740872Y-15451577D01*
X10750396Y-15413481D01*
X10759920Y-15394434D01*
X10769443Y-15384910D01*
X10788491Y-15375386D01*
X10940872Y-15575386D02*
X10940872Y-15442053D01*
X10940872Y-15461100D02*
X10950396Y-15451577D01*
X10969443Y-15442053D01*
X10998015Y-15442053D01*
X11017062Y-15451577D01*
X11026586Y-15470624D01*
X11026586Y-15575386D01*
X11026586Y-15470624D02*
X11036110Y-15451577D01*
X11055158Y-15442053D01*
X11083729Y-15442053D01*
X11102777Y-15451577D01*
X11112300Y-15470624D01*
X11112300Y-15575386D01*
X11207538Y-15575386D02*
X11207538Y-15442053D01*
X11207538Y-15461100D02*
X11217062Y-15451577D01*
X11236110Y-15442053D01*
X11264681Y-15442053D01*
X11283729Y-15451577D01*
X11293253Y-15470624D01*
X11293253Y-15575386D01*
X11293253Y-15470624D02*
X11302777Y-15451577D01*
X11321824Y-15442053D01*
X11350396Y-15442053D01*
X11369443Y-15451577D01*
X11378967Y-15470624D01*
X11378967Y-15575386D01*
X11769443Y-15365862D02*
X11598015Y-15623005D01*
X12026586Y-15375386D02*
X12045634Y-15375386D01*
X12064681Y-15384910D01*
X12074205Y-15394434D01*
X12083729Y-15413481D01*
X12093253Y-15451577D01*
X12093253Y-15499196D01*
X12083729Y-15537291D01*
X12074205Y-15556338D01*
X12064681Y-15565862D01*
X12045634Y-15575386D01*
X12026586Y-15575386D01*
X12007538Y-15565862D01*
X11998015Y-15556338D01*
X11988491Y-15537291D01*
X11978967Y-15499196D01*
X11978967Y-15451577D01*
X11988491Y-15413481D01*
X11998015Y-15394434D01*
X12007538Y-15384910D01*
X12026586Y-15375386D01*
X12178967Y-15556338D02*
X12188491Y-15565862D01*
X12178967Y-15575386D01*
X12169443Y-15565862D01*
X12178967Y-15556338D01*
X12178967Y-15575386D01*
X12312300Y-15375386D02*
X12331348Y-15375386D01*
X12350396Y-15384910D01*
X12359919Y-15394434D01*
X12369443Y-15413481D01*
X12378967Y-15451577D01*
X12378967Y-15499196D01*
X12369443Y-15537291D01*
X12359919Y-15556338D01*
X12350396Y-15565862D01*
X12331348Y-15575386D01*
X12312300Y-15575386D01*
X12293253Y-15565862D01*
X12283729Y-15556338D01*
X12274205Y-15537291D01*
X12264681Y-15499196D01*
X12264681Y-15451577D01*
X12274205Y-15413481D01*
X12283729Y-15394434D01*
X12293253Y-15384910D01*
X12312300Y-15375386D01*
X12455158Y-15394434D02*
X12464681Y-15384910D01*
X12483729Y-15375386D01*
X12531348Y-15375386D01*
X12550396Y-15384910D01*
X12559919Y-15394434D01*
X12569443Y-15413481D01*
X12569443Y-15432529D01*
X12559919Y-15461100D01*
X12445634Y-15575386D01*
X12569443Y-15575386D01*
X12750396Y-15375386D02*
X12655158Y-15375386D01*
X12645634Y-15470624D01*
X12655158Y-15461100D01*
X12674205Y-15451577D01*
X12721824Y-15451577D01*
X12740872Y-15461100D01*
X12750396Y-15470624D01*
X12759919Y-15489672D01*
X12759919Y-15537291D01*
X12750396Y-15556338D01*
X12740872Y-15565862D01*
X12721824Y-15575386D01*
X12674205Y-15575386D01*
X12655158Y-15565862D01*
X12645634Y-15556338D01*
X12931348Y-15375386D02*
X12893253Y-15375386D01*
X12874205Y-15384910D01*
X12864681Y-15394434D01*
X12845634Y-15423005D01*
X12836110Y-15461100D01*
X12836110Y-15537291D01*
X12845634Y-15556338D01*
X12855158Y-15565862D01*
X12874205Y-15575386D01*
X12912300Y-15575386D01*
X12931348Y-15565862D01*
X12940872Y-15556338D01*
X12950396Y-15537291D01*
X12950396Y-15489672D01*
X12940872Y-15470624D01*
X12931348Y-15461100D01*
X12912300Y-15451577D01*
X12874205Y-15451577D01*
X12855158Y-15461100D01*
X12845634Y-15470624D01*
X12836110Y-15489672D01*
X13026586Y-15375386D02*
X13026586Y-15413481D01*
X13102777Y-15375386D02*
X13102777Y-15413481D01*
X13398015Y-15651577D02*
X13388491Y-15642053D01*
X13369443Y-15613481D01*
X13359919Y-15594434D01*
X13350396Y-15565862D01*
X13340872Y-15518243D01*
X13340872Y-15480148D01*
X13350396Y-15432529D01*
X13359919Y-15403958D01*
X13369443Y-15384910D01*
X13388491Y-15356338D01*
X13398015Y-15346815D01*
X13464681Y-15394434D02*
X13474205Y-15384910D01*
X13493253Y-15375386D01*
X13540872Y-15375386D01*
X13559919Y-15384910D01*
X13569443Y-15394434D01*
X13578967Y-15413481D01*
X13578967Y-15432529D01*
X13569443Y-15461100D01*
X13455158Y-15575386D01*
X13578967Y-15575386D01*
X13817062Y-15575386D02*
X13817062Y-15375386D01*
X13902777Y-15575386D02*
X13902777Y-15470624D01*
X13893253Y-15451577D01*
X13874205Y-15442053D01*
X13845634Y-15442053D01*
X13826586Y-15451577D01*
X13817062Y-15461100D01*
X14026586Y-15575386D02*
X14007538Y-15565862D01*
X13998015Y-15556338D01*
X13988491Y-15537291D01*
X13988491Y-15480148D01*
X13998015Y-15461100D01*
X14007538Y-15451577D01*
X14026586Y-15442053D01*
X14055158Y-15442053D01*
X14074205Y-15451577D01*
X14083729Y-15461100D01*
X14093253Y-15480148D01*
X14093253Y-15537291D01*
X14083729Y-15556338D01*
X14074205Y-15565862D01*
X14055158Y-15575386D01*
X14026586Y-15575386D01*
X14207538Y-15575386D02*
X14188491Y-15565862D01*
X14178967Y-15546815D01*
X14178967Y-15375386D01*
X14359919Y-15565862D02*
X14340872Y-15575386D01*
X14302777Y-15575386D01*
X14283729Y-15565862D01*
X14274205Y-15546815D01*
X14274205Y-15470624D01*
X14283729Y-15451577D01*
X14302777Y-15442053D01*
X14340872Y-15442053D01*
X14359919Y-15451577D01*
X14369443Y-15470624D01*
X14369443Y-15489672D01*
X14274205Y-15508719D01*
X14445634Y-15565862D02*
X14464681Y-15575386D01*
X14502777Y-15575386D01*
X14521824Y-15565862D01*
X14531348Y-15546815D01*
X14531348Y-15537291D01*
X14521824Y-15518243D01*
X14502777Y-15508719D01*
X14474205Y-15508719D01*
X14455158Y-15499196D01*
X14445634Y-15480148D01*
X14445634Y-15470624D01*
X14455158Y-15451577D01*
X14474205Y-15442053D01*
X14502777Y-15442053D01*
X14521824Y-15451577D01*
X14598015Y-15651577D02*
X14607538Y-15642053D01*
X14626586Y-15613481D01*
X14636110Y-15594434D01*
X14645634Y-15565862D01*
X14655158Y-15518243D01*
X14655158Y-15480148D01*
X14645634Y-15432529D01*
X14636110Y-15403958D01*
X14626586Y-15384910D01*
X14607538Y-15356338D01*
X14598015Y-15346815D01*
X14959919Y-15651577D02*
X14950396Y-15642053D01*
X14931348Y-15613481D01*
X14921824Y-15594434D01*
X14912300Y-15565862D01*
X14902777Y-15518243D01*
X14902777Y-15480148D01*
X14912300Y-15432529D01*
X14921824Y-15403958D01*
X14931348Y-15384910D01*
X14950396Y-15356338D01*
X14959919Y-15346815D01*
X15036110Y-15442053D02*
X15036110Y-15575386D01*
X15036110Y-15461100D02*
X15045634Y-15451577D01*
X15064681Y-15442053D01*
X15093253Y-15442053D01*
X15112300Y-15451577D01*
X15121824Y-15470624D01*
X15121824Y-15575386D01*
X15245634Y-15575386D02*
X15226586Y-15565862D01*
X15217062Y-15556338D01*
X15207538Y-15537291D01*
X15207538Y-15480148D01*
X15217062Y-15461100D01*
X15226586Y-15451577D01*
X15245634Y-15442053D01*
X15274205Y-15442053D01*
X15293253Y-15451577D01*
X15302777Y-15461100D01*
X15312300Y-15480148D01*
X15312300Y-15537291D01*
X15302777Y-15556338D01*
X15293253Y-15565862D01*
X15274205Y-15575386D01*
X15245634Y-15575386D01*
X15369443Y-15442053D02*
X15445634Y-15442053D01*
X15398015Y-15375386D02*
X15398015Y-15546815D01*
X15407538Y-15565862D01*
X15426586Y-15575386D01*
X15445634Y-15575386D01*
X15664681Y-15442053D02*
X15664681Y-15642053D01*
X15664681Y-15451577D02*
X15683729Y-15442053D01*
X15721824Y-15442053D01*
X15740872Y-15451577D01*
X15750396Y-15461100D01*
X15759919Y-15480148D01*
X15759919Y-15537291D01*
X15750396Y-15556338D01*
X15740872Y-15565862D01*
X15721824Y-15575386D01*
X15683729Y-15575386D01*
X15664681Y-15565862D01*
X15874205Y-15575386D02*
X15855158Y-15565862D01*
X15845634Y-15546815D01*
X15845634Y-15375386D01*
X16036110Y-15575386D02*
X16036110Y-15470624D01*
X16026586Y-15451577D01*
X16007538Y-15442053D01*
X15969443Y-15442053D01*
X15950396Y-15451577D01*
X16036110Y-15565862D02*
X16017062Y-15575386D01*
X15969443Y-15575386D01*
X15950396Y-15565862D01*
X15940872Y-15546815D01*
X15940872Y-15527767D01*
X15950396Y-15508719D01*
X15969443Y-15499196D01*
X16017062Y-15499196D01*
X16036110Y-15489672D01*
X16102777Y-15442053D02*
X16178967Y-15442053D01*
X16131348Y-15375386D02*
X16131348Y-15546815D01*
X16140872Y-15565862D01*
X16159919Y-15575386D01*
X16178967Y-15575386D01*
X16321824Y-15565862D02*
X16302777Y-15575386D01*
X16264681Y-15575386D01*
X16245634Y-15565862D01*
X16236110Y-15546815D01*
X16236110Y-15470624D01*
X16245634Y-15451577D01*
X16264681Y-15442053D01*
X16302777Y-15442053D01*
X16321824Y-15451577D01*
X16331348Y-15470624D01*
X16331348Y-15489672D01*
X16236110Y-15508719D01*
X16502777Y-15575386D02*
X16502777Y-15375386D01*
X16502777Y-15565862D02*
X16483729Y-15575386D01*
X16445634Y-15575386D01*
X16426586Y-15565862D01*
X16417062Y-15556338D01*
X16407538Y-15537291D01*
X16407538Y-15480148D01*
X16417062Y-15461100D01*
X16426586Y-15451577D01*
X16445634Y-15442053D01*
X16483729Y-15442053D01*
X16502777Y-15451577D01*
X16578967Y-15651577D02*
X16588491Y-15642053D01*
X16607538Y-15613481D01*
X16617062Y-15594434D01*
X16626586Y-15565862D01*
X16636110Y-15518243D01*
X16636110Y-15480148D01*
X16626586Y-15432529D01*
X16617062Y-15403958D01*
X16607538Y-15384910D01*
X16588491Y-15356338D01*
X16578967Y-15346815D01*
M02*
