G04 #@! TF.GenerationSoftware,KiCad,Pcbnew,(6.0.5-0)*
G04 #@! TF.CreationDate,2023-01-12T14:03:17-08:00*
G04 #@! TF.ProjectId,mainboard,6d61696e-626f-4617-9264-2e6b69636164,rev?*
G04 #@! TF.SameCoordinates,Original*
G04 #@! TF.FileFunction,Paste,Bot*
G04 #@! TF.FilePolarity,Positive*
%FSLAX46Y46*%
G04 Gerber Fmt 4.6, Leading zero omitted, Abs format (unit mm)*
G04 Created by KiCad (PCBNEW (6.0.5-0)) date 2023-01-12 14:03:17*
%MOMM*%
%LPD*%
G01*
G04 APERTURE LIST*
G04 Aperture macros list*
%AMRoundRect*
0 Rectangle with rounded corners*
0 $1 Rounding radius*
0 $2 $3 $4 $5 $6 $7 $8 $9 X,Y pos of 4 corners*
0 Add a 4 corners polygon primitive as box body*
4,1,4,$2,$3,$4,$5,$6,$7,$8,$9,$2,$3,0*
0 Add four circle primitives for the rounded corners*
1,1,$1+$1,$2,$3*
1,1,$1+$1,$4,$5*
1,1,$1+$1,$6,$7*
1,1,$1+$1,$8,$9*
0 Add four rect primitives between the rounded corners*
20,1,$1+$1,$2,$3,$4,$5,0*
20,1,$1+$1,$4,$5,$6,$7,0*
20,1,$1+$1,$6,$7,$8,$9,0*
20,1,$1+$1,$8,$9,$2,$3,0*%
G04 Aperture macros list end*
%ADD10RoundRect,0.218750X-0.218750X-0.256250X0.218750X-0.256250X0.218750X0.256250X-0.218750X0.256250X0*%
%ADD11RoundRect,0.218750X0.256250X-0.218750X0.256250X0.218750X-0.256250X0.218750X-0.256250X-0.218750X0*%
%ADD12RoundRect,0.218750X-0.256250X0.218750X-0.256250X-0.218750X0.256250X-0.218750X0.256250X0.218750X0*%
%ADD13R,0.609600X2.209800*%
%ADD14R,1.320800X0.558800*%
%ADD15R,1.240000X0.800000*%
%ADD16R,1.200000X1.160000*%
%ADD17R,2.500000X0.950000*%
%ADD18R,2.200000X1.150000*%
%ADD19R,1.150000X1.500000*%
%ADD20R,1.250000X1.160000*%
%ADD21RoundRect,0.218750X0.218750X0.256250X-0.218750X0.256250X-0.218750X-0.256250X0.218750X-0.256250X0*%
%ADD22RoundRect,0.150000X-0.725000X-0.150000X0.725000X-0.150000X0.725000X0.150000X-0.725000X0.150000X0*%
%ADD23R,0.300000X0.800000*%
%ADD24R,0.800000X0.300000*%
%ADD25R,2.800000X2.800000*%
%ADD26RoundRect,0.177600X-0.222400X-0.822400X0.222400X-0.822400X0.222400X0.822400X-0.222400X0.822400X0*%
%ADD27R,0.600000X0.400000*%
%ADD28R,0.650000X0.400000*%
%ADD29R,0.900000X1.400000*%
%ADD30R,2.200000X1.400000*%
G04 APERTURE END LIST*
D10*
X134467500Y-100076000D03*
X136042500Y-100076000D03*
D11*
X151892000Y-105816500D03*
X151892000Y-104241500D03*
X149098000Y-105816500D03*
X149098000Y-104241500D03*
D12*
X164211000Y-99501696D03*
X164211000Y-101076696D03*
D13*
X135509000Y-134696200D03*
X134239000Y-134696200D03*
X132969000Y-134696200D03*
X131699000Y-134696200D03*
X131699000Y-129463800D03*
X132969000Y-129463800D03*
X134239000Y-129463800D03*
X135509000Y-129463800D03*
D10*
X121865600Y-136954096D03*
X123440600Y-136954096D03*
X121865600Y-134795096D03*
X123440600Y-134795096D03*
D12*
X129921000Y-134340500D03*
X129921000Y-135915500D03*
D14*
X125713800Y-136890596D03*
X125713800Y-134985596D03*
X127593400Y-135938096D03*
D10*
X142214500Y-94361000D03*
X143789500Y-94361000D03*
X142468500Y-98425000D03*
X144043500Y-98425000D03*
D15*
X116708000Y-98573000D03*
X116708000Y-99673000D03*
X116708000Y-100773000D03*
X116708000Y-101873000D03*
X116708000Y-102973000D03*
X116708000Y-104073000D03*
X116708000Y-105173000D03*
X116708000Y-106273000D03*
D16*
X128338000Y-108213000D03*
D17*
X117338000Y-94228000D03*
D18*
X117188000Y-108618000D03*
X128668000Y-94328000D03*
D19*
X129463000Y-98633000D03*
X129463000Y-106413000D03*
D20*
X119338000Y-108213000D03*
D12*
X146431000Y-107416500D03*
X146431000Y-108991500D03*
D21*
X140487500Y-101854000D03*
X138912500Y-101854000D03*
D22*
X134331000Y-97917000D03*
X134331000Y-96647000D03*
X134331000Y-95377000D03*
X134331000Y-94107000D03*
X139481000Y-94107000D03*
X139481000Y-95377000D03*
X139481000Y-96647000D03*
X139481000Y-97917000D03*
D10*
X147269100Y-61798200D03*
X148844100Y-61798200D03*
D23*
X151150000Y-64294000D03*
X151650000Y-64294000D03*
X152150000Y-64294000D03*
X152650000Y-64294000D03*
X153150000Y-64294000D03*
X153650000Y-64294000D03*
D24*
X154400000Y-65044000D03*
X154400000Y-65544000D03*
X154400000Y-66044000D03*
X154400000Y-66544000D03*
X154400000Y-67044000D03*
X154400000Y-67544000D03*
D23*
X153650000Y-68294000D03*
X153150000Y-68294000D03*
X152650000Y-68294000D03*
X152150000Y-68294000D03*
X151650000Y-68294000D03*
X151150000Y-68294000D03*
D24*
X150400000Y-67544000D03*
X150400000Y-67044000D03*
X150400000Y-66544000D03*
X150400000Y-66044000D03*
X150400000Y-65544000D03*
X150400000Y-65044000D03*
D25*
X152400000Y-66294000D03*
D21*
X158267500Y-65278000D03*
X156692500Y-65278000D03*
D11*
X148666200Y-67818100D03*
X148666200Y-66243100D03*
D21*
X162001300Y-62941200D03*
X160426300Y-62941200D03*
X148818700Y-64414400D03*
X147243700Y-64414400D03*
D10*
X156692500Y-62941200D03*
X158267500Y-62941200D03*
D21*
X148844100Y-63093600D03*
X147269100Y-63093600D03*
D12*
X162433000Y-99501696D03*
X162433000Y-101076696D03*
D21*
X156108500Y-104517000D03*
X154533500Y-104517000D03*
D10*
X148945500Y-98933000D03*
X150520500Y-98933000D03*
D21*
X162001300Y-61214000D03*
X160426300Y-61214000D03*
D26*
X147320000Y-70231000D03*
X149720000Y-70231000D03*
D10*
X147548500Y-83058000D03*
X149123500Y-83058000D03*
D12*
X159893000Y-99542500D03*
X159893000Y-101117500D03*
X164211000Y-96367500D03*
X164211000Y-97942500D03*
X168021000Y-96367500D03*
X168021000Y-97942500D03*
D27*
X158181000Y-98059000D03*
X158181000Y-97409000D03*
X158181000Y-96759000D03*
X160081000Y-96759000D03*
X160081000Y-97409000D03*
X160081000Y-98059000D03*
D28*
X166182000Y-91201000D03*
X166182000Y-90551000D03*
X166182000Y-89901000D03*
X168082000Y-89901000D03*
X168082000Y-90551000D03*
X168082000Y-91201000D03*
D27*
X166182000Y-95138000D03*
X166182000Y-94488000D03*
X166182000Y-93838000D03*
X168082000Y-93838000D03*
X168082000Y-94488000D03*
X168082000Y-95138000D03*
D10*
X147548500Y-88392000D03*
X149123500Y-88392000D03*
D21*
X149123500Y-81534000D03*
X147548500Y-81534000D03*
X149123500Y-74676000D03*
X147548500Y-74676000D03*
D10*
X147548500Y-76200000D03*
X149123500Y-76200000D03*
X154406500Y-91567000D03*
X155981500Y-91567000D03*
D11*
X158369000Y-101117500D03*
X158369000Y-99542500D03*
D10*
X162534500Y-87249000D03*
X164109500Y-87249000D03*
X166344500Y-87249000D03*
X167919500Y-87249000D03*
X162534500Y-88646000D03*
X164109500Y-88646000D03*
X166344500Y-88646000D03*
X167919500Y-88646000D03*
D11*
X166370000Y-97942500D03*
X166370000Y-96367500D03*
D28*
X162372000Y-91201000D03*
X162372000Y-90551000D03*
X162372000Y-89901000D03*
X164272000Y-89901000D03*
X164272000Y-90551000D03*
X164272000Y-91201000D03*
D27*
X162372000Y-95138000D03*
X162372000Y-94488000D03*
X162372000Y-93838000D03*
X164272000Y-93838000D03*
X164272000Y-94488000D03*
X164272000Y-95138000D03*
D28*
X158181000Y-94122000D03*
X158181000Y-93472000D03*
X158181000Y-92822000D03*
X160081000Y-92822000D03*
X160081000Y-93472000D03*
X160081000Y-94122000D03*
D11*
X155956000Y-101117500D03*
X155956000Y-99542500D03*
D27*
X154244000Y-98059000D03*
X154244000Y-97409000D03*
X154244000Y-96759000D03*
X156144000Y-96759000D03*
X156144000Y-97409000D03*
X156144000Y-98059000D03*
D12*
X154432000Y-99542500D03*
X154432000Y-101117500D03*
D10*
X158343500Y-91567000D03*
X159918500Y-91567000D03*
D11*
X162433000Y-97942500D03*
X162433000Y-96367500D03*
D12*
X166370000Y-99504400D03*
X166370000Y-101079400D03*
X167894000Y-99479000D03*
X167894000Y-101054000D03*
D11*
X169926000Y-100990500D03*
X169926000Y-99415500D03*
D29*
X162486000Y-67500500D03*
D30*
X159936000Y-67500500D03*
D28*
X147386000Y-78755000D03*
X147386000Y-78105000D03*
X147386000Y-77455000D03*
X149286000Y-77455000D03*
X149286000Y-78105000D03*
X149286000Y-78755000D03*
X147386000Y-85613000D03*
X147386000Y-84963000D03*
X147386000Y-84313000D03*
X149286000Y-84313000D03*
X149286000Y-84963000D03*
X149286000Y-85613000D03*
D21*
X149123500Y-80010000D03*
X147548500Y-80010000D03*
D10*
X147548500Y-86868000D03*
X149123500Y-86868000D03*
D28*
X154244000Y-94122000D03*
X154244000Y-93472000D03*
X154244000Y-92822000D03*
X156144000Y-92822000D03*
X156144000Y-93472000D03*
X156144000Y-94122000D03*
D10*
X138912500Y-103632000D03*
X140487500Y-103632000D03*
X134467500Y-101727000D03*
X136042500Y-101727000D03*
D12*
X132969000Y-125069500D03*
X132969000Y-126644500D03*
M02*
