G04 #@! TF.GenerationSoftware,KiCad,Pcbnew,(6.0.5-0)*
G04 #@! TF.CreationDate,2023-01-12T14:03:18-08:00*
G04 #@! TF.ProjectId,mainboard,6d61696e-626f-4617-9264-2e6b69636164,rev?*
G04 #@! TF.SameCoordinates,Original*
G04 #@! TF.FileFunction,Soldermask,Top*
G04 #@! TF.FilePolarity,Negative*
%FSLAX46Y46*%
G04 Gerber Fmt 4.6, Leading zero omitted, Abs format (unit mm)*
G04 Created by KiCad (PCBNEW (6.0.5-0)) date 2023-01-12 14:03:18*
%MOMM*%
%LPD*%
G01*
G04 APERTURE LIST*
G04 Aperture macros list*
%AMRoundRect*
0 Rectangle with rounded corners*
0 $1 Rounding radius*
0 $2 $3 $4 $5 $6 $7 $8 $9 X,Y pos of 4 corners*
0 Add a 4 corners polygon primitive as box body*
4,1,4,$2,$3,$4,$5,$6,$7,$8,$9,$2,$3,0*
0 Add four circle primitives for the rounded corners*
1,1,$1+$1,$2,$3*
1,1,$1+$1,$4,$5*
1,1,$1+$1,$6,$7*
1,1,$1+$1,$8,$9*
0 Add four rect primitives between the rounded corners*
20,1,$1+$1,$2,$3,$4,$5,0*
20,1,$1+$1,$4,$5,$6,$7,0*
20,1,$1+$1,$6,$7,$8,$9,0*
20,1,$1+$1,$8,$9,$2,$3,0*%
%AMFreePoly0*
4,1,42,0.785921,0.985921,0.800800,0.950000,0.800800,-0.950000,0.785921,-0.985921,0.750000,-1.000800,0.000000,-1.000800,-0.012493,-0.995625,-0.095799,-0.994317,-0.107892,-0.992660,-0.270578,-0.949981,-0.281927,-0.945488,-0.429737,-0.865233,-0.439686,-0.858162,-0.564086,-0.744967,-0.572062,-0.735727,-0.665870,-0.596126,-0.671411,-0.585251,-0.729211,-0.427304,-0.731998,-0.415421,-0.749646,-0.255575,
-0.748541,-0.255453,-0.750800,-0.250000,-0.750800,0.250000,-0.750374,0.251027,-0.750455,0.251757,-0.750327,0.263961,-0.728373,0.430714,-0.725338,0.442536,-0.664242,0.599239,-0.658474,0.609996,-0.561763,0.747601,-0.553596,0.756672,-0.426853,0.867237,-0.416757,0.874098,-0.267299,0.951239,-0.255859,0.955493,-0.092315,0.994757,-0.080190,0.996160,-0.012063,0.995804,0.000000,1.000800,
0.750000,1.000800,0.785921,0.985921,0.785921,0.985921,$1*%
%AMFreePoly1*
4,1,41,0.012372,0.995676,0.087999,0.995279,0.100109,0.993750,0.263234,0.952776,0.274629,0.948401,0.423270,0.869699,0.433293,0.862733,0.558872,0.750847,0.566944,0.741691,0.662209,0.603080,0.667864,0.592263,0.727315,0.434929,0.730226,0.423076,0.750432,0.256103,0.750800,0.250000,0.750800,-0.250000,0.750797,-0.250534,0.750643,-0.265194,0.750139,-0.271818,0.726441,-0.438331,
0.723282,-0.450121,0.660549,-0.606176,0.654669,-0.616872,0.556522,-0.753457,0.548260,-0.762442,0.420366,-0.871674,0.410200,-0.878428,0.259943,-0.954000,0.248458,-0.958135,0.084511,-0.995683,0.072372,-0.996959,0.011580,-0.996004,0.000000,-1.000800,-0.750000,-1.000800,-0.785921,-0.985921,-0.800800,-0.950000,-0.800800,0.950000,-0.785921,0.985921,-0.750000,1.000800,0.000000,1.000800,
0.012372,0.995676,0.012372,0.995676,$1*%
G04 Aperture macros list end*
%ADD10C,0.190500*%
%ADD11C,0.010000*%
%ADD12RoundRect,0.063500X-0.450000X-0.700000X0.450000X-0.700000X0.450000X0.700000X-0.450000X0.700000X0*%
%ADD13RoundRect,0.063500X-1.100000X-0.700000X1.100000X-0.700000X1.100000X0.700000X-1.100000X0.700000X0*%
%ADD14RoundRect,0.063500X-0.939800X0.939800X-0.939800X-0.939800X0.939800X-0.939800X0.939800X0.939800X0*%
%ADD15C,2.006600*%
%ADD16RoundRect,0.063500X0.939800X-0.939800X0.939800X0.939800X-0.939800X0.939800X-0.939800X-0.939800X0*%
%ADD17RoundRect,0.063500X-0.939800X-0.939800X0.939800X-0.939800X0.939800X0.939800X-0.939800X0.939800X0*%
%ADD18RoundRect,0.063500X0.939800X0.939800X-0.939800X0.939800X-0.939800X-0.939800X0.939800X-0.939800X0*%
%ADD19RoundRect,0.063500X1.016000X-1.016000X1.016000X1.016000X-1.016000X1.016000X-1.016000X-1.016000X0*%
%ADD20C,2.159000*%
%ADD21RoundRect,0.269550X0.218750X0.256250X-0.218750X0.256250X-0.218750X-0.256250X0.218750X-0.256250X0*%
%ADD22RoundRect,0.269550X-0.256250X0.218750X-0.256250X-0.218750X0.256250X-0.218750X0.256250X0.218750X0*%
%ADD23RoundRect,0.269550X-0.218750X-0.256250X0.218750X-0.256250X0.218750X0.256250X-0.218750X0.256250X0*%
%ADD24RoundRect,0.269550X0.256250X-0.218750X0.256250X0.218750X-0.256250X0.218750X-0.256250X-0.218750X0*%
%ADD25RoundRect,0.063500X-0.152400X0.800100X-0.152400X-0.800100X0.152400X-0.800100X0.152400X0.800100X0*%
%ADD26RoundRect,0.063500X-1.230000X1.155000X-1.230000X-1.155000X1.230000X-1.155000X1.230000X1.155000X0*%
%ADD27RoundRect,0.063500X-0.660400X0.279400X-0.660400X-0.279400X0.660400X-0.279400X0.660400X0.279400X0*%
%ADD28RoundRect,0.050800X0.150000X0.737500X-0.150000X0.737500X-0.150000X-0.737500X0.150000X-0.737500X0*%
%ADD29RoundRect,0.050800X0.737500X-0.150000X0.737500X0.150000X-0.737500X0.150000X-0.737500X-0.150000X0*%
%ADD30RoundRect,0.050800X1.104900X-0.304800X1.104900X0.304800X-1.104900X0.304800X-1.104900X-0.304800X0*%
%ADD31RoundRect,0.050800X0.304800X1.104900X-0.304800X1.104900X-0.304800X-1.104900X0.304800X-1.104900X0*%
%ADD32RoundRect,0.300800X-0.312500X-1.450000X0.312500X-1.450000X0.312500X1.450000X-0.312500X1.450000X0*%
%ADD33RoundRect,0.063500X1.143000X0.990600X-1.143000X0.990600X-1.143000X-0.990600X1.143000X-0.990600X0*%
%ADD34RoundRect,0.063500X0.990600X-1.143000X0.990600X1.143000X-0.990600X1.143000X-0.990600X-1.143000X0*%
%ADD35O,1.801600X1.801600*%
%ADD36RoundRect,0.063500X-0.600000X-0.225000X0.600000X-0.225000X0.600000X0.225000X-0.600000X0.225000X0*%
%ADD37RoundRect,0.063500X1.050000X-1.050000X1.050000X1.050000X-1.050000X1.050000X-1.050000X-1.050000X0*%
%ADD38RoundRect,0.063500X-0.350000X0.125000X-0.350000X-0.125000X0.350000X-0.125000X0.350000X0.125000X0*%
%ADD39RoundRect,0.063500X0.125000X0.350000X-0.125000X0.350000X-0.125000X-0.350000X0.125000X-0.350000X0*%
%ADD40RoundRect,0.063500X0.350000X-0.125000X0.350000X0.125000X-0.350000X0.125000X-0.350000X-0.125000X0*%
%ADD41RoundRect,0.063500X-0.125000X-0.350000X0.125000X-0.350000X0.125000X0.350000X-0.125000X0.350000X0*%
%ADD42RoundRect,0.063500X0.725000X-0.725000X0.725000X0.725000X-0.725000X0.725000X-0.725000X-0.725000X0*%
%ADD43C,5.701600*%
%ADD44C,2.000000*%
%ADD45C,0.751600*%
%ADD46RoundRect,0.050800X0.300000X0.575000X-0.300000X0.575000X-0.300000X-0.575000X0.300000X-0.575000X0*%
%ADD47RoundRect,0.050800X0.150000X0.575000X-0.150000X0.575000X-0.150000X-0.575000X0.150000X-0.575000X0*%
%ADD48O,1.101600X2.201600*%
%ADD49O,1.101600X1.701600*%
%ADD50C,2.133600*%
%ADD51C,2.151600*%
%ADD52C,2.351600*%
%ADD53RoundRect,0.050800X0.750000X0.500000X-0.750000X0.500000X-0.750000X-0.500000X0.750000X-0.500000X0*%
%ADD54RoundRect,0.050800X-0.125000X-0.337500X0.125000X-0.337500X0.125000X0.337500X-0.125000X0.337500X0*%
%ADD55RoundRect,0.050800X-0.337500X0.125000X-0.337500X-0.125000X0.337500X-0.125000X0.337500X0.125000X0*%
%ADD56RoundRect,0.300800X-0.450000X0.325000X-0.450000X-0.325000X0.450000X-0.325000X0.450000X0.325000X0*%
%ADD57RoundRect,0.294550X-0.243750X-0.456250X0.243750X-0.456250X0.243750X0.456250X-0.243750X0.456250X0*%
%ADD58RoundRect,0.050800X0.500000X0.900000X-0.500000X0.900000X-0.500000X-0.900000X0.500000X-0.900000X0*%
%ADD59RoundRect,0.300800X-1.425000X0.425000X-1.425000X-0.425000X1.425000X-0.425000X1.425000X0.425000X0*%
%ADD60RoundRect,0.383800X-1.767000X0.417000X-1.767000X-0.417000X1.767000X-0.417000X1.767000X0.417000X0*%
%ADD61RoundRect,0.063500X-0.279400X-0.660400X0.279400X-0.660400X0.279400X0.660400X-0.279400X0.660400X0*%
%ADD62RoundRect,0.300800X1.075000X-0.375000X1.075000X0.375000X-1.075000X0.375000X-1.075000X-0.375000X0*%
%ADD63RoundRect,0.050800X-0.165100X0.675000X-0.165100X-0.675000X0.165100X-0.675000X0.165100X0.675000X0*%
%ADD64RoundRect,0.063500X-0.650000X1.000000X-0.650000X-1.000000X0.650000X-1.000000X0.650000X1.000000X0*%
%ADD65RoundRect,0.063500X-2.400000X2.849999X-2.400000X-2.849999X2.400000X-2.849999X2.400000X2.849999X0*%
%ADD66RoundRect,0.050800X0.450000X-0.450000X0.450000X0.450000X-0.450000X0.450000X-0.450000X-0.450000X0*%
%ADD67RoundRect,0.050800X0.200000X-0.325000X0.200000X0.325000X-0.200000X0.325000X-0.200000X-0.325000X0*%
%ADD68RoundRect,0.050800X0.400000X-0.450000X0.400000X0.450000X-0.400000X0.450000X-0.400000X-0.450000X0*%
%ADD69RoundRect,0.050800X1.000000X-0.325000X1.000000X0.325000X-1.000000X0.325000X-1.000000X-0.325000X0*%
%ADD70RoundRect,0.050800X-1.000000X-1.600000X1.000000X-1.600000X1.000000X1.600000X-1.000000X1.600000X0*%
%ADD71FreePoly0,270.000000*%
%ADD72RoundRect,0.050800X-0.950000X0.700000X-0.950000X-0.700000X0.950000X-0.700000X0.950000X0.700000X0*%
%ADD73FreePoly1,270.000000*%
%ADD74RoundRect,0.050800X0.325000X0.762500X-0.325000X0.762500X-0.325000X-0.762500X0.325000X-0.762500X0*%
%ADD75C,1.509600*%
%ADD76C,1.371600*%
%ADD77RoundRect,0.063500X-1.016000X1.016000X-1.016000X-1.016000X1.016000X-1.016000X1.016000X1.016000X0*%
%ADD78C,1.501600*%
G04 APERTURE END LIST*
D10*
X110018285Y-105246714D02*
X110780285Y-105246714D01*
X110417428Y-105246714D02*
X110417428Y-105682142D01*
X110018285Y-105682142D02*
X110780285Y-105682142D01*
X110780285Y-106190142D02*
X110780285Y-106335285D01*
X110744000Y-106407857D01*
X110671428Y-106480428D01*
X110526285Y-106516714D01*
X110272285Y-106516714D01*
X110127142Y-106480428D01*
X110054571Y-106407857D01*
X110018285Y-106335285D01*
X110018285Y-106190142D01*
X110054571Y-106117571D01*
X110127142Y-106045000D01*
X110272285Y-106008714D01*
X110526285Y-106008714D01*
X110671428Y-106045000D01*
X110744000Y-106117571D01*
X110780285Y-106190142D01*
X110018285Y-107206142D02*
X110018285Y-106843285D01*
X110780285Y-106843285D01*
X110018285Y-107823000D02*
X110018285Y-107460142D01*
X110780285Y-107460142D01*
X110018285Y-108077000D02*
X110780285Y-108077000D01*
X110018285Y-108439857D02*
X110780285Y-108439857D01*
X110780285Y-108621285D01*
X110744000Y-108730142D01*
X110671428Y-108802714D01*
X110598857Y-108839000D01*
X110453714Y-108875285D01*
X110344857Y-108875285D01*
X110199714Y-108839000D01*
X110127142Y-108802714D01*
X110054571Y-108730142D01*
X110018285Y-108621285D01*
X110018285Y-108439857D01*
X110236000Y-109165571D02*
X110236000Y-109528428D01*
X110018285Y-109093000D02*
X110780285Y-109347000D01*
X110018285Y-109601000D01*
X110381142Y-110000142D02*
X110018285Y-110000142D01*
X110780285Y-109746142D02*
X110381142Y-110000142D01*
X110780285Y-110254142D01*
G36*
X137274300Y-143764000D02*
G01*
X136410700Y-143764000D01*
X136264793Y-143764156D01*
X136126701Y-143764609D01*
X135998474Y-143765333D01*
X135882163Y-143766300D01*
X135779822Y-143767486D01*
X135693501Y-143768864D01*
X135625253Y-143770408D01*
X135577129Y-143772092D01*
X135551181Y-143773890D01*
X135547100Y-143774958D01*
X135545356Y-143790088D01*
X135540454Y-143826792D01*
X135532891Y-143881513D01*
X135523162Y-143950689D01*
X135511763Y-144030759D01*
X135502650Y-144094200D01*
X135490330Y-144180205D01*
X135479323Y-144258123D01*
X135470127Y-144324347D01*
X135463238Y-144375269D01*
X135459153Y-144407280D01*
X135458227Y-144416616D01*
X135467784Y-144421750D01*
X135497295Y-144425740D01*
X135548053Y-144428656D01*
X135621352Y-144430565D01*
X135718486Y-144431538D01*
X135740802Y-144431626D01*
X135890970Y-144434129D01*
X136021819Y-144441186D01*
X136139151Y-144453621D01*
X136248772Y-144472261D01*
X136356486Y-144497932D01*
X136468098Y-144531459D01*
X136487359Y-144537826D01*
X136644782Y-144597037D01*
X136782813Y-144663842D01*
X136907089Y-144741509D01*
X137023245Y-144833306D01*
X137069207Y-144875194D01*
X137183418Y-144998862D01*
X137277247Y-145135252D01*
X137351948Y-145286518D01*
X137408780Y-145454816D01*
X137410033Y-145459450D01*
X137421602Y-145504014D01*
X137430229Y-145542979D01*
X137436349Y-145581297D01*
X137440393Y-145623918D01*
X137442793Y-145675791D01*
X137443984Y-145741869D01*
X137444396Y-145827101D01*
X137444429Y-145853150D01*
X137444236Y-145946034D01*
X137443240Y-146018142D01*
X137441097Y-146074089D01*
X137437465Y-146118496D01*
X137431999Y-146155979D01*
X137424356Y-146191156D01*
X137417322Y-146217615D01*
X137365218Y-146377096D01*
X137301428Y-146520336D01*
X137221859Y-146655334D01*
X137127692Y-146783523D01*
X136999591Y-146923369D01*
X136851578Y-147048036D01*
X136684409Y-147157111D01*
X136498836Y-147250184D01*
X136295615Y-147326844D01*
X136075499Y-147386678D01*
X135989200Y-147404609D01*
X135932224Y-147412555D01*
X135854824Y-147419093D01*
X135761941Y-147424162D01*
X135658515Y-147427706D01*
X135549486Y-147429666D01*
X135439795Y-147429985D01*
X135334381Y-147428604D01*
X135238187Y-147425466D01*
X135156151Y-147420512D01*
X135102600Y-147415013D01*
X134900474Y-147381950D01*
X134705350Y-147338157D01*
X134589082Y-147305553D01*
X134514867Y-147281392D01*
X134445136Y-147255966D01*
X134383822Y-147230985D01*
X134334860Y-147208161D01*
X134302184Y-147189202D01*
X134289728Y-147175820D01*
X134289706Y-147175424D01*
X134292483Y-147160447D01*
X134300285Y-147124672D01*
X134312255Y-147071739D01*
X134327532Y-147005288D01*
X134345260Y-146928960D01*
X134364578Y-146846396D01*
X134384630Y-146761236D01*
X134404556Y-146677122D01*
X134423498Y-146597692D01*
X134440597Y-146526589D01*
X134454994Y-146467452D01*
X134465832Y-146423922D01*
X134472252Y-146399641D01*
X134473549Y-146395840D01*
X134485854Y-146398627D01*
X134516491Y-146408908D01*
X134560163Y-146424846D01*
X134589542Y-146436023D01*
X134780515Y-146500861D01*
X134989157Y-146554559D01*
X135077200Y-146572927D01*
X135140277Y-146584258D01*
X135199982Y-146592311D01*
X135262980Y-146597595D01*
X135335931Y-146600619D01*
X135425499Y-146601892D01*
X135458200Y-146602012D01*
X135573833Y-146600576D01*
X135670049Y-146595047D01*
X135752654Y-146584309D01*
X135827457Y-146567243D01*
X135900264Y-146542731D01*
X135976882Y-146509655D01*
X136003052Y-146497129D01*
X136079347Y-146452540D01*
X136154812Y-146395354D01*
X136222965Y-146331389D01*
X136277319Y-146266464D01*
X136299904Y-146230775D01*
X136344862Y-146123486D01*
X136368483Y-146009535D01*
X136371335Y-145893148D01*
X136353983Y-145778552D01*
X136316996Y-145669972D01*
X136260939Y-145571634D01*
X136202263Y-145502704D01*
X136114803Y-145428554D01*
X136014421Y-145366210D01*
X135899160Y-145315031D01*
X135767063Y-145274379D01*
X135616173Y-145243615D01*
X135444535Y-145222098D01*
X135313498Y-145212339D01*
X135223896Y-145208951D01*
X135121567Y-145207931D01*
X135012387Y-145209088D01*
X134902229Y-145212228D01*
X134796969Y-145217159D01*
X134702482Y-145223687D01*
X134624642Y-145231622D01*
X134594600Y-145235924D01*
X134555368Y-145241279D01*
X134527575Y-145243098D01*
X134519051Y-145241862D01*
X134519870Y-145228918D01*
X134523613Y-145192928D01*
X134530013Y-145136043D01*
X134538803Y-145060415D01*
X134549718Y-144968196D01*
X134562490Y-144861538D01*
X134576854Y-144742593D01*
X134592543Y-144613514D01*
X134609291Y-144476452D01*
X134626831Y-144333558D01*
X134644896Y-144186987D01*
X134663221Y-144038888D01*
X134681540Y-143891414D01*
X134699584Y-143746718D01*
X134717089Y-143606951D01*
X134733788Y-143474265D01*
X134749415Y-143350813D01*
X134763702Y-143238746D01*
X134776384Y-143140216D01*
X134787195Y-143057375D01*
X134795867Y-142992376D01*
X134802135Y-142947370D01*
X134805732Y-142924509D01*
X134806149Y-142922624D01*
X134808210Y-142918932D01*
X134813250Y-142915671D01*
X134822756Y-142912816D01*
X134838218Y-142910339D01*
X134861124Y-142908214D01*
X134892963Y-142906413D01*
X134935225Y-142904911D01*
X134989398Y-142903681D01*
X135056970Y-142902695D01*
X135139431Y-142901927D01*
X135238269Y-142901350D01*
X135354974Y-142900938D01*
X135491033Y-142900664D01*
X135647937Y-142900500D01*
X135827173Y-142900421D01*
X136030230Y-142900400D01*
X137274300Y-142900400D01*
X137274300Y-143764000D01*
G37*
D11*
X137274300Y-143764000D02*
X136410700Y-143764000D01*
X136264793Y-143764156D01*
X136126701Y-143764609D01*
X135998474Y-143765333D01*
X135882163Y-143766300D01*
X135779822Y-143767486D01*
X135693501Y-143768864D01*
X135625253Y-143770408D01*
X135577129Y-143772092D01*
X135551181Y-143773890D01*
X135547100Y-143774958D01*
X135545356Y-143790088D01*
X135540454Y-143826792D01*
X135532891Y-143881513D01*
X135523162Y-143950689D01*
X135511763Y-144030759D01*
X135502650Y-144094200D01*
X135490330Y-144180205D01*
X135479323Y-144258123D01*
X135470127Y-144324347D01*
X135463238Y-144375269D01*
X135459153Y-144407280D01*
X135458227Y-144416616D01*
X135467784Y-144421750D01*
X135497295Y-144425740D01*
X135548053Y-144428656D01*
X135621352Y-144430565D01*
X135718486Y-144431538D01*
X135740802Y-144431626D01*
X135890970Y-144434129D01*
X136021819Y-144441186D01*
X136139151Y-144453621D01*
X136248772Y-144472261D01*
X136356486Y-144497932D01*
X136468098Y-144531459D01*
X136487359Y-144537826D01*
X136644782Y-144597037D01*
X136782813Y-144663842D01*
X136907089Y-144741509D01*
X137023245Y-144833306D01*
X137069207Y-144875194D01*
X137183418Y-144998862D01*
X137277247Y-145135252D01*
X137351948Y-145286518D01*
X137408780Y-145454816D01*
X137410033Y-145459450D01*
X137421602Y-145504014D01*
X137430229Y-145542979D01*
X137436349Y-145581297D01*
X137440393Y-145623918D01*
X137442793Y-145675791D01*
X137443984Y-145741869D01*
X137444396Y-145827101D01*
X137444429Y-145853150D01*
X137444236Y-145946034D01*
X137443240Y-146018142D01*
X137441097Y-146074089D01*
X137437465Y-146118496D01*
X137431999Y-146155979D01*
X137424356Y-146191156D01*
X137417322Y-146217615D01*
X137365218Y-146377096D01*
X137301428Y-146520336D01*
X137221859Y-146655334D01*
X137127692Y-146783523D01*
X136999591Y-146923369D01*
X136851578Y-147048036D01*
X136684409Y-147157111D01*
X136498836Y-147250184D01*
X136295615Y-147326844D01*
X136075499Y-147386678D01*
X135989200Y-147404609D01*
X135932224Y-147412555D01*
X135854824Y-147419093D01*
X135761941Y-147424162D01*
X135658515Y-147427706D01*
X135549486Y-147429666D01*
X135439795Y-147429985D01*
X135334381Y-147428604D01*
X135238187Y-147425466D01*
X135156151Y-147420512D01*
X135102600Y-147415013D01*
X134900474Y-147381950D01*
X134705350Y-147338157D01*
X134589082Y-147305553D01*
X134514867Y-147281392D01*
X134445136Y-147255966D01*
X134383822Y-147230985D01*
X134334860Y-147208161D01*
X134302184Y-147189202D01*
X134289728Y-147175820D01*
X134289706Y-147175424D01*
X134292483Y-147160447D01*
X134300285Y-147124672D01*
X134312255Y-147071739D01*
X134327532Y-147005288D01*
X134345260Y-146928960D01*
X134364578Y-146846396D01*
X134384630Y-146761236D01*
X134404556Y-146677122D01*
X134423498Y-146597692D01*
X134440597Y-146526589D01*
X134454994Y-146467452D01*
X134465832Y-146423922D01*
X134472252Y-146399641D01*
X134473549Y-146395840D01*
X134485854Y-146398627D01*
X134516491Y-146408908D01*
X134560163Y-146424846D01*
X134589542Y-146436023D01*
X134780515Y-146500861D01*
X134989157Y-146554559D01*
X135077200Y-146572927D01*
X135140277Y-146584258D01*
X135199982Y-146592311D01*
X135262980Y-146597595D01*
X135335931Y-146600619D01*
X135425499Y-146601892D01*
X135458200Y-146602012D01*
X135573833Y-146600576D01*
X135670049Y-146595047D01*
X135752654Y-146584309D01*
X135827457Y-146567243D01*
X135900264Y-146542731D01*
X135976882Y-146509655D01*
X136003052Y-146497129D01*
X136079347Y-146452540D01*
X136154812Y-146395354D01*
X136222965Y-146331389D01*
X136277319Y-146266464D01*
X136299904Y-146230775D01*
X136344862Y-146123486D01*
X136368483Y-146009535D01*
X136371335Y-145893148D01*
X136353983Y-145778552D01*
X136316996Y-145669972D01*
X136260939Y-145571634D01*
X136202263Y-145502704D01*
X136114803Y-145428554D01*
X136014421Y-145366210D01*
X135899160Y-145315031D01*
X135767063Y-145274379D01*
X135616173Y-145243615D01*
X135444535Y-145222098D01*
X135313498Y-145212339D01*
X135223896Y-145208951D01*
X135121567Y-145207931D01*
X135012387Y-145209088D01*
X134902229Y-145212228D01*
X134796969Y-145217159D01*
X134702482Y-145223687D01*
X134624642Y-145231622D01*
X134594600Y-145235924D01*
X134555368Y-145241279D01*
X134527575Y-145243098D01*
X134519051Y-145241862D01*
X134519870Y-145228918D01*
X134523613Y-145192928D01*
X134530013Y-145136043D01*
X134538803Y-145060415D01*
X134549718Y-144968196D01*
X134562490Y-144861538D01*
X134576854Y-144742593D01*
X134592543Y-144613514D01*
X134609291Y-144476452D01*
X134626831Y-144333558D01*
X134644896Y-144186987D01*
X134663221Y-144038888D01*
X134681540Y-143891414D01*
X134699584Y-143746718D01*
X134717089Y-143606951D01*
X134733788Y-143474265D01*
X134749415Y-143350813D01*
X134763702Y-143238746D01*
X134776384Y-143140216D01*
X134787195Y-143057375D01*
X134795867Y-142992376D01*
X134802135Y-142947370D01*
X134805732Y-142924509D01*
X134806149Y-142922624D01*
X134808210Y-142918932D01*
X134813250Y-142915671D01*
X134822756Y-142912816D01*
X134838218Y-142910339D01*
X134861124Y-142908214D01*
X134892963Y-142906413D01*
X134935225Y-142904911D01*
X134989398Y-142903681D01*
X135056970Y-142902695D01*
X135139431Y-142901927D01*
X135238269Y-142901350D01*
X135354974Y-142900938D01*
X135491033Y-142900664D01*
X135647937Y-142900500D01*
X135827173Y-142900421D01*
X136030230Y-142900400D01*
X137274300Y-142900400D01*
X137274300Y-143764000D01*
G36*
X132668241Y-145843625D02*
G01*
X132703192Y-145964909D01*
X132737225Y-146084677D01*
X132769387Y-146199460D01*
X132798724Y-146305787D01*
X132824284Y-146400189D01*
X132845115Y-146479196D01*
X132860263Y-146539338D01*
X132866102Y-146564350D01*
X132879890Y-146623147D01*
X132892342Y-146669865D01*
X132902300Y-146700612D01*
X132908604Y-146711495D01*
X132909577Y-146710400D01*
X132914654Y-146691655D01*
X132923919Y-146653054D01*
X132936215Y-146599574D01*
X132950386Y-146536189D01*
X132956186Y-146509788D01*
X132968493Y-146456913D01*
X132986687Y-146383433D01*
X133009764Y-146293188D01*
X133036716Y-146190019D01*
X133066539Y-146077768D01*
X133098226Y-145960276D01*
X133130772Y-145841383D01*
X133139092Y-145811288D01*
X133282304Y-145294350D01*
X133628272Y-145290969D01*
X133733005Y-145290127D01*
X133814880Y-145289957D01*
X133876431Y-145290564D01*
X133920195Y-145292052D01*
X133948707Y-145294525D01*
X133964501Y-145298087D01*
X133970114Y-145302844D01*
X133970095Y-145305027D01*
X133965134Y-145319310D01*
X133951953Y-145355637D01*
X133931204Y-145412253D01*
X133903535Y-145487399D01*
X133869598Y-145579319D01*
X133830040Y-145686256D01*
X133785513Y-145806453D01*
X133736666Y-145938154D01*
X133684149Y-146079600D01*
X133628611Y-146229037D01*
X133584950Y-146346420D01*
X133203950Y-147370374D01*
X132878283Y-147370587D01*
X132778486Y-147370532D01*
X132701145Y-147370093D01*
X132643315Y-147369075D01*
X132602054Y-147367285D01*
X132574418Y-147364530D01*
X132557463Y-147360614D01*
X132548245Y-147355345D01*
X132543839Y-147348575D01*
X132534169Y-147323143D01*
X132517084Y-147277162D01*
X132493352Y-147212747D01*
X132463741Y-147132013D01*
X132429019Y-147037078D01*
X132389954Y-146930055D01*
X132347312Y-146813061D01*
X132301863Y-146688212D01*
X132254372Y-146557622D01*
X132205609Y-146423409D01*
X132156341Y-146287687D01*
X132107335Y-146152572D01*
X132059359Y-146020180D01*
X132013181Y-145892626D01*
X131969568Y-145772026D01*
X131929289Y-145660496D01*
X131893111Y-145560152D01*
X131861801Y-145473108D01*
X131836127Y-145401481D01*
X131816857Y-145347387D01*
X131804759Y-145312940D01*
X131800600Y-145300267D01*
X131813016Y-145296510D01*
X131849140Y-145293365D01*
X131907289Y-145290888D01*
X131985775Y-145289139D01*
X132082914Y-145288176D01*
X132153769Y-145288000D01*
X132506938Y-145288000D01*
X132668241Y-145843625D01*
G37*
X132668241Y-145843625D02*
X132703192Y-145964909D01*
X132737225Y-146084677D01*
X132769387Y-146199460D01*
X132798724Y-146305787D01*
X132824284Y-146400189D01*
X132845115Y-146479196D01*
X132860263Y-146539338D01*
X132866102Y-146564350D01*
X132879890Y-146623147D01*
X132892342Y-146669865D01*
X132902300Y-146700612D01*
X132908604Y-146711495D01*
X132909577Y-146710400D01*
X132914654Y-146691655D01*
X132923919Y-146653054D01*
X132936215Y-146599574D01*
X132950386Y-146536189D01*
X132956186Y-146509788D01*
X132968493Y-146456913D01*
X132986687Y-146383433D01*
X133009764Y-146293188D01*
X133036716Y-146190019D01*
X133066539Y-146077768D01*
X133098226Y-145960276D01*
X133130772Y-145841383D01*
X133139092Y-145811288D01*
X133282304Y-145294350D01*
X133628272Y-145290969D01*
X133733005Y-145290127D01*
X133814880Y-145289957D01*
X133876431Y-145290564D01*
X133920195Y-145292052D01*
X133948707Y-145294525D01*
X133964501Y-145298087D01*
X133970114Y-145302844D01*
X133970095Y-145305027D01*
X133965134Y-145319310D01*
X133951953Y-145355637D01*
X133931204Y-145412253D01*
X133903535Y-145487399D01*
X133869598Y-145579319D01*
X133830040Y-145686256D01*
X133785513Y-145806453D01*
X133736666Y-145938154D01*
X133684149Y-146079600D01*
X133628611Y-146229037D01*
X133584950Y-146346420D01*
X133203950Y-147370374D01*
X132878283Y-147370587D01*
X132778486Y-147370532D01*
X132701145Y-147370093D01*
X132643315Y-147369075D01*
X132602054Y-147367285D01*
X132574418Y-147364530D01*
X132557463Y-147360614D01*
X132548245Y-147355345D01*
X132543839Y-147348575D01*
X132534169Y-147323143D01*
X132517084Y-147277162D01*
X132493352Y-147212747D01*
X132463741Y-147132013D01*
X132429019Y-147037078D01*
X132389954Y-146930055D01*
X132347312Y-146813061D01*
X132301863Y-146688212D01*
X132254372Y-146557622D01*
X132205609Y-146423409D01*
X132156341Y-146287687D01*
X132107335Y-146152572D01*
X132059359Y-146020180D01*
X132013181Y-145892626D01*
X131969568Y-145772026D01*
X131929289Y-145660496D01*
X131893111Y-145560152D01*
X131861801Y-145473108D01*
X131836127Y-145401481D01*
X131816857Y-145347387D01*
X131804759Y-145312940D01*
X131800600Y-145300267D01*
X131813016Y-145296510D01*
X131849140Y-145293365D01*
X131907289Y-145290888D01*
X131985775Y-145289139D01*
X132082914Y-145288176D01*
X132153769Y-145288000D01*
X132506938Y-145288000D01*
X132668241Y-145843625D01*
D12*
X183568000Y-106474096D03*
D13*
X181018000Y-106474096D03*
D14*
X102800100Y-87233596D03*
D15*
X102546100Y-89773596D03*
X102800100Y-92313596D03*
D16*
X184269100Y-102981596D03*
D15*
X184523100Y-100441596D03*
X184269100Y-97901596D03*
D17*
X112649000Y-144145000D03*
D15*
X115189000Y-144399000D03*
X117729000Y-144145000D03*
D18*
X123605600Y-56711096D03*
D15*
X121065600Y-56457096D03*
X118525600Y-56711096D03*
D19*
X180708100Y-77816296D03*
D20*
X180708100Y-73960696D03*
D19*
X180708100Y-85171896D03*
D20*
X180708100Y-81316296D03*
D21*
X176809500Y-95377000D03*
X175234500Y-95377000D03*
D22*
X174053500Y-103733500D03*
X174053500Y-105308500D03*
D23*
X176475600Y-105966096D03*
X178050600Y-105966096D03*
D24*
X168402000Y-105308500D03*
X168402000Y-103733500D03*
D23*
X175205600Y-99097896D03*
X176780600Y-99097896D03*
X175205600Y-102235000D03*
X176780600Y-102235000D03*
D22*
X166291134Y-99501696D03*
X166291134Y-101076696D03*
D23*
X178028500Y-91694000D03*
X179603500Y-91694000D03*
D25*
X158766134Y-77289496D03*
X158116121Y-77289496D03*
X157466112Y-77289496D03*
X156816100Y-77289496D03*
X156166088Y-77289496D03*
X155516079Y-77289496D03*
X154866066Y-77289496D03*
X154866066Y-82826696D03*
X155516079Y-82826696D03*
X156166088Y-82826696D03*
X156816100Y-82826696D03*
X157466112Y-82826696D03*
X158116121Y-82826696D03*
X158766134Y-82826696D03*
D26*
X156816100Y-80058096D03*
D23*
X148945500Y-87630000D03*
X150520500Y-87630000D03*
X148853100Y-85090000D03*
X150428100Y-85090000D03*
D24*
X158178500Y-86703000D03*
X158178500Y-85128000D03*
D21*
X153568500Y-76517500D03*
X151993500Y-76517500D03*
X156299000Y-75057000D03*
X154724000Y-75057000D03*
D27*
X177783800Y-87995596D03*
X177783800Y-89900596D03*
X179663400Y-88948096D03*
D22*
X166751000Y-103733500D03*
X166751000Y-105308500D03*
D23*
X162661500Y-76962000D03*
X164236500Y-76962000D03*
D28*
X142300000Y-110259000D03*
X142800000Y-110259000D03*
X143300000Y-110259000D03*
X143800000Y-110259000D03*
X144300000Y-110259000D03*
X144800000Y-110259000D03*
X145300000Y-110259000D03*
X145800000Y-110259000D03*
X146300000Y-110259000D03*
X146800000Y-110259000D03*
X147300000Y-110259000D03*
X147800000Y-110259000D03*
X148300000Y-110259000D03*
X148800000Y-110259000D03*
X149300000Y-110259000D03*
X149800000Y-110259000D03*
D29*
X151788000Y-108271000D03*
X151788000Y-107771000D03*
X151788000Y-107271000D03*
X151788000Y-106771000D03*
X151788000Y-106271000D03*
X151788000Y-105771000D03*
X151788000Y-105271000D03*
X151788000Y-104771000D03*
X151788000Y-104271000D03*
X151788000Y-103771000D03*
X151788000Y-103271000D03*
X151788000Y-102771000D03*
X151788000Y-102271000D03*
X151788000Y-101771000D03*
X151788000Y-101271000D03*
X151788000Y-100771000D03*
D28*
X149800000Y-98783000D03*
X149300000Y-98783000D03*
X148800000Y-98783000D03*
X148300000Y-98783000D03*
X147800000Y-98783000D03*
X147300000Y-98783000D03*
X146800000Y-98783000D03*
X146300000Y-98783000D03*
X145800000Y-98783000D03*
X145300000Y-98783000D03*
X144800000Y-98783000D03*
X144300000Y-98783000D03*
X143800000Y-98783000D03*
X143300000Y-98783000D03*
X142800000Y-98783000D03*
X142300000Y-98783000D03*
D29*
X140312000Y-100771000D03*
X140312000Y-101271000D03*
X140312000Y-101771000D03*
X140312000Y-102271000D03*
X140312000Y-102771000D03*
X140312000Y-103271000D03*
X140312000Y-103771000D03*
X140312000Y-104271000D03*
X140312000Y-104771000D03*
X140312000Y-105271000D03*
X140312000Y-105771000D03*
X140312000Y-106271000D03*
X140312000Y-106771000D03*
X140312000Y-107271000D03*
X140312000Y-107771000D03*
X140312000Y-108271000D03*
D30*
X107518200Y-98425000D03*
X107518200Y-97155000D03*
X107518200Y-95885000D03*
X107518200Y-94615000D03*
X102285800Y-94615000D03*
X102285800Y-95885000D03*
X102285800Y-97155000D03*
X102285800Y-98425000D03*
D22*
X102115100Y-101046596D03*
X102115100Y-102621596D03*
D27*
X106839604Y-102679500D03*
X106839604Y-104584500D03*
X108719204Y-103632000D03*
D21*
X108356500Y-100330000D03*
X106781500Y-100330000D03*
D31*
X185420000Y-89712800D03*
X184150000Y-89712800D03*
X182880000Y-89712800D03*
X181610000Y-89712800D03*
X181610000Y-94945200D03*
X182880000Y-94945200D03*
X184150000Y-94945200D03*
X185420000Y-94945200D03*
D32*
X169058500Y-96012000D03*
X173333500Y-96012000D03*
D33*
X123949460Y-87617300D03*
X123949460Y-85077300D03*
X123949460Y-82537300D03*
X123949460Y-79997300D03*
X123949460Y-77457300D03*
X123949460Y-74917300D03*
X123949460Y-72377300D03*
X123949460Y-69837300D03*
X123949460Y-67297300D03*
D34*
X121663460Y-64757300D03*
X119123460Y-64757300D03*
X116583460Y-64757300D03*
X114043460Y-64757300D03*
X111503460Y-64757300D03*
D33*
X109217460Y-67297300D03*
X109217460Y-69837300D03*
X109217460Y-72377300D03*
X109217460Y-74917300D03*
X109217460Y-77457300D03*
X109217460Y-79997300D03*
X109217460Y-82537300D03*
X109217460Y-85077300D03*
X109217460Y-87617300D03*
X144269460Y-87617300D03*
X144269460Y-85077300D03*
X144269460Y-82537300D03*
X144269460Y-79997300D03*
X144269460Y-77457300D03*
X144269460Y-74917300D03*
X144269460Y-72377300D03*
X144269460Y-69837300D03*
X144269460Y-67297300D03*
D34*
X141983460Y-64757300D03*
X139443460Y-64757300D03*
X136903460Y-64757300D03*
X134363460Y-64757300D03*
X131823460Y-64757300D03*
D33*
X129537460Y-67297300D03*
X129537460Y-69837300D03*
X129537460Y-72377300D03*
X129537460Y-74917300D03*
X129537460Y-77457300D03*
X129537460Y-79997300D03*
X129537460Y-82537300D03*
X129537460Y-85077300D03*
X129537460Y-87617300D03*
D23*
X135991500Y-100330000D03*
X137566500Y-100330000D03*
D35*
X132384800Y-105816400D03*
X132384800Y-108356400D03*
X132384800Y-110896400D03*
X132384800Y-113436400D03*
X132384800Y-115976400D03*
D36*
X154996000Y-104521000D03*
X154996000Y-105791000D03*
X154996000Y-107061000D03*
X154996000Y-108331000D03*
X160726000Y-108331000D03*
X160726000Y-107061000D03*
X160726000Y-105791000D03*
X160726000Y-104521000D03*
D37*
X157861000Y-106426000D03*
D23*
X154533500Y-95377000D03*
X156108500Y-95377000D03*
D38*
X172316100Y-101046496D03*
X172316100Y-100546496D03*
X172316100Y-100046496D03*
X172316100Y-99546496D03*
D39*
X171766100Y-98996496D03*
X171266100Y-98996496D03*
X170766100Y-98996496D03*
X170266100Y-98996496D03*
D40*
X169716100Y-99546496D03*
X169716100Y-100046496D03*
X169716100Y-100546496D03*
X169716100Y-101046496D03*
D41*
X170266100Y-101596496D03*
X170766100Y-101596496D03*
X171266100Y-101596496D03*
X171766100Y-101596496D03*
D42*
X171016100Y-100296496D03*
D35*
X115697000Y-91567000D03*
X118237000Y-91567000D03*
X120777000Y-91567000D03*
X123317000Y-91567000D03*
X125857000Y-91567000D03*
X128397000Y-91567000D03*
X130937000Y-91567000D03*
X133477000Y-91567000D03*
X136017000Y-91567000D03*
D21*
X137566500Y-109601000D03*
X135991500Y-109601000D03*
D43*
X105966100Y-57569100D03*
X103426100Y-143294100D03*
X183426100Y-143294100D03*
X179626100Y-57569100D03*
D44*
X100330000Y-146558000D03*
D16*
X184277000Y-125984000D03*
D15*
X184531000Y-123444000D03*
X184277000Y-120904000D03*
D17*
X168148000Y-144145000D03*
D15*
X170688000Y-144399000D03*
X173228000Y-144145000D03*
D45*
X150446600Y-59086800D03*
X144666600Y-59086800D03*
D46*
X150756600Y-60061800D03*
X149956600Y-60061800D03*
D47*
X148806600Y-60061800D03*
X147806600Y-60061800D03*
X147306600Y-60061800D03*
X146306600Y-60061800D03*
D46*
X145156600Y-60061800D03*
X144356600Y-60061800D03*
D47*
X145806600Y-60061800D03*
X146806600Y-60061800D03*
X148306600Y-60061800D03*
X149306600Y-60061800D03*
D48*
X143236600Y-59586800D03*
D49*
X143236600Y-55436800D03*
X151876600Y-55436800D03*
D48*
X151876600Y-59586800D03*
D50*
X156892300Y-67485096D03*
X156892300Y-59865096D03*
X167052300Y-67485096D03*
X174672300Y-59865096D03*
X174672300Y-67485096D03*
D24*
X154051000Y-57155500D03*
X154051000Y-55580500D03*
D22*
X158254700Y-54711500D03*
X158254700Y-56286500D03*
D51*
X183007000Y-134684096D03*
D52*
X185547000Y-132144096D03*
X180467000Y-137224096D03*
X180467000Y-132144096D03*
X185547000Y-137224096D03*
D21*
X153949500Y-66776600D03*
X152374500Y-66776600D03*
D23*
X148437500Y-71818500D03*
X150012500Y-71818500D03*
D22*
X159194500Y-73761500D03*
X159194500Y-75336500D03*
D23*
X151866500Y-73279000D03*
X153441500Y-73279000D03*
D51*
X104111100Y-134684096D03*
D52*
X106651100Y-132144096D03*
X101571100Y-137224096D03*
X101571100Y-132144096D03*
X106651100Y-137224096D03*
D53*
X138086000Y-60274000D03*
X138086000Y-57074000D03*
X133186000Y-57074000D03*
X133186000Y-60274000D03*
D23*
X168440000Y-110147100D03*
X170015000Y-110147100D03*
D21*
X156108500Y-102997000D03*
X154533500Y-102997000D03*
D22*
X162433000Y-99501696D03*
X162433000Y-101076696D03*
D54*
X158635000Y-101973000D03*
X159135000Y-101973000D03*
X159635000Y-101973000D03*
X160135000Y-101973000D03*
D55*
X160397000Y-101211000D03*
X160397000Y-100711000D03*
X160397000Y-100211000D03*
D54*
X160135000Y-99449000D03*
X159635000Y-99449000D03*
X159135000Y-99449000D03*
X158635000Y-99449000D03*
D55*
X158373000Y-100211000D03*
X158373000Y-100711000D03*
X158373000Y-101211000D03*
D24*
X164211000Y-101076696D03*
X164211000Y-99501696D03*
D22*
X163195000Y-104670596D03*
X163195000Y-106245596D03*
D23*
X135991500Y-106934000D03*
X137566500Y-106934000D03*
D21*
X137566500Y-98552000D03*
X135991500Y-98552000D03*
D56*
X137287000Y-102226000D03*
X137287000Y-104276000D03*
D23*
X175205600Y-100700296D03*
X176780600Y-100700296D03*
X175234500Y-97536000D03*
X176809500Y-97536000D03*
D24*
X140589000Y-59207500D03*
X140589000Y-57632500D03*
D21*
X157505500Y-73279000D03*
X155930500Y-73279000D03*
D23*
X148399500Y-70231000D03*
X149974500Y-70231000D03*
D57*
X124857030Y-64643000D03*
X126732030Y-64643000D03*
X126732030Y-64643000D03*
X128607030Y-64643000D03*
D23*
X154533500Y-99949000D03*
X156108500Y-99949000D03*
X154533500Y-101473000D03*
X156108500Y-101473000D03*
D21*
X160045500Y-96901000D03*
X158470500Y-96901000D03*
X156108500Y-98425000D03*
X154533500Y-98425000D03*
D24*
X162433000Y-97942500D03*
X162433000Y-96367500D03*
X164211000Y-97942500D03*
X164211000Y-96367500D03*
D23*
X158470500Y-93853000D03*
X160045500Y-93853000D03*
D24*
X166370000Y-96164500D03*
X166370000Y-94589500D03*
D21*
X156108500Y-96901000D03*
X154533500Y-96901000D03*
D23*
X143789300Y-115183920D03*
X145364300Y-115183920D03*
D58*
X141294800Y-113278920D03*
X143794800Y-113278920D03*
D21*
X141300300Y-115183920D03*
X139725300Y-115183920D03*
D23*
X154533500Y-92329000D03*
X156108500Y-92329000D03*
D35*
X148653500Y-94107000D03*
X151193500Y-94107000D03*
D24*
X160909000Y-75336500D03*
X160909000Y-73761500D03*
D35*
X146113500Y-91567000D03*
X148653500Y-91567000D03*
X151193500Y-91567000D03*
D24*
X156293500Y-56286500D03*
X156293500Y-54711500D03*
D17*
X140881100Y-144145000D03*
D15*
X143421100Y-144399000D03*
X145961100Y-144145000D03*
D59*
X167513000Y-84730000D03*
X167513000Y-90530000D03*
D60*
X154813000Y-85830000D03*
X154813000Y-89430000D03*
D61*
X162623500Y-75234800D03*
X164528500Y-75234800D03*
X163576000Y-73355200D03*
D21*
X175285500Y-91948000D03*
X173710500Y-91948000D03*
D22*
X175387000Y-88160596D03*
X175387000Y-89735596D03*
D62*
X161769100Y-81712096D03*
X161769100Y-78912096D03*
X165481000Y-81712096D03*
X165481000Y-78912096D03*
D23*
X158470500Y-92329000D03*
X160045500Y-92329000D03*
D22*
X167767000Y-71983500D03*
X167767000Y-73558500D03*
X163957000Y-86207500D03*
X163957000Y-87782500D03*
D63*
X164576001Y-89905000D03*
X164075999Y-89905000D03*
X163576000Y-89905000D03*
X163076001Y-89905000D03*
X162575999Y-89905000D03*
X162575999Y-94255000D03*
X163076001Y-94255000D03*
X163576000Y-94255000D03*
X164075999Y-94255000D03*
X164576001Y-94255000D03*
D64*
X113629100Y-139266000D03*
X115629100Y-139266000D03*
X117629100Y-139266000D03*
X119629100Y-139266000D03*
X121629100Y-139266000D03*
X123629100Y-139266000D03*
X125629100Y-139266000D03*
X127629100Y-139266000D03*
X127629100Y-104266000D03*
X125629100Y-104266000D03*
X123629100Y-104266000D03*
X121629100Y-104266000D03*
X119629100Y-104266000D03*
X117629100Y-104266000D03*
X115629100Y-104266000D03*
X113629100Y-104266000D03*
D65*
X118879100Y-127698500D03*
D22*
X167640000Y-135737500D03*
X167640000Y-137312500D03*
X170053000Y-103733500D03*
X170053000Y-105308500D03*
X171703040Y-103733500D03*
X171703040Y-105308500D03*
D66*
X135661500Y-112250000D03*
X135661500Y-116350000D03*
X137261500Y-112250000D03*
X137261500Y-116350000D03*
D35*
X148082000Y-114604800D03*
X150622000Y-114604800D03*
X153162000Y-114604800D03*
X155702000Y-114604800D03*
D24*
X167767000Y-76606500D03*
X167767000Y-75031500D03*
X115629100Y-101752500D03*
X115629100Y-100177500D03*
X113629100Y-101752500D03*
X113629100Y-100177500D03*
D22*
X119629100Y-100177500D03*
X119629100Y-101752500D03*
D24*
X121629100Y-101752500D03*
X121629100Y-100177500D03*
D21*
X162776000Y-110147100D03*
X161201000Y-110147100D03*
D24*
X113629100Y-97840900D03*
X113629100Y-96265900D03*
X119629100Y-97840900D03*
X119629100Y-96265900D03*
D67*
X116979100Y-98105000D03*
X117629100Y-98105000D03*
X118279100Y-98105000D03*
X118279100Y-96205000D03*
X117629100Y-96205000D03*
X116979100Y-96205000D03*
D21*
X166395500Y-110147100D03*
X164820500Y-110147100D03*
D23*
X161201000Y-114642900D03*
X162776000Y-114642900D03*
X161201000Y-112395000D03*
X162776000Y-112395000D03*
X164820500Y-112395000D03*
X166395500Y-112395000D03*
D22*
X115629100Y-96265900D03*
X115629100Y-97840900D03*
X117629100Y-100177500D03*
X117629100Y-101752500D03*
X123629100Y-100177500D03*
X123629100Y-101752500D03*
D24*
X125857000Y-101752500D03*
X125857000Y-100177500D03*
D68*
X157609500Y-112188500D03*
X159509500Y-112188500D03*
X158559500Y-110188500D03*
D69*
X169974000Y-130175000D03*
X169974000Y-131445000D03*
X169974000Y-132715000D03*
X169974000Y-133985000D03*
X169974000Y-135255000D03*
D70*
X175974000Y-132715000D03*
D71*
X124142500Y-143588000D03*
D72*
X124142500Y-145288000D03*
D73*
X124142500Y-146988000D03*
D23*
X120116500Y-143637000D03*
X121691500Y-143637000D03*
D22*
X167640000Y-129463700D03*
X167640000Y-131038700D03*
X169164000Y-136880500D03*
X169164000Y-138455500D03*
X167640000Y-132689500D03*
X167640000Y-134264500D03*
D23*
X152374500Y-68199000D03*
X153949500Y-68199000D03*
D24*
X104553500Y-102621596D03*
X104553500Y-101046596D03*
D22*
X161163000Y-86207500D03*
X161163000Y-87782500D03*
D74*
X161544000Y-135427000D03*
X162814000Y-135427000D03*
X164084000Y-135427000D03*
X165354000Y-135427000D03*
X165354000Y-130003000D03*
X164084000Y-130003000D03*
X162814000Y-130003000D03*
X161544000Y-130003000D03*
D44*
X100838000Y-54864000D03*
X186436000Y-54356000D03*
D17*
X162604100Y-56711096D03*
D15*
X165144100Y-56457096D03*
X167684100Y-56711096D03*
D51*
X104111100Y-113148708D03*
D52*
X101571100Y-110608708D03*
X101571100Y-115688708D03*
X106651100Y-110608708D03*
X106651100Y-115688708D03*
D75*
X145048600Y-57208400D03*
X150048600Y-57208400D03*
D76*
X144048600Y-54508400D03*
X151048600Y-54508400D03*
D51*
X104111100Y-124058896D03*
D52*
X106651100Y-121518896D03*
X106651100Y-126598896D03*
X101571100Y-126598896D03*
X101571100Y-121518896D03*
D77*
X171917100Y-71293696D03*
D20*
X171917100Y-75149296D03*
D77*
X171917100Y-78649296D03*
D20*
X171917100Y-82504896D03*
D78*
X152146000Y-70231000D03*
X154686000Y-70231000D03*
X157226000Y-70231000D03*
X159766000Y-70231000D03*
X162306000Y-70231000D03*
X164846000Y-70231000D03*
D77*
X180708100Y-66624200D03*
D20*
X180708100Y-70479800D03*
M02*
