M48
; DRILL file {KiCad (6.0.5-0)} date Thursday, January 12, 2023 at 02:04:39 PM
; FORMAT={-:-/ absolute / metric / decimal}
; #@! TF.CreationDate,2023-01-12T14:04:39-08:00
; #@! TF.GenerationSoftware,Kicad,Pcbnew,(6.0.5-0)
; #@! TF.FileFunction,Plated,1,4,PTH
FMAT,2
METRIC
; #@! TA.AperFunction,Plated,PTH,ViaDrill
T1C0.381
; #@! TA.AperFunction,Plated,PTH,ViaDrill
T2C0.400
; #@! TA.AperFunction,Plated,PTH,ComponentDrill
T3C0.600
; #@! TA.AperFunction,Plated,PTH,ComponentDrill
T4C0.889
; #@! TA.AperFunction,Plated,PTH,ComponentDrill
T5C0.900
; #@! TA.AperFunction,Plated,PTH,ComponentDrill
T6C1.000
; #@! TA.AperFunction,Plated,PTH,ComponentDrill
T7C1.016
; #@! TA.AperFunction,Plated,PTH,ComponentDrill
T8C1.200
; #@! TA.AperFunction,Plated,PTH,ComponentDrill
T9C1.295
; #@! TA.AperFunction,Plated,PTH,ComponentDrill
T10C1.500
; #@! TA.AperFunction,Plated,PTH,ComponentDrill
T11C1.700
; #@! TA.AperFunction,Plated,PTH,ComponentDrill
T12C3.200
%
G90
G05
T1
X102.078Y-103.74
X103.334Y-101.072
X106.807Y-105.41
X107.899Y-124.968
X107.968Y-123.264
X108.176Y-114.099
X108.354Y-110.993
X108.458Y-112.014
X108.505Y-117.548
X108.505Y-118.564
X108.505Y-119.58
X108.699Y-122.532
X108.908Y-114.831
X108.966Y-124.968
X109.36Y-121.689
X109.474Y-111.506
X109.474Y-112.522
X109.568Y-115.674
X109.728Y-124.206
X109.982Y-125.222
X110.236Y-113.284
X110.49Y-112.268
X110.49Y-123.444
X110.744Y-124.46
X110.998Y-66.802
X110.998Y-67.945
X110.998Y-114.046
X111.096Y-117.523
X111.096Y-119.682
X111.252Y-113.03
X111.252Y-122.682
X111.506Y-123.698
X111.633Y-114.681
X112.061Y-122.047
X112.141Y-113.919
X112.162Y-118.604
X112.268Y-123.063
X112.522Y-115.059
X112.649Y-97.917
X113.255Y-117.523
X113.255Y-119.682
X113.535Y-66.637
X113.585Y-115.059
X113.63Y-99.272
X113.636Y-105.918
X114.427Y-100.838
X114.551Y-66.637
X114.652Y-115.059
X114.656Y-122.171
X114.681Y-101.854
X114.681Y-121.133
X115.189Y-135.89
X115.189Y-136.93
X115.443Y-105.791
X115.627Y-99.353
X115.63Y-102.742
X115.77Y-119.123
X115.77Y-120.088
X115.82Y-115.059
X115.82Y-116.126
X115.82Y-117.294
X117.701Y-99.179
X117.747Y-106.172
X118.237Y-102.489
X118.615Y-66.637
X118.618Y-121.285
X118.741Y-115.872
X118.741Y-117.345
X118.741Y-118.818
X118.745Y-120.142
X119.631Y-66.637
X119.634Y-106.426
X119.659Y-135.585
X120.396Y-95.631
X120.723Y-97.831
X121.639Y-99.323
X121.666Y-66.421
X121.858Y-132.602
X122.174Y-82.55
X122.174Y-84.582
X122.784Y-100.152
X123.542Y-133.525
X123.624Y-143.588
X123.624Y-146.988
X123.952Y-64.643
X124.65Y-143.588
X124.65Y-146.988
X124.857Y-64.643
X125.603Y-97.79
X125.603Y-69.85
X125.629Y-102.616
X126.224Y-63.5
X126.238Y-67.564
X126.619Y-76.2
X126.639Y-78.727
X126.732Y-66.802
X126.746Y-72.009
X126.746Y-73.635
X126.746Y-74.93
X126.746Y-80.518
X126.746Y-85.852
X127.24Y-63.5
X127.66Y-120.117
X127.8Y-67.95
X128.016Y-126.746
X128.016Y-128.016
X128.607Y-64.64
X129.512Y-64.64
X129.638Y-115.974
X129.667Y-146.988
X129.938Y-133.367
X130.683Y-146.988
X130.81Y-122.936
X131.313Y-68.039
X131.42Y-69.329
X131.42Y-70.345
X131.572Y-82.55
X131.699Y-72.39
X132.207Y-87.63
X132.885Y-96.647
X132.969Y-136.271
X133.223Y-58.229
X133.604Y-101.854
X133.855Y-66.637
X134.239Y-136.271
X134.62Y-60.198
X134.747Y-85.725
X134.871Y-66.637
X135.509Y-136.271
X135.661Y-113.132
X135.89Y-102.616
X136.144Y-97.311
X137.033Y-113.157
X137.16Y-117.221
X137.414Y-105.918
X137.668Y-99.441
X138.532Y-102.771
X138.811Y-106.934
X138.836Y-99.539
X138.862Y-105.616
X138.935Y-66.637
X139.446Y-60.261
X139.7Y-57.658
X139.951Y-66.637
X140.005Y-114.168
X140.081Y-72.263
X140.081Y-75.946
X140.335Y-99.539
X140.462Y-109.728
X140.992Y-66.806
X141.478Y-98.044
X141.478Y-103.251
X141.605Y-101.854
X141.703Y-106.27
X141.986Y-105.156
X142.105Y-66.424
X142.367Y-108.331
X142.45Y-107.191
X142.748Y-97.028
X142.787Y-99.949
X143.354Y-103.388
X143.383Y-91.44
X143.383Y-93.218
X143.499Y-95.366
X143.637Y-108.204
X143.764Y-97.028
X144.353Y-61.021
X144.373Y-109.068
X144.707Y-111.365
X144.983Y-61.722
X145.093Y-114.168
X145.109Y-108.965
X145.113Y-107.801
X145.796Y-99.949
X145.847Y-82.042
X145.859Y-58.738
X145.881Y-61.214
X145.923Y-73.152
X145.987Y-112.458
X146.177Y-70.358
X146.241Y-83.82
X146.304Y-97.536
X146.558Y-96.139
X146.717Y-111.681
X147.269Y-58.979
X147.32Y-103.124
X147.472Y-96.784
X147.879Y-112.192
X147.955Y-100.203
X147.978Y-87.627
X147.98Y-108.78
X148.057Y-61.062
X148.209Y-102.489
X148.311Y-59.055
X148.463Y-72.644
X148.59Y-69.342
X148.844Y-96.456
X148.855Y-97.472
X148.978Y-100.029
X149.098Y-113.109
X149.103Y-106.794
X149.416Y-58.928
X149.733Y-108.966
X149.923Y-74.676
X149.923Y-81.534
X149.987Y-76.2
X150.089Y-101.194
X150.241Y-97.79
X150.292Y-62.382
X150.388Y-104.062
X150.444Y-107.112
X150.495Y-105.613
X150.546Y-109.86
X150.558Y-86.36
X150.622Y-68.326
X150.774Y-61.036
X150.825Y-71.832
X150.851Y-63.348
X151.028Y-73.279
X151.447Y-85.026
X152.019Y-75.248
X152.425Y-100.076
X152.629Y-61.951
X152.734Y-63.439
X152.971Y-105.474
X152.984Y-106.223
X152.999Y-102.563
X153.035Y-108.331
X153.141Y-103.332
X153.162Y-58.077
X153.289Y-96.139
X153.289Y-97.917
X153.441Y-71.755
X153.48Y-103.957
X153.673Y-62.845
X154.061Y-54.69
X154.178Y-78.74
X154.432Y-59.436
X154.813Y-73.533
X154.965Y-68.123
X155.194Y-62.941
X155.204Y-66.805
X155.506Y-94.485
X156.083Y-108.005
X156.21Y-57.341
X156.845Y-91.567
X156.926Y-101.63
X157.226Y-100.457
X157.48Y-74.359
X157.508Y-96.759
X157.559Y-107.554
X157.688Y-94.625
X157.861Y-104.902
X158.242Y-57.15
X158.305Y-102.806
X159.131Y-102.976
X159.512Y-107.612
X159.639Y-76.2
X159.766Y-106.207
X159.881Y-102.796
X159.893Y-110.172
X160.091Y-94.792
X160.274Y-86.233
X160.539Y-103.77
X160.782Y-91.567
X161.036Y-99.758
X161.226Y-100.52
X161.284Y-101.229
X161.544Y-97.409
X161.544Y-133.858
X161.656Y-93.682
X161.798Y-76.962
X161.925Y-107.061
X162.083Y-143.588
X162.083Y-146.988
X162.385Y-91.816
X162.433Y-133.858
X162.486Y-66.192
X162.535Y-102.044
X162.56Y-113.728
X162.687Y-86.36
X162.814Y-128.905
X162.814Y-130.003
X162.814Y-135.427
X162.814Y-136.525
X163.039Y-107.165
X163.11Y-143.588
X163.11Y-146.988
X163.228Y-91.486
X163.309Y-97.399
X163.576Y-113.157
X163.576Y-75.692
X164.084Y-128.905
X164.084Y-130.003
X164.084Y-135.427
X164.084Y-136.525
X164.267Y-91.892
X164.528Y-110.998
X165.164Y-97.472
X165.222Y-101.219
X165.29Y-86.614
X165.354Y-99.822
X165.354Y-127.889
X165.417Y-96.329
X165.484Y-98.853
X165.55Y-93.84
X165.608Y-113.474
X165.608Y-137.287
X165.862Y-101.981
X166.599Y-91.75
X166.624Y-106.172
X166.624Y-111.506
X167.513Y-109.093
X167.64Y-128.651
X168.11Y-91.73
X168.275Y-106.172
X168.656Y-73.558
X168.656Y-75.031
X168.783Y-99.187
X168.941Y-100.029
X168.947Y-101.139
X169.416Y-101.881
X169.545Y-111.188
X170.434Y-102.743
X170.434Y-136.398
X170.605Y-138.017
X170.688Y-98.058
X170.766Y-100.046
X171.296Y-97.332
X171.361Y-100.65
X171.577Y-108.585
X172.056Y-98.092
X173.199Y-99.235
X173.99Y-106.172
X175.26Y-96.393
X175.387Y-90.805
X176.784Y-96.266
X177.292Y-102.997
X177.737Y-99.123
X177.8Y-100.711
X178.435Y-90.551
X180.086Y-89.662
X180.594Y-90.424
T2
X108.204Y-135.652
X108.209Y-133.783
X109.474Y-135.652
X109.474Y-136.922
X109.474Y-138.43
X109.474Y-139.573
X109.474Y-140.843
X109.479Y-131.293
X109.479Y-132.563
X109.479Y-133.783
X110.744Y-135.652
X110.744Y-136.922
X110.744Y-138.43
X110.744Y-139.573
X110.744Y-140.843
X110.749Y-131.293
X110.749Y-132.563
X110.749Y-133.783
X112.014Y-136.922
X112.014Y-138.43
X112.014Y-139.573
X112.014Y-140.843
X112.019Y-131.293
X112.019Y-132.563
X112.019Y-133.783
X112.903Y-134.747
X113.284Y-140.843
X113.792Y-133.783
X113.792Y-135.636
X114.427Y-140.843
X114.681Y-134.747
X115.57Y-140.843
X116.586Y-135.89
X116.586Y-136.922
X116.586Y-140.843
X118.879Y-127.698
X119.634Y-126.111
X119.634Y-129.032
X120.269Y-127.698
X125.793Y-133.667
X151.486Y-66.675
X168.783Y-127.635
X169.974Y-132.715
X170.368Y-127.698
X171.757Y-127.698
X171.831Y-131.064
X172.847Y-91.948
X173.228Y-130.683
X173.736Y-132.715
X174.117Y-130.175
X175.387Y-131.699
X175.387Y-133.858
X175.768Y-135.636
X175.974Y-132.715
X176.53Y-131.699
X176.53Y-133.858
X177.038Y-136.906
X177.038Y-138.43
X177.673Y-132.715
X178.308Y-131.699
X178.308Y-133.731
X178.308Y-135.509
X178.308Y-136.906
X178.943Y-139.192
X179.705Y-133.731
X179.705Y-135.474
T4
X144.049Y-54.508
X151.049Y-54.508
T5
X145.049Y-57.208
X150.049Y-57.208
T6
X115.697Y-91.567
X118.237Y-91.567
X120.777Y-91.567
X123.317Y-91.567
X125.857Y-91.567
X128.397Y-91.567
X130.937Y-91.567
X132.385Y-105.816
X132.385Y-108.356
X132.385Y-110.896
X132.385Y-113.436
X132.385Y-115.976
X133.477Y-91.567
X136.017Y-91.567
X146.113Y-91.567
X148.082Y-114.605
X148.653Y-91.567
X148.653Y-94.107
X150.622Y-114.605
X151.194Y-91.567
X151.194Y-94.107
X152.146Y-70.231
X153.162Y-114.605
X154.686Y-70.231
X155.702Y-114.605
X157.226Y-70.231
X159.766Y-70.231
X162.306Y-70.231
X164.846Y-70.231
T7
X102.546Y-89.774
X102.8Y-87.234
X102.8Y-92.314
X112.649Y-144.145
X115.189Y-144.399
X117.729Y-144.145
X118.526Y-56.711
X121.066Y-56.457
X123.606Y-56.711
X140.881Y-144.145
X143.421Y-144.399
X145.961Y-144.145
X162.604Y-56.711
X165.144Y-56.457
X167.684Y-56.711
X168.148Y-144.145
X170.688Y-144.399
X173.228Y-144.145
X184.269Y-97.902
X184.269Y-102.982
X184.277Y-120.904
X184.277Y-125.984
X184.523Y-100.442
X184.531Y-123.444
T8
X171.917Y-71.294
X171.917Y-75.149
X171.917Y-78.649
X171.917Y-82.505
X180.708Y-66.624
X180.708Y-70.48
X180.708Y-73.961
X180.708Y-77.816
X180.708Y-81.316
X180.708Y-85.172
T9
X156.892Y-59.865
X156.892Y-67.485
X167.052Y-67.485
X174.672Y-59.865
X174.672Y-67.485
T10
X104.111Y-113.149
X104.111Y-124.059
X104.111Y-134.684
X183.007Y-134.684
T11
X101.571Y-110.609
X101.571Y-115.689
X101.571Y-121.519
X101.571Y-126.599
X101.571Y-132.144
X101.571Y-137.224
X106.651Y-110.609
X106.651Y-115.689
X106.651Y-121.519
X106.651Y-126.599
X106.651Y-132.144
X106.651Y-137.224
X180.467Y-132.144
X180.467Y-137.224
X185.547Y-132.144
X185.547Y-137.224
T12
X103.426Y-143.294
X105.966Y-57.569
X179.626Y-57.569
X183.426Y-143.294
T3
X143.237Y-55.737G85X143.237Y-55.137
G05
X143.237Y-60.137G85X143.237Y-59.037
G05
X151.877Y-55.737G85X151.877Y-55.137
G05
X151.877Y-60.137G85X151.877Y-59.037
G05
T0
M30
