G04 #@! TF.GenerationSoftware,KiCad,Pcbnew,(6.0.5-0)*
G04 #@! TF.CreationDate,2023-01-03T07:13:37-05:00*
G04 #@! TF.ProjectId,new-solar-cell-burn-wire,6e65772d-736f-46c6-9172-2d63656c6c2d,2*
G04 #@! TF.SameCoordinates,Original*
G04 #@! TF.FileFunction,Legend,Top*
G04 #@! TF.FilePolarity,Positive*
%FSLAX46Y46*%
G04 Gerber Fmt 4.6, Leading zero omitted, Abs format (unit mm)*
G04 Created by KiCad (PCBNEW (6.0.5-0)) date 2023-01-03 07:13:37*
%MOMM*%
%LPD*%
G01*
G04 APERTURE LIST*
%ADD10C,0.150000*%
%ADD11C,0.300000*%
%ADD12C,0.120000*%
%ADD13C,0.100000*%
%ADD14C,3.000000*%
%ADD15R,2.000000X2.000000*%
%ADD16C,5.600000*%
%ADD17R,1.700000X2.500000*%
%ADD18R,2.500000X1.700000*%
G04 APERTURE END LIST*
D10*
X108842857Y-141052380D02*
X108842857Y-140052380D01*
X109176190Y-140766666D01*
X109509523Y-140052380D01*
X109509523Y-141052380D01*
X110176190Y-140052380D02*
X110366666Y-140052380D01*
X110461904Y-140100000D01*
X110557142Y-140195238D01*
X110604761Y-140385714D01*
X110604761Y-140719047D01*
X110557142Y-140909523D01*
X110461904Y-141004761D01*
X110366666Y-141052380D01*
X110176190Y-141052380D01*
X110080952Y-141004761D01*
X109985714Y-140909523D01*
X109938095Y-140719047D01*
X109938095Y-140385714D01*
X109985714Y-140195238D01*
X110080952Y-140100000D01*
X110176190Y-140052380D01*
X111033333Y-141052380D02*
X111033333Y-140052380D01*
X111366666Y-140766666D01*
X111700000Y-140052380D01*
X111700000Y-141052380D01*
X112366666Y-140052380D02*
X112557142Y-140052380D01*
X112652380Y-140100000D01*
X112747619Y-140195238D01*
X112795238Y-140385714D01*
X112795238Y-140719047D01*
X112747619Y-140909523D01*
X112652380Y-141004761D01*
X112557142Y-141052380D01*
X112366666Y-141052380D01*
X112271428Y-141004761D01*
X112176190Y-140909523D01*
X112128571Y-140719047D01*
X112128571Y-140385714D01*
X112176190Y-140195238D01*
X112271428Y-140100000D01*
X112366666Y-140052380D01*
X113557142Y-140528571D02*
X113700000Y-140576190D01*
X113747619Y-140623809D01*
X113795238Y-140719047D01*
X113795238Y-140861904D01*
X113747619Y-140957142D01*
X113700000Y-141004761D01*
X113604761Y-141052380D01*
X113223809Y-141052380D01*
X113223809Y-140052380D01*
X113557142Y-140052380D01*
X113652380Y-140100000D01*
X113700000Y-140147619D01*
X113747619Y-140242857D01*
X113747619Y-140338095D01*
X113700000Y-140433333D01*
X113652380Y-140480952D01*
X113557142Y-140528571D01*
X113223809Y-140528571D01*
X114414285Y-140052380D02*
X114604761Y-140052380D01*
X114700000Y-140100000D01*
X114795238Y-140195238D01*
X114842857Y-140385714D01*
X114842857Y-140719047D01*
X114795238Y-140909523D01*
X114700000Y-141004761D01*
X114604761Y-141052380D01*
X114414285Y-141052380D01*
X114319047Y-141004761D01*
X114223809Y-140909523D01*
X114176190Y-140719047D01*
X114176190Y-140385714D01*
X114223809Y-140195238D01*
X114319047Y-140100000D01*
X114414285Y-140052380D01*
X115128571Y-140052380D02*
X115700000Y-140052380D01*
X115414285Y-141052380D02*
X115414285Y-140052380D01*
D11*
X141257142Y-64114285D02*
X143542857Y-64114285D01*
X142400000Y-65257142D02*
X142400000Y-62971428D01*
X123457142Y-126514285D02*
X125742857Y-126514285D01*
X124600000Y-127657142D02*
X124600000Y-125371428D01*
X142614285Y-75142857D02*
X142614285Y-72857142D01*
X124814285Y-117242857D02*
X124814285Y-114957142D01*
X105457142Y-55014285D02*
X107742857Y-55014285D01*
X106600000Y-56157142D02*
X106600000Y-53871428D01*
X106814285Y-66142857D02*
X106814285Y-63857142D01*
X88614285Y-108142857D02*
X88614285Y-105857142D01*
X87557142Y-117214285D02*
X89842857Y-117214285D01*
X88700000Y-118357142D02*
X88700000Y-116071428D01*
D10*
X149328571Y-107342857D02*
X149376190Y-107200000D01*
X149423809Y-107152380D01*
X149519047Y-107104761D01*
X149661904Y-107104761D01*
X149757142Y-107152380D01*
X149804761Y-107200000D01*
X149852380Y-107295238D01*
X149852380Y-107676190D01*
X148852380Y-107676190D01*
X148852380Y-107342857D01*
X148900000Y-107247619D01*
X148947619Y-107200000D01*
X149042857Y-107152380D01*
X149138095Y-107152380D01*
X149233333Y-107200000D01*
X149280952Y-107247619D01*
X149328571Y-107342857D01*
X149328571Y-107676190D01*
X149185714Y-106247619D02*
X149852380Y-106247619D01*
X149185714Y-106676190D02*
X149709523Y-106676190D01*
X149804761Y-106628571D01*
X149852380Y-106533333D01*
X149852380Y-106390476D01*
X149804761Y-106295238D01*
X149757142Y-106247619D01*
X149852380Y-105771428D02*
X149185714Y-105771428D01*
X149376190Y-105771428D02*
X149280952Y-105723809D01*
X149233333Y-105676190D01*
X149185714Y-105580952D01*
X149185714Y-105485714D01*
X149185714Y-105152380D02*
X149852380Y-105152380D01*
X149280952Y-105152380D02*
X149233333Y-105104761D01*
X149185714Y-105009523D01*
X149185714Y-104866666D01*
X149233333Y-104771428D01*
X149328571Y-104723809D01*
X149852380Y-104723809D01*
X82500000Y-127061904D02*
X82452380Y-127157142D01*
X82452380Y-127300000D01*
X82500000Y-127442857D01*
X82595238Y-127538095D01*
X82690476Y-127585714D01*
X82880952Y-127633333D01*
X83023809Y-127633333D01*
X83214285Y-127585714D01*
X83309523Y-127538095D01*
X83404761Y-127442857D01*
X83452380Y-127300000D01*
X83452380Y-127204761D01*
X83404761Y-127061904D01*
X83357142Y-127014285D01*
X83023809Y-127014285D01*
X83023809Y-127204761D01*
X83452380Y-126585714D02*
X82452380Y-126585714D01*
X83452380Y-126014285D01*
X82452380Y-126014285D01*
X83452380Y-125538095D02*
X82452380Y-125538095D01*
X82452380Y-125300000D01*
X82500000Y-125157142D01*
X82595238Y-125061904D01*
X82690476Y-125014285D01*
X82880952Y-124966666D01*
X83023809Y-124966666D01*
X83214285Y-125014285D01*
X83309523Y-125061904D01*
X83404761Y-125157142D01*
X83452380Y-125300000D01*
X83452380Y-125538095D01*
X141200000Y-55261904D02*
X141152380Y-55357142D01*
X141152380Y-55500000D01*
X141200000Y-55642857D01*
X141295238Y-55738095D01*
X141390476Y-55785714D01*
X141580952Y-55833333D01*
X141723809Y-55833333D01*
X141914285Y-55785714D01*
X142009523Y-55738095D01*
X142104761Y-55642857D01*
X142152380Y-55500000D01*
X142152380Y-55404761D01*
X142104761Y-55261904D01*
X142057142Y-55214285D01*
X141723809Y-55214285D01*
X141723809Y-55404761D01*
X142152380Y-54785714D02*
X141152380Y-54785714D01*
X142152380Y-54214285D01*
X141152380Y-54214285D01*
X142152380Y-53738095D02*
X141152380Y-53738095D01*
X141152380Y-53500000D01*
X141200000Y-53357142D01*
X141295238Y-53261904D01*
X141390476Y-53214285D01*
X141580952Y-53166666D01*
X141723809Y-53166666D01*
X141914285Y-53214285D01*
X142009523Y-53261904D01*
X142104761Y-53357142D01*
X142152380Y-53500000D01*
X142152380Y-53738095D01*
X79828571Y-75742857D02*
X79876190Y-75600000D01*
X79923809Y-75552380D01*
X80019047Y-75504761D01*
X80161904Y-75504761D01*
X80257142Y-75552380D01*
X80304761Y-75600000D01*
X80352380Y-75695238D01*
X80352380Y-76076190D01*
X79352380Y-76076190D01*
X79352380Y-75742857D01*
X79400000Y-75647619D01*
X79447619Y-75600000D01*
X79542857Y-75552380D01*
X79638095Y-75552380D01*
X79733333Y-75600000D01*
X79780952Y-75647619D01*
X79828571Y-75742857D01*
X79828571Y-76076190D01*
X79685714Y-74647619D02*
X80352380Y-74647619D01*
X79685714Y-75076190D02*
X80209523Y-75076190D01*
X80304761Y-75028571D01*
X80352380Y-74933333D01*
X80352380Y-74790476D01*
X80304761Y-74695238D01*
X80257142Y-74647619D01*
X80352380Y-74171428D02*
X79685714Y-74171428D01*
X79876190Y-74171428D02*
X79780952Y-74123809D01*
X79733333Y-74076190D01*
X79685714Y-73980952D01*
X79685714Y-73885714D01*
X79685714Y-73552380D02*
X80352380Y-73552380D01*
X79780952Y-73552380D02*
X79733333Y-73504761D01*
X79685714Y-73409523D01*
X79685714Y-73266666D01*
X79733333Y-73171428D01*
X79828571Y-73123809D01*
X80352380Y-73123809D01*
D11*
X87667142Y-94794285D02*
X89952857Y-94794285D01*
X88810000Y-95937142D02*
X88810000Y-93651428D01*
X89024285Y-85562857D02*
X89024285Y-83277142D01*
D10*
X90900000Y-75361904D02*
X90852380Y-75457142D01*
X90852380Y-75600000D01*
X90900000Y-75742857D01*
X90995238Y-75838095D01*
X91090476Y-75885714D01*
X91280952Y-75933333D01*
X91423809Y-75933333D01*
X91614285Y-75885714D01*
X91709523Y-75838095D01*
X91804761Y-75742857D01*
X91852380Y-75600000D01*
X91852380Y-75504761D01*
X91804761Y-75361904D01*
X91757142Y-75314285D01*
X91423809Y-75314285D01*
X91423809Y-75504761D01*
X91852380Y-74885714D02*
X90852380Y-74885714D01*
X91852380Y-74314285D01*
X90852380Y-74314285D01*
X91852380Y-73838095D02*
X90852380Y-73838095D01*
X90852380Y-73600000D01*
X90900000Y-73457142D01*
X90995238Y-73361904D01*
X91090476Y-73314285D01*
X91280952Y-73266666D01*
X91423809Y-73266666D01*
X91614285Y-73314285D01*
X91709523Y-73361904D01*
X91804761Y-73457142D01*
X91852380Y-73600000D01*
X91852380Y-73838095D01*
D11*
X142604285Y-97722857D02*
X142604285Y-95437142D01*
X141247142Y-86634285D02*
X143532857Y-86634285D01*
X142390000Y-87777142D02*
X142390000Y-85491428D01*
D10*
X96628571Y-127542857D02*
X96676190Y-127400000D01*
X96723809Y-127352380D01*
X96819047Y-127304761D01*
X96961904Y-127304761D01*
X97057142Y-127352380D01*
X97104761Y-127400000D01*
X97152380Y-127495238D01*
X97152380Y-127876190D01*
X96152380Y-127876190D01*
X96152380Y-127542857D01*
X96200000Y-127447619D01*
X96247619Y-127400000D01*
X96342857Y-127352380D01*
X96438095Y-127352380D01*
X96533333Y-127400000D01*
X96580952Y-127447619D01*
X96628571Y-127542857D01*
X96628571Y-127876190D01*
X96485714Y-126447619D02*
X97152380Y-126447619D01*
X96485714Y-126876190D02*
X97009523Y-126876190D01*
X97104761Y-126828571D01*
X97152380Y-126733333D01*
X97152380Y-126590476D01*
X97104761Y-126495238D01*
X97057142Y-126447619D01*
X97152380Y-125971428D02*
X96485714Y-125971428D01*
X96676190Y-125971428D02*
X96580952Y-125923809D01*
X96533333Y-125876190D01*
X96485714Y-125780952D01*
X96485714Y-125685714D01*
X96485714Y-125352380D02*
X97152380Y-125352380D01*
X96580952Y-125352380D02*
X96533333Y-125304761D01*
X96485714Y-125209523D01*
X96485714Y-125066666D01*
X96533333Y-124971428D01*
X96628571Y-124923809D01*
X97152380Y-124923809D01*
X127628571Y-55642857D02*
X127676190Y-55500000D01*
X127723809Y-55452380D01*
X127819047Y-55404761D01*
X127961904Y-55404761D01*
X128057142Y-55452380D01*
X128104761Y-55500000D01*
X128152380Y-55595238D01*
X128152380Y-55976190D01*
X127152380Y-55976190D01*
X127152380Y-55642857D01*
X127200000Y-55547619D01*
X127247619Y-55500000D01*
X127342857Y-55452380D01*
X127438095Y-55452380D01*
X127533333Y-55500000D01*
X127580952Y-55547619D01*
X127628571Y-55642857D01*
X127628571Y-55976190D01*
X127485714Y-54547619D02*
X128152380Y-54547619D01*
X127485714Y-54976190D02*
X128009523Y-54976190D01*
X128104761Y-54928571D01*
X128152380Y-54833333D01*
X128152380Y-54690476D01*
X128104761Y-54595238D01*
X128057142Y-54547619D01*
X128152380Y-54071428D02*
X127485714Y-54071428D01*
X127676190Y-54071428D02*
X127580952Y-54023809D01*
X127533333Y-53976190D01*
X127485714Y-53880952D01*
X127485714Y-53785714D01*
X127485714Y-53452380D02*
X128152380Y-53452380D01*
X127580952Y-53452380D02*
X127533333Y-53404761D01*
X127485714Y-53309523D01*
X127485714Y-53166666D01*
X127533333Y-53071428D01*
X127628571Y-53023809D01*
X128152380Y-53023809D01*
X137400000Y-106961904D02*
X137352380Y-107057142D01*
X137352380Y-107200000D01*
X137400000Y-107342857D01*
X137495238Y-107438095D01*
X137590476Y-107485714D01*
X137780952Y-107533333D01*
X137923809Y-107533333D01*
X138114285Y-107485714D01*
X138209523Y-107438095D01*
X138304761Y-107342857D01*
X138352380Y-107200000D01*
X138352380Y-107104761D01*
X138304761Y-106961904D01*
X138257142Y-106914285D01*
X137923809Y-106914285D01*
X137923809Y-107104761D01*
X138352380Y-106485714D02*
X137352380Y-106485714D01*
X138352380Y-105914285D01*
X137352380Y-105914285D01*
X138352380Y-105438095D02*
X137352380Y-105438095D01*
X137352380Y-105200000D01*
X137400000Y-105057142D01*
X137495238Y-104961904D01*
X137590476Y-104914285D01*
X137780952Y-104866666D01*
X137923809Y-104866666D01*
X138114285Y-104914285D01*
X138209523Y-104961904D01*
X138304761Y-105057142D01*
X138352380Y-105200000D01*
X138352380Y-105438095D01*
D11*
X115200000Y-123100000D02*
X80200000Y-123100000D01*
X80200000Y-123100000D02*
X80200000Y-101100000D01*
X80200000Y-101100000D02*
X115200000Y-101100000D01*
X115200000Y-101100000D02*
X115200000Y-123100000D01*
X115200000Y-48900000D02*
X115200000Y-70900000D01*
X80200000Y-70900000D02*
X80200000Y-48900000D01*
X115200000Y-70900000D02*
X80200000Y-70900000D01*
X80200000Y-48900000D02*
X115200000Y-48900000D01*
D12*
X148000000Y-105000000D02*
X148000000Y-107400000D01*
X148000000Y-107400000D02*
X145600000Y-107400000D01*
X145600000Y-105000000D02*
X148000000Y-105000000D01*
X145600000Y-107400000D02*
X145600000Y-105000000D01*
X84900000Y-125100000D02*
X87300000Y-125100000D01*
X84900000Y-127500000D02*
X84900000Y-125100000D01*
X87300000Y-125100000D02*
X87300000Y-127500000D01*
X87300000Y-127500000D02*
X84900000Y-127500000D01*
X137300000Y-53300000D02*
X139700000Y-53300000D01*
X137300000Y-55700000D02*
X137300000Y-53300000D01*
X139700000Y-55700000D02*
X137300000Y-55700000D01*
X139700000Y-53300000D02*
X139700000Y-55700000D01*
X81200000Y-75800000D02*
X81200000Y-73400000D01*
X83600000Y-75800000D02*
X81200000Y-75800000D01*
X83600000Y-73400000D02*
X83600000Y-75800000D01*
X81200000Y-73400000D02*
X83600000Y-73400000D01*
D11*
X115200000Y-100500000D02*
X80200000Y-100500000D01*
X80200000Y-100500000D02*
X80200000Y-78500000D01*
X115200000Y-78500000D02*
X115200000Y-100500000D01*
X80200000Y-78500000D02*
X115200000Y-78500000D01*
D12*
X87000000Y-75800000D02*
X87000000Y-73400000D01*
X89400000Y-75800000D02*
X87000000Y-75800000D01*
X89400000Y-73400000D02*
X89400000Y-75800000D01*
X87000000Y-73400000D02*
X89400000Y-73400000D01*
D11*
X151000000Y-102500000D02*
X116000000Y-102500000D01*
X151000000Y-80500000D02*
X151000000Y-102500000D01*
X116000000Y-102500000D02*
X116000000Y-80500000D01*
X116000000Y-80500000D02*
X151000000Y-80500000D01*
D12*
X95300000Y-127500000D02*
X92900000Y-127500000D01*
X92900000Y-127500000D02*
X92900000Y-125100000D01*
X92900000Y-125100000D02*
X95300000Y-125100000D01*
X95300000Y-125100000D02*
X95300000Y-127500000D01*
X131700000Y-55700000D02*
X129300000Y-55700000D01*
X131700000Y-53300000D02*
X131700000Y-55700000D01*
X129300000Y-55700000D02*
X129300000Y-53300000D01*
X129300000Y-53300000D02*
X131700000Y-53300000D01*
D11*
X116000000Y-110100000D02*
X151000000Y-110100000D01*
X151000000Y-110100000D02*
X151000000Y-132100000D01*
X116000000Y-132100000D02*
X116000000Y-110100000D01*
X151000000Y-132100000D02*
X116000000Y-132100000D01*
X151000000Y-79900000D02*
X116000000Y-79900000D01*
X151000000Y-57900000D02*
X151000000Y-79900000D01*
X116000000Y-79900000D02*
X116000000Y-57900000D01*
X116000000Y-57900000D02*
X151000000Y-57900000D01*
D12*
X74650000Y-116975000D02*
X77550000Y-116975000D01*
X76912800Y-114168200D02*
X75363400Y-114168200D01*
X74650000Y-112225000D02*
X77550000Y-112225000D01*
X77550000Y-112225000D02*
X77550000Y-116975000D01*
X74650000Y-112225000D02*
X74650000Y-116975000D01*
G36*
X76735000Y-115108000D02*
G01*
X75388800Y-115108000D01*
X76125400Y-114295200D01*
X76735000Y-115108000D01*
G37*
D13*
X76735000Y-115108000D02*
X75388800Y-115108000D01*
X76125400Y-114295200D01*
X76735000Y-115108000D01*
D12*
X139800000Y-107400000D02*
X139800000Y-105000000D01*
X142200000Y-105000000D02*
X142200000Y-107400000D01*
X142200000Y-107400000D02*
X139800000Y-107400000D01*
X139800000Y-105000000D02*
X142200000Y-105000000D01*
X118025000Y-104750000D02*
X122775000Y-104750000D01*
X118025000Y-107650000D02*
X118025000Y-104750000D01*
X118025000Y-107650000D02*
X122775000Y-107650000D01*
X122775000Y-107650000D02*
X122775000Y-104750000D01*
X119968200Y-105387200D02*
X119968200Y-106936600D01*
G36*
X120908000Y-106911200D02*
G01*
X120095200Y-106174600D01*
X120908000Y-105565000D01*
X120908000Y-106911200D01*
G37*
D13*
X120908000Y-106911200D02*
X120095200Y-106174600D01*
X120908000Y-105565000D01*
X120908000Y-106911200D01*
%LPC*%
D14*
X84700000Y-116600000D03*
X84700000Y-107600000D03*
X110700000Y-55400000D03*
X110700000Y-64400000D03*
D15*
X146800000Y-106200000D03*
X86100000Y-126300000D03*
X138500000Y-54500000D03*
X82400000Y-74600000D03*
D16*
X125850000Y-42750000D03*
D14*
X84700000Y-94000000D03*
X84700000Y-85000000D03*
D15*
X88200000Y-74600000D03*
D16*
X98350000Y-42750000D03*
D14*
X146500000Y-87000000D03*
X146500000Y-96000000D03*
D15*
X94100000Y-126300000D03*
D16*
X98350000Y-138250000D03*
X125850000Y-138250000D03*
D15*
X130500000Y-54500000D03*
D14*
X120500000Y-125600000D03*
X120500000Y-116600000D03*
X146500000Y-64400000D03*
X146500000Y-73400000D03*
D17*
X76100000Y-112600000D03*
X76100000Y-116600000D03*
D15*
X141000000Y-106200000D03*
D18*
X118400000Y-106200000D03*
X122400000Y-106200000D03*
M02*
