%FSLAX45Y45*%
G04 Gerber Fmt 4.5, Leading zero omitted, Abs format (unit mm)*
G04 Created by KiCad (PCBNEW (6.0.5-0)) date 2023-01-03 07:13:59*
%MOMM*%
%LPD*%
G01*
G04 APERTURE LIST*
%TA.AperFunction,Profile*%
%ADD10C,0.100000*%
%TD*%
%ADD11C,0.200000*%
%ADD12C,0.040000*%
%ADD13C,0.100000*%
%ADD14C,0.320000*%
G04 APERTURE END LIST*
D10*
X13560000Y-14225000D02*
X8860000Y-14225000D01*
X14360000Y-4675000D02*
X14360000Y-4916130D01*
X15210000Y-5310000D02*
X15210000Y-13425000D01*
X7220000Y-12630000D02*
X7520000Y-12630000D01*
X8060567Y-13015036D02*
G75*
G03*
X7966933Y-12925000I-93657J-3694D01*
G01*
X14910000Y-5010000D02*
X14910000Y-5310000D01*
X13560000Y-14225000D02*
X13560000Y-13590000D01*
X8700000Y-4675000D02*
G75*
G03*
X8865000Y-4510000I0J165000D01*
G01*
X14360003Y-4916130D02*
G75*
G03*
X14454946Y-5010000I99097J5280D01*
G01*
X13725000Y-13425000D02*
G75*
G03*
X13560000Y-13590000I0J-165000D01*
G01*
X15210000Y-13425000D02*
X13725000Y-13425000D01*
X8860000Y-13590000D02*
X8860000Y-14225000D01*
X13560000Y-4510000D02*
X13560000Y-3875000D01*
X7210000Y-4675000D02*
X8700000Y-4675000D01*
X8860000Y-13590000D02*
G75*
G03*
X8695000Y-13425000I-165000J0D01*
G01*
X7966933Y-12925000D02*
X7520000Y-12930000D01*
X8695000Y-13425000D02*
X8060000Y-13425000D01*
X8060000Y-13425000D02*
X8060573Y-13015036D01*
X13560000Y-4510000D02*
G75*
G03*
X13725000Y-4675000I165000J0D01*
G01*
X7520000Y-12630000D02*
X7520000Y-12930000D01*
X8865000Y-3875000D02*
X13560000Y-3875000D01*
X7220000Y-12630000D02*
X7210000Y-4675000D01*
X14454946Y-5010000D02*
X14910000Y-5010000D01*
X14910000Y-5310000D02*
X15210000Y-5310000D01*
X8865000Y-3875000D02*
X8865000Y-4510000D01*
X13725000Y-4675000D02*
X14360000Y-4675000D01*
D11*
D12*
X8170000Y-12375000D02*
X8210000Y-12415000D01*
X8210000Y-12375000D02*
X8170000Y-12415000D01*
X8170000Y-12617500D02*
X8210000Y-12657500D01*
X8210000Y-12617500D02*
X8170000Y-12657500D01*
X8170000Y-12867500D02*
X8210000Y-12907500D01*
X8210000Y-12867500D02*
X8170000Y-12907500D01*
X8370000Y-12370000D02*
X8410000Y-12410000D01*
X8410000Y-12370000D02*
X8370000Y-12410000D01*
X8370000Y-12615000D02*
X8410000Y-12655000D01*
X8410000Y-12615000D02*
X8370000Y-12655000D01*
X8370000Y-12867500D02*
X8410000Y-12907500D01*
X8410000Y-12867500D02*
X8370000Y-12907500D01*
X8610000Y-12370000D02*
X8650000Y-12410000D01*
X8650000Y-12370000D02*
X8610000Y-12410000D01*
X8610000Y-12870000D02*
X8650000Y-12910000D01*
X8650000Y-12870000D02*
X8610000Y-12910000D01*
X8780000Y-7207500D02*
X8820000Y-7247500D01*
X8820000Y-7207500D02*
X8780000Y-7247500D01*
X8780000Y-7707500D02*
X8820000Y-7747500D01*
X8820000Y-7707500D02*
X8780000Y-7747500D01*
X9020000Y-7210000D02*
X9060000Y-7250000D01*
X9060000Y-7210000D02*
X9020000Y-7250000D01*
X9020000Y-7457500D02*
X9060000Y-7497500D01*
X9060000Y-7457500D02*
X9020000Y-7497500D01*
X9020000Y-7707500D02*
X9060000Y-7747500D01*
X9060000Y-7707500D02*
X9020000Y-7747500D01*
X9220000Y-7210000D02*
X9260000Y-7250000D01*
X9260000Y-7210000D02*
X9220000Y-7250000D01*
X9220000Y-7460000D02*
X9260000Y-7500000D01*
X9260000Y-7460000D02*
X9220000Y-7500000D01*
X9220000Y-7702500D02*
X9260000Y-7742500D01*
X9260000Y-7702500D02*
X9220000Y-7742500D01*
X9715000Y-11835000D02*
X9755000Y-11875000D01*
X9755000Y-11835000D02*
X9715000Y-11875000D01*
X10710000Y-6700000D02*
X10750000Y-6740000D01*
X10750000Y-6700000D02*
X10710000Y-6740000D01*
X10750000Y-6420000D02*
X10790000Y-6460000D01*
X10790000Y-6420000D02*
X10750000Y-6460000D01*
X10780000Y-6580000D02*
X10820000Y-6620000D01*
X10820000Y-6580000D02*
X10780000Y-6620000D01*
X10850000Y-6830000D02*
X10890000Y-6870000D01*
X10890000Y-6830000D02*
X10850000Y-6870000D01*
X10890000Y-6700000D02*
X10930000Y-6740000D01*
X10930000Y-6700000D02*
X10890000Y-6740000D01*
X11030000Y-6860000D02*
X11070000Y-6900000D01*
X11070000Y-6860000D02*
X11030000Y-6900000D01*
X11060000Y-6720000D02*
X11100000Y-6760000D01*
X11100000Y-6720000D02*
X11060000Y-6760000D01*
X11180000Y-6830000D02*
X11220000Y-6870000D01*
X11220000Y-6830000D02*
X11180000Y-6870000D01*
X11220000Y-6660000D02*
X11260000Y-6700000D01*
X11260000Y-6660000D02*
X11220000Y-6700000D01*
X11310000Y-6540000D02*
X11350000Y-6580000D01*
X11350000Y-6540000D02*
X11310000Y-6580000D01*
X11320000Y-6750000D02*
X11360000Y-6790000D01*
X11360000Y-6750000D02*
X11320000Y-6790000D01*
X11330000Y-6400000D02*
X11370000Y-6440000D01*
X11370000Y-6400000D02*
X11330000Y-6440000D01*
X11420000Y-6590000D02*
X11460000Y-6630000D01*
X11460000Y-6590000D02*
X11420000Y-6630000D01*
X13660000Y-10597500D02*
X13700000Y-10637500D01*
X13700000Y-10597500D02*
X13660000Y-10637500D01*
X13660000Y-10847500D02*
X13700000Y-10887500D01*
X13700000Y-10847500D02*
X13660000Y-10887500D01*
X13810000Y-5170000D02*
X13850000Y-5210000D01*
X13850000Y-5170000D02*
X13810000Y-5210000D01*
X13810000Y-5670000D02*
X13850000Y-5710000D01*
X13850000Y-5670000D02*
X13810000Y-5710000D01*
X13860000Y-10350000D02*
X13900000Y-10390000D01*
X13900000Y-10350000D02*
X13860000Y-10390000D01*
X13860000Y-10597500D02*
X13900000Y-10637500D01*
X13900000Y-10597500D02*
X13860000Y-10637500D01*
X13860000Y-10847500D02*
X13900000Y-10887500D01*
X13900000Y-10847500D02*
X13860000Y-10887500D01*
X14050000Y-5172500D02*
X14090000Y-5212500D01*
X14090000Y-5172500D02*
X14050000Y-5212500D01*
X14050000Y-5422500D02*
X14090000Y-5462500D01*
X14090000Y-5422500D02*
X14050000Y-5462500D01*
X14050000Y-5670000D02*
X14090000Y-5710000D01*
X14090000Y-5670000D02*
X14050000Y-5710000D01*
X14100000Y-10350000D02*
X14140000Y-10390000D01*
X14140000Y-10350000D02*
X14100000Y-10390000D01*
X14100000Y-10850000D02*
X14140000Y-10890000D01*
X14140000Y-10850000D02*
X14100000Y-10890000D01*
X14250000Y-5172500D02*
X14290000Y-5212500D01*
X14290000Y-5172500D02*
X14250000Y-5212500D01*
X14250000Y-5422500D02*
X14290000Y-5462500D01*
X14290000Y-5422500D02*
X14250000Y-5462500D01*
X14250000Y-5665000D02*
X14290000Y-5705000D01*
X14290000Y-5665000D02*
X14250000Y-5705000D01*
X14260000Y-7180000D02*
X14300000Y-7220000D01*
X14300000Y-7180000D02*
X14260000Y-7220000D01*
X14290000Y-7070000D02*
X14330000Y-7110000D01*
X14330000Y-7070000D02*
X14290000Y-7110000D01*
X14320000Y-7500000D02*
X14360000Y-7540000D01*
X14360000Y-7500000D02*
X14320000Y-7540000D01*
X14370000Y-7230000D02*
X14410000Y-7270000D01*
X14410000Y-7230000D02*
X14370000Y-7270000D01*
X14370000Y-7390000D02*
X14410000Y-7430000D01*
X14410000Y-7390000D02*
X14370000Y-7430000D01*
X14400000Y-6980000D02*
X14440000Y-7020000D01*
X14440000Y-6980000D02*
X14400000Y-7020000D01*
X14400000Y-7110000D02*
X14440000Y-7150000D01*
X14440000Y-7110000D02*
X14400000Y-7150000D01*
X14400000Y-7610000D02*
X14440000Y-7650000D01*
X14440000Y-7610000D02*
X14400000Y-7650000D01*
X14450000Y-7520000D02*
X14490000Y-7560000D01*
X14490000Y-7520000D02*
X14450000Y-7560000D01*
X14510000Y-7050000D02*
X14550000Y-7090000D01*
X14550000Y-7050000D02*
X14510000Y-7090000D01*
X14520000Y-7660000D02*
X14560000Y-7700000D01*
X14560000Y-7660000D02*
X14520000Y-7700000D01*
X14590000Y-7570000D02*
X14630000Y-7610000D01*
X14630000Y-7570000D02*
X14590000Y-7610000D01*
D13*
X8290000Y-7460000D02*
G75*
G03*
X8290000Y-7460000I-50000J0D01*
G01*
X8660000Y-12630000D02*
G75*
G03*
X8660000Y-12630000I-50000J0D01*
G01*
X8870000Y-7460000D02*
G75*
G03*
X8870000Y-7460000I-50000J0D01*
G01*
X9460000Y-12630000D02*
G75*
G03*
X9460000Y-12630000I-50000J0D01*
G01*
X13100000Y-5450000D02*
G75*
G03*
X13100000Y-5450000I-50000J0D01*
G01*
X13900000Y-5450000D02*
G75*
G03*
X13900000Y-5450000I-50000J0D01*
G01*
X14150000Y-10620000D02*
G75*
G03*
X14150000Y-10620000I-50000J0D01*
G01*
X14730000Y-10620000D02*
G75*
G03*
X14730000Y-10620000I-50000J0D01*
G01*
D11*
X8470000Y-8400000D02*
X8470000Y-8600000D01*
X8370000Y-8500000D02*
X8570000Y-8500000D01*
X8470000Y-9300000D02*
X8470000Y-9500000D01*
X8370000Y-9400000D02*
X8570000Y-9400000D01*
X8470000Y-10660000D02*
X8470000Y-10860000D01*
X8370000Y-10760000D02*
X8570000Y-10760000D01*
X8470000Y-11560000D02*
X8470000Y-11760000D01*
X8370000Y-11660000D02*
X8570000Y-11660000D01*
X11070000Y-5440000D02*
X11070000Y-5640000D01*
X10970000Y-5540000D02*
X11170000Y-5540000D01*
X11070000Y-6340000D02*
X11070000Y-6540000D01*
X10970000Y-6440000D02*
X11170000Y-6440000D01*
X12050000Y-11560000D02*
X12050000Y-11760000D01*
X11950000Y-11660000D02*
X12150000Y-11660000D01*
X12050000Y-12460000D02*
X12050000Y-12660000D01*
X11950000Y-12560000D02*
X12150000Y-12560000D01*
X14650000Y-6340000D02*
X14650000Y-6540000D01*
X14550000Y-6440000D02*
X14750000Y-6440000D01*
X14650000Y-7240000D02*
X14650000Y-7440000D01*
X14550000Y-7340000D02*
X14750000Y-7340000D01*
X14650000Y-8600000D02*
X14650000Y-8800000D01*
X14550000Y-8700000D02*
X14750000Y-8700000D01*
X14650000Y-9500000D02*
X14650000Y-9700000D01*
X14550000Y-9600000D02*
X14750000Y-9600000D01*
D14*
X9948138Y-4388138D02*
X9948138Y-4161862D01*
X9721862Y-4161862D01*
X9721862Y-4388138D01*
X9948138Y-4388138D01*
X9948138Y-13938138D02*
X9948138Y-13711862D01*
X9721862Y-13711862D01*
X9721862Y-13938138D01*
X9948138Y-13938138D01*
X12698138Y-4388138D02*
X12698138Y-4161862D01*
X12471862Y-4161862D01*
X12471862Y-4388138D01*
X12698138Y-4388138D01*
X12698138Y-13938138D02*
X12698138Y-13711862D01*
X12471862Y-13711862D01*
X12471862Y-13938138D01*
X12698138Y-13938138D01*
D11*
X7462619Y-14540476D02*
X7462619Y-14340476D01*
X7510238Y-14340476D01*
X7538809Y-14350000D01*
X7557857Y-14369048D01*
X7567381Y-14388095D01*
X7576905Y-14426190D01*
X7576905Y-14454762D01*
X7567381Y-14492857D01*
X7557857Y-14511905D01*
X7538809Y-14530952D01*
X7510238Y-14540476D01*
X7462619Y-14540476D01*
X7662619Y-14540476D02*
X7662619Y-14407143D01*
X7662619Y-14445238D02*
X7672143Y-14426190D01*
X7681667Y-14416667D01*
X7700714Y-14407143D01*
X7719762Y-14407143D01*
X7786428Y-14540476D02*
X7786428Y-14407143D01*
X7786428Y-14340476D02*
X7776905Y-14350000D01*
X7786428Y-14359524D01*
X7795952Y-14350000D01*
X7786428Y-14340476D01*
X7786428Y-14359524D01*
X7910238Y-14540476D02*
X7891190Y-14530952D01*
X7881667Y-14511905D01*
X7881667Y-14340476D01*
X8015000Y-14540476D02*
X7995952Y-14530952D01*
X7986428Y-14511905D01*
X7986428Y-14340476D01*
X8243571Y-14540476D02*
X8243571Y-14340476D01*
X8310238Y-14483333D01*
X8376905Y-14340476D01*
X8376905Y-14540476D01*
X8557857Y-14540476D02*
X8557857Y-14435714D01*
X8548333Y-14416667D01*
X8529286Y-14407143D01*
X8491190Y-14407143D01*
X8472143Y-14416667D01*
X8557857Y-14530952D02*
X8538810Y-14540476D01*
X8491190Y-14540476D01*
X8472143Y-14530952D01*
X8462619Y-14511905D01*
X8462619Y-14492857D01*
X8472143Y-14473809D01*
X8491190Y-14464286D01*
X8538810Y-14464286D01*
X8557857Y-14454762D01*
X8653095Y-14407143D02*
X8653095Y-14607143D01*
X8653095Y-14416667D02*
X8672143Y-14407143D01*
X8710238Y-14407143D01*
X8729286Y-14416667D01*
X8738810Y-14426190D01*
X8748333Y-14445238D01*
X8748333Y-14502381D01*
X8738810Y-14521428D01*
X8729286Y-14530952D01*
X8710238Y-14540476D01*
X8672143Y-14540476D01*
X8653095Y-14530952D01*
X8834048Y-14521428D02*
X8843571Y-14530952D01*
X8834048Y-14540476D01*
X8824524Y-14530952D01*
X8834048Y-14521428D01*
X8834048Y-14540476D01*
X8834048Y-14416667D02*
X8843571Y-14426190D01*
X8834048Y-14435714D01*
X8824524Y-14426190D01*
X8834048Y-14416667D01*
X8834048Y-14435714D01*
D12*
X7165000Y-14850000D02*
X7205000Y-14890000D01*
X7205000Y-14850000D02*
X7165000Y-14890000D01*
D11*
X7500714Y-14760476D02*
X7519762Y-14760476D01*
X7538809Y-14770000D01*
X7548333Y-14779524D01*
X7557857Y-14798571D01*
X7567381Y-14836667D01*
X7567381Y-14884286D01*
X7557857Y-14922381D01*
X7548333Y-14941428D01*
X7538809Y-14950952D01*
X7519762Y-14960476D01*
X7500714Y-14960476D01*
X7481667Y-14950952D01*
X7472143Y-14941428D01*
X7462619Y-14922381D01*
X7453095Y-14884286D01*
X7453095Y-14836667D01*
X7462619Y-14798571D01*
X7472143Y-14779524D01*
X7481667Y-14770000D01*
X7500714Y-14760476D01*
X7653095Y-14941428D02*
X7662619Y-14950952D01*
X7653095Y-14960476D01*
X7643571Y-14950952D01*
X7653095Y-14941428D01*
X7653095Y-14960476D01*
X7834048Y-14827143D02*
X7834048Y-14960476D01*
X7786428Y-14750952D02*
X7738809Y-14893809D01*
X7862619Y-14893809D01*
X7976905Y-14760476D02*
X7995952Y-14760476D01*
X8015000Y-14770000D01*
X8024524Y-14779524D01*
X8034048Y-14798571D01*
X8043571Y-14836667D01*
X8043571Y-14884286D01*
X8034048Y-14922381D01*
X8024524Y-14941428D01*
X8015000Y-14950952D01*
X7995952Y-14960476D01*
X7976905Y-14960476D01*
X7957857Y-14950952D01*
X7948333Y-14941428D01*
X7938809Y-14922381D01*
X7929286Y-14884286D01*
X7929286Y-14836667D01*
X7938809Y-14798571D01*
X7948333Y-14779524D01*
X7957857Y-14770000D01*
X7976905Y-14760476D01*
X8167381Y-14760476D02*
X8186428Y-14760476D01*
X8205476Y-14770000D01*
X8215000Y-14779524D01*
X8224524Y-14798571D01*
X8234048Y-14836667D01*
X8234048Y-14884286D01*
X8224524Y-14922381D01*
X8215000Y-14941428D01*
X8205476Y-14950952D01*
X8186428Y-14960476D01*
X8167381Y-14960476D01*
X8148333Y-14950952D01*
X8138809Y-14941428D01*
X8129286Y-14922381D01*
X8119762Y-14884286D01*
X8119762Y-14836667D01*
X8129286Y-14798571D01*
X8138809Y-14779524D01*
X8148333Y-14770000D01*
X8167381Y-14760476D01*
X8319762Y-14960476D02*
X8319762Y-14827143D01*
X8319762Y-14846190D02*
X8329286Y-14836667D01*
X8348333Y-14827143D01*
X8376905Y-14827143D01*
X8395952Y-14836667D01*
X8405476Y-14855714D01*
X8405476Y-14960476D01*
X8405476Y-14855714D02*
X8415000Y-14836667D01*
X8434048Y-14827143D01*
X8462619Y-14827143D01*
X8481667Y-14836667D01*
X8491190Y-14855714D01*
X8491190Y-14960476D01*
X8586429Y-14960476D02*
X8586429Y-14827143D01*
X8586429Y-14846190D02*
X8595952Y-14836667D01*
X8615000Y-14827143D01*
X8643571Y-14827143D01*
X8662619Y-14836667D01*
X8672143Y-14855714D01*
X8672143Y-14960476D01*
X8672143Y-14855714D02*
X8681667Y-14836667D01*
X8700714Y-14827143D01*
X8729286Y-14827143D01*
X8748333Y-14836667D01*
X8757857Y-14855714D01*
X8757857Y-14960476D01*
X9148333Y-14750952D02*
X8976905Y-15008095D01*
X9405476Y-14760476D02*
X9424524Y-14760476D01*
X9443571Y-14770000D01*
X9453095Y-14779524D01*
X9462619Y-14798571D01*
X9472143Y-14836667D01*
X9472143Y-14884286D01*
X9462619Y-14922381D01*
X9453095Y-14941428D01*
X9443571Y-14950952D01*
X9424524Y-14960476D01*
X9405476Y-14960476D01*
X9386429Y-14950952D01*
X9376905Y-14941428D01*
X9367381Y-14922381D01*
X9357857Y-14884286D01*
X9357857Y-14836667D01*
X9367381Y-14798571D01*
X9376905Y-14779524D01*
X9386429Y-14770000D01*
X9405476Y-14760476D01*
X9557857Y-14941428D02*
X9567381Y-14950952D01*
X9557857Y-14960476D01*
X9548333Y-14950952D01*
X9557857Y-14941428D01*
X9557857Y-14960476D01*
X9691190Y-14760476D02*
X9710238Y-14760476D01*
X9729286Y-14770000D01*
X9738810Y-14779524D01*
X9748333Y-14798571D01*
X9757857Y-14836667D01*
X9757857Y-14884286D01*
X9748333Y-14922381D01*
X9738810Y-14941428D01*
X9729286Y-14950952D01*
X9710238Y-14960476D01*
X9691190Y-14960476D01*
X9672143Y-14950952D01*
X9662619Y-14941428D01*
X9653095Y-14922381D01*
X9643571Y-14884286D01*
X9643571Y-14836667D01*
X9653095Y-14798571D01*
X9662619Y-14779524D01*
X9672143Y-14770000D01*
X9691190Y-14760476D01*
X9948333Y-14960476D02*
X9834048Y-14960476D01*
X9891190Y-14960476D02*
X9891190Y-14760476D01*
X9872143Y-14789048D01*
X9853095Y-14808095D01*
X9834048Y-14817619D01*
X10129286Y-14760476D02*
X10034048Y-14760476D01*
X10024524Y-14855714D01*
X10034048Y-14846190D01*
X10053095Y-14836667D01*
X10100714Y-14836667D01*
X10119762Y-14846190D01*
X10129286Y-14855714D01*
X10138810Y-14874762D01*
X10138810Y-14922381D01*
X10129286Y-14941428D01*
X10119762Y-14950952D01*
X10100714Y-14960476D01*
X10053095Y-14960476D01*
X10034048Y-14950952D01*
X10024524Y-14941428D01*
X10205476Y-14760476D02*
X10338810Y-14760476D01*
X10253095Y-14960476D01*
X10405476Y-14760476D02*
X10405476Y-14798571D01*
X10481667Y-14760476D02*
X10481667Y-14798571D01*
X10776905Y-15036667D02*
X10767381Y-15027143D01*
X10748333Y-14998571D01*
X10738810Y-14979524D01*
X10729286Y-14950952D01*
X10719762Y-14903333D01*
X10719762Y-14865238D01*
X10729286Y-14817619D01*
X10738810Y-14789048D01*
X10748333Y-14770000D01*
X10767381Y-14741428D01*
X10776905Y-14731905D01*
X10948333Y-14760476D02*
X10853095Y-14760476D01*
X10843571Y-14855714D01*
X10853095Y-14846190D01*
X10872143Y-14836667D01*
X10919762Y-14836667D01*
X10938810Y-14846190D01*
X10948333Y-14855714D01*
X10957857Y-14874762D01*
X10957857Y-14922381D01*
X10948333Y-14941428D01*
X10938810Y-14950952D01*
X10919762Y-14960476D01*
X10872143Y-14960476D01*
X10853095Y-14950952D01*
X10843571Y-14941428D01*
X11024524Y-14760476D02*
X11157857Y-14760476D01*
X11072143Y-14960476D01*
X11386428Y-14960476D02*
X11386428Y-14760476D01*
X11472143Y-14960476D02*
X11472143Y-14855714D01*
X11462619Y-14836667D01*
X11443571Y-14827143D01*
X11415000Y-14827143D01*
X11395952Y-14836667D01*
X11386428Y-14846190D01*
X11595952Y-14960476D02*
X11576905Y-14950952D01*
X11567381Y-14941428D01*
X11557857Y-14922381D01*
X11557857Y-14865238D01*
X11567381Y-14846190D01*
X11576905Y-14836667D01*
X11595952Y-14827143D01*
X11624524Y-14827143D01*
X11643571Y-14836667D01*
X11653095Y-14846190D01*
X11662619Y-14865238D01*
X11662619Y-14922381D01*
X11653095Y-14941428D01*
X11643571Y-14950952D01*
X11624524Y-14960476D01*
X11595952Y-14960476D01*
X11776905Y-14960476D02*
X11757857Y-14950952D01*
X11748333Y-14931905D01*
X11748333Y-14760476D01*
X11929286Y-14950952D02*
X11910238Y-14960476D01*
X11872143Y-14960476D01*
X11853095Y-14950952D01*
X11843571Y-14931905D01*
X11843571Y-14855714D01*
X11853095Y-14836667D01*
X11872143Y-14827143D01*
X11910238Y-14827143D01*
X11929286Y-14836667D01*
X11938809Y-14855714D01*
X11938809Y-14874762D01*
X11843571Y-14893809D01*
X12015000Y-14950952D02*
X12034048Y-14960476D01*
X12072143Y-14960476D01*
X12091190Y-14950952D01*
X12100714Y-14931905D01*
X12100714Y-14922381D01*
X12091190Y-14903333D01*
X12072143Y-14893809D01*
X12043571Y-14893809D01*
X12024524Y-14884286D01*
X12015000Y-14865238D01*
X12015000Y-14855714D01*
X12024524Y-14836667D01*
X12043571Y-14827143D01*
X12072143Y-14827143D01*
X12091190Y-14836667D01*
X12167381Y-15036667D02*
X12176905Y-15027143D01*
X12195952Y-14998571D01*
X12205476Y-14979524D01*
X12215000Y-14950952D01*
X12224524Y-14903333D01*
X12224524Y-14865238D01*
X12215000Y-14817619D01*
X12205476Y-14789048D01*
X12195952Y-14770000D01*
X12176905Y-14741428D01*
X12167381Y-14731905D01*
D13*
X7205000Y-15134000D02*
G75*
G03*
X7205000Y-15134000I-50000J0D01*
G01*
D11*
X7567381Y-15224476D02*
X7453095Y-15224476D01*
X7510238Y-15224476D02*
X7510238Y-15024476D01*
X7491190Y-15053048D01*
X7472143Y-15072095D01*
X7453095Y-15081619D01*
X7653095Y-15205428D02*
X7662619Y-15214952D01*
X7653095Y-15224476D01*
X7643571Y-15214952D01*
X7653095Y-15205428D01*
X7653095Y-15224476D01*
X7786428Y-15024476D02*
X7805476Y-15024476D01*
X7824524Y-15034000D01*
X7834048Y-15043524D01*
X7843571Y-15062571D01*
X7853095Y-15100667D01*
X7853095Y-15148286D01*
X7843571Y-15186381D01*
X7834048Y-15205428D01*
X7824524Y-15214952D01*
X7805476Y-15224476D01*
X7786428Y-15224476D01*
X7767381Y-15214952D01*
X7757857Y-15205428D01*
X7748333Y-15186381D01*
X7738809Y-15148286D01*
X7738809Y-15100667D01*
X7748333Y-15062571D01*
X7757857Y-15043524D01*
X7767381Y-15034000D01*
X7786428Y-15024476D01*
X7976905Y-15024476D02*
X7995952Y-15024476D01*
X8015000Y-15034000D01*
X8024524Y-15043524D01*
X8034048Y-15062571D01*
X8043571Y-15100667D01*
X8043571Y-15148286D01*
X8034048Y-15186381D01*
X8024524Y-15205428D01*
X8015000Y-15214952D01*
X7995952Y-15224476D01*
X7976905Y-15224476D01*
X7957857Y-15214952D01*
X7948333Y-15205428D01*
X7938809Y-15186381D01*
X7929286Y-15148286D01*
X7929286Y-15100667D01*
X7938809Y-15062571D01*
X7948333Y-15043524D01*
X7957857Y-15034000D01*
X7976905Y-15024476D01*
X8167381Y-15024476D02*
X8186428Y-15024476D01*
X8205476Y-15034000D01*
X8215000Y-15043524D01*
X8224524Y-15062571D01*
X8234048Y-15100667D01*
X8234048Y-15148286D01*
X8224524Y-15186381D01*
X8215000Y-15205428D01*
X8205476Y-15214952D01*
X8186428Y-15224476D01*
X8167381Y-15224476D01*
X8148333Y-15214952D01*
X8138809Y-15205428D01*
X8129286Y-15186381D01*
X8119762Y-15148286D01*
X8119762Y-15100667D01*
X8129286Y-15062571D01*
X8138809Y-15043524D01*
X8148333Y-15034000D01*
X8167381Y-15024476D01*
X8319762Y-15224476D02*
X8319762Y-15091143D01*
X8319762Y-15110190D02*
X8329286Y-15100667D01*
X8348333Y-15091143D01*
X8376905Y-15091143D01*
X8395952Y-15100667D01*
X8405476Y-15119714D01*
X8405476Y-15224476D01*
X8405476Y-15119714D02*
X8415000Y-15100667D01*
X8434048Y-15091143D01*
X8462619Y-15091143D01*
X8481667Y-15100667D01*
X8491190Y-15119714D01*
X8491190Y-15224476D01*
X8586429Y-15224476D02*
X8586429Y-15091143D01*
X8586429Y-15110190D02*
X8595952Y-15100667D01*
X8615000Y-15091143D01*
X8643571Y-15091143D01*
X8662619Y-15100667D01*
X8672143Y-15119714D01*
X8672143Y-15224476D01*
X8672143Y-15119714D02*
X8681667Y-15100667D01*
X8700714Y-15091143D01*
X8729286Y-15091143D01*
X8748333Y-15100667D01*
X8757857Y-15119714D01*
X8757857Y-15224476D01*
X9148333Y-15014952D02*
X8976905Y-15272095D01*
X9405476Y-15024476D02*
X9424524Y-15024476D01*
X9443571Y-15034000D01*
X9453095Y-15043524D01*
X9462619Y-15062571D01*
X9472143Y-15100667D01*
X9472143Y-15148286D01*
X9462619Y-15186381D01*
X9453095Y-15205428D01*
X9443571Y-15214952D01*
X9424524Y-15224476D01*
X9405476Y-15224476D01*
X9386429Y-15214952D01*
X9376905Y-15205428D01*
X9367381Y-15186381D01*
X9357857Y-15148286D01*
X9357857Y-15100667D01*
X9367381Y-15062571D01*
X9376905Y-15043524D01*
X9386429Y-15034000D01*
X9405476Y-15024476D01*
X9557857Y-15205428D02*
X9567381Y-15214952D01*
X9557857Y-15224476D01*
X9548333Y-15214952D01*
X9557857Y-15205428D01*
X9557857Y-15224476D01*
X9691190Y-15024476D02*
X9710238Y-15024476D01*
X9729286Y-15034000D01*
X9738810Y-15043524D01*
X9748333Y-15062571D01*
X9757857Y-15100667D01*
X9757857Y-15148286D01*
X9748333Y-15186381D01*
X9738810Y-15205428D01*
X9729286Y-15214952D01*
X9710238Y-15224476D01*
X9691190Y-15224476D01*
X9672143Y-15214952D01*
X9662619Y-15205428D01*
X9653095Y-15186381D01*
X9643571Y-15148286D01*
X9643571Y-15100667D01*
X9653095Y-15062571D01*
X9662619Y-15043524D01*
X9672143Y-15034000D01*
X9691190Y-15024476D01*
X9824524Y-15024476D02*
X9948333Y-15024476D01*
X9881667Y-15100667D01*
X9910238Y-15100667D01*
X9929286Y-15110190D01*
X9938810Y-15119714D01*
X9948333Y-15138762D01*
X9948333Y-15186381D01*
X9938810Y-15205428D01*
X9929286Y-15214952D01*
X9910238Y-15224476D01*
X9853095Y-15224476D01*
X9834048Y-15214952D01*
X9824524Y-15205428D01*
X10043571Y-15224476D02*
X10081667Y-15224476D01*
X10100714Y-15214952D01*
X10110238Y-15205428D01*
X10129286Y-15176857D01*
X10138810Y-15138762D01*
X10138810Y-15062571D01*
X10129286Y-15043524D01*
X10119762Y-15034000D01*
X10100714Y-15024476D01*
X10062619Y-15024476D01*
X10043571Y-15034000D01*
X10034048Y-15043524D01*
X10024524Y-15062571D01*
X10024524Y-15110190D01*
X10034048Y-15129238D01*
X10043571Y-15138762D01*
X10062619Y-15148286D01*
X10100714Y-15148286D01*
X10119762Y-15138762D01*
X10129286Y-15129238D01*
X10138810Y-15110190D01*
X10310238Y-15091143D02*
X10310238Y-15224476D01*
X10262619Y-15014952D02*
X10215000Y-15157809D01*
X10338810Y-15157809D01*
X10405476Y-15024476D02*
X10405476Y-15062571D01*
X10481667Y-15024476D02*
X10481667Y-15062571D01*
X10776905Y-15300667D02*
X10767381Y-15291143D01*
X10748333Y-15262571D01*
X10738810Y-15243524D01*
X10729286Y-15214952D01*
X10719762Y-15167333D01*
X10719762Y-15129238D01*
X10729286Y-15081619D01*
X10738810Y-15053048D01*
X10748333Y-15034000D01*
X10767381Y-15005428D01*
X10776905Y-14995905D01*
X10881667Y-15110190D02*
X10862619Y-15100667D01*
X10853095Y-15091143D01*
X10843571Y-15072095D01*
X10843571Y-15062571D01*
X10853095Y-15043524D01*
X10862619Y-15034000D01*
X10881667Y-15024476D01*
X10919762Y-15024476D01*
X10938810Y-15034000D01*
X10948333Y-15043524D01*
X10957857Y-15062571D01*
X10957857Y-15072095D01*
X10948333Y-15091143D01*
X10938810Y-15100667D01*
X10919762Y-15110190D01*
X10881667Y-15110190D01*
X10862619Y-15119714D01*
X10853095Y-15129238D01*
X10843571Y-15148286D01*
X10843571Y-15186381D01*
X10853095Y-15205428D01*
X10862619Y-15214952D01*
X10881667Y-15224476D01*
X10919762Y-15224476D01*
X10938810Y-15214952D01*
X10948333Y-15205428D01*
X10957857Y-15186381D01*
X10957857Y-15148286D01*
X10948333Y-15129238D01*
X10938810Y-15119714D01*
X10919762Y-15110190D01*
X11195952Y-15224476D02*
X11195952Y-15024476D01*
X11281667Y-15224476D02*
X11281667Y-15119714D01*
X11272143Y-15100667D01*
X11253095Y-15091143D01*
X11224524Y-15091143D01*
X11205476Y-15100667D01*
X11195952Y-15110190D01*
X11405476Y-15224476D02*
X11386428Y-15214952D01*
X11376905Y-15205428D01*
X11367381Y-15186381D01*
X11367381Y-15129238D01*
X11376905Y-15110190D01*
X11386428Y-15100667D01*
X11405476Y-15091143D01*
X11434048Y-15091143D01*
X11453095Y-15100667D01*
X11462619Y-15110190D01*
X11472143Y-15129238D01*
X11472143Y-15186381D01*
X11462619Y-15205428D01*
X11453095Y-15214952D01*
X11434048Y-15224476D01*
X11405476Y-15224476D01*
X11586428Y-15224476D02*
X11567381Y-15214952D01*
X11557857Y-15195905D01*
X11557857Y-15024476D01*
X11738809Y-15214952D02*
X11719762Y-15224476D01*
X11681667Y-15224476D01*
X11662619Y-15214952D01*
X11653095Y-15195905D01*
X11653095Y-15119714D01*
X11662619Y-15100667D01*
X11681667Y-15091143D01*
X11719762Y-15091143D01*
X11738809Y-15100667D01*
X11748333Y-15119714D01*
X11748333Y-15138762D01*
X11653095Y-15157809D01*
X11824524Y-15214952D02*
X11843571Y-15224476D01*
X11881667Y-15224476D01*
X11900714Y-15214952D01*
X11910238Y-15195905D01*
X11910238Y-15186381D01*
X11900714Y-15167333D01*
X11881667Y-15157809D01*
X11853095Y-15157809D01*
X11834048Y-15148286D01*
X11824524Y-15129238D01*
X11824524Y-15119714D01*
X11834048Y-15100667D01*
X11853095Y-15091143D01*
X11881667Y-15091143D01*
X11900714Y-15100667D01*
X11976905Y-15300667D02*
X11986428Y-15291143D01*
X12005476Y-15262571D01*
X12015000Y-15243524D01*
X12024524Y-15214952D01*
X12034048Y-15167333D01*
X12034048Y-15129238D01*
X12024524Y-15081619D01*
X12015000Y-15053048D01*
X12005476Y-15034000D01*
X11986428Y-15005428D01*
X11976905Y-14995905D01*
X7105000Y-15298000D02*
X7105000Y-15498000D01*
X7005000Y-15398000D02*
X7205000Y-15398000D01*
X7453095Y-15307524D02*
X7462619Y-15298000D01*
X7481667Y-15288476D01*
X7529286Y-15288476D01*
X7548333Y-15298000D01*
X7557857Y-15307524D01*
X7567381Y-15326571D01*
X7567381Y-15345619D01*
X7557857Y-15374190D01*
X7443571Y-15488476D01*
X7567381Y-15488476D01*
X7653095Y-15469428D02*
X7662619Y-15478952D01*
X7653095Y-15488476D01*
X7643571Y-15478952D01*
X7653095Y-15469428D01*
X7653095Y-15488476D01*
X7786428Y-15288476D02*
X7805476Y-15288476D01*
X7824524Y-15298000D01*
X7834048Y-15307524D01*
X7843571Y-15326571D01*
X7853095Y-15364667D01*
X7853095Y-15412286D01*
X7843571Y-15450381D01*
X7834048Y-15469428D01*
X7824524Y-15478952D01*
X7805476Y-15488476D01*
X7786428Y-15488476D01*
X7767381Y-15478952D01*
X7757857Y-15469428D01*
X7748333Y-15450381D01*
X7738809Y-15412286D01*
X7738809Y-15364667D01*
X7748333Y-15326571D01*
X7757857Y-15307524D01*
X7767381Y-15298000D01*
X7786428Y-15288476D01*
X7976905Y-15288476D02*
X7995952Y-15288476D01*
X8015000Y-15298000D01*
X8024524Y-15307524D01*
X8034048Y-15326571D01*
X8043571Y-15364667D01*
X8043571Y-15412286D01*
X8034048Y-15450381D01*
X8024524Y-15469428D01*
X8015000Y-15478952D01*
X7995952Y-15488476D01*
X7976905Y-15488476D01*
X7957857Y-15478952D01*
X7948333Y-15469428D01*
X7938809Y-15450381D01*
X7929286Y-15412286D01*
X7929286Y-15364667D01*
X7938809Y-15326571D01*
X7948333Y-15307524D01*
X7957857Y-15298000D01*
X7976905Y-15288476D01*
X8167381Y-15288476D02*
X8186428Y-15288476D01*
X8205476Y-15298000D01*
X8215000Y-15307524D01*
X8224524Y-15326571D01*
X8234048Y-15364667D01*
X8234048Y-15412286D01*
X8224524Y-15450381D01*
X8215000Y-15469428D01*
X8205476Y-15478952D01*
X8186428Y-15488476D01*
X8167381Y-15488476D01*
X8148333Y-15478952D01*
X8138809Y-15469428D01*
X8129286Y-15450381D01*
X8119762Y-15412286D01*
X8119762Y-15364667D01*
X8129286Y-15326571D01*
X8138809Y-15307524D01*
X8148333Y-15298000D01*
X8167381Y-15288476D01*
X8319762Y-15488476D02*
X8319762Y-15355143D01*
X8319762Y-15374190D02*
X8329286Y-15364667D01*
X8348333Y-15355143D01*
X8376905Y-15355143D01*
X8395952Y-15364667D01*
X8405476Y-15383714D01*
X8405476Y-15488476D01*
X8405476Y-15383714D02*
X8415000Y-15364667D01*
X8434048Y-15355143D01*
X8462619Y-15355143D01*
X8481667Y-15364667D01*
X8491190Y-15383714D01*
X8491190Y-15488476D01*
X8586429Y-15488476D02*
X8586429Y-15355143D01*
X8586429Y-15374190D02*
X8595952Y-15364667D01*
X8615000Y-15355143D01*
X8643571Y-15355143D01*
X8662619Y-15364667D01*
X8672143Y-15383714D01*
X8672143Y-15488476D01*
X8672143Y-15383714D02*
X8681667Y-15364667D01*
X8700714Y-15355143D01*
X8729286Y-15355143D01*
X8748333Y-15364667D01*
X8757857Y-15383714D01*
X8757857Y-15488476D01*
X9148333Y-15278952D02*
X8976905Y-15536095D01*
X9405476Y-15288476D02*
X9424524Y-15288476D01*
X9443571Y-15298000D01*
X9453095Y-15307524D01*
X9462619Y-15326571D01*
X9472143Y-15364667D01*
X9472143Y-15412286D01*
X9462619Y-15450381D01*
X9453095Y-15469428D01*
X9443571Y-15478952D01*
X9424524Y-15488476D01*
X9405476Y-15488476D01*
X9386429Y-15478952D01*
X9376905Y-15469428D01*
X9367381Y-15450381D01*
X9357857Y-15412286D01*
X9357857Y-15364667D01*
X9367381Y-15326571D01*
X9376905Y-15307524D01*
X9386429Y-15298000D01*
X9405476Y-15288476D01*
X9557857Y-15469428D02*
X9567381Y-15478952D01*
X9557857Y-15488476D01*
X9548333Y-15478952D01*
X9557857Y-15469428D01*
X9557857Y-15488476D01*
X9691190Y-15288476D02*
X9710238Y-15288476D01*
X9729286Y-15298000D01*
X9738810Y-15307524D01*
X9748333Y-15326571D01*
X9757857Y-15364667D01*
X9757857Y-15412286D01*
X9748333Y-15450381D01*
X9738810Y-15469428D01*
X9729286Y-15478952D01*
X9710238Y-15488476D01*
X9691190Y-15488476D01*
X9672143Y-15478952D01*
X9662619Y-15469428D01*
X9653095Y-15450381D01*
X9643571Y-15412286D01*
X9643571Y-15364667D01*
X9653095Y-15326571D01*
X9662619Y-15307524D01*
X9672143Y-15298000D01*
X9691190Y-15288476D01*
X9824524Y-15288476D02*
X9957857Y-15288476D01*
X9872143Y-15488476D01*
X10062619Y-15374190D02*
X10043571Y-15364667D01*
X10034048Y-15355143D01*
X10024524Y-15336095D01*
X10024524Y-15326571D01*
X10034048Y-15307524D01*
X10043571Y-15298000D01*
X10062619Y-15288476D01*
X10100714Y-15288476D01*
X10119762Y-15298000D01*
X10129286Y-15307524D01*
X10138810Y-15326571D01*
X10138810Y-15336095D01*
X10129286Y-15355143D01*
X10119762Y-15364667D01*
X10100714Y-15374190D01*
X10062619Y-15374190D01*
X10043571Y-15383714D01*
X10034048Y-15393238D01*
X10024524Y-15412286D01*
X10024524Y-15450381D01*
X10034048Y-15469428D01*
X10043571Y-15478952D01*
X10062619Y-15488476D01*
X10100714Y-15488476D01*
X10119762Y-15478952D01*
X10129286Y-15469428D01*
X10138810Y-15450381D01*
X10138810Y-15412286D01*
X10129286Y-15393238D01*
X10119762Y-15383714D01*
X10100714Y-15374190D01*
X10205476Y-15288476D02*
X10338810Y-15288476D01*
X10253095Y-15488476D01*
X10405476Y-15288476D02*
X10405476Y-15326571D01*
X10481667Y-15288476D02*
X10481667Y-15326571D01*
X10776905Y-15564667D02*
X10767381Y-15555143D01*
X10748333Y-15526571D01*
X10738810Y-15507524D01*
X10729286Y-15478952D01*
X10719762Y-15431333D01*
X10719762Y-15393238D01*
X10729286Y-15345619D01*
X10738810Y-15317048D01*
X10748333Y-15298000D01*
X10767381Y-15269428D01*
X10776905Y-15259905D01*
X10957857Y-15488476D02*
X10843571Y-15488476D01*
X10900714Y-15488476D02*
X10900714Y-15288476D01*
X10881667Y-15317048D01*
X10862619Y-15336095D01*
X10843571Y-15345619D01*
X11034048Y-15307524D02*
X11043571Y-15298000D01*
X11062619Y-15288476D01*
X11110238Y-15288476D01*
X11129286Y-15298000D01*
X11138810Y-15307524D01*
X11148333Y-15326571D01*
X11148333Y-15345619D01*
X11138810Y-15374190D01*
X11024524Y-15488476D01*
X11148333Y-15488476D01*
X11386428Y-15488476D02*
X11386428Y-15288476D01*
X11472143Y-15488476D02*
X11472143Y-15383714D01*
X11462619Y-15364667D01*
X11443571Y-15355143D01*
X11415000Y-15355143D01*
X11395952Y-15364667D01*
X11386428Y-15374190D01*
X11595952Y-15488476D02*
X11576905Y-15478952D01*
X11567381Y-15469428D01*
X11557857Y-15450381D01*
X11557857Y-15393238D01*
X11567381Y-15374190D01*
X11576905Y-15364667D01*
X11595952Y-15355143D01*
X11624524Y-15355143D01*
X11643571Y-15364667D01*
X11653095Y-15374190D01*
X11662619Y-15393238D01*
X11662619Y-15450381D01*
X11653095Y-15469428D01*
X11643571Y-15478952D01*
X11624524Y-15488476D01*
X11595952Y-15488476D01*
X11776905Y-15488476D02*
X11757857Y-15478952D01*
X11748333Y-15459905D01*
X11748333Y-15288476D01*
X11929286Y-15478952D02*
X11910238Y-15488476D01*
X11872143Y-15488476D01*
X11853095Y-15478952D01*
X11843571Y-15459905D01*
X11843571Y-15383714D01*
X11853095Y-15364667D01*
X11872143Y-15355143D01*
X11910238Y-15355143D01*
X11929286Y-15364667D01*
X11938809Y-15383714D01*
X11938809Y-15402762D01*
X11843571Y-15421809D01*
X12015000Y-15478952D02*
X12034048Y-15488476D01*
X12072143Y-15488476D01*
X12091190Y-15478952D01*
X12100714Y-15459905D01*
X12100714Y-15450381D01*
X12091190Y-15431333D01*
X12072143Y-15421809D01*
X12043571Y-15421809D01*
X12024524Y-15412286D01*
X12015000Y-15393238D01*
X12015000Y-15383714D01*
X12024524Y-15364667D01*
X12043571Y-15355143D01*
X12072143Y-15355143D01*
X12091190Y-15364667D01*
X12167381Y-15564667D02*
X12176905Y-15555143D01*
X12195952Y-15526571D01*
X12205476Y-15507524D01*
X12215000Y-15478952D01*
X12224524Y-15431333D01*
X12224524Y-15393238D01*
X12215000Y-15345619D01*
X12205476Y-15317048D01*
X12195952Y-15298000D01*
X12176905Y-15269428D01*
X12167381Y-15259905D01*
X7175711Y-15788711D02*
X7175711Y-15647289D01*
X7034289Y-15647289D01*
X7034289Y-15788711D01*
X7175711Y-15788711D01*
X7443571Y-15608476D02*
X7567381Y-15608476D01*
X7500714Y-15684667D01*
X7529286Y-15684667D01*
X7548333Y-15694190D01*
X7557857Y-15703714D01*
X7567381Y-15722762D01*
X7567381Y-15770381D01*
X7557857Y-15789428D01*
X7548333Y-15798952D01*
X7529286Y-15808476D01*
X7472143Y-15808476D01*
X7453095Y-15798952D01*
X7443571Y-15789428D01*
X7653095Y-15789428D02*
X7662619Y-15798952D01*
X7653095Y-15808476D01*
X7643571Y-15798952D01*
X7653095Y-15789428D01*
X7653095Y-15808476D01*
X7738809Y-15627524D02*
X7748333Y-15618000D01*
X7767381Y-15608476D01*
X7815000Y-15608476D01*
X7834048Y-15618000D01*
X7843571Y-15627524D01*
X7853095Y-15646571D01*
X7853095Y-15665619D01*
X7843571Y-15694190D01*
X7729286Y-15808476D01*
X7853095Y-15808476D01*
X7976905Y-15608476D02*
X7995952Y-15608476D01*
X8015000Y-15618000D01*
X8024524Y-15627524D01*
X8034048Y-15646571D01*
X8043571Y-15684667D01*
X8043571Y-15732286D01*
X8034048Y-15770381D01*
X8024524Y-15789428D01*
X8015000Y-15798952D01*
X7995952Y-15808476D01*
X7976905Y-15808476D01*
X7957857Y-15798952D01*
X7948333Y-15789428D01*
X7938809Y-15770381D01*
X7929286Y-15732286D01*
X7929286Y-15684667D01*
X7938809Y-15646571D01*
X7948333Y-15627524D01*
X7957857Y-15618000D01*
X7976905Y-15608476D01*
X8167381Y-15608476D02*
X8186428Y-15608476D01*
X8205476Y-15618000D01*
X8215000Y-15627524D01*
X8224524Y-15646571D01*
X8234048Y-15684667D01*
X8234048Y-15732286D01*
X8224524Y-15770381D01*
X8215000Y-15789428D01*
X8205476Y-15798952D01*
X8186428Y-15808476D01*
X8167381Y-15808476D01*
X8148333Y-15798952D01*
X8138809Y-15789428D01*
X8129286Y-15770381D01*
X8119762Y-15732286D01*
X8119762Y-15684667D01*
X8129286Y-15646571D01*
X8138809Y-15627524D01*
X8148333Y-15618000D01*
X8167381Y-15608476D01*
X8319762Y-15808476D02*
X8319762Y-15675143D01*
X8319762Y-15694190D02*
X8329286Y-15684667D01*
X8348333Y-15675143D01*
X8376905Y-15675143D01*
X8395952Y-15684667D01*
X8405476Y-15703714D01*
X8405476Y-15808476D01*
X8405476Y-15703714D02*
X8415000Y-15684667D01*
X8434048Y-15675143D01*
X8462619Y-15675143D01*
X8481667Y-15684667D01*
X8491190Y-15703714D01*
X8491190Y-15808476D01*
X8586429Y-15808476D02*
X8586429Y-15675143D01*
X8586429Y-15694190D02*
X8595952Y-15684667D01*
X8615000Y-15675143D01*
X8643571Y-15675143D01*
X8662619Y-15684667D01*
X8672143Y-15703714D01*
X8672143Y-15808476D01*
X8672143Y-15703714D02*
X8681667Y-15684667D01*
X8700714Y-15675143D01*
X8729286Y-15675143D01*
X8748333Y-15684667D01*
X8757857Y-15703714D01*
X8757857Y-15808476D01*
X9148333Y-15598952D02*
X8976905Y-15856095D01*
X9405476Y-15608476D02*
X9424524Y-15608476D01*
X9443571Y-15618000D01*
X9453095Y-15627524D01*
X9462619Y-15646571D01*
X9472143Y-15684667D01*
X9472143Y-15732286D01*
X9462619Y-15770381D01*
X9453095Y-15789428D01*
X9443571Y-15798952D01*
X9424524Y-15808476D01*
X9405476Y-15808476D01*
X9386429Y-15798952D01*
X9376905Y-15789428D01*
X9367381Y-15770381D01*
X9357857Y-15732286D01*
X9357857Y-15684667D01*
X9367381Y-15646571D01*
X9376905Y-15627524D01*
X9386429Y-15618000D01*
X9405476Y-15608476D01*
X9557857Y-15789428D02*
X9567381Y-15798952D01*
X9557857Y-15808476D01*
X9548333Y-15798952D01*
X9557857Y-15789428D01*
X9557857Y-15808476D01*
X9757857Y-15808476D02*
X9643571Y-15808476D01*
X9700714Y-15808476D02*
X9700714Y-15608476D01*
X9681667Y-15637048D01*
X9662619Y-15656095D01*
X9643571Y-15665619D01*
X9834048Y-15627524D02*
X9843571Y-15618000D01*
X9862619Y-15608476D01*
X9910238Y-15608476D01*
X9929286Y-15618000D01*
X9938810Y-15627524D01*
X9948333Y-15646571D01*
X9948333Y-15665619D01*
X9938810Y-15694190D01*
X9824524Y-15808476D01*
X9948333Y-15808476D01*
X10119762Y-15608476D02*
X10081667Y-15608476D01*
X10062619Y-15618000D01*
X10053095Y-15627524D01*
X10034048Y-15656095D01*
X10024524Y-15694190D01*
X10024524Y-15770381D01*
X10034048Y-15789428D01*
X10043571Y-15798952D01*
X10062619Y-15808476D01*
X10100714Y-15808476D01*
X10119762Y-15798952D01*
X10129286Y-15789428D01*
X10138810Y-15770381D01*
X10138810Y-15722762D01*
X10129286Y-15703714D01*
X10119762Y-15694190D01*
X10100714Y-15684667D01*
X10062619Y-15684667D01*
X10043571Y-15694190D01*
X10034048Y-15703714D01*
X10024524Y-15722762D01*
X10262619Y-15608476D02*
X10281667Y-15608476D01*
X10300714Y-15618000D01*
X10310238Y-15627524D01*
X10319762Y-15646571D01*
X10329286Y-15684667D01*
X10329286Y-15732286D01*
X10319762Y-15770381D01*
X10310238Y-15789428D01*
X10300714Y-15798952D01*
X10281667Y-15808476D01*
X10262619Y-15808476D01*
X10243571Y-15798952D01*
X10234048Y-15789428D01*
X10224524Y-15770381D01*
X10215000Y-15732286D01*
X10215000Y-15684667D01*
X10224524Y-15646571D01*
X10234048Y-15627524D01*
X10243571Y-15618000D01*
X10262619Y-15608476D01*
X10405476Y-15608476D02*
X10405476Y-15646571D01*
X10481667Y-15608476D02*
X10481667Y-15646571D01*
X10776905Y-15884667D02*
X10767381Y-15875143D01*
X10748333Y-15846571D01*
X10738810Y-15827524D01*
X10729286Y-15798952D01*
X10719762Y-15751333D01*
X10719762Y-15713238D01*
X10729286Y-15665619D01*
X10738810Y-15637048D01*
X10748333Y-15618000D01*
X10767381Y-15589428D01*
X10776905Y-15579905D01*
X10938810Y-15675143D02*
X10938810Y-15808476D01*
X10891190Y-15598952D02*
X10843571Y-15741809D01*
X10967381Y-15741809D01*
X11195952Y-15808476D02*
X11195952Y-15608476D01*
X11281667Y-15808476D02*
X11281667Y-15703714D01*
X11272143Y-15684667D01*
X11253095Y-15675143D01*
X11224524Y-15675143D01*
X11205476Y-15684667D01*
X11195952Y-15694190D01*
X11405476Y-15808476D02*
X11386428Y-15798952D01*
X11376905Y-15789428D01*
X11367381Y-15770381D01*
X11367381Y-15713238D01*
X11376905Y-15694190D01*
X11386428Y-15684667D01*
X11405476Y-15675143D01*
X11434048Y-15675143D01*
X11453095Y-15684667D01*
X11462619Y-15694190D01*
X11472143Y-15713238D01*
X11472143Y-15770381D01*
X11462619Y-15789428D01*
X11453095Y-15798952D01*
X11434048Y-15808476D01*
X11405476Y-15808476D01*
X11586428Y-15808476D02*
X11567381Y-15798952D01*
X11557857Y-15779905D01*
X11557857Y-15608476D01*
X11738809Y-15798952D02*
X11719762Y-15808476D01*
X11681667Y-15808476D01*
X11662619Y-15798952D01*
X11653095Y-15779905D01*
X11653095Y-15703714D01*
X11662619Y-15684667D01*
X11681667Y-15675143D01*
X11719762Y-15675143D01*
X11738809Y-15684667D01*
X11748333Y-15703714D01*
X11748333Y-15722762D01*
X11653095Y-15741809D01*
X11824524Y-15798952D02*
X11843571Y-15808476D01*
X11881667Y-15808476D01*
X11900714Y-15798952D01*
X11910238Y-15779905D01*
X11910238Y-15770381D01*
X11900714Y-15751333D01*
X11881667Y-15741809D01*
X11853095Y-15741809D01*
X11834048Y-15732286D01*
X11824524Y-15713238D01*
X11824524Y-15703714D01*
X11834048Y-15684667D01*
X11853095Y-15675143D01*
X11881667Y-15675143D01*
X11900714Y-15684667D01*
X11976905Y-15884667D02*
X11986428Y-15875143D01*
X12005476Y-15846571D01*
X12015000Y-15827524D01*
X12024524Y-15798952D01*
X12034048Y-15751333D01*
X12034048Y-15713238D01*
X12024524Y-15665619D01*
X12015000Y-15637048D01*
X12005476Y-15618000D01*
X11986428Y-15589428D01*
X11976905Y-15579905D01*
M02*
