M48
; DRILL file {KiCad (6.0.5-0)} date Monday, December 26, 2022 at 12:24:28 AM
; FORMAT={-:-/ absolute / metric / decimal}
; #@! TF.CreationDate,2022-12-26T00:24:28-05:00
; #@! TF.GenerationSoftware,Kicad,Pcbnew,(6.0.5-0)
; #@! TF.FileFunction,Plated,1,2,PTH
FMAT,2
METRIC
; #@! TA.AperFunction,Plated,PTH,ViaDrill
T1C0.400
; #@! TA.AperFunction,Plated,PTH,ComponentDrill
T2C1.000
; #@! TA.AperFunction,Plated,PTH,ComponentDrill
T3C1.500
; #@! TA.AperFunction,Plated,PTH,ComponentDrill
T4C3.200
%
G90
G05
T1
X73.5Y-45.1
X73.5Y-47.3
X73.525Y-40.7
X73.525Y-42.7
X73.675Y-135.7
X73.675Y-138.1
X73.725Y-140.1
X73.75Y-133.5
X76.0Y-42.7
X76.025Y-40.7
X76.025Y-47.3
X76.125Y-138.1
X76.15Y-140.1
X76.175Y-133.5
X78.425Y-47.3
X78.45Y-40.7
X78.5Y-42.7
X78.5Y-45.1
X78.65Y-138.1
X78.65Y-140.1
X78.675Y-133.5
X78.675Y-135.7
X92.375Y-113.475
X94.05Y-113.45
X94.1Y-110.375
X94.1Y-111.775
X105.275Y-113.575
X107.0Y-110.35
X107.025Y-112.0
X107.025Y-113.55
X145.4Y-135.875
X145.4Y-138.275
X145.45Y-140.275
X145.475Y-133.675
X145.525Y-45.0
X145.525Y-47.2
X145.55Y-40.6
X145.55Y-42.6
X147.875Y-138.275
X147.875Y-140.275
X147.9Y-133.675
X147.975Y-47.225
X148.05Y-40.6
X148.05Y-42.6
X150.375Y-138.275
X150.375Y-140.275
X150.4Y-133.675
X150.4Y-135.875
X150.45Y-47.2
X150.475Y-40.6
X150.525Y-42.6
X150.525Y-45.0
T2
X75.0Y-68.3
X75.0Y-73.2
X76.0Y-45.0
X76.0Y-53.0
X76.0Y-128.0
X76.0Y-136.0
X148.0Y-45.0
X148.0Y-53.0
X148.0Y-128.0
X148.0Y-136.0
T3
X82.6Y-68.3
X82.6Y-112.7
T4
X98.35Y-42.75
X98.35Y-138.25
X125.85Y-42.75
X125.85Y-138.25
T0
M30
