G04 #@! TF.GenerationSoftware,KiCad,Pcbnew,(6.0.5-0)*
G04 #@! TF.CreationDate,2022-12-26T00:23:02-05:00*
G04 #@! TF.ProjectId,solar-cell-pcbs-burn-wire-vertical,736f6c61-722d-4636-956c-6c2d70636273,rev?*
G04 #@! TF.SameCoordinates,Original*
G04 #@! TF.FileFunction,Legend,Bot*
G04 #@! TF.FilePolarity,Positive*
%FSLAX46Y46*%
G04 Gerber Fmt 4.6, Leading zero omitted, Abs format (unit mm)*
G04 Created by KiCad (PCBNEW (6.0.5-0)) date 2022-12-26 00:23:02*
%MOMM*%
%LPD*%
G01*
G04 APERTURE LIST*
%ADD10C,0.300000*%
%ADD11C,0.150000*%
%ADD12C,0.120000*%
%ADD13R,2.000000X2.000000*%
%ADD14C,2.000000*%
%ADD15C,5.600000*%
%ADD16C,3.000000*%
%ADD17R,1.100000X1.450000*%
%ADD18R,1.350000X2.899999*%
G04 APERTURE END LIST*
D10*
X103546428Y-108557142D02*
X102403571Y-108557142D01*
X102975000Y-109128571D02*
X102975000Y-107985714D01*
X104428571Y-108542857D02*
X105571428Y-108542857D01*
X91703571Y-108467857D02*
X92846428Y-108467857D01*
X90821428Y-108457142D02*
X89678571Y-108457142D01*
X90250000Y-109028571D02*
X90250000Y-107885714D01*
D11*
X91558333Y-105927380D02*
X91558333Y-106641666D01*
X91605952Y-106784523D01*
X91701190Y-106879761D01*
X91844047Y-106927380D01*
X91939285Y-106927380D01*
X90558333Y-106927380D02*
X91129761Y-106927380D01*
X90844047Y-106927380D02*
X90844047Y-105927380D01*
X90939285Y-106070238D01*
X91034523Y-106165476D01*
X91129761Y-106213095D01*
X94745238Y-121654761D02*
X94602380Y-121702380D01*
X94364285Y-121702380D01*
X94269047Y-121654761D01*
X94221428Y-121607142D01*
X94173809Y-121511904D01*
X94173809Y-121416666D01*
X94221428Y-121321428D01*
X94269047Y-121273809D01*
X94364285Y-121226190D01*
X94554761Y-121178571D01*
X94650000Y-121130952D01*
X94697619Y-121083333D01*
X94745238Y-120988095D01*
X94745238Y-120892857D01*
X94697619Y-120797619D01*
X94650000Y-120750000D01*
X94554761Y-120702380D01*
X94316666Y-120702380D01*
X94173809Y-120750000D01*
X93602380Y-121702380D02*
X93697619Y-121654761D01*
X93745238Y-121607142D01*
X93792857Y-121511904D01*
X93792857Y-121226190D01*
X93745238Y-121130952D01*
X93697619Y-121083333D01*
X93602380Y-121035714D01*
X93459523Y-121035714D01*
X93364285Y-121083333D01*
X93316666Y-121130952D01*
X93269047Y-121226190D01*
X93269047Y-121511904D01*
X93316666Y-121607142D01*
X93364285Y-121654761D01*
X93459523Y-121702380D01*
X93602380Y-121702380D01*
X92697619Y-121702380D02*
X92792857Y-121654761D01*
X92840476Y-121559523D01*
X92840476Y-120702380D01*
X91888095Y-121702380D02*
X91888095Y-121178571D01*
X91935714Y-121083333D01*
X92030952Y-121035714D01*
X92221428Y-121035714D01*
X92316666Y-121083333D01*
X91888095Y-121654761D02*
X91983333Y-121702380D01*
X92221428Y-121702380D01*
X92316666Y-121654761D01*
X92364285Y-121559523D01*
X92364285Y-121464285D01*
X92316666Y-121369047D01*
X92221428Y-121321428D01*
X91983333Y-121321428D01*
X91888095Y-121273809D01*
X91411904Y-121702380D02*
X91411904Y-121035714D01*
X91411904Y-121226190D02*
X91364285Y-121130952D01*
X91316666Y-121083333D01*
X91221428Y-121035714D01*
X91126190Y-121035714D01*
X89459523Y-121607142D02*
X89507142Y-121654761D01*
X89650000Y-121702380D01*
X89745238Y-121702380D01*
X89888095Y-121654761D01*
X89983333Y-121559523D01*
X90030952Y-121464285D01*
X90078571Y-121273809D01*
X90078571Y-121130952D01*
X90030952Y-120940476D01*
X89983333Y-120845238D01*
X89888095Y-120750000D01*
X89745238Y-120702380D01*
X89650000Y-120702380D01*
X89507142Y-120750000D01*
X89459523Y-120797619D01*
X88650000Y-121654761D02*
X88745238Y-121702380D01*
X88935714Y-121702380D01*
X89030952Y-121654761D01*
X89078571Y-121559523D01*
X89078571Y-121178571D01*
X89030952Y-121083333D01*
X88935714Y-121035714D01*
X88745238Y-121035714D01*
X88650000Y-121083333D01*
X88602380Y-121178571D01*
X88602380Y-121273809D01*
X89078571Y-121369047D01*
X88030952Y-121702380D02*
X88126190Y-121654761D01*
X88173809Y-121559523D01*
X88173809Y-120702380D01*
X87507142Y-121702380D02*
X87602380Y-121654761D01*
X87650000Y-121559523D01*
X87650000Y-120702380D01*
X104354833Y-105927380D02*
X104354833Y-106641666D01*
X104402452Y-106784523D01*
X104497690Y-106879761D01*
X104640547Y-106927380D01*
X104735785Y-106927380D01*
X103926261Y-106022619D02*
X103878642Y-105975000D01*
X103783404Y-105927380D01*
X103545309Y-105927380D01*
X103450071Y-105975000D01*
X103402452Y-106022619D01*
X103354833Y-106117857D01*
X103354833Y-106213095D01*
X103402452Y-106355952D01*
X103973880Y-106927380D01*
X103354833Y-106927380D01*
X107027933Y-121178571D02*
X106885076Y-121226190D01*
X106837457Y-121273809D01*
X106789838Y-121369047D01*
X106789838Y-121511904D01*
X106837457Y-121607142D01*
X106885076Y-121654761D01*
X106980314Y-121702380D01*
X107361266Y-121702380D01*
X107361266Y-120702380D01*
X107027933Y-120702380D01*
X106932695Y-120750000D01*
X106885076Y-120797619D01*
X106837457Y-120892857D01*
X106837457Y-120988095D01*
X106885076Y-121083333D01*
X106932695Y-121130952D01*
X107027933Y-121178571D01*
X107361266Y-121178571D01*
X105932695Y-121035714D02*
X105932695Y-121702380D01*
X106361266Y-121035714D02*
X106361266Y-121559523D01*
X106313647Y-121654761D01*
X106218409Y-121702380D01*
X106075552Y-121702380D01*
X105980314Y-121654761D01*
X105932695Y-121607142D01*
X105456505Y-121702380D02*
X105456505Y-121035714D01*
X105456505Y-121226190D02*
X105408885Y-121130952D01*
X105361266Y-121083333D01*
X105266028Y-121035714D01*
X105170790Y-121035714D01*
X104837457Y-121035714D02*
X104837457Y-121702380D01*
X104837457Y-121130952D02*
X104789838Y-121083333D01*
X104694600Y-121035714D01*
X104551743Y-121035714D01*
X104456505Y-121083333D01*
X104408885Y-121178571D01*
X104408885Y-121702380D01*
X103266028Y-120702380D02*
X103027933Y-121702380D01*
X102837457Y-120988095D01*
X102646981Y-121702380D01*
X102408885Y-120702380D01*
X102027933Y-121702380D02*
X102027933Y-121035714D01*
X102027933Y-120702380D02*
X102075552Y-120750000D01*
X102027933Y-120797619D01*
X101980314Y-120750000D01*
X102027933Y-120702380D01*
X102027933Y-120797619D01*
X101551743Y-121702380D02*
X101551743Y-121035714D01*
X101551743Y-121226190D02*
X101504124Y-121130952D01*
X101456505Y-121083333D01*
X101361266Y-121035714D01*
X101266028Y-121035714D01*
X100551743Y-121654761D02*
X100646981Y-121702380D01*
X100837457Y-121702380D01*
X100932695Y-121654761D01*
X100980314Y-121559523D01*
X100980314Y-121178571D01*
X100932695Y-121083333D01*
X100837457Y-121035714D01*
X100646981Y-121035714D01*
X100551743Y-121083333D01*
X100504124Y-121178571D01*
X100504124Y-121273809D01*
X100980314Y-121369047D01*
D12*
X95882492Y-111425001D02*
X97406492Y-112060001D01*
X86878509Y-115629961D02*
X86878509Y-111000001D01*
X86878509Y-111000001D02*
X89383459Y-111000001D01*
X95628492Y-111000001D02*
X95628492Y-115629961D01*
X97406492Y-112060001D02*
X97406492Y-110790001D01*
X91123539Y-111000001D02*
X91383460Y-111000001D01*
X97406492Y-110790001D02*
X95882492Y-111425001D01*
X93123540Y-111000001D02*
X95628492Y-111000001D01*
X94169482Y-118950001D02*
X88337519Y-118950001D01*
X108374992Y-111000001D02*
X108374992Y-115629961D01*
X99625009Y-111000001D02*
X102129959Y-111000001D01*
X103870039Y-111000001D02*
X104129960Y-111000001D01*
X110152992Y-112060001D02*
X110152992Y-110790001D01*
X108628992Y-111425001D02*
X110152992Y-112060001D01*
X106915982Y-118950001D02*
X101084019Y-118950001D01*
X99625009Y-115629961D02*
X99625009Y-111000001D01*
X105870040Y-111000001D02*
X108374992Y-111000001D01*
X110152992Y-110790001D02*
X108628992Y-111425001D01*
%LPC*%
D13*
X148000000Y-128000000D03*
D14*
X75000000Y-73200000D03*
D15*
X98350000Y-138250000D03*
D13*
X76000000Y-136000000D03*
D16*
X82600000Y-112700000D03*
D13*
X148000000Y-45000000D03*
D15*
X125850000Y-138250000D03*
D13*
X76000000Y-53000000D03*
D15*
X125850000Y-42750000D03*
D13*
X76000000Y-45000000D03*
X76000000Y-128000000D03*
D14*
X75000000Y-68300000D03*
D16*
X82600000Y-68300000D03*
D15*
X98350000Y-42750000D03*
D13*
X148000000Y-53000000D03*
X148000000Y-136000000D03*
D17*
X92253500Y-111425001D03*
X90253499Y-111425001D03*
D18*
X95148498Y-117400000D03*
X87358503Y-117400000D03*
D17*
X105000000Y-111425001D03*
X102999999Y-111425001D03*
D18*
X107894998Y-117400000D03*
X100105003Y-117400000D03*
M02*
