G04 #@! TF.GenerationSoftware,KiCad,Pcbnew,(6.0.5-0)*
G04 #@! TF.CreationDate,2023-01-03T07:21:46-05:00*
G04 #@! TF.ProjectId,solar-cell-pcbs-usb,736f6c61-722d-4636-956c-6c2d70636273,3*
G04 #@! TF.SameCoordinates,Original*
G04 #@! TF.FileFunction,Copper,L1,Top*
G04 #@! TF.FilePolarity,Positive*
%FSLAX46Y46*%
G04 Gerber Fmt 4.6, Leading zero omitted, Abs format (unit mm)*
G04 Created by KiCad (PCBNEW (6.0.5-0)) date 2023-01-03 07:21:46*
%MOMM*%
%LPD*%
G01*
G04 APERTURE LIST*
G04 #@! TA.AperFunction,ComponentPad*
%ADD10C,5.600000*%
G04 #@! TD*
G04 #@! TA.AperFunction,ComponentPad*
%ADD11C,3.000000*%
G04 #@! TD*
G04 #@! TA.AperFunction,SMDPad,CuDef*
%ADD12R,1.700000X2.500000*%
G04 #@! TD*
G04 #@! TA.AperFunction,ViaPad*
%ADD13C,0.800000*%
G04 #@! TD*
G04 #@! TA.AperFunction,Conductor*
%ADD14C,0.500000*%
G04 #@! TD*
G04 APERTURE END LIST*
D10*
X84600000Y-42750000D03*
D11*
X108700000Y-111000000D03*
X117700000Y-111000000D03*
X133300000Y-104200000D03*
X142300000Y-104200000D03*
D12*
X98500000Y-114900000D03*
X98500000Y-110900000D03*
D10*
X139600000Y-138250000D03*
D11*
X79700000Y-104200000D03*
X88700000Y-104200000D03*
D10*
X125850000Y-42750000D03*
D11*
X135100000Y-67500000D03*
X144100000Y-67500000D03*
D12*
X98500000Y-124000000D03*
X98500000Y-128000000D03*
D10*
X84600000Y-138250000D03*
D11*
X79700000Y-68700000D03*
X88700000Y-68700000D03*
D10*
X139600000Y-42750000D03*
X98350000Y-42750000D03*
X98350000Y-138250000D03*
D11*
X108000000Y-75320000D03*
X117000000Y-75320000D03*
D13*
X146100000Y-104300000D03*
X145200000Y-106900000D03*
X144300000Y-106200000D03*
X142400000Y-101600000D03*
X120000000Y-78100000D03*
X144200000Y-102400000D03*
X120900000Y-73300000D03*
X140400000Y-102500000D03*
X117000000Y-77900000D03*
X118400000Y-72100000D03*
X120900000Y-75200000D03*
X115600000Y-78400000D03*
X118900000Y-73400000D03*
X89300000Y-118900000D03*
X88100000Y-120600000D03*
X114500000Y-75300000D03*
X115100000Y-73500000D03*
X142300000Y-106900000D03*
X120200000Y-76700000D03*
X88200000Y-121900000D03*
X119600000Y-75300000D03*
X89000000Y-121300000D03*
X145200000Y-105500000D03*
X120000000Y-74100000D03*
X88100000Y-119300000D03*
X144900000Y-104300000D03*
X115800000Y-72000000D03*
X140400000Y-106200000D03*
X119000000Y-77200000D03*
X88900000Y-119800000D03*
X117000000Y-72700000D03*
X118500000Y-78400000D03*
X139800000Y-104300000D03*
X145200000Y-103100000D03*
X115100000Y-77200000D03*
X89700000Y-122200000D03*
X143800000Y-107300000D03*
X119800000Y-72400000D03*
X145100000Y-101700000D03*
X143600000Y-101200000D03*
X146300000Y-105800000D03*
X92600000Y-124000000D03*
D14*
X135100000Y-93600000D02*
X117700000Y-111000000D01*
X135100000Y-67500000D02*
X135100000Y-93600000D01*
X98500000Y-128000000D02*
X100300000Y-128000000D01*
X108700000Y-119600000D02*
X108700000Y-111000000D01*
X100300000Y-128000000D02*
X108700000Y-119600000D01*
X79700000Y-68700000D02*
X98500000Y-87500000D01*
X98500000Y-87500000D02*
X98500000Y-110900000D01*
X144100000Y-93400000D02*
X133300000Y-104200000D01*
X144100000Y-67500000D02*
X144100000Y-93400000D01*
X92600000Y-124000000D02*
X98500000Y-124000000D01*
X92600000Y-124000000D02*
X98500000Y-118100000D01*
X98500000Y-118100000D02*
X98500000Y-114900000D01*
G04 #@! TA.AperFunction,Conductor*
G36*
X83983879Y-39278502D02*
G01*
X84030372Y-39332158D01*
X84040476Y-39402432D01*
X84010982Y-39467012D01*
X83951256Y-39505396D01*
X83942600Y-39507608D01*
X83723586Y-39555361D01*
X83717011Y-39557172D01*
X83383683Y-39668702D01*
X83377361Y-39671205D01*
X83058034Y-39818079D01*
X83051991Y-39821265D01*
X82750401Y-40001763D01*
X82744755Y-40005571D01*
X82464408Y-40217596D01*
X82459211Y-40221987D01*
X82457972Y-40223155D01*
X82449950Y-40236862D01*
X82449986Y-40237704D01*
X82455037Y-40245826D01*
X84587190Y-42377980D01*
X84601131Y-42385592D01*
X84602966Y-42385461D01*
X84609580Y-42381210D01*
X86742798Y-40247991D01*
X86750412Y-40234047D01*
X86750344Y-40233089D01*
X86745836Y-40226272D01*
X86744418Y-40225065D01*
X86464813Y-40012064D01*
X86459187Y-40008240D01*
X86158214Y-39826681D01*
X86152202Y-39823484D01*
X85833370Y-39675487D01*
X85827070Y-39672967D01*
X85494129Y-39560273D01*
X85487551Y-39558437D01*
X85257846Y-39507513D01*
X85195669Y-39473241D01*
X85161891Y-39410795D01*
X85167237Y-39340000D01*
X85210009Y-39283333D01*
X85276627Y-39258786D01*
X85285117Y-39258500D01*
X97665758Y-39258500D01*
X97733879Y-39278502D01*
X97780372Y-39332158D01*
X97790476Y-39402432D01*
X97760982Y-39467012D01*
X97701256Y-39505396D01*
X97692600Y-39507608D01*
X97473586Y-39555361D01*
X97467011Y-39557172D01*
X97133683Y-39668702D01*
X97127361Y-39671205D01*
X96808034Y-39818079D01*
X96801991Y-39821265D01*
X96500401Y-40001763D01*
X96494755Y-40005571D01*
X96214408Y-40217596D01*
X96209211Y-40221987D01*
X96207972Y-40223155D01*
X96199950Y-40236862D01*
X96199986Y-40237704D01*
X96205037Y-40245826D01*
X98337190Y-42377980D01*
X98351131Y-42385592D01*
X98352966Y-42385461D01*
X98359580Y-42381210D01*
X100492798Y-40247991D01*
X100500412Y-40234047D01*
X100500344Y-40233089D01*
X100495836Y-40226272D01*
X100494418Y-40225065D01*
X100214813Y-40012064D01*
X100209187Y-40008240D01*
X99908214Y-39826681D01*
X99902202Y-39823484D01*
X99583370Y-39675487D01*
X99577070Y-39672967D01*
X99244129Y-39560273D01*
X99237551Y-39558437D01*
X99007846Y-39507513D01*
X98945669Y-39473241D01*
X98911891Y-39410795D01*
X98917237Y-39340000D01*
X98960009Y-39283333D01*
X99026627Y-39258786D01*
X99035117Y-39258500D01*
X125165758Y-39258500D01*
X125233879Y-39278502D01*
X125280372Y-39332158D01*
X125290476Y-39402432D01*
X125260982Y-39467012D01*
X125201256Y-39505396D01*
X125192600Y-39507608D01*
X124973586Y-39555361D01*
X124967011Y-39557172D01*
X124633683Y-39668702D01*
X124627361Y-39671205D01*
X124308034Y-39818079D01*
X124301991Y-39821265D01*
X124000401Y-40001763D01*
X123994755Y-40005571D01*
X123714408Y-40217596D01*
X123709211Y-40221987D01*
X123707972Y-40223155D01*
X123699950Y-40236862D01*
X123699986Y-40237704D01*
X123705037Y-40245826D01*
X125837190Y-42377980D01*
X125851131Y-42385592D01*
X125852966Y-42385461D01*
X125859580Y-42381210D01*
X127992798Y-40247991D01*
X128000412Y-40234047D01*
X128000344Y-40233089D01*
X127995836Y-40226272D01*
X127994418Y-40225065D01*
X127714813Y-40012064D01*
X127709187Y-40008240D01*
X127408214Y-39826681D01*
X127402202Y-39823484D01*
X127083370Y-39675487D01*
X127077070Y-39672967D01*
X126744129Y-39560273D01*
X126737551Y-39558437D01*
X126507846Y-39507513D01*
X126445669Y-39473241D01*
X126411891Y-39410795D01*
X126417237Y-39340000D01*
X126460009Y-39283333D01*
X126526627Y-39258786D01*
X126535117Y-39258500D01*
X138915758Y-39258500D01*
X138983879Y-39278502D01*
X139030372Y-39332158D01*
X139040476Y-39402432D01*
X139010982Y-39467012D01*
X138951256Y-39505396D01*
X138942600Y-39507608D01*
X138723586Y-39555361D01*
X138717011Y-39557172D01*
X138383683Y-39668702D01*
X138377361Y-39671205D01*
X138058034Y-39818079D01*
X138051991Y-39821265D01*
X137750401Y-40001763D01*
X137744755Y-40005571D01*
X137464408Y-40217596D01*
X137459211Y-40221987D01*
X137457972Y-40223155D01*
X137449950Y-40236862D01*
X137449986Y-40237704D01*
X137455037Y-40245826D01*
X139587190Y-42377980D01*
X139601131Y-42385592D01*
X139602966Y-42385461D01*
X139609580Y-42381210D01*
X141742798Y-40247991D01*
X141750412Y-40234047D01*
X141750344Y-40233089D01*
X141745836Y-40226272D01*
X141744418Y-40225065D01*
X141464813Y-40012064D01*
X141459187Y-40008240D01*
X141158214Y-39826681D01*
X141152202Y-39823484D01*
X140833370Y-39675487D01*
X140827070Y-39672967D01*
X140494129Y-39560273D01*
X140487551Y-39558437D01*
X140257846Y-39507513D01*
X140195669Y-39473241D01*
X140161891Y-39410795D01*
X140167237Y-39340000D01*
X140210009Y-39283333D01*
X140276627Y-39258786D01*
X140285117Y-39258500D01*
X151465500Y-39258500D01*
X151533621Y-39278502D01*
X151580114Y-39332158D01*
X151591500Y-39384500D01*
X151591500Y-141615500D01*
X151571498Y-141683621D01*
X151517842Y-141730114D01*
X151465500Y-141741500D01*
X140283537Y-141741500D01*
X140215416Y-141721498D01*
X140168923Y-141667842D01*
X140158819Y-141597568D01*
X140188313Y-141532988D01*
X140248039Y-141494604D01*
X140257125Y-141492299D01*
X140465274Y-141447676D01*
X140471822Y-141445897D01*
X140805549Y-141335527D01*
X140811891Y-141333041D01*
X141131718Y-141187288D01*
X141137777Y-141184121D01*
X141439995Y-141004676D01*
X141445659Y-141000884D01*
X141726732Y-140789849D01*
X141731958Y-140785464D01*
X141741613Y-140776428D01*
X141749682Y-140762750D01*
X141749654Y-140762024D01*
X141744512Y-140753723D01*
X139612810Y-138622020D01*
X139598869Y-138614408D01*
X139597034Y-138614539D01*
X139590420Y-138618790D01*
X137456774Y-140752437D01*
X137449160Y-140766381D01*
X137449237Y-140767470D01*
X137451698Y-140771206D01*
X137725632Y-140981404D01*
X137731262Y-140985259D01*
X138031591Y-141167862D01*
X138037593Y-141171080D01*
X138355897Y-141320184D01*
X138362202Y-141322732D01*
X138694743Y-141436587D01*
X138701309Y-141438444D01*
X138941542Y-141492583D01*
X139003598Y-141527071D01*
X139037158Y-141589636D01*
X139031565Y-141660412D01*
X138988596Y-141716928D01*
X138921892Y-141741242D01*
X138913841Y-141741500D01*
X99033537Y-141741500D01*
X98965416Y-141721498D01*
X98918923Y-141667842D01*
X98908819Y-141597568D01*
X98938313Y-141532988D01*
X98998039Y-141494604D01*
X99007125Y-141492299D01*
X99215274Y-141447676D01*
X99221822Y-141445897D01*
X99555549Y-141335527D01*
X99561891Y-141333041D01*
X99881718Y-141187288D01*
X99887777Y-141184121D01*
X100189995Y-141004676D01*
X100195659Y-141000884D01*
X100476732Y-140789849D01*
X100481958Y-140785464D01*
X100491613Y-140776428D01*
X100499682Y-140762750D01*
X100499654Y-140762024D01*
X100494512Y-140753723D01*
X98362810Y-138622020D01*
X98348869Y-138614408D01*
X98347034Y-138614539D01*
X98340420Y-138618790D01*
X96206774Y-140752437D01*
X96199160Y-140766381D01*
X96199237Y-140767470D01*
X96201698Y-140771206D01*
X96475632Y-140981404D01*
X96481262Y-140985259D01*
X96781591Y-141167862D01*
X96787593Y-141171080D01*
X97105897Y-141320184D01*
X97112202Y-141322732D01*
X97444743Y-141436587D01*
X97451309Y-141438444D01*
X97691542Y-141492583D01*
X97753598Y-141527071D01*
X97787158Y-141589636D01*
X97781565Y-141660412D01*
X97738596Y-141716928D01*
X97671892Y-141741242D01*
X97663841Y-141741500D01*
X85283537Y-141741500D01*
X85215416Y-141721498D01*
X85168923Y-141667842D01*
X85158819Y-141597568D01*
X85188313Y-141532988D01*
X85248039Y-141494604D01*
X85257125Y-141492299D01*
X85465274Y-141447676D01*
X85471822Y-141445897D01*
X85805549Y-141335527D01*
X85811891Y-141333041D01*
X86131718Y-141187288D01*
X86137777Y-141184121D01*
X86439995Y-141004676D01*
X86445659Y-141000884D01*
X86726732Y-140789849D01*
X86731958Y-140785464D01*
X86741613Y-140776428D01*
X86749682Y-140762750D01*
X86749654Y-140762024D01*
X86744512Y-140753723D01*
X84612810Y-138622020D01*
X84598869Y-138614408D01*
X84597034Y-138614539D01*
X84590420Y-138618790D01*
X82456774Y-140752437D01*
X82449160Y-140766381D01*
X82449237Y-140767470D01*
X82451698Y-140771206D01*
X82725632Y-140981404D01*
X82731262Y-140985259D01*
X83031591Y-141167862D01*
X83037593Y-141171080D01*
X83355897Y-141320184D01*
X83362202Y-141322732D01*
X83694743Y-141436587D01*
X83701309Y-141438444D01*
X83941542Y-141492583D01*
X84003598Y-141527071D01*
X84037158Y-141589636D01*
X84031565Y-141660412D01*
X83988596Y-141716928D01*
X83921892Y-141741242D01*
X83913841Y-141741500D01*
X72734500Y-141741500D01*
X72666379Y-141721498D01*
X72619886Y-141667842D01*
X72608500Y-141615500D01*
X72608500Y-138241832D01*
X81287333Y-138241832D01*
X81305117Y-138592893D01*
X81305827Y-138599649D01*
X81361420Y-138946723D01*
X81362859Y-138953378D01*
X81455608Y-139292410D01*
X81457757Y-139298871D01*
X81586581Y-139625912D01*
X81589412Y-139632095D01*
X81752803Y-139943310D01*
X81756286Y-139949152D01*
X81952330Y-140240896D01*
X81956433Y-140246340D01*
X82076425Y-140388836D01*
X82089164Y-140397279D01*
X82099608Y-140391181D01*
X84227980Y-138262810D01*
X84234357Y-138251131D01*
X84964408Y-138251131D01*
X84964539Y-138252966D01*
X84968790Y-138259580D01*
X87099009Y-140389798D01*
X87112605Y-140397223D01*
X87122218Y-140390522D01*
X87222518Y-140273912D01*
X87226676Y-140268514D01*
X87425762Y-139978840D01*
X87429310Y-139973029D01*
X87595942Y-139663559D01*
X87598849Y-139657381D01*
X87731090Y-139331713D01*
X87733304Y-139325283D01*
X87829598Y-138987237D01*
X87831105Y-138980607D01*
X87890332Y-138634118D01*
X87891112Y-138627378D01*
X87912668Y-138274925D01*
X87912784Y-138271323D01*
X87912853Y-138251819D01*
X87912761Y-138248194D01*
X87912416Y-138241832D01*
X95037333Y-138241832D01*
X95055117Y-138592893D01*
X95055827Y-138599649D01*
X95111420Y-138946723D01*
X95112859Y-138953378D01*
X95205608Y-139292410D01*
X95207757Y-139298871D01*
X95336581Y-139625912D01*
X95339412Y-139632095D01*
X95502803Y-139943310D01*
X95506286Y-139949152D01*
X95702330Y-140240896D01*
X95706433Y-140246340D01*
X95826425Y-140388836D01*
X95839164Y-140397279D01*
X95849608Y-140391181D01*
X97977980Y-138262810D01*
X97984357Y-138251131D01*
X98714408Y-138251131D01*
X98714539Y-138252966D01*
X98718790Y-138259580D01*
X100849009Y-140389798D01*
X100862605Y-140397223D01*
X100872218Y-140390522D01*
X100972518Y-140273912D01*
X100976676Y-140268514D01*
X101175762Y-139978840D01*
X101179310Y-139973029D01*
X101345942Y-139663559D01*
X101348849Y-139657381D01*
X101481090Y-139331713D01*
X101483304Y-139325283D01*
X101579598Y-138987237D01*
X101581105Y-138980607D01*
X101640332Y-138634118D01*
X101641112Y-138627378D01*
X101662668Y-138274925D01*
X101662784Y-138271323D01*
X101662853Y-138251819D01*
X101662761Y-138248194D01*
X101662416Y-138241832D01*
X136287333Y-138241832D01*
X136305117Y-138592893D01*
X136305827Y-138599649D01*
X136361420Y-138946723D01*
X136362859Y-138953378D01*
X136455608Y-139292410D01*
X136457757Y-139298871D01*
X136586581Y-139625912D01*
X136589412Y-139632095D01*
X136752803Y-139943310D01*
X136756286Y-139949152D01*
X136952330Y-140240896D01*
X136956433Y-140246340D01*
X137076425Y-140388836D01*
X137089164Y-140397279D01*
X137099608Y-140391181D01*
X139227980Y-138262810D01*
X139234357Y-138251131D01*
X139964408Y-138251131D01*
X139964539Y-138252966D01*
X139968790Y-138259580D01*
X142099009Y-140389798D01*
X142112605Y-140397223D01*
X142122218Y-140390522D01*
X142222518Y-140273912D01*
X142226676Y-140268514D01*
X142425762Y-139978840D01*
X142429310Y-139973029D01*
X142595942Y-139663559D01*
X142598849Y-139657381D01*
X142731090Y-139331713D01*
X142733304Y-139325283D01*
X142829598Y-138987237D01*
X142831105Y-138980607D01*
X142890332Y-138634118D01*
X142891112Y-138627378D01*
X142912668Y-138274925D01*
X142912784Y-138271323D01*
X142912853Y-138251819D01*
X142912761Y-138248194D01*
X142893666Y-137895615D01*
X142892931Y-137888849D01*
X142836130Y-137541985D01*
X142834663Y-137535313D01*
X142740736Y-137196627D01*
X142738562Y-137190163D01*
X142608598Y-136863578D01*
X142605742Y-136857398D01*
X142441269Y-136546763D01*
X142437769Y-136540937D01*
X142240697Y-136249862D01*
X142236590Y-136244453D01*
X142123565Y-136111179D01*
X142110740Y-136102743D01*
X142100416Y-136108795D01*
X139972020Y-138237190D01*
X139964408Y-138251131D01*
X139234357Y-138251131D01*
X139235592Y-138248869D01*
X139235461Y-138247034D01*
X139231210Y-138240420D01*
X137100992Y-136110203D01*
X137087455Y-136102811D01*
X137077753Y-136109599D01*
X136970430Y-136235257D01*
X136966296Y-136240664D01*
X136768215Y-136531041D01*
X136764697Y-136536851D01*
X136599134Y-136846922D01*
X136596259Y-136853087D01*
X136465155Y-137179218D01*
X136462962Y-137185658D01*
X136367846Y-137524044D01*
X136366363Y-137530679D01*
X136308350Y-137877354D01*
X136307591Y-137884126D01*
X136287357Y-138235037D01*
X136287333Y-138241832D01*
X101662416Y-138241832D01*
X101643666Y-137895615D01*
X101642931Y-137888849D01*
X101586130Y-137541985D01*
X101584663Y-137535313D01*
X101490736Y-137196627D01*
X101488562Y-137190163D01*
X101358598Y-136863578D01*
X101355742Y-136857398D01*
X101191269Y-136546763D01*
X101187769Y-136540937D01*
X100990697Y-136249862D01*
X100986590Y-136244453D01*
X100873565Y-136111179D01*
X100860740Y-136102743D01*
X100850416Y-136108795D01*
X98722020Y-138237190D01*
X98714408Y-138251131D01*
X97984357Y-138251131D01*
X97985592Y-138248869D01*
X97985461Y-138247034D01*
X97981210Y-138240420D01*
X95850992Y-136110203D01*
X95837455Y-136102811D01*
X95827753Y-136109599D01*
X95720430Y-136235257D01*
X95716296Y-136240664D01*
X95518215Y-136531041D01*
X95514697Y-136536851D01*
X95349134Y-136846922D01*
X95346259Y-136853087D01*
X95215155Y-137179218D01*
X95212962Y-137185658D01*
X95117846Y-137524044D01*
X95116363Y-137530679D01*
X95058350Y-137877354D01*
X95057591Y-137884126D01*
X95037357Y-138235037D01*
X95037333Y-138241832D01*
X87912416Y-138241832D01*
X87893666Y-137895615D01*
X87892931Y-137888849D01*
X87836130Y-137541985D01*
X87834663Y-137535313D01*
X87740736Y-137196627D01*
X87738562Y-137190163D01*
X87608598Y-136863578D01*
X87605742Y-136857398D01*
X87441269Y-136546763D01*
X87437769Y-136540937D01*
X87240697Y-136249862D01*
X87236590Y-136244453D01*
X87123565Y-136111179D01*
X87110740Y-136102743D01*
X87100416Y-136108795D01*
X84972020Y-138237190D01*
X84964408Y-138251131D01*
X84234357Y-138251131D01*
X84235592Y-138248869D01*
X84235461Y-138247034D01*
X84231210Y-138240420D01*
X82100992Y-136110203D01*
X82087455Y-136102811D01*
X82077753Y-136109599D01*
X81970430Y-136235257D01*
X81966296Y-136240664D01*
X81768215Y-136531041D01*
X81764697Y-136536851D01*
X81599134Y-136846922D01*
X81596259Y-136853087D01*
X81465155Y-137179218D01*
X81462962Y-137185658D01*
X81367846Y-137524044D01*
X81366363Y-137530679D01*
X81308350Y-137877354D01*
X81307591Y-137884126D01*
X81287357Y-138235037D01*
X81287333Y-138241832D01*
X72608500Y-138241832D01*
X72608500Y-135736862D01*
X82449950Y-135736862D01*
X82449986Y-135737704D01*
X82455037Y-135745826D01*
X84587190Y-137877980D01*
X84601131Y-137885592D01*
X84602966Y-137885461D01*
X84609580Y-137881210D01*
X86742798Y-135747991D01*
X86748875Y-135736862D01*
X96199950Y-135736862D01*
X96199986Y-135737704D01*
X96205037Y-135745826D01*
X98337190Y-137877980D01*
X98351131Y-137885592D01*
X98352966Y-137885461D01*
X98359580Y-137881210D01*
X100492798Y-135747991D01*
X100498875Y-135736862D01*
X137449950Y-135736862D01*
X137449986Y-135737704D01*
X137455037Y-135745826D01*
X139587190Y-137877980D01*
X139601131Y-137885592D01*
X139602966Y-137885461D01*
X139609580Y-137881210D01*
X141742798Y-135747991D01*
X141750412Y-135734047D01*
X141750344Y-135733089D01*
X141745836Y-135726272D01*
X141744418Y-135725065D01*
X141464813Y-135512064D01*
X141459187Y-135508240D01*
X141158214Y-135326681D01*
X141152202Y-135323484D01*
X140833370Y-135175487D01*
X140827070Y-135172967D01*
X140494129Y-135060273D01*
X140487551Y-135058437D01*
X140144417Y-134982367D01*
X140137678Y-134981251D01*
X139788310Y-134942680D01*
X139781529Y-134942301D01*
X139430015Y-134941687D01*
X139423242Y-134942042D01*
X139073720Y-134979395D01*
X139067010Y-134980482D01*
X138723586Y-135055361D01*
X138717011Y-135057172D01*
X138383683Y-135168702D01*
X138377361Y-135171205D01*
X138058034Y-135318079D01*
X138051991Y-135321265D01*
X137750401Y-135501763D01*
X137744755Y-135505571D01*
X137464408Y-135717596D01*
X137459211Y-135721987D01*
X137457972Y-135723155D01*
X137449950Y-135736862D01*
X100498875Y-135736862D01*
X100500412Y-135734047D01*
X100500344Y-135733089D01*
X100495836Y-135726272D01*
X100494418Y-135725065D01*
X100214813Y-135512064D01*
X100209187Y-135508240D01*
X99908214Y-135326681D01*
X99902202Y-135323484D01*
X99583370Y-135175487D01*
X99577070Y-135172967D01*
X99244129Y-135060273D01*
X99237551Y-135058437D01*
X98894417Y-134982367D01*
X98887678Y-134981251D01*
X98538310Y-134942680D01*
X98531529Y-134942301D01*
X98180015Y-134941687D01*
X98173242Y-134942042D01*
X97823720Y-134979395D01*
X97817010Y-134980482D01*
X97473586Y-135055361D01*
X97467011Y-135057172D01*
X97133683Y-135168702D01*
X97127361Y-135171205D01*
X96808034Y-135318079D01*
X96801991Y-135321265D01*
X96500401Y-135501763D01*
X96494755Y-135505571D01*
X96214408Y-135717596D01*
X96209211Y-135721987D01*
X96207972Y-135723155D01*
X96199950Y-135736862D01*
X86748875Y-135736862D01*
X86750412Y-135734047D01*
X86750344Y-135733089D01*
X86745836Y-135726272D01*
X86744418Y-135725065D01*
X86464813Y-135512064D01*
X86459187Y-135508240D01*
X86158214Y-135326681D01*
X86152202Y-135323484D01*
X85833370Y-135175487D01*
X85827070Y-135172967D01*
X85494129Y-135060273D01*
X85487551Y-135058437D01*
X85144417Y-134982367D01*
X85137678Y-134981251D01*
X84788310Y-134942680D01*
X84781529Y-134942301D01*
X84430015Y-134941687D01*
X84423242Y-134942042D01*
X84073720Y-134979395D01*
X84067010Y-134980482D01*
X83723586Y-135055361D01*
X83717011Y-135057172D01*
X83383683Y-135168702D01*
X83377361Y-135171205D01*
X83058034Y-135318079D01*
X83051991Y-135321265D01*
X82750401Y-135501763D01*
X82744755Y-135505571D01*
X82464408Y-135717596D01*
X82459211Y-135721987D01*
X82457972Y-135723155D01*
X82449950Y-135736862D01*
X72608500Y-135736862D01*
X72608500Y-129298134D01*
X97141500Y-129298134D01*
X97148255Y-129360316D01*
X97199385Y-129496705D01*
X97286739Y-129613261D01*
X97403295Y-129700615D01*
X97539684Y-129751745D01*
X97601866Y-129758500D01*
X99398134Y-129758500D01*
X99460316Y-129751745D01*
X99596705Y-129700615D01*
X99713261Y-129613261D01*
X99800615Y-129496705D01*
X99851745Y-129360316D01*
X99858500Y-129298134D01*
X99858500Y-128884500D01*
X99878502Y-128816379D01*
X99932158Y-128769886D01*
X99984500Y-128758500D01*
X100232930Y-128758500D01*
X100251880Y-128759933D01*
X100266115Y-128762099D01*
X100266119Y-128762099D01*
X100273349Y-128763199D01*
X100280641Y-128762606D01*
X100280644Y-128762606D01*
X100326018Y-128758915D01*
X100336233Y-128758500D01*
X100344293Y-128758500D01*
X100357583Y-128756951D01*
X100372507Y-128755211D01*
X100376882Y-128754778D01*
X100442339Y-128749454D01*
X100442342Y-128749453D01*
X100449637Y-128748860D01*
X100456601Y-128746604D01*
X100462560Y-128745413D01*
X100468415Y-128744029D01*
X100475681Y-128743182D01*
X100544327Y-128718265D01*
X100548455Y-128716848D01*
X100610936Y-128696607D01*
X100610938Y-128696606D01*
X100617899Y-128694351D01*
X100624154Y-128690555D01*
X100629628Y-128688049D01*
X100635058Y-128685330D01*
X100641937Y-128682833D01*
X100702976Y-128642814D01*
X100706680Y-128640477D01*
X100769107Y-128602595D01*
X100777484Y-128595197D01*
X100777508Y-128595224D01*
X100780500Y-128592571D01*
X100783733Y-128589868D01*
X100789852Y-128585856D01*
X100843128Y-128529617D01*
X100845506Y-128527175D01*
X109188911Y-120183770D01*
X109203323Y-120171384D01*
X109214918Y-120162851D01*
X109214923Y-120162846D01*
X109220818Y-120158508D01*
X109225557Y-120152930D01*
X109225560Y-120152927D01*
X109255035Y-120118232D01*
X109261965Y-120110716D01*
X109267660Y-120105021D01*
X109285281Y-120082749D01*
X109288072Y-120079345D01*
X109330591Y-120029297D01*
X109330592Y-120029295D01*
X109335333Y-120023715D01*
X109338661Y-120017199D01*
X109342028Y-120012150D01*
X109345195Y-120007021D01*
X109349734Y-120001284D01*
X109380655Y-119935125D01*
X109382561Y-119931225D01*
X109415769Y-119866192D01*
X109417508Y-119859084D01*
X109419607Y-119853441D01*
X109421524Y-119847678D01*
X109424622Y-119841050D01*
X109439487Y-119769583D01*
X109440457Y-119765299D01*
X109456473Y-119699845D01*
X109457808Y-119694390D01*
X109458500Y-119683236D01*
X109458536Y-119683238D01*
X109458775Y-119679245D01*
X109459149Y-119675053D01*
X109460640Y-119667885D01*
X109458546Y-119590479D01*
X109458500Y-119587072D01*
X109458500Y-112944028D01*
X109478502Y-112875907D01*
X109536281Y-112827620D01*
X109595136Y-112803241D01*
X109831582Y-112665073D01*
X110047089Y-112496094D01*
X110088809Y-112453043D01*
X110234686Y-112302509D01*
X110237669Y-112299431D01*
X110240202Y-112295983D01*
X110240206Y-112295978D01*
X110397257Y-112082178D01*
X110399795Y-112078723D01*
X110427154Y-112028334D01*
X110528418Y-111841830D01*
X110528419Y-111841828D01*
X110530468Y-111838054D01*
X110627269Y-111581877D01*
X110688407Y-111314933D01*
X110712751Y-111042161D01*
X110713193Y-111000000D01*
X110711756Y-110978918D01*
X115686917Y-110978918D01*
X115702682Y-111252320D01*
X115703507Y-111256525D01*
X115703508Y-111256533D01*
X115714127Y-111310657D01*
X115755405Y-111521053D01*
X115756792Y-111525103D01*
X115756793Y-111525108D01*
X115777605Y-111585895D01*
X115844112Y-111780144D01*
X115967160Y-112024799D01*
X115969586Y-112028328D01*
X115969589Y-112028334D01*
X116088625Y-112201531D01*
X116122274Y-112250490D01*
X116306582Y-112453043D01*
X116516675Y-112628707D01*
X116520316Y-112630991D01*
X116745024Y-112771951D01*
X116745028Y-112771953D01*
X116748664Y-112774234D01*
X116816544Y-112804883D01*
X116994345Y-112885164D01*
X116994349Y-112885166D01*
X116998257Y-112886930D01*
X117002377Y-112888150D01*
X117002376Y-112888150D01*
X117256723Y-112963491D01*
X117256727Y-112963492D01*
X117260836Y-112964709D01*
X117265070Y-112965357D01*
X117265075Y-112965358D01*
X117527298Y-113005483D01*
X117527300Y-113005483D01*
X117531540Y-113006132D01*
X117670912Y-113008322D01*
X117801071Y-113010367D01*
X117801077Y-113010367D01*
X117805362Y-113010434D01*
X118077235Y-112977534D01*
X118342127Y-112908041D01*
X118346087Y-112906401D01*
X118346092Y-112906399D01*
X118468631Y-112855641D01*
X118595136Y-112803241D01*
X118831582Y-112665073D01*
X119047089Y-112496094D01*
X119088809Y-112453043D01*
X119234686Y-112302509D01*
X119237669Y-112299431D01*
X119240202Y-112295983D01*
X119240206Y-112295978D01*
X119397257Y-112082178D01*
X119399795Y-112078723D01*
X119427154Y-112028334D01*
X119528418Y-111841830D01*
X119528419Y-111841828D01*
X119530468Y-111838054D01*
X119627269Y-111581877D01*
X119688407Y-111314933D01*
X119712751Y-111042161D01*
X119713193Y-111000000D01*
X119694567Y-110726778D01*
X119639032Y-110458612D01*
X119637602Y-110454574D01*
X119637601Y-110454569D01*
X119580588Y-110293569D01*
X119576704Y-110222679D01*
X119610266Y-110162415D01*
X125593763Y-104178918D01*
X131286917Y-104178918D01*
X131302682Y-104452320D01*
X131303507Y-104456525D01*
X131303508Y-104456533D01*
X131324698Y-104564539D01*
X131355405Y-104721053D01*
X131356792Y-104725103D01*
X131356793Y-104725108D01*
X131377605Y-104785895D01*
X131444112Y-104980144D01*
X131567160Y-105224799D01*
X131569586Y-105228328D01*
X131569589Y-105228334D01*
X131698741Y-105416250D01*
X131722274Y-105450490D01*
X131906582Y-105653043D01*
X132116675Y-105828707D01*
X132120316Y-105830991D01*
X132345024Y-105971951D01*
X132345028Y-105971953D01*
X132348664Y-105974234D01*
X132416544Y-106004883D01*
X132594345Y-106085164D01*
X132594349Y-106085166D01*
X132598257Y-106086930D01*
X132602377Y-106088150D01*
X132602376Y-106088150D01*
X132856723Y-106163491D01*
X132856727Y-106163492D01*
X132860836Y-106164709D01*
X132865070Y-106165357D01*
X132865075Y-106165358D01*
X133127298Y-106205483D01*
X133127300Y-106205483D01*
X133131540Y-106206132D01*
X133270912Y-106208322D01*
X133401071Y-106210367D01*
X133401077Y-106210367D01*
X133405362Y-106210434D01*
X133677235Y-106177534D01*
X133942127Y-106108041D01*
X133946087Y-106106401D01*
X133946092Y-106106399D01*
X134068632Y-106055641D01*
X134195136Y-106003241D01*
X134431582Y-105865073D01*
X134527767Y-105789654D01*
X141075618Y-105789654D01*
X141082673Y-105799627D01*
X141113679Y-105825551D01*
X141120598Y-105830579D01*
X141345272Y-105971515D01*
X141352807Y-105975556D01*
X141594520Y-106084694D01*
X141602551Y-106087680D01*
X141856832Y-106163002D01*
X141865184Y-106164869D01*
X142127340Y-106204984D01*
X142135874Y-106205700D01*
X142401045Y-106209867D01*
X142409596Y-106209418D01*
X142672883Y-106177557D01*
X142681284Y-106175955D01*
X142937824Y-106108653D01*
X142945926Y-106105926D01*
X143190949Y-106004434D01*
X143198617Y-106000628D01*
X143427598Y-105866822D01*
X143434679Y-105862009D01*
X143514655Y-105799301D01*
X143523125Y-105787442D01*
X143516608Y-105775818D01*
X142312812Y-104572022D01*
X142298868Y-104564408D01*
X142297035Y-104564539D01*
X142290420Y-104568790D01*
X141082910Y-105776300D01*
X141075618Y-105789654D01*
X134527767Y-105789654D01*
X134647089Y-105696094D01*
X134688809Y-105653043D01*
X134834686Y-105502509D01*
X134837669Y-105499431D01*
X134840202Y-105495983D01*
X134840206Y-105495978D01*
X134997257Y-105282178D01*
X134999795Y-105278723D01*
X135001841Y-105274955D01*
X135128418Y-105041830D01*
X135128419Y-105041828D01*
X135130468Y-105038054D01*
X135227269Y-104781877D01*
X135288407Y-104514933D01*
X135294384Y-104447969D01*
X135312531Y-104244627D01*
X135312532Y-104244616D01*
X135312751Y-104242161D01*
X135313193Y-104200000D01*
X135312048Y-104183204D01*
X140287665Y-104183204D01*
X140302932Y-104447969D01*
X140304005Y-104456470D01*
X140355065Y-104716722D01*
X140357276Y-104724974D01*
X140443184Y-104975894D01*
X140446499Y-104983779D01*
X140565664Y-105220713D01*
X140570020Y-105228079D01*
X140699347Y-105416250D01*
X140709601Y-105424594D01*
X140723342Y-105417448D01*
X141927978Y-104212812D01*
X141934356Y-104201132D01*
X142664408Y-104201132D01*
X142664539Y-104202965D01*
X142668790Y-104209580D01*
X143875730Y-105416520D01*
X143887939Y-105423187D01*
X143899439Y-105414497D01*
X143996831Y-105281913D01*
X144001418Y-105274685D01*
X144127962Y-105041621D01*
X144131530Y-105033827D01*
X144225271Y-104785750D01*
X144227748Y-104777544D01*
X144286954Y-104519038D01*
X144288294Y-104510577D01*
X144312031Y-104244616D01*
X144312277Y-104239677D01*
X144312666Y-104202485D01*
X144312523Y-104197519D01*
X144294362Y-103931123D01*
X144293201Y-103922649D01*
X144239419Y-103662944D01*
X144237120Y-103654709D01*
X144148588Y-103404705D01*
X144145191Y-103396854D01*
X144023550Y-103161178D01*
X144019122Y-103153866D01*
X143900031Y-102984417D01*
X143889509Y-102976037D01*
X143876121Y-102983089D01*
X142672022Y-104187188D01*
X142664408Y-104201132D01*
X141934356Y-104201132D01*
X141935592Y-104198868D01*
X141935461Y-104197035D01*
X141931210Y-104190420D01*
X140723814Y-102983024D01*
X140711804Y-102976466D01*
X140700064Y-102985434D01*
X140591935Y-103135911D01*
X140587418Y-103143196D01*
X140463325Y-103377567D01*
X140459839Y-103385395D01*
X140368700Y-103634446D01*
X140366311Y-103642670D01*
X140309812Y-103901795D01*
X140308563Y-103910250D01*
X140287754Y-104174653D01*
X140287665Y-104183204D01*
X135312048Y-104183204D01*
X135311465Y-104174648D01*
X135294859Y-103931055D01*
X135294858Y-103931049D01*
X135294567Y-103926778D01*
X135239032Y-103658612D01*
X135237602Y-103654574D01*
X135237601Y-103654569D01*
X135180588Y-103493569D01*
X135176704Y-103422679D01*
X135210266Y-103362415D01*
X135960181Y-102612500D01*
X141076584Y-102612500D01*
X141082980Y-102623770D01*
X142287188Y-103827978D01*
X142301132Y-103835592D01*
X142302965Y-103835461D01*
X142309580Y-103831210D01*
X143516604Y-102624186D01*
X143523795Y-102611017D01*
X143516473Y-102600780D01*
X143469233Y-102562115D01*
X143462261Y-102557160D01*
X143236122Y-102418582D01*
X143228552Y-102414624D01*
X142985704Y-102308022D01*
X142977644Y-102305120D01*
X142722592Y-102232467D01*
X142714214Y-102230685D01*
X142451656Y-102193318D01*
X142443111Y-102192691D01*
X142177908Y-102191302D01*
X142169374Y-102191839D01*
X141906433Y-102226456D01*
X141898035Y-102228149D01*
X141642238Y-102298127D01*
X141634143Y-102300946D01*
X141390199Y-102404997D01*
X141382577Y-102408881D01*
X141155013Y-102545075D01*
X141147981Y-102549962D01*
X141085053Y-102600377D01*
X141076584Y-102612500D01*
X135960181Y-102612500D01*
X144588911Y-93983770D01*
X144603323Y-93971384D01*
X144614918Y-93962851D01*
X144614923Y-93962846D01*
X144620818Y-93958508D01*
X144625557Y-93952930D01*
X144625560Y-93952927D01*
X144655035Y-93918232D01*
X144661965Y-93910716D01*
X144667660Y-93905021D01*
X144685281Y-93882749D01*
X144688072Y-93879345D01*
X144730591Y-93829297D01*
X144730592Y-93829295D01*
X144735333Y-93823715D01*
X144738661Y-93817199D01*
X144742020Y-93812162D01*
X144745194Y-93807023D01*
X144749734Y-93801284D01*
X144780636Y-93735163D01*
X144782569Y-93731209D01*
X144786239Y-93724021D01*
X144815769Y-93666192D01*
X144817510Y-93659076D01*
X144819604Y-93653446D01*
X144821523Y-93647679D01*
X144824621Y-93641050D01*
X144839483Y-93569600D01*
X144840453Y-93565315D01*
X144856473Y-93499844D01*
X144857808Y-93494390D01*
X144858500Y-93483236D01*
X144858536Y-93483238D01*
X144858775Y-93479248D01*
X144859150Y-93475050D01*
X144860640Y-93467885D01*
X144858546Y-93390479D01*
X144858500Y-93387072D01*
X144858500Y-69444028D01*
X144878502Y-69375907D01*
X144936281Y-69327620D01*
X144995136Y-69303241D01*
X145118323Y-69231256D01*
X145227879Y-69167237D01*
X145227880Y-69167236D01*
X145231582Y-69165073D01*
X145447089Y-68996094D01*
X145469295Y-68973180D01*
X145634686Y-68802509D01*
X145637669Y-68799431D01*
X145640202Y-68795983D01*
X145640206Y-68795978D01*
X145797257Y-68582178D01*
X145799795Y-68578723D01*
X145827154Y-68528334D01*
X145928418Y-68341830D01*
X145928419Y-68341828D01*
X145930468Y-68338054D01*
X145978868Y-68209966D01*
X146025751Y-68085895D01*
X146025752Y-68085891D01*
X146027269Y-68081877D01*
X146088407Y-67814933D01*
X146112751Y-67542161D01*
X146113193Y-67500000D01*
X146111465Y-67474648D01*
X146094859Y-67231055D01*
X146094858Y-67231049D01*
X146094567Y-67226778D01*
X146039032Y-66958612D01*
X145947617Y-66700465D01*
X145822013Y-66457112D01*
X145812040Y-66442921D01*
X145667008Y-66236562D01*
X145664545Y-66233057D01*
X145478125Y-66032445D01*
X145474810Y-66029731D01*
X145474806Y-66029728D01*
X145269523Y-65861706D01*
X145266205Y-65858990D01*
X145032704Y-65715901D01*
X145028768Y-65714173D01*
X144785873Y-65607549D01*
X144785869Y-65607548D01*
X144781945Y-65605825D01*
X144518566Y-65530800D01*
X144514324Y-65530196D01*
X144514318Y-65530195D01*
X144313834Y-65501662D01*
X144247443Y-65492213D01*
X144103589Y-65491460D01*
X143977877Y-65490802D01*
X143977871Y-65490802D01*
X143973591Y-65490780D01*
X143969347Y-65491339D01*
X143969343Y-65491339D01*
X143850302Y-65507011D01*
X143702078Y-65526525D01*
X143697938Y-65527658D01*
X143697936Y-65527658D01*
X143625008Y-65547609D01*
X143437928Y-65598788D01*
X143433980Y-65600472D01*
X143189982Y-65704546D01*
X143189978Y-65704548D01*
X143186030Y-65706232D01*
X143166125Y-65718145D01*
X142954725Y-65844664D01*
X142954721Y-65844667D01*
X142951043Y-65846868D01*
X142737318Y-66018094D01*
X142548808Y-66216742D01*
X142389002Y-66439136D01*
X142260857Y-66681161D01*
X142259385Y-66685184D01*
X142259383Y-66685188D01*
X142242261Y-66731977D01*
X142166743Y-66938337D01*
X142108404Y-67205907D01*
X142086917Y-67478918D01*
X142102682Y-67752320D01*
X142103507Y-67756525D01*
X142103508Y-67756533D01*
X142130999Y-67896656D01*
X142155405Y-68021053D01*
X142156792Y-68025103D01*
X142156793Y-68025108D01*
X142202502Y-68158612D01*
X142244112Y-68280144D01*
X142367160Y-68524799D01*
X142369586Y-68528328D01*
X142369589Y-68528334D01*
X142516550Y-68742161D01*
X142522274Y-68750490D01*
X142706582Y-68953043D01*
X142709877Y-68955798D01*
X142709878Y-68955799D01*
X142730666Y-68973180D01*
X142916675Y-69128707D01*
X142920316Y-69130991D01*
X143145024Y-69271951D01*
X143145028Y-69271953D01*
X143148664Y-69274234D01*
X143267352Y-69327824D01*
X143321205Y-69374086D01*
X143341500Y-69442660D01*
X143341500Y-93033629D01*
X143321498Y-93101750D01*
X143304595Y-93122724D01*
X134139814Y-102287505D01*
X134077502Y-102321531D01*
X134000074Y-102313783D01*
X133981945Y-102305825D01*
X133718566Y-102230800D01*
X133714324Y-102230196D01*
X133714318Y-102230195D01*
X133513834Y-102201662D01*
X133447443Y-102192213D01*
X133303589Y-102191460D01*
X133177877Y-102190802D01*
X133177871Y-102190802D01*
X133173591Y-102190780D01*
X133169347Y-102191339D01*
X133169343Y-102191339D01*
X133050302Y-102207011D01*
X132902078Y-102226525D01*
X132897938Y-102227658D01*
X132897936Y-102227658D01*
X132825008Y-102247609D01*
X132637928Y-102298788D01*
X132633980Y-102300472D01*
X132389982Y-102404546D01*
X132389978Y-102404548D01*
X132386030Y-102406232D01*
X132366125Y-102418145D01*
X132154725Y-102544664D01*
X132154721Y-102544667D01*
X132151043Y-102546868D01*
X131937318Y-102718094D01*
X131748808Y-102916742D01*
X131589002Y-103139136D01*
X131460857Y-103381161D01*
X131459385Y-103385184D01*
X131459383Y-103385188D01*
X131452314Y-103404506D01*
X131366743Y-103638337D01*
X131308404Y-103905907D01*
X131286917Y-104178918D01*
X125593763Y-104178918D01*
X135588911Y-94183770D01*
X135603323Y-94171384D01*
X135614918Y-94162851D01*
X135614923Y-94162846D01*
X135620818Y-94158508D01*
X135625557Y-94152930D01*
X135625560Y-94152927D01*
X135655035Y-94118232D01*
X135661965Y-94110716D01*
X135667660Y-94105021D01*
X135685281Y-94082749D01*
X135688072Y-94079345D01*
X135730591Y-94029297D01*
X135730592Y-94029295D01*
X135735333Y-94023715D01*
X135738661Y-94017199D01*
X135742028Y-94012150D01*
X135745195Y-94007021D01*
X135749734Y-94001284D01*
X135780655Y-93935125D01*
X135782561Y-93931225D01*
X135789196Y-93918232D01*
X135815769Y-93866192D01*
X135817508Y-93859084D01*
X135819607Y-93853441D01*
X135821524Y-93847678D01*
X135824622Y-93841050D01*
X135839487Y-93769583D01*
X135840457Y-93765299D01*
X135847831Y-93735163D01*
X135857808Y-93694390D01*
X135858500Y-93683236D01*
X135858536Y-93683238D01*
X135858775Y-93679245D01*
X135859149Y-93675053D01*
X135860640Y-93667885D01*
X135858546Y-93590479D01*
X135858500Y-93587072D01*
X135858500Y-69444028D01*
X135878502Y-69375907D01*
X135936281Y-69327620D01*
X135995136Y-69303241D01*
X136118323Y-69231256D01*
X136227879Y-69167237D01*
X136227880Y-69167236D01*
X136231582Y-69165073D01*
X136447089Y-68996094D01*
X136469295Y-68973180D01*
X136634686Y-68802509D01*
X136637669Y-68799431D01*
X136640202Y-68795983D01*
X136640206Y-68795978D01*
X136797257Y-68582178D01*
X136799795Y-68578723D01*
X136827154Y-68528334D01*
X136928418Y-68341830D01*
X136928419Y-68341828D01*
X136930468Y-68338054D01*
X136978868Y-68209966D01*
X137025751Y-68085895D01*
X137025752Y-68085891D01*
X137027269Y-68081877D01*
X137088407Y-67814933D01*
X137112751Y-67542161D01*
X137113193Y-67500000D01*
X137111465Y-67474648D01*
X137094859Y-67231055D01*
X137094858Y-67231049D01*
X137094567Y-67226778D01*
X137039032Y-66958612D01*
X136947617Y-66700465D01*
X136822013Y-66457112D01*
X136812040Y-66442921D01*
X136667008Y-66236562D01*
X136664545Y-66233057D01*
X136478125Y-66032445D01*
X136474810Y-66029731D01*
X136474806Y-66029728D01*
X136269523Y-65861706D01*
X136266205Y-65858990D01*
X136032704Y-65715901D01*
X136028768Y-65714173D01*
X135785873Y-65607549D01*
X135785869Y-65607548D01*
X135781945Y-65605825D01*
X135518566Y-65530800D01*
X135514324Y-65530196D01*
X135514318Y-65530195D01*
X135313834Y-65501662D01*
X135247443Y-65492213D01*
X135103589Y-65491460D01*
X134977877Y-65490802D01*
X134977871Y-65490802D01*
X134973591Y-65490780D01*
X134969347Y-65491339D01*
X134969343Y-65491339D01*
X134850302Y-65507011D01*
X134702078Y-65526525D01*
X134697938Y-65527658D01*
X134697936Y-65527658D01*
X134625008Y-65547609D01*
X134437928Y-65598788D01*
X134433980Y-65600472D01*
X134189982Y-65704546D01*
X134189978Y-65704548D01*
X134186030Y-65706232D01*
X134166125Y-65718145D01*
X133954725Y-65844664D01*
X133954721Y-65844667D01*
X133951043Y-65846868D01*
X133737318Y-66018094D01*
X133548808Y-66216742D01*
X133389002Y-66439136D01*
X133260857Y-66681161D01*
X133259385Y-66685184D01*
X133259383Y-66685188D01*
X133242261Y-66731977D01*
X133166743Y-66938337D01*
X133108404Y-67205907D01*
X133086917Y-67478918D01*
X133102682Y-67752320D01*
X133103507Y-67756525D01*
X133103508Y-67756533D01*
X133130999Y-67896656D01*
X133155405Y-68021053D01*
X133156792Y-68025103D01*
X133156793Y-68025108D01*
X133202502Y-68158612D01*
X133244112Y-68280144D01*
X133367160Y-68524799D01*
X133369586Y-68528328D01*
X133369589Y-68528334D01*
X133516550Y-68742161D01*
X133522274Y-68750490D01*
X133706582Y-68953043D01*
X133709877Y-68955798D01*
X133709878Y-68955799D01*
X133730666Y-68973180D01*
X133916675Y-69128707D01*
X133920316Y-69130991D01*
X134145024Y-69271951D01*
X134145028Y-69271953D01*
X134148664Y-69274234D01*
X134267352Y-69327824D01*
X134321205Y-69374086D01*
X134341500Y-69442660D01*
X134341500Y-93233629D01*
X134321498Y-93301750D01*
X134304595Y-93322724D01*
X118539814Y-109087505D01*
X118477502Y-109121531D01*
X118400074Y-109113783D01*
X118381945Y-109105825D01*
X118118566Y-109030800D01*
X118114324Y-109030196D01*
X118114318Y-109030195D01*
X117913834Y-109001662D01*
X117847443Y-108992213D01*
X117703589Y-108991460D01*
X117577877Y-108990802D01*
X117577871Y-108990802D01*
X117573591Y-108990780D01*
X117569347Y-108991339D01*
X117569343Y-108991339D01*
X117450302Y-109007011D01*
X117302078Y-109026525D01*
X117297938Y-109027658D01*
X117297936Y-109027658D01*
X117225008Y-109047609D01*
X117037928Y-109098788D01*
X117033980Y-109100472D01*
X116789982Y-109204546D01*
X116789978Y-109204548D01*
X116786030Y-109206232D01*
X116766125Y-109218145D01*
X116554725Y-109344664D01*
X116554721Y-109344667D01*
X116551043Y-109346868D01*
X116337318Y-109518094D01*
X116148808Y-109716742D01*
X115989002Y-109939136D01*
X115860857Y-110181161D01*
X115859385Y-110185184D01*
X115859383Y-110185188D01*
X115852314Y-110204506D01*
X115766743Y-110438337D01*
X115708404Y-110705907D01*
X115686917Y-110978918D01*
X110711756Y-110978918D01*
X110694567Y-110726778D01*
X110639032Y-110458612D01*
X110547617Y-110200465D01*
X110422013Y-109957112D01*
X110412040Y-109942921D01*
X110267008Y-109736562D01*
X110264545Y-109733057D01*
X110078125Y-109532445D01*
X110074810Y-109529731D01*
X110074806Y-109529728D01*
X109944069Y-109422721D01*
X109866205Y-109358990D01*
X109632704Y-109215901D01*
X109628768Y-109214173D01*
X109385873Y-109107549D01*
X109385869Y-109107548D01*
X109381945Y-109105825D01*
X109118566Y-109030800D01*
X109114324Y-109030196D01*
X109114318Y-109030195D01*
X108913834Y-109001662D01*
X108847443Y-108992213D01*
X108703589Y-108991460D01*
X108577877Y-108990802D01*
X108577871Y-108990802D01*
X108573591Y-108990780D01*
X108569347Y-108991339D01*
X108569343Y-108991339D01*
X108450302Y-109007011D01*
X108302078Y-109026525D01*
X108297938Y-109027658D01*
X108297936Y-109027658D01*
X108225008Y-109047609D01*
X108037928Y-109098788D01*
X108033980Y-109100472D01*
X107789982Y-109204546D01*
X107789978Y-109204548D01*
X107786030Y-109206232D01*
X107766125Y-109218145D01*
X107554725Y-109344664D01*
X107554721Y-109344667D01*
X107551043Y-109346868D01*
X107337318Y-109518094D01*
X107148808Y-109716742D01*
X106989002Y-109939136D01*
X106860857Y-110181161D01*
X106859385Y-110185184D01*
X106859383Y-110185188D01*
X106852314Y-110204506D01*
X106766743Y-110438337D01*
X106708404Y-110705907D01*
X106686917Y-110978918D01*
X106702682Y-111252320D01*
X106703507Y-111256525D01*
X106703508Y-111256533D01*
X106714127Y-111310657D01*
X106755405Y-111521053D01*
X106756792Y-111525103D01*
X106756793Y-111525108D01*
X106777605Y-111585895D01*
X106844112Y-111780144D01*
X106967160Y-112024799D01*
X106969586Y-112028328D01*
X106969589Y-112028334D01*
X107088625Y-112201531D01*
X107122274Y-112250490D01*
X107306582Y-112453043D01*
X107516675Y-112628707D01*
X107520316Y-112630991D01*
X107745024Y-112771951D01*
X107745028Y-112771953D01*
X107748664Y-112774234D01*
X107867352Y-112827824D01*
X107921205Y-112874086D01*
X107941500Y-112942660D01*
X107941500Y-119233629D01*
X107921498Y-119301750D01*
X107904595Y-119322724D01*
X100073595Y-127153724D01*
X100011283Y-127187750D01*
X99940468Y-127182685D01*
X99883632Y-127140138D01*
X99858821Y-127073618D01*
X99858500Y-127064629D01*
X99858500Y-126701866D01*
X99851745Y-126639684D01*
X99800615Y-126503295D01*
X99713261Y-126386739D01*
X99596705Y-126299385D01*
X99460316Y-126248255D01*
X99398134Y-126241500D01*
X97601866Y-126241500D01*
X97539684Y-126248255D01*
X97403295Y-126299385D01*
X97286739Y-126386739D01*
X97199385Y-126503295D01*
X97148255Y-126639684D01*
X97141500Y-126701866D01*
X97141500Y-129298134D01*
X72608500Y-129298134D01*
X72608500Y-124000000D01*
X91686496Y-124000000D01*
X91706458Y-124189928D01*
X91765473Y-124371556D01*
X91860960Y-124536944D01*
X91988747Y-124678866D01*
X92087843Y-124750864D01*
X92137904Y-124787235D01*
X92143248Y-124791118D01*
X92149276Y-124793802D01*
X92149278Y-124793803D01*
X92311681Y-124866109D01*
X92317712Y-124868794D01*
X92391603Y-124884500D01*
X92498056Y-124907128D01*
X92498061Y-124907128D01*
X92504513Y-124908500D01*
X92695487Y-124908500D01*
X92701939Y-124907128D01*
X92701944Y-124907128D01*
X92808397Y-124884500D01*
X92882288Y-124868794D01*
X92888319Y-124866109D01*
X93050722Y-124793803D01*
X93050724Y-124793802D01*
X93056752Y-124791118D01*
X93062091Y-124787239D01*
X93062098Y-124787235D01*
X93068528Y-124782563D01*
X93142587Y-124758500D01*
X97015500Y-124758500D01*
X97083621Y-124778502D01*
X97130114Y-124832158D01*
X97141500Y-124884500D01*
X97141500Y-125298134D01*
X97148255Y-125360316D01*
X97199385Y-125496705D01*
X97286739Y-125613261D01*
X97403295Y-125700615D01*
X97539684Y-125751745D01*
X97601866Y-125758500D01*
X99398134Y-125758500D01*
X99460316Y-125751745D01*
X99596705Y-125700615D01*
X99713261Y-125613261D01*
X99800615Y-125496705D01*
X99851745Y-125360316D01*
X99858500Y-125298134D01*
X99858500Y-122701866D01*
X99851745Y-122639684D01*
X99800615Y-122503295D01*
X99713261Y-122386739D01*
X99596705Y-122299385D01*
X99460316Y-122248255D01*
X99398134Y-122241500D01*
X97601866Y-122241500D01*
X97539684Y-122248255D01*
X97403295Y-122299385D01*
X97286739Y-122386739D01*
X97199385Y-122503295D01*
X97148255Y-122639684D01*
X97141500Y-122701866D01*
X97141500Y-123115500D01*
X97121498Y-123183621D01*
X97067842Y-123230114D01*
X97015500Y-123241500D01*
X94735371Y-123241500D01*
X94667250Y-123221498D01*
X94620757Y-123167842D01*
X94610653Y-123097568D01*
X94640147Y-123032988D01*
X94646276Y-123026405D01*
X98988911Y-118683770D01*
X99003323Y-118671384D01*
X99014918Y-118662851D01*
X99014923Y-118662846D01*
X99020818Y-118658508D01*
X99025557Y-118652930D01*
X99025560Y-118652927D01*
X99055035Y-118618232D01*
X99061965Y-118610716D01*
X99067660Y-118605021D01*
X99085281Y-118582749D01*
X99088072Y-118579345D01*
X99130591Y-118529297D01*
X99130592Y-118529295D01*
X99135333Y-118523715D01*
X99138661Y-118517199D01*
X99142028Y-118512150D01*
X99145195Y-118507021D01*
X99149734Y-118501284D01*
X99180655Y-118435125D01*
X99182561Y-118431225D01*
X99215769Y-118366192D01*
X99217508Y-118359084D01*
X99219607Y-118353441D01*
X99221524Y-118347678D01*
X99224622Y-118341050D01*
X99239487Y-118269583D01*
X99240457Y-118265299D01*
X99256473Y-118199845D01*
X99257808Y-118194390D01*
X99258500Y-118183236D01*
X99258536Y-118183238D01*
X99258775Y-118179245D01*
X99259149Y-118175053D01*
X99260640Y-118167885D01*
X99258546Y-118090479D01*
X99258500Y-118087072D01*
X99258500Y-116784500D01*
X99278502Y-116716379D01*
X99332158Y-116669886D01*
X99384500Y-116658500D01*
X99398134Y-116658500D01*
X99460316Y-116651745D01*
X99596705Y-116600615D01*
X99713261Y-116513261D01*
X99800615Y-116396705D01*
X99851745Y-116260316D01*
X99858500Y-116198134D01*
X99858500Y-113601866D01*
X99851745Y-113539684D01*
X99800615Y-113403295D01*
X99713261Y-113286739D01*
X99596705Y-113199385D01*
X99460316Y-113148255D01*
X99398134Y-113141500D01*
X97601866Y-113141500D01*
X97539684Y-113148255D01*
X97403295Y-113199385D01*
X97286739Y-113286739D01*
X97199385Y-113403295D01*
X97148255Y-113539684D01*
X97141500Y-113601866D01*
X97141500Y-116198134D01*
X97148255Y-116260316D01*
X97199385Y-116396705D01*
X97286739Y-116513261D01*
X97403295Y-116600615D01*
X97539684Y-116651745D01*
X97601866Y-116658500D01*
X97615500Y-116658500D01*
X97683621Y-116678502D01*
X97730114Y-116732158D01*
X97741500Y-116784500D01*
X97741500Y-117733629D01*
X97721498Y-117801750D01*
X97704595Y-117822724D01*
X92443669Y-123083650D01*
X92380772Y-123117801D01*
X92324176Y-123129831D01*
X92324167Y-123129834D01*
X92317712Y-123131206D01*
X92311682Y-123133891D01*
X92311681Y-123133891D01*
X92149278Y-123206197D01*
X92149276Y-123206198D01*
X92143248Y-123208882D01*
X92137907Y-123212762D01*
X92137906Y-123212763D01*
X92114025Y-123230114D01*
X91988747Y-123321134D01*
X91860960Y-123463056D01*
X91765473Y-123628444D01*
X91706458Y-123810072D01*
X91686496Y-124000000D01*
X72608500Y-124000000D01*
X72608500Y-104178918D01*
X77686917Y-104178918D01*
X77702682Y-104452320D01*
X77703507Y-104456525D01*
X77703508Y-104456533D01*
X77724698Y-104564539D01*
X77755405Y-104721053D01*
X77756792Y-104725103D01*
X77756793Y-104725108D01*
X77777605Y-104785895D01*
X77844112Y-104980144D01*
X77967160Y-105224799D01*
X77969586Y-105228328D01*
X77969589Y-105228334D01*
X78098741Y-105416250D01*
X78122274Y-105450490D01*
X78306582Y-105653043D01*
X78516675Y-105828707D01*
X78520316Y-105830991D01*
X78745024Y-105971951D01*
X78745028Y-105971953D01*
X78748664Y-105974234D01*
X78816544Y-106004883D01*
X78994345Y-106085164D01*
X78994349Y-106085166D01*
X78998257Y-106086930D01*
X79002377Y-106088150D01*
X79002376Y-106088150D01*
X79256723Y-106163491D01*
X79256727Y-106163492D01*
X79260836Y-106164709D01*
X79265070Y-106165357D01*
X79265075Y-106165358D01*
X79527298Y-106205483D01*
X79527300Y-106205483D01*
X79531540Y-106206132D01*
X79670912Y-106208322D01*
X79801071Y-106210367D01*
X79801077Y-106210367D01*
X79805362Y-106210434D01*
X80077235Y-106177534D01*
X80342127Y-106108041D01*
X80346087Y-106106401D01*
X80346092Y-106106399D01*
X80468632Y-106055641D01*
X80595136Y-106003241D01*
X80831582Y-105865073D01*
X81047089Y-105696094D01*
X81088809Y-105653043D01*
X81234686Y-105502509D01*
X81237669Y-105499431D01*
X81240202Y-105495983D01*
X81240206Y-105495978D01*
X81397257Y-105282178D01*
X81399795Y-105278723D01*
X81401841Y-105274955D01*
X81528418Y-105041830D01*
X81528419Y-105041828D01*
X81530468Y-105038054D01*
X81627269Y-104781877D01*
X81688407Y-104514933D01*
X81694384Y-104447969D01*
X81712531Y-104244627D01*
X81712532Y-104244616D01*
X81712751Y-104242161D01*
X81713193Y-104200000D01*
X81711756Y-104178918D01*
X86686917Y-104178918D01*
X86702682Y-104452320D01*
X86703507Y-104456525D01*
X86703508Y-104456533D01*
X86724698Y-104564539D01*
X86755405Y-104721053D01*
X86756792Y-104725103D01*
X86756793Y-104725108D01*
X86777605Y-104785895D01*
X86844112Y-104980144D01*
X86967160Y-105224799D01*
X86969586Y-105228328D01*
X86969589Y-105228334D01*
X87098741Y-105416250D01*
X87122274Y-105450490D01*
X87306582Y-105653043D01*
X87516675Y-105828707D01*
X87520316Y-105830991D01*
X87745024Y-105971951D01*
X87745028Y-105971953D01*
X87748664Y-105974234D01*
X87816544Y-106004883D01*
X87994345Y-106085164D01*
X87994349Y-106085166D01*
X87998257Y-106086930D01*
X88002377Y-106088150D01*
X88002376Y-106088150D01*
X88256723Y-106163491D01*
X88256727Y-106163492D01*
X88260836Y-106164709D01*
X88265070Y-106165357D01*
X88265075Y-106165358D01*
X88527298Y-106205483D01*
X88527300Y-106205483D01*
X88531540Y-106206132D01*
X88670912Y-106208322D01*
X88801071Y-106210367D01*
X88801077Y-106210367D01*
X88805362Y-106210434D01*
X89077235Y-106177534D01*
X89342127Y-106108041D01*
X89346087Y-106106401D01*
X89346092Y-106106399D01*
X89468632Y-106055641D01*
X89595136Y-106003241D01*
X89831582Y-105865073D01*
X90047089Y-105696094D01*
X90088809Y-105653043D01*
X90234686Y-105502509D01*
X90237669Y-105499431D01*
X90240202Y-105495983D01*
X90240206Y-105495978D01*
X90397257Y-105282178D01*
X90399795Y-105278723D01*
X90401841Y-105274955D01*
X90528418Y-105041830D01*
X90528419Y-105041828D01*
X90530468Y-105038054D01*
X90627269Y-104781877D01*
X90688407Y-104514933D01*
X90694384Y-104447969D01*
X90712531Y-104244627D01*
X90712532Y-104244616D01*
X90712751Y-104242161D01*
X90713193Y-104200000D01*
X90711465Y-104174648D01*
X90694859Y-103931055D01*
X90694858Y-103931049D01*
X90694567Y-103926778D01*
X90639032Y-103658612D01*
X90547617Y-103400465D01*
X90422013Y-103157112D01*
X90412040Y-103142921D01*
X90267008Y-102936562D01*
X90264545Y-102933057D01*
X90078125Y-102732445D01*
X90074810Y-102729731D01*
X90074806Y-102729728D01*
X89869523Y-102561706D01*
X89866205Y-102558990D01*
X89632704Y-102415901D01*
X89628768Y-102414173D01*
X89385873Y-102307549D01*
X89385869Y-102307548D01*
X89381945Y-102305825D01*
X89118566Y-102230800D01*
X89114324Y-102230196D01*
X89114318Y-102230195D01*
X88913834Y-102201662D01*
X88847443Y-102192213D01*
X88703589Y-102191460D01*
X88577877Y-102190802D01*
X88577871Y-102190802D01*
X88573591Y-102190780D01*
X88569347Y-102191339D01*
X88569343Y-102191339D01*
X88450302Y-102207011D01*
X88302078Y-102226525D01*
X88297938Y-102227658D01*
X88297936Y-102227658D01*
X88225008Y-102247609D01*
X88037928Y-102298788D01*
X88033980Y-102300472D01*
X87789982Y-102404546D01*
X87789978Y-102404548D01*
X87786030Y-102406232D01*
X87766125Y-102418145D01*
X87554725Y-102544664D01*
X87554721Y-102544667D01*
X87551043Y-102546868D01*
X87337318Y-102718094D01*
X87148808Y-102916742D01*
X86989002Y-103139136D01*
X86860857Y-103381161D01*
X86859385Y-103385184D01*
X86859383Y-103385188D01*
X86852314Y-103404506D01*
X86766743Y-103638337D01*
X86708404Y-103905907D01*
X86686917Y-104178918D01*
X81711756Y-104178918D01*
X81711465Y-104174648D01*
X81694859Y-103931055D01*
X81694858Y-103931049D01*
X81694567Y-103926778D01*
X81639032Y-103658612D01*
X81547617Y-103400465D01*
X81422013Y-103157112D01*
X81412040Y-103142921D01*
X81267008Y-102936562D01*
X81264545Y-102933057D01*
X81078125Y-102732445D01*
X81074810Y-102729731D01*
X81074806Y-102729728D01*
X80869523Y-102561706D01*
X80866205Y-102558990D01*
X80632704Y-102415901D01*
X80628768Y-102414173D01*
X80385873Y-102307549D01*
X80385869Y-102307548D01*
X80381945Y-102305825D01*
X80118566Y-102230800D01*
X80114324Y-102230196D01*
X80114318Y-102230195D01*
X79913834Y-102201662D01*
X79847443Y-102192213D01*
X79703589Y-102191460D01*
X79577877Y-102190802D01*
X79577871Y-102190802D01*
X79573591Y-102190780D01*
X79569347Y-102191339D01*
X79569343Y-102191339D01*
X79450302Y-102207011D01*
X79302078Y-102226525D01*
X79297938Y-102227658D01*
X79297936Y-102227658D01*
X79225008Y-102247609D01*
X79037928Y-102298788D01*
X79033980Y-102300472D01*
X78789982Y-102404546D01*
X78789978Y-102404548D01*
X78786030Y-102406232D01*
X78766125Y-102418145D01*
X78554725Y-102544664D01*
X78554721Y-102544667D01*
X78551043Y-102546868D01*
X78337318Y-102718094D01*
X78148808Y-102916742D01*
X77989002Y-103139136D01*
X77860857Y-103381161D01*
X77859385Y-103385184D01*
X77859383Y-103385188D01*
X77852314Y-103404506D01*
X77766743Y-103638337D01*
X77708404Y-103905907D01*
X77686917Y-104178918D01*
X72608500Y-104178918D01*
X72608500Y-68678918D01*
X77686917Y-68678918D01*
X77702682Y-68952320D01*
X77703507Y-68956525D01*
X77703508Y-68956533D01*
X77710665Y-68993010D01*
X77755405Y-69221053D01*
X77756792Y-69225103D01*
X77756793Y-69225108D01*
X77841903Y-69473692D01*
X77844112Y-69480144D01*
X77967160Y-69724799D01*
X77969586Y-69728328D01*
X77969589Y-69728334D01*
X78094886Y-69910640D01*
X78122274Y-69950490D01*
X78125161Y-69953663D01*
X78125162Y-69953664D01*
X78249783Y-70090621D01*
X78306582Y-70153043D01*
X78309877Y-70155798D01*
X78309878Y-70155799D01*
X78334140Y-70176085D01*
X78516675Y-70328707D01*
X78520316Y-70330991D01*
X78745024Y-70471951D01*
X78745028Y-70471953D01*
X78748664Y-70474234D01*
X78836133Y-70513728D01*
X78994345Y-70585164D01*
X78994349Y-70585166D01*
X78998257Y-70586930D01*
X79002377Y-70588150D01*
X79002376Y-70588150D01*
X79256723Y-70663491D01*
X79256727Y-70663492D01*
X79260836Y-70664709D01*
X79265070Y-70665357D01*
X79265075Y-70665358D01*
X79527298Y-70705483D01*
X79527300Y-70705483D01*
X79531540Y-70706132D01*
X79670912Y-70708322D01*
X79801071Y-70710367D01*
X79801077Y-70710367D01*
X79805362Y-70710434D01*
X80077235Y-70677534D01*
X80342127Y-70608041D01*
X80346096Y-70606397D01*
X80346099Y-70606396D01*
X80400981Y-70583663D01*
X80471571Y-70576073D01*
X80538295Y-70610976D01*
X97704595Y-87777276D01*
X97738621Y-87839588D01*
X97741500Y-87866371D01*
X97741500Y-109015500D01*
X97721498Y-109083621D01*
X97667842Y-109130114D01*
X97615500Y-109141500D01*
X97601866Y-109141500D01*
X97539684Y-109148255D01*
X97403295Y-109199385D01*
X97286739Y-109286739D01*
X97199385Y-109403295D01*
X97148255Y-109539684D01*
X97141500Y-109601866D01*
X97141500Y-112198134D01*
X97148255Y-112260316D01*
X97199385Y-112396705D01*
X97286739Y-112513261D01*
X97403295Y-112600615D01*
X97539684Y-112651745D01*
X97601866Y-112658500D01*
X99398134Y-112658500D01*
X99460316Y-112651745D01*
X99596705Y-112600615D01*
X99713261Y-112513261D01*
X99800615Y-112396705D01*
X99851745Y-112260316D01*
X99858500Y-112198134D01*
X99858500Y-109601866D01*
X99851745Y-109539684D01*
X99800615Y-109403295D01*
X99713261Y-109286739D01*
X99596705Y-109199385D01*
X99460316Y-109148255D01*
X99398134Y-109141500D01*
X99384500Y-109141500D01*
X99316379Y-109121498D01*
X99269886Y-109067842D01*
X99258500Y-109015500D01*
X99258500Y-87567070D01*
X99259933Y-87548120D01*
X99262099Y-87533885D01*
X99262099Y-87533881D01*
X99263199Y-87526651D01*
X99258915Y-87473982D01*
X99258500Y-87463767D01*
X99258500Y-87455707D01*
X99255211Y-87427493D01*
X99254778Y-87423118D01*
X99249454Y-87357661D01*
X99249453Y-87357658D01*
X99248860Y-87350363D01*
X99246604Y-87343399D01*
X99245413Y-87337440D01*
X99244029Y-87331585D01*
X99243182Y-87324319D01*
X99218265Y-87255673D01*
X99216848Y-87251545D01*
X99196607Y-87189064D01*
X99196606Y-87189062D01*
X99194351Y-87182101D01*
X99190555Y-87175846D01*
X99188049Y-87170372D01*
X99185330Y-87164942D01*
X99182833Y-87158063D01*
X99142814Y-87097024D01*
X99140467Y-87093305D01*
X99102595Y-87030893D01*
X99095197Y-87022516D01*
X99095224Y-87022492D01*
X99092571Y-87019500D01*
X99089868Y-87016267D01*
X99085856Y-87010148D01*
X99029617Y-86956872D01*
X99027175Y-86954494D01*
X87371599Y-75298918D01*
X105986917Y-75298918D01*
X106002682Y-75572320D01*
X106003507Y-75576525D01*
X106003508Y-75576533D01*
X106024698Y-75684539D01*
X106055405Y-75841053D01*
X106056792Y-75845103D01*
X106056793Y-75845108D01*
X106077605Y-75905895D01*
X106144112Y-76100144D01*
X106267160Y-76344799D01*
X106269586Y-76348328D01*
X106269589Y-76348334D01*
X106398741Y-76536250D01*
X106422274Y-76570490D01*
X106606582Y-76773043D01*
X106816675Y-76948707D01*
X106820316Y-76950991D01*
X107045024Y-77091951D01*
X107045028Y-77091953D01*
X107048664Y-77094234D01*
X107116544Y-77124883D01*
X107294345Y-77205164D01*
X107294349Y-77205166D01*
X107298257Y-77206930D01*
X107302377Y-77208150D01*
X107302376Y-77208150D01*
X107556723Y-77283491D01*
X107556727Y-77283492D01*
X107560836Y-77284709D01*
X107565070Y-77285357D01*
X107565075Y-77285358D01*
X107827298Y-77325483D01*
X107827300Y-77325483D01*
X107831540Y-77326132D01*
X107970912Y-77328322D01*
X108101071Y-77330367D01*
X108101077Y-77330367D01*
X108105362Y-77330434D01*
X108377235Y-77297534D01*
X108642127Y-77228041D01*
X108646087Y-77226401D01*
X108646092Y-77226399D01*
X108768632Y-77175641D01*
X108895136Y-77123241D01*
X109131582Y-76985073D01*
X109227767Y-76909654D01*
X115775618Y-76909654D01*
X115782673Y-76919627D01*
X115813679Y-76945551D01*
X115820598Y-76950579D01*
X116045272Y-77091515D01*
X116052807Y-77095556D01*
X116294520Y-77204694D01*
X116302551Y-77207680D01*
X116556832Y-77283002D01*
X116565184Y-77284869D01*
X116827340Y-77324984D01*
X116835874Y-77325700D01*
X117101045Y-77329867D01*
X117109596Y-77329418D01*
X117372883Y-77297557D01*
X117381284Y-77295955D01*
X117637824Y-77228653D01*
X117645926Y-77225926D01*
X117890949Y-77124434D01*
X117898617Y-77120628D01*
X118127598Y-76986822D01*
X118134679Y-76982009D01*
X118214655Y-76919301D01*
X118223125Y-76907442D01*
X118216608Y-76895818D01*
X117012812Y-75692022D01*
X116998868Y-75684408D01*
X116997035Y-75684539D01*
X116990420Y-75688790D01*
X115782910Y-76896300D01*
X115775618Y-76909654D01*
X109227767Y-76909654D01*
X109347089Y-76816094D01*
X109388809Y-76773043D01*
X109534686Y-76622509D01*
X109537669Y-76619431D01*
X109540202Y-76615983D01*
X109540206Y-76615978D01*
X109697257Y-76402178D01*
X109699795Y-76398723D01*
X109701841Y-76394955D01*
X109828418Y-76161830D01*
X109828419Y-76161828D01*
X109830468Y-76158054D01*
X109927269Y-75901877D01*
X109988407Y-75634933D01*
X109994384Y-75567969D01*
X110012531Y-75364627D01*
X110012532Y-75364616D01*
X110012751Y-75362161D01*
X110013193Y-75320000D01*
X110012048Y-75303204D01*
X114987665Y-75303204D01*
X115002932Y-75567969D01*
X115004005Y-75576470D01*
X115055065Y-75836722D01*
X115057276Y-75844974D01*
X115143184Y-76095894D01*
X115146499Y-76103779D01*
X115265664Y-76340713D01*
X115270020Y-76348079D01*
X115399347Y-76536250D01*
X115409601Y-76544594D01*
X115423342Y-76537448D01*
X116627978Y-75332812D01*
X116634356Y-75321132D01*
X117364408Y-75321132D01*
X117364539Y-75322965D01*
X117368790Y-75329580D01*
X118575730Y-76536520D01*
X118587939Y-76543187D01*
X118599439Y-76534497D01*
X118696831Y-76401913D01*
X118701418Y-76394685D01*
X118827962Y-76161621D01*
X118831530Y-76153827D01*
X118925271Y-75905750D01*
X118927748Y-75897544D01*
X118986954Y-75639038D01*
X118988294Y-75630577D01*
X119012031Y-75364616D01*
X119012277Y-75359677D01*
X119012666Y-75322485D01*
X119012523Y-75317519D01*
X118994362Y-75051123D01*
X118993201Y-75042649D01*
X118939419Y-74782944D01*
X118937120Y-74774709D01*
X118848588Y-74524705D01*
X118845191Y-74516854D01*
X118723550Y-74281178D01*
X118719122Y-74273866D01*
X118600031Y-74104417D01*
X118589509Y-74096037D01*
X118576121Y-74103089D01*
X117372022Y-75307188D01*
X117364408Y-75321132D01*
X116634356Y-75321132D01*
X116635592Y-75318868D01*
X116635461Y-75317035D01*
X116631210Y-75310420D01*
X115423814Y-74103024D01*
X115411804Y-74096466D01*
X115400064Y-74105434D01*
X115291935Y-74255911D01*
X115287418Y-74263196D01*
X115163325Y-74497567D01*
X115159839Y-74505395D01*
X115068700Y-74754446D01*
X115066311Y-74762670D01*
X115009812Y-75021795D01*
X115008563Y-75030250D01*
X114987754Y-75294653D01*
X114987665Y-75303204D01*
X110012048Y-75303204D01*
X110011465Y-75294648D01*
X109994859Y-75051055D01*
X109994858Y-75051049D01*
X109994567Y-75046778D01*
X109939032Y-74778612D01*
X109847617Y-74520465D01*
X109722013Y-74277112D01*
X109712040Y-74262921D01*
X109567008Y-74056562D01*
X109564545Y-74053057D01*
X109378125Y-73852445D01*
X109374810Y-73849731D01*
X109374806Y-73849728D01*
X109231581Y-73732500D01*
X115776584Y-73732500D01*
X115782980Y-73743770D01*
X116987188Y-74947978D01*
X117001132Y-74955592D01*
X117002965Y-74955461D01*
X117009580Y-74951210D01*
X118216604Y-73744186D01*
X118223795Y-73731017D01*
X118216473Y-73720780D01*
X118169233Y-73682115D01*
X118162261Y-73677160D01*
X117936122Y-73538582D01*
X117928552Y-73534624D01*
X117685704Y-73428022D01*
X117677644Y-73425120D01*
X117422592Y-73352467D01*
X117414214Y-73350685D01*
X117151656Y-73313318D01*
X117143111Y-73312691D01*
X116877908Y-73311302D01*
X116869374Y-73311839D01*
X116606433Y-73346456D01*
X116598035Y-73348149D01*
X116342238Y-73418127D01*
X116334143Y-73420946D01*
X116090199Y-73524997D01*
X116082577Y-73528881D01*
X115855013Y-73665075D01*
X115847981Y-73669962D01*
X115785053Y-73720377D01*
X115776584Y-73732500D01*
X109231581Y-73732500D01*
X109169523Y-73681706D01*
X109166205Y-73678990D01*
X108932704Y-73535901D01*
X108928768Y-73534173D01*
X108685873Y-73427549D01*
X108685869Y-73427548D01*
X108681945Y-73425825D01*
X108418566Y-73350800D01*
X108414324Y-73350196D01*
X108414318Y-73350195D01*
X108213834Y-73321662D01*
X108147443Y-73312213D01*
X108003589Y-73311460D01*
X107877877Y-73310802D01*
X107877871Y-73310802D01*
X107873591Y-73310780D01*
X107869347Y-73311339D01*
X107869343Y-73311339D01*
X107750302Y-73327011D01*
X107602078Y-73346525D01*
X107597938Y-73347658D01*
X107597936Y-73347658D01*
X107525008Y-73367609D01*
X107337928Y-73418788D01*
X107333980Y-73420472D01*
X107089982Y-73524546D01*
X107089978Y-73524548D01*
X107086030Y-73526232D01*
X107066125Y-73538145D01*
X106854725Y-73664664D01*
X106854721Y-73664667D01*
X106851043Y-73666868D01*
X106637318Y-73838094D01*
X106448808Y-74036742D01*
X106289002Y-74259136D01*
X106160857Y-74501161D01*
X106159385Y-74505184D01*
X106159383Y-74505188D01*
X106152314Y-74524506D01*
X106066743Y-74758337D01*
X106008404Y-75025907D01*
X105986917Y-75298918D01*
X87371599Y-75298918D01*
X81610009Y-69537328D01*
X81575983Y-69475016D01*
X81581238Y-69403695D01*
X81625751Y-69285895D01*
X81625752Y-69285891D01*
X81627269Y-69281877D01*
X81688407Y-69014933D01*
X81690089Y-68996094D01*
X81712531Y-68744627D01*
X81712531Y-68744625D01*
X81712751Y-68742161D01*
X81713193Y-68700000D01*
X81711756Y-68678918D01*
X86686917Y-68678918D01*
X86702682Y-68952320D01*
X86703507Y-68956525D01*
X86703508Y-68956533D01*
X86710665Y-68993010D01*
X86755405Y-69221053D01*
X86756792Y-69225103D01*
X86756793Y-69225108D01*
X86841903Y-69473692D01*
X86844112Y-69480144D01*
X86967160Y-69724799D01*
X86969586Y-69728328D01*
X86969589Y-69728334D01*
X87094886Y-69910640D01*
X87122274Y-69950490D01*
X87125161Y-69953663D01*
X87125162Y-69953664D01*
X87249783Y-70090621D01*
X87306582Y-70153043D01*
X87309877Y-70155798D01*
X87309878Y-70155799D01*
X87334140Y-70176085D01*
X87516675Y-70328707D01*
X87520316Y-70330991D01*
X87745024Y-70471951D01*
X87745028Y-70471953D01*
X87748664Y-70474234D01*
X87836133Y-70513728D01*
X87994345Y-70585164D01*
X87994349Y-70585166D01*
X87998257Y-70586930D01*
X88002377Y-70588150D01*
X88002376Y-70588150D01*
X88256723Y-70663491D01*
X88256727Y-70663492D01*
X88260836Y-70664709D01*
X88265070Y-70665357D01*
X88265075Y-70665358D01*
X88527298Y-70705483D01*
X88527300Y-70705483D01*
X88531540Y-70706132D01*
X88670912Y-70708322D01*
X88801071Y-70710367D01*
X88801077Y-70710367D01*
X88805362Y-70710434D01*
X89077235Y-70677534D01*
X89342127Y-70608041D01*
X89346087Y-70606401D01*
X89346092Y-70606399D01*
X89478764Y-70551444D01*
X89595136Y-70503241D01*
X89761226Y-70406186D01*
X89827879Y-70367237D01*
X89827880Y-70367236D01*
X89831582Y-70365073D01*
X90047089Y-70196094D01*
X90074739Y-70167562D01*
X90234686Y-70002509D01*
X90237669Y-69999431D01*
X90240202Y-69995983D01*
X90240206Y-69995978D01*
X90397257Y-69782178D01*
X90399795Y-69778723D01*
X90427154Y-69728334D01*
X90528418Y-69541830D01*
X90528419Y-69541828D01*
X90530468Y-69538054D01*
X90592426Y-69374086D01*
X90625751Y-69285895D01*
X90625752Y-69285891D01*
X90627269Y-69281877D01*
X90688407Y-69014933D01*
X90690089Y-68996094D01*
X90712531Y-68744627D01*
X90712531Y-68744625D01*
X90712751Y-68742161D01*
X90713193Y-68700000D01*
X90705161Y-68582178D01*
X90694859Y-68431055D01*
X90694858Y-68431049D01*
X90694567Y-68426778D01*
X90690609Y-68407663D01*
X90639901Y-68162809D01*
X90639032Y-68158612D01*
X90547617Y-67900465D01*
X90422013Y-67657112D01*
X90412040Y-67642921D01*
X90311593Y-67500000D01*
X90264545Y-67433057D01*
X90078125Y-67232445D01*
X90074810Y-67229731D01*
X90074806Y-67229728D01*
X89869523Y-67061706D01*
X89866205Y-67058990D01*
X89632704Y-66915901D01*
X89628768Y-66914173D01*
X89385873Y-66807549D01*
X89385869Y-66807548D01*
X89381945Y-66805825D01*
X89118566Y-66730800D01*
X89114324Y-66730196D01*
X89114318Y-66730195D01*
X88905424Y-66700465D01*
X88847443Y-66692213D01*
X88703589Y-66691460D01*
X88577877Y-66690802D01*
X88577871Y-66690802D01*
X88573591Y-66690780D01*
X88569347Y-66691339D01*
X88569343Y-66691339D01*
X88450302Y-66707011D01*
X88302078Y-66726525D01*
X88297938Y-66727658D01*
X88297936Y-66727658D01*
X88225008Y-66747609D01*
X88037928Y-66798788D01*
X88033980Y-66800472D01*
X87789982Y-66904546D01*
X87789978Y-66904548D01*
X87786030Y-66906232D01*
X87725397Y-66942520D01*
X87554725Y-67044664D01*
X87554721Y-67044667D01*
X87551043Y-67046868D01*
X87337318Y-67218094D01*
X87148808Y-67416742D01*
X86989002Y-67639136D01*
X86860857Y-67881161D01*
X86859385Y-67885184D01*
X86859383Y-67885188D01*
X86787320Y-68082108D01*
X86766743Y-68138337D01*
X86708404Y-68405907D01*
X86686917Y-68678918D01*
X81711756Y-68678918D01*
X81705161Y-68582178D01*
X81694859Y-68431055D01*
X81694858Y-68431049D01*
X81694567Y-68426778D01*
X81690609Y-68407663D01*
X81639901Y-68162809D01*
X81639032Y-68158612D01*
X81547617Y-67900465D01*
X81422013Y-67657112D01*
X81412040Y-67642921D01*
X81311593Y-67500000D01*
X81264545Y-67433057D01*
X81078125Y-67232445D01*
X81074810Y-67229731D01*
X81074806Y-67229728D01*
X80869523Y-67061706D01*
X80866205Y-67058990D01*
X80632704Y-66915901D01*
X80628768Y-66914173D01*
X80385873Y-66807549D01*
X80385869Y-66807548D01*
X80381945Y-66805825D01*
X80118566Y-66730800D01*
X80114324Y-66730196D01*
X80114318Y-66730195D01*
X79905424Y-66700465D01*
X79847443Y-66692213D01*
X79703589Y-66691460D01*
X79577877Y-66690802D01*
X79577871Y-66690802D01*
X79573591Y-66690780D01*
X79569347Y-66691339D01*
X79569343Y-66691339D01*
X79450302Y-66707011D01*
X79302078Y-66726525D01*
X79297938Y-66727658D01*
X79297936Y-66727658D01*
X79225008Y-66747609D01*
X79037928Y-66798788D01*
X79033980Y-66800472D01*
X78789982Y-66904546D01*
X78789978Y-66904548D01*
X78786030Y-66906232D01*
X78725397Y-66942520D01*
X78554725Y-67044664D01*
X78554721Y-67044667D01*
X78551043Y-67046868D01*
X78337318Y-67218094D01*
X78148808Y-67416742D01*
X77989002Y-67639136D01*
X77860857Y-67881161D01*
X77859385Y-67885184D01*
X77859383Y-67885188D01*
X77787320Y-68082108D01*
X77766743Y-68138337D01*
X77708404Y-68405907D01*
X77686917Y-68678918D01*
X72608500Y-68678918D01*
X72608500Y-50431629D01*
X82086566Y-50431629D01*
X82086791Y-50436492D01*
X82086911Y-50439094D01*
X82087145Y-50444168D01*
X82088116Y-50448942D01*
X82088974Y-50453164D01*
X82091500Y-50478268D01*
X82091500Y-63391377D01*
X82091498Y-63392147D01*
X82091024Y-63469721D01*
X82093491Y-63478352D01*
X82099150Y-63498153D01*
X82102728Y-63514915D01*
X82106920Y-63544187D01*
X82110634Y-63552355D01*
X82110634Y-63552356D01*
X82117548Y-63567562D01*
X82123996Y-63585086D01*
X82131051Y-63609771D01*
X82135843Y-63617365D01*
X82135844Y-63617368D01*
X82146830Y-63634780D01*
X82154969Y-63649863D01*
X82167208Y-63676782D01*
X82173069Y-63683584D01*
X82183970Y-63696235D01*
X82195073Y-63711239D01*
X82208776Y-63732958D01*
X82215501Y-63738897D01*
X82215504Y-63738901D01*
X82230938Y-63752532D01*
X82242982Y-63764724D01*
X82256427Y-63780327D01*
X82256430Y-63780329D01*
X82262287Y-63787127D01*
X82269816Y-63792007D01*
X82269817Y-63792008D01*
X82283835Y-63801094D01*
X82298709Y-63812385D01*
X82311217Y-63823431D01*
X82317951Y-63829378D01*
X82344711Y-63841942D01*
X82359691Y-63850263D01*
X82376983Y-63861471D01*
X82376988Y-63861473D01*
X82384515Y-63866352D01*
X82393108Y-63868922D01*
X82393113Y-63868924D01*
X82409120Y-63873711D01*
X82426564Y-63880372D01*
X82441676Y-63887467D01*
X82441678Y-63887468D01*
X82449800Y-63891281D01*
X82458667Y-63892662D01*
X82458668Y-63892662D01*
X82468310Y-63894163D01*
X82479017Y-63895830D01*
X82495732Y-63899613D01*
X82515466Y-63905515D01*
X82515472Y-63905516D01*
X82524066Y-63908086D01*
X82533037Y-63908141D01*
X82533038Y-63908141D01*
X82543097Y-63908202D01*
X82558506Y-63908296D01*
X82559289Y-63908329D01*
X82560386Y-63908500D01*
X82591377Y-63908500D01*
X82592147Y-63908502D01*
X82665785Y-63908952D01*
X82665786Y-63908952D01*
X82669721Y-63908976D01*
X82671065Y-63908592D01*
X82672410Y-63908500D01*
X95365500Y-63908500D01*
X95433621Y-63928502D01*
X95480114Y-63982158D01*
X95491500Y-64034500D01*
X95491500Y-69991377D01*
X95491498Y-69992147D01*
X95491024Y-70069721D01*
X95493491Y-70078352D01*
X95499150Y-70098153D01*
X95502728Y-70114915D01*
X95506920Y-70144187D01*
X95510634Y-70152355D01*
X95510634Y-70152356D01*
X95517548Y-70167562D01*
X95523996Y-70185086D01*
X95531051Y-70209771D01*
X95535843Y-70217365D01*
X95535844Y-70217368D01*
X95546830Y-70234780D01*
X95554969Y-70249863D01*
X95567208Y-70276782D01*
X95573069Y-70283584D01*
X95583970Y-70296235D01*
X95595073Y-70311239D01*
X95608776Y-70332958D01*
X95615501Y-70338897D01*
X95615504Y-70338901D01*
X95630938Y-70352532D01*
X95642982Y-70364724D01*
X95656427Y-70380327D01*
X95656430Y-70380329D01*
X95662287Y-70387127D01*
X95669816Y-70392007D01*
X95669817Y-70392008D01*
X95683835Y-70401094D01*
X95698709Y-70412385D01*
X95711217Y-70423431D01*
X95717951Y-70429378D01*
X95744419Y-70441805D01*
X95744711Y-70441942D01*
X95759691Y-70450263D01*
X95776983Y-70461471D01*
X95776988Y-70461473D01*
X95784515Y-70466352D01*
X95793108Y-70468922D01*
X95793113Y-70468924D01*
X95809120Y-70473711D01*
X95826564Y-70480372D01*
X95841676Y-70487467D01*
X95841678Y-70487468D01*
X95849800Y-70491281D01*
X95858667Y-70492662D01*
X95858668Y-70492662D01*
X95868310Y-70494163D01*
X95879017Y-70495830D01*
X95895732Y-70499613D01*
X95915466Y-70505515D01*
X95915472Y-70505516D01*
X95924066Y-70508086D01*
X95933037Y-70508141D01*
X95933038Y-70508141D01*
X95943097Y-70508202D01*
X95958506Y-70508296D01*
X95959289Y-70508329D01*
X95960386Y-70508500D01*
X95991377Y-70508500D01*
X95992147Y-70508502D01*
X96065785Y-70508952D01*
X96065786Y-70508952D01*
X96069721Y-70508976D01*
X96071065Y-70508592D01*
X96072410Y-70508500D01*
X117941720Y-70508500D01*
X117962386Y-70510206D01*
X117982793Y-70513599D01*
X117988893Y-70513662D01*
X117990476Y-70513678D01*
X117990477Y-70513678D01*
X117995346Y-70513728D01*
X118000166Y-70513028D01*
X118000169Y-70513028D01*
X118001818Y-70512789D01*
X118012313Y-70511712D01*
X118212417Y-70499613D01*
X118289886Y-70494929D01*
X118580338Y-70442874D01*
X118862732Y-70357284D01*
X119133211Y-70239330D01*
X119388079Y-70090621D01*
X119623855Y-69913190D01*
X119768695Y-69774955D01*
X119834647Y-69712011D01*
X119834654Y-69712004D01*
X119837318Y-69709461D01*
X120025552Y-69482216D01*
X120029522Y-69476088D01*
X120183979Y-69237660D01*
X120183983Y-69237653D01*
X120185986Y-69234561D01*
X120193014Y-69220301D01*
X120314800Y-68973180D01*
X120314802Y-68973176D01*
X120316427Y-68969878D01*
X120415093Y-68691782D01*
X120418997Y-68674648D01*
X120474491Y-68431055D01*
X120480638Y-68404074D01*
X120508590Y-68143953D01*
X120510777Y-68130503D01*
X120512361Y-68123260D01*
X120513123Y-68110730D01*
X120509052Y-68067396D01*
X120508500Y-68055612D01*
X120508500Y-50463476D01*
X120509994Y-50444131D01*
X120513693Y-50420324D01*
X120513689Y-50407771D01*
X120512939Y-50402965D01*
X120512899Y-50402452D01*
X120511825Y-50393021D01*
X120491381Y-50109262D01*
X120491380Y-50109254D01*
X120491111Y-50105521D01*
X120433670Y-49807971D01*
X120341377Y-49519324D01*
X120215532Y-49243646D01*
X120057908Y-48984822D01*
X120055594Y-48981876D01*
X120055590Y-48981870D01*
X119873037Y-48749443D01*
X119870725Y-48746499D01*
X119868088Y-48743858D01*
X119868084Y-48743853D01*
X119720959Y-48596480D01*
X119656622Y-48532034D01*
X119418615Y-48344450D01*
X119160057Y-48186389D01*
X119156644Y-48184824D01*
X118888000Y-48061641D01*
X118887990Y-48061637D01*
X118884592Y-48060079D01*
X118749863Y-48016750D01*
X118599663Y-47968444D01*
X118599654Y-47968442D01*
X118596101Y-47967299D01*
X118298649Y-47909357D01*
X118142145Y-47897815D01*
X118027998Y-47889396D01*
X118014606Y-47887683D01*
X118014456Y-47887656D01*
X118008985Y-47886655D01*
X118004132Y-47886527D01*
X118004126Y-47886526D01*
X118001809Y-47886465D01*
X117996437Y-47886323D01*
X117991606Y-47886945D01*
X117991603Y-47886945D01*
X117964226Y-47890469D01*
X117948141Y-47891500D01*
X84669600Y-47891500D01*
X84648458Y-47889187D01*
X84648417Y-47889477D01*
X84643599Y-47888795D01*
X84638840Y-47887741D01*
X84626312Y-47886945D01*
X84621468Y-47887387D01*
X84620740Y-47887397D01*
X84611753Y-47887846D01*
X84336166Y-47890265D01*
X84048451Y-47927529D01*
X83767269Y-47998975D01*
X83496664Y-48103576D01*
X83240532Y-48239827D01*
X83002556Y-48405766D01*
X82786162Y-48599006D01*
X82783661Y-48601847D01*
X82783659Y-48601849D01*
X82596963Y-48813927D01*
X82594463Y-48816767D01*
X82592328Y-48819875D01*
X82592323Y-48819882D01*
X82432359Y-49052797D01*
X82430218Y-49055915D01*
X82295790Y-49313009D01*
X82193113Y-49584349D01*
X82192212Y-49588004D01*
X82192210Y-49588010D01*
X82158974Y-49722818D01*
X82123665Y-49866032D01*
X82088445Y-50154004D01*
X82088439Y-50157781D01*
X82088014Y-50411695D01*
X82087276Y-50425099D01*
X82086566Y-50431629D01*
X72608500Y-50431629D01*
X72608500Y-45266381D01*
X82449160Y-45266381D01*
X82449237Y-45267470D01*
X82451698Y-45271206D01*
X82725632Y-45481404D01*
X82731262Y-45485259D01*
X83031591Y-45667862D01*
X83037593Y-45671080D01*
X83355897Y-45820184D01*
X83362202Y-45822732D01*
X83694743Y-45936587D01*
X83701313Y-45938446D01*
X84044183Y-46015714D01*
X84050912Y-46016853D01*
X84400143Y-46056643D01*
X84406933Y-46057046D01*
X84758419Y-46058886D01*
X84765220Y-46058554D01*
X85114853Y-46022423D01*
X85121581Y-46021357D01*
X85465274Y-45947676D01*
X85471822Y-45945897D01*
X85805549Y-45835527D01*
X85811891Y-45833041D01*
X86131718Y-45687288D01*
X86137777Y-45684121D01*
X86439995Y-45504676D01*
X86445659Y-45500884D01*
X86726732Y-45289849D01*
X86731958Y-45285464D01*
X86741613Y-45276428D01*
X86747540Y-45266381D01*
X96199160Y-45266381D01*
X96199237Y-45267470D01*
X96201698Y-45271206D01*
X96475632Y-45481404D01*
X96481262Y-45485259D01*
X96781591Y-45667862D01*
X96787593Y-45671080D01*
X97105897Y-45820184D01*
X97112202Y-45822732D01*
X97444743Y-45936587D01*
X97451313Y-45938446D01*
X97794183Y-46015714D01*
X97800912Y-46016853D01*
X98150143Y-46056643D01*
X98156933Y-46057046D01*
X98508419Y-46058886D01*
X98515220Y-46058554D01*
X98864853Y-46022423D01*
X98871581Y-46021357D01*
X99215274Y-45947676D01*
X99221822Y-45945897D01*
X99555549Y-45835527D01*
X99561891Y-45833041D01*
X99881718Y-45687288D01*
X99887777Y-45684121D01*
X100189995Y-45504676D01*
X100195659Y-45500884D01*
X100476732Y-45289849D01*
X100481958Y-45285464D01*
X100491613Y-45276428D01*
X100497540Y-45266381D01*
X123699160Y-45266381D01*
X123699237Y-45267470D01*
X123701698Y-45271206D01*
X123975632Y-45481404D01*
X123981262Y-45485259D01*
X124281591Y-45667862D01*
X124287593Y-45671080D01*
X124605897Y-45820184D01*
X124612202Y-45822732D01*
X124944743Y-45936587D01*
X124951313Y-45938446D01*
X125294183Y-46015714D01*
X125300912Y-46016853D01*
X125650143Y-46056643D01*
X125656933Y-46057046D01*
X126008419Y-46058886D01*
X126015220Y-46058554D01*
X126364853Y-46022423D01*
X126371581Y-46021357D01*
X126715274Y-45947676D01*
X126721822Y-45945897D01*
X127055549Y-45835527D01*
X127061891Y-45833041D01*
X127381718Y-45687288D01*
X127387777Y-45684121D01*
X127689995Y-45504676D01*
X127695659Y-45500884D01*
X127976732Y-45289849D01*
X127981958Y-45285464D01*
X127991613Y-45276428D01*
X127997540Y-45266381D01*
X137449160Y-45266381D01*
X137449237Y-45267470D01*
X137451698Y-45271206D01*
X137725632Y-45481404D01*
X137731262Y-45485259D01*
X138031591Y-45667862D01*
X138037593Y-45671080D01*
X138355897Y-45820184D01*
X138362202Y-45822732D01*
X138694743Y-45936587D01*
X138701313Y-45938446D01*
X139044183Y-46015714D01*
X139050912Y-46016853D01*
X139400143Y-46056643D01*
X139406933Y-46057046D01*
X139758419Y-46058886D01*
X139765220Y-46058554D01*
X140114853Y-46022423D01*
X140121581Y-46021357D01*
X140465274Y-45947676D01*
X140471822Y-45945897D01*
X140805549Y-45835527D01*
X140811891Y-45833041D01*
X141131718Y-45687288D01*
X141137777Y-45684121D01*
X141439995Y-45504676D01*
X141445659Y-45500884D01*
X141726732Y-45289849D01*
X141731958Y-45285464D01*
X141741613Y-45276428D01*
X141749682Y-45262750D01*
X141749654Y-45262024D01*
X141744512Y-45253723D01*
X139612810Y-43122020D01*
X139598869Y-43114408D01*
X139597034Y-43114539D01*
X139590420Y-43118790D01*
X137456774Y-45252437D01*
X137449160Y-45266381D01*
X127997540Y-45266381D01*
X127999682Y-45262750D01*
X127999654Y-45262024D01*
X127994512Y-45253723D01*
X125862810Y-43122020D01*
X125848869Y-43114408D01*
X125847034Y-43114539D01*
X125840420Y-43118790D01*
X123706774Y-45252437D01*
X123699160Y-45266381D01*
X100497540Y-45266381D01*
X100499682Y-45262750D01*
X100499654Y-45262024D01*
X100494512Y-45253723D01*
X98362810Y-43122020D01*
X98348869Y-43114408D01*
X98347034Y-43114539D01*
X98340420Y-43118790D01*
X96206774Y-45252437D01*
X96199160Y-45266381D01*
X86747540Y-45266381D01*
X86749682Y-45262750D01*
X86749654Y-45262024D01*
X86744512Y-45253723D01*
X84612810Y-43122020D01*
X84598869Y-43114408D01*
X84597034Y-43114539D01*
X84590420Y-43118790D01*
X82456774Y-45252437D01*
X82449160Y-45266381D01*
X72608500Y-45266381D01*
X72608500Y-42741832D01*
X81287333Y-42741832D01*
X81305117Y-43092893D01*
X81305827Y-43099649D01*
X81361420Y-43446723D01*
X81362859Y-43453378D01*
X81455608Y-43792410D01*
X81457757Y-43798871D01*
X81586581Y-44125912D01*
X81589412Y-44132095D01*
X81752803Y-44443310D01*
X81756286Y-44449152D01*
X81952330Y-44740896D01*
X81956433Y-44746340D01*
X82076425Y-44888836D01*
X82089164Y-44897279D01*
X82099608Y-44891181D01*
X84227980Y-42762810D01*
X84234357Y-42751131D01*
X84964408Y-42751131D01*
X84964539Y-42752966D01*
X84968790Y-42759580D01*
X87099009Y-44889798D01*
X87112605Y-44897223D01*
X87122218Y-44890522D01*
X87222518Y-44773912D01*
X87226676Y-44768514D01*
X87425762Y-44478840D01*
X87429310Y-44473029D01*
X87595942Y-44163559D01*
X87598849Y-44157381D01*
X87731090Y-43831713D01*
X87733304Y-43825283D01*
X87829598Y-43487237D01*
X87831105Y-43480607D01*
X87890332Y-43134118D01*
X87891112Y-43127378D01*
X87912668Y-42774925D01*
X87912784Y-42771323D01*
X87912853Y-42751819D01*
X87912761Y-42748194D01*
X87912416Y-42741832D01*
X95037333Y-42741832D01*
X95055117Y-43092893D01*
X95055827Y-43099649D01*
X95111420Y-43446723D01*
X95112859Y-43453378D01*
X95205608Y-43792410D01*
X95207757Y-43798871D01*
X95336581Y-44125912D01*
X95339412Y-44132095D01*
X95502803Y-44443310D01*
X95506286Y-44449152D01*
X95702330Y-44740896D01*
X95706433Y-44746340D01*
X95826425Y-44888836D01*
X95839164Y-44897279D01*
X95849608Y-44891181D01*
X97977980Y-42762810D01*
X97984357Y-42751131D01*
X98714408Y-42751131D01*
X98714539Y-42752966D01*
X98718790Y-42759580D01*
X100849009Y-44889798D01*
X100862605Y-44897223D01*
X100872218Y-44890522D01*
X100972518Y-44773912D01*
X100976676Y-44768514D01*
X101175762Y-44478840D01*
X101179310Y-44473029D01*
X101345942Y-44163559D01*
X101348849Y-44157381D01*
X101481090Y-43831713D01*
X101483304Y-43825283D01*
X101579598Y-43487237D01*
X101581105Y-43480607D01*
X101640332Y-43134118D01*
X101641112Y-43127378D01*
X101662668Y-42774925D01*
X101662784Y-42771323D01*
X101662853Y-42751819D01*
X101662761Y-42748194D01*
X101662416Y-42741832D01*
X122537333Y-42741832D01*
X122555117Y-43092893D01*
X122555827Y-43099649D01*
X122611420Y-43446723D01*
X122612859Y-43453378D01*
X122705608Y-43792410D01*
X122707757Y-43798871D01*
X122836581Y-44125912D01*
X122839412Y-44132095D01*
X123002803Y-44443310D01*
X123006286Y-44449152D01*
X123202330Y-44740896D01*
X123206433Y-44746340D01*
X123326425Y-44888836D01*
X123339164Y-44897279D01*
X123349608Y-44891181D01*
X125477980Y-42762810D01*
X125484357Y-42751131D01*
X126214408Y-42751131D01*
X126214539Y-42752966D01*
X126218790Y-42759580D01*
X128349009Y-44889798D01*
X128362605Y-44897223D01*
X128372218Y-44890522D01*
X128472518Y-44773912D01*
X128476676Y-44768514D01*
X128675762Y-44478840D01*
X128679310Y-44473029D01*
X128845942Y-44163559D01*
X128848849Y-44157381D01*
X128981090Y-43831713D01*
X128983304Y-43825283D01*
X129079598Y-43487237D01*
X129081105Y-43480607D01*
X129140332Y-43134118D01*
X129141112Y-43127378D01*
X129162668Y-42774925D01*
X129162784Y-42771323D01*
X129162853Y-42751819D01*
X129162761Y-42748194D01*
X129162416Y-42741832D01*
X136287333Y-42741832D01*
X136305117Y-43092893D01*
X136305827Y-43099649D01*
X136361420Y-43446723D01*
X136362859Y-43453378D01*
X136455608Y-43792410D01*
X136457757Y-43798871D01*
X136586581Y-44125912D01*
X136589412Y-44132095D01*
X136752803Y-44443310D01*
X136756286Y-44449152D01*
X136952330Y-44740896D01*
X136956433Y-44746340D01*
X137076425Y-44888836D01*
X137089164Y-44897279D01*
X137099608Y-44891181D01*
X139227980Y-42762810D01*
X139234357Y-42751131D01*
X139964408Y-42751131D01*
X139964539Y-42752966D01*
X139968790Y-42759580D01*
X142099009Y-44889798D01*
X142112605Y-44897223D01*
X142122218Y-44890522D01*
X142222518Y-44773912D01*
X142226676Y-44768514D01*
X142425762Y-44478840D01*
X142429310Y-44473029D01*
X142595942Y-44163559D01*
X142598849Y-44157381D01*
X142731090Y-43831713D01*
X142733304Y-43825283D01*
X142829598Y-43487237D01*
X142831105Y-43480607D01*
X142890332Y-43134118D01*
X142891112Y-43127378D01*
X142912668Y-42774925D01*
X142912784Y-42771323D01*
X142912853Y-42751819D01*
X142912761Y-42748194D01*
X142893666Y-42395615D01*
X142892931Y-42388849D01*
X142836130Y-42041985D01*
X142834663Y-42035313D01*
X142740736Y-41696627D01*
X142738562Y-41690163D01*
X142608598Y-41363578D01*
X142605742Y-41357398D01*
X142441269Y-41046763D01*
X142437769Y-41040937D01*
X142240697Y-40749862D01*
X142236590Y-40744453D01*
X142123565Y-40611179D01*
X142110740Y-40602743D01*
X142100416Y-40608795D01*
X139972020Y-42737190D01*
X139964408Y-42751131D01*
X139234357Y-42751131D01*
X139235592Y-42748869D01*
X139235461Y-42747034D01*
X139231210Y-42740420D01*
X137100992Y-40610203D01*
X137087455Y-40602811D01*
X137077753Y-40609599D01*
X136970430Y-40735257D01*
X136966296Y-40740664D01*
X136768215Y-41031041D01*
X136764697Y-41036851D01*
X136599134Y-41346922D01*
X136596259Y-41353087D01*
X136465155Y-41679218D01*
X136462962Y-41685658D01*
X136367846Y-42024044D01*
X136366363Y-42030679D01*
X136308350Y-42377354D01*
X136307591Y-42384126D01*
X136287357Y-42735037D01*
X136287333Y-42741832D01*
X129162416Y-42741832D01*
X129143666Y-42395615D01*
X129142931Y-42388849D01*
X129086130Y-42041985D01*
X129084663Y-42035313D01*
X128990736Y-41696627D01*
X128988562Y-41690163D01*
X128858598Y-41363578D01*
X128855742Y-41357398D01*
X128691269Y-41046763D01*
X128687769Y-41040937D01*
X128490697Y-40749862D01*
X128486590Y-40744453D01*
X128373565Y-40611179D01*
X128360740Y-40602743D01*
X128350416Y-40608795D01*
X126222020Y-42737190D01*
X126214408Y-42751131D01*
X125484357Y-42751131D01*
X125485592Y-42748869D01*
X125485461Y-42747034D01*
X125481210Y-42740420D01*
X123350992Y-40610203D01*
X123337455Y-40602811D01*
X123327753Y-40609599D01*
X123220430Y-40735257D01*
X123216296Y-40740664D01*
X123018215Y-41031041D01*
X123014697Y-41036851D01*
X122849134Y-41346922D01*
X122846259Y-41353087D01*
X122715155Y-41679218D01*
X122712962Y-41685658D01*
X122617846Y-42024044D01*
X122616363Y-42030679D01*
X122558350Y-42377354D01*
X122557591Y-42384126D01*
X122537357Y-42735037D01*
X122537333Y-42741832D01*
X101662416Y-42741832D01*
X101643666Y-42395615D01*
X101642931Y-42388849D01*
X101586130Y-42041985D01*
X101584663Y-42035313D01*
X101490736Y-41696627D01*
X101488562Y-41690163D01*
X101358598Y-41363578D01*
X101355742Y-41357398D01*
X101191269Y-41046763D01*
X101187769Y-41040937D01*
X100990697Y-40749862D01*
X100986590Y-40744453D01*
X100873565Y-40611179D01*
X100860740Y-40602743D01*
X100850416Y-40608795D01*
X98722020Y-42737190D01*
X98714408Y-42751131D01*
X97984357Y-42751131D01*
X97985592Y-42748869D01*
X97985461Y-42747034D01*
X97981210Y-42740420D01*
X95850992Y-40610203D01*
X95837455Y-40602811D01*
X95827753Y-40609599D01*
X95720430Y-40735257D01*
X95716296Y-40740664D01*
X95518215Y-41031041D01*
X95514697Y-41036851D01*
X95349134Y-41346922D01*
X95346259Y-41353087D01*
X95215155Y-41679218D01*
X95212962Y-41685658D01*
X95117846Y-42024044D01*
X95116363Y-42030679D01*
X95058350Y-42377354D01*
X95057591Y-42384126D01*
X95037357Y-42735037D01*
X95037333Y-42741832D01*
X87912416Y-42741832D01*
X87893666Y-42395615D01*
X87892931Y-42388849D01*
X87836130Y-42041985D01*
X87834663Y-42035313D01*
X87740736Y-41696627D01*
X87738562Y-41690163D01*
X87608598Y-41363578D01*
X87605742Y-41357398D01*
X87441269Y-41046763D01*
X87437769Y-41040937D01*
X87240697Y-40749862D01*
X87236590Y-40744453D01*
X87123565Y-40611179D01*
X87110740Y-40602743D01*
X87100416Y-40608795D01*
X84972020Y-42737190D01*
X84964408Y-42751131D01*
X84234357Y-42751131D01*
X84235592Y-42748869D01*
X84235461Y-42747034D01*
X84231210Y-42740420D01*
X82100992Y-40610203D01*
X82087455Y-40602811D01*
X82077753Y-40609599D01*
X81970430Y-40735257D01*
X81966296Y-40740664D01*
X81768215Y-41031041D01*
X81764697Y-41036851D01*
X81599134Y-41346922D01*
X81596259Y-41353087D01*
X81465155Y-41679218D01*
X81462962Y-41685658D01*
X81367846Y-42024044D01*
X81366363Y-42030679D01*
X81308350Y-42377354D01*
X81307591Y-42384126D01*
X81287357Y-42735037D01*
X81287333Y-42741832D01*
X72608500Y-42741832D01*
X72608500Y-39384500D01*
X72628502Y-39316379D01*
X72682158Y-39269886D01*
X72734500Y-39258500D01*
X83915758Y-39258500D01*
X83983879Y-39278502D01*
G37*
G04 #@! TD.AperFunction*
M02*
