M48
; DRILL file {KiCad (6.0.5-0)} date Tuesday, January 03, 2023 at 07:21:58 AM
; FORMAT={-:-/ absolute / metric / decimal}
; #@! TF.CreationDate,2023-01-03T07:21:58-05:00
; #@! TF.GenerationSoftware,Kicad,Pcbnew,(6.0.5-0)
; #@! TF.FileFunction,Plated,1,2,PTH
FMAT,2
METRIC
; #@! TA.AperFunction,Plated,PTH,ViaDrill
T1C0.400
; #@! TA.AperFunction,Plated,PTH,ComponentDrill
T2C2.000
; #@! TA.AperFunction,Plated,PTH,ComponentDrill
T3C3.200
%
G90
G05
T1
X88.1Y-119.3
X88.1Y-120.6
X88.2Y-121.9
X88.9Y-119.8
X89.0Y-121.3
X89.3Y-118.9
X89.7Y-122.2
X92.6Y-124.0
X114.5Y-75.3
X115.1Y-73.5
X115.1Y-77.2
X115.6Y-78.4
X115.8Y-72.0
X117.0Y-72.7
X117.0Y-77.9
X118.4Y-72.1
X118.5Y-78.4
X118.9Y-73.4
X119.0Y-77.2
X119.6Y-75.3
X119.8Y-72.4
X120.0Y-74.1
X120.0Y-78.1
X120.2Y-76.7
X120.9Y-73.3
X120.9Y-75.2
X139.8Y-104.3
X140.4Y-102.5
X140.4Y-106.2
X142.3Y-106.9
X142.4Y-101.6
X143.6Y-101.2
X143.8Y-107.3
X144.2Y-102.4
X144.3Y-106.2
X144.9Y-104.3
X145.1Y-101.7
X145.2Y-103.1
X145.2Y-105.5
X145.2Y-106.9
X146.1Y-104.3
X146.3Y-105.8
T2
X79.7Y-68.7
X79.7Y-104.2
X88.7Y-68.7
X88.7Y-104.2
X108.0Y-75.32
X108.7Y-111.0
X117.0Y-75.32
X117.7Y-111.0
X133.3Y-104.2
X135.1Y-67.5
X142.3Y-104.2
X144.1Y-67.5
T3
X84.6Y-42.75
X84.6Y-138.25
X98.35Y-42.75
X98.35Y-138.25
X125.85Y-42.75
X139.6Y-42.75
X139.6Y-138.25
T0
M30
