%FSLAX45Y45*%
G04 Gerber Fmt 4.5, Leading zero omitted, Abs format (unit mm)*
G04 Created by KiCad (PCBNEW (6.0.5-0)) date 2023-01-03 07:21:59*
%MOMM*%
%LPD*%
G01*
G04 APERTURE LIST*
%TA.AperFunction,Profile*%
%ADD10C,0.100000*%
%TD*%
%ADD11C,0.200000*%
G04 APERTURE END LIST*
D10*
X14360000Y-3875000D02*
X15210000Y-3875000D01*
X9600000Y-7000000D02*
X9600000Y-6340000D01*
X8060000Y-14225000D02*
X8860000Y-14225000D01*
X13560000Y-14225000D02*
X8860000Y-14225000D01*
X8065000Y-3875000D02*
X8865000Y-3875000D01*
X13560000Y-3875000D02*
X14360000Y-3875000D01*
X15210000Y-3875000D02*
X15210000Y-14225000D01*
X8060000Y-14225000D02*
X7210000Y-14225000D01*
X8260000Y-6340000D02*
X8260000Y-5041421D01*
X14360000Y-14225000D02*
X15210000Y-14225000D01*
X9600000Y-7000000D02*
X11799436Y-7000000D01*
X11799436Y-6999997D02*
G75*
G03*
X12000000Y-6808579I-386J201187D01*
G01*
X11999995Y-5041422D02*
G75*
G03*
X11798913Y-4840000I-203985J-2559D01*
G01*
X8460000Y-4839996D02*
G75*
G03*
X8260000Y-5041421I-9760J-190314D01*
G01*
X13560000Y-14225000D02*
X14360000Y-14225000D01*
X12000000Y-5041421D02*
X12000000Y-6808579D01*
X8865000Y-3875000D02*
X13560000Y-3875000D01*
X8460000Y-4840000D02*
X11798913Y-4840000D01*
X8065000Y-3875000D02*
X7210000Y-3875000D01*
X7210000Y-14225000D02*
X7210000Y-3875000D01*
X9600000Y-6340000D02*
X8260000Y-6340000D01*
D11*
X7462619Y-14540476D02*
X7462619Y-14340476D01*
X7510238Y-14340476D01*
X7538809Y-14350000D01*
X7557857Y-14369048D01*
X7567381Y-14388095D01*
X7576905Y-14426190D01*
X7576905Y-14454762D01*
X7567381Y-14492857D01*
X7557857Y-14511905D01*
X7538809Y-14530952D01*
X7510238Y-14540476D01*
X7462619Y-14540476D01*
X7662619Y-14540476D02*
X7662619Y-14407143D01*
X7662619Y-14445238D02*
X7672143Y-14426190D01*
X7681667Y-14416667D01*
X7700714Y-14407143D01*
X7719762Y-14407143D01*
X7786428Y-14540476D02*
X7786428Y-14407143D01*
X7786428Y-14340476D02*
X7776905Y-14350000D01*
X7786428Y-14359524D01*
X7795952Y-14350000D01*
X7786428Y-14340476D01*
X7786428Y-14359524D01*
X7910238Y-14540476D02*
X7891190Y-14530952D01*
X7881667Y-14511905D01*
X7881667Y-14340476D01*
X8015000Y-14540476D02*
X7995952Y-14530952D01*
X7986428Y-14511905D01*
X7986428Y-14340476D01*
X8243571Y-14540476D02*
X8243571Y-14340476D01*
X8310238Y-14483333D01*
X8376905Y-14340476D01*
X8376905Y-14540476D01*
X8557857Y-14540476D02*
X8557857Y-14435714D01*
X8548333Y-14416667D01*
X8529286Y-14407143D01*
X8491190Y-14407143D01*
X8472143Y-14416667D01*
X8557857Y-14530952D02*
X8538810Y-14540476D01*
X8491190Y-14540476D01*
X8472143Y-14530952D01*
X8462619Y-14511905D01*
X8462619Y-14492857D01*
X8472143Y-14473809D01*
X8491190Y-14464286D01*
X8538810Y-14464286D01*
X8557857Y-14454762D01*
X8653095Y-14407143D02*
X8653095Y-14607143D01*
X8653095Y-14416667D02*
X8672143Y-14407143D01*
X8710238Y-14407143D01*
X8729286Y-14416667D01*
X8738810Y-14426190D01*
X8748333Y-14445238D01*
X8748333Y-14502381D01*
X8738810Y-14521428D01*
X8729286Y-14530952D01*
X8710238Y-14540476D01*
X8672143Y-14540476D01*
X8653095Y-14530952D01*
X8834048Y-14521428D02*
X8843571Y-14530952D01*
X8834048Y-14540476D01*
X8824524Y-14530952D01*
X8834048Y-14521428D01*
X8834048Y-14540476D01*
X8834048Y-14416667D02*
X8843571Y-14426190D01*
X8834048Y-14435714D01*
X8824524Y-14426190D01*
X8834048Y-14416667D01*
X8834048Y-14435714D01*
M02*
