G04 #@! TF.GenerationSoftware,KiCad,Pcbnew,(6.0.5-0)*
G04 #@! TF.CreationDate,2023-01-03T07:21:46-05:00*
G04 #@! TF.ProjectId,solar-cell-pcbs-usb,736f6c61-722d-4636-956c-6c2d70636273,3*
G04 #@! TF.SameCoordinates,Original*
G04 #@! TF.FileFunction,Legend,Bot*
G04 #@! TF.FilePolarity,Positive*
%FSLAX46Y46*%
G04 Gerber Fmt 4.6, Leading zero omitted, Abs format (unit mm)*
G04 Created by KiCad (PCBNEW (6.0.5-0)) date 2023-01-03 07:21:46*
%MOMM*%
%LPD*%
G01*
G04 APERTURE LIST*
%ADD10C,0.150000*%
%ADD11C,0.300000*%
%ADD12C,0.120000*%
%ADD13C,5.600000*%
%ADD14C,3.000000*%
%ADD15R,1.100000X1.450000*%
%ADD16R,1.350000X2.899999*%
G04 APERTURE END LIST*
D10*
X91000952Y-125791428D02*
X90239047Y-125791428D01*
D11*
X88157142Y-108514285D02*
X90442857Y-108514285D01*
D10*
X92700952Y-125771428D02*
X91939047Y-125771428D01*
X92320000Y-126152380D02*
X92320000Y-125390476D01*
D11*
X117247142Y-115414285D02*
X119532857Y-115414285D01*
X145542857Y-71785714D02*
X143257142Y-71785714D01*
X78487142Y-72634285D02*
X80772857Y-72634285D01*
X79630000Y-73777142D02*
X79630000Y-71491428D01*
X141757142Y-108514285D02*
X144042857Y-108514285D01*
X108284285Y-114007142D02*
X108284285Y-116292857D01*
X109427142Y-115150000D02*
X107141428Y-115150000D01*
X132894285Y-109452857D02*
X132894285Y-107167142D01*
X134037142Y-108310000D02*
X131751428Y-108310000D01*
X79714285Y-109542857D02*
X79714285Y-107257142D01*
X80857142Y-108400000D02*
X78571428Y-108400000D01*
X134754285Y-72742857D02*
X134754285Y-70457142D01*
X135897142Y-71600000D02*
X133611428Y-71600000D01*
X90442857Y-73024285D02*
X88157142Y-73024285D01*
X118722857Y-79644285D02*
X116437142Y-79644285D01*
X107634285Y-80572857D02*
X107634285Y-78287142D01*
X108777142Y-79430000D02*
X106491428Y-79430000D01*
D10*
X98484761Y-113484761D02*
X98532380Y-113627619D01*
X98532380Y-113865714D01*
X98484761Y-113960952D01*
X98437142Y-114008571D01*
X98341904Y-114056190D01*
X98246666Y-114056190D01*
X98151428Y-114008571D01*
X98103809Y-113960952D01*
X98056190Y-113865714D01*
X98008571Y-113675238D01*
X97960952Y-113580000D01*
X97913333Y-113532380D01*
X97818095Y-113484761D01*
X97722857Y-113484761D01*
X97627619Y-113532380D01*
X97580000Y-113580000D01*
X97532380Y-113675238D01*
X97532380Y-113913333D01*
X97580000Y-114056190D01*
X98532380Y-114627619D02*
X98484761Y-114532380D01*
X98437142Y-114484761D01*
X98341904Y-114437142D01*
X98056190Y-114437142D01*
X97960952Y-114484761D01*
X97913333Y-114532380D01*
X97865714Y-114627619D01*
X97865714Y-114770476D01*
X97913333Y-114865714D01*
X97960952Y-114913333D01*
X98056190Y-114960952D01*
X98341904Y-114960952D01*
X98437142Y-114913333D01*
X98484761Y-114865714D01*
X98532380Y-114770476D01*
X98532380Y-114627619D01*
X98532380Y-115532380D02*
X98484761Y-115437142D01*
X98389523Y-115389523D01*
X97532380Y-115389523D01*
X98532380Y-116341904D02*
X98008571Y-116341904D01*
X97913333Y-116294285D01*
X97865714Y-116199047D01*
X97865714Y-116008571D01*
X97913333Y-115913333D01*
X98484761Y-116341904D02*
X98532380Y-116246666D01*
X98532380Y-116008571D01*
X98484761Y-115913333D01*
X98389523Y-115865714D01*
X98294285Y-115865714D01*
X98199047Y-115913333D01*
X98151428Y-116008571D01*
X98151428Y-116246666D01*
X98103809Y-116341904D01*
X98532380Y-116818095D02*
X97865714Y-116818095D01*
X98056190Y-116818095D02*
X97960952Y-116865714D01*
X97913333Y-116913333D01*
X97865714Y-117008571D01*
X97865714Y-117103809D01*
X98437142Y-118770476D02*
X98484761Y-118722857D01*
X98532380Y-118580000D01*
X98532380Y-118484761D01*
X98484761Y-118341904D01*
X98389523Y-118246666D01*
X98294285Y-118199047D01*
X98103809Y-118151428D01*
X97960952Y-118151428D01*
X97770476Y-118199047D01*
X97675238Y-118246666D01*
X97580000Y-118341904D01*
X97532380Y-118484761D01*
X97532380Y-118580000D01*
X97580000Y-118722857D01*
X97627619Y-118770476D01*
X98484761Y-119580000D02*
X98532380Y-119484761D01*
X98532380Y-119294285D01*
X98484761Y-119199047D01*
X98389523Y-119151428D01*
X98008571Y-119151428D01*
X97913333Y-119199047D01*
X97865714Y-119294285D01*
X97865714Y-119484761D01*
X97913333Y-119580000D01*
X98008571Y-119627619D01*
X98103809Y-119627619D01*
X98199047Y-119151428D01*
X98532380Y-120199047D02*
X98484761Y-120103809D01*
X98389523Y-120056190D01*
X97532380Y-120056190D01*
X98532380Y-120722857D02*
X98484761Y-120627619D01*
X98389523Y-120580000D01*
X97532380Y-120580000D01*
D12*
X86976008Y-120420000D02*
X85452008Y-119785000D01*
X95979991Y-116215040D02*
X95979991Y-120845000D01*
X95979991Y-120845000D02*
X93475041Y-120845000D01*
X87230008Y-120845000D02*
X87230008Y-116215040D01*
X85452008Y-119785000D02*
X85452008Y-121055000D01*
X91734961Y-120845000D02*
X91475040Y-120845000D01*
X85452008Y-121055000D02*
X86976008Y-120420000D01*
X89734960Y-120845000D02*
X87230008Y-120845000D01*
X88689018Y-112895000D02*
X94520981Y-112895000D01*
%LPC*%
D13*
X84600000Y-42750000D03*
D14*
X108700000Y-111000000D03*
X117700000Y-111000000D03*
X133300000Y-104200000D03*
X142300000Y-104200000D03*
D13*
X139600000Y-138250000D03*
D14*
X79700000Y-104200000D03*
X88700000Y-104200000D03*
D13*
X125850000Y-42750000D03*
D14*
X135100000Y-67500000D03*
X144100000Y-67500000D03*
D13*
X84600000Y-138250000D03*
D14*
X79700000Y-68700000D03*
X88700000Y-68700000D03*
D13*
X139600000Y-42750000D03*
X98350000Y-42750000D03*
X98350000Y-138250000D03*
D14*
X108000000Y-75320000D03*
X117000000Y-75320000D03*
D15*
X90605000Y-120420000D03*
X92605001Y-120420000D03*
D16*
X87710002Y-114445001D03*
X95499997Y-114445001D03*
M02*
