%TF.GenerationSoftware,KiCad,Pcbnew,7.0.1-0*%
%TF.CreationDate,2023-03-19T01:36:27-04:00*%
%TF.ProjectId,bottom-adapter,626f7474-6f6d-42d6-9164-61707465722e,3*%
%TF.SameCoordinates,Original*%
%TF.FileFunction,Drillmap*%
%TF.FilePolarity,Positive*%
%FSLAX45Y45*%
G04 Gerber Fmt 4.5, Leading zero omitted, Abs format (unit mm)*
G04 Created by KiCad (PCBNEW 7.0.1-0) date 2023-03-19 01:36:27*
%MOMM*%
%LPD*%
G01*
G04 APERTURE LIST*
%ADD10C,0.100000*%
%ADD11C,0.200000*%
G04 APERTURE END LIST*
D10*
X7520000Y-13010000D02*
G75*
G03*
X7620000Y-12910000I0J100000D01*
G01*
X7250000Y-13010000D02*
G75*
G03*
X7150000Y-13110000I0J-100000D01*
G01*
X16180000Y-6690000D02*
G75*
G03*
X16080000Y-6790000I0J-100000D01*
G01*
X16700000Y-5800000D02*
X16700000Y-5100000D01*
X16700000Y-5800000D02*
X16650000Y-5800000D01*
X8690000Y-5520000D02*
G75*
G03*
X8790000Y-5620000I100000J0D01*
G01*
X15900000Y-5000000D02*
X16600000Y-5000000D01*
X16550000Y-13800000D02*
G75*
G03*
X16650000Y-13900000I100000J0D01*
G01*
X7000000Y-14600000D02*
G75*
G03*
X7100000Y-14700000I100000J0D01*
G01*
X14910000Y-14080000D02*
X8790000Y-14080000D01*
X16600000Y-14700000D02*
G75*
G03*
X16700000Y-14600000I0J100000D01*
G01*
X7900000Y-14550000D02*
G75*
G03*
X7800000Y-14650000I0J-100000D01*
G01*
X15900000Y-14650000D02*
G75*
G03*
X15800000Y-14550000I-100000J0D01*
G01*
X7000000Y-13900000D02*
X7000000Y-14600000D01*
X16550000Y-13110000D02*
G75*
G03*
X16450000Y-13010000I-100000J0D01*
G01*
X7050000Y-5800000D02*
X7000000Y-5800000D01*
X15010000Y-14180000D02*
X15010000Y-14450000D01*
X8790000Y-5620000D02*
X14910000Y-5620000D01*
X7150000Y-6590000D02*
G75*
G03*
X7250000Y-6690000I100000J0D01*
G01*
X7800000Y-14700000D02*
X7100000Y-14700000D01*
X16600000Y-14700000D02*
X15900000Y-14700000D01*
X16650000Y-13900000D02*
X16700000Y-13900000D01*
X15800000Y-5150000D02*
G75*
G03*
X15900000Y-5050000I0J100000D01*
G01*
X16080000Y-6790000D02*
X16080000Y-12910000D01*
X8590000Y-14550000D02*
X7900000Y-14550000D01*
X7520000Y-13010000D02*
X7250000Y-13010000D01*
X16550000Y-5900000D02*
X16550000Y-6590000D01*
X15010000Y-5520000D02*
X15010000Y-5250000D01*
X14910000Y-5620000D02*
G75*
G03*
X15010000Y-5520000I0J100000D01*
G01*
X8690000Y-14180000D02*
X8690000Y-14450000D01*
X15800000Y-14550000D02*
X15110000Y-14550000D01*
X8790000Y-14080000D02*
G75*
G03*
X8690000Y-14180000I0J-100000D01*
G01*
X7520000Y-6690000D02*
X7250000Y-6690000D01*
X7800000Y-5050000D02*
G75*
G03*
X7900000Y-5150000I100000J0D01*
G01*
X16180000Y-13010000D02*
X16450000Y-13010000D01*
X16700000Y-5100000D02*
G75*
G03*
X16600000Y-5000000I-100000J0D01*
G01*
X7900000Y-5150000D02*
X8590000Y-5150000D01*
X7150000Y-13110000D02*
X7150000Y-13800000D01*
X16180000Y-6690000D02*
X16450000Y-6690000D01*
X15900000Y-5000000D02*
X15900000Y-5050000D01*
X8590000Y-14550000D02*
G75*
G03*
X8690000Y-14450000I0J100000D01*
G01*
X7800000Y-5050000D02*
X7800000Y-5000000D01*
X7000000Y-13900000D02*
X7050000Y-13900000D01*
X7150000Y-5900000D02*
G75*
G03*
X7050000Y-5800000I-100000J0D01*
G01*
X16080000Y-12910000D02*
G75*
G03*
X16180000Y-13010000I100000J0D01*
G01*
X16650000Y-5800000D02*
G75*
G03*
X16550000Y-5900000I0J-100000D01*
G01*
X7620000Y-12910000D02*
X7620000Y-6790000D01*
X8690000Y-5520000D02*
X8690000Y-5250000D01*
X7000000Y-5100000D02*
X7000000Y-5800000D01*
X15800000Y-5150000D02*
X15110000Y-5150000D01*
X7150000Y-5900000D02*
X7150000Y-6590000D01*
X8690000Y-5250000D02*
G75*
G03*
X8590000Y-5150000I-100000J0D01*
G01*
X16450000Y-6690000D02*
G75*
G03*
X16550000Y-6590000I0J100000D01*
G01*
X15010000Y-14180000D02*
G75*
G03*
X14910000Y-14080000I-100000J0D01*
G01*
X15900000Y-14650000D02*
X15900000Y-14700000D01*
X7050000Y-13900000D02*
G75*
G03*
X7150000Y-13800000I0J100000D01*
G01*
X15010000Y-14450000D02*
G75*
G03*
X15110000Y-14550000I100000J0D01*
G01*
X15110000Y-5150000D02*
G75*
G03*
X15010000Y-5250000I0J-100000D01*
G01*
X16550000Y-13110000D02*
X16550000Y-13800000D01*
X7100000Y-5000000D02*
G75*
G03*
X7000000Y-5100000I0J-100000D01*
G01*
X7800000Y-5000000D02*
X7100000Y-5000000D01*
X16700000Y-13900000D02*
X16700000Y-14600000D01*
X7620000Y-6790000D02*
G75*
G03*
X7520000Y-6690000I-100000J0D01*
G01*
X7800000Y-14700000D02*
X7800000Y-14650000D01*
D11*
X7242619Y-15017524D02*
X7242619Y-14817524D01*
X7242619Y-14817524D02*
X7290238Y-14817524D01*
X7290238Y-14817524D02*
X7318809Y-14827048D01*
X7318809Y-14827048D02*
X7337857Y-14846095D01*
X7337857Y-14846095D02*
X7347381Y-14865143D01*
X7347381Y-14865143D02*
X7356905Y-14903238D01*
X7356905Y-14903238D02*
X7356905Y-14931809D01*
X7356905Y-14931809D02*
X7347381Y-14969905D01*
X7347381Y-14969905D02*
X7337857Y-14988952D01*
X7337857Y-14988952D02*
X7318809Y-15008000D01*
X7318809Y-15008000D02*
X7290238Y-15017524D01*
X7290238Y-15017524D02*
X7242619Y-15017524D01*
X7442619Y-15017524D02*
X7442619Y-14884190D01*
X7442619Y-14922286D02*
X7452143Y-14903238D01*
X7452143Y-14903238D02*
X7461667Y-14893714D01*
X7461667Y-14893714D02*
X7480714Y-14884190D01*
X7480714Y-14884190D02*
X7499762Y-14884190D01*
X7566428Y-15017524D02*
X7566428Y-14884190D01*
X7566428Y-14817524D02*
X7556905Y-14827048D01*
X7556905Y-14827048D02*
X7566428Y-14836571D01*
X7566428Y-14836571D02*
X7575952Y-14827048D01*
X7575952Y-14827048D02*
X7566428Y-14817524D01*
X7566428Y-14817524D02*
X7566428Y-14836571D01*
X7690238Y-15017524D02*
X7671190Y-15008000D01*
X7671190Y-15008000D02*
X7661667Y-14988952D01*
X7661667Y-14988952D02*
X7661667Y-14817524D01*
X7795000Y-15017524D02*
X7775952Y-15008000D01*
X7775952Y-15008000D02*
X7766428Y-14988952D01*
X7766428Y-14988952D02*
X7766428Y-14817524D01*
X8023571Y-15017524D02*
X8023571Y-14817524D01*
X8023571Y-14817524D02*
X8090238Y-14960381D01*
X8090238Y-14960381D02*
X8156905Y-14817524D01*
X8156905Y-14817524D02*
X8156905Y-15017524D01*
X8337857Y-15017524D02*
X8337857Y-14912762D01*
X8337857Y-14912762D02*
X8328333Y-14893714D01*
X8328333Y-14893714D02*
X8309286Y-14884190D01*
X8309286Y-14884190D02*
X8271190Y-14884190D01*
X8271190Y-14884190D02*
X8252143Y-14893714D01*
X8337857Y-15008000D02*
X8318809Y-15017524D01*
X8318809Y-15017524D02*
X8271190Y-15017524D01*
X8271190Y-15017524D02*
X8252143Y-15008000D01*
X8252143Y-15008000D02*
X8242619Y-14988952D01*
X8242619Y-14988952D02*
X8242619Y-14969905D01*
X8242619Y-14969905D02*
X8252143Y-14950857D01*
X8252143Y-14950857D02*
X8271190Y-14941333D01*
X8271190Y-14941333D02*
X8318809Y-14941333D01*
X8318809Y-14941333D02*
X8337857Y-14931809D01*
X8433095Y-14884190D02*
X8433095Y-15084190D01*
X8433095Y-14893714D02*
X8452143Y-14884190D01*
X8452143Y-14884190D02*
X8490238Y-14884190D01*
X8490238Y-14884190D02*
X8509286Y-14893714D01*
X8509286Y-14893714D02*
X8518810Y-14903238D01*
X8518810Y-14903238D02*
X8528333Y-14922286D01*
X8528333Y-14922286D02*
X8528333Y-14979428D01*
X8528333Y-14979428D02*
X8518810Y-14998476D01*
X8518810Y-14998476D02*
X8509286Y-15008000D01*
X8509286Y-15008000D02*
X8490238Y-15017524D01*
X8490238Y-15017524D02*
X8452143Y-15017524D01*
X8452143Y-15017524D02*
X8433095Y-15008000D01*
X8614048Y-14998476D02*
X8623571Y-15008000D01*
X8623571Y-15008000D02*
X8614048Y-15017524D01*
X8614048Y-15017524D02*
X8604524Y-15008000D01*
X8604524Y-15008000D02*
X8614048Y-14998476D01*
X8614048Y-14998476D02*
X8614048Y-15017524D01*
X8614048Y-14893714D02*
X8623571Y-14903238D01*
X8623571Y-14903238D02*
X8614048Y-14912762D01*
X8614048Y-14912762D02*
X8604524Y-14903238D01*
X8604524Y-14903238D02*
X8614048Y-14893714D01*
X8614048Y-14893714D02*
X8614048Y-14912762D01*
M02*
