G04 #@! TF.GenerationSoftware,KiCad,Pcbnew,7.0.1-0*
G04 #@! TF.CreationDate,2023-03-19T01:34:27-04:00*
G04 #@! TF.ProjectId,bottom-adapter,626f7474-6f6d-42d6-9164-61707465722e,3*
G04 #@! TF.SameCoordinates,Original*
G04 #@! TF.FileFunction,Copper,L2,Bot*
G04 #@! TF.FilePolarity,Positive*
%FSLAX46Y46*%
G04 Gerber Fmt 4.6, Leading zero omitted, Abs format (unit mm)*
G04 Created by KiCad (PCBNEW 7.0.1-0) date 2023-03-19 01:34:27*
%MOMM*%
%LPD*%
G01*
G04 APERTURE LIST*
G04 #@! TA.AperFunction,ComponentPad*
%ADD10C,5.500000*%
G04 #@! TD*
G04 #@! TA.AperFunction,ComponentPad*
%ADD11R,2.000000X2.000000*%
G04 #@! TD*
G04 #@! TA.AperFunction,ComponentPad*
%ADD12C,4.300000*%
G04 #@! TD*
G04 #@! TA.AperFunction,SMDPad,CuDef*
%ADD13R,1.350000X2.899999*%
G04 #@! TD*
G04 #@! TA.AperFunction,SMDPad,CuDef*
%ADD14R,1.100000X1.450000*%
G04 #@! TD*
G04 #@! TA.AperFunction,ViaPad*
%ADD15C,0.800000*%
G04 #@! TD*
G04 APERTURE END LIST*
D10*
X163450000Y-143450000D03*
D11*
X121400000Y-95500000D03*
D12*
X161364000Y-58495000D03*
D11*
X116300000Y-101600000D03*
D10*
X73550000Y-53550000D03*
D12*
X161364000Y-138505000D03*
X75639000Y-134695000D03*
X75639000Y-61035000D03*
D10*
X73550000Y-143450000D03*
D11*
X121300000Y-101600000D03*
D10*
X163450000Y-53550000D03*
D11*
X116300000Y-95500000D03*
D13*
X148705003Y-100874999D03*
X156494998Y-100874999D03*
D14*
X151599999Y-94900000D03*
X153600000Y-94900000D03*
D15*
X118700000Y-104000000D03*
X113700000Y-104000000D03*
X121300000Y-103900000D03*
X113700000Y-102800000D03*
X118700000Y-102800000D03*
X123900000Y-104000000D03*
X116300000Y-104000000D03*
X123800000Y-102800000D03*
G04 #@! TA.AperFunction,Conductor*
G36*
X77949200Y-50013978D02*
G01*
X77986022Y-50050800D01*
X77999500Y-50101100D01*
X77999500Y-50499500D01*
X77999500Y-50500000D01*
X77999500Y-50587532D01*
X78026958Y-50743260D01*
X78029900Y-50759941D01*
X78089773Y-50924442D01*
X78089775Y-50924445D01*
X78177308Y-51076055D01*
X78289837Y-51210163D01*
X78423945Y-51322692D01*
X78575555Y-51410225D01*
X78575557Y-51410226D01*
X78630390Y-51430183D01*
X78740062Y-51470101D01*
X78912468Y-51500500D01*
X78999901Y-51500500D01*
X79000000Y-51500500D01*
X79000500Y-51500500D01*
X85895610Y-51500500D01*
X85904376Y-51500883D01*
X85911103Y-51501471D01*
X85944991Y-51504436D01*
X85945800Y-51504511D01*
X86073691Y-51517107D01*
X86089829Y-51520044D01*
X86156789Y-51537985D01*
X86159887Y-51538870D01*
X86253149Y-51567161D01*
X86266458Y-51572252D01*
X86334461Y-51603963D01*
X86339302Y-51606383D01*
X86420289Y-51649671D01*
X86430560Y-51655982D01*
X86493626Y-51700142D01*
X86499744Y-51704783D01*
X86569342Y-51761900D01*
X86576657Y-51768530D01*
X86631468Y-51823341D01*
X86638098Y-51830656D01*
X86695215Y-51900254D01*
X86699856Y-51906372D01*
X86744016Y-51969438D01*
X86750331Y-51979717D01*
X86793598Y-52060663D01*
X86796052Y-52065571D01*
X86827744Y-52133536D01*
X86832837Y-52146849D01*
X86861123Y-52240096D01*
X86862027Y-52243260D01*
X86879950Y-52310147D01*
X86882894Y-52326325D01*
X86895472Y-52454042D01*
X86895573Y-52455130D01*
X86899117Y-52495621D01*
X86899500Y-52504393D01*
X86899500Y-55287530D01*
X86929900Y-55459941D01*
X86989773Y-55624442D01*
X86989775Y-55624445D01*
X87077308Y-55776055D01*
X87189837Y-55910163D01*
X87323945Y-56022692D01*
X87475555Y-56110225D01*
X87475557Y-56110226D01*
X87525548Y-56128421D01*
X87640062Y-56170101D01*
X87812468Y-56200500D01*
X87899901Y-56200500D01*
X87900000Y-56200500D01*
X87900500Y-56200500D01*
X149099500Y-56200500D01*
X149100099Y-56200500D01*
X149187530Y-56200500D01*
X149187532Y-56200500D01*
X149359938Y-56170101D01*
X149524445Y-56110225D01*
X149676055Y-56022692D01*
X149810163Y-55910163D01*
X149922692Y-55776055D01*
X150010225Y-55624445D01*
X150070101Y-55459938D01*
X150100500Y-55287532D01*
X150100500Y-55200000D01*
X150100500Y-55199500D01*
X150100500Y-52504390D01*
X150100883Y-52495624D01*
X150101370Y-52490053D01*
X150104440Y-52454964D01*
X150104508Y-52454229D01*
X150117107Y-52326303D01*
X150120042Y-52310174D01*
X150137994Y-52243177D01*
X150138860Y-52240145D01*
X150167164Y-52146840D01*
X150172248Y-52133550D01*
X150203977Y-52065508D01*
X150206368Y-52060726D01*
X150249680Y-51979695D01*
X150255976Y-51969447D01*
X150300144Y-51906368D01*
X150304767Y-51900274D01*
X150361918Y-51830635D01*
X150368510Y-51823362D01*
X150423362Y-51768510D01*
X150430635Y-51761918D01*
X150500274Y-51704767D01*
X150506372Y-51700142D01*
X150569447Y-51655976D01*
X150579695Y-51649680D01*
X150660726Y-51606368D01*
X150665508Y-51603977D01*
X150733550Y-51572248D01*
X150746840Y-51567164D01*
X150840145Y-51538860D01*
X150843177Y-51537994D01*
X150910174Y-51520042D01*
X150926303Y-51517107D01*
X151054229Y-51504508D01*
X151054964Y-51504440D01*
X151090053Y-51501370D01*
X151095624Y-51500883D01*
X151104390Y-51500500D01*
X158087530Y-51500500D01*
X158087532Y-51500500D01*
X158259938Y-51470101D01*
X158424445Y-51410225D01*
X158576055Y-51322692D01*
X158710163Y-51210163D01*
X158822692Y-51076055D01*
X158910225Y-50924445D01*
X158970101Y-50759938D01*
X159000500Y-50587532D01*
X159000500Y-50500000D01*
X159000500Y-50499500D01*
X159000500Y-50101100D01*
X159013978Y-50050800D01*
X159050800Y-50013978D01*
X159101100Y-50000500D01*
X165995610Y-50000500D01*
X166004376Y-50000883D01*
X166011103Y-50001471D01*
X166044991Y-50004436D01*
X166045800Y-50004511D01*
X166173691Y-50017107D01*
X166189829Y-50020044D01*
X166256789Y-50037985D01*
X166259887Y-50038870D01*
X166353149Y-50067161D01*
X166366458Y-50072252D01*
X166434461Y-50103963D01*
X166439302Y-50106383D01*
X166520289Y-50149671D01*
X166530560Y-50155982D01*
X166593626Y-50200142D01*
X166599744Y-50204783D01*
X166669342Y-50261900D01*
X166676657Y-50268530D01*
X166731468Y-50323341D01*
X166738098Y-50330656D01*
X166795215Y-50400254D01*
X166799856Y-50406372D01*
X166844016Y-50469438D01*
X166850331Y-50479717D01*
X166893598Y-50560663D01*
X166896052Y-50565571D01*
X166927744Y-50633536D01*
X166932837Y-50646849D01*
X166961123Y-50740096D01*
X166962027Y-50743260D01*
X166979950Y-50810147D01*
X166982894Y-50826325D01*
X166995472Y-50954042D01*
X166995573Y-50955130D01*
X166999117Y-50995621D01*
X166999500Y-51004393D01*
X166999500Y-57898900D01*
X166986022Y-57949200D01*
X166949200Y-57986022D01*
X166898900Y-57999500D01*
X166500500Y-57999500D01*
X166500000Y-57999500D01*
X166412468Y-57999500D01*
X166240062Y-58029899D01*
X166240060Y-58029899D01*
X166240058Y-58029900D01*
X166075557Y-58089773D01*
X165923945Y-58177308D01*
X165789837Y-58289837D01*
X165677308Y-58423945D01*
X165589773Y-58575557D01*
X165555974Y-58668421D01*
X165529899Y-58740062D01*
X165509626Y-58855043D01*
X165499500Y-58912470D01*
X165499500Y-65895607D01*
X165499117Y-65904379D01*
X165495573Y-65944868D01*
X165495472Y-65945956D01*
X165482894Y-66073673D01*
X165479950Y-66089851D01*
X165462027Y-66156738D01*
X165461123Y-66159902D01*
X165432837Y-66253149D01*
X165427744Y-66266462D01*
X165396052Y-66334427D01*
X165393598Y-66339335D01*
X165350331Y-66420281D01*
X165344016Y-66430560D01*
X165299856Y-66493626D01*
X165295215Y-66499744D01*
X165238098Y-66569342D01*
X165231468Y-66576657D01*
X165176657Y-66631468D01*
X165169342Y-66638098D01*
X165099744Y-66695215D01*
X165093626Y-66699856D01*
X165030560Y-66744016D01*
X165020281Y-66750331D01*
X164939335Y-66793598D01*
X164934427Y-66796052D01*
X164866462Y-66827744D01*
X164853149Y-66832837D01*
X164759902Y-66861123D01*
X164756738Y-66862027D01*
X164689851Y-66879950D01*
X164673673Y-66882894D01*
X164545956Y-66895472D01*
X164544868Y-66895573D01*
X164507511Y-66898842D01*
X164504376Y-66899117D01*
X164495607Y-66899500D01*
X161800500Y-66899500D01*
X161800000Y-66899500D01*
X161712468Y-66899500D01*
X161540062Y-66929899D01*
X161540060Y-66929899D01*
X161540058Y-66929900D01*
X161375557Y-66989773D01*
X161223945Y-67077308D01*
X161089837Y-67189837D01*
X160977308Y-67323945D01*
X160889773Y-67475557D01*
X160829900Y-67640058D01*
X160799500Y-67812470D01*
X160799500Y-129187530D01*
X160829900Y-129359941D01*
X160889773Y-129524442D01*
X160889775Y-129524445D01*
X160977308Y-129676055D01*
X161089837Y-129810163D01*
X161223945Y-129922692D01*
X161375555Y-130010225D01*
X161375557Y-130010226D01*
X161430390Y-130030183D01*
X161540062Y-130070101D01*
X161712468Y-130100500D01*
X161799901Y-130100500D01*
X161800000Y-130100500D01*
X161800500Y-130100500D01*
X164495610Y-130100500D01*
X164504376Y-130100883D01*
X164511103Y-130101471D01*
X164544991Y-130104436D01*
X164545800Y-130104511D01*
X164673691Y-130117107D01*
X164689829Y-130120044D01*
X164756789Y-130137985D01*
X164759887Y-130138870D01*
X164853149Y-130167161D01*
X164866458Y-130172252D01*
X164934461Y-130203963D01*
X164939302Y-130206383D01*
X165020289Y-130249671D01*
X165030560Y-130255982D01*
X165093626Y-130300142D01*
X165099744Y-130304783D01*
X165169342Y-130361900D01*
X165176657Y-130368530D01*
X165231468Y-130423341D01*
X165238098Y-130430656D01*
X165295215Y-130500254D01*
X165299856Y-130506372D01*
X165344016Y-130569438D01*
X165350331Y-130579717D01*
X165393598Y-130660663D01*
X165396052Y-130665571D01*
X165427744Y-130733536D01*
X165432837Y-130746849D01*
X165461123Y-130840096D01*
X165462027Y-130843260D01*
X165479950Y-130910147D01*
X165482894Y-130926325D01*
X165495472Y-131054042D01*
X165495573Y-131055130D01*
X165499117Y-131095621D01*
X165499500Y-131104393D01*
X165499500Y-138087530D01*
X165529900Y-138259941D01*
X165589773Y-138424442D01*
X165589775Y-138424445D01*
X165677308Y-138576055D01*
X165789837Y-138710163D01*
X165923945Y-138822692D01*
X166075555Y-138910225D01*
X166075557Y-138910226D01*
X166130390Y-138930183D01*
X166240062Y-138970101D01*
X166412468Y-139000500D01*
X166499901Y-139000500D01*
X166500000Y-139000500D01*
X166500500Y-139000500D01*
X166898900Y-139000500D01*
X166949200Y-139013978D01*
X166986022Y-139050800D01*
X166999500Y-139101100D01*
X166999500Y-145995607D01*
X166999117Y-146004379D01*
X166995573Y-146044868D01*
X166995472Y-146045956D01*
X166982894Y-146173673D01*
X166979950Y-146189851D01*
X166962027Y-146256738D01*
X166961123Y-146259902D01*
X166932837Y-146353149D01*
X166927744Y-146366462D01*
X166896052Y-146434427D01*
X166893598Y-146439335D01*
X166850331Y-146520281D01*
X166844016Y-146530560D01*
X166799856Y-146593626D01*
X166795215Y-146599744D01*
X166738098Y-146669342D01*
X166731468Y-146676657D01*
X166676657Y-146731468D01*
X166669342Y-146738098D01*
X166599744Y-146795215D01*
X166593626Y-146799856D01*
X166530560Y-146844016D01*
X166520281Y-146850331D01*
X166439335Y-146893598D01*
X166434427Y-146896052D01*
X166366462Y-146927744D01*
X166353149Y-146932837D01*
X166259902Y-146961123D01*
X166256738Y-146962027D01*
X166189851Y-146979950D01*
X166173673Y-146982894D01*
X166045956Y-146995472D01*
X166044868Y-146995573D01*
X166007511Y-146998842D01*
X166004376Y-146999117D01*
X165995607Y-146999500D01*
X159101100Y-146999500D01*
X159050800Y-146986022D01*
X159013978Y-146949200D01*
X159000500Y-146898900D01*
X159000500Y-146412470D01*
X158992388Y-146366462D01*
X158970101Y-146240062D01*
X158930183Y-146130390D01*
X158910226Y-146075557D01*
X158910225Y-146075555D01*
X158822692Y-145923945D01*
X158710163Y-145789837D01*
X158576055Y-145677308D01*
X158424445Y-145589775D01*
X158424446Y-145589775D01*
X158424442Y-145589773D01*
X158259941Y-145529900D01*
X158259940Y-145529899D01*
X158259938Y-145529899D01*
X158087532Y-145499500D01*
X158087530Y-145499500D01*
X151104393Y-145499500D01*
X151095623Y-145499117D01*
X151092099Y-145498808D01*
X151055130Y-145495573D01*
X151054042Y-145495472D01*
X150926325Y-145482894D01*
X150910151Y-145479950D01*
X150873391Y-145470101D01*
X150843260Y-145462027D01*
X150840096Y-145461123D01*
X150746849Y-145432837D01*
X150733536Y-145427744D01*
X150665571Y-145396052D01*
X150660663Y-145393598D01*
X150643694Y-145384528D01*
X150629056Y-145376703D01*
X150579717Y-145350331D01*
X150569438Y-145344016D01*
X150506372Y-145299856D01*
X150500254Y-145295215D01*
X150430656Y-145238098D01*
X150423341Y-145231468D01*
X150368530Y-145176657D01*
X150361900Y-145169342D01*
X150304783Y-145099744D01*
X150300142Y-145093626D01*
X150255982Y-145030560D01*
X150249671Y-145020289D01*
X150206383Y-144939302D01*
X150203963Y-144934461D01*
X150172252Y-144866458D01*
X150167161Y-144853149D01*
X150138875Y-144759902D01*
X150137985Y-144756788D01*
X150120044Y-144689829D01*
X150117107Y-144673691D01*
X150104511Y-144545800D01*
X150104436Y-144544991D01*
X150100883Y-144504376D01*
X150100500Y-144495610D01*
X150100500Y-141712470D01*
X150100500Y-141712468D01*
X150070101Y-141540062D01*
X150010225Y-141375555D01*
X149922692Y-141223945D01*
X149810163Y-141089837D01*
X149676055Y-140977308D01*
X149524445Y-140889775D01*
X149524446Y-140889775D01*
X149524442Y-140889773D01*
X149359941Y-140829900D01*
X149359940Y-140829899D01*
X149359938Y-140829899D01*
X149187532Y-140799500D01*
X149100099Y-140799500D01*
X87900500Y-140799500D01*
X87900000Y-140799500D01*
X87812468Y-140799500D01*
X87640062Y-140829899D01*
X87640060Y-140829899D01*
X87640058Y-140829900D01*
X87475557Y-140889773D01*
X87323945Y-140977308D01*
X87189837Y-141089837D01*
X87077308Y-141223945D01*
X86989773Y-141375557D01*
X86929900Y-141540058D01*
X86899500Y-141712470D01*
X86899500Y-144495607D01*
X86899117Y-144504379D01*
X86895573Y-144544868D01*
X86895472Y-144545956D01*
X86882894Y-144673673D01*
X86879950Y-144689851D01*
X86862027Y-144756738D01*
X86861123Y-144759902D01*
X86832837Y-144853149D01*
X86827744Y-144866462D01*
X86796052Y-144934427D01*
X86793598Y-144939335D01*
X86750331Y-145020281D01*
X86744016Y-145030560D01*
X86699856Y-145093626D01*
X86695215Y-145099744D01*
X86638098Y-145169342D01*
X86631468Y-145176657D01*
X86576657Y-145231468D01*
X86569342Y-145238098D01*
X86499744Y-145295215D01*
X86493626Y-145299856D01*
X86430560Y-145344016D01*
X86420281Y-145350331D01*
X86339335Y-145393598D01*
X86334427Y-145396052D01*
X86266462Y-145427744D01*
X86253149Y-145432837D01*
X86159902Y-145461123D01*
X86156738Y-145462027D01*
X86089851Y-145479950D01*
X86073673Y-145482894D01*
X85945956Y-145495472D01*
X85944868Y-145495573D01*
X85907511Y-145498842D01*
X85904376Y-145499117D01*
X85895607Y-145499500D01*
X79000500Y-145499500D01*
X79000000Y-145499500D01*
X78912468Y-145499500D01*
X78740062Y-145529899D01*
X78740060Y-145529899D01*
X78740058Y-145529900D01*
X78575557Y-145589773D01*
X78423945Y-145677308D01*
X78289837Y-145789837D01*
X78177308Y-145923945D01*
X78089773Y-146075557D01*
X78029900Y-146240058D01*
X78029899Y-146240062D01*
X78009960Y-146353149D01*
X77999500Y-146412470D01*
X77999500Y-146898900D01*
X77986022Y-146949200D01*
X77949200Y-146986022D01*
X77898900Y-146999500D01*
X71004393Y-146999500D01*
X70995623Y-146999117D01*
X70992099Y-146998808D01*
X70955130Y-146995573D01*
X70954042Y-146995472D01*
X70826325Y-146982894D01*
X70810151Y-146979950D01*
X70773391Y-146970101D01*
X70743260Y-146962027D01*
X70740096Y-146961123D01*
X70646849Y-146932837D01*
X70633536Y-146927744D01*
X70565571Y-146896052D01*
X70560663Y-146893598D01*
X70479717Y-146850331D01*
X70469438Y-146844016D01*
X70406372Y-146799856D01*
X70400254Y-146795215D01*
X70330656Y-146738098D01*
X70323341Y-146731468D01*
X70268530Y-146676657D01*
X70261900Y-146669342D01*
X70204783Y-146599744D01*
X70200142Y-146593626D01*
X70155982Y-146530560D01*
X70149671Y-146520289D01*
X70106383Y-146439302D01*
X70103963Y-146434461D01*
X70072252Y-146366458D01*
X70067161Y-146353149D01*
X70038875Y-146259902D01*
X70037985Y-146256788D01*
X70020044Y-146189829D01*
X70017107Y-146173691D01*
X70004511Y-146045800D01*
X70004436Y-146044991D01*
X70000883Y-146004376D01*
X70000500Y-145995610D01*
X70000500Y-143450000D01*
X70540408Y-143450000D01*
X70560758Y-143799392D01*
X70621532Y-144144060D01*
X70721909Y-144479341D01*
X70860530Y-144800702D01*
X71035523Y-145103798D01*
X71244519Y-145384528D01*
X71484696Y-145639101D01*
X71752792Y-145864061D01*
X71752796Y-145864064D01*
X71843841Y-145923945D01*
X72045208Y-146056386D01*
X72357959Y-146213455D01*
X72357962Y-146213456D01*
X72686839Y-146333158D01*
X72771188Y-146353149D01*
X73027385Y-146413869D01*
X73027386Y-146413869D01*
X73027390Y-146413870D01*
X73375008Y-146454500D01*
X73724990Y-146454500D01*
X73724992Y-146454500D01*
X74072610Y-146413870D01*
X74413161Y-146333158D01*
X74742038Y-146213456D01*
X74742040Y-146213455D01*
X75054791Y-146056386D01*
X75054796Y-146056383D01*
X75347204Y-145864064D01*
X75615307Y-145639098D01*
X75855481Y-145384528D01*
X76064477Y-145103798D01*
X76239470Y-144800702D01*
X76378091Y-144479341D01*
X76478468Y-144144060D01*
X76539242Y-143799392D01*
X76559592Y-143450000D01*
X76539242Y-143100608D01*
X76478468Y-142755940D01*
X76378091Y-142420659D01*
X76239470Y-142099298D01*
X76064477Y-141796202D01*
X75855481Y-141515472D01*
X75615307Y-141260902D01*
X75615305Y-141260901D01*
X75615303Y-141260898D01*
X75347207Y-141035938D01*
X75054791Y-140843613D01*
X74742040Y-140686544D01*
X74413159Y-140566841D01*
X74072614Y-140486130D01*
X73840864Y-140459043D01*
X73724992Y-140445500D01*
X73375008Y-140445500D01*
X73275688Y-140457108D01*
X73027385Y-140486130D01*
X72686840Y-140566841D01*
X72357959Y-140686544D01*
X72045208Y-140843613D01*
X71752792Y-141035938D01*
X71484696Y-141260898D01*
X71244519Y-141515471D01*
X71035521Y-141796205D01*
X70860531Y-142099295D01*
X70721909Y-142420658D01*
X70621532Y-142755938D01*
X70621532Y-142755940D01*
X70560758Y-143100608D01*
X70540408Y-143450000D01*
X70000500Y-143450000D01*
X70000500Y-139101100D01*
X70013978Y-139050800D01*
X70050800Y-139013978D01*
X70101100Y-139000500D01*
X70587530Y-139000500D01*
X70587532Y-139000500D01*
X70759938Y-138970101D01*
X70924445Y-138910225D01*
X71076055Y-138822692D01*
X71210163Y-138710163D01*
X71322692Y-138576055D01*
X71363716Y-138505000D01*
X158954745Y-138505000D01*
X158973743Y-138806957D01*
X159030437Y-139104158D01*
X159123929Y-139391899D01*
X159252758Y-139665673D01*
X159414869Y-139921118D01*
X159414873Y-139921124D01*
X159583827Y-140125355D01*
X159607733Y-140154253D01*
X159828281Y-140361360D01*
X159828284Y-140361362D01*
X160073057Y-140539200D01*
X160338190Y-140684958D01*
X160619500Y-140796337D01*
X160912551Y-140871579D01*
X161212722Y-140909500D01*
X161515267Y-140909500D01*
X161515278Y-140909500D01*
X161515430Y-140909480D01*
X161515577Y-140909500D01*
X161521607Y-140909500D01*
X161521607Y-140910295D01*
X161566114Y-140916164D01*
X161606971Y-140946900D01*
X161627443Y-140993749D01*
X161622244Y-141044611D01*
X161592715Y-141086349D01*
X161384692Y-141260902D01*
X161144519Y-141515471D01*
X160935521Y-141796205D01*
X160760531Y-142099295D01*
X160621909Y-142420658D01*
X160521532Y-142755938D01*
X160521532Y-142755940D01*
X160460758Y-143100608D01*
X160440408Y-143450000D01*
X160460758Y-143799392D01*
X160521532Y-144144060D01*
X160621909Y-144479341D01*
X160760530Y-144800702D01*
X160935523Y-145103798D01*
X161144519Y-145384528D01*
X161384696Y-145639101D01*
X161652792Y-145864061D01*
X161652796Y-145864064D01*
X161743841Y-145923945D01*
X161945208Y-146056386D01*
X162257959Y-146213455D01*
X162257962Y-146213456D01*
X162586839Y-146333158D01*
X162671188Y-146353149D01*
X162927385Y-146413869D01*
X162927386Y-146413869D01*
X162927390Y-146413870D01*
X163275008Y-146454500D01*
X163624990Y-146454500D01*
X163624992Y-146454500D01*
X163972610Y-146413870D01*
X164313161Y-146333158D01*
X164642038Y-146213456D01*
X164642040Y-146213455D01*
X164954791Y-146056386D01*
X164954796Y-146056383D01*
X165247204Y-145864064D01*
X165515307Y-145639098D01*
X165755481Y-145384528D01*
X165964477Y-145103798D01*
X166139470Y-144800702D01*
X166278091Y-144479341D01*
X166378468Y-144144060D01*
X166439242Y-143799392D01*
X166459592Y-143450000D01*
X166439242Y-143100608D01*
X166378468Y-142755940D01*
X166278091Y-142420659D01*
X166139470Y-142099298D01*
X165964477Y-141796202D01*
X165755481Y-141515472D01*
X165515307Y-141260902D01*
X165515305Y-141260901D01*
X165515303Y-141260898D01*
X165247207Y-141035938D01*
X164954791Y-140843613D01*
X164642040Y-140686544D01*
X164313159Y-140566841D01*
X163972614Y-140486130D01*
X163740864Y-140459043D01*
X163624992Y-140445500D01*
X163275008Y-140445500D01*
X163150309Y-140460075D01*
X163046749Y-140472179D01*
X162985991Y-140460075D01*
X162943846Y-140414668D01*
X162936296Y-140353178D01*
X162966203Y-140298925D01*
X163120271Y-140154248D01*
X163313127Y-139921124D01*
X163475245Y-139665667D01*
X163604068Y-139391906D01*
X163697563Y-139104157D01*
X163754256Y-138806960D01*
X163773254Y-138505000D01*
X163754256Y-138203040D01*
X163697563Y-137905843D01*
X163604068Y-137618094D01*
X163475245Y-137344333D01*
X163313127Y-137088876D01*
X163120271Y-136855752D01*
X163120270Y-136855751D01*
X163120266Y-136855746D01*
X162899718Y-136648639D01*
X162654943Y-136470800D01*
X162389813Y-136325043D01*
X162323099Y-136298629D01*
X162108500Y-136213663D01*
X161815449Y-136138421D01*
X161515278Y-136100500D01*
X161212722Y-136100500D01*
X160912551Y-136138421D01*
X160619500Y-136213663D01*
X160545555Y-136242940D01*
X160338186Y-136325043D01*
X160073056Y-136470800D01*
X159828281Y-136648639D01*
X159607733Y-136855746D01*
X159414869Y-137088881D01*
X159252758Y-137344326D01*
X159123929Y-137618100D01*
X159030437Y-137905841D01*
X158973743Y-138203042D01*
X158954745Y-138505000D01*
X71363716Y-138505000D01*
X71410225Y-138424445D01*
X71470101Y-138259938D01*
X71500500Y-138087532D01*
X71500500Y-138000000D01*
X71500500Y-137999500D01*
X71500500Y-134694999D01*
X73229745Y-134694999D01*
X73248743Y-134996957D01*
X73305437Y-135294158D01*
X73398929Y-135581899D01*
X73527758Y-135855673D01*
X73683131Y-136100500D01*
X73689873Y-136111124D01*
X73858827Y-136315355D01*
X73882733Y-136344253D01*
X74103281Y-136551360D01*
X74103284Y-136551362D01*
X74348057Y-136729200D01*
X74613190Y-136874958D01*
X74894500Y-136986337D01*
X75187551Y-137061579D01*
X75487722Y-137099500D01*
X75790275Y-137099500D01*
X75790278Y-137099500D01*
X76090449Y-137061579D01*
X76383500Y-136986337D01*
X76664810Y-136874958D01*
X76929943Y-136729200D01*
X77174716Y-136551362D01*
X77395271Y-136344248D01*
X77588127Y-136111124D01*
X77750245Y-135855667D01*
X77879068Y-135581906D01*
X77972563Y-135294157D01*
X78029256Y-134996960D01*
X78048254Y-134695000D01*
X78029256Y-134393040D01*
X77972563Y-134095843D01*
X77879068Y-133808094D01*
X77750245Y-133534333D01*
X77588127Y-133278876D01*
X77395271Y-133045752D01*
X77395270Y-133045751D01*
X77395266Y-133045746D01*
X77174718Y-132838639D01*
X76929943Y-132660800D01*
X76664813Y-132515043D01*
X76598099Y-132488629D01*
X76383500Y-132403663D01*
X76090449Y-132328421D01*
X75790278Y-132290500D01*
X75487722Y-132290500D01*
X75187551Y-132328421D01*
X74894500Y-132403663D01*
X74820555Y-132432939D01*
X74613186Y-132515043D01*
X74348056Y-132660800D01*
X74103281Y-132838639D01*
X73882733Y-133045746D01*
X73689869Y-133278881D01*
X73527758Y-133534326D01*
X73398929Y-133808100D01*
X73305437Y-134095841D01*
X73248743Y-134393042D01*
X73229745Y-134694999D01*
X71500500Y-134694999D01*
X71500500Y-131104390D01*
X71500883Y-131095624D01*
X71501370Y-131090053D01*
X71504440Y-131054964D01*
X71504508Y-131054229D01*
X71517107Y-130926303D01*
X71520042Y-130910174D01*
X71537994Y-130843177D01*
X71538860Y-130840145D01*
X71567164Y-130746840D01*
X71572248Y-130733550D01*
X71603977Y-130665508D01*
X71606368Y-130660726D01*
X71649680Y-130579695D01*
X71655976Y-130569447D01*
X71700144Y-130506368D01*
X71704767Y-130500274D01*
X71761918Y-130430635D01*
X71768510Y-130423362D01*
X71823362Y-130368510D01*
X71830635Y-130361918D01*
X71900274Y-130304767D01*
X71906372Y-130300142D01*
X71969447Y-130255976D01*
X71979695Y-130249680D01*
X72060726Y-130206368D01*
X72065508Y-130203977D01*
X72133550Y-130172248D01*
X72146840Y-130167164D01*
X72240145Y-130138860D01*
X72243177Y-130137994D01*
X72310174Y-130120042D01*
X72326303Y-130117107D01*
X72454229Y-130104508D01*
X72454964Y-130104440D01*
X72490053Y-130101370D01*
X72495624Y-130100883D01*
X72504390Y-130100500D01*
X75287530Y-130100500D01*
X75287532Y-130100500D01*
X75459938Y-130070101D01*
X75624445Y-130010225D01*
X75776055Y-129922692D01*
X75910163Y-129810163D01*
X76022692Y-129676055D01*
X76110225Y-129524445D01*
X76170101Y-129359938D01*
X76200500Y-129187532D01*
X76200500Y-129100000D01*
X76200500Y-129099500D01*
X76200500Y-101854000D01*
X115046001Y-101854000D01*
X115046001Y-102625018D01*
X115060736Y-102699105D01*
X115116875Y-102783124D01*
X115200893Y-102839262D01*
X115274983Y-102854000D01*
X116046000Y-102854000D01*
X116046000Y-101854000D01*
X116554000Y-101854000D01*
X116554000Y-102853999D01*
X117325018Y-102853999D01*
X117399105Y-102839263D01*
X117483124Y-102783124D01*
X117539262Y-102699106D01*
X117554000Y-102625017D01*
X117554000Y-101854000D01*
X120046001Y-101854000D01*
X120046001Y-102625018D01*
X120060736Y-102699105D01*
X120116875Y-102783124D01*
X120200893Y-102839262D01*
X120274983Y-102854000D01*
X121046000Y-102854000D01*
X121046000Y-101854000D01*
X121554000Y-101854000D01*
X121554000Y-102853999D01*
X122325018Y-102853999D01*
X122399105Y-102839263D01*
X122483124Y-102783124D01*
X122539262Y-102699106D01*
X122554000Y-102625017D01*
X122554000Y-102350066D01*
X147775503Y-102350066D01*
X147790267Y-102424298D01*
X147812706Y-102457879D01*
X147846519Y-102508483D01*
X147930702Y-102564733D01*
X148004936Y-102579499D01*
X149405069Y-102579498D01*
X149405070Y-102579498D01*
X149479302Y-102564734D01*
X149479303Y-102564733D01*
X149479304Y-102564733D01*
X149563487Y-102508483D01*
X149619737Y-102424300D01*
X149634503Y-102350066D01*
X155565498Y-102350066D01*
X155580262Y-102424298D01*
X155602701Y-102457879D01*
X155636514Y-102508483D01*
X155720697Y-102564733D01*
X155794931Y-102579499D01*
X157195064Y-102579498D01*
X157195065Y-102579498D01*
X157269297Y-102564734D01*
X157269298Y-102564733D01*
X157269299Y-102564733D01*
X157353482Y-102508483D01*
X157409732Y-102424300D01*
X157424498Y-102350066D01*
X157424497Y-99399933D01*
X157424497Y-99399931D01*
X157409733Y-99325699D01*
X157398513Y-99308908D01*
X157353482Y-99241515D01*
X157269299Y-99185265D01*
X157195064Y-99170499D01*
X155794930Y-99170499D01*
X155720698Y-99185263D01*
X155653303Y-99230296D01*
X155636516Y-99241514D01*
X155636513Y-99241516D01*
X155580264Y-99325697D01*
X155565498Y-99399932D01*
X155565498Y-102350066D01*
X149634503Y-102350066D01*
X149634502Y-99399933D01*
X149634502Y-99399931D01*
X149619738Y-99325699D01*
X149608518Y-99308908D01*
X149563487Y-99241515D01*
X149479304Y-99185265D01*
X149405069Y-99170499D01*
X148004935Y-99170499D01*
X147930703Y-99185263D01*
X147863308Y-99230296D01*
X147846521Y-99241514D01*
X147846518Y-99241516D01*
X147790269Y-99325697D01*
X147775503Y-99399932D01*
X147775503Y-102350066D01*
X122554000Y-102350066D01*
X122554000Y-101854000D01*
X121554000Y-101854000D01*
X121046000Y-101854000D01*
X120046001Y-101854000D01*
X117554000Y-101854000D01*
X116554000Y-101854000D01*
X116046000Y-101854000D01*
X115046001Y-101854000D01*
X76200500Y-101854000D01*
X76200500Y-101346000D01*
X115046000Y-101346000D01*
X116046000Y-101346000D01*
X116046000Y-100346001D01*
X115274982Y-100346001D01*
X115200894Y-100360736D01*
X115116875Y-100416875D01*
X115060737Y-100500893D01*
X115046000Y-100574983D01*
X115046000Y-101346000D01*
X76200500Y-101346000D01*
X76200500Y-100346000D01*
X116554000Y-100346000D01*
X116554000Y-101346000D01*
X117553999Y-101346000D01*
X120046000Y-101346000D01*
X121046000Y-101346000D01*
X121046000Y-100346001D01*
X120274982Y-100346001D01*
X120200894Y-100360736D01*
X120116875Y-100416875D01*
X120060737Y-100500893D01*
X120046000Y-100574983D01*
X120046000Y-101346000D01*
X117553999Y-101346000D01*
X117553999Y-100574982D01*
X117539263Y-100500894D01*
X117483124Y-100416875D01*
X117399106Y-100360737D01*
X117325017Y-100346000D01*
X121554000Y-100346000D01*
X121554000Y-101346000D01*
X122553999Y-101346000D01*
X122553999Y-100574982D01*
X122539263Y-100500894D01*
X122483124Y-100416875D01*
X122399106Y-100360737D01*
X122325017Y-100346000D01*
X121554000Y-100346000D01*
X117325017Y-100346000D01*
X116554000Y-100346000D01*
X76200500Y-100346000D01*
X76200500Y-97774003D01*
X109940500Y-97774003D01*
X109949340Y-97841159D01*
X109961349Y-97885974D01*
X109966208Y-97904109D01*
X109966223Y-97904163D01*
X109992147Y-97966749D01*
X109992148Y-97966750D01*
X110033387Y-98020494D01*
X110079464Y-98066571D01*
X110079509Y-98066616D01*
X110133249Y-98107852D01*
X110195839Y-98133778D01*
X110258835Y-98150657D01*
X110282838Y-98153816D01*
X110325999Y-98159499D01*
X152374185Y-98159463D01*
X152374257Y-98159463D01*
X152441415Y-98150621D01*
X152441416Y-98150620D01*
X152441421Y-98150620D01*
X152504423Y-98133738D01*
X152567011Y-98107813D01*
X152567011Y-98107812D01*
X152620754Y-98066572D01*
X152666876Y-98020448D01*
X152708077Y-97966750D01*
X152708115Y-97966701D01*
X152734038Y-97904109D01*
X152750916Y-97841106D01*
X152759755Y-97773941D01*
X152759663Y-96218032D01*
X152752162Y-96156104D01*
X152737807Y-96097704D01*
X152715743Y-96039356D01*
X152680393Y-95987958D01*
X152640605Y-95942864D01*
X152594012Y-95901389D01*
X152594011Y-95901388D01*
X152538870Y-95872233D01*
X152518066Y-95864262D01*
X152482710Y-95850715D01*
X152463100Y-95845803D01*
X152418775Y-95821641D01*
X152391768Y-95778991D01*
X152388879Y-95728592D01*
X152389732Y-95724302D01*
X152389733Y-95724301D01*
X152404499Y-95650067D01*
X152404499Y-95154000D01*
X152796001Y-95154000D01*
X152796001Y-95650018D01*
X152810736Y-95724105D01*
X152866875Y-95808124D01*
X152950893Y-95864262D01*
X153024983Y-95879000D01*
X153346000Y-95879000D01*
X153346000Y-95154000D01*
X153854000Y-95154000D01*
X153854000Y-95878999D01*
X154175018Y-95878999D01*
X154249105Y-95864263D01*
X154333124Y-95808124D01*
X154389262Y-95724106D01*
X154404000Y-95650017D01*
X154404000Y-95154000D01*
X153854000Y-95154000D01*
X153346000Y-95154000D01*
X152796001Y-95154000D01*
X152404499Y-95154000D01*
X152404498Y-94646000D01*
X152796000Y-94646000D01*
X153346000Y-94646000D01*
X153346000Y-93921001D01*
X153024982Y-93921001D01*
X152950894Y-93935736D01*
X152866875Y-93991875D01*
X152810737Y-94075893D01*
X152796000Y-94149983D01*
X152796000Y-94646000D01*
X152404498Y-94646000D01*
X152404498Y-94149934D01*
X152389733Y-94075699D01*
X152388861Y-94071313D01*
X152391751Y-94020914D01*
X152418759Y-93978265D01*
X152463082Y-93954104D01*
X152482571Y-93949223D01*
X152538730Y-93927703D01*
X152551405Y-93921000D01*
X153854000Y-93921000D01*
X153854000Y-94646000D01*
X154403999Y-94646000D01*
X154403999Y-94149982D01*
X154389263Y-94075894D01*
X154333124Y-93991875D01*
X154249106Y-93935737D01*
X154175017Y-93921000D01*
X153854000Y-93921000D01*
X152551405Y-93921000D01*
X152593879Y-93898539D01*
X152640474Y-93857056D01*
X152680260Y-93811956D01*
X152715607Y-93760555D01*
X152737665Y-93702203D01*
X152752015Y-93643799D01*
X152759510Y-93581866D01*
X152759507Y-93528504D01*
X152750635Y-93461246D01*
X152733703Y-93398165D01*
X152707704Y-93335506D01*
X152666353Y-93281727D01*
X152620115Y-93235598D01*
X152566239Y-93194375D01*
X152566237Y-93194374D01*
X152503524Y-93168523D01*
X152440401Y-93151739D01*
X152373121Y-93143027D01*
X152373119Y-93143027D01*
X152181413Y-93143470D01*
X110325103Y-93240209D01*
X110258057Y-93249181D01*
X110195183Y-93266159D01*
X110132734Y-93292154D01*
X110079129Y-93333401D01*
X110033126Y-93379510D01*
X109991997Y-93433217D01*
X109966146Y-93495728D01*
X109949316Y-93558639D01*
X109940500Y-93625709D01*
X109940500Y-97774003D01*
X76200500Y-97774003D01*
X76200500Y-67899901D01*
X76200500Y-67812468D01*
X76170101Y-67640062D01*
X76110225Y-67475555D01*
X76022692Y-67323945D01*
X75910163Y-67189837D01*
X75776055Y-67077308D01*
X75624445Y-66989775D01*
X75624446Y-66989775D01*
X75624442Y-66989773D01*
X75459941Y-66929900D01*
X75459940Y-66929899D01*
X75459938Y-66929899D01*
X75287532Y-66899500D01*
X75287530Y-66899500D01*
X72504393Y-66899500D01*
X72495623Y-66899117D01*
X72492099Y-66898808D01*
X72455130Y-66895573D01*
X72454042Y-66895472D01*
X72326325Y-66882894D01*
X72310151Y-66879950D01*
X72273391Y-66870101D01*
X72243260Y-66862027D01*
X72240096Y-66861123D01*
X72146849Y-66832837D01*
X72133536Y-66827744D01*
X72065571Y-66796052D01*
X72060663Y-66793598D01*
X71979717Y-66750331D01*
X71969438Y-66744016D01*
X71906372Y-66699856D01*
X71900254Y-66695215D01*
X71830656Y-66638098D01*
X71823341Y-66631468D01*
X71768530Y-66576657D01*
X71761900Y-66569342D01*
X71704783Y-66499744D01*
X71700142Y-66493626D01*
X71655982Y-66430560D01*
X71649671Y-66420289D01*
X71606383Y-66339302D01*
X71603963Y-66334461D01*
X71572252Y-66266458D01*
X71567161Y-66253149D01*
X71538875Y-66159902D01*
X71537985Y-66156788D01*
X71520044Y-66089829D01*
X71517107Y-66073691D01*
X71504511Y-65945800D01*
X71504436Y-65944991D01*
X71500883Y-65904376D01*
X71500500Y-65895610D01*
X71500500Y-61035000D01*
X73229745Y-61035000D01*
X73248743Y-61336957D01*
X73305437Y-61634158D01*
X73398929Y-61921899D01*
X73527758Y-62195673D01*
X73689869Y-62451118D01*
X73689873Y-62451124D01*
X73858827Y-62655355D01*
X73882733Y-62684253D01*
X74103281Y-62891360D01*
X74103284Y-62891362D01*
X74348057Y-63069200D01*
X74613190Y-63214958D01*
X74894500Y-63326337D01*
X75187551Y-63401579D01*
X75487722Y-63439500D01*
X75790275Y-63439500D01*
X75790278Y-63439500D01*
X76090449Y-63401579D01*
X76383500Y-63326337D01*
X76664810Y-63214958D01*
X76929943Y-63069200D01*
X77174716Y-62891362D01*
X77395271Y-62684248D01*
X77588127Y-62451124D01*
X77750245Y-62195667D01*
X77879068Y-61921906D01*
X77972563Y-61634157D01*
X78029256Y-61336960D01*
X78048254Y-61035000D01*
X78029256Y-60733040D01*
X77972563Y-60435843D01*
X77879068Y-60148094D01*
X77750245Y-59874333D01*
X77588127Y-59618876D01*
X77395271Y-59385752D01*
X77395270Y-59385751D01*
X77395266Y-59385746D01*
X77174718Y-59178639D01*
X76929943Y-59000800D01*
X76664813Y-58855043D01*
X76518112Y-58796960D01*
X76383500Y-58743663D01*
X76090449Y-58668421D01*
X75790278Y-58630500D01*
X75487722Y-58630500D01*
X75187551Y-58668421D01*
X74894500Y-58743663D01*
X74820555Y-58772939D01*
X74613186Y-58855043D01*
X74348056Y-59000800D01*
X74103281Y-59178639D01*
X73882733Y-59385746D01*
X73689869Y-59618881D01*
X73527758Y-59874326D01*
X73398929Y-60148100D01*
X73305437Y-60435841D01*
X73248743Y-60733042D01*
X73229745Y-61035000D01*
X71500500Y-61035000D01*
X71500500Y-58912470D01*
X71500500Y-58912468D01*
X71470101Y-58740062D01*
X71410225Y-58575555D01*
X71363715Y-58494999D01*
X158954745Y-58494999D01*
X158973743Y-58796957D01*
X159030437Y-59094158D01*
X159123929Y-59381899D01*
X159123931Y-59381903D01*
X159123932Y-59381906D01*
X159235445Y-59618881D01*
X159252758Y-59655673D01*
X159414869Y-59911118D01*
X159414873Y-59911124D01*
X159583827Y-60115355D01*
X159607733Y-60144253D01*
X159828281Y-60351360D01*
X159828284Y-60351362D01*
X160073057Y-60529200D01*
X160338190Y-60674958D01*
X160619500Y-60786337D01*
X160912551Y-60861579D01*
X161212722Y-60899500D01*
X161515275Y-60899500D01*
X161515278Y-60899500D01*
X161815449Y-60861579D01*
X162108500Y-60786337D01*
X162389810Y-60674958D01*
X162654943Y-60529200D01*
X162899716Y-60351362D01*
X163116169Y-60148100D01*
X163120266Y-60144253D01*
X163120267Y-60144251D01*
X163120271Y-60144248D01*
X163313127Y-59911124D01*
X163475245Y-59655667D01*
X163604068Y-59381906D01*
X163697563Y-59094157D01*
X163754256Y-58796960D01*
X163773254Y-58495000D01*
X163754256Y-58193040D01*
X163697563Y-57895843D01*
X163604068Y-57608094D01*
X163475245Y-57334333D01*
X163313127Y-57078876D01*
X163120271Y-56845752D01*
X163120270Y-56845751D01*
X163120266Y-56845746D01*
X162966206Y-56701075D01*
X162936297Y-56646822D01*
X162943847Y-56585332D01*
X162985992Y-56539925D01*
X163046750Y-56527821D01*
X163095239Y-56533488D01*
X163275008Y-56554500D01*
X163624990Y-56554500D01*
X163624992Y-56554500D01*
X163972610Y-56513870D01*
X164313161Y-56433158D01*
X164642038Y-56313456D01*
X164860654Y-56203663D01*
X164954791Y-56156386D01*
X164954796Y-56156383D01*
X165247204Y-55964064D01*
X165515307Y-55739098D01*
X165755481Y-55484528D01*
X165964477Y-55203798D01*
X166139470Y-54900702D01*
X166278091Y-54579341D01*
X166378468Y-54244060D01*
X166439242Y-53899392D01*
X166459592Y-53550000D01*
X166439242Y-53200608D01*
X166378468Y-52855940D01*
X166278091Y-52520659D01*
X166139470Y-52199298D01*
X165964477Y-51896202D01*
X165755481Y-51615472D01*
X165515307Y-51360902D01*
X165515305Y-51360901D01*
X165515303Y-51360898D01*
X165247207Y-51135938D01*
X164954791Y-50943613D01*
X164642040Y-50786544D01*
X164313159Y-50666841D01*
X163972614Y-50586130D01*
X163740864Y-50559043D01*
X163624992Y-50545500D01*
X163275008Y-50545500D01*
X163175688Y-50557108D01*
X162927385Y-50586130D01*
X162586840Y-50666841D01*
X162257959Y-50786544D01*
X161945208Y-50943613D01*
X161652792Y-51135938D01*
X161384696Y-51360898D01*
X161144519Y-51615471D01*
X160935521Y-51896205D01*
X160760531Y-52199295D01*
X160621909Y-52520658D01*
X160521532Y-52855938D01*
X160521532Y-52855940D01*
X160460758Y-53200608D01*
X160440408Y-53550000D01*
X160460758Y-53899392D01*
X160521532Y-54244060D01*
X160621909Y-54579341D01*
X160760530Y-54900702D01*
X160935523Y-55203798D01*
X161144519Y-55484528D01*
X161384693Y-55739098D01*
X161495831Y-55832354D01*
X161592715Y-55913650D01*
X161622242Y-55955385D01*
X161627444Y-56006244D01*
X161606976Y-56053092D01*
X161566125Y-56083830D01*
X161521607Y-56089707D01*
X161521607Y-56090500D01*
X161515600Y-56090500D01*
X161515442Y-56090520D01*
X161515278Y-56090500D01*
X161212722Y-56090500D01*
X160912551Y-56128421D01*
X160619500Y-56203663D01*
X160545555Y-56232940D01*
X160338186Y-56315043D01*
X160073056Y-56460800D01*
X159828281Y-56638639D01*
X159607733Y-56845746D01*
X159414869Y-57078881D01*
X159252758Y-57334326D01*
X159123929Y-57608100D01*
X159030437Y-57895841D01*
X158973743Y-58193042D01*
X158954745Y-58494999D01*
X71363715Y-58494999D01*
X71322692Y-58423945D01*
X71210163Y-58289837D01*
X71076055Y-58177308D01*
X70924445Y-58089775D01*
X70924446Y-58089775D01*
X70924442Y-58089773D01*
X70759941Y-58029900D01*
X70759940Y-58029899D01*
X70759938Y-58029899D01*
X70587532Y-57999500D01*
X70587530Y-57999500D01*
X70101100Y-57999500D01*
X70050800Y-57986022D01*
X70013978Y-57949200D01*
X70000500Y-57898900D01*
X70000500Y-53550000D01*
X70540408Y-53550000D01*
X70560758Y-53899392D01*
X70621532Y-54244060D01*
X70721909Y-54579341D01*
X70860530Y-54900702D01*
X71035523Y-55203798D01*
X71244519Y-55484528D01*
X71298598Y-55541849D01*
X71484696Y-55739101D01*
X71752792Y-55964061D01*
X71752796Y-55964064D01*
X71841936Y-56022692D01*
X72045208Y-56156386D01*
X72357959Y-56313455D01*
X72357962Y-56313456D01*
X72686839Y-56433158D01*
X72718168Y-56440583D01*
X73027385Y-56513869D01*
X73027386Y-56513869D01*
X73027390Y-56513870D01*
X73375008Y-56554500D01*
X73724990Y-56554500D01*
X73724992Y-56554500D01*
X74072610Y-56513870D01*
X74413161Y-56433158D01*
X74742038Y-56313456D01*
X74960654Y-56203663D01*
X75054791Y-56156386D01*
X75054796Y-56156383D01*
X75347204Y-55964064D01*
X75615307Y-55739098D01*
X75855481Y-55484528D01*
X76064477Y-55203798D01*
X76239470Y-54900702D01*
X76378091Y-54579341D01*
X76478468Y-54244060D01*
X76539242Y-53899392D01*
X76559592Y-53550000D01*
X76539242Y-53200608D01*
X76478468Y-52855940D01*
X76378091Y-52520659D01*
X76239470Y-52199298D01*
X76064477Y-51896202D01*
X75855481Y-51615472D01*
X75615307Y-51360902D01*
X75615305Y-51360901D01*
X75615303Y-51360898D01*
X75347207Y-51135938D01*
X75054791Y-50943613D01*
X74742040Y-50786544D01*
X74413159Y-50666841D01*
X74072614Y-50586130D01*
X73840864Y-50559043D01*
X73724992Y-50545500D01*
X73375008Y-50545500D01*
X73275688Y-50557108D01*
X73027385Y-50586130D01*
X72686840Y-50666841D01*
X72357959Y-50786544D01*
X72045208Y-50943613D01*
X71752792Y-51135938D01*
X71484696Y-51360898D01*
X71244519Y-51615471D01*
X71035521Y-51896205D01*
X70860531Y-52199295D01*
X70721909Y-52520658D01*
X70621532Y-52855938D01*
X70621532Y-52855940D01*
X70560758Y-53200608D01*
X70540408Y-53550000D01*
X70000500Y-53550000D01*
X70000500Y-51004390D01*
X70000883Y-50995624D01*
X70001370Y-50990053D01*
X70004440Y-50954964D01*
X70004508Y-50954229D01*
X70017107Y-50826303D01*
X70020042Y-50810174D01*
X70037994Y-50743177D01*
X70038860Y-50740145D01*
X70067164Y-50646840D01*
X70072248Y-50633550D01*
X70103977Y-50565508D01*
X70106368Y-50560726D01*
X70149680Y-50479695D01*
X70155976Y-50469447D01*
X70200144Y-50406368D01*
X70204767Y-50400274D01*
X70261918Y-50330635D01*
X70268510Y-50323362D01*
X70323362Y-50268510D01*
X70330635Y-50261918D01*
X70400274Y-50204767D01*
X70406372Y-50200142D01*
X70469447Y-50155976D01*
X70479695Y-50149680D01*
X70560726Y-50106368D01*
X70565508Y-50103977D01*
X70633550Y-50072248D01*
X70646840Y-50067164D01*
X70740145Y-50038860D01*
X70743177Y-50037994D01*
X70810174Y-50020042D01*
X70826303Y-50017107D01*
X70954229Y-50004508D01*
X70954964Y-50004440D01*
X70990053Y-50001370D01*
X70995624Y-50000883D01*
X71004390Y-50000500D01*
X77898900Y-50000500D01*
X77949200Y-50013978D01*
G37*
G04 #@! TD.AperFunction*
G04 #@! TA.AperFunction,Conductor*
G36*
X152436837Y-93419309D02*
G01*
X152483075Y-93465438D01*
X152500007Y-93528519D01*
X152500010Y-93581881D01*
X152485660Y-93640285D01*
X152445874Y-93685385D01*
X152389715Y-93706905D01*
X152329978Y-93699944D01*
X152259092Y-93673505D01*
X152198588Y-93667000D01*
X151853999Y-93667000D01*
X151853999Y-96133000D01*
X152198588Y-96133000D01*
X152259094Y-96126494D01*
X152330130Y-96099999D01*
X152389863Y-96093036D01*
X152446020Y-96114553D01*
X152485808Y-96159647D01*
X152500163Y-96218047D01*
X152500255Y-97773956D01*
X152483377Y-97836959D01*
X152437257Y-97883081D01*
X152374255Y-97899963D01*
X131349460Y-97899981D01*
X110325999Y-97899999D01*
X110263000Y-97883119D01*
X110216881Y-97837000D01*
X110200000Y-97774000D01*
X110200000Y-95754000D01*
X114792000Y-95754000D01*
X114792000Y-96548589D01*
X114798505Y-96609093D01*
X114849554Y-96745962D01*
X114937095Y-96862904D01*
X115054037Y-96950445D01*
X115190906Y-97001494D01*
X115251411Y-97008000D01*
X116046000Y-97008000D01*
X116046000Y-95754000D01*
X116554000Y-95754000D01*
X116554000Y-97008000D01*
X117348589Y-97008000D01*
X117409093Y-97001494D01*
X117545962Y-96950445D01*
X117662904Y-96862904D01*
X117750445Y-96745962D01*
X117801494Y-96609093D01*
X117808000Y-96548589D01*
X117808000Y-95754000D01*
X119892000Y-95754000D01*
X119892000Y-96548589D01*
X119898505Y-96609093D01*
X119949554Y-96745962D01*
X120037095Y-96862904D01*
X120154037Y-96950445D01*
X120290906Y-97001494D01*
X120351411Y-97008000D01*
X121146000Y-97008000D01*
X121146000Y-95754000D01*
X121654000Y-95754000D01*
X121654000Y-97008000D01*
X122448589Y-97008000D01*
X122509093Y-97001494D01*
X122645962Y-96950445D01*
X122762904Y-96862904D01*
X122850445Y-96745962D01*
X122901494Y-96609093D01*
X122908000Y-96548589D01*
X122908000Y-95754000D01*
X121654000Y-95754000D01*
X121146000Y-95754000D01*
X119892000Y-95754000D01*
X117808000Y-95754000D01*
X116554000Y-95754000D01*
X116046000Y-95754000D01*
X114792000Y-95754000D01*
X110200000Y-95754000D01*
X110200000Y-95246000D01*
X114792000Y-95246000D01*
X116046000Y-95246000D01*
X116046000Y-93992000D01*
X116554000Y-93992000D01*
X116554000Y-95246000D01*
X117808000Y-95246000D01*
X119892000Y-95246000D01*
X121146000Y-95246000D01*
X121146000Y-93992000D01*
X121654000Y-93992000D01*
X121654000Y-95246000D01*
X122908000Y-95246000D01*
X122908000Y-95154000D01*
X150541999Y-95154000D01*
X150541999Y-95673589D01*
X150548504Y-95734093D01*
X150599553Y-95870962D01*
X150687094Y-95987904D01*
X150804036Y-96075445D01*
X150940905Y-96126494D01*
X151001410Y-96133000D01*
X151345999Y-96133000D01*
X151345999Y-95154000D01*
X150541999Y-95154000D01*
X122908000Y-95154000D01*
X122908000Y-94646000D01*
X150541999Y-94646000D01*
X151345999Y-94646000D01*
X151345999Y-93667000D01*
X151001410Y-93667000D01*
X150940905Y-93673505D01*
X150804036Y-93724554D01*
X150687094Y-93812095D01*
X150599553Y-93929037D01*
X150548504Y-94065906D01*
X150541999Y-94126411D01*
X150541999Y-94646000D01*
X122908000Y-94646000D01*
X122908000Y-94451411D01*
X122901494Y-94390906D01*
X122850445Y-94254037D01*
X122762904Y-94137095D01*
X122645962Y-94049554D01*
X122509093Y-93998505D01*
X122448589Y-93992000D01*
X121654000Y-93992000D01*
X121146000Y-93992000D01*
X120351411Y-93992000D01*
X120290906Y-93998505D01*
X120154037Y-94049554D01*
X120037095Y-94137095D01*
X119949554Y-94254037D01*
X119898505Y-94390906D01*
X119892000Y-94451411D01*
X119892000Y-95246000D01*
X117808000Y-95246000D01*
X117808000Y-94451411D01*
X117801494Y-94390906D01*
X117750445Y-94254037D01*
X117662904Y-94137095D01*
X117545962Y-94049554D01*
X117409093Y-93998505D01*
X117348589Y-93992000D01*
X116554000Y-93992000D01*
X116046000Y-93992000D01*
X115251411Y-93992000D01*
X115190906Y-93998505D01*
X115054037Y-94049554D01*
X114937095Y-94137095D01*
X114849554Y-94254037D01*
X114798505Y-94390906D01*
X114792000Y-94451411D01*
X114792000Y-95246000D01*
X110200000Y-95246000D01*
X110200000Y-93625709D01*
X110216832Y-93562793D01*
X110262832Y-93516687D01*
X110325707Y-93499709D01*
X152373719Y-93402526D01*
X152436837Y-93419309D01*
G37*
G04 #@! TD.AperFunction*
M02*
