G04 #@! TF.GenerationSoftware,KiCad,Pcbnew,7.0.1-0*
G04 #@! TF.CreationDate,2023-03-19T01:34:27-04:00*
G04 #@! TF.ProjectId,bottom-adapter,626f7474-6f6d-42d6-9164-61707465722e,3*
G04 #@! TF.SameCoordinates,Original*
G04 #@! TF.FileFunction,Legend,Bot*
G04 #@! TF.FilePolarity,Positive*
%FSLAX46Y46*%
G04 Gerber Fmt 4.6, Leading zero omitted, Abs format (unit mm)*
G04 Created by KiCad (PCBNEW 7.0.1-0) date 2023-03-19 01:34:27*
%MOMM*%
%LPD*%
G01*
G04 APERTURE LIST*
%ADD10C,0.150000*%
%ADD11C,0.230000*%
%ADD12C,0.120000*%
%ADD13C,5.500000*%
%ADD14R,2.000000X2.000000*%
%ADD15C,4.300000*%
%ADD16R,1.350000X2.899999*%
%ADD17R,1.100000X1.450000*%
G04 APERTURE END LIST*
D10*
X113576190Y-95638809D02*
X113433333Y-95686428D01*
X113433333Y-95686428D02*
X113385714Y-95734047D01*
X113385714Y-95734047D02*
X113338095Y-95829285D01*
X113338095Y-95829285D02*
X113338095Y-95972142D01*
X113338095Y-95972142D02*
X113385714Y-96067380D01*
X113385714Y-96067380D02*
X113433333Y-96115000D01*
X113433333Y-96115000D02*
X113528571Y-96162619D01*
X113528571Y-96162619D02*
X113909523Y-96162619D01*
X113909523Y-96162619D02*
X113909523Y-95162619D01*
X113909523Y-95162619D02*
X113576190Y-95162619D01*
X113576190Y-95162619D02*
X113480952Y-95210238D01*
X113480952Y-95210238D02*
X113433333Y-95257857D01*
X113433333Y-95257857D02*
X113385714Y-95353095D01*
X113385714Y-95353095D02*
X113385714Y-95448333D01*
X113385714Y-95448333D02*
X113433333Y-95543571D01*
X113433333Y-95543571D02*
X113480952Y-95591190D01*
X113480952Y-95591190D02*
X113576190Y-95638809D01*
X113576190Y-95638809D02*
X113909523Y-95638809D01*
X112909523Y-95162619D02*
X112909523Y-95972142D01*
X112909523Y-95972142D02*
X112861904Y-96067380D01*
X112861904Y-96067380D02*
X112814285Y-96115000D01*
X112814285Y-96115000D02*
X112719047Y-96162619D01*
X112719047Y-96162619D02*
X112528571Y-96162619D01*
X112528571Y-96162619D02*
X112433333Y-96115000D01*
X112433333Y-96115000D02*
X112385714Y-96067380D01*
X112385714Y-96067380D02*
X112338095Y-95972142D01*
X112338095Y-95972142D02*
X112338095Y-95162619D01*
X111290476Y-96162619D02*
X111623809Y-95686428D01*
X111861904Y-96162619D02*
X111861904Y-95162619D01*
X111861904Y-95162619D02*
X111480952Y-95162619D01*
X111480952Y-95162619D02*
X111385714Y-95210238D01*
X111385714Y-95210238D02*
X111338095Y-95257857D01*
X111338095Y-95257857D02*
X111290476Y-95353095D01*
X111290476Y-95353095D02*
X111290476Y-95495952D01*
X111290476Y-95495952D02*
X111338095Y-95591190D01*
X111338095Y-95591190D02*
X111385714Y-95638809D01*
X111385714Y-95638809D02*
X111480952Y-95686428D01*
X111480952Y-95686428D02*
X111861904Y-95686428D01*
X110861904Y-96162619D02*
X110861904Y-95162619D01*
X110861904Y-95162619D02*
X110290476Y-96162619D01*
X110290476Y-96162619D02*
X110290476Y-95162619D01*
X112761904Y-101110238D02*
X112857142Y-101062619D01*
X112857142Y-101062619D02*
X112999999Y-101062619D01*
X112999999Y-101062619D02*
X113142856Y-101110238D01*
X113142856Y-101110238D02*
X113238094Y-101205476D01*
X113238094Y-101205476D02*
X113285713Y-101300714D01*
X113285713Y-101300714D02*
X113333332Y-101491190D01*
X113333332Y-101491190D02*
X113333332Y-101634047D01*
X113333332Y-101634047D02*
X113285713Y-101824523D01*
X113285713Y-101824523D02*
X113238094Y-101919761D01*
X113238094Y-101919761D02*
X113142856Y-102015000D01*
X113142856Y-102015000D02*
X112999999Y-102062619D01*
X112999999Y-102062619D02*
X112904761Y-102062619D01*
X112904761Y-102062619D02*
X112761904Y-102015000D01*
X112761904Y-102015000D02*
X112714285Y-101967380D01*
X112714285Y-101967380D02*
X112714285Y-101634047D01*
X112714285Y-101634047D02*
X112904761Y-101634047D01*
X112285713Y-102062619D02*
X112285713Y-101062619D01*
X112285713Y-101062619D02*
X111714285Y-102062619D01*
X111714285Y-102062619D02*
X111714285Y-101062619D01*
X111238094Y-102062619D02*
X111238094Y-101062619D01*
X111238094Y-101062619D02*
X110999999Y-101062619D01*
X110999999Y-101062619D02*
X110857142Y-101110238D01*
X110857142Y-101110238D02*
X110761904Y-101205476D01*
X110761904Y-101205476D02*
X110714285Y-101300714D01*
X110714285Y-101300714D02*
X110666666Y-101491190D01*
X110666666Y-101491190D02*
X110666666Y-101634047D01*
X110666666Y-101634047D02*
X110714285Y-101824523D01*
X110714285Y-101824523D02*
X110761904Y-101919761D01*
X110761904Y-101919761D02*
X110857142Y-102015000D01*
X110857142Y-102015000D02*
X110999999Y-102062619D01*
X110999999Y-102062619D02*
X111238094Y-102062619D01*
D11*
X126217854Y-111804500D02*
X126053568Y-111859261D01*
X126053568Y-111859261D02*
X125779759Y-111859261D01*
X125779759Y-111859261D02*
X125670235Y-111804500D01*
X125670235Y-111804500D02*
X125615473Y-111749738D01*
X125615473Y-111749738D02*
X125560711Y-111640214D01*
X125560711Y-111640214D02*
X125560711Y-111530690D01*
X125560711Y-111530690D02*
X125615473Y-111421166D01*
X125615473Y-111421166D02*
X125670235Y-111366404D01*
X125670235Y-111366404D02*
X125779759Y-111311642D01*
X125779759Y-111311642D02*
X125998806Y-111256880D01*
X125998806Y-111256880D02*
X126108330Y-111202119D01*
X126108330Y-111202119D02*
X126163092Y-111147357D01*
X126163092Y-111147357D02*
X126217854Y-111037833D01*
X126217854Y-111037833D02*
X126217854Y-110928309D01*
X126217854Y-110928309D02*
X126163092Y-110818785D01*
X126163092Y-110818785D02*
X126108330Y-110764023D01*
X126108330Y-110764023D02*
X125998806Y-110709261D01*
X125998806Y-110709261D02*
X125724997Y-110709261D01*
X125724997Y-110709261D02*
X125560711Y-110764023D01*
X125067854Y-111092595D02*
X125067854Y-112242595D01*
X125067854Y-111147357D02*
X124958330Y-111092595D01*
X124958330Y-111092595D02*
X124739283Y-111092595D01*
X124739283Y-111092595D02*
X124629759Y-111147357D01*
X124629759Y-111147357D02*
X124574997Y-111202119D01*
X124574997Y-111202119D02*
X124520235Y-111311642D01*
X124520235Y-111311642D02*
X124520235Y-111640214D01*
X124520235Y-111640214D02*
X124574997Y-111749738D01*
X124574997Y-111749738D02*
X124629759Y-111804500D01*
X124629759Y-111804500D02*
X124739283Y-111859261D01*
X124739283Y-111859261D02*
X124958330Y-111859261D01*
X124958330Y-111859261D02*
X125067854Y-111804500D01*
X123589283Y-111804500D02*
X123698807Y-111859261D01*
X123698807Y-111859261D02*
X123917854Y-111859261D01*
X123917854Y-111859261D02*
X124027378Y-111804500D01*
X124027378Y-111804500D02*
X124082140Y-111694976D01*
X124082140Y-111694976D02*
X124082140Y-111256880D01*
X124082140Y-111256880D02*
X124027378Y-111147357D01*
X124027378Y-111147357D02*
X123917854Y-111092595D01*
X123917854Y-111092595D02*
X123698807Y-111092595D01*
X123698807Y-111092595D02*
X123589283Y-111147357D01*
X123589283Y-111147357D02*
X123534521Y-111256880D01*
X123534521Y-111256880D02*
X123534521Y-111366404D01*
X123534521Y-111366404D02*
X124082140Y-111475928D01*
X122548807Y-111804500D02*
X122658331Y-111859261D01*
X122658331Y-111859261D02*
X122877378Y-111859261D01*
X122877378Y-111859261D02*
X122986902Y-111804500D01*
X122986902Y-111804500D02*
X123041664Y-111749738D01*
X123041664Y-111749738D02*
X123096426Y-111640214D01*
X123096426Y-111640214D02*
X123096426Y-111311642D01*
X123096426Y-111311642D02*
X123041664Y-111202119D01*
X123041664Y-111202119D02*
X122986902Y-111147357D01*
X122986902Y-111147357D02*
X122877378Y-111092595D01*
X122877378Y-111092595D02*
X122658331Y-111092595D01*
X122658331Y-111092595D02*
X122548807Y-111147357D01*
X122055950Y-111859261D02*
X122055950Y-111092595D01*
X122055950Y-110709261D02*
X122110712Y-110764023D01*
X122110712Y-110764023D02*
X122055950Y-110818785D01*
X122055950Y-110818785D02*
X122001188Y-110764023D01*
X122001188Y-110764023D02*
X122055950Y-110709261D01*
X122055950Y-110709261D02*
X122055950Y-110818785D01*
X121015474Y-111859261D02*
X121015474Y-111256880D01*
X121015474Y-111256880D02*
X121070236Y-111147357D01*
X121070236Y-111147357D02*
X121179760Y-111092595D01*
X121179760Y-111092595D02*
X121398807Y-111092595D01*
X121398807Y-111092595D02*
X121508331Y-111147357D01*
X121015474Y-111804500D02*
X121124998Y-111859261D01*
X121124998Y-111859261D02*
X121398807Y-111859261D01*
X121398807Y-111859261D02*
X121508331Y-111804500D01*
X121508331Y-111804500D02*
X121563093Y-111694976D01*
X121563093Y-111694976D02*
X121563093Y-111585452D01*
X121563093Y-111585452D02*
X121508331Y-111475928D01*
X121508331Y-111475928D02*
X121398807Y-111421166D01*
X121398807Y-111421166D02*
X121124998Y-111421166D01*
X121124998Y-111421166D02*
X121015474Y-111366404D01*
X120303569Y-111859261D02*
X120413093Y-111804500D01*
X120413093Y-111804500D02*
X120467855Y-111694976D01*
X120467855Y-111694976D02*
X120467855Y-110709261D01*
X119153570Y-110709261D02*
X118496427Y-110709261D01*
X118824998Y-111859261D02*
X118824998Y-110709261D01*
X118113094Y-111859261D02*
X118113094Y-110709261D01*
X117620237Y-111859261D02*
X117620237Y-111256880D01*
X117620237Y-111256880D02*
X117674999Y-111147357D01*
X117674999Y-111147357D02*
X117784523Y-111092595D01*
X117784523Y-111092595D02*
X117948808Y-111092595D01*
X117948808Y-111092595D02*
X118058332Y-111147357D01*
X118058332Y-111147357D02*
X118113094Y-111202119D01*
X116579761Y-111859261D02*
X116579761Y-111256880D01*
X116579761Y-111256880D02*
X116634523Y-111147357D01*
X116634523Y-111147357D02*
X116744047Y-111092595D01*
X116744047Y-111092595D02*
X116963094Y-111092595D01*
X116963094Y-111092595D02*
X117072618Y-111147357D01*
X116579761Y-111804500D02*
X116689285Y-111859261D01*
X116689285Y-111859261D02*
X116963094Y-111859261D01*
X116963094Y-111859261D02*
X117072618Y-111804500D01*
X117072618Y-111804500D02*
X117127380Y-111694976D01*
X117127380Y-111694976D02*
X117127380Y-111585452D01*
X117127380Y-111585452D02*
X117072618Y-111475928D01*
X117072618Y-111475928D02*
X116963094Y-111421166D01*
X116963094Y-111421166D02*
X116689285Y-111421166D01*
X116689285Y-111421166D02*
X116579761Y-111366404D01*
X116032142Y-111092595D02*
X116032142Y-111859261D01*
X116032142Y-111202119D02*
X115977380Y-111147357D01*
X115977380Y-111147357D02*
X115867856Y-111092595D01*
X115867856Y-111092595D02*
X115703571Y-111092595D01*
X115703571Y-111092595D02*
X115594047Y-111147357D01*
X115594047Y-111147357D02*
X115539285Y-111256880D01*
X115539285Y-111256880D02*
X115539285Y-111859261D01*
X114991666Y-111859261D02*
X114991666Y-110709261D01*
X114882142Y-111421166D02*
X114553571Y-111859261D01*
X114553571Y-111092595D02*
X114991666Y-111530690D01*
X114115476Y-111804500D02*
X114005952Y-111859261D01*
X114005952Y-111859261D02*
X113786904Y-111859261D01*
X113786904Y-111859261D02*
X113677381Y-111804500D01*
X113677381Y-111804500D02*
X113622619Y-111694976D01*
X113622619Y-111694976D02*
X113622619Y-111640214D01*
X113622619Y-111640214D02*
X113677381Y-111530690D01*
X113677381Y-111530690D02*
X113786904Y-111475928D01*
X113786904Y-111475928D02*
X113951190Y-111475928D01*
X113951190Y-111475928D02*
X114060714Y-111421166D01*
X114060714Y-111421166D02*
X114115476Y-111311642D01*
X114115476Y-111311642D02*
X114115476Y-111256880D01*
X114115476Y-111256880D02*
X114060714Y-111147357D01*
X114060714Y-111147357D02*
X113951190Y-111092595D01*
X113951190Y-111092595D02*
X113786904Y-111092595D01*
X113786904Y-111092595D02*
X113677381Y-111147357D01*
X112417858Y-110709261D02*
X111760715Y-110709261D01*
X112089286Y-111859261D02*
X112089286Y-110709261D01*
X111213096Y-111859261D02*
X111322620Y-111804500D01*
X111322620Y-111804500D02*
X111377382Y-111749738D01*
X111377382Y-111749738D02*
X111432144Y-111640214D01*
X111432144Y-111640214D02*
X111432144Y-111311642D01*
X111432144Y-111311642D02*
X111377382Y-111202119D01*
X111377382Y-111202119D02*
X111322620Y-111147357D01*
X111322620Y-111147357D02*
X111213096Y-111092595D01*
X111213096Y-111092595D02*
X111048811Y-111092595D01*
X111048811Y-111092595D02*
X110939287Y-111147357D01*
X110939287Y-111147357D02*
X110884525Y-111202119D01*
X110884525Y-111202119D02*
X110829763Y-111311642D01*
X110829763Y-111311642D02*
X110829763Y-111640214D01*
X110829763Y-111640214D02*
X110884525Y-111749738D01*
X110884525Y-111749738D02*
X110939287Y-111804500D01*
X110939287Y-111804500D02*
X111048811Y-111859261D01*
X111048811Y-111859261D02*
X111213096Y-111859261D01*
X110336906Y-111749738D02*
X110282144Y-111804500D01*
X110282144Y-111804500D02*
X110336906Y-111859261D01*
X110336906Y-111859261D02*
X110391668Y-111804500D01*
X110391668Y-111804500D02*
X110336906Y-111749738D01*
X110336906Y-111749738D02*
X110336906Y-111859261D01*
X110336906Y-111147357D02*
X110282144Y-111202119D01*
X110282144Y-111202119D02*
X110336906Y-111256880D01*
X110336906Y-111256880D02*
X110391668Y-111202119D01*
X110391668Y-111202119D02*
X110336906Y-111147357D01*
X110336906Y-111147357D02*
X110336906Y-111256880D01*
D10*
X125107143Y-113827618D02*
X124916667Y-113827618D01*
X124916667Y-113827618D02*
X124821429Y-113875237D01*
X124821429Y-113875237D02*
X124726191Y-113970475D01*
X124726191Y-113970475D02*
X124678572Y-114160951D01*
X124678572Y-114160951D02*
X124678572Y-114494284D01*
X124678572Y-114494284D02*
X124726191Y-114684760D01*
X124726191Y-114684760D02*
X124821429Y-114779999D01*
X124821429Y-114779999D02*
X124916667Y-114827618D01*
X124916667Y-114827618D02*
X125107143Y-114827618D01*
X125107143Y-114827618D02*
X125202381Y-114779999D01*
X125202381Y-114779999D02*
X125297619Y-114684760D01*
X125297619Y-114684760D02*
X125345238Y-114494284D01*
X125345238Y-114494284D02*
X125345238Y-114160951D01*
X125345238Y-114160951D02*
X125297619Y-113970475D01*
X125297619Y-113970475D02*
X125202381Y-113875237D01*
X125202381Y-113875237D02*
X125107143Y-113827618D01*
X124107143Y-114827618D02*
X124202381Y-114779999D01*
X124202381Y-114779999D02*
X124250000Y-114684760D01*
X124250000Y-114684760D02*
X124250000Y-113827618D01*
X123345238Y-114779999D02*
X123440476Y-114827618D01*
X123440476Y-114827618D02*
X123630952Y-114827618D01*
X123630952Y-114827618D02*
X123726190Y-114779999D01*
X123726190Y-114779999D02*
X123773809Y-114684760D01*
X123773809Y-114684760D02*
X123773809Y-114303808D01*
X123773809Y-114303808D02*
X123726190Y-114208570D01*
X123726190Y-114208570D02*
X123630952Y-114160951D01*
X123630952Y-114160951D02*
X123440476Y-114160951D01*
X123440476Y-114160951D02*
X123345238Y-114208570D01*
X123345238Y-114208570D02*
X123297619Y-114303808D01*
X123297619Y-114303808D02*
X123297619Y-114399046D01*
X123297619Y-114399046D02*
X123773809Y-114494284D01*
X122440476Y-114160951D02*
X122440476Y-114970475D01*
X122440476Y-114970475D02*
X122488095Y-115065713D01*
X122488095Y-115065713D02*
X122535714Y-115113332D01*
X122535714Y-115113332D02*
X122630952Y-115160951D01*
X122630952Y-115160951D02*
X122773809Y-115160951D01*
X122773809Y-115160951D02*
X122869047Y-115113332D01*
X122440476Y-114779999D02*
X122535714Y-114827618D01*
X122535714Y-114827618D02*
X122726190Y-114827618D01*
X122726190Y-114827618D02*
X122821428Y-114779999D01*
X122821428Y-114779999D02*
X122869047Y-114732379D01*
X122869047Y-114732379D02*
X122916666Y-114637141D01*
X122916666Y-114637141D02*
X122916666Y-114351427D01*
X122916666Y-114351427D02*
X122869047Y-114256189D01*
X122869047Y-114256189D02*
X122821428Y-114208570D01*
X122821428Y-114208570D02*
X122726190Y-114160951D01*
X122726190Y-114160951D02*
X122535714Y-114160951D01*
X122535714Y-114160951D02*
X122440476Y-114208570D01*
X121249999Y-114779999D02*
X121107142Y-114827618D01*
X121107142Y-114827618D02*
X120869047Y-114827618D01*
X120869047Y-114827618D02*
X120773809Y-114779999D01*
X120773809Y-114779999D02*
X120726190Y-114732379D01*
X120726190Y-114732379D02*
X120678571Y-114637141D01*
X120678571Y-114637141D02*
X120678571Y-114541903D01*
X120678571Y-114541903D02*
X120726190Y-114446665D01*
X120726190Y-114446665D02*
X120773809Y-114399046D01*
X120773809Y-114399046D02*
X120869047Y-114351427D01*
X120869047Y-114351427D02*
X121059523Y-114303808D01*
X121059523Y-114303808D02*
X121154761Y-114256189D01*
X121154761Y-114256189D02*
X121202380Y-114208570D01*
X121202380Y-114208570D02*
X121249999Y-114113332D01*
X121249999Y-114113332D02*
X121249999Y-114018094D01*
X121249999Y-114018094D02*
X121202380Y-113922856D01*
X121202380Y-113922856D02*
X121154761Y-113875237D01*
X121154761Y-113875237D02*
X121059523Y-113827618D01*
X121059523Y-113827618D02*
X120821428Y-113827618D01*
X120821428Y-113827618D02*
X120678571Y-113875237D01*
X120249999Y-114827618D02*
X120249999Y-113827618D01*
X119821428Y-114827618D02*
X119821428Y-114303808D01*
X119821428Y-114303808D02*
X119869047Y-114208570D01*
X119869047Y-114208570D02*
X119964285Y-114160951D01*
X119964285Y-114160951D02*
X120107142Y-114160951D01*
X120107142Y-114160951D02*
X120202380Y-114208570D01*
X120202380Y-114208570D02*
X120249999Y-114256189D01*
X118916666Y-114827618D02*
X118916666Y-114303808D01*
X118916666Y-114303808D02*
X118964285Y-114208570D01*
X118964285Y-114208570D02*
X119059523Y-114160951D01*
X119059523Y-114160951D02*
X119249999Y-114160951D01*
X119249999Y-114160951D02*
X119345237Y-114208570D01*
X118916666Y-114779999D02*
X119011904Y-114827618D01*
X119011904Y-114827618D02*
X119249999Y-114827618D01*
X119249999Y-114827618D02*
X119345237Y-114779999D01*
X119345237Y-114779999D02*
X119392856Y-114684760D01*
X119392856Y-114684760D02*
X119392856Y-114589522D01*
X119392856Y-114589522D02*
X119345237Y-114494284D01*
X119345237Y-114494284D02*
X119249999Y-114446665D01*
X119249999Y-114446665D02*
X119011904Y-114446665D01*
X119011904Y-114446665D02*
X118916666Y-114399046D01*
X118440475Y-114827618D02*
X118440475Y-114160951D01*
X118440475Y-114351427D02*
X118392856Y-114256189D01*
X118392856Y-114256189D02*
X118345237Y-114208570D01*
X118345237Y-114208570D02*
X118249999Y-114160951D01*
X118249999Y-114160951D02*
X118154761Y-114160951D01*
X117392856Y-114160951D02*
X117392856Y-114970475D01*
X117392856Y-114970475D02*
X117440475Y-115065713D01*
X117440475Y-115065713D02*
X117488094Y-115113332D01*
X117488094Y-115113332D02*
X117583332Y-115160951D01*
X117583332Y-115160951D02*
X117726189Y-115160951D01*
X117726189Y-115160951D02*
X117821427Y-115113332D01*
X117392856Y-114779999D02*
X117488094Y-114827618D01*
X117488094Y-114827618D02*
X117678570Y-114827618D01*
X117678570Y-114827618D02*
X117773808Y-114779999D01*
X117773808Y-114779999D02*
X117821427Y-114732379D01*
X117821427Y-114732379D02*
X117869046Y-114637141D01*
X117869046Y-114637141D02*
X117869046Y-114351427D01*
X117869046Y-114351427D02*
X117821427Y-114256189D01*
X117821427Y-114256189D02*
X117773808Y-114208570D01*
X117773808Y-114208570D02*
X117678570Y-114160951D01*
X117678570Y-114160951D02*
X117488094Y-114160951D01*
X117488094Y-114160951D02*
X117392856Y-114208570D01*
X116773808Y-114827618D02*
X116869046Y-114779999D01*
X116869046Y-114779999D02*
X116916665Y-114732379D01*
X116916665Y-114732379D02*
X116964284Y-114637141D01*
X116964284Y-114637141D02*
X116964284Y-114351427D01*
X116964284Y-114351427D02*
X116916665Y-114256189D01*
X116916665Y-114256189D02*
X116869046Y-114208570D01*
X116869046Y-114208570D02*
X116773808Y-114160951D01*
X116773808Y-114160951D02*
X116630951Y-114160951D01*
X116630951Y-114160951D02*
X116535713Y-114208570D01*
X116535713Y-114208570D02*
X116488094Y-114256189D01*
X116488094Y-114256189D02*
X116440475Y-114351427D01*
X116440475Y-114351427D02*
X116440475Y-114637141D01*
X116440475Y-114637141D02*
X116488094Y-114732379D01*
X116488094Y-114732379D02*
X116535713Y-114779999D01*
X116535713Y-114779999D02*
X116630951Y-114827618D01*
X116630951Y-114827618D02*
X116773808Y-114827618D01*
X116011903Y-114827618D02*
X116011903Y-114160951D01*
X116011903Y-114351427D02*
X115964284Y-114256189D01*
X115964284Y-114256189D02*
X115916665Y-114208570D01*
X115916665Y-114208570D02*
X115821427Y-114160951D01*
X115821427Y-114160951D02*
X115726189Y-114160951D01*
X115249998Y-114827618D02*
X115345236Y-114779999D01*
X115345236Y-114779999D02*
X115392855Y-114732379D01*
X115392855Y-114732379D02*
X115440474Y-114637141D01*
X115440474Y-114637141D02*
X115440474Y-114351427D01*
X115440474Y-114351427D02*
X115392855Y-114256189D01*
X115392855Y-114256189D02*
X115345236Y-114208570D01*
X115345236Y-114208570D02*
X115249998Y-114160951D01*
X115249998Y-114160951D02*
X115107141Y-114160951D01*
X115107141Y-114160951D02*
X115011903Y-114208570D01*
X115011903Y-114208570D02*
X114964284Y-114256189D01*
X114964284Y-114256189D02*
X114916665Y-114351427D01*
X114916665Y-114351427D02*
X114916665Y-114637141D01*
X114916665Y-114637141D02*
X114964284Y-114732379D01*
X114964284Y-114732379D02*
X115011903Y-114779999D01*
X115011903Y-114779999D02*
X115107141Y-114827618D01*
X115107141Y-114827618D02*
X115249998Y-114827618D01*
X114059522Y-114827618D02*
X114059522Y-113827618D01*
X114059522Y-114779999D02*
X114154760Y-114827618D01*
X114154760Y-114827618D02*
X114345236Y-114827618D01*
X114345236Y-114827618D02*
X114440474Y-114779999D01*
X114440474Y-114779999D02*
X114488093Y-114732379D01*
X114488093Y-114732379D02*
X114535712Y-114637141D01*
X114535712Y-114637141D02*
X114535712Y-114351427D01*
X114535712Y-114351427D02*
X114488093Y-114256189D01*
X114488093Y-114256189D02*
X114440474Y-114208570D01*
X114440474Y-114208570D02*
X114345236Y-114160951D01*
X114345236Y-114160951D02*
X114154760Y-114160951D01*
X114154760Y-114160951D02*
X114059522Y-114208570D01*
X113630950Y-114779999D02*
X113535712Y-114827618D01*
X113535712Y-114827618D02*
X113345236Y-114827618D01*
X113345236Y-114827618D02*
X113249998Y-114779999D01*
X113249998Y-114779999D02*
X113202379Y-114684760D01*
X113202379Y-114684760D02*
X113202379Y-114637141D01*
X113202379Y-114637141D02*
X113249998Y-114541903D01*
X113249998Y-114541903D02*
X113345236Y-114494284D01*
X113345236Y-114494284D02*
X113488093Y-114494284D01*
X113488093Y-114494284D02*
X113583331Y-114446665D01*
X113583331Y-114446665D02*
X113630950Y-114351427D01*
X113630950Y-114351427D02*
X113630950Y-114303808D01*
X113630950Y-114303808D02*
X113583331Y-114208570D01*
X113583331Y-114208570D02*
X113488093Y-114160951D01*
X113488093Y-114160951D02*
X113345236Y-114160951D01*
X113345236Y-114160951D02*
X113249998Y-114208570D01*
X112773807Y-114827618D02*
X112773807Y-113827618D01*
X112678569Y-114446665D02*
X112392855Y-114827618D01*
X112392855Y-114160951D02*
X112773807Y-114541903D01*
X111964283Y-114827618D02*
X111964283Y-114160951D01*
X111964283Y-113827618D02*
X112011902Y-113875237D01*
X112011902Y-113875237D02*
X111964283Y-113922856D01*
X111964283Y-113922856D02*
X111916664Y-113875237D01*
X111916664Y-113875237D02*
X111964283Y-113827618D01*
X111964283Y-113827618D02*
X111964283Y-113922856D01*
X111583331Y-114160951D02*
X111345236Y-114827618D01*
X111107141Y-114160951D02*
X111345236Y-114827618D01*
X111345236Y-114827618D02*
X111440474Y-115065713D01*
X111440474Y-115065713D02*
X111488093Y-115113332D01*
X111488093Y-115113332D02*
X111583331Y-115160951D01*
X128988096Y-116447618D02*
X128988096Y-115447618D01*
X128988096Y-115447618D02*
X128607144Y-115447618D01*
X128607144Y-115447618D02*
X128511906Y-115495237D01*
X128511906Y-115495237D02*
X128464287Y-115542856D01*
X128464287Y-115542856D02*
X128416668Y-115638094D01*
X128416668Y-115638094D02*
X128416668Y-115780951D01*
X128416668Y-115780951D02*
X128464287Y-115876189D01*
X128464287Y-115876189D02*
X128511906Y-115923808D01*
X128511906Y-115923808D02*
X128607144Y-115971427D01*
X128607144Y-115971427D02*
X128988096Y-115971427D01*
X127988096Y-116447618D02*
X127988096Y-115780951D01*
X127988096Y-115971427D02*
X127940477Y-115876189D01*
X127940477Y-115876189D02*
X127892858Y-115828570D01*
X127892858Y-115828570D02*
X127797620Y-115780951D01*
X127797620Y-115780951D02*
X127702382Y-115780951D01*
X127226191Y-116447618D02*
X127321429Y-116399999D01*
X127321429Y-116399999D02*
X127369048Y-116352379D01*
X127369048Y-116352379D02*
X127416667Y-116257141D01*
X127416667Y-116257141D02*
X127416667Y-115971427D01*
X127416667Y-115971427D02*
X127369048Y-115876189D01*
X127369048Y-115876189D02*
X127321429Y-115828570D01*
X127321429Y-115828570D02*
X127226191Y-115780951D01*
X127226191Y-115780951D02*
X127083334Y-115780951D01*
X127083334Y-115780951D02*
X126988096Y-115828570D01*
X126988096Y-115828570D02*
X126940477Y-115876189D01*
X126940477Y-115876189D02*
X126892858Y-115971427D01*
X126892858Y-115971427D02*
X126892858Y-116257141D01*
X126892858Y-116257141D02*
X126940477Y-116352379D01*
X126940477Y-116352379D02*
X126988096Y-116399999D01*
X126988096Y-116399999D02*
X127083334Y-116447618D01*
X127083334Y-116447618D02*
X127226191Y-116447618D01*
X126607143Y-115780951D02*
X126226191Y-115780951D01*
X126464286Y-116447618D02*
X126464286Y-115590475D01*
X126464286Y-115590475D02*
X126416667Y-115495237D01*
X126416667Y-115495237D02*
X126321429Y-115447618D01*
X126321429Y-115447618D02*
X126226191Y-115447618D01*
X125511905Y-116399999D02*
X125607143Y-116447618D01*
X125607143Y-116447618D02*
X125797619Y-116447618D01*
X125797619Y-116447618D02*
X125892857Y-116399999D01*
X125892857Y-116399999D02*
X125940476Y-116304760D01*
X125940476Y-116304760D02*
X125940476Y-115923808D01*
X125940476Y-115923808D02*
X125892857Y-115828570D01*
X125892857Y-115828570D02*
X125797619Y-115780951D01*
X125797619Y-115780951D02*
X125607143Y-115780951D01*
X125607143Y-115780951D02*
X125511905Y-115828570D01*
X125511905Y-115828570D02*
X125464286Y-115923808D01*
X125464286Y-115923808D02*
X125464286Y-116019046D01*
X125464286Y-116019046D02*
X125940476Y-116114284D01*
X125083333Y-116399999D02*
X124988095Y-116447618D01*
X124988095Y-116447618D02*
X124797619Y-116447618D01*
X124797619Y-116447618D02*
X124702381Y-116399999D01*
X124702381Y-116399999D02*
X124654762Y-116304760D01*
X124654762Y-116304760D02*
X124654762Y-116257141D01*
X124654762Y-116257141D02*
X124702381Y-116161903D01*
X124702381Y-116161903D02*
X124797619Y-116114284D01*
X124797619Y-116114284D02*
X124940476Y-116114284D01*
X124940476Y-116114284D02*
X125035714Y-116066665D01*
X125035714Y-116066665D02*
X125083333Y-115971427D01*
X125083333Y-115971427D02*
X125083333Y-115923808D01*
X125083333Y-115923808D02*
X125035714Y-115828570D01*
X125035714Y-115828570D02*
X124940476Y-115780951D01*
X124940476Y-115780951D02*
X124797619Y-115780951D01*
X124797619Y-115780951D02*
X124702381Y-115828570D01*
X124273809Y-116399999D02*
X124178571Y-116447618D01*
X124178571Y-116447618D02*
X123988095Y-116447618D01*
X123988095Y-116447618D02*
X123892857Y-116399999D01*
X123892857Y-116399999D02*
X123845238Y-116304760D01*
X123845238Y-116304760D02*
X123845238Y-116257141D01*
X123845238Y-116257141D02*
X123892857Y-116161903D01*
X123892857Y-116161903D02*
X123988095Y-116114284D01*
X123988095Y-116114284D02*
X124130952Y-116114284D01*
X124130952Y-116114284D02*
X124226190Y-116066665D01*
X124226190Y-116066665D02*
X124273809Y-115971427D01*
X124273809Y-115971427D02*
X124273809Y-115923808D01*
X124273809Y-115923808D02*
X124226190Y-115828570D01*
X124226190Y-115828570D02*
X124130952Y-115780951D01*
X124130952Y-115780951D02*
X123988095Y-115780951D01*
X123988095Y-115780951D02*
X123892857Y-115828570D01*
X123273809Y-116447618D02*
X123369047Y-116399999D01*
X123369047Y-116399999D02*
X123416666Y-116352379D01*
X123416666Y-116352379D02*
X123464285Y-116257141D01*
X123464285Y-116257141D02*
X123464285Y-115971427D01*
X123464285Y-115971427D02*
X123416666Y-115876189D01*
X123416666Y-115876189D02*
X123369047Y-115828570D01*
X123369047Y-115828570D02*
X123273809Y-115780951D01*
X123273809Y-115780951D02*
X123130952Y-115780951D01*
X123130952Y-115780951D02*
X123035714Y-115828570D01*
X123035714Y-115828570D02*
X122988095Y-115876189D01*
X122988095Y-115876189D02*
X122940476Y-115971427D01*
X122940476Y-115971427D02*
X122940476Y-116257141D01*
X122940476Y-116257141D02*
X122988095Y-116352379D01*
X122988095Y-116352379D02*
X123035714Y-116399999D01*
X123035714Y-116399999D02*
X123130952Y-116447618D01*
X123130952Y-116447618D02*
X123273809Y-116447618D01*
X122511904Y-116447618D02*
X122511904Y-115780951D01*
X122511904Y-115971427D02*
X122464285Y-115876189D01*
X122464285Y-115876189D02*
X122416666Y-115828570D01*
X122416666Y-115828570D02*
X122321428Y-115780951D01*
X122321428Y-115780951D02*
X122226190Y-115780951D01*
X120845237Y-115447618D02*
X120845237Y-116161903D01*
X120845237Y-116161903D02*
X120892856Y-116304760D01*
X120892856Y-116304760D02*
X120988094Y-116399999D01*
X120988094Y-116399999D02*
X121130951Y-116447618D01*
X121130951Y-116447618D02*
X121226189Y-116447618D01*
X120226189Y-116447618D02*
X120321427Y-116399999D01*
X120321427Y-116399999D02*
X120369046Y-116352379D01*
X120369046Y-116352379D02*
X120416665Y-116257141D01*
X120416665Y-116257141D02*
X120416665Y-115971427D01*
X120416665Y-115971427D02*
X120369046Y-115876189D01*
X120369046Y-115876189D02*
X120321427Y-115828570D01*
X120321427Y-115828570D02*
X120226189Y-115780951D01*
X120226189Y-115780951D02*
X120083332Y-115780951D01*
X120083332Y-115780951D02*
X119988094Y-115828570D01*
X119988094Y-115828570D02*
X119940475Y-115876189D01*
X119940475Y-115876189D02*
X119892856Y-115971427D01*
X119892856Y-115971427D02*
X119892856Y-116257141D01*
X119892856Y-116257141D02*
X119940475Y-116352379D01*
X119940475Y-116352379D02*
X119988094Y-116399999D01*
X119988094Y-116399999D02*
X120083332Y-116447618D01*
X120083332Y-116447618D02*
X120226189Y-116447618D01*
X119511903Y-116399999D02*
X119416665Y-116447618D01*
X119416665Y-116447618D02*
X119226189Y-116447618D01*
X119226189Y-116447618D02*
X119130951Y-116399999D01*
X119130951Y-116399999D02*
X119083332Y-116304760D01*
X119083332Y-116304760D02*
X119083332Y-116257141D01*
X119083332Y-116257141D02*
X119130951Y-116161903D01*
X119130951Y-116161903D02*
X119226189Y-116114284D01*
X119226189Y-116114284D02*
X119369046Y-116114284D01*
X119369046Y-116114284D02*
X119464284Y-116066665D01*
X119464284Y-116066665D02*
X119511903Y-115971427D01*
X119511903Y-115971427D02*
X119511903Y-115923808D01*
X119511903Y-115923808D02*
X119464284Y-115828570D01*
X119464284Y-115828570D02*
X119369046Y-115780951D01*
X119369046Y-115780951D02*
X119226189Y-115780951D01*
X119226189Y-115780951D02*
X119130951Y-115828570D01*
X118273808Y-116399999D02*
X118369046Y-116447618D01*
X118369046Y-116447618D02*
X118559522Y-116447618D01*
X118559522Y-116447618D02*
X118654760Y-116399999D01*
X118654760Y-116399999D02*
X118702379Y-116304760D01*
X118702379Y-116304760D02*
X118702379Y-115923808D01*
X118702379Y-115923808D02*
X118654760Y-115828570D01*
X118654760Y-115828570D02*
X118559522Y-115780951D01*
X118559522Y-115780951D02*
X118369046Y-115780951D01*
X118369046Y-115780951D02*
X118273808Y-115828570D01*
X118273808Y-115828570D02*
X118226189Y-115923808D01*
X118226189Y-115923808D02*
X118226189Y-116019046D01*
X118226189Y-116019046D02*
X118702379Y-116114284D01*
X117797617Y-115780951D02*
X117797617Y-116780951D01*
X117797617Y-115828570D02*
X117702379Y-115780951D01*
X117702379Y-115780951D02*
X117511903Y-115780951D01*
X117511903Y-115780951D02*
X117416665Y-115828570D01*
X117416665Y-115828570D02*
X117369046Y-115876189D01*
X117369046Y-115876189D02*
X117321427Y-115971427D01*
X117321427Y-115971427D02*
X117321427Y-116257141D01*
X117321427Y-116257141D02*
X117369046Y-116352379D01*
X117369046Y-116352379D02*
X117416665Y-116399999D01*
X117416665Y-116399999D02*
X117511903Y-116447618D01*
X117511903Y-116447618D02*
X117702379Y-116447618D01*
X117702379Y-116447618D02*
X117797617Y-116399999D01*
X116892855Y-116447618D02*
X116892855Y-115447618D01*
X116464284Y-116447618D02*
X116464284Y-115923808D01*
X116464284Y-115923808D02*
X116511903Y-115828570D01*
X116511903Y-115828570D02*
X116607141Y-115780951D01*
X116607141Y-115780951D02*
X116749998Y-115780951D01*
X116749998Y-115780951D02*
X116845236Y-115828570D01*
X116845236Y-115828570D02*
X116892855Y-115876189D01*
X114892855Y-115923808D02*
X114749998Y-115971427D01*
X114749998Y-115971427D02*
X114702379Y-116019046D01*
X114702379Y-116019046D02*
X114654760Y-116114284D01*
X114654760Y-116114284D02*
X114654760Y-116257141D01*
X114654760Y-116257141D02*
X114702379Y-116352379D01*
X114702379Y-116352379D02*
X114749998Y-116399999D01*
X114749998Y-116399999D02*
X114845236Y-116447618D01*
X114845236Y-116447618D02*
X115226188Y-116447618D01*
X115226188Y-116447618D02*
X115226188Y-115447618D01*
X115226188Y-115447618D02*
X114892855Y-115447618D01*
X114892855Y-115447618D02*
X114797617Y-115495237D01*
X114797617Y-115495237D02*
X114749998Y-115542856D01*
X114749998Y-115542856D02*
X114702379Y-115638094D01*
X114702379Y-115638094D02*
X114702379Y-115733332D01*
X114702379Y-115733332D02*
X114749998Y-115828570D01*
X114749998Y-115828570D02*
X114797617Y-115876189D01*
X114797617Y-115876189D02*
X114892855Y-115923808D01*
X114892855Y-115923808D02*
X115226188Y-115923808D01*
X114083331Y-116447618D02*
X114178569Y-116399999D01*
X114178569Y-116399999D02*
X114226188Y-116352379D01*
X114226188Y-116352379D02*
X114273807Y-116257141D01*
X114273807Y-116257141D02*
X114273807Y-115971427D01*
X114273807Y-115971427D02*
X114226188Y-115876189D01*
X114226188Y-115876189D02*
X114178569Y-115828570D01*
X114178569Y-115828570D02*
X114083331Y-115780951D01*
X114083331Y-115780951D02*
X113940474Y-115780951D01*
X113940474Y-115780951D02*
X113845236Y-115828570D01*
X113845236Y-115828570D02*
X113797617Y-115876189D01*
X113797617Y-115876189D02*
X113749998Y-115971427D01*
X113749998Y-115971427D02*
X113749998Y-116257141D01*
X113749998Y-116257141D02*
X113797617Y-116352379D01*
X113797617Y-116352379D02*
X113845236Y-116399999D01*
X113845236Y-116399999D02*
X113940474Y-116447618D01*
X113940474Y-116447618D02*
X114083331Y-116447618D01*
X113321426Y-116447618D02*
X113321426Y-115780951D01*
X113321426Y-115971427D02*
X113273807Y-115876189D01*
X113273807Y-115876189D02*
X113226188Y-115828570D01*
X113226188Y-115828570D02*
X113130950Y-115780951D01*
X113130950Y-115780951D02*
X113035712Y-115780951D01*
X112559521Y-116447618D02*
X112654759Y-116399999D01*
X112654759Y-116399999D02*
X112702378Y-116352379D01*
X112702378Y-116352379D02*
X112749997Y-116257141D01*
X112749997Y-116257141D02*
X112749997Y-115971427D01*
X112749997Y-115971427D02*
X112702378Y-115876189D01*
X112702378Y-115876189D02*
X112654759Y-115828570D01*
X112654759Y-115828570D02*
X112559521Y-115780951D01*
X112559521Y-115780951D02*
X112416664Y-115780951D01*
X112416664Y-115780951D02*
X112321426Y-115828570D01*
X112321426Y-115828570D02*
X112273807Y-115876189D01*
X112273807Y-115876189D02*
X112226188Y-115971427D01*
X112226188Y-115971427D02*
X112226188Y-116257141D01*
X112226188Y-116257141D02*
X112273807Y-116352379D01*
X112273807Y-116352379D02*
X112321426Y-116399999D01*
X112321426Y-116399999D02*
X112416664Y-116447618D01*
X112416664Y-116447618D02*
X112559521Y-116447618D01*
X111892854Y-115780951D02*
X111702378Y-116447618D01*
X111702378Y-116447618D02*
X111511902Y-115971427D01*
X111511902Y-115971427D02*
X111321426Y-116447618D01*
X111321426Y-116447618D02*
X111130950Y-115780951D01*
X110749997Y-116447618D02*
X110749997Y-115780951D01*
X110749997Y-115447618D02*
X110797616Y-115495237D01*
X110797616Y-115495237D02*
X110749997Y-115542856D01*
X110749997Y-115542856D02*
X110702378Y-115495237D01*
X110702378Y-115495237D02*
X110749997Y-115447618D01*
X110749997Y-115447618D02*
X110749997Y-115542856D01*
X109892855Y-116399999D02*
X109988093Y-116447618D01*
X109988093Y-116447618D02*
X110178569Y-116447618D01*
X110178569Y-116447618D02*
X110273807Y-116399999D01*
X110273807Y-116399999D02*
X110321426Y-116304760D01*
X110321426Y-116304760D02*
X110321426Y-115923808D01*
X110321426Y-115923808D02*
X110273807Y-115828570D01*
X110273807Y-115828570D02*
X110178569Y-115780951D01*
X110178569Y-115780951D02*
X109988093Y-115780951D01*
X109988093Y-115780951D02*
X109892855Y-115828570D01*
X109892855Y-115828570D02*
X109845236Y-115923808D01*
X109845236Y-115923808D02*
X109845236Y-116019046D01*
X109845236Y-116019046D02*
X110321426Y-116114284D01*
X108988093Y-116399999D02*
X109083331Y-116447618D01*
X109083331Y-116447618D02*
X109273807Y-116447618D01*
X109273807Y-116447618D02*
X109369045Y-116399999D01*
X109369045Y-116399999D02*
X109416664Y-116352379D01*
X109416664Y-116352379D02*
X109464283Y-116257141D01*
X109464283Y-116257141D02*
X109464283Y-115971427D01*
X109464283Y-115971427D02*
X109416664Y-115876189D01*
X109416664Y-115876189D02*
X109369045Y-115828570D01*
X109369045Y-115828570D02*
X109273807Y-115780951D01*
X109273807Y-115780951D02*
X109083331Y-115780951D01*
X109083331Y-115780951D02*
X108988093Y-115828570D01*
X124059523Y-118067618D02*
X124059523Y-117067618D01*
X124059523Y-117067618D02*
X123726190Y-117781903D01*
X123726190Y-117781903D02*
X123392857Y-117067618D01*
X123392857Y-117067618D02*
X123392857Y-118067618D01*
X122916666Y-118067618D02*
X122916666Y-117400951D01*
X122916666Y-117067618D02*
X122964285Y-117115237D01*
X122964285Y-117115237D02*
X122916666Y-117162856D01*
X122916666Y-117162856D02*
X122869047Y-117115237D01*
X122869047Y-117115237D02*
X122916666Y-117067618D01*
X122916666Y-117067618D02*
X122916666Y-117162856D01*
X122011905Y-118019999D02*
X122107143Y-118067618D01*
X122107143Y-118067618D02*
X122297619Y-118067618D01*
X122297619Y-118067618D02*
X122392857Y-118019999D01*
X122392857Y-118019999D02*
X122440476Y-117972379D01*
X122440476Y-117972379D02*
X122488095Y-117877141D01*
X122488095Y-117877141D02*
X122488095Y-117591427D01*
X122488095Y-117591427D02*
X122440476Y-117496189D01*
X122440476Y-117496189D02*
X122392857Y-117448570D01*
X122392857Y-117448570D02*
X122297619Y-117400951D01*
X122297619Y-117400951D02*
X122107143Y-117400951D01*
X122107143Y-117400951D02*
X122011905Y-117448570D01*
X121583333Y-118067618D02*
X121583333Y-117067618D01*
X121154762Y-118067618D02*
X121154762Y-117543808D01*
X121154762Y-117543808D02*
X121202381Y-117448570D01*
X121202381Y-117448570D02*
X121297619Y-117400951D01*
X121297619Y-117400951D02*
X121440476Y-117400951D01*
X121440476Y-117400951D02*
X121535714Y-117448570D01*
X121535714Y-117448570D02*
X121583333Y-117496189D01*
X120250000Y-118067618D02*
X120250000Y-117543808D01*
X120250000Y-117543808D02*
X120297619Y-117448570D01*
X120297619Y-117448570D02*
X120392857Y-117400951D01*
X120392857Y-117400951D02*
X120583333Y-117400951D01*
X120583333Y-117400951D02*
X120678571Y-117448570D01*
X120250000Y-118019999D02*
X120345238Y-118067618D01*
X120345238Y-118067618D02*
X120583333Y-118067618D01*
X120583333Y-118067618D02*
X120678571Y-118019999D01*
X120678571Y-118019999D02*
X120726190Y-117924760D01*
X120726190Y-117924760D02*
X120726190Y-117829522D01*
X120726190Y-117829522D02*
X120678571Y-117734284D01*
X120678571Y-117734284D02*
X120583333Y-117686665D01*
X120583333Y-117686665D02*
X120345238Y-117686665D01*
X120345238Y-117686665D02*
X120250000Y-117639046D01*
X119392857Y-118019999D02*
X119488095Y-118067618D01*
X119488095Y-118067618D02*
X119678571Y-118067618D01*
X119678571Y-118067618D02*
X119773809Y-118019999D01*
X119773809Y-118019999D02*
X119821428Y-117924760D01*
X119821428Y-117924760D02*
X119821428Y-117543808D01*
X119821428Y-117543808D02*
X119773809Y-117448570D01*
X119773809Y-117448570D02*
X119678571Y-117400951D01*
X119678571Y-117400951D02*
X119488095Y-117400951D01*
X119488095Y-117400951D02*
X119392857Y-117448570D01*
X119392857Y-117448570D02*
X119345238Y-117543808D01*
X119345238Y-117543808D02*
X119345238Y-117639046D01*
X119345238Y-117639046D02*
X119821428Y-117734284D01*
X118773809Y-118067618D02*
X118869047Y-118019999D01*
X118869047Y-118019999D02*
X118916666Y-117924760D01*
X118916666Y-117924760D02*
X118916666Y-117067618D01*
X117630951Y-118067618D02*
X117630951Y-117067618D01*
X117630951Y-117067618D02*
X117249999Y-117067618D01*
X117249999Y-117067618D02*
X117154761Y-117115237D01*
X117154761Y-117115237D02*
X117107142Y-117162856D01*
X117107142Y-117162856D02*
X117059523Y-117258094D01*
X117059523Y-117258094D02*
X117059523Y-117400951D01*
X117059523Y-117400951D02*
X117107142Y-117496189D01*
X117107142Y-117496189D02*
X117154761Y-117543808D01*
X117154761Y-117543808D02*
X117249999Y-117591427D01*
X117249999Y-117591427D02*
X117630951Y-117591427D01*
X116630951Y-118067618D02*
X116630951Y-117067618D01*
X116202380Y-118067618D02*
X116202380Y-117543808D01*
X116202380Y-117543808D02*
X116249999Y-117448570D01*
X116249999Y-117448570D02*
X116345237Y-117400951D01*
X116345237Y-117400951D02*
X116488094Y-117400951D01*
X116488094Y-117400951D02*
X116583332Y-117448570D01*
X116583332Y-117448570D02*
X116630951Y-117496189D01*
X115297618Y-118067618D02*
X115297618Y-117543808D01*
X115297618Y-117543808D02*
X115345237Y-117448570D01*
X115345237Y-117448570D02*
X115440475Y-117400951D01*
X115440475Y-117400951D02*
X115630951Y-117400951D01*
X115630951Y-117400951D02*
X115726189Y-117448570D01*
X115297618Y-118019999D02*
X115392856Y-118067618D01*
X115392856Y-118067618D02*
X115630951Y-118067618D01*
X115630951Y-118067618D02*
X115726189Y-118019999D01*
X115726189Y-118019999D02*
X115773808Y-117924760D01*
X115773808Y-117924760D02*
X115773808Y-117829522D01*
X115773808Y-117829522D02*
X115726189Y-117734284D01*
X115726189Y-117734284D02*
X115630951Y-117686665D01*
X115630951Y-117686665D02*
X115392856Y-117686665D01*
X115392856Y-117686665D02*
X115297618Y-117639046D01*
X114821427Y-118067618D02*
X114821427Y-117400951D01*
X114821427Y-117496189D02*
X114773808Y-117448570D01*
X114773808Y-117448570D02*
X114678570Y-117400951D01*
X114678570Y-117400951D02*
X114535713Y-117400951D01*
X114535713Y-117400951D02*
X114440475Y-117448570D01*
X114440475Y-117448570D02*
X114392856Y-117543808D01*
X114392856Y-117543808D02*
X114392856Y-118067618D01*
X114392856Y-117543808D02*
X114345237Y-117448570D01*
X114345237Y-117448570D02*
X114249999Y-117400951D01*
X114249999Y-117400951D02*
X114107142Y-117400951D01*
X114107142Y-117400951D02*
X114011903Y-117448570D01*
X114011903Y-117448570D02*
X113964284Y-117543808D01*
X113964284Y-117543808D02*
X113964284Y-118067618D01*
X123654762Y-119163808D02*
X123988095Y-119163808D01*
X123988095Y-119687618D02*
X123988095Y-118687618D01*
X123988095Y-118687618D02*
X123511905Y-118687618D01*
X122988095Y-119687618D02*
X123083333Y-119639999D01*
X123083333Y-119639999D02*
X123130952Y-119544760D01*
X123130952Y-119544760D02*
X123130952Y-118687618D01*
X122702380Y-119020951D02*
X122464285Y-119687618D01*
X122226190Y-119020951D02*
X122464285Y-119687618D01*
X122464285Y-119687618D02*
X122559523Y-119925713D01*
X122559523Y-119925713D02*
X122607142Y-119973332D01*
X122607142Y-119973332D02*
X122702380Y-120020951D01*
X121845237Y-119020951D02*
X121845237Y-119687618D01*
X121845237Y-119116189D02*
X121797618Y-119068570D01*
X121797618Y-119068570D02*
X121702380Y-119020951D01*
X121702380Y-119020951D02*
X121559523Y-119020951D01*
X121559523Y-119020951D02*
X121464285Y-119068570D01*
X121464285Y-119068570D02*
X121416666Y-119163808D01*
X121416666Y-119163808D02*
X121416666Y-119687618D01*
X120940475Y-119020951D02*
X120940475Y-119687618D01*
X120940475Y-119116189D02*
X120892856Y-119068570D01*
X120892856Y-119068570D02*
X120797618Y-119020951D01*
X120797618Y-119020951D02*
X120654761Y-119020951D01*
X120654761Y-119020951D02*
X120559523Y-119068570D01*
X120559523Y-119068570D02*
X120511904Y-119163808D01*
X120511904Y-119163808D02*
X120511904Y-119687618D01*
X119273808Y-119687618D02*
X119273808Y-118687618D01*
X119273808Y-118687618D02*
X119035713Y-118687618D01*
X119035713Y-118687618D02*
X118892856Y-118735237D01*
X118892856Y-118735237D02*
X118797618Y-118830475D01*
X118797618Y-118830475D02*
X118749999Y-118925713D01*
X118749999Y-118925713D02*
X118702380Y-119116189D01*
X118702380Y-119116189D02*
X118702380Y-119259046D01*
X118702380Y-119259046D02*
X118749999Y-119449522D01*
X118749999Y-119449522D02*
X118797618Y-119544760D01*
X118797618Y-119544760D02*
X118892856Y-119639999D01*
X118892856Y-119639999D02*
X119035713Y-119687618D01*
X119035713Y-119687618D02*
X119273808Y-119687618D01*
X118273808Y-119687618D02*
X118273808Y-119020951D01*
X118273808Y-119211427D02*
X118226189Y-119116189D01*
X118226189Y-119116189D02*
X118178570Y-119068570D01*
X118178570Y-119068570D02*
X118083332Y-119020951D01*
X118083332Y-119020951D02*
X117988094Y-119020951D01*
X117273808Y-119639999D02*
X117369046Y-119687618D01*
X117369046Y-119687618D02*
X117559522Y-119687618D01*
X117559522Y-119687618D02*
X117654760Y-119639999D01*
X117654760Y-119639999D02*
X117702379Y-119544760D01*
X117702379Y-119544760D02*
X117702379Y-119163808D01*
X117702379Y-119163808D02*
X117654760Y-119068570D01*
X117654760Y-119068570D02*
X117559522Y-119020951D01*
X117559522Y-119020951D02*
X117369046Y-119020951D01*
X117369046Y-119020951D02*
X117273808Y-119068570D01*
X117273808Y-119068570D02*
X117226189Y-119163808D01*
X117226189Y-119163808D02*
X117226189Y-119259046D01*
X117226189Y-119259046D02*
X117702379Y-119354284D01*
X116797617Y-119687618D02*
X116797617Y-119020951D01*
X116797617Y-118687618D02*
X116845236Y-118735237D01*
X116845236Y-118735237D02*
X116797617Y-118782856D01*
X116797617Y-118782856D02*
X116749998Y-118735237D01*
X116749998Y-118735237D02*
X116797617Y-118687618D01*
X116797617Y-118687618D02*
X116797617Y-118782856D01*
X116178570Y-119687618D02*
X116273808Y-119639999D01*
X116273808Y-119639999D02*
X116321427Y-119544760D01*
X116321427Y-119544760D02*
X116321427Y-118687618D01*
X115797617Y-119687618D02*
X115797617Y-119020951D01*
X115797617Y-118687618D02*
X115845236Y-118735237D01*
X115845236Y-118735237D02*
X115797617Y-118782856D01*
X115797617Y-118782856D02*
X115749998Y-118735237D01*
X115749998Y-118735237D02*
X115797617Y-118687618D01*
X115797617Y-118687618D02*
X115797617Y-118782856D01*
X115321427Y-119020951D02*
X115321427Y-119687618D01*
X115321427Y-119116189D02*
X115273808Y-119068570D01*
X115273808Y-119068570D02*
X115178570Y-119020951D01*
X115178570Y-119020951D02*
X115035713Y-119020951D01*
X115035713Y-119020951D02*
X114940475Y-119068570D01*
X114940475Y-119068570D02*
X114892856Y-119163808D01*
X114892856Y-119163808D02*
X114892856Y-119687618D01*
X113988094Y-119020951D02*
X113988094Y-119830475D01*
X113988094Y-119830475D02*
X114035713Y-119925713D01*
X114035713Y-119925713D02*
X114083332Y-119973332D01*
X114083332Y-119973332D02*
X114178570Y-120020951D01*
X114178570Y-120020951D02*
X114321427Y-120020951D01*
X114321427Y-120020951D02*
X114416665Y-119973332D01*
X113988094Y-119639999D02*
X114083332Y-119687618D01*
X114083332Y-119687618D02*
X114273808Y-119687618D01*
X114273808Y-119687618D02*
X114369046Y-119639999D01*
X114369046Y-119639999D02*
X114416665Y-119592379D01*
X114416665Y-119592379D02*
X114464284Y-119497141D01*
X114464284Y-119497141D02*
X114464284Y-119211427D01*
X114464284Y-119211427D02*
X114416665Y-119116189D01*
X114416665Y-119116189D02*
X114369046Y-119068570D01*
X114369046Y-119068570D02*
X114273808Y-119020951D01*
X114273808Y-119020951D02*
X114083332Y-119020951D01*
X114083332Y-119020951D02*
X113988094Y-119068570D01*
X113130951Y-119639999D02*
X113226189Y-119687618D01*
X113226189Y-119687618D02*
X113416665Y-119687618D01*
X113416665Y-119687618D02*
X113511903Y-119639999D01*
X113511903Y-119639999D02*
X113559522Y-119544760D01*
X113559522Y-119544760D02*
X113559522Y-119163808D01*
X113559522Y-119163808D02*
X113511903Y-119068570D01*
X113511903Y-119068570D02*
X113416665Y-119020951D01*
X113416665Y-119020951D02*
X113226189Y-119020951D01*
X113226189Y-119020951D02*
X113130951Y-119068570D01*
X113130951Y-119068570D02*
X113083332Y-119163808D01*
X113083332Y-119163808D02*
X113083332Y-119259046D01*
X113083332Y-119259046D02*
X113559522Y-119354284D01*
X112654760Y-119687618D02*
X112654760Y-119020951D01*
X112654760Y-119211427D02*
X112607141Y-119116189D01*
X112607141Y-119116189D02*
X112559522Y-119068570D01*
X112559522Y-119068570D02*
X112464284Y-119020951D01*
X112464284Y-119020951D02*
X112369046Y-119020951D01*
X146773813Y-137957618D02*
X146773813Y-138148094D01*
X146392861Y-137957618D02*
X146392861Y-138148094D01*
X145440480Y-138005237D02*
X145535718Y-137957618D01*
X145535718Y-137957618D02*
X145678575Y-137957618D01*
X145678575Y-137957618D02*
X145821432Y-138005237D01*
X145821432Y-138005237D02*
X145916670Y-138100475D01*
X145916670Y-138100475D02*
X145964289Y-138195713D01*
X145964289Y-138195713D02*
X146011908Y-138386189D01*
X146011908Y-138386189D02*
X146011908Y-138529046D01*
X146011908Y-138529046D02*
X145964289Y-138719522D01*
X145964289Y-138719522D02*
X145916670Y-138814760D01*
X145916670Y-138814760D02*
X145821432Y-138909999D01*
X145821432Y-138909999D02*
X145678575Y-138957618D01*
X145678575Y-138957618D02*
X145583337Y-138957618D01*
X145583337Y-138957618D02*
X145440480Y-138909999D01*
X145440480Y-138909999D02*
X145392861Y-138862379D01*
X145392861Y-138862379D02*
X145392861Y-138529046D01*
X145392861Y-138529046D02*
X145583337Y-138529046D01*
X144821432Y-138957618D02*
X144916670Y-138909999D01*
X144916670Y-138909999D02*
X144964289Y-138862379D01*
X144964289Y-138862379D02*
X145011908Y-138767141D01*
X145011908Y-138767141D02*
X145011908Y-138481427D01*
X145011908Y-138481427D02*
X144964289Y-138386189D01*
X144964289Y-138386189D02*
X144916670Y-138338570D01*
X144916670Y-138338570D02*
X144821432Y-138290951D01*
X144821432Y-138290951D02*
X144678575Y-138290951D01*
X144678575Y-138290951D02*
X144583337Y-138338570D01*
X144583337Y-138338570D02*
X144535718Y-138386189D01*
X144535718Y-138386189D02*
X144488099Y-138481427D01*
X144488099Y-138481427D02*
X144488099Y-138767141D01*
X144488099Y-138767141D02*
X144535718Y-138862379D01*
X144535718Y-138862379D02*
X144583337Y-138909999D01*
X144583337Y-138909999D02*
X144678575Y-138957618D01*
X144678575Y-138957618D02*
X144821432Y-138957618D01*
X143630956Y-138957618D02*
X143630956Y-137957618D01*
X143630956Y-138909999D02*
X143726194Y-138957618D01*
X143726194Y-138957618D02*
X143916670Y-138957618D01*
X143916670Y-138957618D02*
X144011908Y-138909999D01*
X144011908Y-138909999D02*
X144059527Y-138862379D01*
X144059527Y-138862379D02*
X144107146Y-138767141D01*
X144107146Y-138767141D02*
X144107146Y-138481427D01*
X144107146Y-138481427D02*
X144059527Y-138386189D01*
X144059527Y-138386189D02*
X144011908Y-138338570D01*
X144011908Y-138338570D02*
X143916670Y-138290951D01*
X143916670Y-138290951D02*
X143726194Y-138290951D01*
X143726194Y-138290951D02*
X143630956Y-138338570D01*
X142392860Y-138957618D02*
X142392860Y-138290951D01*
X142392860Y-137957618D02*
X142440479Y-138005237D01*
X142440479Y-138005237D02*
X142392860Y-138052856D01*
X142392860Y-138052856D02*
X142345241Y-138005237D01*
X142345241Y-138005237D02*
X142392860Y-137957618D01*
X142392860Y-137957618D02*
X142392860Y-138052856D01*
X141964289Y-138909999D02*
X141869051Y-138957618D01*
X141869051Y-138957618D02*
X141678575Y-138957618D01*
X141678575Y-138957618D02*
X141583337Y-138909999D01*
X141583337Y-138909999D02*
X141535718Y-138814760D01*
X141535718Y-138814760D02*
X141535718Y-138767141D01*
X141535718Y-138767141D02*
X141583337Y-138671903D01*
X141583337Y-138671903D02*
X141678575Y-138624284D01*
X141678575Y-138624284D02*
X141821432Y-138624284D01*
X141821432Y-138624284D02*
X141916670Y-138576665D01*
X141916670Y-138576665D02*
X141964289Y-138481427D01*
X141964289Y-138481427D02*
X141964289Y-138433808D01*
X141964289Y-138433808D02*
X141916670Y-138338570D01*
X141916670Y-138338570D02*
X141821432Y-138290951D01*
X141821432Y-138290951D02*
X141678575Y-138290951D01*
X141678575Y-138290951D02*
X141583337Y-138338570D01*
X140202384Y-138957618D02*
X140297622Y-138909999D01*
X140297622Y-138909999D02*
X140345241Y-138814760D01*
X140345241Y-138814760D02*
X140345241Y-137957618D01*
X139678574Y-138957618D02*
X139773812Y-138909999D01*
X139773812Y-138909999D02*
X139821431Y-138862379D01*
X139821431Y-138862379D02*
X139869050Y-138767141D01*
X139869050Y-138767141D02*
X139869050Y-138481427D01*
X139869050Y-138481427D02*
X139821431Y-138386189D01*
X139821431Y-138386189D02*
X139773812Y-138338570D01*
X139773812Y-138338570D02*
X139678574Y-138290951D01*
X139678574Y-138290951D02*
X139535717Y-138290951D01*
X139535717Y-138290951D02*
X139440479Y-138338570D01*
X139440479Y-138338570D02*
X139392860Y-138386189D01*
X139392860Y-138386189D02*
X139345241Y-138481427D01*
X139345241Y-138481427D02*
X139345241Y-138767141D01*
X139345241Y-138767141D02*
X139392860Y-138862379D01*
X139392860Y-138862379D02*
X139440479Y-138909999D01*
X139440479Y-138909999D02*
X139535717Y-138957618D01*
X139535717Y-138957618D02*
X139678574Y-138957618D01*
X139011907Y-138290951D02*
X138773812Y-138957618D01*
X138773812Y-138957618D02*
X138535717Y-138290951D01*
X137773812Y-138909999D02*
X137869050Y-138957618D01*
X137869050Y-138957618D02*
X138059526Y-138957618D01*
X138059526Y-138957618D02*
X138154764Y-138909999D01*
X138154764Y-138909999D02*
X138202383Y-138814760D01*
X138202383Y-138814760D02*
X138202383Y-138433808D01*
X138202383Y-138433808D02*
X138154764Y-138338570D01*
X138154764Y-138338570D02*
X138059526Y-138290951D01*
X138059526Y-138290951D02*
X137869050Y-138290951D01*
X137869050Y-138290951D02*
X137773812Y-138338570D01*
X137773812Y-138338570D02*
X137726193Y-138433808D01*
X137726193Y-138433808D02*
X137726193Y-138529046D01*
X137726193Y-138529046D02*
X138202383Y-138624284D01*
X137345240Y-137957618D02*
X137345240Y-138148094D01*
X136964288Y-137957618D02*
X136964288Y-138148094D01*
X135773811Y-138576665D02*
X135011907Y-138576665D01*
X133773811Y-138957618D02*
X133773811Y-137957618D01*
X133773811Y-137957618D02*
X133440478Y-138671903D01*
X133440478Y-138671903D02*
X133107145Y-137957618D01*
X133107145Y-137957618D02*
X133107145Y-138957618D01*
X132630954Y-138957618D02*
X132630954Y-138290951D01*
X132630954Y-137957618D02*
X132678573Y-138005237D01*
X132678573Y-138005237D02*
X132630954Y-138052856D01*
X132630954Y-138052856D02*
X132583335Y-138005237D01*
X132583335Y-138005237D02*
X132630954Y-137957618D01*
X132630954Y-137957618D02*
X132630954Y-138052856D01*
X131726193Y-138909999D02*
X131821431Y-138957618D01*
X131821431Y-138957618D02*
X132011907Y-138957618D01*
X132011907Y-138957618D02*
X132107145Y-138909999D01*
X132107145Y-138909999D02*
X132154764Y-138862379D01*
X132154764Y-138862379D02*
X132202383Y-138767141D01*
X132202383Y-138767141D02*
X132202383Y-138481427D01*
X132202383Y-138481427D02*
X132154764Y-138386189D01*
X132154764Y-138386189D02*
X132107145Y-138338570D01*
X132107145Y-138338570D02*
X132011907Y-138290951D01*
X132011907Y-138290951D02*
X131821431Y-138290951D01*
X131821431Y-138290951D02*
X131726193Y-138338570D01*
X131297621Y-138957618D02*
X131297621Y-137957618D01*
X130869050Y-138957618D02*
X130869050Y-138433808D01*
X130869050Y-138433808D02*
X130916669Y-138338570D01*
X130916669Y-138338570D02*
X131011907Y-138290951D01*
X131011907Y-138290951D02*
X131154764Y-138290951D01*
X131154764Y-138290951D02*
X131250002Y-138338570D01*
X131250002Y-138338570D02*
X131297621Y-138386189D01*
X129964288Y-138957618D02*
X129964288Y-138433808D01*
X129964288Y-138433808D02*
X130011907Y-138338570D01*
X130011907Y-138338570D02*
X130107145Y-138290951D01*
X130107145Y-138290951D02*
X130297621Y-138290951D01*
X130297621Y-138290951D02*
X130392859Y-138338570D01*
X129964288Y-138909999D02*
X130059526Y-138957618D01*
X130059526Y-138957618D02*
X130297621Y-138957618D01*
X130297621Y-138957618D02*
X130392859Y-138909999D01*
X130392859Y-138909999D02*
X130440478Y-138814760D01*
X130440478Y-138814760D02*
X130440478Y-138719522D01*
X130440478Y-138719522D02*
X130392859Y-138624284D01*
X130392859Y-138624284D02*
X130297621Y-138576665D01*
X130297621Y-138576665D02*
X130059526Y-138576665D01*
X130059526Y-138576665D02*
X129964288Y-138529046D01*
X129107145Y-138909999D02*
X129202383Y-138957618D01*
X129202383Y-138957618D02*
X129392859Y-138957618D01*
X129392859Y-138957618D02*
X129488097Y-138909999D01*
X129488097Y-138909999D02*
X129535716Y-138814760D01*
X129535716Y-138814760D02*
X129535716Y-138433808D01*
X129535716Y-138433808D02*
X129488097Y-138338570D01*
X129488097Y-138338570D02*
X129392859Y-138290951D01*
X129392859Y-138290951D02*
X129202383Y-138290951D01*
X129202383Y-138290951D02*
X129107145Y-138338570D01*
X129107145Y-138338570D02*
X129059526Y-138433808D01*
X129059526Y-138433808D02*
X129059526Y-138529046D01*
X129059526Y-138529046D02*
X129535716Y-138624284D01*
X128488097Y-138957618D02*
X128583335Y-138909999D01*
X128583335Y-138909999D02*
X128630954Y-138814760D01*
X128630954Y-138814760D02*
X128630954Y-137957618D01*
X126773811Y-138862379D02*
X126821430Y-138909999D01*
X126821430Y-138909999D02*
X126964287Y-138957618D01*
X126964287Y-138957618D02*
X127059525Y-138957618D01*
X127059525Y-138957618D02*
X127202382Y-138909999D01*
X127202382Y-138909999D02*
X127297620Y-138814760D01*
X127297620Y-138814760D02*
X127345239Y-138719522D01*
X127345239Y-138719522D02*
X127392858Y-138529046D01*
X127392858Y-138529046D02*
X127392858Y-138386189D01*
X127392858Y-138386189D02*
X127345239Y-138195713D01*
X127345239Y-138195713D02*
X127297620Y-138100475D01*
X127297620Y-138100475D02*
X127202382Y-138005237D01*
X127202382Y-138005237D02*
X127059525Y-137957618D01*
X127059525Y-137957618D02*
X126964287Y-137957618D01*
X126964287Y-137957618D02*
X126821430Y-138005237D01*
X126821430Y-138005237D02*
X126773811Y-138052856D01*
X126345239Y-138957618D02*
X126345239Y-137957618D01*
X125916668Y-138957618D02*
X125916668Y-138433808D01*
X125916668Y-138433808D02*
X125964287Y-138338570D01*
X125964287Y-138338570D02*
X126059525Y-138290951D01*
X126059525Y-138290951D02*
X126202382Y-138290951D01*
X126202382Y-138290951D02*
X126297620Y-138338570D01*
X126297620Y-138338570D02*
X126345239Y-138386189D01*
X125440477Y-138957618D02*
X125440477Y-138290951D01*
X125440477Y-137957618D02*
X125488096Y-138005237D01*
X125488096Y-138005237D02*
X125440477Y-138052856D01*
X125440477Y-138052856D02*
X125392858Y-138005237D01*
X125392858Y-138005237D02*
X125440477Y-137957618D01*
X125440477Y-137957618D02*
X125440477Y-138052856D01*
X124535716Y-138290951D02*
X124535716Y-139100475D01*
X124535716Y-139100475D02*
X124583335Y-139195713D01*
X124583335Y-139195713D02*
X124630954Y-139243332D01*
X124630954Y-139243332D02*
X124726192Y-139290951D01*
X124726192Y-139290951D02*
X124869049Y-139290951D01*
X124869049Y-139290951D02*
X124964287Y-139243332D01*
X124535716Y-138909999D02*
X124630954Y-138957618D01*
X124630954Y-138957618D02*
X124821430Y-138957618D01*
X124821430Y-138957618D02*
X124916668Y-138909999D01*
X124916668Y-138909999D02*
X124964287Y-138862379D01*
X124964287Y-138862379D02*
X125011906Y-138767141D01*
X125011906Y-138767141D02*
X125011906Y-138481427D01*
X125011906Y-138481427D02*
X124964287Y-138386189D01*
X124964287Y-138386189D02*
X124916668Y-138338570D01*
X124916668Y-138338570D02*
X124821430Y-138290951D01*
X124821430Y-138290951D02*
X124630954Y-138290951D01*
X124630954Y-138290951D02*
X124535716Y-138338570D01*
X123916668Y-138957618D02*
X124011906Y-138909999D01*
X124011906Y-138909999D02*
X124059525Y-138814760D01*
X124059525Y-138814760D02*
X124059525Y-137957618D01*
X123535715Y-138957618D02*
X123535715Y-138290951D01*
X123535715Y-137957618D02*
X123583334Y-138005237D01*
X123583334Y-138005237D02*
X123535715Y-138052856D01*
X123535715Y-138052856D02*
X123488096Y-138005237D01*
X123488096Y-138005237D02*
X123535715Y-137957618D01*
X123535715Y-137957618D02*
X123535715Y-138052856D01*
X123059525Y-138290951D02*
X123059525Y-138957618D01*
X123059525Y-138386189D02*
X123011906Y-138338570D01*
X123011906Y-138338570D02*
X122916668Y-138290951D01*
X122916668Y-138290951D02*
X122773811Y-138290951D01*
X122773811Y-138290951D02*
X122678573Y-138338570D01*
X122678573Y-138338570D02*
X122630954Y-138433808D01*
X122630954Y-138433808D02*
X122630954Y-138957618D01*
X122202382Y-138909999D02*
X122107144Y-138957618D01*
X122107144Y-138957618D02*
X121916668Y-138957618D01*
X121916668Y-138957618D02*
X121821430Y-138909999D01*
X121821430Y-138909999D02*
X121773811Y-138814760D01*
X121773811Y-138814760D02*
X121773811Y-138767141D01*
X121773811Y-138767141D02*
X121821430Y-138671903D01*
X121821430Y-138671903D02*
X121916668Y-138624284D01*
X121916668Y-138624284D02*
X122059525Y-138624284D01*
X122059525Y-138624284D02*
X122154763Y-138576665D01*
X122154763Y-138576665D02*
X122202382Y-138481427D01*
X122202382Y-138481427D02*
X122202382Y-138433808D01*
X122202382Y-138433808D02*
X122154763Y-138338570D01*
X122154763Y-138338570D02*
X122059525Y-138290951D01*
X122059525Y-138290951D02*
X121916668Y-138290951D01*
X121916668Y-138290951D02*
X121821430Y-138338570D01*
X121345239Y-138957618D02*
X121345239Y-137957618D01*
X121250001Y-138576665D02*
X120964287Y-138957618D01*
X120964287Y-138290951D02*
X121345239Y-138671903D01*
X120630953Y-138290951D02*
X120392858Y-138957618D01*
X120154763Y-138290951D02*
X120392858Y-138957618D01*
X120392858Y-138957618D02*
X120488096Y-139195713D01*
X120488096Y-139195713D02*
X120535715Y-139243332D01*
X120535715Y-139243332D02*
X120630953Y-139290951D01*
X118773810Y-139290951D02*
X118773810Y-137862379D01*
X117345238Y-137957618D02*
X117345238Y-138148094D01*
X116964286Y-137957618D02*
X116964286Y-138148094D01*
X116535714Y-138957618D02*
X116535714Y-137957618D01*
X116535714Y-137957618D02*
X116154762Y-137957618D01*
X116154762Y-137957618D02*
X116059524Y-138005237D01*
X116059524Y-138005237D02*
X116011905Y-138052856D01*
X116011905Y-138052856D02*
X115964286Y-138148094D01*
X115964286Y-138148094D02*
X115964286Y-138290951D01*
X115964286Y-138290951D02*
X116011905Y-138386189D01*
X116011905Y-138386189D02*
X116059524Y-138433808D01*
X116059524Y-138433808D02*
X116154762Y-138481427D01*
X116154762Y-138481427D02*
X116535714Y-138481427D01*
X115535714Y-138957618D02*
X115535714Y-138290951D01*
X115535714Y-138481427D02*
X115488095Y-138386189D01*
X115488095Y-138386189D02*
X115440476Y-138338570D01*
X115440476Y-138338570D02*
X115345238Y-138290951D01*
X115345238Y-138290951D02*
X115250000Y-138290951D01*
X114488095Y-138957618D02*
X114488095Y-138433808D01*
X114488095Y-138433808D02*
X114535714Y-138338570D01*
X114535714Y-138338570D02*
X114630952Y-138290951D01*
X114630952Y-138290951D02*
X114821428Y-138290951D01*
X114821428Y-138290951D02*
X114916666Y-138338570D01*
X114488095Y-138909999D02*
X114583333Y-138957618D01*
X114583333Y-138957618D02*
X114821428Y-138957618D01*
X114821428Y-138957618D02*
X114916666Y-138909999D01*
X114916666Y-138909999D02*
X114964285Y-138814760D01*
X114964285Y-138814760D02*
X114964285Y-138719522D01*
X114964285Y-138719522D02*
X114916666Y-138624284D01*
X114916666Y-138624284D02*
X114821428Y-138576665D01*
X114821428Y-138576665D02*
X114583333Y-138576665D01*
X114583333Y-138576665D02*
X114488095Y-138529046D01*
X114011904Y-138957618D02*
X114011904Y-138290951D01*
X114011904Y-137957618D02*
X114059523Y-138005237D01*
X114059523Y-138005237D02*
X114011904Y-138052856D01*
X114011904Y-138052856D02*
X113964285Y-138005237D01*
X113964285Y-138005237D02*
X114011904Y-137957618D01*
X114011904Y-137957618D02*
X114011904Y-138052856D01*
X113583333Y-138909999D02*
X113488095Y-138957618D01*
X113488095Y-138957618D02*
X113297619Y-138957618D01*
X113297619Y-138957618D02*
X113202381Y-138909999D01*
X113202381Y-138909999D02*
X113154762Y-138814760D01*
X113154762Y-138814760D02*
X113154762Y-138767141D01*
X113154762Y-138767141D02*
X113202381Y-138671903D01*
X113202381Y-138671903D02*
X113297619Y-138624284D01*
X113297619Y-138624284D02*
X113440476Y-138624284D01*
X113440476Y-138624284D02*
X113535714Y-138576665D01*
X113535714Y-138576665D02*
X113583333Y-138481427D01*
X113583333Y-138481427D02*
X113583333Y-138433808D01*
X113583333Y-138433808D02*
X113535714Y-138338570D01*
X113535714Y-138338570D02*
X113440476Y-138290951D01*
X113440476Y-138290951D02*
X113297619Y-138290951D01*
X113297619Y-138290951D02*
X113202381Y-138338570D01*
X112345238Y-138909999D02*
X112440476Y-138957618D01*
X112440476Y-138957618D02*
X112630952Y-138957618D01*
X112630952Y-138957618D02*
X112726190Y-138909999D01*
X112726190Y-138909999D02*
X112773809Y-138814760D01*
X112773809Y-138814760D02*
X112773809Y-138433808D01*
X112773809Y-138433808D02*
X112726190Y-138338570D01*
X112726190Y-138338570D02*
X112630952Y-138290951D01*
X112630952Y-138290951D02*
X112440476Y-138290951D01*
X112440476Y-138290951D02*
X112345238Y-138338570D01*
X112345238Y-138338570D02*
X112297619Y-138433808D01*
X112297619Y-138433808D02*
X112297619Y-138529046D01*
X112297619Y-138529046D02*
X112773809Y-138624284D01*
X111107142Y-138957618D02*
X111107142Y-137957618D01*
X111107142Y-138338570D02*
X111011904Y-138290951D01*
X111011904Y-138290951D02*
X110821428Y-138290951D01*
X110821428Y-138290951D02*
X110726190Y-138338570D01*
X110726190Y-138338570D02*
X110678571Y-138386189D01*
X110678571Y-138386189D02*
X110630952Y-138481427D01*
X110630952Y-138481427D02*
X110630952Y-138767141D01*
X110630952Y-138767141D02*
X110678571Y-138862379D01*
X110678571Y-138862379D02*
X110726190Y-138909999D01*
X110726190Y-138909999D02*
X110821428Y-138957618D01*
X110821428Y-138957618D02*
X111011904Y-138957618D01*
X111011904Y-138957618D02*
X111107142Y-138909999D01*
X109821428Y-138909999D02*
X109916666Y-138957618D01*
X109916666Y-138957618D02*
X110107142Y-138957618D01*
X110107142Y-138957618D02*
X110202380Y-138909999D01*
X110202380Y-138909999D02*
X110249999Y-138814760D01*
X110249999Y-138814760D02*
X110249999Y-138433808D01*
X110249999Y-138433808D02*
X110202380Y-138338570D01*
X110202380Y-138338570D02*
X110107142Y-138290951D01*
X110107142Y-138290951D02*
X109916666Y-138290951D01*
X109916666Y-138290951D02*
X109821428Y-138338570D01*
X109821428Y-138338570D02*
X109773809Y-138433808D01*
X109773809Y-138433808D02*
X109773809Y-138529046D01*
X109773809Y-138529046D02*
X110249999Y-138624284D01*
X108726189Y-138290951D02*
X108345237Y-138290951D01*
X108583332Y-137957618D02*
X108583332Y-138814760D01*
X108583332Y-138814760D02*
X108535713Y-138909999D01*
X108535713Y-138909999D02*
X108440475Y-138957618D01*
X108440475Y-138957618D02*
X108345237Y-138957618D01*
X107869046Y-138957618D02*
X107964284Y-138909999D01*
X107964284Y-138909999D02*
X108011903Y-138862379D01*
X108011903Y-138862379D02*
X108059522Y-138767141D01*
X108059522Y-138767141D02*
X108059522Y-138481427D01*
X108059522Y-138481427D02*
X108011903Y-138386189D01*
X108011903Y-138386189D02*
X107964284Y-138338570D01*
X107964284Y-138338570D02*
X107869046Y-138290951D01*
X107869046Y-138290951D02*
X107726189Y-138290951D01*
X107726189Y-138290951D02*
X107630951Y-138338570D01*
X107630951Y-138338570D02*
X107583332Y-138386189D01*
X107583332Y-138386189D02*
X107535713Y-138481427D01*
X107535713Y-138481427D02*
X107535713Y-138767141D01*
X107535713Y-138767141D02*
X107583332Y-138862379D01*
X107583332Y-138862379D02*
X107630951Y-138909999D01*
X107630951Y-138909999D02*
X107726189Y-138957618D01*
X107726189Y-138957618D02*
X107869046Y-138957618D01*
X105916665Y-138290951D02*
X105916665Y-139100475D01*
X105916665Y-139100475D02*
X105964284Y-139195713D01*
X105964284Y-139195713D02*
X106011903Y-139243332D01*
X106011903Y-139243332D02*
X106107141Y-139290951D01*
X106107141Y-139290951D02*
X106249998Y-139290951D01*
X106249998Y-139290951D02*
X106345236Y-139243332D01*
X105916665Y-138909999D02*
X106011903Y-138957618D01*
X106011903Y-138957618D02*
X106202379Y-138957618D01*
X106202379Y-138957618D02*
X106297617Y-138909999D01*
X106297617Y-138909999D02*
X106345236Y-138862379D01*
X106345236Y-138862379D02*
X106392855Y-138767141D01*
X106392855Y-138767141D02*
X106392855Y-138481427D01*
X106392855Y-138481427D02*
X106345236Y-138386189D01*
X106345236Y-138386189D02*
X106297617Y-138338570D01*
X106297617Y-138338570D02*
X106202379Y-138290951D01*
X106202379Y-138290951D02*
X106011903Y-138290951D01*
X106011903Y-138290951D02*
X105916665Y-138338570D01*
X105297617Y-138957618D02*
X105392855Y-138909999D01*
X105392855Y-138909999D02*
X105440474Y-138862379D01*
X105440474Y-138862379D02*
X105488093Y-138767141D01*
X105488093Y-138767141D02*
X105488093Y-138481427D01*
X105488093Y-138481427D02*
X105440474Y-138386189D01*
X105440474Y-138386189D02*
X105392855Y-138338570D01*
X105392855Y-138338570D02*
X105297617Y-138290951D01*
X105297617Y-138290951D02*
X105154760Y-138290951D01*
X105154760Y-138290951D02*
X105059522Y-138338570D01*
X105059522Y-138338570D02*
X105011903Y-138386189D01*
X105011903Y-138386189D02*
X104964284Y-138481427D01*
X104964284Y-138481427D02*
X104964284Y-138767141D01*
X104964284Y-138767141D02*
X105011903Y-138862379D01*
X105011903Y-138862379D02*
X105059522Y-138909999D01*
X105059522Y-138909999D02*
X105154760Y-138957618D01*
X105154760Y-138957618D02*
X105297617Y-138957618D01*
X104107141Y-138957618D02*
X104107141Y-137957618D01*
X104107141Y-138909999D02*
X104202379Y-138957618D01*
X104202379Y-138957618D02*
X104392855Y-138957618D01*
X104392855Y-138957618D02*
X104488093Y-138909999D01*
X104488093Y-138909999D02*
X104535712Y-138862379D01*
X104535712Y-138862379D02*
X104583331Y-138767141D01*
X104583331Y-138767141D02*
X104583331Y-138481427D01*
X104583331Y-138481427D02*
X104535712Y-138386189D01*
X104535712Y-138386189D02*
X104488093Y-138338570D01*
X104488093Y-138338570D02*
X104392855Y-138290951D01*
X104392855Y-138290951D02*
X104202379Y-138290951D01*
X104202379Y-138290951D02*
X104107141Y-138338570D01*
X103678569Y-137957618D02*
X103678569Y-138148094D01*
X103297617Y-137957618D02*
X103297617Y-138148094D01*
X102107140Y-138576665D02*
X101345236Y-138576665D01*
X100107140Y-138433808D02*
X99773807Y-138433808D01*
X99630950Y-138957618D02*
X100107140Y-138957618D01*
X100107140Y-138957618D02*
X100107140Y-137957618D01*
X100107140Y-137957618D02*
X99630950Y-137957618D01*
X99345235Y-138290951D02*
X98964283Y-138290951D01*
X99202378Y-137957618D02*
X99202378Y-138814760D01*
X99202378Y-138814760D02*
X99154759Y-138909999D01*
X99154759Y-138909999D02*
X99059521Y-138957618D01*
X99059521Y-138957618D02*
X98964283Y-138957618D01*
X98630949Y-138957618D02*
X98630949Y-137957618D01*
X98202378Y-138957618D02*
X98202378Y-138433808D01*
X98202378Y-138433808D02*
X98249997Y-138338570D01*
X98249997Y-138338570D02*
X98345235Y-138290951D01*
X98345235Y-138290951D02*
X98488092Y-138290951D01*
X98488092Y-138290951D02*
X98583330Y-138338570D01*
X98583330Y-138338570D02*
X98630949Y-138386189D01*
X97297616Y-138957618D02*
X97297616Y-138433808D01*
X97297616Y-138433808D02*
X97345235Y-138338570D01*
X97345235Y-138338570D02*
X97440473Y-138290951D01*
X97440473Y-138290951D02*
X97630949Y-138290951D01*
X97630949Y-138290951D02*
X97726187Y-138338570D01*
X97297616Y-138909999D02*
X97392854Y-138957618D01*
X97392854Y-138957618D02*
X97630949Y-138957618D01*
X97630949Y-138957618D02*
X97726187Y-138909999D01*
X97726187Y-138909999D02*
X97773806Y-138814760D01*
X97773806Y-138814760D02*
X97773806Y-138719522D01*
X97773806Y-138719522D02*
X97726187Y-138624284D01*
X97726187Y-138624284D02*
X97630949Y-138576665D01*
X97630949Y-138576665D02*
X97392854Y-138576665D01*
X97392854Y-138576665D02*
X97297616Y-138529046D01*
X96821425Y-138290951D02*
X96821425Y-138957618D01*
X96821425Y-138386189D02*
X96773806Y-138338570D01*
X96773806Y-138338570D02*
X96678568Y-138290951D01*
X96678568Y-138290951D02*
X96535711Y-138290951D01*
X96535711Y-138290951D02*
X96440473Y-138338570D01*
X96440473Y-138338570D02*
X96392854Y-138433808D01*
X96392854Y-138433808D02*
X96392854Y-138957618D01*
X95154758Y-138957618D02*
X95154758Y-137957618D01*
X95154758Y-137957618D02*
X94773806Y-137957618D01*
X94773806Y-137957618D02*
X94678568Y-138005237D01*
X94678568Y-138005237D02*
X94630949Y-138052856D01*
X94630949Y-138052856D02*
X94583330Y-138148094D01*
X94583330Y-138148094D02*
X94583330Y-138290951D01*
X94583330Y-138290951D02*
X94630949Y-138386189D01*
X94630949Y-138386189D02*
X94678568Y-138433808D01*
X94678568Y-138433808D02*
X94773806Y-138481427D01*
X94773806Y-138481427D02*
X95154758Y-138481427D01*
X94154758Y-138957618D02*
X94154758Y-137957618D01*
X93726187Y-138957618D02*
X93726187Y-138433808D01*
X93726187Y-138433808D02*
X93773806Y-138338570D01*
X93773806Y-138338570D02*
X93869044Y-138290951D01*
X93869044Y-138290951D02*
X94011901Y-138290951D01*
X94011901Y-138290951D02*
X94107139Y-138338570D01*
X94107139Y-138338570D02*
X94154758Y-138386189D01*
X93249996Y-138957618D02*
X93249996Y-138290951D01*
X93249996Y-137957618D02*
X93297615Y-138005237D01*
X93297615Y-138005237D02*
X93249996Y-138052856D01*
X93249996Y-138052856D02*
X93202377Y-138005237D01*
X93202377Y-138005237D02*
X93249996Y-137957618D01*
X93249996Y-137957618D02*
X93249996Y-138052856D01*
X92630949Y-138957618D02*
X92726187Y-138909999D01*
X92726187Y-138909999D02*
X92773806Y-138814760D01*
X92773806Y-138814760D02*
X92773806Y-137957618D01*
X92249996Y-138290951D02*
X92249996Y-139290951D01*
X92249996Y-138338570D02*
X92154758Y-138290951D01*
X92154758Y-138290951D02*
X91964282Y-138290951D01*
X91964282Y-138290951D02*
X91869044Y-138338570D01*
X91869044Y-138338570D02*
X91821425Y-138386189D01*
X91821425Y-138386189D02*
X91773806Y-138481427D01*
X91773806Y-138481427D02*
X91773806Y-138767141D01*
X91773806Y-138767141D02*
X91821425Y-138862379D01*
X91821425Y-138862379D02*
X91869044Y-138909999D01*
X91869044Y-138909999D02*
X91964282Y-138957618D01*
X91964282Y-138957618D02*
X92154758Y-138957618D01*
X92154758Y-138957618D02*
X92249996Y-138909999D01*
X91202377Y-138957618D02*
X91297615Y-138909999D01*
X91297615Y-138909999D02*
X91345234Y-138862379D01*
X91345234Y-138862379D02*
X91392853Y-138767141D01*
X91392853Y-138767141D02*
X91392853Y-138481427D01*
X91392853Y-138481427D02*
X91345234Y-138386189D01*
X91345234Y-138386189D02*
X91297615Y-138338570D01*
X91297615Y-138338570D02*
X91202377Y-138290951D01*
X91202377Y-138290951D02*
X91059520Y-138290951D01*
X91059520Y-138290951D02*
X90964282Y-138338570D01*
X90964282Y-138338570D02*
X90916663Y-138386189D01*
X90916663Y-138386189D02*
X90869044Y-138481427D01*
X90869044Y-138481427D02*
X90869044Y-138767141D01*
X90869044Y-138767141D02*
X90916663Y-138862379D01*
X90916663Y-138862379D02*
X90964282Y-138909999D01*
X90964282Y-138909999D02*
X91059520Y-138957618D01*
X91059520Y-138957618D02*
X91202377Y-138957618D01*
X90583329Y-138290951D02*
X90202377Y-138290951D01*
X90440472Y-137957618D02*
X90440472Y-138814760D01*
X90440472Y-138814760D02*
X90392853Y-138909999D01*
X90392853Y-138909999D02*
X90297615Y-138957618D01*
X90297615Y-138957618D02*
X90202377Y-138957618D01*
X90011900Y-138290951D02*
X89630948Y-138290951D01*
X89869043Y-137957618D02*
X89869043Y-138814760D01*
X89869043Y-138814760D02*
X89821424Y-138909999D01*
X89821424Y-138909999D02*
X89726186Y-138957618D01*
X89726186Y-138957618D02*
X89630948Y-138957618D01*
X160133333Y-98662619D02*
X160133333Y-99376904D01*
X160133333Y-99376904D02*
X160180952Y-99519761D01*
X160180952Y-99519761D02*
X160276190Y-99615000D01*
X160276190Y-99615000D02*
X160419047Y-99662619D01*
X160419047Y-99662619D02*
X160514285Y-99662619D01*
X159704761Y-98757857D02*
X159657142Y-98710238D01*
X159657142Y-98710238D02*
X159561904Y-98662619D01*
X159561904Y-98662619D02*
X159323809Y-98662619D01*
X159323809Y-98662619D02*
X159228571Y-98710238D01*
X159228571Y-98710238D02*
X159180952Y-98757857D01*
X159180952Y-98757857D02*
X159133333Y-98853095D01*
X159133333Y-98853095D02*
X159133333Y-98948333D01*
X159133333Y-98948333D02*
X159180952Y-99091190D01*
X159180952Y-99091190D02*
X159752380Y-99662619D01*
X159752380Y-99662619D02*
X159133333Y-99662619D01*
D12*
X158752992Y-95535000D02*
X158752992Y-94265000D01*
X158752992Y-94265000D02*
X157228992Y-94900000D01*
X157228992Y-94900000D02*
X158752992Y-95535000D01*
X156974992Y-94475000D02*
X156974992Y-99104960D01*
X155515982Y-102425000D02*
X149684019Y-102425000D01*
X154470040Y-94475000D02*
X156974992Y-94475000D01*
X152470039Y-94475000D02*
X152729960Y-94475000D01*
X148225009Y-99104960D02*
X148225009Y-94475000D01*
X148225009Y-94475000D02*
X150729959Y-94475000D01*
%LPC*%
D13*
X163450000Y-143450000D03*
D14*
X121400000Y-95500000D03*
D15*
X161364000Y-58495000D03*
D14*
X116300000Y-101600000D03*
D13*
X73550000Y-53550000D03*
D15*
X161364000Y-138505000D03*
X75639000Y-134695000D03*
X75639000Y-61035000D03*
D13*
X73550000Y-143450000D03*
D14*
X121300000Y-101600000D03*
D13*
X163450000Y-53550000D03*
D14*
X116300000Y-95500000D03*
D16*
X148705003Y-100874999D03*
X156494998Y-100874999D03*
D17*
X151599999Y-94900000D03*
X153600000Y-94900000D03*
M02*
